<svg width="45" height="45" viewBox="0 0 45 45" fill="none" xmlns="http://www.w3.org/2000/svg">
<g clip-path="url(#clip0)">
<path d="M98.1818 -53.1819H-53.1819V98.1818H98.1818V-53.1819Z" fill="white"/>
<path d="M28.6364 -4.09082H32.7273C32.7273 -4.09082 31.4415 -1.40251 32.5519 8.91685e-05C32.5519 8.91685e-05 28.6364 0.0585303 28.6364 -4.09082Z" fill="black"/>
<path d="M-4.09091 4.09091V0C-4.09091 0 -1.43182 1.28571 -2.38419e-06 0.146104C-2.38419e-06 0.146104 0.0584388 4.09091 -4.09091 4.09091Z" fill="black"/>
<path d="M4.09091 0H8.18182V4.09091H7.18832C5.46429 4.09091 4.09091 2.25 4.09091 0Z" fill="black"/>
<path d="M8.18182 4.09091V0C8.18182 0 10.8409 1.28571 12.2727 0.146104C12.2727 0.146104 12.3312 4.09091 8.18182 4.09091Z" fill="black"/>
<path d="M26.5909 0C27.7208 0 28.6363 0.915545 28.6363 2.04545C28.6363 3.17536 27.7208 4.09091 26.5909 4.09091C25.461 4.09091 24.5454 3.17536 24.5454 2.04545C24.5454 0.915545 25.461 0 26.5909 0Z" fill="black"/>
<path d="M36.8182 4.09095H32.7273C32.7273 4.09095 34.013 1.40264 32.8734 4.38667e-05C32.8734 4.38667e-05 36.8182 -0.0583978 36.8182 4.09095Z" fill="black"/>
<path d="M14.3182 4.09106C15.4481 4.09106 16.3636 5.00661 16.3636 6.13652C16.3636 7.26643 15.4481 8.18197 14.3182 8.18197C13.1883 8.18197 12.2727 7.26643 12.2727 6.13652C12.2727 5.00661 13.1883 4.09106 14.3182 4.09106Z" fill="black"/>
<path d="M24.5454 8.18178H20.4545C20.4545 8.18178 21.7402 5.49346 20.6006 4.09086C20.6006 4.09086 24.5454 4.03242 24.5454 8.18178Z" fill="black"/>
<path d="M32.7273 4.09106V8.18197C32.7273 8.18197 30.039 6.89626 28.6364 8.00665C28.6364 8.00665 28.5779 4.09106 32.7273 4.09106Z" fill="black"/>
<path d="M36.8182 4.09106H32.7273V8.18197H36.8182V4.09106Z" fill="black"/>
<path d="M40.9091 4.09106H36.8182V8.18197H40.9091V4.09106Z" fill="black"/>
<path d="M45 4.09106H40.9091V8.18197H45V4.09106Z" fill="black"/>
<path d="M4.09091 12.2728H0C0 12.2728 1.28571 9.58453 0.146104 8.18193C0.146104 8.18193 4.09091 8.12349 4.09091 12.2728Z" fill="black"/>
<path d="M20.4545 8.18188V12.2728C20.4545 12.2728 17.7662 10.9871 16.3636 12.0975C16.3636 12.0975 16.3052 8.18188 20.4545 8.18188Z" fill="black"/>
<path d="M24.5454 8.18188H20.4545V12.2728H24.5454V8.18188Z" fill="black"/>
<path d="M24.5454 12.2728V8.18188C24.5454 8.18188 27.2045 9.4676 28.6363 8.32799C28.6363 8.32799 28.6948 12.2728 24.5454 12.2728Z" fill="black"/>
<path d="M32.7273 8.18188H36.8182C36.8182 8.18188 35.5325 10.8702 36.6428 12.2728C36.6428 12.2728 32.7273 12.3312 32.7273 8.18188Z" fill="black"/>
<path d="M40.9091 8.18188H45V12.2728H44.0065C42.2825 12.2728 40.9091 10.4319 40.9091 8.18188Z" fill="black"/>
<path d="M0 12.2727H4.09091V16.3636H3.0974C1.37338 16.3636 0 14.5227 0 12.2727Z" fill="black"/>
<path d="M4.09091 16.3636V12.2727C4.09091 12.2727 6.75 13.5584 8.18182 12.4188C8.18182 12.4188 8.24026 16.3636 4.09091 16.3636Z" fill="black"/>
<path d="M30.6818 12.2727C31.8117 12.2727 32.7273 13.1883 32.7273 14.3182C32.7273 15.4481 31.8117 16.3636 30.6818 16.3636C29.5519 16.3636 28.6364 15.4481 28.6364 14.3182C28.6364 13.1883 29.5519 12.2727 30.6818 12.2727Z" fill="black"/>
<path d="M38.8636 12.2727C39.9935 12.2727 40.9091 13.1883 40.9091 14.3182C40.9091 15.4481 39.9935 16.3636 38.8636 16.3636C37.7337 16.3636 36.8182 15.4481 36.8182 14.3182C36.8182 13.1883 37.7337 12.2727 38.8636 12.2727Z" fill="black"/>
<path d="M12.2727 16.3638V20.4547H8.18182V19.4612C8.18182 17.7371 10.0227 16.3638 12.2727 16.3638Z" fill="black"/>
<path d="M12.2727 20.4547V16.3638C12.2727 16.3638 14.9318 17.6495 16.3637 16.5099C16.3637 16.5099 16.4221 20.4547 12.2727 20.4547Z" fill="black"/>
<path d="M24.5454 16.3638V20.4547H20.4545V19.4612C20.4545 17.7371 22.2954 16.3638 24.5454 16.3638Z" fill="black"/>
<path d="M24.5454 20.4547V16.3638C24.5454 16.3638 27.2045 17.6495 28.6363 16.5099C28.6363 16.5099 28.6948 20.4547 24.5454 20.4547Z" fill="black"/>
<path d="M36.8182 20.4545H32.7273C32.7273 20.4545 34.013 17.7662 32.8734 16.3636C32.8734 16.3636 36.8182 16.3051 36.8182 20.4545Z" fill="black"/>
<path d="M-4.09091 24.5455V20.4546C-4.09091 20.4546 -1.43182 21.7403 -2.38419e-06 20.6007C-2.38419e-06 20.6007 0.0584388 24.5455 -4.09091 24.5455Z" fill="black"/>
<path d="M8.18182 20.4546H12.2727C12.2727 20.4546 10.987 23.1429 12.0974 24.5455C12.0974 24.5455 8.18182 24.6039 8.18182 20.4546Z" fill="black"/>
<path d="M20.4545 20.4546H24.5454C24.5454 20.4546 23.2597 23.1429 24.3701 24.5455C24.3701 24.5455 20.4545 24.6039 20.4545 20.4546Z" fill="black"/>
<path d="M32.7273 20.4546V24.5455H28.6364V23.552C28.6364 21.828 30.4773 20.4546 32.7273 20.4546Z" fill="black"/>
<path d="M32.7273 24.5455V20.4546H36.8182V21.4481C36.8182 23.1721 34.9773 24.5455 32.7273 24.5455Z" fill="black"/>
<path d="M4.09091 24.5457V28.6366H0V27.6431C0 25.919 1.84091 24.5457 4.09091 24.5457Z" fill="black"/>
<path d="M4.09091 28.6366V24.5457C4.09091 24.5457 6.75 25.8314 8.18182 24.6918C8.18182 24.6918 8.24026 28.6366 4.09091 28.6366Z" fill="black"/>
<path d="M14.3182 24.5457C15.4481 24.5457 16.3636 25.4612 16.3636 26.5911C16.3636 27.721 15.4481 28.6366 14.3182 28.6366C13.1883 28.6366 12.2727 27.721 12.2727 26.5911C12.2727 25.4612 13.1883 24.5457 14.3182 24.5457Z" fill="black"/>
<path d="M28.6363 24.5457V28.6366H24.5454V27.6431C24.5454 25.919 26.3863 24.5457 28.6363 24.5457Z" fill="black"/>
<path d="M28.6364 28.6366V24.5457H32.7273V25.5392C32.7273 27.2632 30.8864 28.6366 28.6364 28.6366Z" fill="black"/>
<path d="M40.9091 24.5457V28.6366H36.8182V27.6431C36.8182 25.919 38.6591 24.5457 40.9091 24.5457Z" fill="black"/>
<path d="M45 24.5457H40.9091V28.6366H45V24.5457Z" fill="black"/>
<path d="M4.09091 28.6365H0V32.7274H4.09091V28.6365Z" fill="black"/>
<path d="M12.2727 32.7272H8.18182C8.18182 32.7272 9.46754 30.0389 8.32793 28.6363C8.32793 28.6363 12.2727 28.5778 12.2727 32.7272Z" fill="black"/>
<path d="M20.4546 32.7272H16.3636C16.3636 32.7272 17.6494 30.0389 16.5098 28.6363C16.5098 28.6363 20.4546 28.5778 20.4546 32.7272Z" fill="black"/>
<path d="M28.6363 28.6365H24.5454V32.7274H28.6363V28.6365Z" fill="black"/>
<path d="M36.8182 28.6365H40.9091C40.9091 28.6365 39.6234 31.3248 40.7338 32.7274C40.7338 32.7274 36.8182 32.7858 36.8182 28.6365Z" fill="black"/>
<path d="M0 32.7273H4.09091V36.8182H3.0974C1.37338 36.8182 0 34.9773 0 32.7273Z" fill="black"/>
<path d="M8.18182 32.7273H4.09091V36.8182H8.18182V32.7273Z" fill="black"/>
<path d="M12.2727 32.7273H8.18182V36.8182H12.2727V32.7273Z" fill="black"/>
<path d="M20.4546 32.7273H16.3636V36.8182H20.4546V32.7273Z" fill="black"/>
<path d="M24.5454 32.7273H28.6363C28.6363 32.7273 27.3506 35.4156 28.461 36.8182C28.461 36.8182 24.5454 36.8767 24.5454 32.7273Z" fill="black"/>
<path d="M36.8182 36.8183H32.7273C32.7273 36.8183 34.013 34.1299 32.8734 32.7273C32.8734 32.7273 36.8182 32.6689 36.8182 36.8183Z" fill="black"/>
<path d="M49.0909 32.7273V36.8182C49.0909 36.8182 46.4026 35.5325 45 36.6429C45 36.6429 44.9415 32.7273 49.0909 32.7273Z" fill="black"/>
<path d="M-4.09091 40.9093V36.8184C-4.09091 36.8184 -1.43182 38.1041 -2.38419e-06 36.9645C-2.38419e-06 36.9645 0.0584388 40.9093 -4.09091 40.9093Z" fill="black"/>
<path d="M8.18182 36.8184H4.09091V40.9093H8.18182V36.8184Z" fill="black"/>
<path d="M12.2727 36.8184H8.18182V40.9093H12.2727V36.8184Z" fill="black"/>
<path d="M16.3636 36.8184H12.2727V40.9093H16.3636V36.8184Z" fill="black"/>
<path d="M20.4546 36.8184H16.3636V40.9093H20.4546V36.8184Z" fill="black"/>
<path d="M36.8182 36.8184H32.7273V40.9093H36.8182V36.8184Z" fill="black"/>
<path d="M40.9091 40.9093H36.8182V36.8184H37.8117C39.5357 36.8184 40.9091 38.6593 40.9091 40.9093Z" fill="black"/>
<path d="M8.18182 40.9092H4.09091V45.0001H8.18182V40.9092Z" fill="black"/>
<path d="M20.4546 40.9092H16.3636V45.0001H20.4546V40.9092Z" fill="black"/>
<path d="M28.6363 40.9092V45.0001H24.5454V44.0066C24.5454 42.2826 26.3863 40.9092 28.6363 40.9092Z" fill="black"/>
<path d="M32.7273 40.9092H28.6364V45.0001H32.7273V40.9092Z" fill="black"/>
<path d="M36.8182 40.9092H32.7273V45.0001H36.8182V40.9092Z" fill="black"/>
<path d="M40.9091 40.9092H36.8182V45.0001H40.9091V40.9092Z" fill="black"/>
<path d="M45 40.9092H40.9091V45.0001H45V40.9092Z" fill="black"/>
</g>
<defs>
<clipPath id="clip0">
<rect width="45" height="45" fill="white"/>
</clipPath>
</defs>
</svg>
