<svg width="45" height="45" viewBox="0 0 45 45" fill="none" xmlns="http://www.w3.org/2000/svg">
<g clip-path="url(#clip0)">
<path d="M98.1818 -53.1819H-53.1818V98.1818H98.1818V-53.1819Z" fill="white"/>
<path d="M8.18182 0H4.09091V2.68364C4.09091 3.07227 4.23 3.40364 4.50409 3.67773C4.77818 3.95182 5.10955 4.09091 5.49819 4.09091H8.18182V0Z" fill="black"/>
<path d="M12.2727 4.09091H8.18182V0H10.6118L12.2727 4.09091Z" fill="black"/>
<path d="M28.4318 2.62232C28.4318 2.97413 28.3091 3.27277 28.0596 3.51823C27.8141 3.76368 27.5155 3.8905 27.1636 3.8905H26.0141C25.6623 3.8905 25.3677 3.76777 25.1182 3.51823C24.8727 3.27277 24.7459 2.97413 24.7459 2.62232V1.47277C24.7459 1.12095 24.8686 0.826407 25.1182 0.576862C25.3636 0.331407 25.6623 0.20459 26.0141 0.20459H27.1636C27.5155 0.20459 27.8141 0.327316 28.0596 0.576862C28.305 0.826407 28.4318 1.12095 28.4318 1.47277V2.62232Z" fill="black"/>
<path d="M36.8182 0V4.09091H32.7273V1.66091L36.8182 0Z" fill="black"/>
<path d="M16.1591 6.71314C16.1591 7.06496 16.0364 7.3636 15.7868 7.60905C15.5414 7.8545 15.2427 7.98132 14.8909 7.98132H13.7414C13.3895 7.98132 13.095 7.8586 12.8454 7.60905C12.6 7.3636 12.4732 7.06496 12.4732 6.71314V5.56359C12.4732 5.21177 12.5959 4.91723 12.8454 4.66768C13.0909 4.42223 13.3895 4.29541 13.7414 4.29541H14.8909C15.2427 4.29541 15.5414 4.41814 15.7868 4.66768C16.0323 4.91723 16.1591 5.21177 16.1591 5.56359V6.71314Z" fill="black"/>
<path d="M24.5455 4.09082V8.18173H20.4545V5.75173L24.5455 4.09082Z" fill="black"/>
<path d="M28.6364 4.09082H32.7273V8.18173H30.2973L28.6364 4.09082Z" fill="black"/>
<path d="M36.8182 4.09082H32.7273V8.18173H36.8182V4.09082Z" fill="black"/>
<path d="M40.9091 4.09082H36.8182V8.18173H40.9091V4.09082Z" fill="black"/>
<path d="M45 4.09082H40.9091V8.18173H45V4.09082Z" fill="black"/>
<path d="M4.09091 8.18188V12.2728H0V9.84279L4.09091 8.18188Z" fill="black"/>
<path d="M16.3636 8.18188H20.4545V12.2728H18.0245L16.3636 8.18188Z" fill="black"/>
<path d="M24.5455 8.18188H20.4545V12.2728H24.5455V8.18188Z" fill="black"/>
<path d="M28.6364 12.2728H24.5455V8.18188H26.9755L28.6364 12.2728Z" fill="black"/>
<path d="M32.7273 12.2728V8.18188H36.8182V10.6119L32.7273 12.2728Z" fill="black"/>
<path d="M45 8.18188H40.9091V10.8655C40.9091 11.2542 41.0482 11.5855 41.3223 11.8596C41.5964 12.1337 41.9277 12.2728 42.3164 12.2728H45V8.18188Z" fill="black"/>
<path d="M4.09091 12.2727H0V14.9563C0 15.345 0.13909 15.6763 0.413181 15.9504C0.687272 16.2245 1.01864 16.3636 1.40727 16.3636H4.09091V12.2727Z" fill="black"/>
<path d="M8.18182 16.3636H4.09091V12.2727H6.52091L8.18182 16.3636Z" fill="black"/>
<path d="M32.5227 14.895C32.5227 15.2468 32.4 15.5455 32.1504 15.7909C31.905 16.0364 31.6064 16.1632 31.2545 16.1632H30.105C29.7532 16.1632 29.4586 16.0405 29.2091 15.7909C28.9636 15.5455 28.8368 15.2468 28.8368 14.895V13.7455C28.8368 13.3937 28.9595 13.0991 29.2091 12.8496C29.4545 12.6041 29.7532 12.4773 30.105 12.4773H31.2545C31.6064 12.4773 31.905 12.6 32.1504 12.8496C32.3959 13.0991 32.5227 13.3937 32.5227 13.7455V14.895Z" fill="black"/>
<path d="M40.7045 14.895C40.7045 15.2468 40.5818 15.5455 40.3323 15.7909C40.0868 16.0364 39.7882 16.1632 39.4364 16.1632H38.2868C37.935 16.1632 37.6404 16.0405 37.3909 15.7909C37.1454 15.5455 37.0186 15.2468 37.0186 14.895V13.7455C37.0186 13.3937 37.1414 13.0991 37.3909 12.8496C37.6364 12.6041 37.935 12.4773 38.2868 12.4773H39.4364C39.7882 12.4773 40.0868 12.6 40.3323 12.8496C40.5777 13.0991 40.7045 13.3937 40.7045 13.7455V14.895Z" fill="black"/>
<path d="M12.2727 17.7708V16.3635H9.5891C9.20046 16.3635 8.8691 16.5026 8.595 16.7767C8.32091 17.0508 8.18182 17.3822 8.18182 17.7708V20.4544H12.2727V17.7708Z" fill="black"/>
<path d="M16.3636 20.4544H12.2727V16.3635H14.7027L16.3636 20.4544Z" fill="black"/>
<path d="M24.5455 17.7708V16.3635H21.8618C21.4732 16.3635 21.1418 16.5026 20.8677 16.7767C20.5936 17.0508 20.4545 17.3822 20.4545 17.7708V20.4544H24.5455V17.7708Z" fill="black"/>
<path d="M28.6364 20.4544H24.5455V16.3635H26.9755L28.6364 20.4544Z" fill="black"/>
<path d="M36.8182 16.3635V20.4544H32.7273V18.0244L36.8182 16.3635Z" fill="black"/>
<path d="M8.18182 24.5455V20.4546H12.2727V22.8846L8.18182 24.5455Z" fill="black"/>
<path d="M20.4545 24.5455V20.4546H24.5455V22.8846L20.4545 24.5455Z" fill="black"/>
<path d="M32.7273 21.8619V20.4546H30.0436C29.655 20.4546 29.3236 20.5937 29.0495 20.8678C28.7755 21.1419 28.6364 21.4732 28.6364 21.8619V24.5455H32.7273V21.8619Z" fill="black"/>
<path d="M36.8182 20.4546H32.7273V24.5455H35.4109C35.7995 24.5455 36.1309 24.4064 36.405 24.1323C36.6791 23.8582 36.8182 23.5269 36.8182 23.1382V20.4546Z" fill="black"/>
<path d="M4.09091 25.9527V24.5454H1.40727C1.01864 24.5454 0.687272 24.6845 0.413181 24.9586C0.13909 25.2327 0 25.564 0 25.9527V28.6363H4.09091V25.9527Z" fill="black"/>
<path d="M8.18182 28.6363H4.09091V24.5454H6.52091L8.18182 28.6363Z" fill="black"/>
<path d="M16.1591 27.1677C16.1591 27.5195 16.0364 27.8182 15.7868 28.0636C15.5414 28.3091 15.2427 28.4359 14.8909 28.4359H13.7414C13.3895 28.4359 13.095 28.3132 12.8454 28.0636C12.6 27.8182 12.4732 27.5195 12.4732 27.1677V26.0182C12.4732 25.6664 12.5959 25.3718 12.8454 25.1223C13.0909 24.8768 13.3895 24.75 13.7414 24.75H14.8909C15.2427 24.75 15.5414 24.8727 15.7868 25.1223C16.0323 25.3718 16.1591 25.6664 16.1591 26.0182V27.1677Z" fill="black"/>
<path d="M28.6364 25.9527V24.5454H25.9527C25.5641 24.5454 25.2327 24.6845 24.9586 24.9586C24.6845 25.2327 24.5455 25.564 24.5455 25.9527V28.6363H28.6364V25.9527Z" fill="black"/>
<path d="M32.7273 24.5454H28.6364V28.6363H31.32C31.7086 28.6363 32.04 28.4972 32.3141 28.2231C32.5882 27.949 32.7273 27.6177 32.7273 27.229V24.5454Z" fill="black"/>
<path d="M40.9091 25.9527V24.5454H38.2255C37.8368 24.5454 37.5054 24.6845 37.2314 24.9586C36.9573 25.2327 36.8182 25.564 36.8182 25.9527V28.6363H40.9091V25.9527Z" fill="black"/>
<path d="M45 24.5454H40.9091V28.6363H45V24.5454Z" fill="black"/>
<path d="M4.09091 28.6365H0V32.7274H4.09091V28.6365Z" fill="black"/>
<path d="M12.2727 28.6365V32.7274H8.18182V30.2974L12.2727 28.6365Z" fill="black"/>
<path d="M20.4545 28.6365V32.7274H16.3636V30.2974L20.4545 28.6365Z" fill="black"/>
<path d="M28.6364 28.6365H24.5455V32.7274H28.6364V28.6365Z" fill="black"/>
<path d="M36.8182 32.7274V28.6365H40.9091V31.0665L36.8182 32.7274Z" fill="black"/>
<path d="M4.09091 32.7273H0V35.4109C0 35.7996 0.13909 36.1309 0.413181 36.405C0.687272 36.6791 1.01864 36.8182 1.40727 36.8182H4.09091V32.7273Z" fill="black"/>
<path d="M8.18182 32.7273H4.09091V36.8182H8.18182V32.7273Z" fill="black"/>
<path d="M12.2727 32.7273H8.18182V36.8182H12.2727V32.7273Z" fill="black"/>
<path d="M20.4545 32.7273H16.3636V36.8182H20.4545V32.7273Z" fill="black"/>
<path d="M24.5455 36.8182V32.7273H28.6364V35.1573L24.5455 36.8182Z" fill="black"/>
<path d="M36.8182 32.7273V36.8182H32.7273V34.3882L36.8182 32.7273Z" fill="black"/>
<path d="M8.18182 36.8181H4.09091V40.909H8.18182V36.8181Z" fill="black"/>
<path d="M12.2727 36.8181H8.18182V40.909H12.2727V36.8181Z" fill="black"/>
<path d="M16.3636 36.8181H12.2727V40.909H16.3636V36.8181Z" fill="black"/>
<path d="M20.4545 36.8181H16.3636V40.909H20.4545V36.8181Z" fill="black"/>
<path d="M36.8182 36.8181H32.7273V40.909H36.8182V36.8181Z" fill="black"/>
<path d="M40.9091 38.2254C40.9091 37.8368 40.77 37.5054 40.4959 37.2313C40.2218 36.9572 39.8905 36.8181 39.5018 36.8181H36.8182V40.909H40.9091V38.2254Z" fill="black"/>
<path d="M8.18182 40.9092H4.09091V45.0001H8.18182V40.9092Z" fill="black"/>
<path d="M20.4545 40.9092H16.3636V45.0001H20.4545V40.9092Z" fill="black"/>
<path d="M28.6364 42.3165V40.9092H25.9527C25.5641 40.9092 25.2327 41.0483 24.9586 41.3224C24.6845 41.5965 24.5455 41.9278 24.5455 42.3165V45.0001H28.6364V42.3165Z" fill="black"/>
<path d="M32.7273 40.9092H28.6364V45.0001H32.7273V40.9092Z" fill="black"/>
<path d="M36.8182 40.9092H32.7273V45.0001H36.8182V40.9092Z" fill="black"/>
<path d="M40.9091 40.9092H36.8182V45.0001H40.9091V40.9092Z" fill="black"/>
<path d="M45 40.9092H40.9091V45.0001H45V40.9092Z" fill="black"/>
</g>
<defs>
<clipPath id="clip0">
<rect width="45" height="45" fill="white"/>
</clipPath>
</defs>
</svg>
