<svg width="45" height="45" viewBox="0 0 45 45" fill="none" xmlns="http://www.w3.org/2000/svg">
<g clip-path="url(#clip0)">
<path d="M98.1818 -53.1819H-53.1819V98.1818H98.1818V-53.1819Z" fill="white"/>
<path d="M6.13637 0C7.26628 0 8.18182 0.915545 8.18182 2.04545C8.18182 3.17536 7.26628 4.09091 6.13637 4.09091C5.00646 4.09091 4.09091 3.17536 4.09091 2.04545C4.09091 0.915545 5.00646 0 6.13637 0Z" fill="black"/>
<path d="M10.2273 0C11.3572 0 12.2727 0.915545 12.2727 2.04545C12.2727 3.17536 11.3572 4.09091 10.2273 4.09091C9.09735 4.09091 8.18181 3.17536 8.18181 2.04545C8.18181 0.915545 9.09735 0 10.2273 0Z" fill="black"/>
<path d="M26.5909 0C27.7208 0 28.6364 0.915545 28.6364 2.04545C28.6364 3.17536 27.7208 4.09091 26.5909 4.09091C25.461 4.09091 24.5455 3.17536 24.5455 2.04545C24.5455 0.915545 25.461 0 26.5909 0Z" fill="black"/>
<path d="M34.7727 0C35.9026 0 36.8182 0.915545 36.8182 2.04545C36.8182 3.17536 35.9026 4.09091 34.7727 4.09091C33.6428 4.09091 32.7273 3.17536 32.7273 2.04545C32.7273 0.915545 33.6428 0 34.7727 0Z" fill="black"/>
<path d="M14.3182 4.09106C15.4481 4.09106 16.3636 5.00661 16.3636 6.13652C16.3636 7.26643 15.4481 8.18197 14.3182 8.18197C13.1883 8.18197 12.2727 7.26643 12.2727 6.13652C12.2727 5.00661 13.1883 4.09106 14.3182 4.09106Z" fill="black"/>
<path d="M22.5 4.09106C23.6299 4.09106 24.5455 5.00661 24.5455 6.13652C24.5455 7.26643 23.6299 8.18197 22.5 8.18197C21.3701 8.18197 20.4545 7.26643 20.4545 6.13652C20.4545 5.00661 21.3701 4.09106 22.5 4.09106Z" fill="black"/>
<path d="M30.6818 4.09106C31.8117 4.09106 32.7273 5.00661 32.7273 6.13652C32.7273 7.26643 31.8117 8.18197 30.6818 8.18197C29.5519 8.18197 28.6364 7.26643 28.6364 6.13652C28.6364 5.00661 29.5519 4.09106 30.6818 4.09106Z" fill="black"/>
<path d="M34.7727 4.09106C35.9026 4.09106 36.8182 5.00661 36.8182 6.13652C36.8182 7.26643 35.9026 8.18197 34.7727 8.18197C33.6428 8.18197 32.7273 7.26643 32.7273 6.13652C32.7273 5.00661 33.6428 4.09106 34.7727 4.09106Z" fill="black"/>
<path d="M38.8636 4.09106C39.9935 4.09106 40.9091 5.00661 40.9091 6.13652C40.9091 7.26643 39.9935 8.18197 38.8636 8.18197C37.7337 8.18197 36.8182 7.26643 36.8182 6.13652C36.8182 5.00661 37.7337 4.09106 38.8636 4.09106Z" fill="black"/>
<path d="M42.9545 4.09106C44.0845 4.09106 45 5.00661 45 6.13652C45 7.26643 44.0845 8.18197 42.9545 8.18197C41.8246 8.18197 40.9091 7.26643 40.9091 6.13652C40.9091 5.00661 41.8246 4.09106 42.9545 4.09106Z" fill="black"/>
<path d="M2.04545 8.18188C3.17536 8.18188 4.09091 9.09743 4.09091 10.2273C4.09091 11.3572 3.17536 12.2728 2.04545 12.2728C0.915545 12.2728 0 11.3572 0 10.2273C0 9.09743 0.915545 8.18188 2.04545 8.18188Z" fill="black"/>
<path d="M18.4091 8.18188C19.539 8.18188 20.4545 9.09743 20.4545 10.2273C20.4545 11.3572 19.539 12.2728 18.4091 12.2728C17.2792 12.2728 16.3636 11.3572 16.3636 10.2273C16.3636 9.09743 17.2792 8.18188 18.4091 8.18188Z" fill="black"/>
<path d="M22.5 8.18188C23.6299 8.18188 24.5455 9.09743 24.5455 10.2273C24.5455 11.3572 23.6299 12.2728 22.5 12.2728C21.3701 12.2728 20.4545 11.3572 20.4545 10.2273C20.4545 9.09743 21.3701 8.18188 22.5 8.18188Z" fill="black"/>
<path d="M26.5909 8.18188C27.7208 8.18188 28.6364 9.09743 28.6364 10.2273C28.6364 11.3572 27.7208 12.2728 26.5909 12.2728C25.461 12.2728 24.5455 11.3572 24.5455 10.2273C24.5455 9.09743 25.461 8.18188 26.5909 8.18188Z" fill="black"/>
<path d="M34.7727 8.18188C35.9026 8.18188 36.8182 9.09743 36.8182 10.2273C36.8182 11.3572 35.9026 12.2728 34.7727 12.2728C33.6428 12.2728 32.7273 11.3572 32.7273 10.2273C32.7273 9.09743 33.6428 8.18188 34.7727 8.18188Z" fill="black"/>
<path d="M42.9545 8.18188C44.0845 8.18188 45 9.09743 45 10.2273C45 11.3572 44.0845 12.2728 42.9545 12.2728C41.8246 12.2728 40.9091 11.3572 40.9091 10.2273C40.9091 9.09743 41.8246 8.18188 42.9545 8.18188Z" fill="black"/>
<path d="M2.04545 12.2727C3.17536 12.2727 4.09091 13.1883 4.09091 14.3182C4.09091 15.4481 3.17536 16.3636 2.04545 16.3636C0.915545 16.3636 0 15.4481 0 14.3182C0 13.1883 0.915545 12.2727 2.04545 12.2727Z" fill="black"/>
<path d="M6.13637 12.2727C7.26628 12.2727 8.18182 13.1883 8.18182 14.3182C8.18182 15.4481 7.26628 16.3636 6.13637 16.3636C5.00646 16.3636 4.09091 15.4481 4.09091 14.3182C4.09091 13.1883 5.00646 12.2727 6.13637 12.2727Z" fill="black"/>
<path d="M30.6818 12.2727C31.8117 12.2727 32.7273 13.1883 32.7273 14.3182C32.7273 15.4481 31.8117 16.3636 30.6818 16.3636C29.5519 16.3636 28.6364 15.4481 28.6364 14.3182C28.6364 13.1883 29.5519 12.2727 30.6818 12.2727Z" fill="black"/>
<path d="M38.8636 12.2727C39.9935 12.2727 40.9091 13.1883 40.9091 14.3182C40.9091 15.4481 39.9935 16.3636 38.8636 16.3636C37.7337 16.3636 36.8182 15.4481 36.8182 14.3182C36.8182 13.1883 37.7337 12.2727 38.8636 12.2727Z" fill="black"/>
<path d="M10.2273 16.3638C11.3572 16.3638 12.2727 17.2793 12.2727 18.4092C12.2727 19.5391 11.3572 20.4547 10.2273 20.4547C9.09735 20.4547 8.18181 19.5391 8.18181 18.4092C8.18181 17.2793 9.09735 16.3638 10.2273 16.3638Z" fill="black"/>
<path d="M14.3182 16.3638C15.4481 16.3638 16.3636 17.2793 16.3636 18.4092C16.3636 19.5391 15.4481 20.4547 14.3182 20.4547C13.1883 20.4547 12.2727 19.5391 12.2727 18.4092C12.2727 17.2793 13.1883 16.3638 14.3182 16.3638Z" fill="black"/>
<path d="M22.5 16.3638C23.6299 16.3638 24.5455 17.2793 24.5455 18.4092C24.5455 19.5391 23.6299 20.4547 22.5 20.4547C21.3701 20.4547 20.4545 19.5391 20.4545 18.4092C20.4545 17.2793 21.3701 16.3638 22.5 16.3638Z" fill="black"/>
<path d="M26.5909 16.3638C27.7208 16.3638 28.6364 17.2793 28.6364 18.4092C28.6364 19.5391 27.7208 20.4547 26.5909 20.4547C25.461 20.4547 24.5455 19.5391 24.5455 18.4092C24.5455 17.2793 25.461 16.3638 26.5909 16.3638Z" fill="black"/>
<path d="M34.7727 16.3638C35.9026 16.3638 36.8182 17.2793 36.8182 18.4092C36.8182 19.5391 35.9026 20.4547 34.7727 20.4547C33.6428 20.4547 32.7273 19.5391 32.7273 18.4092C32.7273 17.2793 33.6428 16.3638 34.7727 16.3638Z" fill="black"/>
<path d="M10.2273 20.4546C11.3572 20.4546 12.2727 21.3701 12.2727 22.5C12.2727 23.63 11.3572 24.5455 10.2273 24.5455C9.09735 24.5455 8.18181 23.63 8.18181 22.5C8.18181 21.3701 9.09735 20.4546 10.2273 20.4546Z" fill="black"/>
<path d="M22.5 20.4546C23.6299 20.4546 24.5455 21.3701 24.5455 22.5C24.5455 23.63 23.6299 24.5455 22.5 24.5455C21.3701 24.5455 20.4545 23.63 20.4545 22.5C20.4545 21.3701 21.3701 20.4546 22.5 20.4546Z" fill="black"/>
<path d="M30.6818 20.4546C31.8117 20.4546 32.7273 21.3701 32.7273 22.5C32.7273 23.63 31.8117 24.5455 30.6818 24.5455C29.5519 24.5455 28.6364 23.63 28.6364 22.5C28.6364 21.3701 29.5519 20.4546 30.6818 20.4546Z" fill="black"/>
<path d="M34.7727 20.4546C35.9026 20.4546 36.8182 21.3701 36.8182 22.5C36.8182 23.63 35.9026 24.5455 34.7727 24.5455C33.6428 24.5455 32.7273 23.63 32.7273 22.5C32.7273 21.3701 33.6428 20.4546 34.7727 20.4546Z" fill="black"/>
<path d="M2.04545 24.5457C3.17536 24.5457 4.09091 25.4612 4.09091 26.5911C4.09091 27.721 3.17536 28.6366 2.04545 28.6366C0.915545 28.6366 0 27.721 0 26.5911C0 25.4612 0.915545 24.5457 2.04545 24.5457Z" fill="black"/>
<path d="M6.13637 24.5457C7.26628 24.5457 8.18182 25.4612 8.18182 26.5911C8.18182 27.721 7.26628 28.6366 6.13637 28.6366C5.00646 28.6366 4.09091 27.721 4.09091 26.5911C4.09091 25.4612 5.00646 24.5457 6.13637 24.5457Z" fill="black"/>
<path d="M14.3182 24.5457C15.4481 24.5457 16.3636 25.4612 16.3636 26.5911C16.3636 27.721 15.4481 28.6366 14.3182 28.6366C13.1883 28.6366 12.2727 27.721 12.2727 26.5911C12.2727 25.4612 13.1883 24.5457 14.3182 24.5457Z" fill="black"/>
<path d="M26.5909 24.5457C27.7208 24.5457 28.6364 25.4612 28.6364 26.5911C28.6364 27.721 27.7208 28.6366 26.5909 28.6366C25.461 28.6366 24.5455 27.721 24.5455 26.5911C24.5455 25.4612 25.461 24.5457 26.5909 24.5457Z" fill="black"/>
<path d="M30.6818 24.5457C31.8117 24.5457 32.7273 25.4612 32.7273 26.5911C32.7273 27.721 31.8117 28.6366 30.6818 28.6366C29.5519 28.6366 28.6364 27.721 28.6364 26.5911C28.6364 25.4612 29.5519 24.5457 30.6818 24.5457Z" fill="black"/>
<path d="M38.8636 24.5457C39.9935 24.5457 40.9091 25.4612 40.9091 26.5911C40.9091 27.721 39.9935 28.6366 38.8636 28.6366C37.7337 28.6366 36.8182 27.721 36.8182 26.5911C36.8182 25.4612 37.7337 24.5457 38.8636 24.5457Z" fill="black"/>
<path d="M42.9545 24.5457C44.0845 24.5457 45 25.4612 45 26.5911C45 27.721 44.0845 28.6366 42.9545 28.6366C41.8246 28.6366 40.9091 27.721 40.9091 26.5911C40.9091 25.4612 41.8246 24.5457 42.9545 24.5457Z" fill="black"/>
<path d="M2.04545 28.6365C3.17536 28.6365 4.09091 29.552 4.09091 30.6819C4.09091 31.8118 3.17536 32.7274 2.04545 32.7274C0.915545 32.7274 0 31.8118 0 30.6819C0 29.552 0.915545 28.6365 2.04545 28.6365Z" fill="black"/>
<path d="M10.2273 28.6365C11.3572 28.6365 12.2727 29.552 12.2727 30.6819C12.2727 31.8118 11.3572 32.7274 10.2273 32.7274C9.09735 32.7274 8.18181 31.8118 8.18181 30.6819C8.18181 29.552 9.09735 28.6365 10.2273 28.6365Z" fill="black"/>
<path d="M18.4091 28.6365C19.539 28.6365 20.4545 29.552 20.4545 30.6819C20.4545 31.8118 19.539 32.7274 18.4091 32.7274C17.2792 32.7274 16.3636 31.8118 16.3636 30.6819C16.3636 29.552 17.2792 28.6365 18.4091 28.6365Z" fill="black"/>
<path d="M26.5909 28.6365C27.7208 28.6365 28.6364 29.552 28.6364 30.6819C28.6364 31.8118 27.7208 32.7274 26.5909 32.7274C25.461 32.7274 24.5455 31.8118 24.5455 30.6819C24.5455 29.552 25.461 28.6365 26.5909 28.6365Z" fill="black"/>
<path d="M38.8636 28.6365C39.9935 28.6365 40.9091 29.552 40.9091 30.6819C40.9091 31.8118 39.9935 32.7274 38.8636 32.7274C37.7337 32.7274 36.8182 31.8118 36.8182 30.6819C36.8182 29.552 37.7337 28.6365 38.8636 28.6365Z" fill="black"/>
<path d="M2.04545 32.7273C3.17536 32.7273 4.09091 33.6428 4.09091 34.7727C4.09091 35.9027 3.17536 36.8182 2.04545 36.8182C0.915545 36.8182 0 35.9027 0 34.7727C0 33.6428 0.915545 32.7273 2.04545 32.7273Z" fill="black"/>
<path d="M6.13637 32.7273C7.26628 32.7273 8.18182 33.6428 8.18182 34.7727C8.18182 35.9027 7.26628 36.8182 6.13637 36.8182C5.00646 36.8182 4.09091 35.9027 4.09091 34.7727C4.09091 33.6428 5.00646 32.7273 6.13637 32.7273Z" fill="black"/>
<path d="M10.2273 32.7273C11.3572 32.7273 12.2727 33.6428 12.2727 34.7727C12.2727 35.9027 11.3572 36.8182 10.2273 36.8182C9.09735 36.8182 8.18181 35.9027 8.18181 34.7727C8.18181 33.6428 9.09735 32.7273 10.2273 32.7273Z" fill="black"/>
<path d="M18.4091 32.7273C19.539 32.7273 20.4545 33.6428 20.4545 34.7727C20.4545 35.9027 19.539 36.8182 18.4091 36.8182C17.2792 36.8182 16.3636 35.9027 16.3636 34.7727C16.3636 33.6428 17.2792 32.7273 18.4091 32.7273Z" fill="black"/>
<path d="M26.5909 32.7273C27.7208 32.7273 28.6364 33.6428 28.6364 34.7727C28.6364 35.9027 27.7208 36.8182 26.5909 36.8182C25.461 36.8182 24.5455 35.9027 24.5455 34.7727C24.5455 33.6428 25.461 32.7273 26.5909 32.7273Z" fill="black"/>
<path d="M34.7727 32.7273C35.9026 32.7273 36.8182 33.6428 36.8182 34.7727C36.8182 35.9027 35.9026 36.8182 34.7727 36.8182C33.6428 36.8182 32.7273 35.9027 32.7273 34.7727C32.7273 33.6428 33.6428 32.7273 34.7727 32.7273Z" fill="black"/>
<path d="M6.13637 36.8184C7.26628 36.8184 8.18182 37.7339 8.18182 38.8638C8.18182 39.9937 7.26628 40.9093 6.13637 40.9093C5.00646 40.9093 4.09091 39.9937 4.09091 38.8638C4.09091 37.7339 5.00646 36.8184 6.13637 36.8184Z" fill="black"/>
<path d="M10.2273 36.8184C11.3572 36.8184 12.2727 37.7339 12.2727 38.8638C12.2727 39.9937 11.3572 40.9093 10.2273 40.9093C9.09735 40.9093 8.18181 39.9937 8.18181 38.8638C8.18181 37.7339 9.09735 36.8184 10.2273 36.8184Z" fill="black"/>
<path d="M14.3182 36.8184C15.4481 36.8184 16.3636 37.7339 16.3636 38.8638C16.3636 39.9937 15.4481 40.9093 14.3182 40.9093C13.1883 40.9093 12.2727 39.9937 12.2727 38.8638C12.2727 37.7339 13.1883 36.8184 14.3182 36.8184Z" fill="black"/>
<path d="M18.4091 36.8184C19.539 36.8184 20.4545 37.7339 20.4545 38.8638C20.4545 39.9937 19.539 40.9093 18.4091 40.9093C17.2792 40.9093 16.3636 39.9937 16.3636 38.8638C16.3636 37.7339 17.2792 36.8184 18.4091 36.8184Z" fill="black"/>
<path d="M34.7727 36.8184C35.9026 36.8184 36.8182 37.7339 36.8182 38.8638C36.8182 39.9937 35.9026 40.9093 34.7727 40.9093C33.6428 40.9093 32.7273 39.9937 32.7273 38.8638C32.7273 37.7339 33.6428 36.8184 34.7727 36.8184Z" fill="black"/>
<path d="M38.8636 36.8184C39.9935 36.8184 40.9091 37.7339 40.9091 38.8638C40.9091 39.9937 39.9935 40.9093 38.8636 40.9093C37.7337 40.9093 36.8182 39.9937 36.8182 38.8638C36.8182 37.7339 37.7337 36.8184 38.8636 36.8184Z" fill="black"/>
<path d="M6.13637 40.9092C7.26628 40.9092 8.18182 41.8247 8.18182 42.9546C8.18182 44.0845 7.26628 45.0001 6.13637 45.0001C5.00646 45.0001 4.09091 44.0845 4.09091 42.9546C4.09091 41.8247 5.00646 40.9092 6.13637 40.9092Z" fill="black"/>
<path d="M18.4091 40.9092C19.539 40.9092 20.4545 41.8247 20.4545 42.9546C20.4545 44.0845 19.539 45.0001 18.4091 45.0001C17.2792 45.0001 16.3636 44.0845 16.3636 42.9546C16.3636 41.8247 17.2792 40.9092 18.4091 40.9092Z" fill="black"/>
<path d="M26.5909 40.9092C27.7208 40.9092 28.6364 41.8247 28.6364 42.9546C28.6364 44.0845 27.7208 45.0001 26.5909 45.0001C25.461 45.0001 24.5455 44.0845 24.5455 42.9546C24.5455 41.8247 25.461 40.9092 26.5909 40.9092Z" fill="black"/>
<path d="M30.6818 40.9092C31.8117 40.9092 32.7273 41.8247 32.7273 42.9546C32.7273 44.0845 31.8117 45.0001 30.6818 45.0001C29.5519 45.0001 28.6364 44.0845 28.6364 42.9546C28.6364 41.8247 29.5519 40.9092 30.6818 40.9092Z" fill="black"/>
<path d="M34.7727 40.9092C35.9026 40.9092 36.8182 41.8247 36.8182 42.9546C36.8182 44.0845 35.9026 45.0001 34.7727 45.0001C33.6428 45.0001 32.7273 44.0845 32.7273 42.9546C32.7273 41.8247 33.6428 40.9092 34.7727 40.9092Z" fill="black"/>
<path d="M38.8636 40.9092C39.9935 40.9092 40.9091 41.8247 40.9091 42.9546C40.9091 44.0845 39.9935 45.0001 38.8636 45.0001C37.7337 45.0001 36.8182 44.0845 36.8182 42.9546C36.8182 41.8247 37.7337 40.9092 38.8636 40.9092Z" fill="black"/>
<path d="M42.9545 40.9092C44.0845 40.9092 45 41.8247 45 42.9546C45 44.0845 44.0845 45.0001 42.9545 45.0001C41.8246 45.0001 40.9091 44.0845 40.9091 42.9546C40.9091 41.8247 41.8246 40.9092 42.9545 40.9092Z" fill="black"/>
</g>
<defs>
<clipPath id="clip0">
<rect width="45" height="45" fill="white"/>
</clipPath>
</defs>
</svg>
