<svg width="45" height="45" viewBox="0 0 45 45" fill="none" xmlns="http://www.w3.org/2000/svg">
<g clip-path="url(#clip0)">
<path d="M98.1818 -53.1819H-53.1819V98.1818H98.1818V-53.1819Z" fill="white"/>
<path fill-rule="evenodd" clip-rule="evenodd" d="M6.13637 4.08261C5.96865 2.83897 5.25683 2.20488 4.07864 2.03306C5.2691 1.8817 5.95228 1.22715 6.13637 -0.00830078C6.31637 1.19852 6.99137 1.86124 8.16955 2.03715C6.98319 2.21306 6.32046 2.87988 6.13637 4.08261Z" fill="black"/>
<path fill-rule="evenodd" clip-rule="evenodd" d="M10.2273 4.08261C10.0596 2.83897 9.34774 2.20488 8.16956 2.03306C9.36001 1.8817 10.0432 1.22715 10.2273 -0.00830078C10.4073 1.19852 11.0823 1.86124 12.2605 2.03715C11.0741 2.21306 10.4114 2.87988 10.2273 4.08261Z" fill="black"/>
<path fill-rule="evenodd" clip-rule="evenodd" d="M26.5909 4.08261C26.4232 2.83897 25.7114 2.20488 24.5332 2.03306C25.7237 1.8817 26.4068 1.22715 26.5909 -0.00830078C26.7709 1.19852 27.4459 1.86124 28.6241 2.03715C27.4377 2.21306 26.775 2.87988 26.5909 4.08261Z" fill="black"/>
<path fill-rule="evenodd" clip-rule="evenodd" d="M34.7727 4.08261C34.605 2.83897 33.8932 2.20488 32.715 2.03306C33.9055 1.8817 34.5886 1.22715 34.7727 -0.00830078C34.9527 1.19852 35.6277 1.86124 36.8059 2.03715C35.6195 2.21306 34.9568 2.87988 34.7727 4.08261Z" fill="black"/>
<path fill-rule="evenodd" clip-rule="evenodd" d="M14.3182 8.17343C14.1505 6.92979 13.4386 6.2957 12.2605 6.12388C13.4509 5.97252 14.1341 5.31797 14.3182 4.08252C14.4982 5.28934 15.1732 5.95207 16.3514 6.12797C15.165 6.30388 14.5023 6.9707 14.3182 8.17343Z" fill="black"/>
<path fill-rule="evenodd" clip-rule="evenodd" d="M22.5 8.17343C22.3323 6.92979 21.6205 6.2957 20.4423 6.12388C21.6327 5.97252 22.3159 5.31797 22.5 4.08252C22.68 5.28934 23.355 5.95207 24.5332 6.12797C23.3468 6.30388 22.6841 6.9707 22.5 8.17343Z" fill="black"/>
<path fill-rule="evenodd" clip-rule="evenodd" d="M30.6818 8.17343C30.5141 6.92979 29.8023 6.2957 28.6241 6.12388C29.8145 5.97252 30.4977 5.31797 30.6818 4.08252C30.8618 5.28934 31.5368 5.95207 32.715 6.12797C31.5286 6.30388 30.8659 6.9707 30.6818 8.17343Z" fill="black"/>
<path fill-rule="evenodd" clip-rule="evenodd" d="M34.7727 8.17343C34.605 6.92979 33.8932 6.2957 32.715 6.12388C33.9055 5.97252 34.5886 5.31797 34.7727 4.08252C34.9527 5.28934 35.6277 5.95207 36.8059 6.12797C35.6195 6.30388 34.9568 6.9707 34.7727 8.17343Z" fill="black"/>
<path fill-rule="evenodd" clip-rule="evenodd" d="M38.8636 8.17343C38.6959 6.92979 37.9841 6.2957 36.8059 6.12388C37.9964 5.97252 38.6795 5.31797 38.8636 4.08252C39.0436 5.28934 39.7186 5.95207 40.8968 6.12797C39.7105 6.30388 39.0477 6.9707 38.8636 8.17343Z" fill="black"/>
<path fill-rule="evenodd" clip-rule="evenodd" d="M42.9545 8.17343C42.7868 6.92979 42.075 6.2957 40.8968 6.12388C42.0873 5.97252 42.7705 5.31797 42.9545 4.08252C43.1345 5.28934 43.8095 5.95207 44.9877 6.12797C43.8014 6.30388 43.1386 6.9707 42.9545 8.17343Z" fill="black"/>
<path fill-rule="evenodd" clip-rule="evenodd" d="M47.0455 8.17343C46.8777 6.92979 46.1659 6.2957 44.9877 6.12388C46.1782 5.97252 46.8614 5.31797 47.0455 4.08252C47.2255 5.28934 47.9005 5.95207 49.0786 6.12797C47.8923 6.30388 47.2296 6.9707 47.0455 8.17343Z" fill="black"/>
<path fill-rule="evenodd" clip-rule="evenodd" d="M2.04546 12.2645C1.87773 11.0209 1.16591 10.3868 -0.0122681 10.2149C1.17819 10.0636 1.86137 9.40904 2.04546 8.17358C2.22546 9.3804 2.90046 10.0431 4.07864 10.219C2.89228 10.3949 2.22955 11.0618 2.04546 12.2645Z" fill="black"/>
<path fill-rule="evenodd" clip-rule="evenodd" d="M18.4091 12.2645C18.2414 11.0209 17.5296 10.3868 16.3514 10.2149C17.5418 10.0636 18.225 9.40904 18.4091 8.17358C18.5891 9.3804 19.2641 10.0431 20.4423 10.219C19.2559 10.3949 18.5932 11.0618 18.4091 12.2645Z" fill="black"/>
<path fill-rule="evenodd" clip-rule="evenodd" d="M22.5 12.2645C22.3323 11.0209 21.6205 10.3868 20.4423 10.2149C21.6327 10.0636 22.3159 9.40904 22.5 8.17358C22.68 9.3804 23.355 10.0431 24.5332 10.219C23.3468 10.3949 22.6841 11.0618 22.5 12.2645Z" fill="black"/>
<path fill-rule="evenodd" clip-rule="evenodd" d="M26.5909 12.2645C26.4232 11.0209 25.7114 10.3868 24.5332 10.2149C25.7237 10.0636 26.4068 9.40904 26.5909 8.17358C26.7709 9.3804 27.4459 10.0431 28.6241 10.219C27.4377 10.3949 26.775 11.0618 26.5909 12.2645Z" fill="black"/>
<path fill-rule="evenodd" clip-rule="evenodd" d="M34.7727 12.2645C34.605 11.0209 33.8932 10.3868 32.715 10.2149C33.9055 10.0636 34.5886 9.40904 34.7727 8.17358C34.9527 9.3804 35.6277 10.0431 36.8059 10.219C35.6195 10.3949 34.9568 11.0618 34.7727 12.2645Z" fill="black"/>
<path fill-rule="evenodd" clip-rule="evenodd" d="M42.9545 12.2645C42.7868 11.0209 42.075 10.3868 40.8968 10.2149C42.0873 10.0636 42.7705 9.40904 42.9545 8.17358C43.1345 9.3804 43.8095 10.0431 44.9877 10.219C43.8014 10.3949 43.1386 11.0618 42.9545 12.2645Z" fill="black"/>
<path fill-rule="evenodd" clip-rule="evenodd" d="M47.0455 12.2645C46.8777 11.0209 46.1659 10.3868 44.9877 10.2149C46.1782 10.0636 46.8614 9.40904 47.0455 8.17358C47.2255 9.3804 47.9005 10.0431 49.0786 10.219C47.8923 10.3949 47.2296 11.0618 47.0455 12.2645Z" fill="black"/>
<path fill-rule="evenodd" clip-rule="evenodd" d="M2.04546 16.3553C1.87773 15.1117 1.16591 14.4776 -0.0122681 14.3058C1.17819 14.1544 1.86137 13.4999 2.04546 12.2644C2.22546 13.4712 2.90046 14.134 4.07864 14.3099C2.89228 14.4858 2.22955 15.1526 2.04546 16.3553Z" fill="black"/>
<path fill-rule="evenodd" clip-rule="evenodd" d="M6.13637 16.3553C5.96865 15.1117 5.25683 14.4776 4.07864 14.3058C5.2691 14.1544 5.95228 13.4999 6.13637 12.2644C6.31637 13.4712 6.99137 14.134 8.16955 14.3099C6.98319 14.4858 6.32046 15.1526 6.13637 16.3553Z" fill="black"/>
<path fill-rule="evenodd" clip-rule="evenodd" d="M30.6818 16.3553C30.5141 15.1117 29.8023 14.4776 28.6241 14.3058C29.8145 14.1544 30.4977 13.4999 30.6818 12.2644C30.8618 13.4712 31.5368 14.134 32.715 14.3099C31.5286 14.4858 30.8659 15.1526 30.6818 16.3553Z" fill="black"/>
<path fill-rule="evenodd" clip-rule="evenodd" d="M38.8636 16.3553C38.6959 15.1117 37.9841 14.4776 36.8059 14.3058C37.9964 14.1544 38.6795 13.4999 38.8636 12.2644C39.0436 13.4712 39.7186 14.134 40.8968 14.3099C39.7105 14.4858 39.0477 15.1526 38.8636 16.3553Z" fill="black"/>
<path fill-rule="evenodd" clip-rule="evenodd" d="M10.2273 20.4461C10.0596 19.2025 9.34774 18.5684 8.16956 18.3966C9.36001 18.2452 10.0432 17.5907 10.2273 16.3552C10.4073 17.562 11.0823 18.2248 12.2605 18.4007C11.0741 18.5766 10.4114 19.2434 10.2273 20.4461Z" fill="black"/>
<path fill-rule="evenodd" clip-rule="evenodd" d="M14.3182 20.4461C14.1505 19.2025 13.4386 18.5684 12.2605 18.3966C13.4509 18.2452 14.1341 17.5907 14.3182 16.3552C14.4982 17.562 15.1732 18.2248 16.3514 18.4007C15.165 18.5766 14.5023 19.2434 14.3182 20.4461Z" fill="black"/>
<path fill-rule="evenodd" clip-rule="evenodd" d="M22.5 20.4461C22.3323 19.2025 21.6205 18.5684 20.4423 18.3966C21.6327 18.2452 22.3159 17.5907 22.5 16.3552C22.68 17.562 23.355 18.2248 24.5332 18.4007C23.3468 18.5766 22.6841 19.2434 22.5 20.4461Z" fill="black"/>
<path fill-rule="evenodd" clip-rule="evenodd" d="M26.5909 20.4461C26.4232 19.2025 25.7114 18.5684 24.5332 18.3966C25.7237 18.2452 26.4068 17.5907 26.5909 16.3552C26.7709 17.562 27.4459 18.2248 28.6241 18.4007C27.4377 18.5766 26.775 19.2434 26.5909 20.4461Z" fill="black"/>
<path fill-rule="evenodd" clip-rule="evenodd" d="M34.7727 20.4461C34.605 19.2025 33.8932 18.5684 32.715 18.3966C33.9055 18.2452 34.5886 17.5907 34.7727 16.3552C34.9527 17.562 35.6277 18.2248 36.8059 18.4007C35.6195 18.5766 34.9568 19.2434 34.7727 20.4461Z" fill="black"/>
<path fill-rule="evenodd" clip-rule="evenodd" d="M10.2273 24.5372C10.0596 23.2936 9.34774 22.6595 8.16956 22.4876C9.36001 22.3363 10.0432 21.6817 10.2273 20.4463C10.4073 21.6531 11.0823 22.3158 12.2605 22.4917C11.0741 22.6677 10.4114 23.3345 10.2273 24.5372Z" fill="black"/>
<path fill-rule="evenodd" clip-rule="evenodd" d="M22.5 24.5372C22.3323 23.2936 21.6205 22.6595 20.4423 22.4876C21.6327 22.3363 22.3159 21.6817 22.5 20.4463C22.68 21.6531 23.355 22.3158 24.5332 22.4917C23.3468 22.6677 22.6841 23.3345 22.5 24.5372Z" fill="black"/>
<path fill-rule="evenodd" clip-rule="evenodd" d="M30.6818 24.5372C30.5141 23.2936 29.8023 22.6595 28.6241 22.4876C29.8145 22.3363 30.4977 21.6817 30.6818 20.4463C30.8618 21.6531 31.5368 22.3158 32.715 22.4917C31.5286 22.6677 30.8659 23.3345 30.6818 24.5372Z" fill="black"/>
<path fill-rule="evenodd" clip-rule="evenodd" d="M34.7727 24.5372C34.605 23.2936 33.8932 22.6595 32.715 22.4876C33.9055 22.3363 34.5886 21.6817 34.7727 20.4463C34.9527 21.6531 35.6277 22.3158 36.8059 22.4917C35.6195 22.6677 34.9568 23.3345 34.7727 24.5372Z" fill="black"/>
<path fill-rule="evenodd" clip-rule="evenodd" d="M2.04546 28.628C1.87773 27.3844 1.16591 26.7503 -0.0122681 26.5785C1.17819 26.4271 1.86137 25.7726 2.04546 24.5371C2.22546 25.7439 2.90046 26.4067 4.07864 26.5826C2.89228 26.7585 2.22955 27.4253 2.04546 28.628Z" fill="black"/>
<path fill-rule="evenodd" clip-rule="evenodd" d="M6.13637 28.628C5.96865 27.3844 5.25683 26.7503 4.07864 26.5785C5.2691 26.4271 5.95228 25.7726 6.13637 24.5371C6.31637 25.7439 6.99137 26.4067 8.16955 26.5826C6.98319 26.7585 6.32046 27.4253 6.13637 28.628Z" fill="black"/>
<path fill-rule="evenodd" clip-rule="evenodd" d="M14.3182 28.628C14.1505 27.3844 13.4386 26.7503 12.2605 26.5785C13.4509 26.4271 14.1341 25.7726 14.3182 24.5371C14.4982 25.7439 15.1732 26.4067 16.3514 26.5826C15.165 26.7585 14.5023 27.4253 14.3182 28.628Z" fill="black"/>
<path fill-rule="evenodd" clip-rule="evenodd" d="M26.5909 28.628C26.4232 27.3844 25.7114 26.7503 24.5332 26.5785C25.7237 26.4271 26.4068 25.7726 26.5909 24.5371C26.7709 25.7439 27.4459 26.4067 28.6241 26.5826C27.4377 26.7585 26.775 27.4253 26.5909 28.628Z" fill="black"/>
<path fill-rule="evenodd" clip-rule="evenodd" d="M30.6818 28.628C30.5141 27.3844 29.8023 26.7503 28.6241 26.5785C29.8145 26.4271 30.4977 25.7726 30.6818 24.5371C30.8618 25.7439 31.5368 26.4067 32.715 26.5826C31.5286 26.7585 30.8659 27.4253 30.6818 28.628Z" fill="black"/>
<path fill-rule="evenodd" clip-rule="evenodd" d="M38.8636 28.628C38.6959 27.3844 37.9841 26.7503 36.8059 26.5785C37.9964 26.4271 38.6795 25.7726 38.8636 24.5371C39.0436 25.7439 39.7186 26.4067 40.8968 26.5826C39.7105 26.7585 39.0477 27.4253 38.8636 28.628Z" fill="black"/>
<path fill-rule="evenodd" clip-rule="evenodd" d="M42.9545 28.628C42.7868 27.3844 42.075 26.7503 40.8968 26.5785C42.0873 26.4271 42.7705 25.7726 42.9545 24.5371C43.1345 25.7439 43.8095 26.4067 44.9877 26.5826C43.8014 26.7585 43.1386 27.4253 42.9545 28.628Z" fill="black"/>
<path fill-rule="evenodd" clip-rule="evenodd" d="M47.0455 28.628C46.8777 27.3844 46.1659 26.7503 44.9877 26.5785C46.1782 26.4271 46.8614 25.7726 47.0455 24.5371C47.2255 25.7439 47.9005 26.4067 49.0786 26.5826C47.8923 26.7585 47.2296 27.4253 47.0455 28.628Z" fill="black"/>
<path fill-rule="evenodd" clip-rule="evenodd" d="M2.04546 32.7191C1.87773 31.4754 1.16591 30.8413 -0.0122681 30.6695C1.17819 30.5182 1.86137 29.8636 2.04546 28.6282C2.22546 29.835 2.90046 30.4977 4.07864 30.6736C2.89228 30.8495 2.22955 31.5163 2.04546 32.7191Z" fill="black"/>
<path fill-rule="evenodd" clip-rule="evenodd" d="M10.2273 32.7191C10.0596 31.4754 9.34774 30.8413 8.16956 30.6695C9.36001 30.5182 10.0432 29.8636 10.2273 28.6282C10.4073 29.835 11.0823 30.4977 12.2605 30.6736C11.0741 30.8495 10.4114 31.5163 10.2273 32.7191Z" fill="black"/>
<path fill-rule="evenodd" clip-rule="evenodd" d="M18.4091 32.7191C18.2414 31.4754 17.5296 30.8413 16.3514 30.6695C17.5418 30.5182 18.225 29.8636 18.4091 28.6282C18.5891 29.835 19.2641 30.4977 20.4423 30.6736C19.2559 30.8495 18.5932 31.5163 18.4091 32.7191Z" fill="black"/>
<path fill-rule="evenodd" clip-rule="evenodd" d="M26.5909 32.7191C26.4232 31.4754 25.7114 30.8413 24.5332 30.6695C25.7237 30.5182 26.4068 29.8636 26.5909 28.6282C26.7709 29.835 27.4459 30.4977 28.6241 30.6736C27.4377 30.8495 26.775 31.5163 26.5909 32.7191Z" fill="black"/>
<path fill-rule="evenodd" clip-rule="evenodd" d="M38.8636 32.7191C38.6959 31.4754 37.9841 30.8413 36.8059 30.6695C37.9964 30.5182 38.6795 29.8636 38.8636 28.6282C39.0436 29.835 39.7186 30.4977 40.8968 30.6736C39.7105 30.8495 39.0477 31.5163 38.8636 32.7191Z" fill="black"/>
<path fill-rule="evenodd" clip-rule="evenodd" d="M2.04546 36.8099C1.87773 35.5663 1.16591 34.9322 -0.0122681 34.7604C1.17819 34.609 1.86137 33.9544 2.04546 32.719C2.22546 33.9258 2.90046 34.5885 4.07864 34.7644C2.89228 34.9404 2.22955 35.6072 2.04546 36.8099Z" fill="black"/>
<path fill-rule="evenodd" clip-rule="evenodd" d="M6.13637 36.8099C5.96865 35.5663 5.25683 34.9322 4.07864 34.7604C5.2691 34.609 5.95228 33.9544 6.13637 32.719C6.31637 33.9258 6.99137 34.5885 8.16955 34.7644C6.98319 34.9404 6.32046 35.6072 6.13637 36.8099Z" fill="black"/>
<path fill-rule="evenodd" clip-rule="evenodd" d="M10.2273 36.8099C10.0596 35.5663 9.34774 34.9322 8.16956 34.7604C9.36001 34.609 10.0432 33.9544 10.2273 32.719C10.4073 33.9258 11.0823 34.5885 12.2605 34.7644C11.0741 34.9404 10.4114 35.6072 10.2273 36.8099Z" fill="black"/>
<path fill-rule="evenodd" clip-rule="evenodd" d="M18.4091 36.8099C18.2414 35.5663 17.5296 34.9322 16.3514 34.7604C17.5418 34.609 18.225 33.9544 18.4091 32.719C18.5891 33.9258 19.2641 34.5885 20.4423 34.7644C19.2559 34.9404 18.5932 35.6072 18.4091 36.8099Z" fill="black"/>
<path fill-rule="evenodd" clip-rule="evenodd" d="M26.5909 36.8099C26.4232 35.5663 25.7114 34.9322 24.5332 34.7604C25.7237 34.609 26.4068 33.9544 26.5909 32.719C26.7709 33.9258 27.4459 34.5885 28.6241 34.7644C27.4377 34.9404 26.775 35.6072 26.5909 36.8099Z" fill="black"/>
<path fill-rule="evenodd" clip-rule="evenodd" d="M34.7727 36.8099C34.605 35.5663 33.8932 34.9322 32.715 34.7604C33.9055 34.609 34.5886 33.9544 34.7727 32.719C34.9527 33.9258 35.6277 34.5885 36.8059 34.7644C35.6195 34.9404 34.9568 35.6072 34.7727 36.8099Z" fill="black"/>
<path fill-rule="evenodd" clip-rule="evenodd" d="M47.0455 36.8099C46.8777 35.5663 46.1659 34.9322 44.9877 34.7604C46.1782 34.609 46.8614 33.9544 47.0455 32.719C47.2255 33.9258 47.9005 34.5885 49.0786 34.7644C47.8923 34.9404 47.2296 35.6072 47.0455 36.8099Z" fill="black"/>
<path fill-rule="evenodd" clip-rule="evenodd" d="M6.13637 40.9007C5.96865 39.6571 5.25683 39.023 4.07864 38.8512C5.2691 38.6998 5.95228 38.0453 6.13637 36.8098C6.31637 38.0166 6.99137 38.6794 8.16955 38.8553C6.98319 39.0312 6.32046 39.698 6.13637 40.9007Z" fill="black"/>
<path fill-rule="evenodd" clip-rule="evenodd" d="M10.2273 40.9007C10.0596 39.6571 9.34774 39.023 8.16956 38.8512C9.36001 38.6998 10.0432 38.0453 10.2273 36.8098C10.4073 38.0166 11.0823 38.6794 12.2605 38.8553C11.0741 39.0312 10.4114 39.698 10.2273 40.9007Z" fill="black"/>
<path fill-rule="evenodd" clip-rule="evenodd" d="M14.3182 40.9007C14.1505 39.6571 13.4386 39.023 12.2605 38.8512C13.4509 38.6998 14.1341 38.0453 14.3182 36.8098C14.4982 38.0166 15.1732 38.6794 16.3514 38.8553C15.165 39.0312 14.5023 39.698 14.3182 40.9007Z" fill="black"/>
<path fill-rule="evenodd" clip-rule="evenodd" d="M18.4091 40.9007C18.2414 39.6571 17.5296 39.023 16.3514 38.8512C17.5418 38.6998 18.225 38.0453 18.4091 36.8098C18.5891 38.0166 19.2641 38.6794 20.4423 38.8553C19.2559 39.0312 18.5932 39.698 18.4091 40.9007Z" fill="black"/>
<path fill-rule="evenodd" clip-rule="evenodd" d="M34.7727 40.9007C34.605 39.6571 33.8932 39.023 32.715 38.8512C33.9055 38.6998 34.5886 38.0453 34.7727 36.8098C34.9527 38.0166 35.6277 38.6794 36.8059 38.8553C35.6195 39.0312 34.9568 39.698 34.7727 40.9007Z" fill="black"/>
<path fill-rule="evenodd" clip-rule="evenodd" d="M38.8636 40.9007C38.6959 39.6571 37.9841 39.023 36.8059 38.8512C37.9964 38.6998 38.6795 38.0453 38.8636 36.8098C39.0436 38.0166 39.7186 38.6794 40.8968 38.8553C39.7105 39.0312 39.0477 39.698 38.8636 40.9007Z" fill="black"/>
<path fill-rule="evenodd" clip-rule="evenodd" d="M6.13637 44.9918C5.96865 43.7482 5.25683 43.1141 4.07864 42.9422C5.2691 42.7909 5.95228 42.1363 6.13637 40.9009C6.31637 42.1077 6.99137 42.7704 8.16955 42.9463C6.98319 43.1222 6.32046 43.7891 6.13637 44.9918Z" fill="black"/>
<path fill-rule="evenodd" clip-rule="evenodd" d="M18.4091 44.9918C18.2414 43.7482 17.5296 43.1141 16.3514 42.9422C17.5418 42.7909 18.225 42.1363 18.4091 40.9009C18.5891 42.1077 19.2641 42.7704 20.4423 42.9463C19.2559 43.1222 18.5932 43.7891 18.4091 44.9918Z" fill="black"/>
<path fill-rule="evenodd" clip-rule="evenodd" d="M26.5909 44.9918C26.4232 43.7482 25.7114 43.1141 24.5332 42.9422C25.7237 42.7909 26.4068 42.1363 26.5909 40.9009C26.7709 42.1077 27.4459 42.7704 28.6241 42.9463C27.4377 43.1222 26.775 43.7891 26.5909 44.9918Z" fill="black"/>
<path fill-rule="evenodd" clip-rule="evenodd" d="M30.6818 44.9918C30.5141 43.7482 29.8023 43.1141 28.6241 42.9422C29.8145 42.7909 30.4977 42.1363 30.6818 40.9009C30.8618 42.1077 31.5368 42.7704 32.715 42.9463C31.5286 43.1222 30.8659 43.7891 30.6818 44.9918Z" fill="black"/>
<path fill-rule="evenodd" clip-rule="evenodd" d="M34.7727 44.9918C34.605 43.7482 33.8932 43.1141 32.715 42.9422C33.9055 42.7909 34.5886 42.1363 34.7727 40.9009C34.9527 42.1077 35.6277 42.7704 36.8059 42.9463C35.6195 43.1222 34.9568 43.7891 34.7727 44.9918Z" fill="black"/>
<path fill-rule="evenodd" clip-rule="evenodd" d="M38.8636 44.9918C38.6959 43.7482 37.9841 43.1141 36.8059 42.9422C37.9964 42.7909 38.6795 42.1363 38.8636 40.9009C39.0436 42.1077 39.7186 42.7704 40.8968 42.9463C39.7105 43.1222 39.0477 43.7891 38.8636 44.9918Z" fill="black"/>
<path fill-rule="evenodd" clip-rule="evenodd" d="M42.9545 44.9918C42.7868 43.7482 42.075 43.1141 40.8968 42.9422C42.0873 42.7909 42.7705 42.1363 42.9545 40.9009C43.1345 42.1077 43.8095 42.7704 44.9877 42.9463C43.8014 43.1222 43.1386 43.7891 42.9545 44.9918Z" fill="black"/>
<path fill-rule="evenodd" clip-rule="evenodd" d="M47.0455 44.9918C46.8777 43.7482 46.1659 43.1141 44.9877 42.9422C46.1782 42.7909 46.8614 42.1363 47.0455 40.9009C47.2255 42.1077 47.9005 42.7704 49.0786 42.9463C47.8923 43.1222 47.2296 43.7891 47.0455 44.9918Z" fill="black"/>
<path fill-rule="evenodd" clip-rule="evenodd" d="M2.04546 49.0826C1.87773 47.839 1.16591 47.2049 -0.0122681 47.0331C1.17819 46.8817 1.86137 46.2272 2.04546 44.9917C2.22546 46.1985 2.90046 46.8612 4.07864 47.0372C2.89228 47.2131 2.22955 47.8799 2.04546 49.0826Z" fill="black"/>
<path fill-rule="evenodd" clip-rule="evenodd" d="M6.13637 49.0826C5.96865 47.839 5.25683 47.2049 4.07864 47.0331C5.2691 46.8817 5.95228 46.2272 6.13637 44.9917C6.31637 46.1985 6.99137 46.8612 8.16955 47.0372C6.98319 47.2131 6.32046 47.8799 6.13637 49.0826Z" fill="black"/>
<path fill-rule="evenodd" clip-rule="evenodd" d="M14.3182 49.0826C14.1505 47.839 13.4386 47.2049 12.2605 47.0331C13.4509 46.8817 14.1341 46.2272 14.3182 44.9917C14.4982 46.1985 15.1732 46.8612 16.3514 47.0372C15.165 47.2131 14.5023 47.8799 14.3182 49.0826Z" fill="black"/>
<path fill-rule="evenodd" clip-rule="evenodd" d="M18.4091 49.0826C18.2414 47.839 17.5296 47.2049 16.3514 47.0331C17.5418 46.8817 18.225 46.2272 18.4091 44.9917C18.5891 46.1985 19.2641 46.8612 20.4423 47.0372C19.2559 47.2131 18.5932 47.8799 18.4091 49.0826Z" fill="black"/>
<path fill-rule="evenodd" clip-rule="evenodd" d="M26.5909 49.0826C26.4232 47.839 25.7114 47.2049 24.5332 47.0331C25.7237 46.8817 26.4068 46.2272 26.5909 44.9917C26.7709 46.1985 27.4459 46.8612 28.6241 47.0372C27.4377 47.2131 26.775 47.8799 26.5909 49.0826Z" fill="black"/>
<path fill-rule="evenodd" clip-rule="evenodd" d="M30.6818 49.0826C30.5141 47.839 29.8023 47.2049 28.6241 47.0331C29.8145 46.8817 30.4977 46.2272 30.6818 44.9917C30.8618 46.1985 31.5368 46.8612 32.715 47.0372C31.5286 47.2131 30.8659 47.8799 30.6818 49.0826Z" fill="black"/>
<path fill-rule="evenodd" clip-rule="evenodd" d="M34.7727 49.0826C34.605 47.839 33.8932 47.2049 32.715 47.0331C33.9055 46.8817 34.5886 46.2272 34.7727 44.9917C34.9527 46.1985 35.6277 46.8612 36.8059 47.0372C35.6195 47.2131 34.9568 47.8799 34.7727 49.0826Z" fill="black"/>
<path fill-rule="evenodd" clip-rule="evenodd" d="M42.9545 49.0826C42.7868 47.839 42.075 47.2049 40.8968 47.0331C42.0873 46.8817 42.7705 46.2272 42.9545 44.9917C43.1345 46.1985 43.8095 46.8612 44.9877 47.0372C43.8014 47.2131 43.1386 47.8799 42.9545 49.0826Z" fill="black"/>
</g>
<defs>
<clipPath id="clip0">
<rect width="45" height="45" fill="white"/>
</clipPath>
</defs>
</svg>
