<svg width="45" height="45" viewBox="0 0 45 45" fill="none" xmlns="http://www.w3.org/2000/svg">
<g clip-path="url(#clip0)">
<path d="M98.1818 -53.1819H-53.1818V98.1818H98.1818V-53.1819Z" fill="white"/>
<path d="M8.18182 4.09091V0H4.09091C4.09091 2.259 5.92282 4.09091 8.18182 4.09091Z" fill="black"/>
<path d="M10.2273 4.09091C9.75027 4.09091 8.18182 4.09091 8.18182 4.09091C8.18182 4.09091 8.18182 2.69836 8.18182 2.04545C8.18182 1.53573 8.18182 0 8.18182 0C8.18182 0 9.60791 0 10.2273 0C11.3572 0 12.2727 0.915545 12.2727 2.04545C12.2727 3.17536 11.3572 4.09091 10.2273 4.09091Z" fill="black"/>
<path d="M26.5909 0C27.7208 0 28.6364 0.915545 28.6364 2.04545C28.6364 3.17536 27.7208 4.09091 26.5909 4.09091C25.461 4.09091 24.5455 3.17536 24.5455 2.04545C24.5455 0.915545 25.461 0 26.5909 0Z" fill="black"/>
<path d="M36.8182 2.04545C36.8182 2.52245 36.8182 4.09091 36.8182 4.09091C36.8182 4.09091 35.4256 4.09091 34.7727 4.09091C34.263 4.09091 32.7273 4.09091 32.7273 4.09091C32.7273 4.09091 32.7273 2.66564 32.7273 2.04545C32.7273 0.915545 33.6428 0 34.7727 0C35.9026 0 36.8182 0.915545 36.8182 2.04545Z" fill="black"/>
<path d="M14.3182 4.09106C15.4481 4.09106 16.3636 5.00661 16.3636 6.13652C16.3636 7.26643 15.4481 8.18197 14.3182 8.18197C13.1883 8.18197 12.2727 7.26643 12.2727 6.13652C12.2727 5.00661 13.1883 4.09106 14.3182 4.09106Z" fill="black"/>
<path d="M24.5455 6.13652C24.5455 6.61352 24.5455 8.18197 24.5455 8.18197C24.5455 8.18197 23.1529 8.18197 22.5 8.18197C21.9903 8.18197 20.4545 8.18197 20.4545 8.18197C20.4545 8.18197 20.4545 6.7567 20.4545 6.13652C20.4545 5.00661 21.3701 4.09106 22.5 4.09106C23.6299 4.09106 24.5455 5.00661 24.5455 6.13652Z" fill="black"/>
<path d="M30.6818 4.09106C31.1588 4.09106 32.7273 4.09106 32.7273 4.09106C32.7273 4.09106 32.7273 5.48361 32.7273 6.13652C32.7273 6.64625 32.7273 8.18197 32.7273 8.18197C32.7273 8.18197 31.302 8.18197 30.6818 8.18197C29.5519 8.18197 28.6364 7.26561 28.6364 6.13652C28.6364 5.00743 29.5519 4.09106 30.6818 4.09106Z" fill="black"/>
<path d="M36.8182 4.09106H32.7273V8.18197H36.8182V4.09106Z" fill="black"/>
<path d="M40.9091 4.09106H36.8182V8.18197H40.9091V4.09106Z" fill="black"/>
<path d="M45 4.09106H40.9091V8.18197H45V4.09106Z" fill="black"/>
<path d="M4.09091 10.2273C4.09091 10.7043 4.09091 12.2728 4.09091 12.2728C4.09091 12.2728 2.69836 12.2728 2.04545 12.2728C1.53573 12.2728 0 12.2728 0 12.2728C0 12.2728 0 10.8475 0 10.2273C0 9.09743 0.915545 8.18188 2.04545 8.18188C3.17536 8.18188 4.09091 9.09743 4.09091 10.2273Z" fill="black"/>
<path d="M18.4091 8.18188C18.8861 8.18188 20.4545 8.18188 20.4545 8.18188C20.4545 8.18188 20.4545 9.57443 20.4545 10.2273C20.4545 10.7371 20.4545 12.2728 20.4545 12.2728C20.4545 12.2728 19.0293 12.2728 18.4091 12.2728C17.2792 12.2728 16.3636 11.3564 16.3636 10.2273C16.3636 9.09825 17.2792 8.18188 18.4091 8.18188Z" fill="black"/>
<path d="M24.5455 8.18188H20.4545V12.2728H24.5455V8.18188Z" fill="black"/>
<path d="M26.5909 12.2728C26.1139 12.2728 24.5455 12.2728 24.5455 12.2728C24.5455 12.2728 24.5455 10.8802 24.5455 10.2273C24.5455 9.71761 24.5455 8.18188 24.5455 8.18188C24.5455 8.18188 25.9715 8.18188 26.5909 8.18188C27.7208 8.18188 28.6364 9.09743 28.6364 10.2273C28.6364 11.3572 27.7208 12.2728 26.5909 12.2728Z" fill="black"/>
<path d="M32.7273 10.2273C32.7273 9.75034 32.7273 8.18188 32.7273 8.18188C32.7273 8.18188 34.1198 8.18188 34.7727 8.18188C35.2825 8.18188 36.8182 8.18188 36.8182 8.18188C36.8182 8.18188 36.8182 9.60798 36.8182 10.2273C36.8182 11.3572 35.9026 12.2728 34.7727 12.2728C33.6428 12.2728 32.7273 11.3572 32.7273 10.2273Z" fill="black"/>
<path d="M45 12.2728V8.18188H40.9091C40.9091 10.4409 42.741 12.2728 45 12.2728Z" fill="black"/>
<path d="M4.09091 16.3636V12.2727H0C0 14.5317 1.83191 16.3636 4.09091 16.3636Z" fill="black"/>
<path d="M6.13636 16.3636C5.65936 16.3636 4.09091 16.3636 4.09091 16.3636C4.09091 16.3636 4.09091 14.9711 4.09091 14.3182C4.09091 13.8084 4.09091 12.2727 4.09091 12.2727C4.09091 12.2727 5.517 12.2727 6.13636 12.2727C7.26627 12.2727 8.18182 13.1883 8.18182 14.3182C8.18182 15.4481 7.26627 16.3636 6.13636 16.3636Z" fill="black"/>
<path d="M30.6818 12.2727C31.8117 12.2727 32.7273 13.1883 32.7273 14.3182C32.7273 15.4481 31.8117 16.3636 30.6818 16.3636C29.5519 16.3636 28.6364 15.4481 28.6364 14.3182C28.6364 13.1883 29.5519 12.2727 30.6818 12.2727Z" fill="black"/>
<path d="M38.8636 12.2727C39.9935 12.2727 40.9091 13.1883 40.9091 14.3182C40.9091 15.4481 39.9935 16.3636 38.8636 16.3636C37.7337 16.3636 36.8182 15.4481 36.8182 14.3182C36.8182 13.1883 37.7337 12.2727 38.8636 12.2727Z" fill="black"/>
<path d="M8.18182 20.4547H12.2727V16.3638C10.0137 16.3638 8.18182 18.1957 8.18182 20.4547Z" fill="black"/>
<path d="M14.3182 20.4547C13.8412 20.4547 12.2727 20.4547 12.2727 20.4547C12.2727 20.4547 12.2727 19.0621 12.2727 18.4092C12.2727 17.8995 12.2727 16.3638 12.2727 16.3638C12.2727 16.3638 13.6988 16.3638 14.3182 16.3638C15.4481 16.3638 16.3636 17.2793 16.3636 18.4092C16.3636 19.5391 15.4481 20.4547 14.3182 20.4547Z" fill="black"/>
<path d="M20.4545 20.4547H24.5455V16.3638C22.2865 16.3638 20.4545 18.1957 20.4545 20.4547Z" fill="black"/>
<path d="M26.5909 20.4547C26.1139 20.4547 24.5455 20.4547 24.5455 20.4547C24.5455 20.4547 24.5455 19.0621 24.5455 18.4092C24.5455 17.8995 24.5455 16.3638 24.5455 16.3638C24.5455 16.3638 25.9715 16.3638 26.5909 16.3638C27.7208 16.3638 28.6364 17.2793 28.6364 18.4092C28.6364 19.5391 27.7208 20.4547 26.5909 20.4547Z" fill="black"/>
<path d="M36.8182 18.4092C36.8182 18.8862 36.8182 20.4547 36.8182 20.4547C36.8182 20.4547 35.4256 20.4547 34.7727 20.4547C34.263 20.4547 32.7273 20.4547 32.7273 20.4547C32.7273 20.4547 32.7273 19.0294 32.7273 18.4092C32.7273 17.2793 33.6428 16.3638 34.7727 16.3638C35.9026 16.3638 36.8182 17.2793 36.8182 18.4092Z" fill="black"/>
<path d="M8.18182 22.5C8.18182 22.023 8.18182 20.4546 8.18182 20.4546C8.18182 20.4546 9.57436 20.4546 10.2273 20.4546C10.737 20.4546 12.2727 20.4546 12.2727 20.4546C12.2727 20.4546 12.2727 21.8807 12.2727 22.5C12.2727 23.63 11.3572 24.5455 10.2273 24.5455C9.09736 24.5455 8.18182 23.63 8.18182 22.5Z" fill="black"/>
<path d="M20.4545 22.5C20.4545 22.023 20.4545 20.4546 20.4545 20.4546C20.4545 20.4546 21.8471 20.4546 22.5 20.4546C23.0097 20.4546 24.5455 20.4546 24.5455 20.4546C24.5455 20.4546 24.5455 21.8807 24.5455 22.5C24.5455 23.63 23.6299 24.5455 22.5 24.5455C21.3701 24.5455 20.4545 23.63 20.4545 22.5Z" fill="black"/>
<path d="M28.6364 24.5455H32.7273V20.4546C30.4683 20.4546 28.6364 22.2865 28.6364 24.5455Z" fill="black"/>
<path d="M36.8182 20.4546H32.7273V24.5455C34.9863 24.5455 36.8182 22.7136 36.8182 20.4546Z" fill="black"/>
<path d="M0 28.6366H4.09091V24.5457C1.83191 24.5457 0 26.3776 0 28.6366Z" fill="black"/>
<path d="M6.13636 28.6366C5.65936 28.6366 4.09091 28.6366 4.09091 28.6366C4.09091 28.6366 4.09091 27.244 4.09091 26.5911C4.09091 26.0814 4.09091 24.5457 4.09091 24.5457C4.09091 24.5457 5.517 24.5457 6.13636 24.5457C7.26627 24.5457 8.18182 25.4612 8.18182 26.5911C8.18182 27.721 7.26627 28.6366 6.13636 28.6366Z" fill="black"/>
<path d="M14.3182 24.5457C15.4481 24.5457 16.3636 25.4612 16.3636 26.5911C16.3636 27.721 15.4481 28.6366 14.3182 28.6366C13.1883 28.6366 12.2727 27.721 12.2727 26.5911C12.2727 25.4612 13.1883 24.5457 14.3182 24.5457Z" fill="black"/>
<path d="M24.5455 28.6366H28.6364V24.5457C26.3774 24.5457 24.5455 26.3776 24.5455 28.6366Z" fill="black"/>
<path d="M32.7273 24.5457H28.6364V28.6366C30.8954 28.6366 32.7273 26.8047 32.7273 24.5457Z" fill="black"/>
<path d="M36.8182 28.6366H40.9091V24.5457C38.6501 24.5457 36.8182 26.3776 36.8182 28.6366Z" fill="black"/>
<path d="M45 24.5457H40.9091V28.6366H45V24.5457Z" fill="black"/>
<path d="M4.09091 28.6365H0V32.7274H4.09091V28.6365Z" fill="black"/>
<path d="M12.2727 30.6819C12.2727 31.1589 12.2727 32.7274 12.2727 32.7274C12.2727 32.7274 10.8802 32.7274 10.2273 32.7274C9.71755 32.7274 8.18182 32.7274 8.18182 32.7274C8.18182 32.7274 8.18182 31.3021 8.18182 30.6819C8.18182 29.552 9.09736 28.6365 10.2273 28.6365C11.3572 28.6365 12.2727 29.552 12.2727 30.6819Z" fill="black"/>
<path d="M20.4545 30.6819C20.4545 31.1589 20.4545 32.7274 20.4545 32.7274C20.4545 32.7274 19.062 32.7274 18.4091 32.7274C17.8994 32.7274 16.3636 32.7274 16.3636 32.7274C16.3636 32.7274 16.3636 31.3021 16.3636 30.6819C16.3636 29.552 17.2792 28.6365 18.4091 28.6365C19.539 28.6365 20.4545 29.552 20.4545 30.6819Z" fill="black"/>
<path d="M28.6364 28.6365H24.5455V32.7274H28.6364V28.6365Z" fill="black"/>
<path d="M36.8182 30.6819C36.8182 30.2049 36.8182 28.6365 36.8182 28.6365C36.8182 28.6365 38.2107 28.6365 38.8636 28.6365C39.3734 28.6365 40.9091 28.6365 40.9091 28.6365C40.9091 28.6365 40.9091 30.0626 40.9091 30.6819C40.9091 31.8118 39.9935 32.7274 38.8636 32.7274C37.7337 32.7274 36.8182 31.8118 36.8182 30.6819Z" fill="black"/>
<path d="M4.09091 36.8182V32.7273H0C0 34.9863 1.83191 36.8182 4.09091 36.8182Z" fill="black"/>
<path d="M8.18182 32.7273H4.09091V36.8182H8.18182V32.7273Z" fill="black"/>
<path d="M12.2727 32.7273H8.18182V36.8182H12.2727V32.7273Z" fill="black"/>
<path d="M20.4545 32.7273H16.3636V36.8182H20.4545V32.7273Z" fill="black"/>
<path d="M24.5455 34.7727C24.5455 34.2957 24.5455 32.7273 24.5455 32.7273C24.5455 32.7273 25.938 32.7273 26.5909 32.7273C27.1006 32.7273 28.6364 32.7273 28.6364 32.7273C28.6364 32.7273 28.6364 34.1534 28.6364 34.7727C28.6364 35.9027 27.7208 36.8182 26.5909 36.8182C25.461 36.8182 24.5455 35.9027 24.5455 34.7727Z" fill="black"/>
<path d="M36.8182 34.7727C36.8182 35.2497 36.8182 36.8182 36.8182 36.8182C36.8182 36.8182 35.4256 36.8182 34.7727 36.8182C34.263 36.8182 32.7273 36.8182 32.7273 36.8182C32.7273 36.8182 32.7273 35.3929 32.7273 34.7727C32.7273 33.6428 33.6428 32.7273 34.7727 32.7273C35.9026 32.7273 36.8182 33.6428 36.8182 34.7727Z" fill="black"/>
<path d="M8.18182 36.8184H4.09091V40.9093H8.18182V36.8184Z" fill="black"/>
<path d="M12.2727 36.8184H8.18182V40.9093H12.2727V36.8184Z" fill="black"/>
<path d="M16.3636 36.8184H12.2727V40.9093H16.3636V36.8184Z" fill="black"/>
<path d="M20.4545 36.8184H16.3636V40.9093H20.4545V36.8184Z" fill="black"/>
<path d="M36.8182 36.8184H32.7273V40.9093H36.8182V36.8184Z" fill="black"/>
<path d="M36.8182 36.8184V40.9093H40.9091C40.9091 38.6503 39.0772 36.8184 36.8182 36.8184Z" fill="black"/>
<path d="M8.18182 40.9092H4.09091V45.0001H8.18182V40.9092Z" fill="black"/>
<path d="M20.4545 40.9092H16.3636V45.0001H20.4545V40.9092Z" fill="black"/>
<path d="M24.5455 45.0001H28.6364V40.9092C26.3774 40.9092 24.5455 42.7411 24.5455 45.0001Z" fill="black"/>
<path d="M32.7273 40.9092H28.6364V45.0001H32.7273V40.9092Z" fill="black"/>
<path d="M36.8182 40.9092H32.7273V45.0001H36.8182V40.9092Z" fill="black"/>
<path d="M40.9091 40.9092H36.8182V45.0001H40.9091V40.9092Z" fill="black"/>
<path d="M45 40.9092H40.9091V45.0001H45V40.9092Z" fill="black"/>
</g>
<defs>
<clipPath id="clip0">
<rect width="45" height="45" fill="white"/>
</clipPath>
</defs>
</svg>
