<svg width="35" height="35" viewBox="0 0 35 35" fill="none" xmlns="http://www.w3.org/2000/svg">
<path d="M35.0117 6.88352C32.0017 5.37852 29.6217 3.03353 28.0467 -0.0114746H6.38168C6.10168 0.0585254 5.85667 0.128525 5.64667 0.163525H5.57667C5.01667 0.303525 4.42168 0.443524 4.10668 0.583524C3.30168 0.933524 2.53167 1.66852 1.79667 2.43852C1.13167 3.13852 0.676674 3.90852 0.466674 4.78352L0.39667 5.02852C0.22167 5.86852 -0.0233345 6.84852 -0.0233345 7.44352L0.0116783 18.7835L-0.0233345 28.0585C2.98667 29.5635 5.36667 31.9085 6.94167 34.9535H28.6067C28.8867 34.8835 29.1667 34.8135 29.3417 34.7785H29.4117C29.9717 34.6385 30.5667 34.4985 30.8817 34.3585C31.6867 34.0085 32.4567 33.2735 33.1567 32.5035C33.8217 31.7685 34.2767 30.9985 34.4867 30.1585L34.5567 29.9135C34.7317 29.0735 34.9767 28.0935 34.9767 27.4985L34.9417 16.1585L35.0117 6.88352Z" fill="black"/>
</svg>
