<svg width="35" height="15" viewBox="0 0 35 15" fill="none" xmlns="http://www.w3.org/2000/svg">
<path d="M5.58414 -0.0117188C8.69172 -0.0117188 11.1921 2.34576 11.1921 5.27474V29.7068C11.1921 32.6358 8.69172 34.9932 5.58414 34.9932C2.47656 34.9932 -0.0238037 32.6358 -0.0238037 29.7068V5.27474C0.0119156 2.38148 2.51227 -0.0117188 5.58414 -0.0117188Z" fill="black"/>
<path d="M29.4089 -0.0117188C32.5165 -0.0117188 35.0169 2.34576 35.0169 5.27474V29.7068C35.0169 32.6358 32.5165 34.9932 29.4089 34.9932C26.3014 34.9932 23.801 32.6358 23.801 29.7068V5.27474C23.801 2.38148 26.3014 -0.0117188 29.4089 -0.0117188Z" fill="black"/>
<path d="M17.5144 -0.0117188C20.622 -0.0117188 23.1223 2.34576 23.1223 5.27474V29.7068C23.1223 32.6358 20.622 34.9932 17.5144 34.9932C14.4068 34.9932 11.9065 32.6358 11.9065 29.7068V5.27474C11.9065 2.38148 14.4068 -0.0117188 17.5144 -0.0117188Z" fill="black"/>
</svg>
