<svg width="45" height="45" viewBox="0 0 45 45" fill="none" xmlns="http://www.w3.org/2000/svg">
<path d="M43.9165 1.07991L43.2865 0H39.9118L39.3718 0.944924L37.707 0L35.5471 1.2599L33.3873 0L31.2275 1.2599L29.0677 0L26.9078 1.2599L24.748 0L22.5882 1.2599L20.4284 0L18.2685 1.2599L16.1087 0L13.9489 1.2599L11.7891 0L9.62922 1.2599L7.4694 0L5.80453 0.944924L5.26458 0H1.88985L1.2599 1.07991L0.179985 1.70986V5.08459L1.12491 5.62455L0.179985 7.28941L1.43989 9.44924L0.179985 11.6091L1.43989 13.7689L0.179985 15.9287L1.43989 18.0885L0.179985 20.2484L1.43989 22.4082L0.179985 24.568L1.43989 26.7278L0.179985 28.8877L1.43989 31.0475L0.179985 33.2073L1.43989 35.3672L0.179985 37.527L1.12491 39.1918L0.179985 39.7318V43.1065L1.2599 43.7365L1.88985 44.8164H5.26458L5.80453 43.8715L7.4694 44.8164L9.62922 43.5565L11.7891 44.8164L13.9489 43.5565L16.1087 44.8164L18.2685 43.5565L20.4284 44.8164L22.5882 43.5565L24.748 44.8164L26.9078 43.5565L29.0677 44.8164L31.2275 43.5565L33.3873 44.8164L35.5471 43.5565L37.707 44.8164L39.3718 43.8715L39.9118 44.8164H43.2865L43.9165 43.7365L44.9964 43.1065V39.7318L44.0515 39.1918L44.9964 37.527L43.7365 35.3672L44.9964 33.2073L43.7365 31.0475L44.9964 28.8877L43.7365 26.7278L44.9964 24.568L43.7365 22.4082L44.9964 20.2484L43.7365 18.0885L44.9964 15.9287L43.7365 13.7689L44.9964 11.6091L43.7365 9.44924L44.9964 7.28941L44.0515 5.62455L44.9964 5.08459V1.66487L43.9165 1.07991ZM35.5471 39.5068L33.3873 38.2469L31.2275 39.5068L29.0677 38.2469L26.9078 39.5068L24.748 38.2469L22.5882 39.5068L20.4284 38.2469L18.2685 39.5068L16.1087 38.2469L13.9489 39.5068L11.7891 38.2469L9.62922 39.5068L7.4694 38.2469L6.2095 38.9669L6.92944 37.707L5.66955 35.5471L6.92944 33.3873L5.66955 31.2275L6.92944 29.0677L5.66955 26.9078L6.92944 24.748L5.66955 22.5882L6.92944 20.4284L5.66955 18.2685L6.92944 16.1087L5.66955 13.9489L6.92944 11.7891L5.66955 9.62923L6.92944 7.4694L6.2095 6.2095L7.4694 6.92944L9.62922 5.66954L11.7891 6.92944L13.9489 5.66954L16.1087 6.92944L18.2685 5.66954L20.4284 6.92944L22.5882 5.66954L24.748 6.92944L26.9078 5.66954L29.0677 6.92944L31.2275 5.66954L33.3873 6.92944L35.5471 5.66954L37.707 6.92944L38.9669 6.2095L38.2469 7.4694L39.5068 9.62923L38.2469 11.7891L39.5068 13.9489L38.2469 16.1087L39.5068 18.2685L38.2469 20.4284L39.5068 22.5882L38.2469 24.748L39.5068 26.9078L38.2469 29.0677L39.5068 31.2275L38.2469 33.3873L39.5068 35.5471L38.2469 37.707L38.9669 38.9669L37.707 38.2469L35.5471 39.5068Z" fill="black"/>
</svg>
