<svg width="45" height="45" viewBox="0 0 45 45" fill="none" xmlns="http://www.w3.org/2000/svg">
<g clip-path="url(#clip0)">
<path d="M0.243463 9.44091C0.229937 9.25155 0.311091 9.21098 0.297565 9.02162L0.595131 9.6979C-0.798016 9.84668 1.48783 13.715 0.0811542 13.8503C0.649233 14.8241 0.419297 13.9179 1.08206 12.6736L0.946799 14.4589C0.933273 14.4319 0.798016 15.1082 0.906222 14.7295C1.50135 16.082 0.78449 15.1217 0.419297 15.8521C0.622182 16.3661 1.4743 15.4463 1.24436 16.9206C0.97385 19.0036 0.216411 16.5284 0.0541028 17.7727L0.78449 18.679C0.229937 20.275 0.743913 21.4653 0.838593 22.8178C0.78449 23.1289 0.703336 23.2777 0.622182 23.3453C0.946799 24.8061 -0.0811542 26.3751 0.162308 27.4571C0.311091 27.2001 0.270514 28.0793 0.446348 28.201L0 30.1623C0.18936 29.2966 0.608656 29.3372 1.01443 29.1749C0.97385 29.7836 0.743913 30.0676 0.689811 30.4869C0.838593 30.2299 0.987376 29.9729 1.17674 30.2975L0.486925 32.3399C0.419297 32.2182 0.392245 31.9882 0.365194 31.7854C0.365194 32.2993 0.0946799 33.4084 0.432822 34.1388C0.595131 34.0712 0.743913 33.8277 0.906222 33.7601C0.446348 33.1379 0.838593 32.7998 1.14968 32.4752C1.08206 33.8954 1.25789 32.8268 1.55546 33.5031C1.54193 34.504 0.527502 34.9098 0.175834 34.6528C0.338142 35.7754 0.595131 36.1406 0.175834 37.2903L1.055 37.0739L1.20379 38.1289L1.55546 37.2768C1.69071 37.9936 1.5284 38.2506 1.25789 38.3724C0.78449 38.6158 0 38.44 0.202885 39.8872L0.703336 39.9008C0.513977 40.7664 0.28404 41.064 0.87917 41.7403C0.581605 42.5789 0.175834 40.3065 0.0811542 42.2813C0.338142 42.633 0.527502 43.3769 0.622182 43.945C0.419297 44.4995 0.121731 43.715 0.0946799 43.2416C0.0541028 43.945 0.148783 44.4048 0.297565 44.7294C0.568079 44.743 0.838593 44.7835 1.06853 44.9053C0.770965 44.6348 0.486925 44.3643 1.16321 44.1749C2.19116 44.0802 3.9495 45.1893 4.88278 44.3372C5.01803 44.4048 5.05861 44.486 5.07214 44.5536C5.28855 44.4995 5.57259 44.4454 5.88368 44.3913C6.72227 44.2425 7.76375 44.0802 8.10189 43.7421C8.83228 45.4328 12.9982 42.917 12.9847 44.486L15.4058 44.4048L15.3381 44.5671C16.8936 44.6753 17.4346 44.2966 17.9757 43.9179C18.3273 44.0261 18.0703 44.1749 18.0433 44.256C20.3021 44.5671 20.532 44.4995 22.4256 43.7285L22.6285 44.2425C23.1425 43.945 25.9017 45.0405 28.1199 44.4454C28.0929 44.4995 28.0523 44.6077 27.8765 44.6753C30.3787 44.0802 33.8548 46.082 34.7746 44.229L36.4247 43.7691C35.4373 43.7015 35.4373 43.5257 35.6267 43.3228C35.9648 43.3498 36.3706 43.3633 36.817 43.3228C36.7358 43.9314 38.2777 43.7691 39.0352 43.9314C39.2786 43.9855 39.4409 44.0667 39.4274 44.2155C41.321 45.1758 43.147 44.9188 44.8783 45.027C44.9459 44.743 44.7971 43.7421 44.7701 43.2687C44.743 43.7421 44.6213 45.1623 44.4319 44.6212C44.5266 44.0532 44.5401 42.6735 44.7971 42.3219C44.6889 40.3471 44.2967 42.6194 43.9991 41.7808C44.5942 41.1046 44.3643 40.807 44.1749 39.9413L44.6754 39.9278C44.7836 39.1974 44.6348 38.8863 44.4049 38.7105C43.9179 38.3588 43.0658 38.6699 43.3363 37.3038L43.688 38.156L43.8368 37.101L44.716 37.3174C44.2967 36.1677 44.5536 35.8025 44.716 34.6799C44.3643 34.9368 43.3499 34.5311 43.3363 33.5302C43.6339 32.8539 43.8097 33.9089 43.7421 32.5022C44.0532 32.8268 44.4454 33.1785 43.9856 33.7872C44.1479 33.8548 44.2967 34.0982 44.459 34.1659C44.7971 33.4355 44.5401 32.3264 44.5266 31.8124C44.5131 32.0153 44.486 32.2452 44.4049 32.367L43.7151 30.3246C43.9044 30 44.0532 30.257 44.202 30.5139C44.1479 30.0946 43.9179 29.8106 43.8774 29.2019C44.2831 29.3643 44.7024 29.3237 44.8918 30.1893L44.4454 28.2416C44.6213 28.1064 44.5807 27.2407 44.7295 27.4977C44.9729 26.4157 43.945 24.8467 44.2561 23.413C44.1749 23.3318 44.1073 23.183 44.0397 22.8855C44.1344 21.5329 44.6483 20.3426 44.0938 18.7466L44.8242 17.8404C44.6619 16.5825 43.9179 19.0712 43.6339 16.9882C43.404 15.5139 44.2561 16.4337 44.459 15.9197C44.0938 15.1893 43.3769 16.1497 43.972 14.7971C44.0802 15.1758 43.9585 14.513 43.945 14.5266L43.8097 12.7412C44.4725 13.9855 44.2426 14.8918 44.8106 13.9179C43.4175 13.7691 45.7033 9.90079 44.2967 9.76553L44.5942 9.08925C44.5807 9.27861 44.6619 9.31918 44.6483 9.50854C45.3246 8.18303 44.0261 8.52117 44.229 6.81693C44.2561 6.65462 44.2967 6.50584 44.3508 6.38411C44.486 6.05949 44.6889 5.91071 44.8106 6.20827L44.459 4.88276C44.486 4.55814 44.6483 4.57167 44.6889 4.81513L44.5807 2.96211L44.6213 2.97563C44.4049 2.69159 44.3778 2.43461 44.229 2.12352C44.4319 1.60954 44.3778 2.3805 44.5536 2.24525L44.9865 0.135239C43.5122 0.216393 40.9423 0.419279 39.4409 0.405753C39.4545 0.554536 39.2786 1.10909 39.0352 1.16319C38.8999 1.19024 38.7511 1.20377 38.5888 1.21729C38.5618 1.21729 38.5212 1.21729 38.4941 1.23082C37.7096 1.28492 36.7493 1.28492 36.817 1.77185C36.3706 1.7448 35.9648 1.7448 35.6267 1.77185C35.4373 1.56896 35.4373 1.39313 36.4247 1.3255L34.7746 0.865627C33.8548 -0.987393 30.3787 1.01441 27.8765 0.419279C28.0523 0.486907 28.0929 0.595113 28.1199 0.649216C25.9017 0.0540852 23.1425 1.14967 22.6285 0.852101L22.4256 1.36608C20.532 0.581587 20.3021 0.513959 18.0433 0.838575C18.0703 0.919729 18.3273 1.06851 17.9757 1.17672C17.4346 0.797998 16.8801 0.419279 15.3381 0.527484L15.4058 0.689793L12.9847 0.54101C12.9982 2.10999 8.83228 -0.419314 8.10189 1.28492C7.81785 1.00088 7.01984 0.838575 6.27592 0.703318C5.81605 0.622164 5.3697 0.54101 5.05861 0.459856C5.05861 0.527484 5.00451 0.595113 4.86925 0.662741C3.9495 -0.175852 2.19116 0.933255 1.16321 0.838575C1.08206 0.811524 1.01443 0.784472 0.960325 0.757421L0.649234 1.78537C0.825068 1.92063 0.770965 1.14967 0.97385 1.66364C0.825068 1.98826 0.486925 2.63749 0.270514 2.92153L0.311091 2.90801L0.202885 4.7475C0.243463 4.51756 0.419297 4.50404 0.432822 4.81513L0.0811542 6.14065C0.243463 5.7484 0.527502 6.12712 0.649234 6.68167C0.649234 6.70872 0.662759 6.72225 0.662759 6.7493C0.865645 8.46706 -0.419297 8.1154 0.243463 9.44091ZM5.27502 36.4788L5.7349 34.8422C7.58792 33.9359 5.57259 30.4734 6.18124 27.9846C6.11362 28.1605 6.00541 28.201 5.95131 28.2281C6.54644 26.0234 5.45086 23.2777 5.74842 22.7637L5.23445 22.5608C6.01894 20.6672 6.08656 20.4508 5.76195 18.192C5.68079 18.2191 5.53201 18.4761 5.4238 18.1244C5.80252 17.5834 6.18124 17.0424 6.07304 15.5004L5.91073 15.5681L5.99188 13.1605C4.4229 13.174 6.95221 9.03514 5.24797 8.30476C5.54554 8.00719 5.70784 7.1686 5.8431 6.39763L5.92426 6.42469C5.88368 6.41116 5.87015 6.39763 5.8431 6.38411C5.85663 6.2759 5.88368 6.18122 5.8972 6.08654C6.03246 5.99186 6.2624 5.89718 6.53291 5.85661C8.25068 5.65372 7.91253 6.95219 9.23805 6.2759C9.04869 6.28943 9.00811 6.20827 8.81875 6.2218L9.50857 5.92423C9.65735 7.31738 13.5392 5.03154 13.688 6.42469C14.6619 5.85661 13.7556 6.08654 12.4977 5.43731L14.2967 5.57257C14.2696 5.58609 14.9459 5.72135 14.5672 5.59962C15.9333 5.01801 14.9594 5.72135 15.7033 6.08654C16.2308 5.88366 15.2976 5.04506 16.7719 5.275C18.8683 5.54552 16.3796 6.28943 17.6375 6.45174L18.5437 5.73488C20.1533 6.28943 21.3571 5.77545 22.7096 5.68077C23.0207 5.73487 23.1695 5.81603 23.2371 5.89718C24.6844 5.58609 26.2669 6.60052 27.349 6.37058C27.092 6.2218 27.9711 6.26238 28.1064 6.08654L30.0676 6.53289C29.202 6.34353 29.2426 5.92423 29.0802 5.53199C29.6889 5.57257 29.9865 5.8025 30.4058 5.85661C30.1488 5.70782 29.8918 5.55904 30.2164 5.38321L32.2723 6.07302C32.1506 6.14065 31.9206 6.1677 31.7178 6.19475C32.2317 6.19475 33.3408 6.46526 34.0848 6.12712C34.0171 5.96481 33.7601 5.81603 33.706 5.65372C33.0839 6.11359 32.7322 5.72135 32.4211 5.41026C33.8413 5.47789 32.7728 5.30205 33.4626 5.00449C34.4635 5.01801 34.8828 6.03244 34.6123 6.37058C35.7484 6.20827 36.1001 5.95129 37.2633 6.37058L37.0469 5.50494L38.1154 5.35616L37.2498 5.00449C38.9405 4.6934 38.0884 6.01891 39.0352 6.31648C39.1839 7.1145 39.3463 8.03424 39.6573 8.34533C37.9531 9.07572 40.4824 13.2146 38.9134 13.2011L38.9946 15.6086L38.8323 15.541C38.7241 17.0829 39.1028 17.624 39.4815 18.165C39.3733 18.5167 39.2245 18.2597 39.1434 18.2326C38.8323 20.4779 38.8864 20.7078 39.6709 22.6014L39.1569 22.8043C39.4545 23.3183 38.3589 26.064 38.954 28.2687C38.8999 28.2416 38.7917 28.201 38.7241 28.0252C39.3192 30.5139 37.3039 33.9765 39.1704 34.8827L39.6303 36.5193C39.6979 35.532 39.8738 35.532 40.0766 35.7213C40.0496 36.0595 40.0361 36.4652 40.0766 36.9116C39.5627 36.844 39.5897 37.926 39.5221 38.7105C37.8043 38.6564 39.1569 40.4418 37.2362 40.0766L38.1019 39.7249L37.0334 39.5762L37.2498 38.7105C36.0866 39.1298 35.7349 38.8728 34.5987 38.7105C34.8557 39.0622 34.45 40.0631 33.4491 40.0766C32.7592 39.779 33.8278 39.6032 32.4076 39.6708C32.7322 39.3597 33.0839 38.9675 33.6925 39.4274C33.7601 39.2651 34.0036 39.1163 34.0712 38.954C33.3408 38.6158 32.2182 38.8728 31.7042 38.8863C31.9071 38.8999 32.1371 38.9269 32.2588 39.0081L30.2029 39.6979C29.8783 39.5085 30.1353 39.3597 30.3922 39.211C29.9729 39.2651 29.6889 39.495 29.0667 39.5356C29.229 39.1298 29.1885 38.724 30.0541 38.5347L28.0929 38.981C27.9576 38.8052 27.092 38.8458 27.3354 38.697C26.2534 38.467 24.6709 39.4815 23.2236 39.1704C23.1425 39.2515 22.9937 39.3192 22.6961 39.3868C21.3436 39.2921 20.1398 38.7917 18.5302 39.3327L17.624 38.6158C16.3661 38.7781 18.8548 39.5221 16.7583 39.7926C15.2705 40.0225 16.2038 39.1839 15.6898 38.981C14.9459 39.3462 15.9197 40.0496 14.5537 39.4679C14.9324 39.3597 14.2696 39.4815 14.2831 39.495L12.4842 39.6303C13.7421 38.9675 14.6483 39.1974 13.6745 38.6429C13.5257 40.036 9.64382 37.7637 9.49504 39.1433L8.80523 38.8458C9.00811 38.8593 9.03517 38.7781 9.22453 38.7917C7.89901 38.1289 8.23715 39.4138 6.51939 39.211C5.92426 39.1028 5.50496 38.8052 5.91073 38.6294L5.35618 38.7781C5.27502 37.9801 5.32912 36.8575 4.80162 36.9251C4.82867 36.4788 4.82867 36.073 4.80162 35.7349C5.03156 35.4914 5.20739 35.4914 5.27502 36.4788Z" fill="black"/>
</g>
<defs>
<clipPath id="clip0">
<rect width="45" height="45" fill="white"/>
</clipPath>
</defs>
</svg>
