<svg width="45" height="45" viewBox="0 0 45 45" fill="none" xmlns="http://www.w3.org/2000/svg">
<g clip-path="url(#clip0)">
<path d="M45 10.5133C44.0759 9.84368 43.4598 8.74547 43.4598 7.51332C43.4598 6.28118 44.0625 5.19636 45 4.51332C44.0759 3.84368 43.4598 2.74547 43.4598 1.51332C42.2277 1.51332 41.1429 0.910645 40.4598 -0.0268555C39.7902 0.897252 38.692 1.51332 37.4598 1.51332C36.2277 1.51332 35.1429 0.910645 34.4598 -0.0268555C33.7902 0.897252 32.692 1.51332 31.4598 1.51332C30.2277 1.51332 29.1429 0.910645 28.4598 -0.0268555C27.7902 0.897252 26.692 1.51332 25.4598 1.51332C24.2679 1.54011 23.1696 0.924037 22.5 -6.97523e-05C21.8304 0.924037 20.7321 1.54011 19.5 1.54011C18.2679 1.54011 17.183 0.93743 16.5 -6.97523e-05C15.8304 0.924037 14.7321 1.54011 13.5 1.54011C12.2679 1.54011 11.183 0.93743 10.5 -6.97523e-05C9.83035 0.924037 8.73214 1.54011 7.5 1.54011C6.29464 1.54011 5.19642 0.924037 4.52678 -6.97523e-05C3.85714 0.924037 2.75892 1.54011 1.52678 1.54011C1.52678 2.77225 0.924103 3.85707 -0.0133972 4.54011C0.91071 5.20975 1.52678 6.30797 1.52678 7.54011C1.52678 8.77225 0.924103 9.84368 -4.35859e-06 10.5133C0.924103 11.183 1.54017 12.2812 1.54017 13.5133C1.54017 14.7455 0.937496 15.8303 -4.35859e-06 16.5133C0.924103 17.183 1.54017 18.2812 1.54017 19.5133C1.54017 20.7455 0.937496 21.8303 -4.35859e-06 22.5133C0.924103 23.183 1.54017 24.2812 1.54017 25.5133C1.54017 26.7455 0.937496 27.8303 -4.35859e-06 28.5133C0.924103 29.183 1.54017 30.2812 1.54017 31.5133C1.54017 32.7455 0.937496 33.8303 -4.35859e-06 34.5133C0.924103 35.183 1.54017 36.2812 1.54017 37.5133C1.54017 38.7455 0.937496 39.8303 -4.35859e-06 40.5133C0.924103 41.183 1.54017 42.2812 1.54017 43.5133C2.77232 43.5133 3.85714 44.116 4.54017 45.0535C5.20982 44.1294 6.30803 43.5133 7.54017 43.5133C8.77232 43.5133 9.85714 44.116 10.5402 45.0535C11.2098 44.1294 12.308 43.5133 13.5402 43.5133C14.7723 43.5133 15.8571 44.116 16.5402 45.0535C17.2098 44.1294 18.308 43.5133 19.5402 43.5133C20.7723 43.5133 21.8571 44.116 22.5402 45.0535C23.2098 44.1294 24.308 43.5133 25.5402 43.5133C26.7723 43.5133 27.8571 44.116 28.5402 45.0535C29.2098 44.1294 30.308 43.5133 31.5402 43.5133C32.7723 43.5133 33.8571 44.116 34.5402 45.0535C35.2098 44.1294 36.308 43.5133 37.5402 43.5133C38.7723 43.5133 39.8571 44.116 40.5402 45.0535C41.2098 44.1294 42.308 43.5133 43.5402 43.5133C43.5402 42.2812 44.1429 41.1964 45.0804 40.5133C44.1562 39.8437 43.5402 38.7455 43.5402 37.5133C43.5402 36.2812 44.1429 35.1964 45.0804 34.5133C44.1562 33.8437 43.5402 32.7455 43.5402 31.5133C43.5402 30.2812 44.1429 29.1964 45.0804 28.5133C44.1562 27.8437 43.5402 26.7455 43.5402 25.5133C43.5402 24.2812 44.1429 23.1964 45.0804 22.5133C44.1562 21.8437 43.5402 20.7455 43.5402 19.5133C43.5402 18.2812 44.1429 17.1964 45.0804 16.5133C44.1562 15.8437 43.5402 14.7455 43.5402 13.5133C43.4598 12.2812 44.0759 11.1964 45 10.5133ZM37.1518 16.5133C36.8571 17.4776 36.7098 18.4821 36.7098 19.5133C36.7098 20.5312 36.8571 21.549 37.1518 22.5133C36.8571 23.4776 36.7098 24.4821 36.7098 25.5133C36.7098 26.5446 36.8571 27.549 37.1518 28.5133C36.8571 29.4776 36.7098 30.4821 36.7098 31.5133C36.7098 32.5312 36.8571 33.549 37.1518 34.5133C36.9375 35.2499 36.7902 35.9999 36.7366 36.7767C35.9598 36.8303 35.2098 36.9776 34.4732 37.1919C33.5089 36.8973 32.5045 36.7499 31.4732 36.7499C30.4554 36.7499 29.4375 36.8973 28.4732 37.1919C27.5089 36.8973 26.5045 36.7499 25.4732 36.7499C24.4554 36.7499 23.4375 36.8973 22.4732 37.1919C21.5089 36.8973 20.5045 36.7499 19.4732 36.7499C18.442 36.7499 17.4375 36.8973 16.4732 37.1919C15.5089 36.8973 14.5045 36.7499 13.4732 36.7499C12.442 36.7499 11.4375 36.8973 10.4732 37.1919C9.7366 36.9776 8.9866 36.8303 8.20982 36.7767C8.15625 35.9999 8.00892 35.2499 7.79464 34.5133C8.08928 33.549 8.2366 32.5446 8.2366 31.5133C8.2366 30.4821 8.08928 29.4776 7.79464 28.5133C8.08928 27.549 8.2366 26.5446 8.2366 25.5133C8.2366 24.4821 8.08928 23.4776 7.79464 22.5133C8.08928 21.549 8.2366 20.5446 8.2366 19.5133C8.2366 18.4821 8.08928 17.4776 7.79464 16.5133C8.08928 15.549 8.2366 14.5446 8.2366 13.5133C8.2366 12.4821 8.08928 11.4776 7.79464 10.5133C8.00892 9.77672 8.15625 9.02672 8.20982 8.24993C8.9866 8.19636 9.7366 8.04904 10.4732 7.83475C11.4375 8.1294 12.442 8.27672 13.4732 8.27672C14.5045 8.27672 15.5089 8.1294 16.4732 7.83475C17.4375 8.1294 18.442 8.27672 19.4732 8.27672C20.5045 8.27672 21.5089 8.1294 22.4732 7.83475C23.4375 8.1294 24.442 8.27672 25.4732 8.27672C26.5045 8.27672 27.5089 8.1294 28.4732 7.83475C29.4375 8.1294 30.442 8.27672 31.4732 8.27672C32.5045 8.27672 33.5089 8.1294 34.4732 7.83475C35.2098 8.04904 35.9598 8.19636 36.7366 8.24993C36.7902 9.02672 36.9375 9.77672 37.1518 10.5133C36.8571 11.4776 36.7098 12.4821 36.7098 13.5133C36.7098 14.5446 36.8705 15.549 37.1518 16.5133Z" fill="black"/>
</g>
<defs>
<clipPath id="clip0">
<rect width="45" height="45" fill="white"/>
</clipPath>
</defs>
</svg>
