<svg width="45" height="45" viewBox="0 0 45 45" fill="none" xmlns="http://www.w3.org/2000/svg">
<g clip-path="url(#clip0)">
<path d="M45 12.645C45 9.81 43.875 8.055 41.625 7.11C39.69 6.3 38.295 4.77 37.53 2.61C36.9 0.855 35.595 0 33.57 0H33.525H11.61C11.565 0 11.565 0 11.52 0C11.07 0.135 10.62 0.27 10.17 0.36C9.405 0.54 8.595 0.765 7.785 1.08C5.895 1.89 4.5 3.195 3.42 4.365C1.935 5.94 0.944999 7.785 0.539999 9.81V9.855C0.269999 11.025 0 12.24 0 13.455L0.0450027 23.715L0 32.4C0 35.235 1.125 36.99 3.375 37.935C5.31 38.745 6.705 40.275 7.47 42.435C8.1 44.19 9.405 45.045 11.43 45.045H11.475C11.52 45.045 11.61 45.045 11.655 45.045H33.39H33.48C33.93 44.91 34.38 44.775 34.83 44.685C35.595 44.505 36.45 44.28 37.215 43.965C39.105 43.155 40.5 41.85 41.58 40.68C43.065 39.105 44.055 37.26 44.46 35.235V35.19C44.73 34.02 45 32.805 45 31.59L44.955 21.33L45 12.645ZM37.89 33.705L37.845 33.93C37.665 34.695 37.26 35.415 36.63 36.045C36 36.72 35.28 37.395 34.56 37.71C34.245 37.845 33.75 37.98 33.21 38.07H33.165C32.985 38.115 32.76 38.16 32.49 38.25H12.96C11.565 35.505 9.405 33.39 6.705 32.04L6.75 23.67L6.705 13.455C6.705 12.915 6.885 12.06 7.065 11.295L7.11 11.07C7.29 10.305 7.695 9.63 8.28 8.955C8.91 8.28 9.63 7.605 10.35 7.29C10.62 7.155 11.16 7.02 11.655 6.93H11.7C11.88 6.885 12.105 6.84 12.375 6.75H31.86C33.255 9.495 35.415 11.61 38.115 12.96L38.07 21.33L38.115 31.545C38.25 32.04 38.07 32.94 37.89 33.705Z" fill="black"/>
</g>
<defs>
<clipPath id="clip0">
<rect width="45" height="45" fill="white"/>
</clipPath>
</defs>
</svg>
