<svg width="65" height="80" viewBox="0 0 65 80" fill="none" xmlns="http://www.w3.org/2000/svg">
<g clip-path="url(#clip0)">
<path d="M11.376 66.5213C11.376 66.5421 11.3969 66.5629 11.4178 66.6044C11.4387 66.6459 11.4595 66.6875 11.4595 66.729C11.4595 66.7705 11.4804 66.8328 11.5013 66.8744C11.5222 66.9159 11.5222 66.9575 11.5222 66.9782C11.5222 67.1651 11.4804 67.3728 11.4178 67.622C11.3343 67.8713 11.2508 68.1412 11.1047 68.4112C10.9794 68.6812 10.8125 68.972 10.6455 69.2627C10.4785 69.5535 10.2906 69.8235 10.0819 70.0935C9.89403 70.3635 9.68529 70.5919 9.47656 70.7996C9.26782 71.0073 9.05909 71.1734 8.87123 71.3188C8.78773 71.2565 8.70424 71.1734 8.59987 71.0696C8.4955 70.9658 8.39114 70.8827 8.2659 70.7581C8.14065 70.6542 8.03629 70.5504 7.91105 70.4258C7.78581 70.3219 7.68144 70.1973 7.57707 70.0935C7.72319 69.9689 7.91105 69.8027 8.09891 69.6158C8.28677 69.4289 8.4955 69.2004 8.68336 68.9512C8.87123 68.702 9.07996 68.4528 9.26782 68.2036C9.45568 67.9543 9.62267 67.7051 9.76879 67.4559C9.9149 67.2067 10.0193 66.999 10.1028 66.8121C10.1863 66.6252 10.2071 66.459 10.1863 66.3552C10.1654 66.2929 10.1445 66.2513 10.1028 66.2306C10.061 66.2098 9.99839 66.189 9.9149 66.189C9.6018 66.189 9.22608 66.2513 8.78773 66.3759C8.37026 66.5005 7.93192 66.6875 7.45183 66.9159C6.99261 67.1651 6.5334 67.4559 6.05331 67.7882C5.57322 68.1205 5.15575 68.5359 4.73828 68.972C4.32081 69.4081 3.96596 69.8858 3.65286 70.405C3.33976 70.9242 3.08927 71.485 2.92229 72.0665C3.29801 72.0665 3.65286 72.0457 3.98683 72.0249C4.32081 72.0042 4.63391 71.9834 4.94701 71.9419C5.26012 71.9003 5.53147 71.9003 5.80283 71.8796C6.07418 71.8588 6.34554 71.838 6.59602 71.838C6.74213 71.838 6.88825 71.9211 7.03436 72.0665C7.20135 72.2119 7.34746 72.3988 7.4727 72.5857C7.61882 72.7934 7.72319 73.0011 7.80668 73.2087C7.89017 73.4164 7.93192 73.6033 7.93192 73.728C7.93192 74.1018 7.82755 74.4756 7.63969 74.8495C7.45183 75.2233 7.18048 75.5971 6.86737 75.9294C6.5334 76.2825 6.15768 76.6148 5.74021 76.9055C5.32274 77.1963 4.86352 77.4663 4.38343 77.6947C3.90334 77.9232 3.42325 78.0893 2.94316 78.2139C2.46307 78.3385 2.0456 78.5047 1.58638 78.5047C1.52376 78.4632 1.46114 78.3801 1.35678 78.297C1.25241 78.1932 1.16891 78.0893 1.04367 77.9647C0.939306 77.8401 0.814066 77.7155 0.709698 77.5909C0.605331 77.4663 0.48009 77.3417 0.396596 77.217C0.313102 77.0924 0.208735 76.9886 0.146114 76.8848C0.0834939 76.7809 0.0208735 76.6978 0 76.6355C0.292229 76.6771 0.647078 76.6978 1.04367 76.6771C1.46114 76.6563 1.87861 76.594 2.33783 76.5109C2.79705 76.4071 3.25626 76.2825 3.71548 76.0956C4.1747 75.9294 4.61304 75.701 5.00963 75.431C5.40623 75.161 5.76108 74.8495 6.07418 74.4756C6.38728 74.1018 6.59602 73.6657 6.74213 73.188C6.42903 73.188 6.15767 73.2087 5.90719 73.2295C5.65671 73.2503 5.4271 73.2711 5.17662 73.3126C4.94701 73.3334 4.69653 73.3749 4.46692 73.3957C4.21644 73.4164 3.94509 73.4372 3.65286 73.4372C3.54849 73.4372 3.44412 73.4372 3.33976 73.4372C3.23539 73.4372 3.11015 73.4164 3.00578 73.4164C2.90141 73.3957 2.79705 73.3749 2.69268 73.3541C2.58831 73.3126 2.50482 73.2711 2.4422 73.2295C2.29608 73.1049 2.17084 72.9803 2.02473 72.8557C1.89949 72.7311 1.77425 72.5857 1.66988 72.4403C1.56551 72.2949 1.48202 72.1496 1.4194 72.0249C1.35678 71.8796 1.31503 71.755 1.31503 71.6096C1.31503 71.215 1.4194 70.7581 1.60726 70.2804C1.81599 69.782 2.08735 69.2835 2.4422 68.7851C2.79705 68.2866 3.21451 67.809 3.71548 67.3313C4.21644 66.8536 4.73828 66.4382 5.30186 66.0644C5.86545 65.6906 6.47078 65.3998 7.11785 65.1714C7.76493 64.9429 8.39114 64.8391 9.03821 64.8391C9.26782 64.8391 9.47656 64.8806 9.66442 64.9429C9.85228 65.0052 10.0193 65.1091 10.1863 65.2129C10.3324 65.3167 10.4785 65.4414 10.6037 65.5867C10.729 65.7321 10.8333 65.8567 10.9377 65.9813C11.0421 66.1059 11.1047 66.2306 11.1882 66.3344C11.2717 66.3759 11.3343 66.459 11.376 66.5213ZM16.7405 70.0312C16.9075 69.9273 17.0745 69.8027 17.2415 69.6573C17.4085 69.512 17.5963 69.325 17.7633 69.1381C17.9303 68.9304 18.1182 68.7228 18.2852 68.4943C18.4522 68.2659 18.5983 68.0374 18.7235 67.809C18.8487 67.5805 18.9531 67.3313 19.0157 67.1028C19.0992 66.8744 19.1201 66.6459 19.1201 66.4175C19.1201 66.2513 19.0992 66.1267 19.0784 66.0229C19.0575 65.919 19.0157 65.836 18.974 65.7944C18.9322 65.7321 18.8696 65.6906 18.8279 65.6698C18.7653 65.649 18.7026 65.6283 18.64 65.6283C18.3895 65.6283 18.0973 65.7321 17.7842 65.9398C17.4711 66.1475 17.1163 66.4382 16.7614 66.8121C16.4066 67.1859 16.0308 67.6013 15.676 68.0997C15.3003 68.5982 14.9454 69.1174 14.5906 69.6781C14.2357 70.2389 13.9017 70.8204 13.6095 71.4019C13.2964 72.0042 13.025 72.5857 12.7954 73.1672C12.5658 73.7487 12.378 74.3095 12.2527 74.8287C12.1275 75.3479 12.044 75.8256 12.044 76.2617C12.044 76.4279 12.0649 76.5525 12.0857 76.6563C12.1066 76.7601 12.1484 76.8432 12.1901 76.9055C12.2319 76.9678 12.2945 77.0094 12.3571 77.0301C12.4197 77.0509 12.5032 77.0717 12.5867 77.0717C12.7328 77.0717 12.9207 77.0094 13.1294 76.8848C13.3382 76.7601 13.5678 76.594 13.7974 76.3863C14.027 76.1786 14.2775 75.9502 14.5071 75.701C14.7575 75.4517 14.9663 75.2025 15.1959 74.9533C15.4046 74.7041 15.5925 74.4756 15.7595 74.2679C15.9265 74.0603 16.0517 73.8941 16.1561 73.7695C16.1561 73.7695 16.2187 73.8318 16.3439 73.9356C16.4692 74.0395 16.6362 74.1641 16.8031 74.3095C16.9701 74.4548 17.158 74.6002 17.325 74.7456C17.492 74.891 17.6381 75.0156 17.7216 75.1194C17.5963 75.2648 17.4294 75.4517 17.2415 75.6594C17.0536 75.8879 16.824 76.1163 16.5735 76.3655C16.3231 76.6148 16.0726 76.864 15.7803 77.1132C15.509 77.3624 15.2168 77.5909 14.9245 77.7778C14.6323 77.9855 14.3192 78.1309 14.027 78.2555C13.7347 78.3801 13.4216 78.4424 13.1503 78.4424C12.9416 78.4424 12.7328 78.3801 12.4823 78.2555C12.2527 78.1309 12.0231 77.9647 11.7935 77.7778C11.5639 77.5701 11.3552 77.3624 11.1673 77.1132C10.9794 76.864 10.8125 76.6355 10.6663 76.4071C10.4994 76.1163 10.4159 75.8463 10.395 75.5971C10.3741 75.3479 10.3532 75.161 10.3532 74.9948C10.3532 74.5795 10.4159 74.1226 10.5202 73.6241C10.6455 73.1049 10.8125 72.5857 11.0212 72.0249C11.2299 71.4642 11.5013 70.9035 11.8144 70.3219C12.1275 69.7404 12.4615 69.2004 12.8372 68.6605C13.2129 68.1205 13.6095 67.622 14.0478 67.1444C14.4862 66.6667 14.9454 66.2513 15.4255 65.8983C15.9056 65.5452 16.4066 65.2752 16.9075 65.0675C17.4085 64.8598 17.9303 64.756 18.4522 64.756C18.5983 64.756 18.7653 64.7975 18.9114 64.8806C19.0784 64.9637 19.2453 65.0468 19.3915 65.1714C19.5584 65.296 19.7046 65.4414 19.8507 65.6075C19.9968 65.7736 20.122 65.9398 20.2473 66.1059C20.3516 66.2721 20.456 66.4382 20.5186 66.6252C20.5812 66.7913 20.623 66.9575 20.623 67.1028C20.623 67.4144 20.5604 67.7674 20.4351 68.1413C20.3099 68.5151 20.1429 68.9097 19.9133 69.3043C19.6837 69.6989 19.4332 70.0727 19.141 70.4465C18.8487 70.8204 18.5148 71.1527 18.1808 71.4434L16.7405 70.0312ZM29.6612 66.9782C29.6612 67.2274 29.6195 67.4974 29.5151 67.809C29.4107 68.1205 29.2855 68.432 29.1185 68.7435C28.9515 69.0551 28.7636 69.3874 28.534 69.6989C28.3044 70.0104 28.0957 70.3219 27.8661 70.6127C28.0122 70.7581 28.1374 70.8827 28.2418 70.9865C28.3462 71.0904 28.4297 71.1734 28.4714 71.215C28.3879 71.3396 28.3044 71.5265 28.1583 71.7757C28.0331 72.0249 27.887 72.2949 27.7408 72.6065C27.5947 72.918 27.4486 73.2503 27.3025 73.6033C27.1564 73.9564 27.0103 74.2887 26.885 74.621C26.7598 74.9533 26.6554 75.2648 26.5928 75.5763C26.5093 75.8671 26.4676 76.1163 26.4676 76.324C26.4676 76.594 26.5093 76.8225 26.5719 77.0509C26.6346 77.2794 26.7389 77.4663 26.885 77.6532C27.0312 77.8193 27.1981 77.9647 27.4069 78.0893C27.6156 78.1932 27.8661 78.2762 28.1374 78.297L27.7408 78.8162C27.6782 78.8162 27.5739 78.7954 27.4486 78.7747C27.3234 78.7539 27.1773 78.6916 27.0103 78.6293C26.8433 78.567 26.6763 78.4632 26.4884 78.3385C26.3006 78.2139 26.1336 78.0686 25.9875 77.8816C25.8414 77.6947 25.6952 77.4663 25.57 77.217C25.4448 76.9678 25.3613 76.6563 25.3195 76.3032C25.069 76.5732 24.7977 76.8225 24.5055 77.0924C24.2132 77.3417 23.9001 77.5909 23.587 77.7778C23.2739 77.9855 22.9608 78.1516 22.6477 78.2762C22.3346 78.4009 22.0215 78.4632 21.7084 78.4632C21.5414 78.4632 21.3536 78.4216 21.1657 78.3178C20.9778 78.2139 20.8109 78.0893 20.623 77.9439C20.4351 77.7986 20.2681 77.6117 20.122 77.404C19.9759 77.1963 19.8089 76.9886 19.6837 76.7601C19.5584 76.5317 19.4541 76.324 19.3706 76.1163C19.2871 75.9086 19.2453 75.701 19.2245 75.514C19.2245 75.4517 19.2245 75.3687 19.2245 75.2648C19.2245 75.161 19.2245 75.0571 19.2453 74.9533C19.2453 74.8495 19.2662 74.7456 19.2662 74.6418C19.2662 74.5379 19.2871 74.4549 19.2871 74.3718C19.3706 73.8941 19.4958 73.4164 19.6628 72.8764C19.8298 72.3365 20.0594 71.8173 20.3099 71.298C20.5604 70.7788 20.8526 70.2181 21.1657 69.6989C21.4788 69.1589 21.8337 68.6605 22.1885 68.1828C22.5642 67.7051 22.9608 67.2482 23.3574 66.8328C23.7749 66.4175 24.1924 66.0644 24.6307 65.7529C25.069 65.4414 25.5074 65.2129 25.9666 65.0468C26.4258 64.8806 26.8642 64.7768 27.3234 64.7768C27.4695 64.7768 27.6365 64.8183 27.8243 64.9014C27.9913 64.9844 28.1792 65.0883 28.3462 65.2129C28.5132 65.3375 28.6802 65.4829 28.8471 65.649C28.9933 65.8152 29.1394 65.9813 29.2646 66.1475C29.3899 66.3136 29.4733 66.4798 29.5568 66.6252C29.6403 66.7705 29.6612 66.8744 29.6612 66.9782ZM21.3744 77.0509C21.4788 77.0509 21.6249 76.9886 21.8128 76.8848C22.0006 76.7809 22.2302 76.594 22.4807 76.3863C22.7312 76.1786 23.0234 75.9086 23.3157 75.5971C23.6079 75.2856 23.921 74.9325 24.2341 74.5172C24.5472 74.1226 24.8394 73.6864 25.1525 73.2087C25.4448 72.7311 25.737 72.2326 25.9875 71.6719L25.0482 70.7373C25.1317 70.6335 25.2778 70.5088 25.4656 70.3635C25.6535 70.1973 25.8622 70.0104 26.0918 69.8027C26.3215 69.595 26.5719 69.3458 26.8015 69.0758C27.052 68.8058 27.2816 68.5151 27.4695 68.2243C27.6574 67.9336 27.8452 67.6013 27.9705 67.2482C28.0957 66.9159 28.1792 66.5629 28.1792 66.189C28.1792 65.9813 28.1374 65.836 28.0539 65.7113C27.9705 65.6075 27.9078 65.5452 27.8452 65.5452C27.5321 65.5452 27.1981 65.649 26.8224 65.8775C26.4467 66.1059 26.071 66.3967 25.6952 66.7913C25.2987 67.1651 24.9229 67.622 24.5263 68.1205C24.1297 68.6397 23.754 69.1797 23.3992 69.7612C23.0443 70.3427 22.7103 70.945 22.3972 71.5473C22.0841 72.1496 21.8128 72.7518 21.5832 73.3334C21.3536 73.9149 21.1657 74.4756 21.0405 74.9948C20.9152 75.514 20.8317 75.9917 20.8317 76.3863C20.8944 76.8224 21.0613 77.0509 21.3744 77.0509ZM39.764 67.4144C39.764 67.6843 39.7431 68.0166 39.7013 68.3905C39.6596 68.7643 39.5761 69.1797 39.4509 69.6781C39.3256 70.1766 39.1795 70.6958 38.9917 71.298C38.8038 71.9003 38.5533 72.5442 38.282 73.271C37.9688 74.0602 37.6558 74.7664 37.3218 75.3687C36.9878 75.9709 36.6956 76.4902 36.4033 76.9055C36.1111 77.3209 35.8815 77.6532 35.6519 77.8816C35.4432 78.1101 35.297 78.2555 35.2136 78.297C35.0674 78.3593 34.9213 78.4009 34.7543 78.4009C34.6082 78.4009 34.483 78.3801 34.3369 78.3385C34.1908 78.297 34.0655 78.2347 33.982 78.1309C33.9194 78.0686 33.815 77.9439 33.6689 77.7363C33.5228 77.5286 33.3767 77.2171 33.2097 76.8225C33.0427 76.4279 32.8966 75.9294 32.7296 75.3271C32.5835 74.7248 32.4583 74.0187 32.3956 73.2087C32.166 73.4995 31.9155 73.811 31.6442 74.1641C31.3728 74.5172 31.1015 74.8287 30.8092 75.161C30.5379 75.4933 30.2457 75.8256 29.9743 76.1371C29.703 76.4486 29.4316 76.7394 29.202 77.0094C28.9515 77.2794 28.7428 77.5078 28.5549 77.6947C28.3671 77.8816 28.2209 78.027 28.1166 78.1101C28.0539 78.0478 27.9913 77.9855 27.9078 77.9232C27.8243 77.8401 27.7617 77.7778 27.6782 77.6947C27.5947 77.6117 27.5112 77.5286 27.4486 77.4455C27.3651 77.3624 27.3025 77.2794 27.2399 77.217C28.0122 76.5525 28.8054 75.5971 29.5986 74.3718C30.3918 73.1464 31.1432 71.6719 31.8738 69.9273C31.9573 70.0104 32.0408 70.0727 32.1243 70.1558C32.2078 70.2389 32.2704 70.3012 32.3539 70.3842C32.3748 69.6573 32.3956 68.9928 32.4374 68.4112C32.4791 67.8297 32.5 67.3313 32.5417 66.8951C32.5835 66.459 32.6044 66.0852 32.6461 65.7529C32.6879 65.4414 32.7087 65.1714 32.7505 64.9429C32.7922 64.7145 32.8131 64.5483 32.834 64.4029C32.8549 64.2576 32.8757 64.1537 32.8966 64.0706C32.9592 64.1122 33.0218 64.1953 33.1262 64.2991C33.2306 64.4029 33.3558 64.5068 33.4811 64.6522C33.6063 64.7975 33.7524 64.9014 33.8985 65.0468C34.0446 65.1921 34.1908 65.3167 34.316 65.4414C34.4412 65.566 34.5665 65.6906 34.65 65.7737C34.7543 65.8775 34.817 65.9398 34.8587 66.0021C34.7961 66.2721 34.7126 66.5629 34.6291 66.9159C34.5456 67.269 34.4621 67.6843 34.3786 68.1413C34.2951 68.5982 34.2325 69.1589 34.1908 69.7612C34.1281 70.3635 34.1073 71.0488 34.1073 71.838C34.1073 72.5649 34.149 73.2503 34.1908 73.9356C34.2116 74.2264 34.2325 74.5172 34.2742 74.8287C34.2951 75.1402 34.3369 75.431 34.3786 75.7425C34.4204 76.054 34.483 76.324 34.5456 76.594C34.6082 76.864 34.6708 77.1132 34.7543 77.3209C35.4223 76.2409 35.9441 75.1817 36.3407 74.1641C36.7373 73.1464 37.0295 72.1496 37.2592 71.1734C37.4679 70.1973 37.614 69.242 37.6766 68.2866C37.7392 67.3313 37.781 66.3967 37.781 65.4621V64.9221C38.0523 65.1298 38.3237 65.3583 38.5742 65.6283C38.8247 65.8775 39.0334 66.1267 39.2421 66.3552C39.4717 66.6252 39.6805 66.8951 39.8683 67.1651V67.4144H39.764ZM55.2103 65.9398C54.8972 66.8121 54.5841 67.7051 54.3128 68.5982C54.0414 69.4912 53.7909 70.4673 53.5822 71.485C53.3735 72.5026 53.2065 73.6241 53.0812 74.8079C52.956 75.9917 52.8934 77.3209 52.8725 78.7539C52.8099 78.7955 52.7055 78.8578 52.5803 78.9201C52.455 78.9824 52.3089 79.0654 52.1628 79.1485C52.0167 79.2316 51.8497 79.3147 51.6827 79.3977C51.5157 79.4808 51.3696 79.5639 51.2026 79.647C51.0356 79.73 50.9104 79.7923 50.7852 79.8546C50.6599 79.9169 50.5764 79.9585 50.5138 80C50.5138 79.6054 50.5556 79.1693 50.5973 78.6916C50.639 78.2139 50.7017 77.7155 50.7852 77.1963C50.8687 76.6771 50.9522 76.1371 51.0774 75.5556C51.1818 74.9948 51.307 74.4133 51.4322 73.8526C51.0565 74.3718 50.6808 74.7871 50.3468 75.1194C49.992 75.4517 49.6997 75.7217 49.4284 75.9294C49.1153 76.1786 48.8231 76.3655 48.5517 76.5109C48.4473 76.5732 48.3012 76.5732 48.1551 76.5317C47.9881 76.4694 47.842 76.4071 47.675 76.3032C47.5289 76.1994 47.3828 76.0748 47.2367 75.9502C47.0906 75.8256 47.0071 75.7217 46.9653 75.6387C46.9236 75.5556 46.861 75.3064 46.7983 74.9118C46.7357 74.5172 46.694 73.9564 46.6731 73.2087C46.4435 73.4995 46.193 73.811 45.9425 74.1433C45.692 74.4756 45.3998 74.7871 45.1285 75.1194C44.8571 75.4517 44.5857 75.7633 44.3144 76.054C44.043 76.3655 43.7925 76.6355 43.5629 76.8848C43.3333 77.134 43.1246 77.3417 42.9367 77.5286C42.7489 77.7155 42.6028 77.8401 42.5193 77.9232C42.4566 77.8609 42.394 77.7986 42.3314 77.7155C42.2688 77.6324 42.1853 77.5701 42.1018 77.487C42.0183 77.404 41.9348 77.3209 41.8513 77.2378C41.7678 77.1547 41.7052 77.0717 41.6426 77.0094C42.4149 76.3448 43.2081 75.3894 44.0013 74.1641C44.7945 72.9388 45.5459 71.4434 46.2765 69.7197C46.36 69.782 46.4226 69.8443 46.5061 69.9273C46.5687 69.9896 46.6313 70.0519 46.7148 70.1143C46.7566 69.2835 46.8192 68.3697 46.9027 67.352C46.9862 66.3344 47.1114 65.2129 47.2784 63.9668C47.2993 63.9876 47.3619 64.0291 47.4663 64.1122C47.5706 64.1953 47.675 64.3199 47.8211 64.4445C47.9464 64.5691 48.0925 64.7145 48.2386 64.8806C48.3847 65.026 48.5308 65.1921 48.6561 65.3167C48.7813 65.4621 48.9066 65.5867 49.0109 65.6906C49.1153 65.7944 49.1779 65.8775 49.2197 65.919C49.1988 65.9606 49.1779 66.0644 49.157 66.2513C49.1153 66.4382 49.0735 66.6667 49.0318 66.9574C48.99 67.2482 48.9274 67.5805 48.8648 67.9543C48.8022 68.3282 48.7604 68.7228 48.6978 69.1381C48.6561 69.5535 48.6143 69.9896 48.5726 70.4258C48.5308 70.8619 48.51 71.298 48.51 71.7342C48.51 71.9211 48.51 72.1288 48.4891 72.3572C48.4891 72.5857 48.4891 72.8349 48.4891 73.0841C48.4891 73.3334 48.4891 73.5826 48.51 73.811C48.51 74.0603 48.5308 74.2679 48.5517 74.4549C48.5726 74.6418 48.5934 74.8079 48.6143 74.9325C48.6352 75.0571 48.6769 75.1194 48.7396 75.1402C48.8022 75.161 48.9483 75.0779 49.157 74.9118C49.3658 74.7456 49.6371 74.4964 49.9502 74.1641C50.2633 73.8318 50.5973 73.4372 50.973 72.9803C51.3487 72.5234 51.7036 71.9834 52.0376 71.4227C52.2046 70.7996 52.3507 70.2181 52.5177 69.6366C52.6847 69.0551 52.8308 68.5359 52.9769 68.0374C53.123 67.539 53.2691 67.1028 53.3943 66.729C53.5196 66.3344 53.6448 66.0229 53.7492 65.7737C53.8536 65.7737 53.9788 65.7944 54.104 65.7944C54.2293 65.7944 54.3754 65.8152 54.5215 65.836C54.6676 65.8567 54.7929 65.8567 54.8972 65.8775C55.0225 65.919 55.1268 65.919 55.2103 65.9398ZM61.8899 69.3874C62.0986 69.2212 62.2864 69.0135 62.4743 68.7851C62.6622 68.5359 62.8292 68.2866 62.9753 68.0166C63.1214 67.7467 63.2466 67.4767 63.3301 67.1859C63.4136 66.9159 63.4554 66.6459 63.4554 66.3967C63.4554 66.2098 63.4136 66.0436 63.3092 65.8983C63.2258 65.7736 63.0588 65.6906 62.8083 65.6906C62.5996 65.6906 62.3699 65.7321 62.1195 65.836C61.869 65.9398 61.6185 66.0644 61.368 66.2306C61.1175 66.3967 60.8671 66.5836 60.6166 66.8328C60.3661 67.0613 60.1574 67.3105 59.9695 67.5805C59.7816 67.8505 59.6355 68.1205 59.5312 68.432C59.4268 68.7228 59.3642 69.0343 59.3642 69.325C59.3642 69.5743 59.4059 69.8027 59.4685 69.9896C59.5312 70.1766 59.6146 70.3427 59.7399 70.4881C59.8651 70.6335 60.0112 70.7581 60.1782 70.8827C60.3452 71.0073 60.554 71.1319 60.7627 71.2565C60.0947 71.5265 59.4894 71.8796 58.9258 72.2949C58.3622 72.7103 57.8821 73.1464 57.4855 73.6241C57.089 74.1018 56.7759 74.5795 56.5462 75.0987C56.3166 75.5971 56.2123 76.0748 56.2123 76.5525C56.2123 76.7186 56.254 76.864 56.3375 76.9886C56.421 77.1132 56.5462 77.1755 56.7132 77.1755C56.9428 77.1755 57.1933 77.1132 57.4647 76.9886C57.736 76.864 58.0283 76.7186 58.3205 76.5109C58.6127 76.324 58.9049 76.0956 59.2181 75.8463C59.5103 75.5971 59.8025 75.3687 60.053 75.1194C60.3243 74.8702 60.554 74.6418 60.7627 74.4133C60.9714 74.1849 61.1384 73.9979 61.2636 73.8526C61.5768 74.1018 61.8481 74.3302 62.0986 74.5379C62.3282 74.7456 62.5578 74.9118 62.7457 75.0779C62.6622 75.2025 62.5161 75.3687 62.3073 75.5763C62.0986 75.784 61.8481 76.0333 61.5559 76.2617C61.2636 76.5109 60.9505 76.7601 60.6166 77.0094C60.2826 77.2586 59.9277 77.487 59.5729 77.6947C59.218 77.9024 58.8632 78.0686 58.5292 78.1932C58.1952 78.3178 57.8613 78.4009 57.5899 78.4009C57.3394 78.4009 57.089 78.3593 56.8385 78.2762C56.588 78.1932 56.3584 78.0893 56.1288 77.9439C55.8992 77.7986 55.7113 77.6532 55.5234 77.4663C55.3356 77.2794 55.1686 77.0924 55.0225 76.9055C54.8764 76.7186 54.772 76.5109 54.6885 76.324C54.605 76.1371 54.5633 75.9502 54.5633 75.784V75.5971C54.5633 75.0364 54.6676 74.5172 54.8555 74.0395C55.0434 73.541 55.3147 73.1049 55.6696 72.6895C56.0035 72.2742 56.4001 71.9003 56.8593 71.568C57.3186 71.2357 57.7987 70.945 58.3414 70.6958C58.237 70.5919 58.1535 70.4881 58.0491 70.3842C57.9656 70.2804 57.8821 70.1558 57.7987 70.0104C57.736 69.865 57.6734 69.7196 57.6317 69.5327C57.5899 69.3666 57.569 69.1589 57.569 68.9512C57.569 68.5774 57.6317 68.2243 57.7778 67.8713C57.903 67.5182 58.0909 67.1859 58.2996 66.8744C58.5292 66.5628 58.7797 66.2721 59.0719 66.0229C59.3642 65.7736 59.6773 65.5452 60.0112 65.3583C60.3452 65.1714 60.6792 65.026 61.034 64.9221C61.3889 64.8183 61.7229 64.756 62.0568 64.756C62.5995 64.756 62.9753 64.8183 63.2049 64.9221C63.3927 65.026 63.5806 65.1506 63.7893 65.3375C63.9981 65.5244 64.1859 65.7113 64.3738 65.919C64.5617 66.1267 64.7078 66.3552 64.833 66.5628C64.9583 66.7913 65.0209 66.9782 65.0209 67.1444C65.0209 67.4351 64.9791 67.7674 64.8748 68.0789C64.7704 68.3905 64.6451 68.7228 64.4782 69.0343C64.3112 69.3458 64.1233 69.6366 63.9146 69.9066C63.7058 70.1766 63.4971 70.405 63.2675 70.5919L61.8899 69.3874Z" fill="black"/>
<path d="M59.1972 0.207642H6.65864C5.07225 0.207642 3.79897 1.49528 3.79897 3.05292V55.3271C3.79897 56.9055 5.09313 58.1723 6.65864 58.1723H59.1763C60.7627 58.1723 62.036 56.8847 62.0568 55.3271V3.05292C62.0568 1.47452 60.7627 0.207642 59.1972 0.207642Z" fill="white"/>
<path d="M59.1763 58.3801H6.65864C4.96789 58.3801 3.59024 57.0093 3.59024 55.3271V3.05296C3.59024 1.37072 4.96789 0 6.65864 0H59.1972C60.8879 0 62.2656 1.37072 62.2656 3.05296V55.3271C62.2447 57.0093 60.867 58.3801 59.1763 58.3801ZM6.65864 0.415369C5.1975 0.415369 4.00771 1.59917 4.00771 3.05296V55.3271C4.00771 56.7809 5.1975 57.9647 6.65864 57.9647H59.1763C60.6374 57.9647 61.8272 56.7809 61.8481 55.3271V3.05296C61.8481 1.59917 60.6583 0.415369 59.1972 0.415369H6.65864Z" fill="#E6E6E6"/>
<path d="M60.8879 1.39148H5.00964V56.9886H60.8879V1.39148Z" fill="white"/>
<path opacity="0.25" d="M28.4923 6.9574H26.6972V8.74348H28.4923V6.9574Z" fill="black"/>
<path opacity="0.25" d="M37.4261 6.9574H35.631V8.74348H37.4261V6.9574Z" fill="black"/>
<path opacity="0.25" d="M40.9955 6.9574H39.2004V8.74348H40.9955V6.9574Z" fill="black"/>
<path opacity="0.25" d="M26.6972 8.72278H24.9021V10.5089H26.6972V8.72278Z" fill="black"/>
<path opacity="0.25" d="M28.4923 8.72278H26.6972V10.5089H28.4923V8.72278Z" fill="black"/>
<path opacity="0.25" d="M32.0617 8.72278H30.2665V10.5089H32.0617V8.72278Z" fill="black"/>
<path opacity="0.25" d="M33.8568 8.72278H32.0617V10.5089H33.8568V8.72278Z" fill="black"/>
<path opacity="0.25" d="M35.631 8.72278H33.8359V10.5089H35.631V8.72278Z" fill="black"/>
<path opacity="0.25" d="M37.4261 8.72278H35.631V10.5089H37.4261V8.72278Z" fill="black"/>
<path opacity="0.25" d="M28.4923 10.5088H26.6972V12.2949H28.4923V10.5088Z" fill="black"/>
<path opacity="0.25" d="M30.2665 10.5088H28.4714V12.2949H30.2665V10.5088Z" fill="black"/>
<path opacity="0.25" d="M32.0617 10.5088H30.2665V12.2949H32.0617V10.5088Z" fill="black"/>
<path opacity="0.25" d="M26.6972 12.2949H24.9021V14.081H26.6972V12.2949Z" fill="black"/>
<path opacity="0.25" d="M28.4923 12.2949H26.6972V14.081H28.4923V12.2949Z" fill="black"/>
<path opacity="0.25" d="M32.0617 12.2949H30.2665V14.081H32.0617V12.2949Z" fill="black"/>
<path opacity="0.25" d="M35.631 12.2949H33.8359V14.081H35.631V12.2949Z" fill="black"/>
<path opacity="0.25" d="M39.2213 12.2949H37.4261V14.081H39.2213V12.2949Z" fill="black"/>
<path opacity="0.25" d="M40.9955 12.2949H39.2004V14.081H40.9955V12.2949Z" fill="black"/>
<path opacity="0.25" d="M30.2665 14.0603H28.4714V15.8464H30.2665V14.0603Z" fill="black"/>
<path opacity="0.25" d="M33.8568 14.0603H32.0617V15.8464H33.8568V14.0603Z" fill="black"/>
<path opacity="0.25" d="M39.2213 14.0603H37.4261V15.8464H39.2213V14.0603Z" fill="black"/>
<path opacity="0.25" d="M40.9955 14.0603H39.2004V15.8464H40.9955V14.0603Z" fill="black"/>
<path opacity="0.25" d="M26.6972 15.8463H24.9021V17.6324H26.6972V15.8463Z" fill="black"/>
<path opacity="0.25" d="M30.2665 15.8463H28.4714V17.6324H30.2665V15.8463Z" fill="black"/>
<path opacity="0.25" d="M35.631 15.8463H33.8359V17.6324H35.631V15.8463Z" fill="black"/>
<path opacity="0.25" d="M37.4261 15.8463H35.631V17.6324H37.4261V15.8463Z" fill="black"/>
<path opacity="0.25" d="M39.2213 15.8463H37.4261V17.6324H39.2213V15.8463Z" fill="black"/>
<path opacity="0.25" d="M26.6972 17.6323H24.9021V19.4184H26.6972V17.6323Z" fill="black"/>
<path opacity="0.25" d="M30.2665 17.6323H28.4714V19.4184H30.2665V17.6323Z" fill="black"/>
<path opacity="0.25" d="M33.8568 17.6323H32.0617V19.4184H33.8568V17.6323Z" fill="black"/>
<path opacity="0.25" d="M37.4261 17.6323H35.631V19.4184H37.4261V17.6323Z" fill="black"/>
<path opacity="0.25" d="M40.9955 17.6323H39.2004V19.4184H40.9955V17.6323Z" fill="black"/>
<path opacity="0.25" d="M33.8568 19.3977H32.0617V21.1838H33.8568V19.3977Z" fill="black"/>
<path opacity="0.25" d="M40.9955 19.3977H39.2004V21.1838H40.9955V19.3977Z" fill="black"/>
<path opacity="0.25" d="M12.3988 21.1838H10.6037V22.9699H12.3988V21.1838Z" fill="black"/>
<path opacity="0.25" d="M14.1731 21.1838H12.378V22.9699H14.1731V21.1838Z" fill="black"/>
<path opacity="0.25" d="M15.9682 21.1838H14.1731V22.9699H15.9682V21.1838Z" fill="black"/>
<path opacity="0.25" d="M17.7633 21.1838H15.9682V22.9699H17.7633V21.1838Z" fill="black"/>
<path opacity="0.25" d="M19.5376 21.1838H17.7424V22.9699H19.5376V21.1838Z" fill="black"/>
<path opacity="0.25" d="M23.1278 21.1838H21.3327V22.9699H23.1278V21.1838Z" fill="black"/>
<path opacity="0.25" d="M24.9021 21.1838H23.1069V22.9699H24.9021V21.1838Z" fill="black"/>
<path opacity="0.25" d="M26.6972 21.1838H24.9021V22.9699H26.6972V21.1838Z" fill="black"/>
<path opacity="0.25" d="M28.4923 21.1838H26.6972V22.9699H28.4923V21.1838Z" fill="black"/>
<path opacity="0.25" d="M30.2665 21.1838H28.4714V22.9699H30.2665V21.1838Z" fill="black"/>
<path opacity="0.25" d="M33.8568 21.1838H32.0617V22.9699H33.8568V21.1838Z" fill="black"/>
<path opacity="0.25" d="M35.631 21.1838H33.8359V22.9699H35.631V21.1838Z" fill="black"/>
<path opacity="0.25" d="M39.2213 21.1838H37.4261V22.9699H39.2213V21.1838Z" fill="black"/>
<path opacity="0.25" d="M42.7906 21.1838H40.9955V22.9699H42.7906V21.1838Z" fill="black"/>
<path opacity="0.25" d="M46.36 21.1838H44.5649V22.9699H46.36V21.1838Z" fill="black"/>
<path opacity="0.25" d="M49.9502 21.1838H48.1551V22.9699H49.9502V21.1838Z" fill="black"/>
<path opacity="0.25" d="M53.5196 21.1838H51.7245V22.9699H53.5196V21.1838Z" fill="black"/>
<path opacity="0.25" d="M17.7633 22.9698H15.9682V24.7559H17.7633V22.9698Z" fill="black"/>
<path opacity="0.25" d="M28.4923 22.9698H26.6972V24.7559H28.4923V22.9698Z" fill="black"/>
<path opacity="0.25" d="M39.2213 22.9698H37.4261V24.7559H39.2213V22.9698Z" fill="black"/>
<path opacity="0.25" d="M40.9955 22.9698H39.2004V24.7559H40.9955V22.9698Z" fill="black"/>
<path opacity="0.25" d="M42.7906 22.9698H40.9955V24.7559H42.7906V22.9698Z" fill="black"/>
<path opacity="0.25" d="M46.36 22.9698H44.5649V24.7559H46.36V22.9698Z" fill="black"/>
<path opacity="0.25" d="M48.1551 22.9698H46.36V24.7559H48.1551V22.9698Z" fill="black"/>
<path opacity="0.25" d="M55.3147 22.9698H53.5196V24.7559H55.3147V22.9698Z" fill="black"/>
<path opacity="0.25" d="M15.9682 24.7352H14.1731V26.5213H15.9682V24.7352Z" fill="black"/>
<path opacity="0.25" d="M21.3327 24.7352H19.5376V26.5213H21.3327V24.7352Z" fill="black"/>
<path opacity="0.25" d="M23.1278 24.7352H21.3327V26.5213H23.1278V24.7352Z" fill="black"/>
<path opacity="0.25" d="M24.9021 24.7352H23.1069V26.5213H24.9021V24.7352Z" fill="black"/>
<path opacity="0.25" d="M28.4923 24.7352H26.6972V26.5213H28.4923V24.7352Z" fill="black"/>
<path opacity="0.25" d="M32.0617 24.7352H30.2665V26.5213H32.0617V24.7352Z" fill="black"/>
<path opacity="0.25" d="M33.8568 24.7352H32.0617V26.5213H33.8568V24.7352Z" fill="black"/>
<path opacity="0.25" d="M35.631 24.7352H33.8359V26.5213H35.631V24.7352Z" fill="black"/>
<path opacity="0.25" d="M37.4261 24.7352H35.631V26.5213H37.4261V24.7352Z" fill="black"/>
<path opacity="0.25" d="M39.2213 24.7352H37.4261V26.5213H39.2213V24.7352Z" fill="black"/>
<path opacity="0.25" d="M42.7906 24.7352H40.9955V26.5213H42.7906V24.7352Z" fill="black"/>
<path opacity="0.25" d="M44.5857 24.7352H42.7906V26.5213H44.5857V24.7352Z" fill="black"/>
<path opacity="0.25" d="M48.1551 24.7352H46.36V26.5213H48.1551V24.7352Z" fill="black"/>
<path opacity="0.25" d="M51.7245 24.7352H49.9294V26.5213H51.7245V24.7352Z" fill="black"/>
<path opacity="0.25" d="M12.3988 26.5214H10.6037V28.3074H12.3988V26.5214Z" fill="black"/>
<path opacity="0.25" d="M15.9682 26.5214H14.1731V28.3074H15.9682V26.5214Z" fill="black"/>
<path opacity="0.25" d="M17.7633 26.5214H15.9682V28.3074H17.7633V26.5214Z" fill="black"/>
<path opacity="0.25" d="M19.5376 26.5214H17.7424V28.3074H19.5376V26.5214Z" fill="black"/>
<path opacity="0.25" d="M21.3327 26.5214H19.5376V28.3074H21.3327V26.5214Z" fill="black"/>
<path opacity="0.25" d="M24.9021 26.5214H23.1069V28.3074H24.9021V26.5214Z" fill="black"/>
<path opacity="0.25" d="M26.6972 26.5214H24.9021V28.3074H26.6972V26.5214Z" fill="black"/>
<path opacity="0.25" d="M28.4923 26.5214H26.6972V28.3074H28.4923V26.5214Z" fill="black"/>
<path opacity="0.25" d="M30.2665 26.5214H28.4714V28.3074H30.2665V26.5214Z" fill="black"/>
<path opacity="0.25" d="M32.0617 26.5214H30.2665V28.3074H32.0617V26.5214Z" fill="black"/>
<path opacity="0.25" d="M37.4261 26.5214H35.631V28.3074H37.4261V26.5214Z" fill="black"/>
<path opacity="0.25" d="M40.9955 26.5214H39.2004V28.3074H40.9955V26.5214Z" fill="black"/>
<path opacity="0.25" d="M42.7906 26.5214H40.9955V28.3074H42.7906V26.5214Z" fill="black"/>
<path opacity="0.25" d="M12.3988 28.3074H10.6037V30.0935H12.3988V28.3074Z" fill="black"/>
<path opacity="0.25" d="M17.7633 28.3074H15.9682V30.0935H17.7633V28.3074Z" fill="black"/>
<path opacity="0.25" d="M23.1278 28.3074H21.3327V30.0935H23.1278V28.3074Z" fill="black"/>
<path opacity="0.25" d="M28.4923 28.3074H26.6972V30.0935H28.4923V28.3074Z" fill="black"/>
<path opacity="0.25" d="M32.0617 28.3074H30.2665V30.0935H32.0617V28.3074Z" fill="black"/>
<path opacity="0.25" d="M35.631 28.3074H33.8359V30.0935H35.631V28.3074Z" fill="black"/>
<path opacity="0.25" d="M39.2213 28.3074H37.4261V30.0935H39.2213V28.3074Z" fill="black"/>
<path opacity="0.25" d="M44.5857 28.3074H42.7906V30.0935H44.5857V28.3074Z" fill="black"/>
<path opacity="0.25" d="M46.36 28.3074H44.5649V30.0935H46.36V28.3074Z" fill="black"/>
<path opacity="0.25" d="M48.1551 28.3074H46.36V30.0935H48.1551V28.3074Z" fill="black"/>
<path opacity="0.25" d="M49.9502 28.3074H48.1551V30.0935H49.9502V28.3074Z" fill="black"/>
<path opacity="0.25" d="M53.5196 28.3074H51.7245V30.0935H53.5196V28.3074Z" fill="black"/>
<path opacity="0.25" d="M55.3147 28.3074H53.5196V30.0935H55.3147V28.3074Z" fill="black"/>
<path opacity="0.25" d="M12.3988 30.0726H10.6037V31.8587H12.3988V30.0726Z" fill="black"/>
<path opacity="0.25" d="M14.1731 30.0726H12.378V31.8587H14.1731V30.0726Z" fill="black"/>
<path opacity="0.25" d="M17.7633 30.0726H15.9682V31.8587H17.7633V30.0726Z" fill="black"/>
<path opacity="0.25" d="M24.9021 30.0726H23.1069V31.8587H24.9021V30.0726Z" fill="black"/>
<path opacity="0.25" d="M30.2665 30.0726H28.4714V31.8587H30.2665V30.0726Z" fill="black"/>
<path opacity="0.25" d="M33.8568 30.0726H32.0617V31.8587H33.8568V30.0726Z" fill="black"/>
<path opacity="0.25" d="M37.4261 30.0726H35.631V31.8587H37.4261V30.0726Z" fill="black"/>
<path opacity="0.25" d="M40.9955 30.0726H39.2004V31.8587H40.9955V30.0726Z" fill="black"/>
<path opacity="0.25" d="M42.7906 30.0726H40.9955V31.8587H42.7906V30.0726Z" fill="black"/>
<path opacity="0.25" d="M44.5857 30.0726H42.7906V31.8587H44.5857V30.0726Z" fill="black"/>
<path opacity="0.25" d="M46.36 30.0726H44.5649V31.8587H46.36V30.0726Z" fill="black"/>
<path opacity="0.25" d="M48.1551 30.0726H46.36V31.8587H48.1551V30.0726Z" fill="black"/>
<path opacity="0.25" d="M12.3988 31.8588H10.6037V33.6449H12.3988V31.8588Z" fill="black"/>
<path opacity="0.25" d="M15.9682 31.8588H14.1731V33.6449H15.9682V31.8588Z" fill="black"/>
<path opacity="0.25" d="M17.7633 31.8588H15.9682V33.6449H17.7633V31.8588Z" fill="black"/>
<path opacity="0.25" d="M19.5376 31.8588H17.7424V33.6449H19.5376V31.8588Z" fill="black"/>
<path opacity="0.25" d="M23.1278 31.8588H21.3327V33.6449H23.1278V31.8588Z" fill="black"/>
<path opacity="0.25" d="M24.9021 31.8588H23.1069V33.6449H24.9021V31.8588Z" fill="black"/>
<path opacity="0.25" d="M35.631 31.8588H33.8359V33.6449H35.631V31.8588Z" fill="black"/>
<path opacity="0.25" d="M42.7906 31.8588H40.9955V33.6449H42.7906V31.8588Z" fill="black"/>
<path opacity="0.25" d="M44.5857 31.8588H42.7906V33.6449H44.5857V31.8588Z" fill="black"/>
<path opacity="0.25" d="M48.1551 31.8588H46.36V33.6449H48.1551V31.8588Z" fill="black"/>
<path opacity="0.25" d="M51.7245 31.8588H49.9294V33.6449H51.7245V31.8588Z" fill="black"/>
<path opacity="0.25" d="M53.5196 31.8588H51.7245V33.6449H53.5196V31.8588Z" fill="black"/>
<path opacity="0.25" d="M55.3147 31.8588H53.5196V33.6449H55.3147V31.8588Z" fill="black"/>
<path opacity="0.25" d="M12.3988 33.6449H10.6037V35.431H12.3988V33.6449Z" fill="black"/>
<path opacity="0.25" d="M17.7633 33.6449H15.9682V35.431H17.7633V33.6449Z" fill="black"/>
<path opacity="0.25" d="M21.3327 33.6449H19.5376V35.431H21.3327V33.6449Z" fill="black"/>
<path opacity="0.25" d="M28.4923 33.6449H26.6972V35.431H28.4923V33.6449Z" fill="black"/>
<path opacity="0.25" d="M30.2665 33.6449H28.4714V35.431H30.2665V33.6449Z" fill="black"/>
<path opacity="0.25" d="M33.8568 33.6449H32.0617V35.431H33.8568V33.6449Z" fill="black"/>
<path opacity="0.25" d="M35.631 33.6449H33.8359V35.431H35.631V33.6449Z" fill="black"/>
<path opacity="0.25" d="M37.4261 33.6449H35.631V35.431H37.4261V33.6449Z" fill="black"/>
<path opacity="0.25" d="M42.7906 33.6449H40.9955V35.431H42.7906V33.6449Z" fill="black"/>
<path opacity="0.25" d="M53.5196 33.6449H51.7245V35.431H53.5196V33.6449Z" fill="black"/>
<path opacity="0.25" d="M55.3147 33.6449H53.5196V35.431H55.3147V33.6449Z" fill="black"/>
<path opacity="0.25" d="M12.3988 35.4102H10.6037V37.1962H12.3988V35.4102Z" fill="black"/>
<path opacity="0.25" d="M23.1278 35.4102H21.3327V37.1962H23.1278V35.4102Z" fill="black"/>
<path opacity="0.25" d="M30.2665 35.4102H28.4714V37.1962H30.2665V35.4102Z" fill="black"/>
<path opacity="0.25" d="M33.8568 35.4102H32.0617V37.1962H33.8568V35.4102Z" fill="black"/>
<path opacity="0.25" d="M39.2213 35.4102H37.4261V37.1962H39.2213V35.4102Z" fill="black"/>
<path opacity="0.25" d="M40.9955 35.4102H39.2004V37.1962H40.9955V35.4102Z" fill="black"/>
<path opacity="0.25" d="M42.7906 35.4102H40.9955V37.1962H42.7906V35.4102Z" fill="black"/>
<path opacity="0.25" d="M44.5857 35.4102H42.7906V37.1962H44.5857V35.4102Z" fill="black"/>
<path opacity="0.25" d="M46.36 35.4102H44.5649V37.1962H46.36V35.4102Z" fill="black"/>
<path opacity="0.25" d="M48.1551 35.4102H46.36V37.1962H48.1551V35.4102Z" fill="black"/>
<path opacity="0.25" d="M49.9502 35.4102H48.1551V37.1962H49.9502V35.4102Z" fill="black"/>
<path opacity="0.25" d="M55.3147 35.4102H53.5196V37.1962H55.3147V35.4102Z" fill="black"/>
<path opacity="0.25" d="M26.6972 37.1963H24.9021V38.9824H26.6972V37.1963Z" fill="black"/>
<path opacity="0.25" d="M30.2665 37.1963H28.4714V38.9824H30.2665V37.1963Z" fill="black"/>
<path opacity="0.25" d="M37.4261 37.1963H35.631V38.9824H37.4261V37.1963Z" fill="black"/>
<path opacity="0.25" d="M40.9955 37.1963H39.2004V38.9824H40.9955V37.1963Z" fill="black"/>
<path opacity="0.25" d="M48.1551 37.1963H46.36V38.9824H48.1551V37.1963Z" fill="black"/>
<path opacity="0.25" d="M55.3147 37.1963H53.5196V38.9824H55.3147V37.1963Z" fill="black"/>
<path opacity="0.25" d="M26.6972 38.9824H24.9021V40.7685H26.6972V38.9824Z" fill="black"/>
<path opacity="0.25" d="M28.4923 38.9824H26.6972V40.7685H28.4923V38.9824Z" fill="black"/>
<path opacity="0.25" d="M30.2665 38.9824H28.4714V40.7685H30.2665V38.9824Z" fill="black"/>
<path opacity="0.25" d="M32.0617 38.9824H30.2665V40.7685H32.0617V38.9824Z" fill="black"/>
<path opacity="0.25" d="M33.8568 38.9824H32.0617V40.7685H33.8568V38.9824Z" fill="black"/>
<path opacity="0.25" d="M37.4261 38.9824H35.631V40.7685H37.4261V38.9824Z" fill="black"/>
<path opacity="0.25" d="M40.9955 38.9824H39.2004V40.7685H40.9955V38.9824Z" fill="black"/>
<path opacity="0.25" d="M44.5857 38.9824H42.7906V40.7685H44.5857V38.9824Z" fill="black"/>
<path opacity="0.25" d="M48.1551 38.9824H46.36V40.7685H48.1551V38.9824Z" fill="black"/>
<path opacity="0.25" d="M51.7245 38.9824H49.9294V40.7685H51.7245V38.9824Z" fill="black"/>
<path opacity="0.25" d="M53.5196 38.9824H51.7245V40.7685H53.5196V38.9824Z" fill="black"/>
<path opacity="0.25" d="M55.3147 38.9824H53.5196V40.7685H55.3147V38.9824Z" fill="black"/>
<path opacity="0.25" d="M28.4923 40.7477H26.6972V42.5338H28.4923V40.7477Z" fill="black"/>
<path opacity="0.25" d="M30.2665 40.7477H28.4714V42.5338H30.2665V40.7477Z" fill="black"/>
<path opacity="0.25" d="M32.0617 40.7477H30.2665V42.5338H32.0617V40.7477Z" fill="black"/>
<path opacity="0.25" d="M37.4261 40.7477H35.631V42.5338H37.4261V40.7477Z" fill="black"/>
<path opacity="0.25" d="M40.9955 40.7477H39.2004V42.5338H40.9955V40.7477Z" fill="black"/>
<path opacity="0.25" d="M48.1551 40.7477H46.36V42.5338H48.1551V40.7477Z" fill="black"/>
<path opacity="0.25" d="M49.9502 40.7477H48.1551V42.5338H49.9502V40.7477Z" fill="black"/>
<path opacity="0.25" d="M26.6972 42.5337H24.9021V44.3198H26.6972V42.5337Z" fill="black"/>
<path opacity="0.25" d="M28.4923 42.5337H26.6972V44.3198H28.4923V42.5337Z" fill="black"/>
<path opacity="0.25" d="M32.0617 42.5337H30.2665V44.3198H32.0617V42.5337Z" fill="black"/>
<path opacity="0.25" d="M33.8568 42.5337H32.0617V44.3198H33.8568V42.5337Z" fill="black"/>
<path opacity="0.25" d="M35.631 42.5337H33.8359V44.3198H35.631V42.5337Z" fill="black"/>
<path opacity="0.25" d="M40.9955 42.5337H39.2004V44.3198H40.9955V42.5337Z" fill="black"/>
<path opacity="0.25" d="M42.7906 42.5337H40.9955V44.3198H42.7906V42.5337Z" fill="black"/>
<path opacity="0.25" d="M44.5857 42.5337H42.7906V44.3198H44.5857V42.5337Z" fill="black"/>
<path opacity="0.25" d="M46.36 42.5337H44.5649V44.3198H46.36V42.5337Z" fill="black"/>
<path opacity="0.25" d="M48.1551 42.5337H46.36V44.3198H48.1551V42.5337Z" fill="black"/>
<path opacity="0.25" d="M49.9502 42.5337H48.1551V44.3198H49.9502V42.5337Z" fill="black"/>
<path opacity="0.25" d="M26.6972 44.3198H24.9021V46.1059H26.6972V44.3198Z" fill="black"/>
<path opacity="0.25" d="M28.4923 44.3198H26.6972V46.1059H28.4923V44.3198Z" fill="black"/>
<path opacity="0.25" d="M30.2665 44.3198H28.4714V46.1059H30.2665V44.3198Z" fill="black"/>
<path opacity="0.25" d="M33.8568 44.3198H32.0617V46.1059H33.8568V44.3198Z" fill="black"/>
<path opacity="0.25" d="M39.2213 44.3198H37.4261V46.1059H39.2213V44.3198Z" fill="black"/>
<path opacity="0.25" d="M40.9955 44.3198H39.2004V46.1059H40.9955V44.3198Z" fill="black"/>
<path opacity="0.25" d="M44.5857 44.3198H42.7906V46.1059H44.5857V44.3198Z" fill="black"/>
<path opacity="0.25" d="M48.1551 44.3198H46.36V46.1059H48.1551V44.3198Z" fill="black"/>
<path opacity="0.25" d="M53.5196 44.3198H51.7245V46.1059H53.5196V44.3198Z" fill="black"/>
<path opacity="0.25" d="M55.3147 44.3198H53.5196V46.1059H55.3147V44.3198Z" fill="black"/>
<path opacity="0.25" d="M26.6972 46.0851H24.9021V47.8712H26.6972V46.0851Z" fill="black"/>
<path opacity="0.25" d="M28.4923 46.0851H26.6972V47.8712H28.4923V46.0851Z" fill="black"/>
<path opacity="0.25" d="M33.8568 46.0851H32.0617V47.8712H33.8568V46.0851Z" fill="black"/>
<path opacity="0.25" d="M35.631 46.0851H33.8359V47.8712H35.631V46.0851Z" fill="black"/>
<path opacity="0.25" d="M37.4261 46.0851H35.631V47.8712H37.4261V46.0851Z" fill="black"/>
<path opacity="0.25" d="M48.1551 46.0851H46.36V47.8712H48.1551V46.0851Z" fill="black"/>
<path opacity="0.25" d="M51.7245 46.0851H49.9294V47.8712H51.7245V46.0851Z" fill="black"/>
<path opacity="0.25" d="M55.3147 46.0851H53.5196V47.8712H55.3147V46.0851Z" fill="black"/>
<path opacity="0.25" d="M26.6972 47.8712H24.9021V49.6573H26.6972V47.8712Z" fill="black"/>
<path opacity="0.25" d="M28.4923 47.8712H26.6972V49.6573H28.4923V47.8712Z" fill="black"/>
<path opacity="0.25" d="M30.2665 47.8712H28.4714V49.6573H30.2665V47.8712Z" fill="black"/>
<path opacity="0.25" d="M33.8568 47.8712H32.0617V49.6573H33.8568V47.8712Z" fill="black"/>
<path opacity="0.25" d="M35.631 47.8712H33.8359V49.6573H35.631V47.8712Z" fill="black"/>
<path opacity="0.25" d="M40.9955 47.8712H39.2004V49.6573H40.9955V47.8712Z" fill="black"/>
<path opacity="0.25" d="M42.7906 47.8712H40.9955V49.6573H42.7906V47.8712Z" fill="black"/>
<path opacity="0.25" d="M44.5857 47.8712H42.7906V49.6573H44.5857V47.8712Z" fill="black"/>
<path opacity="0.25" d="M46.36 47.8712H44.5649V49.6573H46.36V47.8712Z" fill="black"/>
<path opacity="0.25" d="M48.1551 47.8712H46.36V49.6573H48.1551V47.8712Z" fill="black"/>
<path opacity="0.25" d="M49.9502 47.8712H48.1551V49.6573H49.9502V47.8712Z" fill="black"/>
<path opacity="0.25" d="M53.5196 47.8712H51.7245V49.6573H53.5196V47.8712Z" fill="black"/>
<path opacity="0.25" d="M26.6972 49.6573H24.9021V51.4435H26.6972V49.6573Z" fill="black"/>
<path opacity="0.25" d="M35.631 49.6573H33.8359V51.4435H35.631V49.6573Z" fill="black"/>
<path opacity="0.25" d="M39.2213 49.6573H37.4261V51.4435H39.2213V49.6573Z" fill="black"/>
<path opacity="0.25" d="M51.7245 49.6573H49.9294V51.4435H51.7245V49.6573Z" fill="black"/>
<path opacity="0.25" d="M53.5196 49.6573H51.7245V51.4435H53.5196V49.6573Z" fill="black"/>
<path opacity="0.25" d="M55.3147 49.6573H53.5196V51.4435H55.3147V49.6573Z" fill="black"/>
<path opacity="0.25" d="M10.9794 6.95741C10.7707 6.95741 10.6037 7.12356 10.6037 7.33125V8.72273V10.5088V12.2949V14.081V15.8671V17.6532V19.0654C10.6037 19.2731 10.7707 19.4392 10.9794 19.4392H22.7312C22.9399 19.4392 23.1069 19.2731 23.1069 19.0654V17.6532V15.8671V14.081V12.2949V10.5088V8.72273V7.31048C23.1069 7.10279 22.9399 6.93665 22.7312 6.93665C22.7312 6.95741 10.9794 6.95741 10.9794 6.95741ZM21.3327 10.5088V12.2949V14.081V15.8671V17.4247C21.3327 17.5493 21.2283 17.6324 21.124 17.6324H12.6076C12.4823 17.6324 12.3988 17.5285 12.3988 17.4247V15.8671V14.081V12.2949V10.5088V8.95118C12.3988 8.82657 12.5032 8.7435 12.6076 8.7435H21.1031C21.2283 8.7435 21.3118 8.84734 21.3118 8.95118V10.5088H21.3327Z" fill="black"/>
<path opacity="0.25" d="M19.5376 14.0602V12.2741V10.8619C19.5376 10.6542 19.3706 10.488 19.1619 10.488H14.5488C14.3401 10.488 14.1731 10.6542 14.1731 10.8619V12.2741V14.0602V15.4725C14.1731 15.6801 14.3401 15.8463 14.5488 15.8463H19.1619C19.3706 15.8463 19.5376 15.6801 19.5376 15.4725V14.0602Z" fill="black"/>
<path opacity="0.25" d="M43.1663 6.95741C42.9576 6.95741 42.7906 7.12356 42.7906 7.33125V8.72273V10.5088V12.2949V14.081V15.8671V17.6532V19.0654C42.7906 19.2731 42.9576 19.4392 43.1663 19.4392H54.9181C55.1268 19.4392 55.2938 19.2731 55.2938 19.0654V17.6532V15.8671V14.081V12.2949V10.5088V8.72273V7.31048C55.2938 7.10279 55.1268 6.93665 54.9181 6.93665C54.9181 6.95741 43.1663 6.95741 43.1663 6.95741ZM53.5196 10.5088V12.2949V14.081V15.8671V17.4247C53.5196 17.5493 53.4152 17.6324 53.3109 17.6324H44.8153C44.6901 17.6324 44.6066 17.5285 44.6066 17.4247V15.8671V14.081V12.2949V10.5088V8.95118C44.6066 8.82657 44.711 8.7435 44.8153 8.7435H53.3109C53.4361 8.7435 53.5196 8.84734 53.5196 8.95118V10.5088Z" fill="black"/>
<path opacity="0.25" d="M51.7245 14.0602V12.2741V10.8619C51.7245 10.6542 51.5575 10.488 51.3487 10.488H46.7357C46.527 10.488 46.36 10.6542 46.36 10.8619V12.2741V14.0602V15.4725C46.36 15.6801 46.527 15.8463 46.7357 15.8463H51.3487C51.5575 15.8463 51.7245 15.6801 51.7245 15.4725V14.0602Z" fill="black"/>
<path opacity="0.25" d="M10.9794 38.9824C10.7707 38.9824 10.6037 39.1486 10.6037 39.3563V40.7685V42.5546V44.3407V46.1268V47.9129V49.6989V51.1112C10.6037 51.3189 10.7707 51.485 10.9794 51.485H22.7312C22.9399 51.485 23.1069 51.3189 23.1069 51.1112V49.6989V47.9129V46.1268V44.3407V42.5546V40.7685V39.3563C23.1069 39.1486 22.9399 38.9824 22.7312 38.9824H10.9794ZM21.3327 42.5338V44.3199V46.106V47.8921V49.4497C21.3327 49.5743 21.2283 49.6574 21.124 49.6574H12.6076C12.4823 49.6574 12.3988 49.5536 12.3988 49.4497V47.8921V46.106V44.3199V42.5338V40.9762C12.3988 40.8516 12.5032 40.7685 12.6076 40.7685H21.1031C21.2283 40.7685 21.3118 40.8724 21.3118 40.9762V42.5338H21.3327Z" fill="black"/>
<path opacity="0.25" d="M19.5376 46.0852V44.2992V42.8869C19.5376 42.6792 19.3706 42.5131 19.1619 42.5131H14.5488C14.3401 42.5131 14.1731 42.6792 14.1731 42.8869V44.2992V46.0852V47.4975C14.1731 47.7052 14.3401 47.8713 14.5488 47.8713H19.1619C19.3706 47.8713 19.5376 47.7052 19.5376 47.4975V46.0852Z" fill="black"/>
</g>
<defs>
<clipPath id="clip0">
<rect width="65" height="80" fill="white"/>
</clipPath>
</defs>
</svg>
