<svg width="63" height="80" viewBox="0 0 63 80" fill="none" xmlns="http://www.w3.org/2000/svg">
<path d="M60.2209 80H2.77908C1.25507 80 0 78.8063 0 77.3088V63.2665H25.953L31.0854 59.5334C31.3319 59.3598 31.6681 59.3598 31.9146 59.5334L37.047 63.2665H63V77.3088C63 78.8063 61.7673 80 60.2209 80Z" fill="black"/>
<path d="M15.1931 73.606C15.1931 74.1964 14.9734 74.663 14.5319 75.0016C14.0904 75.3402 13.4785 75.5116 12.6919 75.5116C11.8604 75.5116 11.2194 75.4053 10.7667 75.1926V74.3765C11.0648 74.5002 11.3897 74.5979 11.7416 74.6695C12.0935 74.7411 12.4252 74.7759 12.73 74.7759C13.2544 74.7759 13.6489 74.6782 13.9133 74.4829C14.1778 74.2875 14.31 74.0206 14.31 73.6798C14.31 73.4541 14.263 73.2675 14.1666 73.122C14.0702 72.9766 13.9111 72.8399 13.6847 72.714C13.4584 72.5881 13.1177 72.4427 12.6627 72.2821C12.015 72.0542 11.5511 71.7829 11.2732 71.4726C10.9953 71.1622 10.8563 70.7607 10.8563 70.268C10.8563 69.7384 11.0625 69.3174 11.4727 69.007C11.8828 68.6945 12.4229 68.5382 13.0953 68.5382C13.7945 68.5382 14.4378 68.6641 15.025 68.918L14.7515 69.6516C14.1509 69.4107 13.5928 69.2892 13.0751 69.2892C12.6605 69.2892 12.3355 69.376 12.1002 69.5496C11.8649 69.7232 11.7483 69.9663 11.7483 70.2788C11.7483 70.5024 11.7932 70.6869 11.885 70.8323C11.9769 70.9799 12.1226 71.1123 12.3266 71.2338C12.5305 71.3554 12.8488 71.4921 13.2813 71.6462C13.8013 71.8328 14.189 72.013 14.4445 72.1866C14.7 72.3624 14.8883 72.5621 15.0093 72.79C15.1325 73.02 15.1931 73.2913 15.1931 73.606ZM19.606 69.2913C18.8529 69.2913 18.259 69.5366 17.8287 70.0249C17.3984 70.5133 17.181 71.1817 17.181 72.0282C17.181 72.9028 17.3894 73.5778 17.8085 74.0531C18.2276 74.5285 18.8215 74.765 19.5948 74.765C20.0923 74.765 20.6526 74.676 21.2757 74.4959V75.2382C20.9776 75.3423 20.6929 75.4161 20.4173 75.453C20.1416 75.4921 19.8256 75.5116 19.4693 75.5116C18.4383 75.5116 17.6427 75.2078 17.0869 74.6001C16.5288 73.9924 16.2509 73.1307 16.2509 72.0173C16.2509 71.3185 16.3831 70.7064 16.6498 70.1812C16.9165 69.6559 17.3043 69.2501 17.813 68.9658C18.3218 68.6815 18.9224 68.5382 19.6127 68.5382C20.3545 68.5382 20.9977 68.6706 21.5491 68.9376L21.195 69.6603C20.6369 69.415 20.108 69.2913 19.606 69.2913ZM27.1991 75.4205L26.3564 73.3196H23.5774L22.7436 75.4205H21.8516L24.5881 68.6098H25.3838L28.1135 75.4205H27.1991ZM26.092 72.5621L25.3053 70.5067L24.9691 69.491C24.8728 69.8621 24.7719 70.2007 24.6666 70.5067L23.871 72.5621H26.092ZM34.6287 75.4205H33.5977L29.846 69.7883H29.8079L29.8325 70.1638C29.8706 70.7259 29.8908 71.2165 29.8908 71.6288V75.4183H29.0773V68.6359H30.097L30.3122 68.9658L32.6116 72.408L33.8331 74.2506H33.8712C33.8645 74.1768 33.851 73.9121 33.8331 73.4541C33.8129 72.9983 33.8039 72.6684 33.8039 72.4644V68.6359H34.6287V75.4205ZM42.1703 75.4205L39.8619 69.4736H39.8238C39.8709 69.9685 39.8955 70.5784 39.8955 71.3054V75.4205H39.082V68.638H40.3841L42.5446 74.1964H42.5827L44.7813 68.638H46.0745V75.4205H45.2027V71.249C45.2027 70.7845 45.2251 70.1964 45.2699 69.4823H45.2318L42.8942 75.4205H42.1703ZM51.8949 75.4205H47.9817V68.638H51.8949V69.389H48.8625V71.5051H51.7178V72.2474H48.8625V74.6695H51.8949V75.4205Z" fill="white"/>
<path d="M0 63.2881V3.19045C0 1.43245 1.47919 0 3.29456 0H59.7054C61.5208 0 63 1.43245 63 3.19045V63.2881H62.5518V3.19045C62.5518 1.67119 61.2743 0.434075 59.7054 0.434075H3.29456C1.72572 0.434075 0.448239 1.67119 0.448239 3.19045V63.2881H0Z" fill="#E6E6E6"/>
</svg>
