<svg width="56" height="80" viewBox="0 0 56 80" fill="none" xmlns="http://www.w3.org/2000/svg">
<g clip-path="url(#clip0)">
<path d="M50.3948 33.9326H5.58793V78.3419H50.3948V33.9326Z" fill="white"/>
<path opacity="0.25" d="M24.4058 38.3735H22.9726V39.794H24.4058V38.3735Z" fill="black"/>
<path opacity="0.25" d="M31.5752 38.3735H30.142V39.794H31.5752V38.3735Z" fill="black"/>
<path opacity="0.25" d="M34.4434 38.3735H33.0102V39.794H34.4434V38.3735Z" fill="black"/>
<path opacity="0.25" d="M22.9726 39.7957H21.5394V41.2161H22.9726V39.7957Z" fill="black"/>
<path opacity="0.25" d="M24.4058 39.7957H22.9726V41.2161H24.4058V39.7957Z" fill="black"/>
<path opacity="0.25" d="M27.2739 39.7957H25.8407V41.2161H27.2739V39.7957Z" fill="black"/>
<path opacity="0.25" d="M28.7071 39.7957H27.2739V41.2161H28.7071V39.7957Z" fill="black"/>
<path opacity="0.25" d="M30.142 39.7957H28.7088V41.2161H30.142V39.7957Z" fill="black"/>
<path opacity="0.25" d="M31.5752 39.7957H30.142V41.2161H31.5752V39.7957Z" fill="black"/>
<path opacity="0.25" d="M24.4058 41.2162H22.9726V42.6367H24.4058V41.2162Z" fill="black"/>
<path opacity="0.25" d="M25.8407 41.2162H24.4075V42.6367H25.8407V41.2162Z" fill="black"/>
<path opacity="0.25" d="M27.2739 41.2162H25.8407V42.6367H27.2739V41.2162Z" fill="black"/>
<path opacity="0.25" d="M22.9726 42.6367H21.5394V44.0572H22.9726V42.6367Z" fill="black"/>
<path opacity="0.25" d="M24.4058 42.6367H22.9726V44.0572H24.4058V42.6367Z" fill="black"/>
<path opacity="0.25" d="M27.2739 42.6367H25.8407V44.0572H27.2739V42.6367Z" fill="black"/>
<path opacity="0.25" d="M30.142 42.6367H28.7088V44.0572H30.142V42.6367Z" fill="black"/>
<path opacity="0.25" d="M33.0084 42.6367H31.5752V44.0572H33.0084V42.6367Z" fill="black"/>
<path opacity="0.25" d="M34.4434 42.6367H33.0102V44.0572H34.4434V42.6367Z" fill="black"/>
<path opacity="0.25" d="M25.8407 44.0588H24.4075V45.4793H25.8407V44.0588Z" fill="black"/>
<path opacity="0.25" d="M28.7071 44.0588H27.2739V45.4793H28.7071V44.0588Z" fill="black"/>
<path opacity="0.25" d="M33.0084 44.0588H31.5752V45.4793H33.0084V44.0588Z" fill="black"/>
<path opacity="0.25" d="M34.4434 44.0588H33.0102V45.4793H34.4434V44.0588Z" fill="black"/>
<path opacity="0.25" d="M22.9726 45.4794H21.5394V46.8999H22.9726V45.4794Z" fill="black"/>
<path opacity="0.25" d="M25.8407 45.4794H24.4075V46.8999H25.8407V45.4794Z" fill="black"/>
<path opacity="0.25" d="M30.142 45.4794H28.7088V46.8999H30.142V45.4794Z" fill="black"/>
<path opacity="0.25" d="M31.5752 45.4794H30.142V46.8999H31.5752V45.4794Z" fill="black"/>
<path opacity="0.25" d="M33.0084 45.4794H31.5752V46.8999H33.0084V45.4794Z" fill="black"/>
<path opacity="0.25" d="M22.9726 46.8999H21.5394V48.3204H22.9726V46.8999Z" fill="black"/>
<path opacity="0.25" d="M25.8407 46.8999H24.4075V48.3204H25.8407V46.8999Z" fill="black"/>
<path opacity="0.25" d="M28.7071 46.8999H27.2739V48.3204H28.7071V46.8999Z" fill="black"/>
<path opacity="0.25" d="M31.5752 46.8999H30.142V48.3204H31.5752V46.8999Z" fill="black"/>
<path opacity="0.25" d="M34.4434 46.8999H33.0102V48.3204H34.4434V46.8999Z" fill="black"/>
<path opacity="0.25" d="M28.7071 48.322H27.2739V49.7425H28.7071V48.322Z" fill="black"/>
<path opacity="0.25" d="M34.4434 48.322H33.0102V49.7425H34.4434V48.322Z" fill="black"/>
<path opacity="0.25" d="M11.5018 49.7426H10.0686V51.163H11.5018V49.7426Z" fill="black"/>
<path opacity="0.25" d="M12.935 49.7426H11.5018V51.163H12.935V49.7426Z" fill="black"/>
<path opacity="0.25" d="M14.3699 49.7426H12.9367V51.163H14.3699V49.7426Z" fill="black"/>
<path opacity="0.25" d="M15.8031 49.7426H14.3699V51.163H15.8031V49.7426Z" fill="black"/>
<path opacity="0.25" d="M17.2363 49.7426H15.8031V51.163H17.2363V49.7426Z" fill="black"/>
<path opacity="0.25" d="M20.1045 49.7426H18.6713V51.163H20.1045V49.7426Z" fill="black"/>
<path opacity="0.25" d="M21.5394 49.7426H20.1062V51.163H21.5394V49.7426Z" fill="black"/>
<path opacity="0.25" d="M22.9726 49.7426H21.5394V51.163H22.9726V49.7426Z" fill="black"/>
<path opacity="0.25" d="M24.4058 49.7426H22.9726V51.163H24.4058V49.7426Z" fill="black"/>
<path opacity="0.25" d="M25.8407 49.7426H24.4075V51.163H25.8407V49.7426Z" fill="black"/>
<path opacity="0.25" d="M28.7071 49.7426H27.2739V51.163H28.7071V49.7426Z" fill="black"/>
<path opacity="0.25" d="M30.142 49.7426H28.7088V51.163H30.142V49.7426Z" fill="black"/>
<path opacity="0.25" d="M33.0084 49.7426H31.5752V51.163H33.0084V49.7426Z" fill="black"/>
<path opacity="0.25" d="M35.8766 49.7426H34.4434V51.163H35.8766V49.7426Z" fill="black"/>
<path opacity="0.25" d="M38.7447 49.7426H37.3115V51.163H38.7447V49.7426Z" fill="black"/>
<path opacity="0.25" d="M41.6128 49.7426H40.1796V51.163H41.6128V49.7426Z" fill="black"/>
<path opacity="0.25" d="M44.4792 49.7426H43.046V51.163H44.4792V49.7426Z" fill="black"/>
<path opacity="0.25" d="M15.8031 51.1647H14.3699V52.5852H15.8031V51.1647Z" fill="black"/>
<path opacity="0.25" d="M24.4058 51.1647H22.9726V52.5852H24.4058V51.1647Z" fill="black"/>
<path opacity="0.25" d="M33.0084 51.1647H31.5752V52.5852H33.0084V51.1647Z" fill="black"/>
<path opacity="0.25" d="M34.4434 51.1647H33.0102V52.5852H34.4434V51.1647Z" fill="black"/>
<path opacity="0.25" d="M35.8766 51.1647H34.4434V52.5852H35.8766V51.1647Z" fill="black"/>
<path opacity="0.25" d="M38.7447 51.1647H37.3115V52.5852H38.7447V51.1647Z" fill="black"/>
<path opacity="0.25" d="M40.1779 51.1647H38.7447V52.5852H40.1779V51.1647Z" fill="black"/>
<path opacity="0.25" d="M45.9141 51.1647H44.4809V52.5852H45.9141V51.1647Z" fill="black"/>
<path opacity="0.25" d="M14.3699 52.5852H12.9367V54.0057H14.3699V52.5852Z" fill="black"/>
<path opacity="0.25" d="M18.6713 52.5852H17.2381V54.0057H18.6713V52.5852Z" fill="black"/>
<path opacity="0.25" d="M20.1045 52.5852H18.6713V54.0057H20.1045V52.5852Z" fill="black"/>
<path opacity="0.25" d="M21.5394 52.5852H20.1062V54.0057H21.5394V52.5852Z" fill="black"/>
<path opacity="0.25" d="M24.4058 52.5852H22.9726V54.0057H24.4058V52.5852Z" fill="black"/>
<path opacity="0.25" d="M27.2739 52.5852H25.8407V54.0057H27.2739V52.5852Z" fill="black"/>
<path opacity="0.25" d="M28.7071 52.5852H27.2739V54.0057H28.7071V52.5852Z" fill="black"/>
<path opacity="0.25" d="M30.142 52.5852H28.7088V54.0057H30.142V52.5852Z" fill="black"/>
<path opacity="0.25" d="M31.5752 52.5852H30.142V54.0057H31.5752V52.5852Z" fill="black"/>
<path opacity="0.25" d="M33.0084 52.5852H31.5752V54.0057H33.0084V52.5852Z" fill="black"/>
<path opacity="0.25" d="M35.8766 52.5852H34.4434V54.0057H35.8766V52.5852Z" fill="black"/>
<path opacity="0.25" d="M37.3098 52.5852H35.8766V54.0057H37.3098V52.5852Z" fill="black"/>
<path opacity="0.25" d="M40.1779 52.5852H38.7447V54.0057H40.1779V52.5852Z" fill="black"/>
<path opacity="0.25" d="M43.046 52.5852H41.6128V54.0057H43.046V52.5852Z" fill="black"/>
<path opacity="0.25" d="M11.5018 54.0057H10.0686V55.4262H11.5018V54.0057Z" fill="black"/>
<path opacity="0.25" d="M14.3699 54.0057H12.9367V55.4262H14.3699V54.0057Z" fill="black"/>
<path opacity="0.25" d="M15.8031 54.0057H14.3699V55.4262H15.8031V54.0057Z" fill="black"/>
<path opacity="0.25" d="M17.2363 54.0057H15.8031V55.4262H17.2363V54.0057Z" fill="black"/>
<path opacity="0.25" d="M18.6713 54.0057H17.2381V55.4262H18.6713V54.0057Z" fill="black"/>
<path opacity="0.25" d="M21.5394 54.0057H20.1062V55.4262H21.5394V54.0057Z" fill="black"/>
<path opacity="0.25" d="M22.9726 54.0057H21.5394V55.4262H22.9726V54.0057Z" fill="black"/>
<path opacity="0.25" d="M24.4058 54.0057H22.9726V55.4262H24.4058V54.0057Z" fill="black"/>
<path opacity="0.25" d="M25.8407 54.0057H24.4075V55.4262H25.8407V54.0057Z" fill="black"/>
<path opacity="0.25" d="M27.2739 54.0057H25.8407V55.4262H27.2739V54.0057Z" fill="black"/>
<path opacity="0.25" d="M31.5752 54.0057H30.142V55.4262H31.5752V54.0057Z" fill="black"/>
<path opacity="0.25" d="M34.4434 54.0057H33.0102V55.4262H34.4434V54.0057Z" fill="black"/>
<path opacity="0.25" d="M35.8766 54.0057H34.4434V55.4262H35.8766V54.0057Z" fill="black"/>
<path opacity="0.25" d="M11.5018 55.4279H10.0686V56.8483H11.5018V55.4279Z" fill="black"/>
<path opacity="0.25" d="M15.8031 55.4279H14.3699V56.8483H15.8031V55.4279Z" fill="black"/>
<path opacity="0.25" d="M20.1045 55.4279H18.6713V56.8483H20.1045V55.4279Z" fill="black"/>
<path opacity="0.25" d="M24.4058 55.4279H22.9726V56.8483H24.4058V55.4279Z" fill="black"/>
<path opacity="0.25" d="M27.2739 55.4279H25.8407V56.8483H27.2739V55.4279Z" fill="black"/>
<path opacity="0.25" d="M30.142 55.4279H28.7088V56.8483H30.142V55.4279Z" fill="black"/>
<path opacity="0.25" d="M33.0084 55.4279H31.5752V56.8483H33.0084V55.4279Z" fill="black"/>
<path opacity="0.25" d="M37.3098 55.4279H35.8766V56.8483H37.3098V55.4279Z" fill="black"/>
<path opacity="0.25" d="M38.7447 55.4279H37.3115V56.8483H38.7447V55.4279Z" fill="black"/>
<path opacity="0.25" d="M40.1779 55.4279H38.7447V56.8483H40.1779V55.4279Z" fill="black"/>
<path opacity="0.25" d="M41.6128 55.4279H40.1796V56.8483H41.6128V55.4279Z" fill="black"/>
<path opacity="0.25" d="M44.4792 55.4279H43.046V56.8483H44.4792V55.4279Z" fill="black"/>
<path opacity="0.25" d="M45.9141 55.4279H44.4809V56.8483H45.9141V55.4279Z" fill="black"/>
<path opacity="0.25" d="M11.5018 56.8484H10.0686V58.2689H11.5018V56.8484Z" fill="black"/>
<path opacity="0.25" d="M12.935 56.8484H11.5018V58.2689H12.935V56.8484Z" fill="black"/>
<path opacity="0.25" d="M15.8031 56.8484H14.3699V58.2689H15.8031V56.8484Z" fill="black"/>
<path opacity="0.25" d="M21.5394 56.8484H20.1062V58.2689H21.5394V56.8484Z" fill="black"/>
<path opacity="0.25" d="M25.8407 56.8484H24.4075V58.2689H25.8407V56.8484Z" fill="black"/>
<path opacity="0.25" d="M28.7071 56.8484H27.2739V58.2689H28.7071V56.8484Z" fill="black"/>
<path opacity="0.25" d="M31.5752 56.8484H30.142V58.2689H31.5752V56.8484Z" fill="black"/>
<path opacity="0.25" d="M34.4434 56.8484H33.0102V58.2689H34.4434V56.8484Z" fill="black"/>
<path opacity="0.25" d="M35.8766 56.8484H34.4434V58.2689H35.8766V56.8484Z" fill="black"/>
<path opacity="0.25" d="M37.3098 56.8484H35.8766V58.2689H37.3098V56.8484Z" fill="black"/>
<path opacity="0.25" d="M38.7447 56.8484H37.3115V58.2689H38.7447V56.8484Z" fill="black"/>
<path opacity="0.25" d="M40.1779 56.8484H38.7447V58.2689H40.1779V56.8484Z" fill="black"/>
<path opacity="0.25" d="M11.5018 58.2688H10.0686V59.6893H11.5018V58.2688Z" fill="black"/>
<path opacity="0.25" d="M14.3699 58.2688H12.9367V59.6893H14.3699V58.2688Z" fill="black"/>
<path opacity="0.25" d="M15.8031 58.2688H14.3699V59.6893H15.8031V58.2688Z" fill="black"/>
<path opacity="0.25" d="M17.2363 58.2688H15.8031V59.6893H17.2363V58.2688Z" fill="black"/>
<path opacity="0.25" d="M20.1045 58.2688H18.6713V59.6893H20.1045V58.2688Z" fill="black"/>
<path opacity="0.25" d="M21.5394 58.2688H20.1062V59.6893H21.5394V58.2688Z" fill="black"/>
<path opacity="0.25" d="M30.142 58.2688H28.7088V59.6893H30.142V58.2688Z" fill="black"/>
<path opacity="0.25" d="M35.8766 58.2688H34.4434V59.6893H35.8766V58.2688Z" fill="black"/>
<path opacity="0.25" d="M37.3098 58.2688H35.8766V59.6893H37.3098V58.2688Z" fill="black"/>
<path opacity="0.25" d="M40.1779 58.2688H38.7447V59.6893H40.1779V58.2688Z" fill="black"/>
<path opacity="0.25" d="M43.046 58.2688H41.6128V59.6893H43.046V58.2688Z" fill="black"/>
<path opacity="0.25" d="M44.4792 58.2688H43.046V59.6893H44.4792V58.2688Z" fill="black"/>
<path opacity="0.25" d="M45.9141 58.2688H44.4809V59.6893H45.9141V58.2688Z" fill="black"/>
<path opacity="0.25" d="M11.5018 59.691H10.0686V61.1115H11.5018V59.691Z" fill="black"/>
<path opacity="0.25" d="M15.8031 59.691H14.3699V61.1115H15.8031V59.691Z" fill="black"/>
<path opacity="0.25" d="M18.6713 59.691H17.2381V61.1115H18.6713V59.691Z" fill="black"/>
<path opacity="0.25" d="M24.4058 59.691H22.9726V61.1115H24.4058V59.691Z" fill="black"/>
<path opacity="0.25" d="M25.8407 59.691H24.4075V61.1115H25.8407V59.691Z" fill="black"/>
<path opacity="0.25" d="M28.7071 59.691H27.2739V61.1115H28.7071V59.691Z" fill="black"/>
<path opacity="0.25" d="M30.142 59.691H28.7088V61.1115H30.142V59.691Z" fill="black"/>
<path opacity="0.25" d="M31.5752 59.691H30.142V61.1115H31.5752V59.691Z" fill="black"/>
<path opacity="0.25" d="M35.8766 59.691H34.4434V61.1115H35.8766V59.691Z" fill="black"/>
<path opacity="0.25" d="M44.4792 59.691H43.046V61.1115H44.4792V59.691Z" fill="black"/>
<path opacity="0.25" d="M45.9141 59.691H44.4809V61.1115H45.9141V59.691Z" fill="black"/>
<path opacity="0.25" d="M11.5018 61.1116H10.0686V62.5321H11.5018V61.1116Z" fill="black"/>
<path opacity="0.25" d="M20.1045 61.1116H18.6713V62.5321H20.1045V61.1116Z" fill="black"/>
<path opacity="0.25" d="M25.8407 61.1116H24.4075V62.5321H25.8407V61.1116Z" fill="black"/>
<path opacity="0.25" d="M28.7071 61.1116H27.2739V62.5321H28.7071V61.1116Z" fill="black"/>
<path opacity="0.25" d="M33.0084 61.1116H31.5752V62.5321H33.0084V61.1116Z" fill="black"/>
<path opacity="0.25" d="M34.4434 61.1116H33.0102V62.5321H34.4434V61.1116Z" fill="black"/>
<path opacity="0.25" d="M35.8766 61.1116H34.4434V62.5321H35.8766V61.1116Z" fill="black"/>
<path opacity="0.25" d="M37.3098 61.1116H35.8766V62.5321H37.3098V61.1116Z" fill="black"/>
<path opacity="0.25" d="M38.7447 61.1116H37.3115V62.5321H38.7447V61.1116Z" fill="black"/>
<path opacity="0.25" d="M40.1779 61.1116H38.7447V62.5321H40.1779V61.1116Z" fill="black"/>
<path opacity="0.25" d="M41.6128 61.1116H40.1796V62.5321H41.6128V61.1116Z" fill="black"/>
<path opacity="0.25" d="M45.9141 61.1116H44.4809V62.5321H45.9141V61.1116Z" fill="black"/>
<path opacity="0.25" d="M22.9726 62.532H21.5394V63.9525H22.9726V62.532Z" fill="black"/>
<path opacity="0.25" d="M25.8407 62.532H24.4075V63.9525H25.8407V62.532Z" fill="black"/>
<path opacity="0.25" d="M31.5752 62.532H30.142V63.9525H31.5752V62.532Z" fill="black"/>
<path opacity="0.25" d="M34.4434 62.532H33.0102V63.9525H34.4434V62.532Z" fill="black"/>
<path opacity="0.25" d="M40.1779 62.532H38.7447V63.9525H40.1779V62.532Z" fill="black"/>
<path opacity="0.25" d="M45.9141 62.532H44.4809V63.9525H45.9141V62.532Z" fill="black"/>
<path opacity="0.25" d="M22.9726 63.9542H21.5394V65.3747H22.9726V63.9542Z" fill="black"/>
<path opacity="0.25" d="M24.4058 63.9542H22.9726V65.3747H24.4058V63.9542Z" fill="black"/>
<path opacity="0.25" d="M25.8407 63.9542H24.4075V65.3747H25.8407V63.9542Z" fill="black"/>
<path opacity="0.25" d="M27.2739 63.9542H25.8407V65.3747H27.2739V63.9542Z" fill="black"/>
<path opacity="0.25" d="M28.7071 63.9542H27.2739V65.3747H28.7071V63.9542Z" fill="black"/>
<path opacity="0.25" d="M31.5752 63.9542H30.142V65.3747H31.5752V63.9542Z" fill="black"/>
<path opacity="0.25" d="M34.4434 63.9542H33.0102V65.3747H34.4434V63.9542Z" fill="black"/>
<path opacity="0.25" d="M37.3098 63.9542H35.8766V65.3747H37.3098V63.9542Z" fill="black"/>
<path opacity="0.25" d="M40.1779 63.9542H38.7447V65.3747H40.1779V63.9542Z" fill="black"/>
<path opacity="0.25" d="M43.046 63.9542H41.6128V65.3747H43.046V63.9542Z" fill="black"/>
<path opacity="0.25" d="M44.4792 63.9542H43.046V65.3747H44.4792V63.9542Z" fill="black"/>
<path opacity="0.25" d="M45.9141 63.9542H44.4809V65.3747H45.9141V63.9542Z" fill="black"/>
<path opacity="0.25" d="M24.4058 65.3748H22.9726V66.7952H24.4058V65.3748Z" fill="black"/>
<path opacity="0.25" d="M25.8407 65.3748H24.4075V66.7952H25.8407V65.3748Z" fill="black"/>
<path opacity="0.25" d="M27.2739 65.3748H25.8407V66.7952H27.2739V65.3748Z" fill="black"/>
<path opacity="0.25" d="M31.5752 65.3748H30.142V66.7952H31.5752V65.3748Z" fill="black"/>
<path opacity="0.25" d="M34.4434 65.3748H33.0102V66.7952H34.4434V65.3748Z" fill="black"/>
<path opacity="0.25" d="M40.1779 65.3748H38.7447V66.7952H40.1779V65.3748Z" fill="black"/>
<path opacity="0.25" d="M41.6128 65.3748H40.1796V66.7952H41.6128V65.3748Z" fill="black"/>
<path opacity="0.25" d="M22.9726 66.7952H21.5394V68.2156H22.9726V66.7952Z" fill="black"/>
<path opacity="0.25" d="M24.4058 66.7952H22.9726V68.2156H24.4058V66.7952Z" fill="black"/>
<path opacity="0.25" d="M27.2739 66.7952H25.8407V68.2156H27.2739V66.7952Z" fill="black"/>
<path opacity="0.25" d="M28.7071 66.7952H27.2739V68.2156H28.7071V66.7952Z" fill="black"/>
<path opacity="0.25" d="M30.142 66.7952H28.7088V68.2156H30.142V66.7952Z" fill="black"/>
<path opacity="0.25" d="M34.4434 66.7952H33.0102V68.2156H34.4434V66.7952Z" fill="black"/>
<path opacity="0.25" d="M35.8766 66.7952H34.4434V68.2156H35.8766V66.7952Z" fill="black"/>
<path opacity="0.25" d="M37.3098 66.7952H35.8766V68.2156H37.3098V66.7952Z" fill="black"/>
<path opacity="0.25" d="M38.7447 66.7952H37.3115V68.2156H38.7447V66.7952Z" fill="black"/>
<path opacity="0.25" d="M40.1779 66.7952H38.7447V68.2156H40.1779V66.7952Z" fill="black"/>
<path opacity="0.25" d="M41.6128 66.7952H40.1796V68.2156H41.6128V66.7952Z" fill="black"/>
<path opacity="0.25" d="M22.9726 68.2174H21.5394V69.6379H22.9726V68.2174Z" fill="black"/>
<path opacity="0.25" d="M24.4058 68.2174H22.9726V69.6379H24.4058V68.2174Z" fill="black"/>
<path opacity="0.25" d="M25.8407 68.2174H24.4075V69.6379H25.8407V68.2174Z" fill="black"/>
<path opacity="0.25" d="M28.7071 68.2174H27.2739V69.6379H28.7071V68.2174Z" fill="black"/>
<path opacity="0.25" d="M33.0084 68.2174H31.5752V69.6379H33.0084V68.2174Z" fill="black"/>
<path opacity="0.25" d="M34.4434 68.2174H33.0102V69.6379H34.4434V68.2174Z" fill="black"/>
<path opacity="0.25" d="M37.3098 68.2174H35.8766V69.6379H37.3098V68.2174Z" fill="black"/>
<path opacity="0.25" d="M40.1779 68.2174H38.7447V69.6379H40.1779V68.2174Z" fill="black"/>
<path opacity="0.25" d="M44.4792 68.2174H43.046V69.6379H44.4792V68.2174Z" fill="black"/>
<path opacity="0.25" d="M45.9141 68.2174H44.4809V69.6379H45.9141V68.2174Z" fill="black"/>
<path opacity="0.25" d="M22.9726 69.6378H21.5394V71.0583H22.9726V69.6378Z" fill="black"/>
<path opacity="0.25" d="M24.4058 69.6378H22.9726V71.0583H24.4058V69.6378Z" fill="black"/>
<path opacity="0.25" d="M28.7071 69.6378H27.2739V71.0583H28.7071V69.6378Z" fill="black"/>
<path opacity="0.25" d="M30.142 69.6378H28.7088V71.0583H30.142V69.6378Z" fill="black"/>
<path opacity="0.25" d="M31.5752 69.6378H30.142V71.0583H31.5752V69.6378Z" fill="black"/>
<path opacity="0.25" d="M40.1779 69.6378H38.7447V71.0583H40.1779V69.6378Z" fill="black"/>
<path opacity="0.25" d="M43.046 69.6378H41.6128V71.0583H43.046V69.6378Z" fill="black"/>
<path opacity="0.25" d="M45.9141 69.6378H44.4809V71.0583H45.9141V69.6378Z" fill="black"/>
<path opacity="0.25" d="M22.9726 71.0601H21.5394V72.4805H22.9726V71.0601Z" fill="black"/>
<path opacity="0.25" d="M24.4058 71.0601H22.9726V72.4805H24.4058V71.0601Z" fill="black"/>
<path opacity="0.25" d="M25.8407 71.0601H24.4075V72.4805H25.8407V71.0601Z" fill="black"/>
<path opacity="0.25" d="M28.7071 71.0601H27.2739V72.4805H28.7071V71.0601Z" fill="black"/>
<path opacity="0.25" d="M30.142 71.0601H28.7088V72.4805H30.142V71.0601Z" fill="black"/>
<path opacity="0.25" d="M34.4434 71.0601H33.0102V72.4805H34.4434V71.0601Z" fill="black"/>
<path opacity="0.25" d="M35.8766 71.0601H34.4434V72.4805H35.8766V71.0601Z" fill="black"/>
<path opacity="0.25" d="M37.3098 71.0601H35.8766V72.4805H37.3098V71.0601Z" fill="black"/>
<path opacity="0.25" d="M38.7447 71.0601H37.3115V72.4805H38.7447V71.0601Z" fill="black"/>
<path opacity="0.25" d="M40.1779 71.0601H38.7447V72.4805H40.1779V71.0601Z" fill="black"/>
<path opacity="0.25" d="M41.6128 71.0601H40.1796V72.4805H41.6128V71.0601Z" fill="black"/>
<path opacity="0.25" d="M44.4792 71.0601H43.046V72.4805H44.4792V71.0601Z" fill="black"/>
<path opacity="0.25" d="M22.9726 72.4805H21.5394V73.901H22.9726V72.4805Z" fill="black"/>
<path opacity="0.25" d="M30.142 72.4805H28.7088V73.901H30.142V72.4805Z" fill="black"/>
<path opacity="0.25" d="M33.0084 72.4805H31.5752V73.901H33.0084V72.4805Z" fill="black"/>
<path opacity="0.25" d="M43.046 72.4805H41.6128V73.901H43.046V72.4805Z" fill="black"/>
<path opacity="0.25" d="M44.4792 72.4805H43.046V73.901H44.4792V72.4805Z" fill="black"/>
<path opacity="0.25" d="M45.9141 72.4805H44.4809V73.901H45.9141V72.4805Z" fill="black"/>
<path opacity="0.25" d="M10.3722 38.3718C10.2049 38.3718 10.0669 38.5086 10.0669 38.6744V39.794V41.2145V42.635V44.0555V45.4759V46.8964V48.0161C10.0669 48.1819 10.2031 48.3186 10.3722 48.3186H19.8009C19.9682 48.3186 20.1062 48.1836 20.1062 48.0161V46.8964V45.4759V44.0555V42.635V41.2145V39.794V38.6744C20.1062 38.5086 19.9699 38.3718 19.8009 38.3718H10.3722ZM18.6713 41.2162V42.6367V44.0572V45.4776V46.7255C18.6713 46.8229 18.5919 46.8981 18.4971 46.8981H11.6777C11.5794 46.8981 11.5035 46.8195 11.5035 46.7255V45.4776V44.0572V42.6367V41.2162V39.9684C11.5035 39.8709 11.5829 39.7957 11.6777 39.7957H18.4971C18.5954 39.7957 18.6713 39.8744 18.6713 39.9684V41.2162Z" fill="black"/>
<path opacity="0.25" d="M17.2381 44.0589V42.6384V41.5187C17.2381 41.3529 17.1018 41.2162 16.9328 41.2162H13.2403C13.073 41.2162 12.935 41.3512 12.935 41.5187V42.6384V44.0589V45.1785C12.935 45.3443 13.0713 45.4811 13.2403 45.4811H16.9328C17.1001 45.4811 17.2381 45.346 17.2381 45.1785V44.0589Z" fill="black"/>
<path opacity="0.25" d="M36.1818 38.3718C36.0145 38.3718 35.8766 38.5086 35.8766 38.6744V39.794V41.2145V42.635V44.0555V45.4759V46.8964V48.0161C35.8766 48.1819 36.0128 48.3186 36.1818 48.3186H45.6106C45.7779 48.3186 45.9159 48.1836 45.9159 48.0161V46.8964V45.4759V44.0555V42.635V41.2145V39.794V38.6744C45.9159 38.5086 45.7796 38.3718 45.6106 38.3718H36.1818ZM44.4809 41.2162V42.6367V44.0572V45.4776V46.7255C44.4809 46.8229 44.4016 46.8981 44.3067 46.8981H37.4874C37.3891 46.8981 37.3132 46.8195 37.3132 46.7255V45.4776V44.0572V42.6367V41.2162V39.9684C37.3132 39.8709 37.3925 39.7957 37.4874 39.7957H44.3067C44.405 39.7957 44.4809 39.8744 44.4809 39.9684V41.2162Z" fill="black"/>
<path opacity="0.25" d="M43.046 44.0589V42.6384V41.5187C43.046 41.3529 42.9098 41.2162 42.7407 41.2162H39.0482C38.8809 41.2162 38.743 41.3512 38.743 41.5187V42.6384V44.0589V45.1785C38.743 45.3443 38.8792 45.4811 39.0482 45.4811H42.7407C42.908 45.4811 43.046 45.346 43.046 45.1785V44.0589Z" fill="black"/>
<path opacity="0.25" d="M10.3722 63.9525C10.2049 63.9525 10.0669 64.0893 10.0669 64.2551V65.3747V66.7952V68.2157V69.6362V71.0566V72.4771V73.5968C10.0669 73.7626 10.2031 73.8993 10.3722 73.8993H19.8009C19.9682 73.8993 20.1062 73.7643 20.1062 73.5968V72.4771V71.0566V69.6362V68.2157V66.7952V65.3747V64.2551C20.1062 64.0893 19.9699 63.9525 19.8009 63.9525H10.3722ZM18.6713 66.7952V68.2157V69.6362V71.0566V72.3045C18.6713 72.4019 18.5919 72.4771 18.4971 72.4771H11.6777C11.5794 72.4771 11.5035 72.3985 11.5035 72.3045V71.0566V69.6362V68.2157V66.7952V65.5474C11.5035 65.4499 11.5829 65.3747 11.6777 65.3747H18.4971C18.5954 65.3747 18.6713 65.4533 18.6713 65.5474V66.7952Z" fill="black"/>
<path opacity="0.25" d="M17.2381 69.6378V68.2174V67.0977C17.2381 66.9319 17.1018 66.7952 16.9328 66.7952H13.2403C13.073 66.7952 12.935 66.9302 12.935 67.0977V68.2174V69.6378V70.7575C12.935 70.9233 13.0713 71.06 13.2403 71.06H16.9328C17.1001 71.06 17.2381 70.925 17.2381 70.7575V69.6378Z" fill="black"/>
<path d="M53.5337 16.0695H40.9436C53.62 11.6593 52.154 8.58249 52.154 8.58249C48.6012 0.719412 46.5833 0.377539 46.5833 0.377539C40.6677 -2.4771 30.6991 11.7619 30.6991 11.7619V11.779C29.9058 11.3175 28.9917 11.044 27.9914 11.044C26.9911 11.044 26.077 11.3175 25.2836 11.779V11.7619C25.2836 11.7619 15.3151 -2.4771 9.39945 0.377539C9.39945 0.377539 7.36434 0.719412 3.82877 8.58249C3.82877 8.58249 2.3628 11.6593 15.0391 16.0695H2.44903C1.08654 16.0695 0 17.1635 0 18.4968V28.3086C0 29.4709 0.965814 30.4282 2.13859 30.4282H3.93225V77.6579C3.93225 78.94 4.98429 79.9998 6.29504 79.9998H49.705C50.9985 79.9998 52.0678 78.9571 52.0678 77.6579V30.4111H53.8614C55.0342 30.4111 56 29.4538 56 28.2915V18.4797C55.9828 17.1635 54.879 16.0695 53.5337 16.0695ZM50.2396 76.9229C50.2396 77.6238 49.6705 78.1878 48.9633 78.1878H7.0194C6.31229 78.1878 5.74315 77.6238 5.74315 76.9229V35.3512C5.74315 34.6503 6.31229 34.0862 7.0194 34.0862H48.9633C49.6705 34.0862 50.2396 34.6503 50.2396 35.3512V76.9229Z" fill="black"/>
<path opacity="0.35" d="M52.0505 30.4113V32.2745H3.93224V30.4113H52.0505ZM19.3508 16.0698H22.7139C20.4373 14.651 7.5368 6.73662 5.9846 8.1383C4.46689 9.52289 16.6948 14.9245 19.3508 16.0698ZM33.2689 16.0698C35.5454 14.651 48.4459 6.73662 49.9981 8.1383C51.5158 9.52289 39.2879 14.9245 36.6492 16.0698H33.2689ZM22.6794 16.0698C22.8001 13.2835 25.1112 11.0442 27.9569 11.0442C30.8026 11.0442 33.1309 13.2835 33.2344 16.0698H22.6794Z" fill="white"/>
<path d="M15.572 24.6405C15.572 25.1055 15.403 25.473 15.0633 25.7397C14.7235 26.008 14.2527 26.1414 13.6473 26.1414C13.0075 26.1414 12.5142 26.0576 12.1658 25.8901V25.2474C12.3952 25.3448 12.6453 25.4217 12.916 25.4781C13.1868 25.5345 13.4421 25.5619 13.6766 25.5619C14.0802 25.5619 14.3837 25.485 14.5872 25.3311C14.7908 25.1773 14.8925 24.967 14.8925 24.6987C14.8925 24.5209 14.8563 24.3739 14.7821 24.2593C14.708 24.1448 14.5855 24.0371 14.4113 23.938C14.2389 23.8388 13.975 23.7243 13.6249 23.5978C13.1265 23.4183 12.7694 23.2047 12.5556 22.9602C12.3417 22.7158 12.2348 22.3996 12.2348 22.0115C12.2348 21.5944 12.3935 21.2628 12.7091 21.0184C13.0247 20.774 13.4403 20.6492 13.9577 20.6492C14.4958 20.6492 14.9908 20.7483 15.4427 20.9483L15.2323 21.5261C14.7701 21.3363 14.3406 21.2406 13.9422 21.2406C13.6232 21.2406 13.3731 21.309 13.192 21.4457C13.0109 21.5825 12.9212 21.7739 12.9212 22.0201C12.9212 22.1961 12.9557 22.3414 13.0264 22.456C13.0971 22.5705 13.2092 22.6765 13.3662 22.7722C13.5231 22.8679 13.768 22.9756 14.1009 23.097C14.501 23.244 14.7994 23.3859 14.996 23.5226C15.1926 23.6611 15.3375 23.8183 15.4306 23.9978C15.5255 24.179 15.572 24.3927 15.572 24.6405ZM18.9679 21.2423C18.3884 21.2423 17.9314 21.4355 17.6002 21.8201C17.2691 22.2047 17.1018 22.7312 17.1018 23.3978C17.1018 24.0867 17.2622 24.6183 17.5847 24.9927C17.9072 25.367 18.3643 25.5533 18.9593 25.5533C19.3422 25.5533 19.7733 25.4833 20.2528 25.3414V25.926C20.0234 26.008 19.8044 26.0661 19.5922 26.0952C19.3801 26.126 19.1369 26.1414 18.8627 26.1414C18.0694 26.1414 17.4571 25.902 17.0294 25.4234C16.5999 24.9448 16.3861 24.2662 16.3861 23.3893C16.3861 22.8389 16.4878 22.3568 16.6931 21.9432C16.8983 21.5295 17.1967 21.2098 17.5882 20.9859C17.9797 20.762 18.4419 20.6492 18.9731 20.6492C19.5439 20.6492 20.0389 20.7534 20.4632 20.9637L20.1907 21.5329C19.7613 21.3398 19.3542 21.2423 18.9679 21.2423ZM24.8111 26.0696L24.1626 24.4149H22.024L21.3824 26.0696H20.696L22.8018 20.7056H23.4141L25.5147 26.0696H24.8111ZM23.9591 23.82L23.3537 22.2013L23.095 21.4013C23.0209 21.6936 22.9433 21.9603 22.8622 22.2013L22.2499 23.82H23.9591ZM30.5284 26.0696H29.735L26.8479 21.6338H26.8186L26.8376 21.9295C26.8669 22.3722 26.8824 22.7585 26.8824 23.0833V26.0679H26.2564V20.7261H27.0411L27.2066 20.9859L28.9762 23.697L29.9161 25.1482H29.9454C29.9402 25.0901 29.9299 24.8816 29.9161 24.5209C29.9006 24.1619 29.8937 23.9021 29.8937 23.7414V20.7261H30.5284V26.0696ZM36.3319 26.0696L34.5555 21.3859H34.5261C34.5624 21.7756 34.5813 22.256 34.5813 22.8286V26.0696H33.9553V20.7278H34.9573L36.6199 25.1055H36.6492L38.3411 20.7278H39.3362V26.0696H38.6653V22.7859C38.6653 22.4201 38.6826 21.9568 38.7171 21.3945H38.6878L36.8889 26.0713H36.3319V26.0696ZM43.8152 26.0696H40.8039V20.7278H43.8152V21.3192H41.4817V22.9859H43.679V23.5705H41.4817V25.4781H43.8152V26.0696Z" fill="white"/>
</g>
<defs>
<clipPath id="clip0">
<rect width="56" height="80" fill="white"/>
</clipPath>
</defs>
</svg>
