<svg width="68" height="81" viewBox="0 0 68 81" fill="none" xmlns="http://www.w3.org/2000/svg">
<g clip-path="url(#clip0)">
<path d="M59.0466 8.75525H9.43066V58.5469H59.0466V8.75525Z" fill="white"/>
<path opacity="0.25" d="M30.2774 13.7363H28.6929V15.3264H30.2774V13.7363Z" fill="black"/>
<path opacity="0.25" d="M38.1999 13.7363H36.6154V15.3264H38.1999V13.7363Z" fill="black"/>
<path opacity="0.25" d="M41.388 13.7363H39.8035V15.3264H41.388V13.7363Z" fill="black"/>
<path opacity="0.25" d="M28.6738 15.3264H27.0893V16.9165H28.6738V15.3264Z" fill="black"/>
<path opacity="0.25" d="M30.2774 15.3264H28.6929V16.9165H30.2774V15.3264Z" fill="black"/>
<path opacity="0.25" d="M33.4464 15.3264H31.8619V16.9165H33.4464V15.3264Z" fill="black"/>
<path opacity="0.25" d="M35.0309 15.3264H33.4464V16.9165H35.0309V15.3264Z" fill="black"/>
<path opacity="0.25" d="M36.6154 15.3264H35.0309V16.9165H36.6154V15.3264Z" fill="black"/>
<path opacity="0.25" d="M38.1999 15.3264H36.6154V16.9165H38.1999V15.3264Z" fill="black"/>
<path opacity="0.25" d="M30.2774 16.9165H28.6929V18.5066H30.2774V16.9165Z" fill="black"/>
<path opacity="0.25" d="M31.8619 16.9165H30.2774V18.5066H31.8619V16.9165Z" fill="black"/>
<path opacity="0.25" d="M33.4464 16.9165H31.8619V18.5066H33.4464V16.9165Z" fill="black"/>
<path opacity="0.25" d="M28.6738 18.5258H27.0893V20.1159H28.6738V18.5258Z" fill="black"/>
<path opacity="0.25" d="M30.2774 18.5258H28.6929V20.1159H30.2774V18.5258Z" fill="black"/>
<path opacity="0.25" d="M33.4464 18.5258H31.8619V20.1159H33.4464V18.5258Z" fill="black"/>
<path opacity="0.25" d="M36.6154 18.5258H35.0309V20.1159H36.6154V18.5258Z" fill="black"/>
<path opacity="0.25" d="M39.8035 18.5258H38.219V20.1159H39.8035V18.5258Z" fill="black"/>
<path opacity="0.25" d="M41.388 18.5258H39.8035V20.1159H41.388V18.5258Z" fill="black"/>
<path opacity="0.25" d="M31.8619 20.1158H30.2774V21.706H31.8619V20.1158Z" fill="black"/>
<path opacity="0.25" d="M35.0309 20.1158H33.4464V21.706H35.0309V20.1158Z" fill="black"/>
<path opacity="0.25" d="M39.8035 20.1158H38.219V21.706H39.8035V20.1158Z" fill="black"/>
<path opacity="0.25" d="M41.388 20.1158H39.8035V21.706H41.388V20.1158Z" fill="black"/>
<path opacity="0.25" d="M28.6738 21.7059H27.0893V23.2961H28.6738V21.7059Z" fill="black"/>
<path opacity="0.25" d="M31.8619 21.7059H30.2774V23.2961H31.8619V21.7059Z" fill="black"/>
<path opacity="0.25" d="M36.6154 21.7059H35.0309V23.2961H36.6154V21.7059Z" fill="black"/>
<path opacity="0.25" d="M38.1999 21.7059H36.6154V23.2961H38.1999V21.7059Z" fill="black"/>
<path opacity="0.25" d="M39.8035 21.7059H38.219V23.2961H39.8035V21.7059Z" fill="black"/>
<path opacity="0.25" d="M28.6738 23.2961H27.0893V24.8862H28.6738V23.2961Z" fill="black"/>
<path opacity="0.25" d="M31.8619 23.2961H30.2774V24.8862H31.8619V23.2961Z" fill="black"/>
<path opacity="0.25" d="M35.0309 23.2961H33.4464V24.8862H35.0309V23.2961Z" fill="black"/>
<path opacity="0.25" d="M38.1999 23.2961H36.6154V24.8862H38.1999V23.2961Z" fill="black"/>
<path opacity="0.25" d="M41.388 23.2961H39.8035V24.8862H41.388V23.2961Z" fill="black"/>
<path opacity="0.25" d="M35.0309 24.8862H33.4464V26.4763H35.0309V24.8862Z" fill="black"/>
<path opacity="0.25" d="M41.388 24.8862H39.8035V26.4763H41.388V24.8862Z" fill="black"/>
<path opacity="0.25" d="M15.9787 26.4764H14.3942V28.0666H15.9787V26.4764Z" fill="black"/>
<path opacity="0.25" d="M17.5632 26.4764H15.9787V28.0666H17.5632V26.4764Z" fill="black"/>
<path opacity="0.25" d="M19.1477 26.4764H17.5632V28.0666H19.1477V26.4764Z" fill="black"/>
<path opacity="0.25" d="M20.7513 26.4764H19.1668V28.0666H20.7513V26.4764Z" fill="black"/>
<path opacity="0.25" d="M22.3358 26.4764H20.7513V28.0666H22.3358V26.4764Z" fill="black"/>
<path opacity="0.25" d="M25.5048 26.4764H23.9203V28.0666H25.5048V26.4764Z" fill="black"/>
<path opacity="0.25" d="M27.0893 26.4764H25.5048V28.0666H27.0893V26.4764Z" fill="black"/>
<path opacity="0.25" d="M28.6738 26.4764H27.0893V28.0666H28.6738V26.4764Z" fill="black"/>
<path opacity="0.25" d="M30.2774 26.4764H28.6929V28.0666H30.2774V26.4764Z" fill="black"/>
<path opacity="0.25" d="M31.8619 26.4764H30.2774V28.0666H31.8619V26.4764Z" fill="black"/>
<path opacity="0.25" d="M35.0309 26.4764H33.4464V28.0666H35.0309V26.4764Z" fill="black"/>
<path opacity="0.25" d="M36.6154 26.4764H35.0309V28.0666H36.6154V26.4764Z" fill="black"/>
<path opacity="0.25" d="M39.8035 26.4764H38.219V28.0666H39.8035V26.4764Z" fill="black"/>
<path opacity="0.25" d="M42.9725 26.4764H41.388V28.0666H42.9725V26.4764Z" fill="black"/>
<path opacity="0.25" d="M46.1415 26.4764H44.557V28.0666H46.1415V26.4764Z" fill="black"/>
<path opacity="0.25" d="M49.3296 26.4764H47.7451V28.0666H49.3296V26.4764Z" fill="black"/>
<path opacity="0.25" d="M52.4986 26.4764H50.9141V28.0666H52.4986V26.4764Z" fill="black"/>
<path opacity="0.25" d="M20.7513 28.0857H19.1668V29.6758H20.7513V28.0857Z" fill="black"/>
<path opacity="0.25" d="M30.2774 28.0857H28.6929V29.6758H30.2774V28.0857Z" fill="black"/>
<path opacity="0.25" d="M39.8035 28.0857H38.219V29.6758H39.8035V28.0857Z" fill="black"/>
<path opacity="0.25" d="M41.388 28.0857H39.8035V29.6758H41.388V28.0857Z" fill="black"/>
<path opacity="0.25" d="M42.9725 28.0857H41.388V29.6758H42.9725V28.0857Z" fill="black"/>
<path opacity="0.25" d="M46.1415 28.0857H44.557V29.6758H46.1415V28.0857Z" fill="black"/>
<path opacity="0.25" d="M47.726 28.0857H46.1415V29.6758H47.726V28.0857Z" fill="black"/>
<path opacity="0.25" d="M54.0831 28.0857H52.4986V29.6758H54.0831V28.0857Z" fill="black"/>
<path opacity="0.25" d="M19.1477 29.6757H17.5632V31.2658H19.1477V29.6757Z" fill="black"/>
<path opacity="0.25" d="M23.9203 29.6757H22.3358V31.2658H23.9203V29.6757Z" fill="black"/>
<path opacity="0.25" d="M25.5048 29.6757H23.9203V31.2658H25.5048V29.6757Z" fill="black"/>
<path opacity="0.25" d="M27.0893 29.6757H25.5048V31.2658H27.0893V29.6757Z" fill="black"/>
<path opacity="0.25" d="M30.2774 29.6757H28.6929V31.2658H30.2774V29.6757Z" fill="black"/>
<path opacity="0.25" d="M33.4464 29.6757H31.8619V31.2658H33.4464V29.6757Z" fill="black"/>
<path opacity="0.25" d="M35.0309 29.6757H33.4464V31.2658H35.0309V29.6757Z" fill="black"/>
<path opacity="0.25" d="M36.6154 29.6757H35.0309V31.2658H36.6154V29.6757Z" fill="black"/>
<path opacity="0.25" d="M38.1999 29.6757H36.6154V31.2658H38.1999V29.6757Z" fill="black"/>
<path opacity="0.25" d="M39.8035 29.6757H38.219V31.2658H39.8035V29.6757Z" fill="black"/>
<path opacity="0.25" d="M42.9725 29.6757H41.388V31.2658H42.9725V29.6757Z" fill="black"/>
<path opacity="0.25" d="M44.557 29.6757H42.9725V31.2658H44.557V29.6757Z" fill="black"/>
<path opacity="0.25" d="M47.726 29.6757H46.1415V31.2658H47.726V29.6757Z" fill="black"/>
<path opacity="0.25" d="M50.9141 29.6757H49.3296V31.2658H50.9141V29.6757Z" fill="black"/>
<path opacity="0.25" d="M15.9787 31.2659H14.3942V32.856H15.9787V31.2659Z" fill="black"/>
<path opacity="0.25" d="M19.1477 31.2659H17.5632V32.856H19.1477V31.2659Z" fill="black"/>
<path opacity="0.25" d="M20.7513 31.2659H19.1668V32.856H20.7513V31.2659Z" fill="black"/>
<path opacity="0.25" d="M22.3358 31.2659H20.7513V32.856H22.3358V31.2659Z" fill="black"/>
<path opacity="0.25" d="M23.9203 31.2659H22.3358V32.856H23.9203V31.2659Z" fill="black"/>
<path opacity="0.25" d="M27.0893 31.2659H25.5048V32.856H27.0893V31.2659Z" fill="black"/>
<path opacity="0.25" d="M28.6738 31.2659H27.0893V32.856H28.6738V31.2659Z" fill="black"/>
<path opacity="0.25" d="M30.2774 31.2659H28.6929V32.856H30.2774V31.2659Z" fill="black"/>
<path opacity="0.25" d="M31.8619 31.2659H30.2774V32.856H31.8619V31.2659Z" fill="black"/>
<path opacity="0.25" d="M33.4464 31.2659H31.8619V32.856H33.4464V31.2659Z" fill="black"/>
<path opacity="0.25" d="M38.1999 31.2659H36.6154V32.856H38.1999V31.2659Z" fill="black"/>
<path opacity="0.25" d="M41.388 31.2659H39.8035V32.856H41.388V31.2659Z" fill="black"/>
<path opacity="0.25" d="M42.9725 31.2659H41.388V32.856H42.9725V31.2659Z" fill="black"/>
<path opacity="0.25" d="M15.9787 32.856H14.3942V34.4461H15.9787V32.856Z" fill="black"/>
<path opacity="0.25" d="M20.7513 32.856H19.1668V34.4461H20.7513V32.856Z" fill="black"/>
<path opacity="0.25" d="M25.5048 32.856H23.9203V34.4461H25.5048V32.856Z" fill="black"/>
<path opacity="0.25" d="M30.2774 32.856H28.6929V34.4461H30.2774V32.856Z" fill="black"/>
<path opacity="0.25" d="M33.4464 32.856H31.8619V34.4461H33.4464V32.856Z" fill="black"/>
<path opacity="0.25" d="M36.6154 32.856H35.0309V34.4461H36.6154V32.856Z" fill="black"/>
<path opacity="0.25" d="M39.8035 32.856H38.219V34.4461H39.8035V32.856Z" fill="black"/>
<path opacity="0.25" d="M44.557 32.856H42.9725V34.4461H44.557V32.856Z" fill="black"/>
<path opacity="0.25" d="M46.1415 32.856H44.557V34.4461H46.1415V32.856Z" fill="black"/>
<path opacity="0.25" d="M47.726 32.856H46.1415V34.4461H47.726V32.856Z" fill="black"/>
<path opacity="0.25" d="M49.3296 32.856H47.7451V34.4461H49.3296V32.856Z" fill="black"/>
<path opacity="0.25" d="M52.4986 32.856H50.9141V34.4461H52.4986V32.856Z" fill="black"/>
<path opacity="0.25" d="M54.0831 32.856H52.4986V34.4461H54.0831V32.856Z" fill="black"/>
<path opacity="0.25" d="M15.9787 34.446H14.3942V36.0362H15.9787V34.446Z" fill="black"/>
<path opacity="0.25" d="M17.5632 34.446H15.9787V36.0362H17.5632V34.446Z" fill="black"/>
<path opacity="0.25" d="M20.7513 34.446H19.1668V36.0362H20.7513V34.446Z" fill="black"/>
<path opacity="0.25" d="M27.0893 34.446H25.5048V36.0362H27.0893V34.446Z" fill="black"/>
<path opacity="0.25" d="M31.8619 34.446H30.2774V36.0362H31.8619V34.446Z" fill="black"/>
<path opacity="0.25" d="M35.0309 34.446H33.4464V36.0362H35.0309V34.446Z" fill="black"/>
<path opacity="0.25" d="M38.1999 34.446H36.6154V36.0362H38.1999V34.446Z" fill="black"/>
<path opacity="0.25" d="M41.388 34.446H39.8035V36.0362H41.388V34.446Z" fill="black"/>
<path opacity="0.25" d="M42.9725 34.446H41.388V36.0362H42.9725V34.446Z" fill="black"/>
<path opacity="0.25" d="M44.557 34.446H42.9725V36.0362H44.557V34.446Z" fill="black"/>
<path opacity="0.25" d="M46.1415 34.446H44.557V36.0362H46.1415V34.446Z" fill="black"/>
<path opacity="0.25" d="M47.726 34.446H46.1415V36.0362H47.726V34.446Z" fill="black"/>
<path opacity="0.25" d="M15.9787 36.0363H14.3942V37.6264H15.9787V36.0363Z" fill="black"/>
<path opacity="0.25" d="M19.1477 36.0363H17.5632V37.6264H19.1477V36.0363Z" fill="black"/>
<path opacity="0.25" d="M20.7513 36.0363H19.1668V37.6264H20.7513V36.0363Z" fill="black"/>
<path opacity="0.25" d="M22.3358 36.0363H20.7513V37.6264H22.3358V36.0363Z" fill="black"/>
<path opacity="0.25" d="M25.5048 36.0363H23.9203V37.6264H25.5048V36.0363Z" fill="black"/>
<path opacity="0.25" d="M27.0893 36.0363H25.5048V37.6264H27.0893V36.0363Z" fill="black"/>
<path opacity="0.25" d="M36.6154 36.0363H35.0309V37.6264H36.6154V36.0363Z" fill="black"/>
<path opacity="0.25" d="M42.9725 36.0363H41.388V37.6264H42.9725V36.0363Z" fill="black"/>
<path opacity="0.25" d="M44.557 36.0363H42.9725V37.6264H44.557V36.0363Z" fill="black"/>
<path opacity="0.25" d="M47.726 36.0363H46.1415V37.6264H47.726V36.0363Z" fill="black"/>
<path opacity="0.25" d="M50.9141 36.0363H49.3296V37.6264H50.9141V36.0363Z" fill="black"/>
<path opacity="0.25" d="M52.4986 36.0363H50.9141V37.6264H52.4986V36.0363Z" fill="black"/>
<path opacity="0.25" d="M54.0831 36.0363H52.4986V37.6264H54.0831V36.0363Z" fill="black"/>
<path opacity="0.25" d="M15.9787 37.6455H14.3942V39.2356H15.9787V37.6455Z" fill="black"/>
<path opacity="0.25" d="M20.7513 37.6455H19.1668V39.2356H20.7513V37.6455Z" fill="black"/>
<path opacity="0.25" d="M23.9203 37.6455H22.3358V39.2356H23.9203V37.6455Z" fill="black"/>
<path opacity="0.25" d="M30.2774 37.6455H28.6929V39.2356H30.2774V37.6455Z" fill="black"/>
<path opacity="0.25" d="M31.8619 37.6455H30.2774V39.2356H31.8619V37.6455Z" fill="black"/>
<path opacity="0.25" d="M35.0309 37.6455H33.4464V39.2356H35.0309V37.6455Z" fill="black"/>
<path opacity="0.25" d="M36.6154 37.6455H35.0309V39.2356H36.6154V37.6455Z" fill="black"/>
<path opacity="0.25" d="M38.1999 37.6455H36.6154V39.2356H38.1999V37.6455Z" fill="black"/>
<path opacity="0.25" d="M42.9725 37.6455H41.388V39.2356H42.9725V37.6455Z" fill="black"/>
<path opacity="0.25" d="M52.4986 37.6455H50.9141V39.2356H52.4986V37.6455Z" fill="black"/>
<path opacity="0.25" d="M54.0831 37.6455H52.4986V39.2356H54.0831V37.6455Z" fill="black"/>
<path opacity="0.25" d="M15.9787 39.2356H14.3942V40.8257H15.9787V39.2356Z" fill="black"/>
<path opacity="0.25" d="M25.5048 39.2356H23.9203V40.8257H25.5048V39.2356Z" fill="black"/>
<path opacity="0.25" d="M31.8619 39.2356H30.2774V40.8257H31.8619V39.2356Z" fill="black"/>
<path opacity="0.25" d="M35.0309 39.2356H33.4464V40.8257H35.0309V39.2356Z" fill="black"/>
<path opacity="0.25" d="M39.8035 39.2356H38.219V40.8257H39.8035V39.2356Z" fill="black"/>
<path opacity="0.25" d="M41.388 39.2356H39.8035V40.8257H41.388V39.2356Z" fill="black"/>
<path opacity="0.25" d="M42.9725 39.2356H41.388V40.8257H42.9725V39.2356Z" fill="black"/>
<path opacity="0.25" d="M44.557 39.2356H42.9725V40.8257H44.557V39.2356Z" fill="black"/>
<path opacity="0.25" d="M46.1415 39.2356H44.557V40.8257H46.1415V39.2356Z" fill="black"/>
<path opacity="0.25" d="M47.726 39.2356H46.1415V40.8257H47.726V39.2356Z" fill="black"/>
<path opacity="0.25" d="M49.3296 39.2356H47.7451V40.8257H49.3296V39.2356Z" fill="black"/>
<path opacity="0.25" d="M54.0831 39.2356H52.4986V40.8257H54.0831V39.2356Z" fill="black"/>
<path opacity="0.25" d="M28.6738 40.8257H27.0893V42.4158H28.6738V40.8257Z" fill="black"/>
<path opacity="0.25" d="M31.8619 40.8257H30.2774V42.4158H31.8619V40.8257Z" fill="black"/>
<path opacity="0.25" d="M38.1999 40.8257H36.6154V42.4158H38.1999V40.8257Z" fill="black"/>
<path opacity="0.25" d="M41.388 40.8257H39.8035V42.4158H41.388V40.8257Z" fill="black"/>
<path opacity="0.25" d="M47.726 40.8257H46.1415V42.4158H47.726V40.8257Z" fill="black"/>
<path opacity="0.25" d="M54.0831 40.8257H52.4986V42.4158H54.0831V40.8257Z" fill="black"/>
<path opacity="0.25" d="M28.6738 42.4158H27.0893V44.0059H28.6738V42.4158Z" fill="black"/>
<path opacity="0.25" d="M30.2774 42.4158H28.6929V44.0059H30.2774V42.4158Z" fill="black"/>
<path opacity="0.25" d="M31.8619 42.4158H30.2774V44.0059H31.8619V42.4158Z" fill="black"/>
<path opacity="0.25" d="M33.4464 42.4158H31.8619V44.0059H33.4464V42.4158Z" fill="black"/>
<path opacity="0.25" d="M35.0309 42.4158H33.4464V44.0059H35.0309V42.4158Z" fill="black"/>
<path opacity="0.25" d="M38.1999 42.4158H36.6154V44.0059H38.1999V42.4158Z" fill="black"/>
<path opacity="0.25" d="M41.388 42.4158H39.8035V44.0059H41.388V42.4158Z" fill="black"/>
<path opacity="0.25" d="M44.557 42.4158H42.9725V44.0059H44.557V42.4158Z" fill="black"/>
<path opacity="0.25" d="M47.726 42.4158H46.1415V44.0059H47.726V42.4158Z" fill="black"/>
<path opacity="0.25" d="M50.9141 42.4158H49.3296V44.0059H50.9141V42.4158Z" fill="black"/>
<path opacity="0.25" d="M52.4986 42.4158H50.9141V44.0059H52.4986V42.4158Z" fill="black"/>
<path opacity="0.25" d="M54.0831 42.4158H52.4986V44.0059H54.0831V42.4158Z" fill="black"/>
<path opacity="0.25" d="M30.2774 44.006H28.6929V45.5961H30.2774V44.006Z" fill="black"/>
<path opacity="0.25" d="M31.8619 44.006H30.2774V45.5961H31.8619V44.006Z" fill="black"/>
<path opacity="0.25" d="M33.4464 44.006H31.8619V45.5961H33.4464V44.006Z" fill="black"/>
<path opacity="0.25" d="M38.1999 44.006H36.6154V45.5961H38.1999V44.006Z" fill="black"/>
<path opacity="0.25" d="M41.388 44.006H39.8035V45.5961H41.388V44.006Z" fill="black"/>
<path opacity="0.25" d="M47.726 44.006H46.1415V45.5961H47.726V44.006Z" fill="black"/>
<path opacity="0.25" d="M49.3296 44.006H47.7451V45.5961H49.3296V44.006Z" fill="black"/>
<path opacity="0.25" d="M28.6738 45.5961H27.0893V47.1862H28.6738V45.5961Z" fill="black"/>
<path opacity="0.25" d="M30.2774 45.5961H28.6929V47.1862H30.2774V45.5961Z" fill="black"/>
<path opacity="0.25" d="M33.4464 45.5961H31.8619V47.1862H33.4464V45.5961Z" fill="black"/>
<path opacity="0.25" d="M35.0309 45.5961H33.4464V47.1862H35.0309V45.5961Z" fill="black"/>
<path opacity="0.25" d="M36.6154 45.5961H35.0309V47.1862H36.6154V45.5961Z" fill="black"/>
<path opacity="0.25" d="M41.388 45.5961H39.8035V47.1862H41.388V45.5961Z" fill="black"/>
<path opacity="0.25" d="M42.9725 45.5961H41.388V47.1862H42.9725V45.5961Z" fill="black"/>
<path opacity="0.25" d="M44.557 45.5961H42.9725V47.1862H44.557V45.5961Z" fill="black"/>
<path opacity="0.25" d="M46.1415 45.5961H44.557V47.1862H46.1415V45.5961Z" fill="black"/>
<path opacity="0.25" d="M47.726 45.5961H46.1415V47.1862H47.726V45.5961Z" fill="black"/>
<path opacity="0.25" d="M49.3296 45.5961H47.7451V47.1862H49.3296V45.5961Z" fill="black"/>
<path opacity="0.25" d="M28.6738 47.2053H27.0893V48.7954H28.6738V47.2053Z" fill="black"/>
<path opacity="0.25" d="M30.2774 47.2053H28.6929V48.7954H30.2774V47.2053Z" fill="black"/>
<path opacity="0.25" d="M31.8619 47.2053H30.2774V48.7954H31.8619V47.2053Z" fill="black"/>
<path opacity="0.25" d="M35.0309 47.2053H33.4464V48.7954H35.0309V47.2053Z" fill="black"/>
<path opacity="0.25" d="M39.8035 47.2053H38.219V48.7954H39.8035V47.2053Z" fill="black"/>
<path opacity="0.25" d="M41.388 47.2053H39.8035V48.7954H41.388V47.2053Z" fill="black"/>
<path opacity="0.25" d="M44.557 47.2053H42.9725V48.7954H44.557V47.2053Z" fill="black"/>
<path opacity="0.25" d="M47.726 47.2053H46.1415V48.7954H47.726V47.2053Z" fill="black"/>
<path opacity="0.25" d="M52.4986 47.2053H50.9141V48.7954H52.4986V47.2053Z" fill="black"/>
<path opacity="0.25" d="M54.0831 47.2053H52.4986V48.7954H54.0831V47.2053Z" fill="black"/>
<path opacity="0.25" d="M28.6738 48.7954H27.0893V50.3855H28.6738V48.7954Z" fill="black"/>
<path opacity="0.25" d="M30.2774 48.7954H28.6929V50.3855H30.2774V48.7954Z" fill="black"/>
<path opacity="0.25" d="M35.0309 48.7954H33.4464V50.3855H35.0309V48.7954Z" fill="black"/>
<path opacity="0.25" d="M36.6154 48.7954H35.0309V50.3855H36.6154V48.7954Z" fill="black"/>
<path opacity="0.25" d="M38.1999 48.7954H36.6154V50.3855H38.1999V48.7954Z" fill="black"/>
<path opacity="0.25" d="M47.726 48.7954H46.1415V50.3855H47.726V48.7954Z" fill="black"/>
<path opacity="0.25" d="M50.9141 48.7954H49.3296V50.3855H50.9141V48.7954Z" fill="black"/>
<path opacity="0.25" d="M54.0831 48.7954H52.4986V50.3855H54.0831V48.7954Z" fill="black"/>
<path opacity="0.25" d="M28.6738 50.3855H27.0893V51.9756H28.6738V50.3855Z" fill="black"/>
<path opacity="0.25" d="M30.2774 50.3855H28.6929V51.9756H30.2774V50.3855Z" fill="black"/>
<path opacity="0.25" d="M31.8619 50.3855H30.2774V51.9756H31.8619V50.3855Z" fill="black"/>
<path opacity="0.25" d="M35.0309 50.3855H33.4464V51.9756H35.0309V50.3855Z" fill="black"/>
<path opacity="0.25" d="M36.6154 50.3855H35.0309V51.9756H36.6154V50.3855Z" fill="black"/>
<path opacity="0.25" d="M41.388 50.3855H39.8035V51.9756H41.388V50.3855Z" fill="black"/>
<path opacity="0.25" d="M42.9725 50.3855H41.388V51.9756H42.9725V50.3855Z" fill="black"/>
<path opacity="0.25" d="M44.557 50.3855H42.9725V51.9756H44.557V50.3855Z" fill="black"/>
<path opacity="0.25" d="M46.1415 50.3855H44.557V51.9756H46.1415V50.3855Z" fill="black"/>
<path opacity="0.25" d="M47.726 50.3855H46.1415V51.9756H47.726V50.3855Z" fill="black"/>
<path opacity="0.25" d="M49.3296 50.3855H47.7451V51.9756H49.3296V50.3855Z" fill="black"/>
<path opacity="0.25" d="M52.4986 50.3855H50.9141V51.9756H52.4986V50.3855Z" fill="black"/>
<path opacity="0.25" d="M28.6738 51.9756H27.0893V53.5657H28.6738V51.9756Z" fill="black"/>
<path opacity="0.25" d="M36.6154 51.9756H35.0309V53.5657H36.6154V51.9756Z" fill="black"/>
<path opacity="0.25" d="M39.8035 51.9756H38.219V53.5657H39.8035V51.9756Z" fill="black"/>
<path opacity="0.25" d="M50.9141 51.9756H49.3296V53.5657H50.9141V51.9756Z" fill="black"/>
<path opacity="0.25" d="M52.4986 51.9756H50.9141V53.5657H52.4986V51.9756Z" fill="black"/>
<path opacity="0.25" d="M54.0831 51.9756H52.4986V53.5657H54.0831V51.9756Z" fill="black"/>
<path opacity="0.25" d="M14.7378 13.7363C14.5469 13.7363 14.3942 13.8896 14.3942 14.0812V15.3264V16.9165V18.5067V20.0968V21.6869V23.277V24.5414C14.3942 24.733 14.5469 24.8863 14.7378 24.8863H25.1802C25.3711 24.8863 25.5239 24.733 25.5239 24.5414V23.277V21.6869V20.1159V18.5258V16.9357V15.3264V14.062C25.5239 13.8704 25.3711 13.7172 25.1802 13.7172C25.1802 13.7363 14.7378 13.7363 14.7378 13.7363ZM23.9203 16.9165V18.5067V20.0968V21.6869V23.0854C23.9203 23.2004 23.8248 23.277 23.7294 23.277H16.1696C16.055 23.277 15.9787 23.1812 15.9787 23.0854V21.6869V20.1159V18.5258V16.9357V15.518C15.9787 15.4031 16.0741 15.3264 16.1696 15.3264H23.7294C23.8439 15.3264 23.9203 15.4222 23.9203 15.518V16.9165Z" fill="black"/>
<path opacity="0.25" d="M22.3358 20.1159V18.5258V17.2613C22.3358 17.0698 22.1831 16.9165 21.9921 16.9165H17.9068C17.7159 16.9165 17.5632 17.0698 17.5632 17.2613V18.5258V20.1159V21.3803C17.5632 21.5719 17.7159 21.7252 17.9068 21.7252H21.9921C22.1831 21.7252 22.3358 21.5719 22.3358 21.3803V20.1159Z" fill="black"/>
<path opacity="0.25" d="M43.3161 13.7363C43.1252 13.7363 42.9725 13.8896 42.9725 14.0812V15.3264V16.9165V18.5067V20.0968V21.6869V23.277V24.5414C42.9725 24.733 43.1252 24.8863 43.3161 24.8863H53.7586C53.9495 24.8863 54.1022 24.733 54.1022 24.5414V23.277V21.6869V20.1159V18.5258V16.9357V15.3264V14.062C54.1022 13.8704 53.9495 13.7172 53.7586 13.7172C53.7586 13.7363 43.3161 13.7363 43.3161 13.7363ZM52.4986 16.9165V18.5067V20.0968V21.6869V23.0854C52.4986 23.2004 52.4031 23.277 52.3077 23.277H44.7479C44.6333 23.277 44.557 23.1812 44.557 23.0854V21.6869V20.1159V18.5258V16.9357V15.518C44.557 15.4031 44.6524 15.3264 44.7479 15.3264H52.3077C52.4222 15.3264 52.4986 15.4222 52.4986 15.518V16.9165Z" fill="black"/>
<path opacity="0.25" d="M50.9141 20.1159V18.5258V17.2613C50.9141 17.0698 50.7614 16.9165 50.5705 16.9165H46.4851C46.2942 16.9165 46.1415 17.0698 46.1415 17.2613V18.5258V20.1159V21.3803C46.1415 21.5719 46.2942 21.7252 46.4851 21.7252H50.5705C50.7614 21.7252 50.9141 21.5719 50.9141 21.3803V20.1159Z" fill="black"/>
<path opacity="0.25" d="M14.7378 42.4158C14.5469 42.4158 14.3942 42.569 14.3942 42.7606V44.025V45.6152V47.2053V48.7954V50.3855V51.9756V53.24C14.3942 53.4316 14.5469 53.5849 14.7378 53.5849H25.1802C25.3711 53.5849 25.5239 53.4316 25.5239 53.24V51.9756V50.3855V48.7954V47.2053V45.596V44.0059V42.7415C25.5239 42.5499 25.3711 42.3966 25.1802 42.3966C25.1802 42.4158 14.7378 42.4158 14.7378 42.4158ZM23.9203 45.596V47.1861V48.7762V50.3663V51.7649C23.9203 51.8798 23.8248 51.9565 23.7294 51.9565H16.1696C16.055 51.9565 15.9787 51.8607 15.9787 51.7649V50.3855V48.7954V47.2053V45.596V44.1975C15.9787 44.0825 16.0741 44.0059 16.1696 44.0059H23.7294C23.8439 44.0059 23.9203 44.1017 23.9203 44.1975V45.596Z" fill="black"/>
<path opacity="0.25" d="M22.3358 48.7954V47.2053V45.9409C22.3358 45.7493 22.1831 45.5961 21.9921 45.5961H17.9068C17.7159 45.5961 17.5632 45.7493 17.5632 45.9409V47.2053V48.7954V50.0599C17.5632 50.2515 17.7159 50.4047 17.9068 50.4047H21.9921C22.1831 50.4047 22.3358 50.2515 22.3358 50.0599V48.7954Z" fill="black"/>
<path d="M67.9038 14.655C67.732 14.3868 67.3692 14.3294 67.102 14.5018L62.4821 17.6054V8.29459C62.4821 6.78111 61.2603 5.53584 59.7331 5.53584H30.5439L27.7376 7.43248C27.6421 7.48995 27.5276 7.52827 27.413 7.52827C27.2221 7.52827 27.0503 7.43248 26.9358 7.27922C26.764 7.01101 26.8212 6.66616 27.0885 6.47458L27.4703 6.22553L31.1547 3.84994C31.422 3.67752 31.4984 3.33267 31.3266 3.06446C31.1547 2.79625 30.8111 2.71962 30.5439 2.89204L26.4394 5.555H24.244L21.4377 7.45164C21.3423 7.50911 21.2277 7.54743 21.1132 7.54743C20.9223 7.54743 20.7505 7.45164 20.6359 7.29838C20.4641 7.03016 20.5214 6.68532 20.7887 6.49374L26.974 2.3173C27.2412 2.14488 27.2985 1.78087 27.1267 1.51266C26.9549 1.24445 26.5921 1.18698 26.3249 1.3594L20.1014 5.555H9.20079C7.69265 5.555 6.45177 6.78111 6.45177 8.31375V15.9003L1.94644 18.9081C1.67917 19.0805 1.60281 19.4445 1.79372 19.7128C1.90826 19.8852 2.08007 19.9618 2.27098 19.9618C2.38552 19.9618 2.48097 19.9235 2.59551 19.866L6.47086 17.2797L7.32993 16.7049C7.5972 16.5325 7.94082 16.6092 8.13173 16.8582C8.30354 17.1264 8.22718 17.4713 7.979 17.6628L6.48995 18.6591V20.6515L4.6 21.9159C4.33274 22.0883 4.27547 22.4523 4.44728 22.7206C4.56182 22.893 4.73364 22.9696 4.92454 22.9696C5.03908 22.9696 5.15363 22.9313 5.24908 22.8738L7.23448 21.5328C7.46356 21.4753 7.73083 21.5519 7.86446 21.7627C8.03628 22.0309 7.979 22.3757 7.71174 22.5673L6.50904 23.3911V41.1889L0.247393 45.3653C-0.0198722 45.5377 -0.0771433 45.9017 0.0946702 46.1699C0.209213 46.3424 0.381026 46.419 0.57193 46.419C0.686473 46.419 0.801015 46.3807 0.896467 46.3232L7.63538 41.7828C7.88355 41.6678 8.189 41.7444 8.34172 41.9935C8.51354 42.2617 8.45626 42.6066 8.189 42.7981L6.47086 43.9476V74.3513C6.47086 75.8457 7.65447 77.0526 9.12443 77.0909L7.53993 78.1638C7.27266 78.3362 7.21539 78.7002 7.3872 78.9684C7.50174 79.1409 7.67356 79.2175 7.86446 79.2175C7.979 79.2175 8.09355 79.1792 8.189 79.1217L14.3934 74.9453C14.6606 74.7728 15.0043 74.8303 15.1952 75.0985C15.367 75.3667 15.3097 75.7116 15.0425 75.9032L13.267 77.1101H27.3176L25.8094 78.1255C25.5422 78.2979 25.4849 78.6619 25.6567 78.9301C25.7713 79.1025 25.9431 79.1792 26.134 79.1792C26.2485 79.1792 26.3631 79.1408 26.4585 79.0834L34.7056 73.585C34.9728 73.4126 35.3165 73.4701 35.5074 73.7383C35.6983 74.0065 35.6219 74.3513 35.3546 74.5429L31.5175 77.1293H52.0778L50.8369 77.9339C50.5697 78.1063 50.4933 78.4703 50.6651 78.7385C50.7797 78.9109 50.9515 79.0067 51.1424 79.0067C51.2569 79.0067 51.3524 78.9684 51.4478 78.9109L57.4995 74.9836C57.7668 74.8111 58.1104 74.8878 58.3013 75.156C58.4731 75.4242 58.3967 75.769 58.1295 75.9606L56.2968 77.1484H59.8094C61.3176 77.1484 62.5585 75.9223 62.5585 74.3897V49.695L61.3748 50.4996C61.2794 50.5571 61.1649 50.5954 61.0503 50.5954C60.8594 50.5954 60.6876 50.4996 60.573 50.3464C60.4012 50.0782 60.4585 49.7333 60.7258 49.5418L67.312 45.1163C67.5792 44.9438 67.6365 44.5798 67.4647 44.3116C67.2929 44.0434 66.9302 43.9859 66.6629 44.1584L62.4821 46.9363V24.6172L61.2985 25.4218C61.203 25.4793 61.0885 25.5176 60.9739 25.5176C60.783 25.5176 60.6112 25.4218 60.4967 25.2686C60.3249 25.0004 60.3821 24.6555 60.6494 24.4639L62.463 23.2378L66.1665 20.7473C66.4338 20.5749 66.4911 20.2109 66.3193 19.9426C66.1474 19.6744 65.7847 19.617 65.5175 19.7894L62.4821 21.8393V20.3641L61.2985 21.1688C61.203 21.2262 61.0885 21.2646 60.9739 21.2646C60.783 21.2646 60.6112 21.1688 60.4967 21.0155C60.3249 20.7473 60.3821 20.4024 60.6494 20.2109L62.463 18.9848L67.7129 15.4405C67.9992 15.2681 68.0756 14.9041 67.9038 14.655ZM58.9122 56.9559C58.9122 57.7414 58.2822 58.3736 57.4995 58.3736H11.0526C10.2699 58.3736 9.63987 57.7414 9.63987 56.9559V10.3637C9.63987 9.57818 10.2699 8.94596 11.0526 8.94596H57.4804C58.2631 8.94596 58.8931 9.57818 58.8931 10.3637V56.9559H58.9122ZM33.1974 2.54719C33.0065 2.54719 32.8347 2.4514 32.7202 2.29814C32.5483 2.02993 32.6056 1.68508 32.8729 1.4935L34.9346 0.0949703C35.2019 -0.0774516 35.5455 -0.0199776 35.7364 0.248234C35.9083 0.516446 35.851 0.86129 35.5837 1.05287L33.5029 2.4514C33.4074 2.50888 33.2929 2.54719 33.1974 2.54719ZM2.4237 50.3081C2.23279 50.3081 2.06098 50.2123 1.94644 50.059C1.77463 49.7908 1.8319 49.446 2.09916 49.2544L4.56182 47.6068C4.82909 47.4344 5.17272 47.4918 5.36362 47.7601C5.53543 48.0283 5.47816 48.3731 5.2109 48.5647L2.74824 50.2123C2.63369 50.2889 2.51915 50.3081 2.4237 50.3081ZM2.4237 75.4434C2.23279 75.4434 2.06098 75.3476 1.94644 75.1943C1.77463 74.9261 1.8319 74.5812 2.09916 74.3897L4.56182 72.7421C4.82909 72.5697 5.17272 72.6271 5.36362 72.8953C5.53543 73.1636 5.47816 73.5084 5.2109 73.7L2.74824 75.3476C2.63369 75.405 2.51915 75.4434 2.4237 75.4434ZM64.8875 40.0777C64.6966 40.0777 64.5248 39.9819 64.4102 39.8286C64.2384 39.5604 64.2957 39.2156 64.563 39.024L66.5293 37.7021C66.7965 37.5297 67.1402 37.5872 67.3311 37.8554C67.5029 38.1236 67.4456 38.4684 67.1783 38.66L65.212 39.9819C65.1166 40.0394 65.002 40.0777 64.8875 40.0777ZM44.5371 80.9992C44.3462 80.9992 44.1744 80.9034 44.0599 80.7501C43.888 80.4819 43.9453 80.1371 44.2126 79.9455L46.1789 78.6236C46.4462 78.4512 46.7898 78.5086 46.9807 78.7768C47.1525 79.0451 47.0952 79.3899 46.828 79.5815L44.8617 80.9034C44.7662 80.9609 44.6517 80.9992 44.5371 80.9992ZM63.9139 63.8528C63.723 63.8528 63.5512 63.757 63.4366 63.6037C63.2648 63.3355 63.3221 62.9907 63.5893 62.7991L65.5556 61.4772C65.8229 61.3048 66.1665 61.3622 66.3574 61.6304C66.5293 61.8987 66.472 62.2435 66.2047 62.4351L64.2384 63.757C64.143 63.8336 64.0284 63.8528 63.9139 63.8528Z" fill="black"/>
<path d="M20.5794 67.8576C20.5794 68.3749 20.3885 68.7963 20.0258 69.0837C19.6631 69.3711 19.1286 69.5435 18.4604 69.5435C17.7541 69.5435 17.2004 69.4477 16.8186 69.2561V68.5281C17.0668 68.6431 17.3532 68.7197 17.6586 68.7772C17.9641 68.8347 18.2313 68.873 18.4986 68.873C18.9377 68.873 19.2813 68.7963 19.5104 68.6239C19.7395 68.4515 19.854 68.2216 19.854 67.9151C19.854 67.7235 19.8158 67.5511 19.7395 67.417C19.6631 67.2829 19.5295 67.1679 19.3386 67.053C19.1477 66.938 18.8613 66.8231 18.4604 66.6698C17.9068 66.4591 17.5059 66.2292 17.2768 65.961C17.0477 65.6927 16.9141 65.3287 16.9141 64.9073C16.9141 64.4475 17.0859 64.0643 17.4295 63.7961C17.7732 63.5279 18.2313 63.3746 18.804 63.3746C19.3958 63.3746 19.9495 63.4896 20.4458 63.7195L20.2167 64.3709C19.7013 64.1601 19.224 64.0452 18.7849 64.0452C18.4222 64.0452 18.155 64.1218 17.945 64.2751C17.7541 64.4283 17.6395 64.6391 17.6395 64.9264C17.6395 65.118 17.6777 65.2904 17.7541 65.4245C17.8304 65.5586 17.9641 65.6736 18.1359 65.7694C18.3077 65.8843 18.575 65.9993 18.9568 66.1334C19.3958 66.3058 19.7395 66.4591 19.9495 66.6123C20.1595 66.7656 20.3313 66.938 20.4267 67.1488C20.5222 67.3212 20.5794 67.5702 20.5794 67.8576ZM24.3403 64.0452C23.6912 64.0452 23.1948 64.2559 22.8321 64.6965C22.4694 65.1372 22.2785 65.7119 22.2785 66.4591C22.2785 67.2254 22.4503 67.8193 22.813 68.2408C23.1757 68.6622 23.6721 68.873 24.3403 68.873C24.7602 68.873 25.2375 68.7963 25.772 68.6431V69.2945C25.5239 69.3902 25.2757 69.4477 25.0466 69.486C24.8175 69.5243 24.5502 69.5435 24.2448 69.5435C23.3666 69.5435 22.6985 69.2753 22.2212 68.7389C21.744 68.2024 21.5149 67.4361 21.5149 66.4591C21.5149 65.846 21.6294 65.3096 21.8585 64.8306C22.0876 64.3708 22.4121 64.0068 22.8512 63.7578C23.2903 63.5087 23.7866 63.3746 24.3784 63.3746C25.0084 63.3746 25.562 63.4896 26.0202 63.7195L25.7148 64.3517C25.2184 64.141 24.7602 64.0452 24.3403 64.0452ZM30.8119 69.4477L30.0865 67.5894H27.7192L27.0129 69.4477H26.2493L28.5783 63.4321H29.2465L31.5755 69.4477H30.8119ZM29.8574 66.9189L29.1892 65.0989L28.9029 64.1984C28.8265 64.5241 28.731 64.8306 28.6547 65.0989L27.9865 66.9189H29.8574ZM37.1308 69.4477H36.2527L33.0646 64.4666H33.0264L33.0455 64.7923C33.0837 65.2904 33.1027 65.7119 33.1027 66.0951V69.4477H32.4155V63.4513H33.2936L33.4845 63.7386L35.4509 66.7848L36.5008 68.4132H36.539C36.539 68.3557 36.5199 68.1067 36.5008 67.7043C36.4817 67.302 36.4817 67.0146 36.4817 66.8231V63.4513H37.1881V69.4477H37.1308ZM43.5643 69.4477L41.598 64.1984H41.5598C41.598 64.6391 41.6171 65.1755 41.6171 65.8077V69.4477H40.9298V63.4513H42.037L43.8697 68.3557H43.9079L45.7788 63.4513H46.886V69.4477H46.1415V65.7694C46.1415 65.3671 46.1606 64.8306 46.1988 64.2176H46.1606L44.1752 69.4669H43.5643V69.4477ZM51.8495 69.4477H48.5087V63.4513H51.8495V64.1218H49.2532V65.9801H51.6777V66.6315H49.2532V68.7772H51.8304V69.4477H51.8495Z" fill="white"/>
</g>
<defs>
<clipPath id="clip0">
<rect width="68" height="81" fill="white"/>
</clipPath>
</defs>
</svg>
