<svg width="68" height="81" viewBox="0 0 68 81" fill="none" xmlns="http://www.w3.org/2000/svg">
<path d="M67.9038 14.655C67.732 14.3868 67.3692 14.3294 67.102 14.5018L62.4821 17.6054V8.29459C62.4821 6.78111 61.2603 5.53584 59.7331 5.53584H30.5439L27.7376 7.43248C27.6421 7.48995 27.5276 7.52827 27.413 7.52827C27.2221 7.52827 27.0503 7.43248 26.9358 7.27922C26.764 7.01101 26.8212 6.66616 27.0885 6.47458L27.4703 6.22553L31.1547 3.84994C31.422 3.67752 31.4984 3.33267 31.3266 3.06446C31.1547 2.79625 30.8111 2.71962 30.5439 2.89204L26.4394 5.555H24.244L21.4377 7.45164C21.3423 7.50911 21.2277 7.54743 21.1132 7.54743C20.9223 7.54743 20.7505 7.45164 20.6359 7.29838C20.4641 7.03016 20.5214 6.68532 20.7887 6.49374L26.974 2.3173C27.2412 2.14488 27.2985 1.78087 27.1267 1.51266C26.9549 1.24445 26.5921 1.18698 26.3249 1.3594L20.1014 5.555H9.20079C7.69265 5.555 6.45177 6.78111 6.45177 8.31375V15.9003L1.94644 18.9081C1.67917 19.0805 1.60281 19.4445 1.79372 19.7128C1.90826 19.8852 2.08007 19.9618 2.27098 19.9618C2.38552 19.9618 2.48097 19.9235 2.59551 19.866L6.47086 17.2797L7.32993 16.7049C7.5972 16.5325 7.94082 16.6092 8.13173 16.8582C8.30354 17.1264 8.22718 17.4713 7.979 17.6628L6.48995 18.6591V20.6515L4.6 21.9159C4.33274 22.0883 4.27547 22.4523 4.44728 22.7206C4.56182 22.893 4.73364 22.9696 4.92454 22.9696C5.03908 22.9696 5.15363 22.9313 5.24908 22.8738L7.23448 21.5328C7.46356 21.4753 7.73083 21.5519 7.86446 21.7627C8.03628 22.0309 7.979 22.3757 7.71174 22.5673L6.50904 23.3911V41.1889L0.247393 45.3653C-0.0198722 45.5377 -0.0771433 45.9017 0.0946702 46.1699C0.209213 46.3424 0.381026 46.419 0.57193 46.419C0.686473 46.419 0.801015 46.3807 0.896467 46.3232L7.63538 41.7828C7.88355 41.6678 8.189 41.7444 8.34172 41.9935C8.51354 42.2617 8.45626 42.6066 8.189 42.7981L6.47086 43.9476V74.3513C6.47086 75.8457 7.65447 77.0526 9.12443 77.0909L7.53993 78.1638C7.27266 78.3362 7.21539 78.7002 7.3872 78.9684C7.50174 79.1409 7.67356 79.2175 7.86446 79.2175C7.979 79.2175 8.09355 79.1792 8.189 79.1217L14.3934 74.9453C14.6606 74.7728 15.0043 74.8303 15.1952 75.0985C15.367 75.3667 15.3097 75.7116 15.0425 75.9032L13.267 77.1101H27.3176L25.8094 78.1255C25.5422 78.2979 25.4849 78.6619 25.6567 78.9301C25.7713 79.1025 25.9431 79.1792 26.134 79.1792C26.2485 79.1792 26.3631 79.1408 26.4585 79.0834L34.7056 73.585C34.9728 73.4126 35.3165 73.4701 35.5074 73.7383C35.6983 74.0065 35.6219 74.3513 35.3546 74.5429L31.5175 77.1293H52.0778L50.8369 77.9339C50.5697 78.1063 50.4933 78.4703 50.6651 78.7385C50.7797 78.9109 50.9515 79.0067 51.1424 79.0067C51.2569 79.0067 51.3524 78.9684 51.4478 78.9109L57.4995 74.9836C57.7668 74.8111 58.1104 74.8878 58.3013 75.156C58.4731 75.4242 58.3967 75.769 58.1295 75.9606L56.2968 77.1484H59.8094C61.3176 77.1484 62.5585 75.9223 62.5585 74.3897V49.695L61.3748 50.4996C61.2794 50.5571 61.1649 50.5954 61.0503 50.5954C60.8594 50.5954 60.6876 50.4996 60.573 50.3464C60.4012 50.0782 60.4585 49.7333 60.7258 49.5418L67.312 45.1163C67.5792 44.9438 67.6365 44.5798 67.4647 44.3116C67.2929 44.0434 66.9302 43.9859 66.6629 44.1584L62.4821 46.9363V24.6172L61.2985 25.4218C61.203 25.4793 61.0885 25.5176 60.9739 25.5176C60.783 25.5176 60.6112 25.4218 60.4967 25.2686C60.3249 25.0004 60.3821 24.6555 60.6494 24.4639L62.463 23.2378L66.1665 20.7473C66.4338 20.5749 66.4911 20.2109 66.3193 19.9426C66.1474 19.6744 65.7847 19.617 65.5175 19.7894L62.4821 21.8393V20.3641L61.2985 21.1688C61.203 21.2262 61.0885 21.2646 60.9739 21.2646C60.783 21.2646 60.6112 21.1688 60.4967 21.0155C60.3249 20.7473 60.3821 20.4024 60.6494 20.2109L62.463 18.9848L67.7129 15.4405C67.9992 15.2681 68.0756 14.9041 67.9038 14.655ZM58.9122 56.9559C58.9122 57.7414 58.2822 58.3736 57.4995 58.3736H11.0526C10.2699 58.3736 9.63987 57.7414 9.63987 56.9559V10.3637C9.63987 9.57818 10.2699 8.94596 11.0526 8.94596H57.4804C58.2631 8.94596 58.8931 9.57818 58.8931 10.3637V56.9559H58.9122ZM33.1974 2.54719C33.0065 2.54719 32.8347 2.4514 32.7202 2.29814C32.5483 2.02993 32.6056 1.68508 32.8729 1.4935L34.9346 0.0949703C35.2019 -0.0774516 35.5455 -0.0199776 35.7364 0.248234C35.9083 0.516446 35.851 0.86129 35.5837 1.05287L33.5029 2.4514C33.4074 2.50888 33.2929 2.54719 33.1974 2.54719ZM2.4237 50.3081C2.23279 50.3081 2.06098 50.2123 1.94644 50.059C1.77463 49.7908 1.8319 49.446 2.09916 49.2544L4.56182 47.6068C4.82909 47.4344 5.17272 47.4918 5.36362 47.7601C5.53543 48.0283 5.47816 48.3731 5.2109 48.5647L2.74824 50.2123C2.63369 50.2889 2.51915 50.3081 2.4237 50.3081ZM2.4237 75.4434C2.23279 75.4434 2.06098 75.3476 1.94644 75.1943C1.77463 74.9261 1.8319 74.5812 2.09916 74.3897L4.56182 72.7421C4.82909 72.5697 5.17272 72.6271 5.36362 72.8953C5.53543 73.1636 5.47816 73.5084 5.2109 73.7L2.74824 75.3476C2.63369 75.405 2.51915 75.4434 2.4237 75.4434ZM64.8875 40.0777C64.6966 40.0777 64.5248 39.9819 64.4102 39.8286C64.2384 39.5604 64.2957 39.2156 64.563 39.024L66.5293 37.7021C66.7965 37.5297 67.1402 37.5872 67.3311 37.8554C67.5029 38.1236 67.4456 38.4684 67.1783 38.66L65.212 39.9819C65.1166 40.0394 65.002 40.0777 64.8875 40.0777ZM44.5371 80.9992C44.3462 80.9992 44.1744 80.9034 44.0599 80.7501C43.888 80.4819 43.9453 80.1371 44.2126 79.9455L46.1789 78.6236C46.4462 78.4512 46.7898 78.5086 46.9807 78.7768C47.1525 79.0451 47.0952 79.3899 46.828 79.5815L44.8617 80.9034C44.7662 80.9609 44.6517 80.9992 44.5371 80.9992ZM63.9139 63.8528C63.723 63.8528 63.5512 63.757 63.4366 63.6037C63.2648 63.3355 63.3221 62.9907 63.5893 62.7991L65.5556 61.4772C65.8229 61.3048 66.1665 61.3622 66.3574 61.6304C66.5293 61.8987 66.472 62.2435 66.2047 62.4351L64.2384 63.757C64.143 63.8336 64.0284 63.8528 63.9139 63.8528Z" fill="black"/>
<path d="M20.5794 67.8576C20.5794 68.3749 20.3885 68.7963 20.0258 69.0837C19.6631 69.3711 19.1286 69.5435 18.4604 69.5435C17.7541 69.5435 17.2004 69.4477 16.8186 69.2561V68.5281C17.0668 68.6431 17.3532 68.7197 17.6586 68.7772C17.9641 68.8347 18.2313 68.873 18.4986 68.873C18.9377 68.873 19.2813 68.7963 19.5104 68.6239C19.7395 68.4515 19.854 68.2216 19.854 67.9151C19.854 67.7235 19.8158 67.5511 19.7395 67.417C19.6631 67.2829 19.5295 67.1679 19.3386 67.053C19.1477 66.938 18.8613 66.8231 18.4604 66.6698C17.9068 66.4591 17.5059 66.2292 17.2768 65.961C17.0477 65.6927 16.9141 65.3287 16.9141 64.9073C16.9141 64.4475 17.0859 64.0643 17.4295 63.7961C17.7732 63.5279 18.2313 63.3746 18.804 63.3746C19.3958 63.3746 19.9495 63.4896 20.4458 63.7195L20.2167 64.3709C19.7013 64.1601 19.224 64.0452 18.7849 64.0452C18.4222 64.0452 18.155 64.1218 17.945 64.2751C17.7541 64.4283 17.6395 64.6391 17.6395 64.9264C17.6395 65.118 17.6777 65.2904 17.7541 65.4245C17.8304 65.5586 17.9641 65.6736 18.1359 65.7694C18.3077 65.8843 18.575 65.9993 18.9568 66.1334C19.3958 66.3058 19.7395 66.4591 19.9495 66.6123C20.1595 66.7656 20.3313 66.938 20.4267 67.1488C20.5222 67.3212 20.5794 67.5702 20.5794 67.8576ZM24.3403 64.0452C23.6912 64.0452 23.1948 64.2559 22.8321 64.6965C22.4694 65.1372 22.2785 65.7119 22.2785 66.4591C22.2785 67.2254 22.4503 67.8193 22.813 68.2408C23.1757 68.6622 23.6721 68.873 24.3403 68.873C24.7602 68.873 25.2375 68.7963 25.772 68.6431V69.2945C25.5239 69.3902 25.2757 69.4477 25.0466 69.486C24.8175 69.5243 24.5502 69.5435 24.2448 69.5435C23.3666 69.5435 22.6985 69.2753 22.2212 68.7389C21.744 68.2024 21.5149 67.4361 21.5149 66.4591C21.5149 65.846 21.6294 65.3096 21.8585 64.8306C22.0876 64.3708 22.4121 64.0068 22.8512 63.7578C23.2903 63.5087 23.7866 63.3746 24.3784 63.3746C25.0084 63.3746 25.562 63.4896 26.0202 63.7195L25.7148 64.3517C25.2184 64.141 24.7602 64.0452 24.3403 64.0452ZM30.8119 69.4477L30.0865 67.5894H27.7192L27.0129 69.4477H26.2493L28.5783 63.4321H29.2465L31.5755 69.4477H30.8119ZM29.8574 66.9189L29.1892 65.0989L28.9029 64.1984C28.8265 64.5241 28.731 64.8306 28.6547 65.0989L27.9865 66.9189H29.8574ZM37.1308 69.4477H36.2527L33.0646 64.4666H33.0264L33.0455 64.7923C33.0837 65.2904 33.1027 65.7119 33.1027 66.0951V69.4477H32.4155V63.4513H33.2936L33.4845 63.7386L35.4509 66.7848L36.5008 68.4132H36.539C36.539 68.3557 36.5199 68.1067 36.5008 67.7043C36.4817 67.302 36.4817 67.0146 36.4817 66.8231V63.4513H37.1881V69.4477H37.1308ZM43.5643 69.4477L41.598 64.1984H41.5598C41.598 64.6391 41.6171 65.1755 41.6171 65.8077V69.4477H40.9298V63.4513H42.037L43.8697 68.3557H43.9079L45.7788 63.4513H46.886V69.4477H46.1415V65.7694C46.1415 65.3671 46.1606 64.8306 46.1988 64.2176H46.1606L44.1752 69.4669H43.5643V69.4477ZM51.8495 69.4477H48.5087V63.4513H51.8495V64.1218H49.2532V65.9801H51.6777V66.6315H49.2532V68.7772H51.8304V69.4477H51.8495Z" fill="white"/>
</svg>
