<svg width="83" height="80" viewBox="0 0 83 80" fill="none" xmlns="http://www.w3.org/2000/svg">
<g clip-path="url(#clip0)">
<path d="M17.3016 79.3173H14.1014C14.1014 79.3173 13.6223 79.3343 13.0233 78.8564C13.0233 78.8564 11.8767 79.5221 9.92577 79.5221C7.01649 79.5221 4.84309 77.764 4.84309 77.764C4.82598 77.747 4.79175 77.747 4.77464 77.747H2.20763C1.74556 77.747 0.650307 77.5763 0.650307 75.9377V71.3121C0.650307 70.3051 1.47175 69.4858 2.48144 69.4858H4.94577L4.87732 69.9467C4.82598 70.271 4.80886 70.6294 4.80886 71.0049C4.80886 71.0561 4.84309 71.0902 4.84309 71.0902C4.8602 71.1073 4.89443 71.1244 4.92866 71.1244C4.98 71.1244 5.01422 71.0902 5.01422 71.0902C5.03134 71.0732 5.04845 71.039 5.04845 71.0049C4.98 68.3251 6.5202 67.6253 9.3268 66.3793L9.48082 66.3111C11.6542 65.3382 11.6029 63.3412 11.5687 62.1464C11.5515 61.8733 11.5515 61.6343 11.5687 61.4807L11.6029 61.2588L11.8082 61.1735C11.8767 61.1393 12.0307 61.0881 12.2703 61.0881C12.3388 61.0881 12.4243 61.0881 12.5099 61.1052C12.8008 61.1564 13.3485 61.3271 13.7421 61.9586C14.3924 63.0169 14.2383 65.0139 13.6907 66.1233C13.3484 66.8231 13.3313 67.5059 13.6223 67.9667C13.8961 68.3934 14.3924 68.6153 15.0769 68.6153H25.6359C26.115 68.6153 26.5087 68.7519 26.7654 69.0079C26.9878 69.2298 27.1076 69.52 27.1076 69.8443C27.1076 70.3904 26.7311 70.9366 26.0295 70.9366H16.9594C16.8909 70.9366 16.8225 70.9878 16.8225 71.0732C16.8225 71.1585 16.8738 71.2097 16.9594 71.2097H20.228C20.9126 71.2097 21.4773 71.773 21.4773 72.4557C21.4773 73.1385 20.9126 73.7017 20.228 73.7017H16.8054C16.7369 73.7017 16.6684 73.7529 16.6684 73.8383C16.6684 73.9236 16.7198 73.9748 16.8054 73.9748H18.7049C19.6633 73.9748 19.9542 74.7088 19.9542 75.3915C19.9542 76.0742 19.3895 76.6375 18.7049 76.6375H16.8054L16.7711 76.6546C16.7369 76.6716 16.6856 76.7058 16.6856 76.7741C16.6856 76.8423 16.7198 76.8765 16.7711 76.8935L17.5412 76.9277C18.106 77.0301 18.5509 77.5421 18.5509 78.1395C18.5509 78.754 17.9862 79.3173 17.3016 79.3173C17.3016 79.3173 17.2845 79.3173 17.2674 79.3343L17.3016 79.3173ZM80.7924 2.83337H78.0542C78.02 2.83337 78.0029 2.83337 77.9858 2.8163C76.0862 1.50203 71.6196 -0.273097 66.7936 1.12652L66.4342 1.246C66.4171 1.246 66.4 1.26307 66.4 1.26307C65.7155 1.26307 65.1507 1.82633 65.1507 2.50907C65.1507 3.10646 65.5786 3.61852 66.1604 3.72093L66.246 3.75507C66.2802 3.77213 66.3315 3.80627 66.3315 3.87455C66.3315 3.94282 66.2973 3.97696 66.246 3.99402L66.2117 4.01109H64.9796C64.295 4.01109 63.7303 4.57435 63.7303 5.25709C63.7303 5.93983 64.295 6.50309 64.9796 6.50309H66.1946C66.2631 6.50309 66.3315 6.5543 66.3315 6.63964C66.3315 6.72498 66.2802 6.77619 66.1946 6.77619H63.4565C62.772 6.77619 62.2072 7.33945 62.2072 8.02219C62.2072 8.70493 62.772 9.26819 63.4565 9.26819H66.0406C66.1091 9.26819 66.1775 9.31939 66.1775 9.40474C66.1775 9.49008 66.1262 9.54128 66.0406 9.54128H56.9705C56.2517 9.54128 55.8924 10.0875 55.8924 10.6337C55.8924 10.958 56.0122 11.2481 56.2346 11.47C56.4913 11.726 56.8849 11.8626 57.3641 11.8626H67.9231C68.6076 11.8626 69.1039 12.0845 69.3777 12.5112C69.6687 12.9891 69.6515 13.6548 69.3093 14.3546C68.7616 15.464 68.6247 17.4611 69.2579 18.5193C69.6515 19.1508 70.1992 19.3386 70.4901 19.3727C70.5757 19.3898 70.6612 19.3898 70.7297 19.3898C70.9522 19.3898 71.1233 19.3386 71.1917 19.3045L71.3971 19.2191L71.4313 18.9972C71.4484 18.8436 71.4484 18.6047 71.4313 18.3316C71.3971 17.1368 71.3287 15.1397 73.5192 14.1668L73.6732 14.0986C76.4798 12.8526 78.02 12.1698 77.9515 9.47301C77.9515 9.4218 77.9687 9.38767 77.9858 9.38767C78.0029 9.38767 78.0371 9.35353 78.0713 9.35353C78.1227 9.35353 78.1398 9.3706 78.1569 9.38767C78.174 9.40474 78.1911 9.43887 78.1911 9.47301C78.2082 9.84852 78.174 10.207 78.1227 10.5313L78.0542 10.9921H80.5186C81.5282 10.9921 82.3497 10.1728 82.3497 9.16578V4.64263C82.3497 3.02112 81.2544 2.83337 80.7924 2.83337Z" fill="white"/>
<path d="M51.6311 11.0261C51.6311 11.3163 51.4087 11.5382 51.1177 11.5382H12.9035V56.0016C12.9035 56.2917 12.681 56.5136 12.3901 56.5136C12.0992 56.5136 11.8767 56.2917 11.8767 56.0016V11.5382H7.25608C6.96516 11.5382 6.74268 11.3163 6.74268 11.0261C6.74268 10.7359 6.96516 10.514 7.25608 10.514H11.8767V5.90555C11.8767 5.61539 12.0992 5.3935 12.3901 5.3935C12.681 5.3935 12.9035 5.61539 12.9035 5.90555V10.514H51.1177C51.4087 10.514 51.6311 10.753 51.6311 11.0261ZM32.3786 70.3561H70.5928V74.9646C70.5928 75.2548 70.8153 75.4767 71.1062 75.4767C71.3971 75.4767 71.6196 75.2548 71.6196 74.9646V70.3561H76.2402C76.5311 70.3561 76.7536 70.1343 76.7536 69.8441C76.7536 69.5539 76.5311 69.332 76.2402 69.332H71.6196V24.8857C71.6196 24.5955 71.3971 24.3737 71.1062 24.3737C70.8153 24.3737 70.5928 24.5955 70.5928 24.8857V69.3491H32.3786C32.0876 69.3491 31.8652 69.571 31.8652 69.8612C31.8652 70.1513 32.0876 70.3561 32.3786 70.3561ZM27.7751 69.9124C27.7751 70.7487 27.1761 71.6534 26.0466 71.6534H21.7682C21.9052 71.9094 21.9736 72.1995 21.9736 72.5068C21.9736 73.4967 21.2035 74.299 20.228 74.3843C20.3649 74.6403 20.4334 74.9305 20.4334 75.2548C20.4334 76.2106 19.7146 76.9958 18.7905 77.1153C18.9274 77.3713 19.013 77.6785 19.013 77.9858C19.013 79.0269 18.1744 79.8633 17.1305 79.8633H14.0843C13.6565 79.8633 13.28 79.7267 12.9548 79.4878C12.0649 79.8292 11.1237 79.9998 10.1654 79.9998C8.36845 79.9998 6.50309 79.4195 4.77464 78.2759H2.20763C0.85567 78.2759 0 77.3372 0 75.8181V71.3632C0 69.9977 1.11237 68.8883 2.48144 68.8883H4.80887C5.4934 67.4204 7.03361 66.7376 9.08722 65.833L9.24124 65.7647C11.021 64.9796 10.9697 63.3751 10.9355 62.2145C10.9184 61.5829 10.9012 61.1392 11.2093 60.849C11.5173 60.5588 12.0307 60.4394 12.5784 60.5076C12.9891 60.5588 13.7763 60.7807 14.3239 61.6683C15.1111 62.9655 14.94 65.1673 14.3068 66.4475C14.0672 66.9424 14.033 67.4033 14.2041 67.6764C14.3924 67.9666 14.8031 68.0178 15.1111 68.0178H25.6701C26.4915 68.0178 26.9878 68.325 27.2617 68.581C27.5868 68.9565 27.7751 69.4174 27.7751 69.9124ZM18.0033 77.9858C18.0033 77.5078 17.6097 77.1323 17.1476 77.1323H14.0843C13.6052 77.1323 13.2287 77.5249 13.2287 77.9858C13.2287 78.4466 13.6223 78.8392 14.0843 78.8392H17.1476C17.6268 78.8562 18.0033 78.4637 18.0033 77.9858ZM19.4237 75.2548C19.4237 74.7769 19.0301 74.4014 18.568 74.4014H14.2383H14.0843C13.6052 74.4014 13.2287 74.794 13.2287 75.2548C13.2287 75.7157 13.6223 76.1082 14.0843 76.1082H17.1476H18.568C19.0301 76.1082 19.4237 75.7327 19.4237 75.2548ZM20.0911 71.6534H17.8664H14.2383C13.8619 71.6534 13.5367 71.8923 13.434 72.2337C13.4169 72.302 13.3998 72.3702 13.3998 72.4214C13.3998 72.4556 13.3998 72.4726 13.3998 72.5068C13.3998 72.9847 13.7934 73.3602 14.2555 73.3602H18.5852H20.1082C20.5874 73.3602 20.9639 72.9676 20.9639 72.5068C20.9639 72.0459 20.5703 71.6534 20.0911 71.6534ZM26.7482 69.9124C26.7482 69.6905 26.6627 69.5027 26.5087 69.3491C26.3204 69.1613 26.0124 69.0589 25.6359 69.0589H15.094C14.0501 69.0589 13.5538 68.6152 13.3142 68.2397C12.9548 67.6593 12.972 66.8571 13.3656 66.0208C13.8619 64.9966 13.9988 63.1532 13.434 62.2145C13.126 61.7024 12.6981 61.5659 12.4586 61.5317C12.219 61.4976 12.0478 61.5317 11.9623 61.5659C11.9452 61.7024 11.9623 61.9755 11.9623 62.1803C11.9965 63.3922 12.0649 65.6282 9.65196 66.7035L9.49794 66.7718C6.67423 68.0348 5.37361 68.5981 5.44206 71.0389C5.44206 71.329 5.21959 71.5509 4.94577 71.568C4.65485 71.568 4.43237 71.3461 4.41526 71.073C4.39814 70.6463 4.43237 70.2708 4.48371 69.9294H2.48144C1.67711 69.9294 1.0268 70.578 1.0268 71.3803V75.8351C1.0268 76.4837 1.23216 77.2689 2.20763 77.2689H5.09979L5.2367 77.3542C8.33423 79.4878 10.9697 79.1123 12.3216 78.6514C12.2532 78.4466 12.2019 78.2247 12.2019 78.0028C12.2019 77.4566 12.4243 76.9787 12.8008 76.6373C12.4414 76.296 12.2019 75.801 12.2019 75.2719C12.2019 75.1353 12.219 74.9988 12.2532 74.8622C11.6542 75.6303 10.8841 76.2789 9.97711 76.7056C9.90866 76.7398 9.82309 76.7568 9.75464 76.7568C9.56639 76.7568 9.37814 76.6544 9.29258 76.4667C9.17278 76.2106 9.27546 75.9034 9.53217 75.7839C10.9697 75.1012 11.9965 73.7869 12.373 72.2849C12.3901 72.1825 12.4072 72.063 12.4414 71.9606C12.4928 71.6534 12.527 71.3461 12.527 71.0389C12.527 70.6805 12.4928 70.322 12.4243 69.9806C12.373 69.7075 12.5441 69.4344 12.8179 69.3832C13.0918 69.332 13.3656 69.5027 13.4169 69.7758C13.4854 70.1001 13.5196 70.4415 13.5367 70.7829C13.7592 70.6975 13.9816 70.6463 14.2383 70.6463H17.8664H20.0911H26.0466C26.6113 70.6292 26.7482 70.1855 26.7482 69.9124ZM83 4.64248V9.09736C83 10.4628 81.8876 11.5723 80.5186 11.5723H78.1911C77.5066 13.0402 75.9664 13.7229 73.9128 14.6275L73.7588 14.6958C71.979 15.481 72.0303 17.0854 72.0645 18.2461C72.0816 18.8776 72.0988 19.3214 71.7907 19.6115C71.5511 19.8505 71.1404 19.97 70.7126 19.97C70.6099 19.97 70.5243 19.97 70.4217 19.9529C70.0109 19.9017 69.2237 19.6798 68.6761 18.7923C67.8889 17.4951 68.06 15.2932 68.6932 14.0131C68.9328 13.5181 68.967 13.0572 68.7959 12.7842C68.6076 12.494 68.1969 12.4428 67.8889 12.4428H57.3299C56.5085 12.4428 56.0122 12.1355 55.7384 11.8795C55.379 11.5382 55.1907 11.0773 55.1907 10.5823C55.1907 9.74596 55.7897 8.84133 56.9192 8.84133H61.728C61.5911 8.5853 61.5227 8.29514 61.5227 7.98791C61.5227 6.99793 62.2928 6.19572 63.2682 6.11037C63.1313 5.85435 63.0629 5.56418 63.0629 5.23988C63.0629 4.28404 63.7817 3.49889 64.7058 3.37942C64.5689 3.12339 64.4833 2.81616 64.4833 2.50892C64.4833 1.50188 65.2876 0.682595 66.2802 0.631389C70.7639 -0.802363 75.453 0.375362 78.2083 2.21876H80.7924C82.1443 2.20169 83 3.14046 83 4.64248ZM81.9732 4.64248C81.9732 3.46476 81.34 3.20873 80.7924 3.20873H77.9002L77.7633 3.12339C75.8637 1.82618 71.3629 0.0339923 66.5369 1.60429C66.5198 1.60429 66.5198 1.60429 66.5027 1.60429C66.4856 1.60429 66.4685 1.60429 66.4513 1.62136C66.4342 1.62136 66.4171 1.62136 66.4 1.62136C66.3829 1.62136 66.3829 1.62136 66.3829 1.62136C65.9037 1.62136 65.5272 2.01394 65.5272 2.47479C65.5272 2.93563 65.9208 3.32821 66.3829 3.32821V3.39648C66.554 3.48183 66.6909 3.65251 66.6909 3.85733C66.6909 4.06215 66.5711 4.24991 66.3829 4.31818V4.36939H66.1775H64.9625C64.4833 4.36939 64.1068 4.76196 64.1068 5.22281C64.1068 5.68366 64.5004 6.07624 64.9625 6.07624H66.0064H66.1604C66.4513 6.07624 66.6738 6.29813 66.6738 6.58829C66.6738 6.87845 66.4513 7.10034 66.1604 7.10034H66.0064H64.9625H63.4394C62.9602 7.10034 62.5837 7.49292 62.5837 7.95377C62.5837 8.41462 62.9773 8.80719 63.4394 8.80719H65.1507H66.0235C66.3144 8.80719 66.5369 9.02908 66.5369 9.31925C66.5369 9.60941 66.3144 9.8313 66.0235 9.8313H65.1507H63.4394H56.9534C56.4058 9.8313 56.2518 10.2751 56.2518 10.5482C56.2518 10.7701 56.3373 10.9578 56.4913 11.1114C56.6796 11.2992 56.9876 11.4016 57.3641 11.4016H67.9231C68.967 11.4016 69.4633 11.8454 69.7029 12.2209C70.0623 12.8012 70.0452 13.6034 69.6516 14.4398C69.1553 15.4639 69.0184 17.3073 69.5831 18.2461C69.8911 18.7581 70.319 18.8947 70.5586 18.9288C70.7981 18.9629 70.9693 18.9288 71.0548 18.8947C71.072 18.7581 71.0548 18.485 71.0548 18.2802C71.0206 17.0683 70.9522 14.8324 73.3652 13.7571L73.5192 13.6888C76.3429 12.4257 77.6435 11.8625 77.5751 9.42166C77.5751 9.13149 77.7975 8.9096 78.0713 8.89254C78.3623 8.89254 78.5847 9.11443 78.6019 9.38752C78.619 9.81423 78.5847 10.1897 78.5334 10.5311H80.5528C81.3571 10.5311 82.0074 9.88251 82.0074 9.08029V4.64248H81.9732Z" fill="black"/>
<path d="M62.9431 16.1809H19.8687C18.568 16.1809 17.5241 17.2392 17.5241 18.5193V61.4807C17.5241 62.7779 18.5852 63.819 19.8687 63.819H62.926C64.2266 63.819 65.2705 62.7608 65.2876 61.4807V18.5193C65.2876 17.2221 64.2266 16.1809 62.9431 16.1809Z" fill="white"/>
<path d="M37.2901 76.9618C37.2901 77.3885 37.1361 77.7299 36.828 77.9859C36.52 78.2419 36.0751 78.3614 35.5274 78.3614C34.9456 78.3614 34.4835 78.2761 34.1584 78.1225V77.5251C34.3637 77.6104 34.6033 77.6787 34.8429 77.7469C35.0825 77.8152 35.3221 77.8323 35.5445 77.8323C35.921 77.8323 36.1949 77.764 36.3831 77.6104C36.5713 77.4568 36.6569 77.269 36.6569 77.0301C36.6569 76.8594 36.6227 76.7228 36.5542 76.6204C36.4858 76.518 36.366 76.4156 36.212 76.3303C36.0579 76.2449 35.8184 76.1254 35.4932 76.023C35.0311 75.8523 34.706 75.6646 34.5006 75.4256C34.2953 75.2037 34.2097 74.9136 34.2097 74.5381C34.2097 74.1455 34.3637 73.8383 34.6546 73.6164C34.9456 73.3945 35.3221 73.275 35.8012 73.275C36.2975 73.275 36.7596 73.3603 37.1703 73.5481L36.9821 74.0772C36.5542 73.9065 36.1606 73.8212 35.8012 73.8212C35.5103 73.8212 35.2707 73.8895 35.1167 74.0089C34.9456 74.1284 34.86 74.3162 34.86 74.5381C34.86 74.7088 34.8942 74.8282 34.9627 74.9477C35.0311 75.0672 35.1338 75.1525 35.2707 75.2379C35.4076 75.3232 35.6472 75.4256 35.9553 75.5451C36.3318 75.6817 36.6056 75.8182 36.7767 75.9377C36.965 76.0572 37.0847 76.2108 37.1703 76.3815C37.2559 76.5522 37.2901 76.7399 37.2901 76.9618ZM40.4219 73.8212C39.8913 73.8212 39.4635 73.9919 39.1555 74.3503C38.8474 74.7088 38.6934 75.1867 38.6934 75.8182C38.6934 76.4497 38.8474 76.9447 39.1384 77.3032C39.4293 77.6445 39.8571 77.8152 40.4047 77.8152C40.7641 77.8152 41.1577 77.7469 41.6027 77.6104V78.1566C41.3973 78.2249 41.192 78.2931 40.9866 78.3102C40.7812 78.3273 40.5759 78.3443 40.3192 78.3443C39.5833 78.3443 39.0186 78.1225 38.625 77.6787C38.2313 77.2349 38.026 76.6034 38.026 75.8011C38.026 75.2891 38.1287 74.8453 38.3169 74.4527C38.5052 74.0772 38.779 73.77 39.1384 73.5652C39.4977 73.3603 39.9256 73.2579 40.4219 73.2579C40.9524 73.2579 41.3973 73.3603 41.7909 73.5481L41.5342 74.0772C41.1577 73.9065 40.7812 73.8212 40.4219 73.8212ZM45.8126 78.2931L45.2136 76.757H43.2456L42.6466 78.2931H42.0134L43.9472 73.3262H44.512L46.4458 78.2931H45.8126ZM45.0254 76.2108L44.4606 74.7088L44.221 73.9748C44.1526 74.2479 44.0841 74.4869 43.9986 74.7088L43.4338 76.2108H45.0254ZM51.0835 78.2931H50.3476L47.6951 74.1796H47.6608L47.6779 74.4527C47.7122 74.8624 47.7122 75.2208 47.7122 75.528V78.2931H47.1303V73.3433H47.8491L48.0031 73.5822L49.6289 76.0913L50.5017 77.4397H50.5359C50.5359 77.3885 50.5188 77.1837 50.5017 76.8594C50.4845 76.518 50.4845 76.2791 50.4845 76.1425V73.3433H51.0664V78.2931H51.0835ZM56.4229 78.2931L54.78 73.9577H54.7629C54.7971 74.3162 54.8142 74.76 54.8142 75.2891V78.2931H54.2324V73.3433H55.1565L56.6967 77.4056H56.7309L58.2883 73.3433H59.2124V78.2931H58.5963V75.2549C58.5963 74.9136 58.6134 74.4869 58.6476 73.9577H58.6134L56.9534 78.2931H56.4229ZM63.3196 78.2931H60.5472V73.3433H63.3196V73.8895H61.1633V75.4427H63.1827V75.9889H61.1633V77.764H63.3196V78.2931Z" fill="black"/>
<path d="M62.926 63.9898H19.8687C18.4825 63.9898 17.353 62.8633 17.353 61.4807V18.5193C17.353 17.1368 18.4825 16.0103 19.8687 16.0103H62.9431C64.3293 16.0103 65.4588 17.1368 65.4588 18.5193V61.4807C65.4417 62.8633 64.3122 63.9898 62.926 63.9898ZM19.8687 16.3516C18.6707 16.3516 17.6953 17.3245 17.6953 18.5193V61.4807C17.6953 62.6755 18.6707 63.6484 19.8687 63.6484H62.926C64.1239 63.6484 65.0994 62.6755 65.1165 61.4807V18.5193C65.1165 17.3245 64.141 16.3516 62.9431 16.3516H19.8687Z" fill="#E6E6E6"/>
<path d="M64.3122 17.1538H18.4996V62.8462H64.3122V17.1538Z" fill="white"/>
<path opacity="0.25" d="M37.7522 21.7281H36.2804V23.196H37.7522V21.7281Z" fill="black"/>
<path opacity="0.25" d="M45.0767 21.7281H43.6049V23.196H45.0767V21.7281Z" fill="black"/>
<path opacity="0.25" d="M48.0031 21.7281H46.5313V23.196H48.0031V21.7281Z" fill="black"/>
<path opacity="0.25" d="M36.2804 23.196H34.8087V24.6639H36.2804V23.196Z" fill="black"/>
<path opacity="0.25" d="M37.7522 23.196H36.2804V24.6639H37.7522V23.196Z" fill="black"/>
<path opacity="0.25" d="M40.6786 23.196H39.2068V24.6639H40.6786V23.196Z" fill="black"/>
<path opacity="0.25" d="M42.1503 23.196H40.6786V24.6639H42.1503V23.196Z" fill="black"/>
<path opacity="0.25" d="M43.6049 23.196H42.1332V24.6639H43.6049V23.196Z" fill="black"/>
<path opacity="0.25" d="M45.0767 23.196H43.6049V24.6639H45.0767V23.196Z" fill="black"/>
<path opacity="0.25" d="M37.7522 24.6469H36.2804V26.1147H37.7522V24.6469Z" fill="black"/>
<path opacity="0.25" d="M39.2068 24.6469H37.735V26.1147H39.2068V24.6469Z" fill="black"/>
<path opacity="0.25" d="M40.6786 24.6469H39.2068V26.1147H40.6786V24.6469Z" fill="black"/>
<path opacity="0.25" d="M36.2804 26.1147H34.8087V27.5826H36.2804V26.1147Z" fill="black"/>
<path opacity="0.25" d="M37.7522 26.1147H36.2804V27.5826H37.7522V26.1147Z" fill="black"/>
<path opacity="0.25" d="M40.6786 26.1147H39.2068V27.5826H40.6786V26.1147Z" fill="black"/>
<path opacity="0.25" d="M43.6049 26.1147H42.1332V27.5826H43.6049V26.1147Z" fill="black"/>
<path opacity="0.25" d="M46.5484 26.1147H45.0767V27.5826H46.5484V26.1147Z" fill="black"/>
<path opacity="0.25" d="M48.0031 26.1147H46.5313V27.5826H48.0031V26.1147Z" fill="black"/>
<path opacity="0.25" d="M39.2068 27.5828H37.735V29.0507H39.2068V27.5828Z" fill="black"/>
<path opacity="0.25" d="M42.1503 27.5828H40.6786V29.0507H42.1503V27.5828Z" fill="black"/>
<path opacity="0.25" d="M46.5484 27.5828H45.0767V29.0507H46.5484V27.5828Z" fill="black"/>
<path opacity="0.25" d="M48.0031 27.5828H46.5313V29.0507H48.0031V27.5828Z" fill="black"/>
<path opacity="0.25" d="M36.2804 29.0334H34.8087V30.5013H36.2804V29.0334Z" fill="black"/>
<path opacity="0.25" d="M39.2068 29.0334H37.735V30.5013H39.2068V29.0334Z" fill="black"/>
<path opacity="0.25" d="M43.6049 29.0334H42.1332V30.5013H43.6049V29.0334Z" fill="black"/>
<path opacity="0.25" d="M45.0767 29.0334H43.6049V30.5013H45.0767V29.0334Z" fill="black"/>
<path opacity="0.25" d="M46.5484 29.0334H45.0767V30.5013H46.5484V29.0334Z" fill="black"/>
<path opacity="0.25" d="M36.2804 30.5015H34.8087V31.9694H36.2804V30.5015Z" fill="black"/>
<path opacity="0.25" d="M39.2068 30.5015H37.735V31.9694H39.2068V30.5015Z" fill="black"/>
<path opacity="0.25" d="M42.1503 30.5015H40.6786V31.9694H42.1503V30.5015Z" fill="black"/>
<path opacity="0.25" d="M45.0767 30.5015H43.6049V31.9694H45.0767V30.5015Z" fill="black"/>
<path opacity="0.25" d="M48.0031 30.5015H46.5313V31.9694H48.0031V30.5015Z" fill="black"/>
<path opacity="0.25" d="M42.1503 31.9692H40.6786V33.4371H42.1503V31.9692Z" fill="black"/>
<path opacity="0.25" d="M48.0031 31.9692H46.5313V33.4371H48.0031V31.9692Z" fill="black"/>
<path opacity="0.25" d="M24.5577 33.42H23.086V34.8879H24.5577V33.42Z" fill="black"/>
<path opacity="0.25" d="M26.0124 33.42H24.5406V34.8879H26.0124V33.42Z" fill="black"/>
<path opacity="0.25" d="M27.4841 33.42H26.0124V34.8879H27.4841V33.42Z" fill="black"/>
<path opacity="0.25" d="M28.9559 33.42H27.4841V34.8879H28.9559V33.42Z" fill="black"/>
<path opacity="0.25" d="M30.4105 33.42H28.9388V34.8879H30.4105V33.42Z" fill="black"/>
<path opacity="0.25" d="M33.354 33.42H31.8823V34.8879H33.354V33.42Z" fill="black"/>
<path opacity="0.25" d="M34.8087 33.42H33.3369V34.8879H34.8087V33.42Z" fill="black"/>
<path opacity="0.25" d="M36.2804 33.42H34.8087V34.8879H36.2804V33.42Z" fill="black"/>
<path opacity="0.25" d="M37.7522 33.42H36.2804V34.8879H37.7522V33.42Z" fill="black"/>
<path opacity="0.25" d="M39.2068 33.42H37.735V34.8879H39.2068V33.42Z" fill="black"/>
<path opacity="0.25" d="M42.1503 33.42H40.6786V34.8879H42.1503V33.42Z" fill="black"/>
<path opacity="0.25" d="M43.6049 33.42H42.1332V34.8879H43.6049V33.42Z" fill="black"/>
<path opacity="0.25" d="M46.5484 33.42H45.0767V34.8879H46.5484V33.42Z" fill="black"/>
<path opacity="0.25" d="M49.4748 33.42H48.0031V34.8879H49.4748V33.42Z" fill="black"/>
<path opacity="0.25" d="M52.4012 33.42H50.9295V34.8879H52.4012V33.42Z" fill="black"/>
<path opacity="0.25" d="M55.3448 33.42H53.873V34.8879H55.3448V33.42Z" fill="black"/>
<path opacity="0.25" d="M58.2711 33.42H56.7994V34.8879H58.2711V33.42Z" fill="black"/>
<path opacity="0.25" d="M28.9559 34.8879H27.4841V36.3558H28.9559V34.8879Z" fill="black"/>
<path opacity="0.25" d="M37.7522 34.8879H36.2804V36.3558H37.7522V34.8879Z" fill="black"/>
<path opacity="0.25" d="M46.5484 34.8879H45.0767V36.3558H46.5484V34.8879Z" fill="black"/>
<path opacity="0.25" d="M48.0031 34.8879H46.5313V36.3558H48.0031V34.8879Z" fill="black"/>
<path opacity="0.25" d="M49.4748 34.8879H48.0031V36.3558H49.4748V34.8879Z" fill="black"/>
<path opacity="0.25" d="M52.4012 34.8879H50.9295V36.3558H52.4012V34.8879Z" fill="black"/>
<path opacity="0.25" d="M53.873 34.8879H52.4012V36.3558H53.873V34.8879Z" fill="black"/>
<path opacity="0.25" d="M59.7429 34.8879H58.2711V36.3558H59.7429V34.8879Z" fill="black"/>
<path opacity="0.25" d="M27.4841 36.3558H26.0124V37.8237H27.4841V36.3558Z" fill="black"/>
<path opacity="0.25" d="M31.8823 36.3558H30.4105V37.8237H31.8823V36.3558Z" fill="black"/>
<path opacity="0.25" d="M33.354 36.3558H31.8823V37.8237H33.354V36.3558Z" fill="black"/>
<path opacity="0.25" d="M34.8087 36.3558H33.3369V37.8237H34.8087V36.3558Z" fill="black"/>
<path opacity="0.25" d="M37.7522 36.3558H36.2804V37.8237H37.7522V36.3558Z" fill="black"/>
<path opacity="0.25" d="M40.6786 36.3558H39.2068V37.8237H40.6786V36.3558Z" fill="black"/>
<path opacity="0.25" d="M42.1503 36.3558H40.6786V37.8237H42.1503V36.3558Z" fill="black"/>
<path opacity="0.25" d="M43.6049 36.3558H42.1332V37.8237H43.6049V36.3558Z" fill="black"/>
<path opacity="0.25" d="M45.0767 36.3558H43.6049V37.8237H45.0767V36.3558Z" fill="black"/>
<path opacity="0.25" d="M46.5484 36.3558H45.0767V37.8237H46.5484V36.3558Z" fill="black"/>
<path opacity="0.25" d="M49.4748 36.3558H48.0031V37.8237H49.4748V36.3558Z" fill="black"/>
<path opacity="0.25" d="M50.9466 36.3558H49.4749V37.8237H50.9466V36.3558Z" fill="black"/>
<path opacity="0.25" d="M53.873 36.3558H52.4012V37.8237H53.873V36.3558Z" fill="black"/>
<path opacity="0.25" d="M56.7994 36.3558H55.3276V37.8237H56.7994V36.3558Z" fill="black"/>
<path opacity="0.25" d="M24.5577 37.8066H23.086V39.2745H24.5577V37.8066Z" fill="black"/>
<path opacity="0.25" d="M27.4841 37.8066H26.0124V39.2745H27.4841V37.8066Z" fill="black"/>
<path opacity="0.25" d="M28.9559 37.8066H27.4841V39.2745H28.9559V37.8066Z" fill="black"/>
<path opacity="0.25" d="M30.4105 37.8066H28.9388V39.2745H30.4105V37.8066Z" fill="black"/>
<path opacity="0.25" d="M31.8823 37.8066H30.4105V39.2745H31.8823V37.8066Z" fill="black"/>
<path opacity="0.25" d="M34.8087 37.8066H33.3369V39.2745H34.8087V37.8066Z" fill="black"/>
<path opacity="0.25" d="M36.2804 37.8066H34.8087V39.2745H36.2804V37.8066Z" fill="black"/>
<path opacity="0.25" d="M37.7522 37.8066H36.2804V39.2745H37.7522V37.8066Z" fill="black"/>
<path opacity="0.25" d="M39.2068 37.8066H37.735V39.2745H39.2068V37.8066Z" fill="black"/>
<path opacity="0.25" d="M40.6786 37.8066H39.2068V39.2745H40.6786V37.8066Z" fill="black"/>
<path opacity="0.25" d="M45.0767 37.8066H43.6049V39.2745H45.0767V37.8066Z" fill="black"/>
<path opacity="0.25" d="M48.0031 37.8066H46.5313V39.2745H48.0031V37.8066Z" fill="black"/>
<path opacity="0.25" d="M49.4748 37.8066H48.0031V39.2745H49.4748V37.8066Z" fill="black"/>
<path opacity="0.25" d="M24.5577 39.2747H23.086V40.7425H24.5577V39.2747Z" fill="black"/>
<path opacity="0.25" d="M28.9559 39.2747H27.4841V40.7425H28.9559V39.2747Z" fill="black"/>
<path opacity="0.25" d="M33.354 39.2747H31.8823V40.7425H33.354V39.2747Z" fill="black"/>
<path opacity="0.25" d="M37.7522 39.2747H36.2804V40.7425H37.7522V39.2747Z" fill="black"/>
<path opacity="0.25" d="M40.6786 39.2747H39.2068V40.7425H40.6786V39.2747Z" fill="black"/>
<path opacity="0.25" d="M43.6049 39.2747H42.1332V40.7425H43.6049V39.2747Z" fill="black"/>
<path opacity="0.25" d="M46.5484 39.2747H45.0767V40.7425H46.5484V39.2747Z" fill="black"/>
<path opacity="0.25" d="M50.9466 39.2747H49.4749V40.7425H50.9466V39.2747Z" fill="black"/>
<path opacity="0.25" d="M52.4012 39.2747H50.9295V40.7425H52.4012V39.2747Z" fill="black"/>
<path opacity="0.25" d="M53.873 39.2747H52.4012V40.7425H53.873V39.2747Z" fill="black"/>
<path opacity="0.25" d="M55.3448 39.2747H53.873V40.7425H55.3448V39.2747Z" fill="black"/>
<path opacity="0.25" d="M58.2711 39.2747H56.7994V40.7425H58.2711V39.2747Z" fill="black"/>
<path opacity="0.25" d="M59.7429 39.2747H58.2711V40.7425H59.7429V39.2747Z" fill="black"/>
<path opacity="0.25" d="M24.5577 40.7424H23.086V42.2103H24.5577V40.7424Z" fill="black"/>
<path opacity="0.25" d="M26.0124 40.7424H24.5406V42.2103H26.0124V40.7424Z" fill="black"/>
<path opacity="0.25" d="M28.9559 40.7424H27.4841V42.2103H28.9559V40.7424Z" fill="black"/>
<path opacity="0.25" d="M34.8087 40.7424H33.3369V42.2103H34.8087V40.7424Z" fill="black"/>
<path opacity="0.25" d="M39.2068 40.7424H37.735V42.2103H39.2068V40.7424Z" fill="black"/>
<path opacity="0.25" d="M42.1503 40.7424H40.6786V42.2103H42.1503V40.7424Z" fill="black"/>
<path opacity="0.25" d="M45.0767 40.7424H43.6049V42.2103H45.0767V40.7424Z" fill="black"/>
<path opacity="0.25" d="M48.0031 40.7424H46.5313V42.2103H48.0031V40.7424Z" fill="black"/>
<path opacity="0.25" d="M49.4748 40.7424H48.0031V42.2103H49.4748V40.7424Z" fill="black"/>
<path opacity="0.25" d="M50.9466 40.7424H49.4749V42.2103H50.9466V40.7424Z" fill="black"/>
<path opacity="0.25" d="M52.4012 40.7424H50.9295V42.2103H52.4012V40.7424Z" fill="black"/>
<path opacity="0.25" d="M53.873 40.7424H52.4012V42.2103H53.873V40.7424Z" fill="black"/>
<path opacity="0.25" d="M24.5577 42.1934H23.086V43.6612H24.5577V42.1934Z" fill="black"/>
<path opacity="0.25" d="M27.4841 42.1934H26.0124V43.6612H27.4841V42.1934Z" fill="black"/>
<path opacity="0.25" d="M28.9559 42.1934H27.4841V43.6612H28.9559V42.1934Z" fill="black"/>
<path opacity="0.25" d="M30.4105 42.1934H28.9388V43.6612H30.4105V42.1934Z" fill="black"/>
<path opacity="0.25" d="M33.354 42.1934H31.8823V43.6612H33.354V42.1934Z" fill="black"/>
<path opacity="0.25" d="M34.8087 42.1934H33.3369V43.6612H34.8087V42.1934Z" fill="black"/>
<path opacity="0.25" d="M43.6049 42.1934H42.1332V43.6612H43.6049V42.1934Z" fill="black"/>
<path opacity="0.25" d="M49.4748 42.1934H48.0031V43.6612H49.4748V42.1934Z" fill="black"/>
<path opacity="0.25" d="M50.9466 42.1934H49.4749V43.6612H50.9466V42.1934Z" fill="black"/>
<path opacity="0.25" d="M53.873 42.1934H52.4012V43.6612H53.873V42.1934Z" fill="black"/>
<path opacity="0.25" d="M56.7994 42.1934H55.3276V43.6612H56.7994V42.1934Z" fill="black"/>
<path opacity="0.25" d="M58.2711 42.1934H56.7994V43.6612H58.2711V42.1934Z" fill="black"/>
<path opacity="0.25" d="M59.7429 42.1934H58.2711V43.6612H59.7429V42.1934Z" fill="black"/>
<path opacity="0.25" d="M24.5577 43.6611H23.086V45.129H24.5577V43.6611Z" fill="black"/>
<path opacity="0.25" d="M28.9559 43.6611H27.4841V45.129H28.9559V43.6611Z" fill="black"/>
<path opacity="0.25" d="M31.8823 43.6611H30.4105V45.129H31.8823V43.6611Z" fill="black"/>
<path opacity="0.25" d="M37.7522 43.6611H36.2804V45.129H37.7522V43.6611Z" fill="black"/>
<path opacity="0.25" d="M39.2068 43.6611H37.735V45.129H39.2068V43.6611Z" fill="black"/>
<path opacity="0.25" d="M42.1503 43.6611H40.6786V45.129H42.1503V43.6611Z" fill="black"/>
<path opacity="0.25" d="M43.6049 43.6611H42.1332V45.129H43.6049V43.6611Z" fill="black"/>
<path opacity="0.25" d="M45.0767 43.6611H43.6049V45.129H45.0767V43.6611Z" fill="black"/>
<path opacity="0.25" d="M49.4748 43.6611H48.0031V45.129H49.4748V43.6611Z" fill="black"/>
<path opacity="0.25" d="M58.2711 43.6611H56.7994V45.129H58.2711V43.6611Z" fill="black"/>
<path opacity="0.25" d="M59.7429 43.6611H58.2711V45.129H59.7429V43.6611Z" fill="black"/>
<path opacity="0.25" d="M24.5577 45.129H23.086V46.5969H24.5577V45.129Z" fill="black"/>
<path opacity="0.25" d="M33.354 45.129H31.8823V46.5969H33.354V45.129Z" fill="black"/>
<path opacity="0.25" d="M39.2068 45.129H37.735V46.5969H39.2068V45.129Z" fill="black"/>
<path opacity="0.25" d="M42.1503 45.129H40.6786V46.5969H42.1503V45.129Z" fill="black"/>
<path opacity="0.25" d="M46.5484 45.129H45.0767V46.5969H46.5484V45.129Z" fill="black"/>
<path opacity="0.25" d="M48.0031 45.129H46.5313V46.5969H48.0031V45.129Z" fill="black"/>
<path opacity="0.25" d="M49.4748 45.129H48.0031V46.5969H49.4748V45.129Z" fill="black"/>
<path opacity="0.25" d="M50.9466 45.129H49.4749V46.5969H50.9466V45.129Z" fill="black"/>
<path opacity="0.25" d="M52.4012 45.129H50.9295V46.5969H52.4012V45.129Z" fill="black"/>
<path opacity="0.25" d="M53.873 45.129H52.4012V46.5969H53.873V45.129Z" fill="black"/>
<path opacity="0.25" d="M55.3448 45.129H53.873V46.5969H55.3448V45.129Z" fill="black"/>
<path opacity="0.25" d="M59.7429 45.129H58.2711V46.5969H59.7429V45.129Z" fill="black"/>
<path opacity="0.25" d="M36.2804 46.5798H34.8087V48.0477H36.2804V46.5798Z" fill="black"/>
<path opacity="0.25" d="M39.2068 46.5798H37.735V48.0477H39.2068V46.5798Z" fill="black"/>
<path opacity="0.25" d="M45.0767 46.5798H43.6049V48.0477H45.0767V46.5798Z" fill="black"/>
<path opacity="0.25" d="M48.0031 46.5798H46.5313V48.0477H48.0031V46.5798Z" fill="black"/>
<path opacity="0.25" d="M53.873 46.5798H52.4012V48.0477H53.873V46.5798Z" fill="black"/>
<path opacity="0.25" d="M59.7429 46.5798H58.2711V48.0477H59.7429V46.5798Z" fill="black"/>
<path opacity="0.25" d="M36.2804 48.0479H34.8087V49.5157H36.2804V48.0479Z" fill="black"/>
<path opacity="0.25" d="M37.7522 48.0479H36.2804V49.5157H37.7522V48.0479Z" fill="black"/>
<path opacity="0.25" d="M39.2068 48.0479H37.735V49.5157H39.2068V48.0479Z" fill="black"/>
<path opacity="0.25" d="M40.6786 48.0479H39.2068V49.5157H40.6786V48.0479Z" fill="black"/>
<path opacity="0.25" d="M42.1503 48.0479H40.6786V49.5157H42.1503V48.0479Z" fill="black"/>
<path opacity="0.25" d="M45.0767 48.0479H43.6049V49.5157H45.0767V48.0479Z" fill="black"/>
<path opacity="0.25" d="M48.0031 48.0479H46.5313V49.5157H48.0031V48.0479Z" fill="black"/>
<path opacity="0.25" d="M50.9466 48.0479H49.4749V49.5157H50.9466V48.0479Z" fill="black"/>
<path opacity="0.25" d="M53.873 48.0479H52.4012V49.5157H53.873V48.0479Z" fill="black"/>
<path opacity="0.25" d="M56.7994 48.0479H55.3276V49.5157H56.7994V48.0479Z" fill="black"/>
<path opacity="0.25" d="M58.2711 48.0479H56.7994V49.5157H58.2711V48.0479Z" fill="black"/>
<path opacity="0.25" d="M59.7429 48.0479H58.2711V49.5157H59.7429V48.0479Z" fill="black"/>
<path opacity="0.25" d="M37.7522 49.5157H36.2804V50.9836H37.7522V49.5157Z" fill="black"/>
<path opacity="0.25" d="M39.2068 49.5157H37.735V50.9836H39.2068V49.5157Z" fill="black"/>
<path opacity="0.25" d="M40.6786 49.5157H39.2068V50.9836H40.6786V49.5157Z" fill="black"/>
<path opacity="0.25" d="M45.0767 49.5157H43.6049V50.9836H45.0767V49.5157Z" fill="black"/>
<path opacity="0.25" d="M48.0031 49.5157H46.5313V50.9836H48.0031V49.5157Z" fill="black"/>
<path opacity="0.25" d="M53.873 49.5157H52.4012V50.9836H53.873V49.5157Z" fill="black"/>
<path opacity="0.25" d="M55.3448 49.5157H53.873V50.9836H55.3448V49.5157Z" fill="black"/>
<path opacity="0.25" d="M36.2804 50.9666H34.8087V52.4344H36.2804V50.9666Z" fill="black"/>
<path opacity="0.25" d="M37.7522 50.9666H36.2804V52.4344H37.7522V50.9666Z" fill="black"/>
<path opacity="0.25" d="M40.6786 50.9666H39.2068V52.4344H40.6786V50.9666Z" fill="black"/>
<path opacity="0.25" d="M42.1503 50.9666H40.6786V52.4344H42.1503V50.9666Z" fill="black"/>
<path opacity="0.25" d="M43.6049 50.9666H42.1332V52.4344H43.6049V50.9666Z" fill="black"/>
<path opacity="0.25" d="M48.0031 50.9666H46.5313V52.4344H48.0031V50.9666Z" fill="black"/>
<path opacity="0.25" d="M49.4748 50.9666H48.0031V52.4344H49.4748V50.9666Z" fill="black"/>
<path opacity="0.25" d="M50.9466 50.9666H49.4749V52.4344H50.9466V50.9666Z" fill="black"/>
<path opacity="0.25" d="M52.4012 50.9666H50.9295V52.4344H52.4012V50.9666Z" fill="black"/>
<path opacity="0.25" d="M53.873 50.9666H52.4012V52.4344H53.873V50.9666Z" fill="black"/>
<path opacity="0.25" d="M55.3448 50.9666H53.873V52.4344H55.3448V50.9666Z" fill="black"/>
<path opacity="0.25" d="M36.2804 52.4344H34.8087V53.9023H36.2804V52.4344Z" fill="black"/>
<path opacity="0.25" d="M37.7522 52.4344H36.2804V53.9023H37.7522V52.4344Z" fill="black"/>
<path opacity="0.25" d="M39.2068 52.4344H37.735V53.9023H39.2068V52.4344Z" fill="black"/>
<path opacity="0.25" d="M42.1503 52.4344H40.6786V53.9023H42.1503V52.4344Z" fill="black"/>
<path opacity="0.25" d="M46.5484 52.4344H45.0767V53.9023H46.5484V52.4344Z" fill="black"/>
<path opacity="0.25" d="M48.0031 52.4344H46.5313V53.9023H48.0031V52.4344Z" fill="black"/>
<path opacity="0.25" d="M50.9466 52.4344H49.4749V53.9023H50.9466V52.4344Z" fill="black"/>
<path opacity="0.25" d="M53.873 52.4344H52.4012V53.9023H53.873V52.4344Z" fill="black"/>
<path opacity="0.25" d="M58.2711 52.4344H56.7994V53.9023H58.2711V52.4344Z" fill="black"/>
<path opacity="0.25" d="M59.7429 52.4344H58.2711V53.9023H59.7429V52.4344Z" fill="black"/>
<path opacity="0.25" d="M36.2804 53.9022H34.8087V55.3701H36.2804V53.9022Z" fill="black"/>
<path opacity="0.25" d="M37.7522 53.9022H36.2804V55.3701H37.7522V53.9022Z" fill="black"/>
<path opacity="0.25" d="M42.1503 53.9022H40.6786V55.3701H42.1503V53.9022Z" fill="black"/>
<path opacity="0.25" d="M43.6049 53.9022H42.1332V55.3701H43.6049V53.9022Z" fill="black"/>
<path opacity="0.25" d="M45.0767 53.9022H43.6049V55.3701H45.0767V53.9022Z" fill="black"/>
<path opacity="0.25" d="M53.873 53.9022H52.4012V55.3701H53.873V53.9022Z" fill="black"/>
<path opacity="0.25" d="M56.7994 53.9022H55.3276V55.3701H56.7994V53.9022Z" fill="black"/>
<path opacity="0.25" d="M59.7429 53.9022H58.2711V55.3701H59.7429V53.9022Z" fill="black"/>
<path opacity="0.25" d="M36.2804 55.353H34.8087V56.8209H36.2804V55.353Z" fill="black"/>
<path opacity="0.25" d="M37.7522 55.353H36.2804V56.8209H37.7522V55.353Z" fill="black"/>
<path opacity="0.25" d="M39.2068 55.353H37.735V56.8209H39.2068V55.353Z" fill="black"/>
<path opacity="0.25" d="M42.1503 55.353H40.6786V56.8209H42.1503V55.353Z" fill="black"/>
<path opacity="0.25" d="M43.6049 55.353H42.1332V56.8209H43.6049V55.353Z" fill="black"/>
<path opacity="0.25" d="M48.0031 55.353H46.5313V56.8209H48.0031V55.353Z" fill="black"/>
<path opacity="0.25" d="M49.4748 55.353H48.0031V56.8209H49.4748V55.353Z" fill="black"/>
<path opacity="0.25" d="M50.9466 55.353H49.4749V56.8209H50.9466V55.353Z" fill="black"/>
<path opacity="0.25" d="M52.4012 55.353H50.9295V56.8209H52.4012V55.353Z" fill="black"/>
<path opacity="0.25" d="M53.873 55.353H52.4012V56.8209H53.873V55.353Z" fill="black"/>
<path opacity="0.25" d="M55.3448 55.353H53.873V56.8209H55.3448V55.353Z" fill="black"/>
<path opacity="0.25" d="M58.2711 55.353H56.7994V56.8209H58.2711V55.353Z" fill="black"/>
<path opacity="0.25" d="M36.2804 56.8209H34.8087V58.2888H36.2804V56.8209Z" fill="black"/>
<path opacity="0.25" d="M43.6049 56.8209H42.1332V58.2888H43.6049V56.8209Z" fill="black"/>
<path opacity="0.25" d="M46.5484 56.8209H45.0767V58.2888H46.5484V56.8209Z" fill="black"/>
<path opacity="0.25" d="M56.7994 56.8209H55.3276V58.2888H56.7994V56.8209Z" fill="black"/>
<path opacity="0.25" d="M58.2711 56.8209H56.7994V58.2888H58.2711V56.8209Z" fill="black"/>
<path opacity="0.25" d="M59.7429 56.8209H58.2711V58.2888H59.7429V56.8209Z" fill="black"/>
<path opacity="0.25" d="M23.394 21.7283C23.2229 21.7283 23.086 21.8648 23.086 22.0355V23.1961V24.664V26.1319V27.5998V29.0677V30.5356V31.6962C23.086 31.8669 23.2229 32.0035 23.394 32.0035H33.0289C33.2 32.0035 33.3369 31.8669 33.3369 31.6962V30.5356V29.0677V27.5998V26.1149V24.647V23.1791V22.0184C33.3369 21.8477 33.2 21.7112 33.0289 21.7112C33.0289 21.7283 23.394 21.7283 23.394 21.7283ZM31.8823 24.647V26.1149V27.5827V29.0506V30.3308C31.8823 30.4332 31.7967 30.5015 31.7111 30.5015H24.746C24.6433 30.5015 24.5749 30.4161 24.5749 30.3308V29.0506V27.5827V26.1149V24.647V23.3668C24.5749 23.2644 24.6604 23.1961 24.746 23.1961H31.7111C31.8138 23.1961 31.8823 23.2815 31.8823 23.3668V24.647Z" fill="black"/>
<path opacity="0.25" d="M30.4105 27.5826V26.1147V24.9541C30.4105 24.7834 30.2736 24.6469 30.1025 24.6469H26.3204C26.1493 24.6469 26.0124 24.7834 26.0124 24.9541V26.1147V27.5826V28.7433C26.0124 28.914 26.1493 29.0505 26.3204 29.0505H30.1025C30.2736 29.0505 30.4105 28.914 30.4105 28.7433V27.5826Z" fill="black"/>
<path opacity="0.25" d="M49.7829 21.7283C49.6118 21.7283 49.4749 21.8648 49.4749 22.0355V23.1961V24.664V26.1319V27.5998V29.0677V30.5356V31.6962C49.4749 31.8669 49.6118 32.0035 49.7829 32.0035H59.4177C59.5889 32.0035 59.7258 31.8669 59.7258 31.6962V30.5356V29.0677V27.5998V26.1149V24.647V23.1791V22.0184C59.7258 21.8477 59.5889 21.7112 59.4177 21.7112C59.4177 21.7283 49.7829 21.7283 49.7829 21.7283ZM58.2711 24.647V26.1149V27.5827V29.0506V30.3308C58.2711 30.4332 58.1856 30.5015 58.1 30.5015H51.1349C51.0322 30.5015 50.9637 30.4161 50.9637 30.3308V29.0506V27.5827V26.1149V24.647V23.3668C50.9637 23.2644 51.0493 23.1961 51.1349 23.1961H58.1C58.2027 23.1961 58.2711 23.2815 58.2711 23.3668V24.647Z" fill="black"/>
<path opacity="0.25" d="M56.7994 27.5826V26.1147V24.9541C56.7994 24.7834 56.6625 24.6469 56.4913 24.6469H52.7093C52.5382 24.6469 52.4012 24.7834 52.4012 24.9541V26.1147V27.5826V28.7433C52.4012 28.914 52.5382 29.0505 52.7093 29.0505H56.4913C56.6625 29.0505 56.7994 28.914 56.7994 28.7433V27.5826Z" fill="black"/>
<path opacity="0.25" d="M23.394 48.0479C23.2229 48.0479 23.086 48.1844 23.086 48.3551V49.5157V50.9836V52.4515V53.9194V55.3873V56.8552V58.0158C23.086 58.1865 23.2229 58.3231 23.394 58.3231H33.0289C33.2 58.3231 33.3369 58.1865 33.3369 58.0158V56.8552V55.3873V53.9194V52.4515V50.9836V49.5157V48.3551C33.3369 48.1844 33.2 48.0479 33.0289 48.0479H23.394ZM31.8823 50.9666V52.4345V53.9023V55.3702V56.6504C31.8823 56.7528 31.7967 56.8211 31.7111 56.8211H24.746C24.6433 56.8211 24.5749 56.7357 24.5749 56.6504V55.3702V53.9023V52.4345V50.9666V49.6864C24.5749 49.584 24.6604 49.5157 24.746 49.5157H31.7111C31.8138 49.5157 31.8823 49.6011 31.8823 49.6864V50.9666Z" fill="black"/>
<path opacity="0.25" d="M30.4105 53.9023V52.4344V51.2738C30.4105 51.1031 30.2736 50.9666 30.1025 50.9666H26.3204C26.1493 50.9666 26.0124 51.1031 26.0124 51.2738V52.4344V53.9023V55.063C26.0124 55.2337 26.1493 55.3702 26.3204 55.3702H30.1025C30.2736 55.3702 30.4105 55.2337 30.4105 55.063V53.9023Z" fill="black"/>
<path opacity="0.35" d="M27.7751 69.9124C27.7751 70.7487 27.1761 71.6534 26.0466 71.6534H21.7682C21.9052 71.9094 21.9736 72.1995 21.9736 72.5068C21.9736 73.4967 21.2035 74.299 20.228 74.3843C20.3649 74.6403 20.4334 74.9305 20.4334 75.2548C20.4334 76.2106 19.7146 76.9958 18.7905 77.1153C18.9274 77.3713 19.013 77.6785 19.013 77.9858C19.013 79.0269 18.1744 79.8633 17.1305 79.8633H14.0843C13.6565 79.8633 13.28 79.7267 12.9548 79.4878C12.0649 79.8292 11.1237 79.9998 10.1654 79.9998C8.36845 79.9998 6.50309 79.4195 4.77464 78.2759H2.20763C0.85567 78.2759 0 77.3372 0 75.8181V71.3632C0 69.9977 1.11237 68.8883 2.48144 68.8883H4.80887C5.4934 67.4204 7.03361 66.7376 9.08722 65.833L9.24124 65.7647C11.021 64.9796 10.9697 63.3751 10.9355 62.2145C10.9184 61.5829 10.9012 61.1392 11.2093 60.849C11.5173 60.5588 12.0307 60.4394 12.5784 60.5076C12.9891 60.5588 13.7763 60.7807 14.3239 61.6683C15.1111 62.9655 14.94 65.1673 14.3068 66.4475C14.0672 66.9424 14.033 67.4033 14.2041 67.6764C14.3924 67.9666 14.8031 68.0178 15.1111 68.0178H25.6701C26.4915 68.0178 26.9878 68.325 27.2617 68.581C27.5868 68.9565 27.7751 69.4174 27.7751 69.9124ZM18.0033 77.9858C18.0033 77.5078 17.6097 77.1323 17.1476 77.1323H14.0843C13.6052 77.1323 13.2287 77.5249 13.2287 77.9858C13.2287 78.4466 13.6223 78.8392 14.0843 78.8392H17.1476C17.6268 78.8562 18.0033 78.4637 18.0033 77.9858ZM19.4237 75.2548C19.4237 74.7769 19.0301 74.4014 18.568 74.4014H14.2383H14.0843C13.6052 74.4014 13.2287 74.794 13.2287 75.2548C13.2287 75.7157 13.6223 76.1082 14.0843 76.1082H17.1476H18.568C19.0301 76.1082 19.4237 75.7327 19.4237 75.2548ZM20.0911 71.6534H17.8664H14.2383C13.8619 71.6534 13.5367 71.8923 13.434 72.2337C13.4169 72.302 13.3998 72.3702 13.3998 72.4214C13.3998 72.4556 13.3998 72.4726 13.3998 72.5068C13.3998 72.9847 13.7934 73.3602 14.2555 73.3602H18.5852H20.1082C20.5874 73.3602 20.9639 72.9676 20.9639 72.5068C20.9639 72.0459 20.5703 71.6534 20.0911 71.6534ZM26.7482 69.9124C26.7482 69.6905 26.6627 69.5027 26.5087 69.3491C26.3204 69.1613 26.0124 69.0589 25.6359 69.0589H15.094C14.0501 69.0589 13.5538 68.6152 13.3142 68.2397C12.9548 67.6593 12.972 66.8571 13.3656 66.0208C13.8619 64.9966 13.9988 63.1532 13.434 62.2145C13.126 61.7024 12.6981 61.5659 12.4586 61.5317C12.219 61.4976 12.0478 61.5317 11.9623 61.5659C11.9452 61.7024 11.9623 61.9755 11.9623 62.1803C11.9965 63.3922 12.0649 65.6282 9.65196 66.7035L9.49794 66.7718C6.67423 68.0348 5.37361 68.5981 5.44206 71.0389C5.44206 71.329 5.21959 71.5509 4.94577 71.568C4.65485 71.568 4.43237 71.3461 4.41526 71.073C4.39814 70.6463 4.43237 70.2708 4.48371 69.9294H2.48144C1.67711 69.9294 1.0268 70.578 1.0268 71.3803V75.8351C1.0268 76.4837 1.23216 77.2689 2.20763 77.2689H5.09979L5.2367 77.3542C8.33423 79.4878 10.9697 79.1123 12.3216 78.6514C12.2532 78.4466 12.2019 78.2247 12.2019 78.0028C12.2019 77.4566 12.4243 76.9787 12.8008 76.6373C12.4414 76.296 12.2019 75.801 12.2019 75.2719C12.2019 75.1353 12.219 74.9988 12.2532 74.8622C11.6542 75.6303 10.8841 76.2789 9.97711 76.7056C9.90866 76.7398 9.82309 76.7568 9.75464 76.7568C9.56639 76.7568 9.37814 76.6544 9.29258 76.4667C9.17278 76.2106 9.27546 75.9034 9.53217 75.7839C10.9697 75.1012 11.9965 73.7869 12.373 72.2849C12.3901 72.1825 12.4072 72.063 12.4414 71.9606C12.4928 71.6534 12.527 71.3461 12.527 71.0389C12.527 70.6805 12.4928 70.322 12.4243 69.9806C12.373 69.7075 12.5441 69.4344 12.8179 69.3832C13.0918 69.332 13.3656 69.5027 13.4169 69.7758C13.4854 70.1001 13.5196 70.4415 13.5367 70.7829C13.7592 70.6975 13.9816 70.6463 14.2383 70.6463H17.8664H20.0911H26.0466C26.6113 70.6292 26.7482 70.1855 26.7482 69.9124ZM83 4.64248V9.09736C83 10.4628 81.8876 11.5723 80.5186 11.5723H78.1911C77.5066 13.0402 75.9664 13.7229 73.9128 14.6275L73.7588 14.6958C71.979 15.481 72.0303 17.0854 72.0645 18.2461C72.0816 18.8776 72.0988 19.3214 71.7907 19.6115C71.5511 19.8505 71.1404 19.97 70.7126 19.97C70.6099 19.97 70.5243 19.97 70.4217 19.9529C70.0109 19.9017 69.2237 19.6798 68.6761 18.7923C67.8889 17.4951 68.06 15.2932 68.6932 14.0131C68.9328 13.5181 68.967 13.0572 68.7959 12.7842C68.6076 12.494 68.1969 12.4428 67.8889 12.4428H57.3299C56.5085 12.4428 56.0122 12.1355 55.7384 11.8795C55.379 11.5382 55.1907 11.0773 55.1907 10.5823C55.1907 9.74596 55.7897 8.84133 56.9192 8.84133H61.728C61.5911 8.5853 61.5227 8.29514 61.5227 7.98791C61.5227 6.99793 62.2928 6.19572 63.2682 6.11037C63.1313 5.85435 63.0629 5.56418 63.0629 5.23988C63.0629 4.28404 63.7817 3.49889 64.7058 3.37942C64.5689 3.12339 64.4833 2.81616 64.4833 2.50892C64.4833 1.50188 65.2876 0.682595 66.2802 0.631389C70.7639 -0.802363 75.453 0.375362 78.2083 2.21876H80.7924C82.1443 2.20169 83 3.14046 83 4.64248ZM81.9732 4.64248C81.9732 3.46476 81.34 3.20873 80.7924 3.20873H77.9002L77.7633 3.12339C75.8637 1.82618 71.3629 0.0339923 66.5369 1.60429C66.5198 1.60429 66.5198 1.60429 66.5027 1.60429C66.4856 1.60429 66.4685 1.60429 66.4513 1.62136C66.4342 1.62136 66.4171 1.62136 66.4 1.62136C66.3829 1.62136 66.3829 1.62136 66.3829 1.62136C65.9037 1.62136 65.5272 2.01394 65.5272 2.47479C65.5272 2.93563 65.9208 3.32821 66.3829 3.32821V3.39648C66.554 3.48183 66.6909 3.65251 66.6909 3.85733C66.6909 4.06215 66.5711 4.24991 66.3829 4.31818V4.36939H66.1775H64.9625C64.4833 4.36939 64.1068 4.76196 64.1068 5.22281C64.1068 5.68366 64.5004 6.07624 64.9625 6.07624H66.0064H66.1604C66.4513 6.07624 66.6738 6.29813 66.6738 6.58829C66.6738 6.87845 66.4513 7.10034 66.1604 7.10034H66.0064H64.9625H63.4394C62.9602 7.10034 62.5837 7.49292 62.5837 7.95377C62.5837 8.41462 62.9773 8.80719 63.4394 8.80719H65.1507H66.0235C66.3144 8.80719 66.5369 9.02908 66.5369 9.31925C66.5369 9.60941 66.3144 9.8313 66.0235 9.8313H65.1507H63.4394H56.9534C56.4058 9.8313 56.2518 10.2751 56.2518 10.5482C56.2518 10.7701 56.3373 10.9578 56.4913 11.1114C56.6796 11.2992 56.9876 11.4016 57.3641 11.4016H67.9231C68.967 11.4016 69.4633 11.8454 69.7029 12.2209C70.0623 12.8012 70.0452 13.6034 69.6516 14.4398C69.1553 15.4639 69.0184 17.3073 69.5831 18.2461C69.8911 18.7581 70.319 18.8947 70.5586 18.9288C70.7981 18.9629 70.9693 18.9288 71.0548 18.8947C71.072 18.7581 71.0548 18.485 71.0548 18.2802C71.0206 17.0683 70.9522 14.8324 73.3652 13.7571L73.5192 13.6888C76.3429 12.4257 77.6435 11.8625 77.5751 9.42166C77.5751 9.13149 77.7975 8.9096 78.0713 8.89254C78.3623 8.89254 78.5847 9.11443 78.6019 9.38752C78.619 9.81423 78.5847 10.1897 78.5334 10.5311H80.5528C81.3571 10.5311 82.0074 9.88251 82.0074 9.08029V4.64248H81.9732Z" fill="white"/>
</g>
<defs>
<clipPath id="clip0">
<rect width="83" height="80" fill="white"/>
</clipPath>
</defs>
</svg>
