<svg width="56" height="80" viewBox="0 0 56 80" fill="none" xmlns="http://www.w3.org/2000/svg">
<path d="M54.0939 1.91382H1.94624V53.7254H54.0939V1.91382Z" fill="white"/>
<path opacity="0.25" d="M23.8486 7.09497H22.1793V8.75358H23.8486V7.09497Z" fill="black"/>
<path opacity="0.25" d="M32.1935 7.09497H30.5241V8.75358H32.1935V7.09497Z" fill="black"/>
<path opacity="0.25" d="M35.5302 7.09497H33.8608V8.75358H35.5302V7.09497Z" fill="black"/>
<path opacity="0.25" d="M22.1793 8.75354H20.5099V10.4122H22.1793V8.75354Z" fill="black"/>
<path opacity="0.25" d="M23.8486 8.75354H22.1793V10.4122H23.8486V8.75354Z" fill="black"/>
<path opacity="0.25" d="M27.1854 8.75354H25.516V10.4122H27.1854V8.75354Z" fill="black"/>
<path opacity="0.25" d="M28.8548 8.75354H27.1854V10.4122H28.8548V8.75354Z" fill="black"/>
<path opacity="0.25" d="M30.5241 8.75354H28.8548V10.4122H30.5241V8.75354Z" fill="black"/>
<path opacity="0.25" d="M32.1935 8.75354H30.5241V10.4122H32.1935V8.75354Z" fill="black"/>
<path opacity="0.25" d="M23.8486 10.4102H22.1793V12.0688H23.8486V10.4102Z" fill="black"/>
<path opacity="0.25" d="M25.518 10.4102H23.8487V12.0688H25.518V10.4102Z" fill="black"/>
<path opacity="0.25" d="M27.1854 10.4102H25.516V12.0688H27.1854V10.4102Z" fill="black"/>
<path opacity="0.25" d="M22.1793 12.0687H20.5099V13.7273H22.1793V12.0687Z" fill="black"/>
<path opacity="0.25" d="M23.8486 12.0687H22.1793V13.7273H23.8486V12.0687Z" fill="black"/>
<path opacity="0.25" d="M27.1854 12.0687H25.516V13.7273H27.1854V12.0687Z" fill="black"/>
<path opacity="0.25" d="M30.5241 12.0687H28.8548V13.7273H30.5241V12.0687Z" fill="black"/>
<path opacity="0.25" d="M33.8608 12.0687H32.1915V13.7273H33.8608V12.0687Z" fill="black"/>
<path opacity="0.25" d="M35.5302 12.0687H33.8608V13.7273H35.5302V12.0687Z" fill="black"/>
<path opacity="0.25" d="M25.518 13.7274H23.8487V15.386H25.518V13.7274Z" fill="black"/>
<path opacity="0.25" d="M28.8548 13.7274H27.1854V15.386H28.8548V13.7274Z" fill="black"/>
<path opacity="0.25" d="M33.8608 13.7274H32.1915V15.386H33.8608V13.7274Z" fill="black"/>
<path opacity="0.25" d="M35.5302 13.7274H33.8608V15.386H35.5302V13.7274Z" fill="black"/>
<path opacity="0.25" d="M22.1793 15.3839H20.5099V17.0425H22.1793V15.3839Z" fill="black"/>
<path opacity="0.25" d="M25.518 15.3839H23.8487V17.0425H25.518V15.3839Z" fill="black"/>
<path opacity="0.25" d="M30.5241 15.3839H28.8548V17.0425H30.5241V15.3839Z" fill="black"/>
<path opacity="0.25" d="M32.1935 15.3839H30.5241V17.0425H32.1935V15.3839Z" fill="black"/>
<path opacity="0.25" d="M33.8608 15.3839H32.1915V17.0425H33.8608V15.3839Z" fill="black"/>
<path opacity="0.25" d="M22.1793 17.0426H20.5099V18.7012H22.1793V17.0426Z" fill="black"/>
<path opacity="0.25" d="M25.518 17.0426H23.8487V18.7012H25.518V17.0426Z" fill="black"/>
<path opacity="0.25" d="M28.8548 17.0426H27.1854V18.7012H28.8548V17.0426Z" fill="black"/>
<path opacity="0.25" d="M32.1935 17.0426H30.5241V18.7012H32.1935V17.0426Z" fill="black"/>
<path opacity="0.25" d="M35.5302 17.0426H33.8608V18.7012H35.5302V17.0426Z" fill="black"/>
<path opacity="0.25" d="M28.8548 18.7012H27.1854V20.3598H28.8548V18.7012Z" fill="black"/>
<path opacity="0.25" d="M35.5302 18.7012H33.8608V20.3598H35.5302V18.7012Z" fill="black"/>
<path opacity="0.25" d="M8.83037 20.3578H7.16101V22.0164H8.83037V20.3578Z" fill="black"/>
<path opacity="0.25" d="M10.4997 20.3578H8.83037V22.0164H10.4997V20.3578Z" fill="black"/>
<path opacity="0.25" d="M12.1671 20.3578H10.4977V22.0164H12.1671V20.3578Z" fill="black"/>
<path opacity="0.25" d="M13.8365 20.3578H12.1671V22.0164H13.8365V20.3578Z" fill="black"/>
<path opacity="0.25" d="M15.5058 20.3578H13.8365V22.0164H15.5058V20.3578Z" fill="black"/>
<path opacity="0.25" d="M18.8426 20.3578H17.1732V22.0164H18.8426V20.3578Z" fill="black"/>
<path opacity="0.25" d="M20.5119 20.3578H18.8426V22.0164H20.5119V20.3578Z" fill="black"/>
<path opacity="0.25" d="M22.1793 20.3578H20.5099V22.0164H22.1793V20.3578Z" fill="black"/>
<path opacity="0.25" d="M23.8486 20.3578H22.1793V22.0164H23.8486V20.3578Z" fill="black"/>
<path opacity="0.25" d="M25.518 20.3578H23.8487V22.0164H25.518V20.3578Z" fill="black"/>
<path opacity="0.25" d="M28.8548 20.3578H27.1854V22.0164H28.8548V20.3578Z" fill="black"/>
<path opacity="0.25" d="M30.5241 20.3578H28.8548V22.0164H30.5241V20.3578Z" fill="black"/>
<path opacity="0.25" d="M33.8608 20.3578H32.1915V22.0164H33.8608V20.3578Z" fill="black"/>
<path opacity="0.25" d="M37.1995 20.3578H35.5302V22.0164H37.1995V20.3578Z" fill="black"/>
<path opacity="0.25" d="M40.5363 20.3578H38.8669V22.0164H40.5363V20.3578Z" fill="black"/>
<path opacity="0.25" d="M43.873 20.3578H42.2037V22.0164H43.873V20.3578Z" fill="black"/>
<path opacity="0.25" d="M47.2118 20.3578H45.5424V22.0164H47.2118V20.3578Z" fill="black"/>
<path opacity="0.25" d="M13.8365 22.0165H12.1671V23.6751H13.8365V22.0165Z" fill="black"/>
<path opacity="0.25" d="M23.8486 22.0165H22.1793V23.6751H23.8486V22.0165Z" fill="black"/>
<path opacity="0.25" d="M33.8608 22.0165H32.1915V23.6751H33.8608V22.0165Z" fill="black"/>
<path opacity="0.25" d="M35.5302 22.0165H33.8608V23.6751H35.5302V22.0165Z" fill="black"/>
<path opacity="0.25" d="M37.1995 22.0165H35.5302V23.6751H37.1995V22.0165Z" fill="black"/>
<path opacity="0.25" d="M40.5363 22.0165H38.8669V23.6751H40.5363V22.0165Z" fill="black"/>
<path opacity="0.25" d="M42.2057 22.0165H40.5363V23.6751H42.2057V22.0165Z" fill="black"/>
<path opacity="0.25" d="M48.8791 22.0165H47.2097V23.6751H48.8791V22.0165Z" fill="black"/>
<path opacity="0.25" d="M12.1671 23.675H10.4977V25.3336H12.1671V23.675Z" fill="black"/>
<path opacity="0.25" d="M17.1732 23.675H15.5038V25.3336H17.1732V23.675Z" fill="black"/>
<path opacity="0.25" d="M18.8426 23.675H17.1732V25.3336H18.8426V23.675Z" fill="black"/>
<path opacity="0.25" d="M20.5119 23.675H18.8426V25.3336H20.5119V23.675Z" fill="black"/>
<path opacity="0.25" d="M23.8486 23.675H22.1793V25.3336H23.8486V23.675Z" fill="black"/>
<path opacity="0.25" d="M27.1854 23.675H25.516V25.3336H27.1854V23.675Z" fill="black"/>
<path opacity="0.25" d="M28.8548 23.675H27.1854V25.3336H28.8548V23.675Z" fill="black"/>
<path opacity="0.25" d="M30.5241 23.675H28.8548V25.3336H30.5241V23.675Z" fill="black"/>
<path opacity="0.25" d="M32.1935 23.675H30.5241V25.3336H32.1935V23.675Z" fill="black"/>
<path opacity="0.25" d="M33.8608 23.675H32.1915V25.3336H33.8608V23.675Z" fill="black"/>
<path opacity="0.25" d="M37.1995 23.675H35.5302V25.3336H37.1995V23.675Z" fill="black"/>
<path opacity="0.25" d="M38.8669 23.675H37.1975V25.3336H38.8669V23.675Z" fill="black"/>
<path opacity="0.25" d="M42.2057 23.675H40.5363V25.3336H42.2057V23.675Z" fill="black"/>
<path opacity="0.25" d="M45.5424 23.675H43.873V25.3336H45.5424V23.675Z" fill="black"/>
<path opacity="0.25" d="M8.83037 25.3318H7.16101V26.9904H8.83037V25.3318Z" fill="black"/>
<path opacity="0.25" d="M12.1671 25.3318H10.4977V26.9904H12.1671V25.3318Z" fill="black"/>
<path opacity="0.25" d="M13.8365 25.3318H12.1671V26.9904H13.8365V25.3318Z" fill="black"/>
<path opacity="0.25" d="M15.5058 25.3318H13.8365V26.9904H15.5058V25.3318Z" fill="black"/>
<path opacity="0.25" d="M17.1732 25.3318H15.5038V26.9904H17.1732V25.3318Z" fill="black"/>
<path opacity="0.25" d="M20.5119 25.3318H18.8426V26.9904H20.5119V25.3318Z" fill="black"/>
<path opacity="0.25" d="M22.1793 25.3318H20.5099V26.9904H22.1793V25.3318Z" fill="black"/>
<path opacity="0.25" d="M23.8486 25.3318H22.1793V26.9904H23.8486V25.3318Z" fill="black"/>
<path opacity="0.25" d="M25.518 25.3318H23.8487V26.9904H25.518V25.3318Z" fill="black"/>
<path opacity="0.25" d="M27.1854 25.3318H25.516V26.9904H27.1854V25.3318Z" fill="black"/>
<path opacity="0.25" d="M32.1935 25.3318H30.5241V26.9904H32.1935V25.3318Z" fill="black"/>
<path opacity="0.25" d="M35.5302 25.3318H33.8608V26.9904H35.5302V25.3318Z" fill="black"/>
<path opacity="0.25" d="M37.1995 25.3318H35.5302V26.9904H37.1995V25.3318Z" fill="black"/>
<path opacity="0.25" d="M8.83037 26.9902H7.16101V28.6488H8.83037V26.9902Z" fill="black"/>
<path opacity="0.25" d="M13.8365 26.9902H12.1671V28.6488H13.8365V26.9902Z" fill="black"/>
<path opacity="0.25" d="M18.8426 26.9902H17.1732V28.6488H18.8426V26.9902Z" fill="black"/>
<path opacity="0.25" d="M23.8486 26.9902H22.1793V28.6488H23.8486V26.9902Z" fill="black"/>
<path opacity="0.25" d="M27.1854 26.9902H25.516V28.6488H27.1854V26.9902Z" fill="black"/>
<path opacity="0.25" d="M30.5241 26.9902H28.8548V28.6488H30.5241V26.9902Z" fill="black"/>
<path opacity="0.25" d="M33.8608 26.9902H32.1915V28.6488H33.8608V26.9902Z" fill="black"/>
<path opacity="0.25" d="M38.8669 26.9902H37.1975V28.6488H38.8669V26.9902Z" fill="black"/>
<path opacity="0.25" d="M40.5363 26.9902H38.8669V28.6488H40.5363V26.9902Z" fill="black"/>
<path opacity="0.25" d="M42.2057 26.9902H40.5363V28.6488H42.2057V26.9902Z" fill="black"/>
<path opacity="0.25" d="M43.873 26.9902H42.2037V28.6488H43.873V26.9902Z" fill="black"/>
<path opacity="0.25" d="M47.2118 26.9902H45.5424V28.6488H47.2118V26.9902Z" fill="black"/>
<path opacity="0.25" d="M48.8791 26.9902H47.2097V28.6488H48.8791V26.9902Z" fill="black"/>
<path opacity="0.25" d="M8.83037 28.6489H7.16101V30.3075H8.83037V28.6489Z" fill="black"/>
<path opacity="0.25" d="M10.4997 28.6489H8.83037V30.3075H10.4997V28.6489Z" fill="black"/>
<path opacity="0.25" d="M13.8365 28.6489H12.1671V30.3075H13.8365V28.6489Z" fill="black"/>
<path opacity="0.25" d="M20.5119 28.6489H18.8426V30.3075H20.5119V28.6489Z" fill="black"/>
<path opacity="0.25" d="M25.518 28.6489H23.8487V30.3075H25.518V28.6489Z" fill="black"/>
<path opacity="0.25" d="M28.8548 28.6489H27.1854V30.3075H28.8548V28.6489Z" fill="black"/>
<path opacity="0.25" d="M32.1935 28.6489H30.5241V30.3075H32.1935V28.6489Z" fill="black"/>
<path opacity="0.25" d="M35.5302 28.6489H33.8608V30.3075H35.5302V28.6489Z" fill="black"/>
<path opacity="0.25" d="M37.1995 28.6489H35.5302V30.3075H37.1995V28.6489Z" fill="black"/>
<path opacity="0.25" d="M38.8669 28.6489H37.1975V30.3075H38.8669V28.6489Z" fill="black"/>
<path opacity="0.25" d="M40.5363 28.6489H38.8669V30.3075H40.5363V28.6489Z" fill="black"/>
<path opacity="0.25" d="M42.2057 28.6489H40.5363V30.3075H42.2057V28.6489Z" fill="black"/>
<path opacity="0.25" d="M8.83037 30.3075H7.16101V31.9661H8.83037V30.3075Z" fill="black"/>
<path opacity="0.25" d="M12.1671 30.3075H10.4977V31.9661H12.1671V30.3075Z" fill="black"/>
<path opacity="0.25" d="M13.8365 30.3075H12.1671V31.9661H13.8365V30.3075Z" fill="black"/>
<path opacity="0.25" d="M15.5058 30.3075H13.8365V31.9661H15.5058V30.3075Z" fill="black"/>
<path opacity="0.25" d="M18.8426 30.3075H17.1732V31.9661H18.8426V30.3075Z" fill="black"/>
<path opacity="0.25" d="M20.5119 30.3075H18.8426V31.9661H20.5119V30.3075Z" fill="black"/>
<path opacity="0.25" d="M30.5241 30.3075H28.8548V31.9661H30.5241V30.3075Z" fill="black"/>
<path opacity="0.25" d="M37.1995 30.3075H35.5302V31.9661H37.1995V30.3075Z" fill="black"/>
<path opacity="0.25" d="M38.8669 30.3075H37.1975V31.9661H38.8669V30.3075Z" fill="black"/>
<path opacity="0.25" d="M42.2057 30.3075H40.5363V31.9661H42.2057V30.3075Z" fill="black"/>
<path opacity="0.25" d="M45.5424 30.3075H43.873V31.9661H45.5424V30.3075Z" fill="black"/>
<path opacity="0.25" d="M47.2118 30.3075H45.5424V31.9661H47.2118V30.3075Z" fill="black"/>
<path opacity="0.25" d="M48.8791 30.3075H47.2097V31.9661H48.8791V30.3075Z" fill="black"/>
<path opacity="0.25" d="M8.83037 31.9641H7.16101V33.6227H8.83037V31.9641Z" fill="black"/>
<path opacity="0.25" d="M13.8365 31.9641H12.1671V33.6227H13.8365V31.9641Z" fill="black"/>
<path opacity="0.25" d="M17.1732 31.9641H15.5038V33.6227H17.1732V31.9641Z" fill="black"/>
<path opacity="0.25" d="M23.8486 31.9641H22.1793V33.6227H23.8486V31.9641Z" fill="black"/>
<path opacity="0.25" d="M25.518 31.9641H23.8487V33.6227H25.518V31.9641Z" fill="black"/>
<path opacity="0.25" d="M28.8548 31.9641H27.1854V33.6227H28.8548V31.9641Z" fill="black"/>
<path opacity="0.25" d="M30.5241 31.9641H28.8548V33.6227H30.5241V31.9641Z" fill="black"/>
<path opacity="0.25" d="M32.1935 31.9641H30.5241V33.6227H32.1935V31.9641Z" fill="black"/>
<path opacity="0.25" d="M37.1995 31.9641H35.5302V33.6227H37.1995V31.9641Z" fill="black"/>
<path opacity="0.25" d="M47.2118 31.9641H45.5424V33.6227H47.2118V31.9641Z" fill="black"/>
<path opacity="0.25" d="M48.8791 31.9641H47.2097V33.6227H48.8791V31.9641Z" fill="black"/>
<path opacity="0.25" d="M8.83037 33.6227H7.16101V35.2813H8.83037V33.6227Z" fill="black"/>
<path opacity="0.25" d="M18.8426 33.6227H17.1732V35.2813H18.8426V33.6227Z" fill="black"/>
<path opacity="0.25" d="M25.518 33.6227H23.8487V35.2813H25.518V33.6227Z" fill="black"/>
<path opacity="0.25" d="M28.8548 33.6227H27.1854V35.2813H28.8548V33.6227Z" fill="black"/>
<path opacity="0.25" d="M33.8608 33.6227H32.1915V35.2813H33.8608V33.6227Z" fill="black"/>
<path opacity="0.25" d="M35.5302 33.6227H33.8608V35.2813H35.5302V33.6227Z" fill="black"/>
<path opacity="0.25" d="M37.1995 33.6227H35.5302V35.2813H37.1995V33.6227Z" fill="black"/>
<path opacity="0.25" d="M38.8669 33.6227H37.1975V35.2813H38.8669V33.6227Z" fill="black"/>
<path opacity="0.25" d="M40.5363 33.6227H38.8669V35.2813H40.5363V33.6227Z" fill="black"/>
<path opacity="0.25" d="M42.2057 33.6227H40.5363V35.2813H42.2057V33.6227Z" fill="black"/>
<path opacity="0.25" d="M43.873 33.6227H42.2037V35.2813H43.873V33.6227Z" fill="black"/>
<path opacity="0.25" d="M48.8791 33.6227H47.2097V35.2813H48.8791V33.6227Z" fill="black"/>
<path opacity="0.25" d="M22.1793 35.2814H20.5099V36.94H22.1793V35.2814Z" fill="black"/>
<path opacity="0.25" d="M25.518 35.2814H23.8487V36.94H25.518V35.2814Z" fill="black"/>
<path opacity="0.25" d="M32.1935 35.2814H30.5241V36.94H32.1935V35.2814Z" fill="black"/>
<path opacity="0.25" d="M35.5302 35.2814H33.8608V36.94H35.5302V35.2814Z" fill="black"/>
<path opacity="0.25" d="M42.2057 35.2814H40.5363V36.94H42.2057V35.2814Z" fill="black"/>
<path opacity="0.25" d="M48.8791 35.2814H47.2097V36.94H48.8791V35.2814Z" fill="black"/>
<path opacity="0.25" d="M22.1793 36.9379H20.5099V38.5965H22.1793V36.9379Z" fill="black"/>
<path opacity="0.25" d="M23.8486 36.9379H22.1793V38.5965H23.8486V36.9379Z" fill="black"/>
<path opacity="0.25" d="M25.518 36.9379H23.8487V38.5965H25.518V36.9379Z" fill="black"/>
<path opacity="0.25" d="M27.1854 36.9379H25.516V38.5965H27.1854V36.9379Z" fill="black"/>
<path opacity="0.25" d="M28.8548 36.9379H27.1854V38.5965H28.8548V36.9379Z" fill="black"/>
<path opacity="0.25" d="M32.1935 36.9379H30.5241V38.5965H32.1935V36.9379Z" fill="black"/>
<path opacity="0.25" d="M35.5302 36.9379H33.8608V38.5965H35.5302V36.9379Z" fill="black"/>
<path opacity="0.25" d="M38.8669 36.9379H37.1975V38.5965H38.8669V36.9379Z" fill="black"/>
<path opacity="0.25" d="M42.2057 36.9379H40.5363V38.5965H42.2057V36.9379Z" fill="black"/>
<path opacity="0.25" d="M45.5424 36.9379H43.873V38.5965H45.5424V36.9379Z" fill="black"/>
<path opacity="0.25" d="M47.2118 36.9379H45.5424V38.5965H47.2118V36.9379Z" fill="black"/>
<path opacity="0.25" d="M48.8791 36.9379H47.2097V38.5965H48.8791V36.9379Z" fill="black"/>
<path opacity="0.25" d="M23.8486 38.5966H22.1793V40.2552H23.8486V38.5966Z" fill="black"/>
<path opacity="0.25" d="M25.518 38.5966H23.8487V40.2552H25.518V38.5966Z" fill="black"/>
<path opacity="0.25" d="M27.1854 38.5966H25.516V40.2552H27.1854V38.5966Z" fill="black"/>
<path opacity="0.25" d="M32.1935 38.5966H30.5241V40.2552H32.1935V38.5966Z" fill="black"/>
<path opacity="0.25" d="M35.5302 38.5966H33.8608V40.2552H35.5302V38.5966Z" fill="black"/>
<path opacity="0.25" d="M42.2057 38.5966H40.5363V40.2552H42.2057V38.5966Z" fill="black"/>
<path opacity="0.25" d="M43.873 38.5966H42.2037V40.2552H43.873V38.5966Z" fill="black"/>
<path opacity="0.25" d="M22.1793 40.2552H20.5099V41.9139H22.1793V40.2552Z" fill="black"/>
<path opacity="0.25" d="M23.8486 40.2552H22.1793V41.9139H23.8486V40.2552Z" fill="black"/>
<path opacity="0.25" d="M27.1854 40.2552H25.516V41.9139H27.1854V40.2552Z" fill="black"/>
<path opacity="0.25" d="M28.8548 40.2552H27.1854V41.9139H28.8548V40.2552Z" fill="black"/>
<path opacity="0.25" d="M30.5241 40.2552H28.8548V41.9139H30.5241V40.2552Z" fill="black"/>
<path opacity="0.25" d="M35.5302 40.2552H33.8608V41.9139H35.5302V40.2552Z" fill="black"/>
<path opacity="0.25" d="M37.1995 40.2552H35.5302V41.9139H37.1995V40.2552Z" fill="black"/>
<path opacity="0.25" d="M38.8669 40.2552H37.1975V41.9139H38.8669V40.2552Z" fill="black"/>
<path opacity="0.25" d="M40.5363 40.2552H38.8669V41.9139H40.5363V40.2552Z" fill="black"/>
<path opacity="0.25" d="M42.2057 40.2552H40.5363V41.9139H42.2057V40.2552Z" fill="black"/>
<path opacity="0.25" d="M43.873 40.2552H42.2037V41.9139H43.873V40.2552Z" fill="black"/>
<path opacity="0.25" d="M22.1793 41.9117H20.5099V43.5704H22.1793V41.9117Z" fill="black"/>
<path opacity="0.25" d="M23.8486 41.9117H22.1793V43.5704H23.8486V41.9117Z" fill="black"/>
<path opacity="0.25" d="M25.518 41.9117H23.8487V43.5704H25.518V41.9117Z" fill="black"/>
<path opacity="0.25" d="M28.8548 41.9117H27.1854V43.5704H28.8548V41.9117Z" fill="black"/>
<path opacity="0.25" d="M33.8608 41.9117H32.1915V43.5704H33.8608V41.9117Z" fill="black"/>
<path opacity="0.25" d="M35.5302 41.9117H33.8608V43.5704H35.5302V41.9117Z" fill="black"/>
<path opacity="0.25" d="M38.8669 41.9117H37.1975V43.5704H38.8669V41.9117Z" fill="black"/>
<path opacity="0.25" d="M42.2057 41.9117H40.5363V43.5704H42.2057V41.9117Z" fill="black"/>
<path opacity="0.25" d="M47.2118 41.9117H45.5424V43.5704H47.2118V41.9117Z" fill="black"/>
<path opacity="0.25" d="M48.8791 41.9117H47.2097V43.5704H48.8791V41.9117Z" fill="black"/>
<path opacity="0.25" d="M22.1793 43.5703H20.5099V45.2289H22.1793V43.5703Z" fill="black"/>
<path opacity="0.25" d="M23.8486 43.5703H22.1793V45.2289H23.8486V43.5703Z" fill="black"/>
<path opacity="0.25" d="M28.8548 43.5703H27.1854V45.2289H28.8548V43.5703Z" fill="black"/>
<path opacity="0.25" d="M30.5241 43.5703H28.8548V45.2289H30.5241V43.5703Z" fill="black"/>
<path opacity="0.25" d="M32.1935 43.5703H30.5241V45.2289H32.1935V43.5703Z" fill="black"/>
<path opacity="0.25" d="M42.2057 43.5703H40.5363V45.2289H42.2057V43.5703Z" fill="black"/>
<path opacity="0.25" d="M45.5424 43.5703H43.873V45.2289H45.5424V43.5703Z" fill="black"/>
<path opacity="0.25" d="M48.8791 43.5703H47.2097V45.2289H48.8791V43.5703Z" fill="black"/>
<path opacity="0.25" d="M22.1793 45.229H20.5099V46.8876H22.1793V45.229Z" fill="black"/>
<path opacity="0.25" d="M23.8486 45.229H22.1793V46.8876H23.8486V45.229Z" fill="black"/>
<path opacity="0.25" d="M25.518 45.229H23.8487V46.8876H25.518V45.229Z" fill="black"/>
<path opacity="0.25" d="M28.8548 45.229H27.1854V46.8876H28.8548V45.229Z" fill="black"/>
<path opacity="0.25" d="M30.5241 45.229H28.8548V46.8876H30.5241V45.229Z" fill="black"/>
<path opacity="0.25" d="M35.5302 45.229H33.8608V46.8876H35.5302V45.229Z" fill="black"/>
<path opacity="0.25" d="M37.1995 45.229H35.5302V46.8876H37.1995V45.229Z" fill="black"/>
<path opacity="0.25" d="M38.8669 45.229H37.1975V46.8876H38.8669V45.229Z" fill="black"/>
<path opacity="0.25" d="M40.5363 45.229H38.8669V46.8876H40.5363V45.229Z" fill="black"/>
<path opacity="0.25" d="M42.2057 45.229H40.5363V46.8876H42.2057V45.229Z" fill="black"/>
<path opacity="0.25" d="M43.873 45.229H42.2037V46.8876H43.873V45.229Z" fill="black"/>
<path opacity="0.25" d="M47.2118 45.229H45.5424V46.8876H47.2118V45.229Z" fill="black"/>
<path opacity="0.25" d="M22.1793 46.8857H20.5099V48.5443H22.1793V46.8857Z" fill="black"/>
<path opacity="0.25" d="M30.5241 46.8857H28.8548V48.5443H30.5241V46.8857Z" fill="black"/>
<path opacity="0.25" d="M33.8608 46.8857H32.1915V48.5443H33.8608V46.8857Z" fill="black"/>
<path opacity="0.25" d="M45.5424 46.8857H43.873V48.5443H45.5424V46.8857Z" fill="black"/>
<path opacity="0.25" d="M47.2118 46.8857H45.5424V48.5443H47.2118V46.8857Z" fill="black"/>
<path opacity="0.25" d="M48.8791 46.8857H47.2097V48.5443H48.8791V46.8857Z" fill="black"/>
<path opacity="0.25" d="M7.51417 7.09302C7.31954 7.09302 7.15903 7.2525 7.15903 7.44587V8.75163V10.4102V12.0688V13.7275V15.3861V17.0447V18.3504C7.15903 18.5438 7.31754 18.7033 7.51417 18.7033H18.4874C18.6821 18.7033 18.8426 18.5458 18.8426 18.3504V17.0447V15.3861V13.7275V12.0688V10.4102V8.75163V7.44587C18.8426 7.2525 18.6841 7.09302 18.4874 7.09302C18.4874 7.09302 7.51417 7.09302 7.51417 7.09302ZM17.1732 10.4102V12.0688V13.7275V15.3861V16.8413C17.1732 16.955 17.0809 17.0427 16.9706 17.0427H9.03305C8.91868 17.0427 8.8304 16.951 8.8304 16.8413V15.3861V13.7275V12.0688V10.4102V8.95497C8.8304 8.84133 8.9227 8.75362 9.03305 8.75362H16.9686C17.0829 8.75362 17.1712 8.84532 17.1712 8.95497V10.4102H17.1732Z" fill="black"/>
<path opacity="0.25" d="M15.5038 13.7274V12.0688V10.763C15.5038 10.5696 15.3453 10.4102 15.1487 10.4102H10.8529C10.6583 10.4102 10.4977 10.5676 10.4977 10.763V12.0688V13.7274V15.0331C10.4977 15.2265 10.6563 15.386 10.8529 15.386H15.1487C15.3433 15.386 15.5038 15.2285 15.5038 15.0331V13.7274Z" fill="black"/>
<path opacity="0.25" d="M37.5527 7.09302C37.3581 7.09302 37.1975 7.2525 37.1975 7.44587V8.75163V10.4102V12.0688V13.7275V15.3861V17.0447V18.3504C37.1975 18.5438 37.3561 18.7033 37.5527 18.7033H48.526C48.7206 18.7033 48.8811 18.5458 48.8811 18.3504V17.0447V15.3861V13.7275V12.0688V10.4102V8.75163V7.44587C48.8811 7.2525 48.7226 7.09302 48.526 7.09302C48.526 7.09302 37.5527 7.09302 37.5527 7.09302ZM47.2097 10.4102V12.0688V13.7275V15.3861V16.8413C47.2097 16.955 47.1174 17.0427 47.0071 17.0427H39.0716C38.9572 17.0427 38.8689 16.951 38.8689 16.8413V15.3861V13.7275V12.0688V10.4102V8.95497C38.8689 8.84133 38.9612 8.75362 39.0716 8.75362H47.0071C47.1214 8.75362 47.2097 8.84532 47.2097 8.95497V10.4102Z" fill="black"/>
<path opacity="0.25" d="M45.5424 13.7274V12.0688V10.763C45.5424 10.5696 45.3839 10.4102 45.1872 10.4102H40.8894C40.6948 10.4102 40.5343 10.5676 40.5343 10.763V12.0688V13.7274V15.0331C40.5343 15.2265 40.6928 15.386 40.8894 15.386H45.1872C45.3819 15.386 45.5424 15.2285 45.5424 15.0331V13.7274Z" fill="black"/>
<path opacity="0.25" d="M7.51417 36.9359C7.31954 36.9359 7.15903 37.0954 7.15903 37.2888V38.5945V40.2531V41.9117V43.5704V45.229V46.8876V48.1933C7.15903 48.3867 7.31754 48.5462 7.51417 48.5462H18.4874C18.6821 48.5462 18.8426 48.3887 18.8426 48.1933V46.8876V45.229V43.5704V41.9117V40.2531V38.5945V37.2888C18.8426 37.0954 18.6841 36.9359 18.4874 36.9359H7.51417ZM17.1732 40.2551V41.9137V43.5723V45.231V46.6862C17.1732 46.7999 17.0809 46.8876 16.9706 46.8876H9.03305C8.91868 46.8876 8.8304 46.7959 8.8304 46.6862V45.231V43.5723V41.9137V40.2551V38.7999C8.8304 38.6862 8.9227 38.5985 9.03305 38.5985H16.9686C17.0829 38.5985 17.1712 38.6902 17.1712 38.7999V40.2551H17.1732Z" fill="black"/>
<path opacity="0.25" d="M15.5038 43.5704V41.9118V40.606C15.5038 40.4127 15.3453 40.2532 15.1487 40.2532H10.8529C10.6583 40.2532 10.4977 40.4107 10.4977 40.606V41.9118V43.5704V44.8762C10.4977 45.0695 10.6563 45.229 10.8529 45.229H15.1487C15.3433 45.229 15.5038 45.0715 15.5038 44.8762V43.5704Z" fill="black"/>
<path d="M2.74884 55.6392H53.2512C54.7761 55.6392 56 54.4032 56 52.9081V2.73112C56 1.21605 54.756 0 53.2512 0H2.7689C1.244 0 0.0200645 1.23598 0 2.73112V52.9081C0 54.4231 1.244 55.6392 2.74884 55.6392ZM2.12684 3.5684C2.12684 2.75106 2.78896 2.0932 3.61161 2.0932H52.4085C53.2311 2.0932 53.8932 2.75106 53.8932 3.5684V52.0708C53.8932 52.8881 53.2311 53.546 52.4085 53.546H3.61161C2.78896 53.546 2.12684 52.8881 2.12684 52.0708V3.5684ZM53.4117 80H2.50806C1.14368 80 0.0200645 78.9036 0.0200645 77.528V66.4241C0.0200645 65.0685 1.12361 63.9522 2.50806 63.9522H21.4891C21.6496 63.9522 21.8101 63.8924 21.9305 63.7727L27.5084 58.2308C27.7492 57.9915 28.1505 57.9915 28.3913 58.2308L33.9692 63.7727C34.0896 63.8924 34.2501 63.9522 34.4106 63.9522H53.3916C54.756 63.9522 55.8796 65.0486 55.8796 66.4241V77.528C55.8997 78.8836 54.7761 80 53.4117 80Z" fill="black"/>
<path d="M13.6017 73.5888C13.6017 74.1311 13.4051 74.5597 13.0098 74.8707C12.6145 75.1817 12.0668 75.3391 11.3625 75.3391C10.6181 75.3391 10.0443 75.2415 9.63898 75.0461V74.2965C9.90583 74.4102 10.1968 74.4999 10.5118 74.5657C10.8268 74.6314 11.1237 74.6633 11.3966 74.6633C11.8661 74.6633 12.2193 74.5736 12.456 74.3942C12.6928 74.2148 12.8112 73.9696 12.8112 73.6566C12.8112 73.4493 12.769 73.2778 12.6828 73.1443C12.5965 73.0107 12.454 72.8851 12.2514 72.7695C12.0487 72.6539 11.7437 72.5203 11.3364 72.3728C10.7566 72.1635 10.3412 71.9143 10.0924 71.6292C9.84363 71.3441 9.71923 70.9753 9.71923 70.5228C9.71923 70.0364 9.90383 69.6496 10.271 69.3646C10.6382 69.0775 11.1217 68.934 11.7237 68.934C12.3497 68.934 12.9255 69.0496 13.4512 69.2828L13.2064 69.9566C12.6687 69.7354 12.1691 69.6237 11.7056 69.6237C11.3344 69.6237 11.0435 69.7035 10.8328 69.8629C10.6221 70.0224 10.5178 70.2457 10.5178 70.5328C10.5178 70.7381 10.5579 70.9075 10.6402 71.0411C10.7225 71.1767 10.8529 71.2983 11.0355 71.4099C11.2181 71.5215 11.503 71.6471 11.8902 71.7887C12.3557 71.9601 12.7028 72.1256 12.9316 72.2851C13.1603 72.4465 13.3288 72.6299 13.4372 72.8393C13.5475 73.0506 13.6017 73.2998 13.6017 73.5888ZM17.5524 69.6257C16.8782 69.6257 16.3465 69.851 15.9613 70.2995C15.5761 70.7481 15.3814 71.3621 15.3814 72.1395C15.3814 72.9429 15.568 73.5629 15.9432 73.9995C16.3184 74.4361 16.8502 74.6534 17.5424 74.6534C17.9878 74.6534 18.4894 74.5716 19.0472 74.4062V75.088C18.7804 75.1836 18.5255 75.2514 18.2787 75.2853C18.032 75.3212 17.749 75.3391 17.43 75.3391C16.5071 75.3391 15.7948 75.06 15.2972 74.5019C14.7976 73.9437 14.5488 73.1522 14.5488 72.1296C14.5488 71.4877 14.6671 70.9255 14.9059 70.4431C15.1447 69.9606 15.4918 69.5878 15.9473 69.3267C16.4027 69.0655 16.9404 68.934 17.5584 68.934C18.2226 68.934 18.7984 69.0556 19.292 69.3008L18.975 69.9646C18.4754 69.7393 18.0019 69.6257 17.5524 69.6257ZM24.3503 75.2554L23.5958 73.3257H21.1078L20.3614 75.2554H19.5629L22.0127 68.9997H22.725L25.1689 75.2554H24.3503ZM23.3591 72.6299L22.6548 70.7421L22.3538 69.8091C22.2676 70.15 22.1773 70.461 22.083 70.7421L21.3707 72.6299H23.3591ZM31.0016 75.2554H30.0787L26.7199 70.0822H26.6858L26.7078 70.4271C26.7419 70.9434 26.76 71.394 26.76 71.7727V75.2534H26.0317V69.0237H26.9446L27.1372 69.3267L29.1958 72.4884L30.2894 74.1809H30.3235C30.3174 74.1131 30.3054 73.8699 30.2894 73.4493C30.2713 73.0306 30.2633 72.7276 30.2633 72.5402V69.0237H31.0016V75.2554ZM37.7533 75.2554L35.6867 69.7932H35.6526C35.6947 70.2477 35.7168 70.8079 35.7168 71.4757V75.2554H34.9885V69.0257H36.1542L38.0884 74.1311H38.1225L40.0909 69.0257H41.2486V75.2554H40.4681V71.4239C40.4681 70.9973 40.4881 70.457 40.5283 69.8011H40.4942L38.4014 75.2554H37.7533ZM46.4593 75.2554H42.9561V69.0257H46.4593V69.7154H43.7446V71.6591H46.3008V72.3409H43.7446V74.5657H46.4593V75.2554Z" fill="white"/>
</svg>
