<svg width="61" height="80" viewBox="0 0 61 80" fill="none" xmlns="http://www.w3.org/2000/svg">
<path d="M59.5162 43.8092L55.7342 40.4111V49.8562L36.7701 59.2648L32.0834 56.5975C31.0881 56.0311 29.8938 56.0311 28.8985 56.5975L24.2118 59.2648L5.2658 49.8562V40.4111L1.48383 43.8092C0.542866 44.7044 0 45.9466 0 47.2437V77.6982C0 78.9587 1.01335 80.0001 2.28004 80.0001H58.72C59.9686 80.0001 61 78.977 61 77.6982V47.2437C61 45.9466 60.4571 44.7044 59.5162 43.8092Z" fill="black"/>
<path d="M17.245 73.8251C17.245 74.3184 17.0641 74.7203 16.7203 74.9943C16.3764 75.2684 15.8698 75.4328 15.2364 75.4328C14.5669 75.4328 14.0421 75.3414 13.6802 75.1588V74.4645C13.9154 74.5742 14.1869 74.6472 14.4764 74.702C14.7659 74.7568 15.0193 74.7934 15.2726 74.7934C15.6888 74.7934 16.0145 74.7203 16.2317 74.5559C16.4488 74.3915 16.5574 74.1722 16.5574 73.8799C16.5574 73.6972 16.5212 73.5328 16.4488 73.4049C16.3764 73.277 16.2498 73.1674 16.0688 73.0578C15.8879 72.9482 15.6164 72.8386 15.2364 72.6924C14.7117 72.4915 14.3316 72.2723 14.1145 72.0165C13.8974 71.7607 13.7707 71.4136 13.7707 71.0117C13.7707 70.5732 13.9335 70.2079 14.2593 69.9521C14.585 69.6963 15.0193 69.5502 15.5621 69.5502C16.1231 69.5502 16.6479 69.6598 17.1184 69.879L16.9012 70.5002C16.4126 70.2992 15.9602 70.1896 15.544 70.1896C15.2002 70.1896 14.9469 70.2627 14.7478 70.4088C14.5669 70.555 14.4583 70.7559 14.4583 71.03C14.4583 71.2126 14.4945 71.3771 14.5669 71.505C14.6393 71.6328 14.7659 71.7425 14.9288 71.8338C15.0917 71.9251 15.345 72.053 15.7069 72.1809C16.1231 72.3453 16.4488 72.4915 16.6479 72.6376C16.8469 72.7838 17.0098 72.9482 17.1003 73.1492C17.1907 73.3319 17.245 73.5694 17.245 73.8251ZM20.8098 70.2079C20.1946 70.2079 19.7241 70.4088 19.3803 70.829C19.0365 71.2492 18.8555 71.7973 18.8555 72.5098C18.8555 73.2405 19.0184 73.8069 19.3622 74.2088C19.706 74.6107 20.1765 74.8116 20.8098 74.8116C21.2079 74.8116 21.6603 74.7386 22.167 74.5924V75.2136C21.9318 75.3049 21.6965 75.3597 21.4794 75.3963C21.2622 75.4328 21.0089 75.4511 20.7194 75.4511C19.887 75.4511 19.2536 75.1953 18.8012 74.6838C18.3489 74.1722 18.1317 73.4415 18.1317 72.5098C18.1317 71.9251 18.2403 71.4136 18.4574 70.9569C18.6746 70.5184 18.9822 70.1713 19.3984 69.9338C19.8146 69.6963 20.2851 69.5684 20.846 69.5684C21.4432 69.5684 21.968 69.6781 22.4022 69.8973L22.1127 70.5002C21.6422 70.2992 21.2079 70.2079 20.8098 70.2079ZM26.9442 75.3597L26.2566 73.5876H24.0127L23.3432 75.3597H22.6194L24.827 69.6232H25.4604L27.668 75.3597H26.9442ZM26.0394 72.9482L25.4061 71.2126L25.1347 70.354C25.0623 70.6646 24.9718 70.9569 24.8994 71.2126L24.2661 72.9482H26.0394ZM32.9338 75.3597H32.1014L29.0795 70.6098H29.0433L29.0614 70.9203C29.0976 71.3953 29.1157 71.7973 29.1157 72.1626V75.3597H28.4642V69.6415H29.2966L29.4776 69.9156L31.3414 72.8203L32.3367 74.3732H32.3729C32.3729 74.3184 32.3548 74.0809 32.3367 73.6972C32.3186 73.3136 32.3186 73.0396 32.3186 72.8569V69.6415H32.9881V75.3597H32.9338ZM39.032 75.3597L37.1682 70.354H37.132C37.1682 70.7742 37.1863 71.2857 37.1863 71.8886V75.3597H36.5348V69.6415H37.5844L39.3216 74.3184H39.3577L41.1311 69.6415H42.1806V75.3597H41.4749V71.8521C41.4749 71.4684 41.493 70.9569 41.5292 70.3723H41.493L39.6111 75.378H39.032V75.3597ZM46.8855 75.3597H43.7188V69.6415H46.8855V70.2809H44.4426V72.053H46.7407V72.6742H44.4426V74.7203H46.8855V75.3597Z" fill="white"/>
<path d="M5.26578 40.4111V3.41631C5.26578 1.73556 6.3877 0.36538 7.74487 0.36538H30.509H53.2732C54.6304 0.36538 55.7523 1.73556 55.7523 3.41631V40.4111L56.1142 40.7399V3.41631C56.0961 1.5346 54.8294 0 53.2551 0H30.509H7.74487C6.17056 0 4.90387 1.5346 4.90387 3.41631V40.7399L5.26578 40.4111Z" fill="#E6E6E6"/>
</svg>
