<svg width="73" height="80" viewBox="0 0 73 80" fill="none" xmlns="http://www.w3.org/2000/svg">
<path d="M70.3371 62.6851H67.1899V2.97261C67.1899 1.34527 65.8475 0 64.1749 0H8.80313C7.15255 0 5.78806 1.32357 5.78806 2.97261V62.6851H2.66295C1.18842 62.6851 0 63.8568 0 65.3105V77.3746C0 78.8283 1.18842 80 2.66295 80H70.3371C71.8116 80 73 78.8283 73 77.3746V65.3105C73 63.8568 71.8116 62.6851 70.3371 62.6851ZM64.8791 56.6531C64.8791 57.5427 64.1528 58.2587 63.2725 58.2587H9.72746C8.82514 58.2587 8.09888 57.5427 8.09888 56.6531V3.88392C8.09888 2.9943 8.82514 2.27828 9.72746 2.27828H63.2505C64.1528 2.27828 64.8791 2.9943 64.8791 3.88392V56.6531Z" fill="black"/>
<path opacity="0.35" d="M67.1899 60.537H5.78806V62.6851H67.1899V60.537Z" fill="white"/>
<path d="M20.4211 73.3257C20.4211 73.9159 20.2054 74.3824 19.7718 74.7209C19.3383 75.0616 18.7375 75.2308 17.965 75.2308C17.1485 75.2308 16.5191 75.1245 16.0745 74.9118V74.096C16.3672 74.2197 16.6863 74.3173 17.0319 74.3889C17.3774 74.4605 17.7031 74.4952 18.0024 74.4952C18.5174 74.4952 18.9047 74.3976 19.1644 74.2023C19.4241 74.007 19.554 73.7402 19.554 73.3995C19.554 73.1738 19.5077 72.9872 19.4131 72.8419C19.3185 72.6965 19.1622 72.5598 18.9399 72.4339C18.7199 72.3081 18.3831 72.1627 17.9364 72.0022C17.3004 71.7743 16.8448 71.5031 16.5719 71.1928C16.299 70.8825 16.1626 70.4811 16.1626 69.9886C16.1626 69.4592 16.365 69.0382 16.7678 68.728C17.1705 68.4177 17.7009 68.2593 18.3611 68.2593C19.0478 68.2593 19.6794 68.3851 20.256 68.639L19.9875 69.3724C19.3977 69.1315 18.8497 69.01 18.3413 69.01C17.9342 69.01 17.6151 69.0968 17.384 69.2704C17.1529 69.444 17.0385 69.687 17.0385 69.9994C17.0385 70.2229 17.0825 70.4074 17.1727 70.5527C17.2629 70.6981 17.406 70.8326 17.6063 70.9542C17.8065 71.0757 18.1191 71.2124 18.5438 71.3664C19.0544 71.553 19.4351 71.7331 19.686 71.9067C19.9369 72.0803 20.1218 72.2821 20.2406 72.5099C20.3617 72.7399 20.4211 73.0111 20.4211 73.3257ZM24.7544 69.0122C24.015 69.0122 23.4317 69.2574 23.0092 69.7456C22.5866 70.2338 22.3732 70.9021 22.3732 71.7483C22.3732 72.6227 22.5778 73.2975 22.9894 73.7727C23.4009 74.2479 23.9841 74.4844 24.7434 74.4844C25.232 74.4844 25.7822 74.3954 26.394 74.2153V74.9574C26.1013 75.0616 25.8218 75.1353 25.5511 75.1722C25.2804 75.2091 24.9701 75.2308 24.6202 75.2308C23.6078 75.2308 22.8265 74.927 22.2807 74.3195C21.7327 73.712 21.4598 72.8505 21.4598 71.7374C21.4598 71.0388 21.5897 70.4269 21.8516 69.9018C22.1135 69.3767 22.4942 68.971 22.9938 68.6867C23.4934 68.4025 24.0832 68.2593 24.761 68.2593C25.4895 68.2593 26.1211 68.3916 26.6625 68.6585L26.3148 69.3811C25.7668 69.1359 25.2474 69.0122 24.7544 69.0122ZM32.2107 75.1397L31.3832 73.0393H28.6542L27.8355 75.1397H26.9596L29.6468 68.3309H30.428L33.1086 75.1397H32.2107ZM31.1235 72.2821L30.351 70.2273L30.0209 69.2118C29.9263 69.5829 29.8272 69.9213 29.7238 70.2273L28.9425 72.2821H31.1235ZM39.5063 75.1397H38.4939L34.8098 69.5091H34.7724L34.7966 69.8844C34.834 70.4464 34.8538 70.9368 34.8538 71.3491V75.1375H34.0549V68.3569H35.0563L35.2676 68.6867L37.5256 72.128L38.725 73.9702H38.7624C38.7558 73.8964 38.7426 73.6317 38.725 73.1738C38.7052 72.7182 38.6964 72.3884 38.6964 72.1844V68.3569H39.5063V75.1397ZM46.9119 75.1397L44.6451 69.1945H44.6077C44.6539 69.6892 44.6781 70.2989 44.6781 71.0258V75.1397H43.8792V68.3591H45.1579L47.2794 73.9159H47.3168L49.4758 68.3591H50.7457V75.1397H49.8896V70.9693C49.8896 70.505 49.9116 69.917 49.9556 69.2031H49.9182L47.6228 75.1397H46.9119ZM56.4611 75.1397H52.6185V68.3591H56.4611V69.1098H53.4834V71.2254H56.2872V71.9674H53.4834V74.3889H56.4611V75.1397Z" fill="white"/>
</svg>
