<svg width="57" height="80" viewBox="0 0 57 80" fill="none" xmlns="http://www.w3.org/2000/svg">
<path d="M55.34 17.2193C55.3036 15.6506 53.972 14.385 52.3669 14.385H41.7877V6.43494C41.7877 5.75758 41.5141 5.09804 41.0216 4.63458L38.0667 1.71123C36.9359 0.623886 35.4037 0 33.8168 0H23.2011C21.6143 0 20.0821 0.623886 18.9512 1.71123L15.9781 4.61676C15.4856 5.09804 15.212 5.73975 15.212 6.41711V14.385H4.63282C3.0277 14.385 1.69618 15.6328 1.6597 17.2193L-0.000141526 77.0053C-0.0366215 78.6453 1.2949 80 2.97298 80H54.0268C55.7048 80 57.0546 78.6453 56.9999 77.0053L55.34 17.2193ZM20.7023 5.36542H36.2975V14.385H20.7023V5.36542ZM52.0386 61.9073C52.0386 62.6381 51.4367 63.2264 50.6888 63.2264H6.32914C5.5813 63.2264 4.97938 62.6381 4.97938 61.9073V18.5383C4.97938 17.8075 5.5813 17.2193 6.32914 17.2193H50.6888C51.4367 17.2193 52.0386 17.8075 52.0386 18.5383V61.9073Z" fill="black"/>
<path opacity="0.35" d="M36.2976 5.36542V3.01248C36.2976 1.35472 34.9296 0 33.215 0H23.6573C22.0339 0 20.7024 1.30125 20.7024 2.8877V5.36542H36.2976Z" fill="white"/>
<path d="M15.1027 72.9234C15.1027 73.4047 14.9203 73.7969 14.5738 74.0643C14.2272 74.3316 13.7165 74.4921 13.0781 74.4921C12.4032 74.4921 11.8742 74.4029 11.5094 74.2247V73.5473C11.7466 73.6543 12.0202 73.7256 12.312 73.7791C12.6038 73.8325 12.8592 73.8682 13.1146 73.8682C13.5341 73.8682 13.8624 73.7969 14.0813 73.6365C14.3002 73.476 14.4096 73.2621 14.4096 72.9769C14.4096 72.7987 14.3731 72.6382 14.3002 72.5135C14.2272 72.3887 14.0995 72.2817 13.9171 72.1748C13.7347 72.0678 13.4611 71.9609 13.0781 71.8183C12.5491 71.6222 12.1661 71.4083 11.9472 71.1587C11.7283 70.9092 11.6006 70.5705 11.6006 70.1783C11.6006 69.7505 11.7648 69.394 12.0931 69.1445C12.4214 68.8949 12.8592 68.7523 13.4064 68.7523C13.9718 68.7523 14.5008 68.8593 14.975 69.0732L14.7562 69.6792C14.2637 69.4832 13.8077 69.3762 13.3882 69.3762C13.0416 69.3762 12.7862 69.4475 12.5856 69.5901C12.4032 69.7327 12.2938 69.9288 12.2938 70.1962C12.2938 70.3744 12.3302 70.5348 12.4032 70.6596C12.4762 70.7844 12.6038 70.8914 12.768 70.9805C12.9322 71.0696 13.1875 71.1944 13.5523 71.3192C13.9718 71.4796 14.3002 71.6222 14.5008 71.7648C14.7014 71.9074 14.8656 72.0678 14.9568 72.2639C15.048 72.4422 15.1027 72.6739 15.1027 72.9234ZM18.696 69.394C18.0758 69.394 17.6016 69.5901 17.255 70.0001C16.9085 70.4101 16.7261 70.9448 16.7261 71.64C16.7261 72.353 16.8902 72.9056 17.2368 73.2978C17.5834 73.6899 18.0576 73.886 18.696 73.886C19.0973 73.886 19.5533 73.8147 20.064 73.6721V74.2782C19.8269 74.3673 19.5898 74.4208 19.3709 74.4564C19.152 74.4921 18.8966 74.5099 18.6048 74.5099C17.7658 74.5099 17.1274 74.2603 16.6714 73.7612C16.2154 73.2621 15.9965 72.5491 15.9965 71.64C15.9965 71.0696 16.1059 70.5705 16.3248 70.1249C16.5437 69.6971 16.8538 69.3584 17.2733 69.1266C17.6928 68.8949 18.167 68.7701 18.7325 68.7701C19.3344 68.7701 19.8634 68.8771 20.3011 69.091L20.0093 69.6792C19.535 69.4832 19.0973 69.394 18.696 69.394ZM24.8794 74.4208L24.1862 72.6917H21.9245L21.2496 74.4208H20.52L22.7453 68.8236H23.3837L25.609 74.4208H24.8794ZM23.9674 72.0678L23.329 70.3744L23.0554 69.5366C22.9824 69.8397 22.8912 70.1249 22.8182 70.3744L22.1798 72.0678H23.9674ZM30.9168 74.4208H30.0778L27.0317 69.7862H26.9952L27.0134 70.0892C27.0499 70.5527 27.0682 70.9448 27.0682 71.3013V74.4208H26.4115V68.8414H27.2506L27.433 69.1088L29.3117 71.9431L30.3149 73.4582H30.3514C30.3514 73.4047 30.3331 73.173 30.3149 72.7987C30.2966 72.4243 30.2966 72.157 30.2966 71.9787V68.8414H30.9715V74.4208H30.9168ZM37.0637 74.4208L35.185 69.5366H35.1485C35.185 69.9466 35.2032 70.4457 35.2032 71.034V74.4208H34.5466V68.8414H35.6045L37.3555 73.4047H37.392L39.1795 68.8414H40.2374V74.4208H39.5261V70.9983C39.5261 70.624 39.5443 70.1249 39.5808 69.5545H39.5443L37.6474 74.4386H37.0637V74.4208ZM44.9798 74.4208H41.7878V68.8414H44.9798V69.4653H42.4992V71.1944H44.8157V71.8004H42.4992V73.7969H44.9616V74.4208H44.9798Z" fill="white"/>
</svg>
