<svg width="56" height="80" viewBox="0 0 56 80" fill="none" xmlns="http://www.w3.org/2000/svg">
<path d="M2.74884 55.6392H53.2512C54.7761 55.6392 56 54.4032 56 52.9081V2.73112C56 1.21605 54.756 0 53.2512 0H2.7689C1.244 0 0.0200645 1.23598 0 2.73112V52.9081C0 54.4231 1.244 55.6392 2.74884 55.6392ZM2.12684 3.5684C2.12684 2.75106 2.78896 2.0932 3.61161 2.0932H52.4085C53.2311 2.0932 53.8932 2.75106 53.8932 3.5684V52.0708C53.8932 52.8881 53.2311 53.546 52.4085 53.546H3.61161C2.78896 53.546 2.12684 52.8881 2.12684 52.0708V3.5684ZM53.4117 80H2.50806C1.14368 80 0.0200645 78.9036 0.0200645 77.528V66.4241C0.0200645 65.0685 1.12361 63.9522 2.50806 63.9522H21.4891C21.6496 63.9522 21.8101 63.8924 21.9305 63.7727L27.5084 58.2308C27.7492 57.9915 28.1505 57.9915 28.3913 58.2308L33.9692 63.7727C34.0896 63.8924 34.2501 63.9522 34.4106 63.9522H53.3916C54.756 63.9522 55.8796 65.0486 55.8796 66.4241V77.528C55.8997 78.8836 54.7761 80 53.4117 80Z" fill="black"/>
<path d="M13.6017 73.5888C13.6017 74.1311 13.4051 74.5597 13.0098 74.8707C12.6145 75.1817 12.0668 75.3391 11.3625 75.3391C10.6181 75.3391 10.0443 75.2415 9.63898 75.0461V74.2965C9.90583 74.4102 10.1968 74.4999 10.5118 74.5657C10.8268 74.6314 11.1237 74.6633 11.3966 74.6633C11.8661 74.6633 12.2193 74.5736 12.456 74.3942C12.6928 74.2148 12.8112 73.9696 12.8112 73.6566C12.8112 73.4493 12.769 73.2778 12.6828 73.1443C12.5965 73.0107 12.454 72.8851 12.2514 72.7695C12.0487 72.6539 11.7437 72.5203 11.3364 72.3728C10.7566 72.1635 10.3412 71.9143 10.0924 71.6292C9.84363 71.3441 9.71923 70.9753 9.71923 70.5228C9.71923 70.0364 9.90383 69.6496 10.271 69.3646C10.6382 69.0775 11.1217 68.934 11.7237 68.934C12.3497 68.934 12.9255 69.0496 13.4512 69.2828L13.2064 69.9566C12.6687 69.7354 12.1691 69.6237 11.7056 69.6237C11.3344 69.6237 11.0435 69.7035 10.8328 69.8629C10.6221 70.0224 10.5178 70.2457 10.5178 70.5328C10.5178 70.7381 10.5579 70.9075 10.6402 71.0411C10.7225 71.1767 10.8529 71.2983 11.0355 71.4099C11.2181 71.5215 11.503 71.6471 11.8902 71.7887C12.3557 71.9601 12.7028 72.1256 12.9316 72.2851C13.1603 72.4465 13.3288 72.6299 13.4372 72.8393C13.5475 73.0506 13.6017 73.2998 13.6017 73.5888ZM17.5524 69.6257C16.8782 69.6257 16.3465 69.851 15.9613 70.2995C15.5761 70.7481 15.3814 71.3621 15.3814 72.1395C15.3814 72.9429 15.568 73.5629 15.9432 73.9995C16.3184 74.4361 16.8502 74.6534 17.5424 74.6534C17.9878 74.6534 18.4894 74.5716 19.0472 74.4062V75.088C18.7804 75.1836 18.5255 75.2514 18.2787 75.2853C18.032 75.3212 17.749 75.3391 17.43 75.3391C16.5071 75.3391 15.7948 75.06 15.2972 74.5019C14.7976 73.9437 14.5488 73.1522 14.5488 72.1296C14.5488 71.4877 14.6671 70.9255 14.9059 70.4431C15.1447 69.9606 15.4918 69.5878 15.9473 69.3267C16.4027 69.0655 16.9404 68.934 17.5584 68.934C18.2226 68.934 18.7984 69.0556 19.292 69.3008L18.975 69.9646C18.4754 69.7393 18.0019 69.6257 17.5524 69.6257ZM24.3503 75.2554L23.5958 73.3257H21.1078L20.3614 75.2554H19.5629L22.0127 68.9997H22.725L25.1689 75.2554H24.3503ZM23.3591 72.6299L22.6548 70.7421L22.3538 69.8091C22.2676 70.15 22.1773 70.461 22.083 70.7421L21.3707 72.6299H23.3591ZM31.0016 75.2554H30.0787L26.7199 70.0822H26.6858L26.7078 70.4271C26.7419 70.9434 26.76 71.394 26.76 71.7727V75.2534H26.0317V69.0237H26.9446L27.1372 69.3267L29.1958 72.4884L30.2894 74.1809H30.3235C30.3174 74.1131 30.3054 73.8699 30.2894 73.4493C30.2713 73.0306 30.2633 72.7276 30.2633 72.5402V69.0237H31.0016V75.2554ZM37.7533 75.2554L35.6867 69.7932H35.6526C35.6947 70.2477 35.7168 70.8079 35.7168 71.4757V75.2554H34.9885V69.0257H36.1542L38.0884 74.1311H38.1225L40.0909 69.0257H41.2486V75.2554H40.4681V71.4239C40.4681 70.9973 40.4881 70.457 40.5283 69.8011H40.4942L38.4014 75.2554H37.7533ZM46.4593 75.2554H42.9561V69.0257H46.4593V69.7154H43.7446V71.6591H46.3008V72.3409H43.7446V74.5657H46.4593V75.2554Z" fill="white"/>
</svg>
