<svg width="30" height="30" viewBox="0 0 30 30" fill="none" xmlns="http://www.w3.org/2000/svg">
<path d="M15 30C23.2843 30 30 23.2843 30 15C30 6.71573 23.2843 0 15 0C6.71573 0 0 6.71573 0 15C0 23.2843 6.71573 30 15 30Z" fill="#1ED760"/>
<path d="M21.1142 22.0519C20.9267 22.0519 20.7392 21.9975 20.576 21.8813C17.0604 19.41 11.2123 19.2731 7.26353 20.1938C6.76291 20.3119 6.25478 19.9969 6.13853 19.4925C6.02228 18.9881 6.33353 18.4838 6.83978 18.3656C11.1804 17.3606 17.6679 17.5444 21.6523 20.3475C22.0779 20.6456 22.1773 21.2306 21.881 21.6525C21.6973 21.9131 21.4085 22.0519 21.1142 22.0519Z" fill="white"/>
<path d="M22.9479 18.3848C22.7566 18.3848 22.5672 18.3285 22.4004 18.2085C18.3241 15.2817 13.3141 14.5542 6.62787 15.9192C6.1235 16.0185 5.62475 15.696 5.52162 15.1879C5.41662 14.6817 5.74475 14.1848 6.251 14.0817C13.4829 12.6061 18.9616 13.4311 23.4954 16.6842C23.9154 16.986 24.011 17.5729 23.7091 17.9929C23.5273 18.2479 23.2404 18.3848 22.9479 18.3848Z" fill="white"/>
<path d="M24.7836 13.4928C24.6017 13.4928 24.418 13.4403 24.2567 13.3316C19.0874 9.82344 11.2292 9.80657 6.14236 11.6066C5.65486 11.7753 5.11861 11.5222 4.94611 11.0328C4.77361 10.5453 5.02861 10.0091 5.51799 9.83657C11.0511 7.88094 19.6255 7.92219 25.3124 11.7791C25.7417 12.0697 25.8505 12.6528 25.5617 13.0803C25.378 13.3484 25.0817 13.4928 24.7836 13.4928Z" fill="white"/>
</svg>
