<svg width="30" height="30" viewBox="0 0 30 30" fill="none" xmlns="http://www.w3.org/2000/svg">
<path d="M15 7.5C19.4212 7.5 23.5462 9.19125 26.6162 12.2612L28.3838 10.4938C24.8425 6.95125 20.0887 5 15 5C9.91125 5.00125 5.1575 6.95125 1.61625 10.4938L3.38375 12.2612C6.45375 9.19125 10.5787 7.5 15 7.5ZM22.0887 17.8837C18.2463 14.0412 11.7537 14.0412 7.91125 17.8837L9.67875 19.6512C12.5625 16.7675 17.4375 16.7675 20.3212 19.6512L22.0887 17.8837Z" fill="#3C3C3C"/>
<path d="M25.5463 14.1163C19.8313 8.39875 10.17 8.39875 4.455 14.1163L6.2225 15.8837C10.9813 11.125 19.02 11.125 23.7788 15.8837L25.5463 14.1163Z" fill="#3C3C3C"/>
<path d="M15 25C16.3807 25 17.5 23.8807 17.5 22.5C17.5 21.1193 16.3807 20 15 20C13.6193 20 12.5 21.1193 12.5 22.5C12.5 23.8807 13.6193 25 15 25Z" fill="#3C3C3C"/>
</svg>
