<svg width="30" height="30" viewBox="0 0 30 30" fill="none" xmlns="http://www.w3.org/2000/svg">
<path d="M15 0C6.72938 0 0 6.72938 0 15C0 23.2706 6.72938 30 15 30C23.2706 30 30 23.2706 30 15C30 6.72938 23.2706 0 15 0ZM15 1.875C17.6494 1.875 20.1131 2.67 22.1775 4.02563C21.4594 4.425 20.7938 5.265 20.7938 7.05C20.7938 7.99875 21.4406 9.09937 22.1887 10.3744C23.0869 11.9044 24.2006 13.8075 23.9213 15.1819C23.6138 16.0912 22.8337 18.1556 21.9881 20.3587L18.1125 9.22125C18.1912 9.20063 18.2794 9.1875 18.3544 9.16313C18.8456 9 19.11 8.46938 18.9469 7.97813C18.7819 7.48688 18.2531 7.22625 17.76 7.38562C16.9613 7.65188 15.5156 7.64625 14.6475 7.64438H14.3869H14.1263C13.2638 7.64625 11.8125 7.65188 11.0138 7.38562C10.5281 7.22062 9.99563 7.48688 9.83063 7.97813C9.66562 8.46938 9.93188 9 10.4231 9.16313C10.8188 9.29625 11.2856 9.3675 11.7619 9.42L14.0681 15.4163L11.8875 20.9175L8.16188 9.2625C8.29875 9.23063 8.445 9.20625 8.57063 9.16313C9.06188 9 9.32812 8.46938 9.16313 7.97813C8.99813 7.48688 8.46938 7.22062 7.97813 7.38562C7.18125 7.65188 5.73188 7.64438 4.86375 7.64438H4.60687C4.43813 7.64438 4.29938 7.63125 4.15688 7.62C6.52125 4.155 10.4981 1.875 15 1.875ZM1.875 15C1.875 13.5262 2.13 12.1125 2.58 10.7888L8.3325 26.2856C4.47562 23.9963 1.875 19.8019 1.875 15ZM11.2669 27.5775L15.0619 18L18.7444 27.5756C17.5575 27.9281 16.3013 28.125 15 28.125C13.7025 28.125 12.4519 27.9281 11.2669 27.5775ZM21.7106 26.2575C22.9256 23.1431 25.0181 17.7488 25.6463 15.9244L25.6706 15.9319C25.6969 15.8569 25.725 15.7594 25.7437 15.645C25.9556 15.0562 26.1356 14.5181 26.28 14.0644C26.7431 12.6 27.0375 11.3119 27.1912 10.1719C27.7875 11.6681 28.125 13.2937 28.125 15C28.125 19.7831 25.545 23.9644 21.7106 26.2575Z" fill="#757575"/>
</svg>
