<svg width="30" height="30" viewBox="0 0 30 30" fill="none" xmlns="http://www.w3.org/2000/svg">
<g clip-path="url(#clip0)">
<path d="M27.0064 12.428C27.6776 10.9244 28.0432 8.9765 28.0432 7.26857C28.0432 2.67345 25.7184 0 21.4589 0C17.0775 0 14.5165 3.39525 14.5165 7.87037C14.5165 12.3043 16.5732 16.112 19.9628 17.8461C18.538 20.7202 16.7232 23.253 14.8315 25.1616C11.4006 20.977 8.29785 15.3977 7.02299 4.507H1.95731C4.29705 22.6456 11.2694 28.42 13.1123 29.5298C14.1547 30.1616 15.0546 30.1316 16.007 29.5898C17.5031 28.7312 21.9988 24.2017 24.4885 18.8941C25.5328 18.8904 26.7889 18.7704 28.0413 18.4836V14.9121C27.2745 15.0902 26.5339 15.1689 25.8665 15.1689C22.1113 15.1689 19.2223 12.5255 19.2223 7.92849C19.2223 5.67687 20.0865 4.50512 21.307 4.50512C22.4694 4.50512 23.2437 5.55688 23.2437 7.68852C23.2437 8.90151 22.9212 10.2307 22.6831 11.0163C22.685 11.0181 23.8417 13.0523 27.0064 12.428Z" fill="#26A69A"/>
</g>
<defs>
<clipPath id="clip0">
<rect width="30" height="30" fill="white"/>
</clipPath>
</defs>
</svg>
