<svg width="30" height="30" viewBox="0 0 30 30" fill="none" xmlns="http://www.w3.org/2000/svg">
<path d="M7.5 7.5L0 15H11.25L14.0625 14.0625L7.5 7.5Z" fill="#FFC107"/>
<path d="M7.5 7.5L14.0625 14.0625L15 11.25V7.5H7.5Z" fill="#FFA000"/>
<path d="M7.5 22.5L15 30V18.75L14.0625 15.9375L7.5 22.5Z" fill="#4CAF50"/>
<path d="M7.5 22.5L14.0625 15.9375L11.25 15H7.5V22.5Z" fill="#388E3C"/>
<path d="M22.5 22.5L30 15H18.75L15.9375 15.9375L22.5 22.5Z" fill="#2196F3"/>
<path d="M22.5 22.5L15.9375 15.9375L15 18.75V22.5H22.5Z" fill="#1976D2"/>
<path d="M22.5 7.5L15 0V11.25L15.9375 14.0625L22.5 7.5Z" fill="#F44336"/>
<path d="M22.5 7.5L15.9375 14.0625L18.75 15H22.5V7.5Z" fill="#9C27B0"/>
</svg>
