<svg width="30" height="30" viewBox="0 0 30 30" fill="none" xmlns="http://www.w3.org/2000/svg">
<path d="M15 1.25C12.2805 1.25 9.62209 2.05642 7.36092 3.56729C5.09974 5.07816 3.33737 7.22562 2.29666 9.7381C1.25596 12.2506 0.983662 15.0153 1.51421 17.6825C2.04476 20.3497 3.35432 22.7997 5.27729 24.7227C7.20026 26.6457 9.65028 27.9552 12.3175 28.4858C14.9848 29.0163 17.7494 28.744 20.2619 27.7033C22.7744 26.6626 24.9218 24.9003 26.4327 22.6391C27.9436 20.3779 28.75 17.7195 28.75 15C28.75 11.3533 27.3014 7.85591 24.7227 5.27728C22.1441 2.69866 18.6467 1.25 15 1.25ZM15 26.25C12.775 26.25 10.5999 25.5902 8.74984 24.354C6.89979 23.1179 5.45785 21.3609 4.60636 19.3052C3.75488 17.2495 3.53209 14.9875 3.96617 12.8052C4.40026 10.6229 5.47171 8.61839 7.04505 7.04505C8.6184 5.47171 10.623 4.40025 12.8052 3.96617C14.9875 3.53208 17.2495 3.75487 19.3052 4.60636C21.3609 5.45784 23.1179 6.89978 24.354 8.74984C25.5902 10.5999 26.25 12.775 26.25 15C26.25 17.9837 25.0647 20.8452 22.955 22.955C20.8452 25.0647 17.9837 26.25 15 26.25ZM17.5 8.75V7.5C17.5 7.16848 17.3683 6.85054 17.1339 6.61612C16.8995 6.3817 16.5815 6.25 16.25 6.25C15.9185 6.25 15.6005 6.3817 15.3661 6.61612C15.1317 6.85054 15 7.16848 15 7.5V8.75H13.75V7.5C13.75 7.16848 13.6183 6.85054 13.3839 6.61612C13.1495 6.3817 12.8315 6.25 12.5 6.25C12.1685 6.25 11.8505 6.3817 11.6161 6.61612C11.3817 6.85054 11.25 7.16848 11.25 7.5V8.75H10C9.66849 8.75 9.35054 8.8817 9.11612 9.11612C8.8817 9.35054 8.75001 9.66848 8.75001 10C8.75001 10.3315 8.8817 10.6495 9.11612 10.8839C9.35054 11.1183 9.66849 11.25 10 11.25H11.25V18.75H10C9.66849 18.75 9.35054 18.8817 9.11612 19.1161C8.8817 19.3505 8.75001 19.6685 8.75001 20C8.75001 20.3315 8.8817 20.6495 9.11612 20.8839C9.35054 21.1183 9.66849 21.25 10 21.25H11.25V22.5C11.25 22.8315 11.3817 23.1495 11.6161 23.3839C11.8505 23.6183 12.1685 23.75 12.5 23.75C12.8315 23.75 13.1495 23.6183 13.3839 23.3839C13.6183 23.1495 13.75 22.8315 13.75 22.5V21.25H15V22.5C15 22.8315 15.1317 23.1495 15.3661 23.3839C15.6005 23.6183 15.9185 23.75 16.25 23.75C16.5815 23.75 16.8995 23.6183 17.1339 23.3839C17.3683 23.1495 17.5 22.8315 17.5 22.5V21.25C18.4946 21.25 19.4484 20.8549 20.1517 20.1517C20.8549 19.4484 21.25 18.4946 21.25 17.5C21.2479 16.5766 20.9052 15.6864 20.2875 15C20.9052 14.3136 21.2479 13.4234 21.25 12.5C21.25 11.5054 20.8549 10.5516 20.1517 9.84835C19.4484 9.14509 18.4946 8.75 17.5 8.75ZM17.5 18.75H13.75V16.25H17.5C17.8315 16.25 18.1495 16.3817 18.3839 16.6161C18.6183 16.8505 18.75 17.1685 18.75 17.5C18.75 17.8315 18.6183 18.1495 18.3839 18.3839C18.1495 18.6183 17.8315 18.75 17.5 18.75ZM17.5 13.75H13.75V11.25H17.5C17.8315 11.25 18.1495 11.3817 18.3839 11.6161C18.6183 11.8505 18.75 12.1685 18.75 12.5C18.75 12.8315 18.6183 13.1495 18.3839 13.3839C18.1495 13.6183 17.8315 13.75 17.5 13.75Z" fill="#3C3C3C"/>
</svg>
