<svg width="30" height="30" viewBox="0 0 30 30" fill="none" xmlns="http://www.w3.org/2000/svg">
<g clip-path="url(#clip0)">
<path d="M30 5.80875L21.1744 0L15 5.19562L23.8988 10.7325L30 5.80875Z" fill="#1E88E5"/>
<path d="M8.82562 0L0 5.80687L6.10313 10.7325L15 5.19562L8.82562 0Z" fill="#1E88E5"/>
<path d="M15 16.2712L8.82562 21.4668L0 15.658L6.10125 10.7324L15 16.2712L23.8969 10.7324L30 15.658L21.1744 21.4668L15 16.2712Z" fill="#1E88E5"/>
<path d="M21.6206 23.4171C21.465 23.5202 21.285 23.5708 21.1069 23.5708C20.8912 23.5708 20.6775 23.4958 20.5031 23.3515L15 18.7202L9.49688 23.3515C9.18 23.6177 8.72437 23.644 8.3775 23.4171L5.625 21.6058V24.3752L15.0188 30.0002L24.375 24.3752V21.604L21.6206 23.4171Z" fill="#1E88E5"/>
</g>
<defs>
<clipPath id="clip0">
<rect width="30" height="30" fill="white"/>
</clipPath>
</defs>
</svg>
