<svg width="35" height="35" viewBox="0 0 35 35" fill="none" xmlns="http://www.w3.org/2000/svg">
<path d="M20.6646 7.29167L27.7083 14.3354V27.7083H7.29167V7.29167H20.6646ZM20.6646 4.375H7.29167C5.6875 4.375 4.375 5.6875 4.375 7.29167V27.7083C4.375 29.3125 5.6875 30.625 7.29167 30.625H27.7083C29.3125 30.625 30.625 29.3125 30.625 27.7083V14.3354C30.625 13.5625 30.3188 12.8188 29.7646 12.2792L22.7208 5.23542C22.1812 4.68125 21.4375 4.375 20.6646 4.375ZM10.2083 21.875H24.7917V24.7917H10.2083V21.875ZM10.2083 16.0417H24.7917V18.9583H10.2083V16.0417ZM10.2083 10.2083H20.4167V13.125H10.2083V10.2083Z" fill="#3C3C3C"/>
</svg>
