<svg width="30" height="30" viewBox="0 0 30 30" fill="none" xmlns="http://www.w3.org/2000/svg">
<path d="M25.3725 13.3181C25.1081 13.23 24.8531 13.1456 24.6094 13.065C22.7419 12.4556 21.6169 12.0862 21.6169 10.5769C21.6169 9.3525 22.5263 8.46562 23.7787 8.46562C24.7388 8.46562 25.455 8.88 26.0963 9.81375C26.1562 9.9 26.2706 9.93187 26.3625 9.88125L28.2469 8.88188C28.2975 8.85562 28.3369 8.80875 28.3519 8.75062C28.3669 8.6925 28.3612 8.6325 28.335 8.58C27.3244 6.71625 25.8694 5.81062 23.8837 5.81062C20.8631 5.81062 18.9094 7.71 18.9094 10.6481C18.9094 13.6519 20.7994 14.8687 24.2831 16.0594C26.3006 16.7587 27.195 17.1281 27.195 18.6206C27.195 20.2987 25.7381 21.5044 23.7506 21.4331C21.6675 21.36 21.0375 20.2144 20.2444 18.3356C18.9019 15.1538 17.3737 11.4413 17.3606 11.4056C15.8287 7.73063 12.7894 5.625 9.0225 5.625C4.04812 5.625 0 9.83063 0 15.0019C0 20.1694 4.04812 24.375 9.0225 24.375C11.7356 24.375 14.28 23.1262 16.0013 20.9456C16.05 20.8819 16.0631 20.7956 16.0312 20.7206L14.895 17.9944C14.8631 17.9194 14.79 17.8669 14.7094 17.8631C14.6269 17.8594 14.5538 17.9062 14.5163 17.9794C13.4419 20.1112 11.3362 21.435 9.0225 21.435C5.60812 21.435 2.83125 18.5494 2.83125 15C2.83125 11.4506 5.60812 8.565 9.0225 8.565C11.5087 8.565 13.785 10.0969 14.6906 12.3844L17.505 19.05L17.8294 19.7981C19.1006 22.875 20.97 24.255 23.8969 24.2663C27.3769 24.2663 30 21.87 30 18.6938C30 15.5081 28.3031 14.3119 25.3725 13.3181Z" fill="#FF5722"/>
</svg>
