<svg width="45" height="45" viewBox="0 0 45 45" fill="none" xmlns="http://www.w3.org/2000/svg">
<g clip-path="url(#clip0)">
<path d="M98.1818 -53.1819H-53.1819V98.1818H98.1818V-53.1819Z" fill="white"/>
<path d="M8.18182 0H4.09091V2.68364C4.09091 3.07227 4.23 3.40364 4.50409 3.67773C4.77818 3.95182 5.10955 4.09091 5.49819 4.09091H8.18182V0Z" fill="black"/>
<path d="M9.27 4.09087C8.79137 4.09087 8.18182 4.09087 8.18182 4.09087C8.18182 4.09087 8.18182 2.69996 8.18182 2.04541C8.18182 1.53405 8.18182 -4.07337e-05 8.18182 -4.07337e-05H9.20864C9.20864 -4.07337e-05 11.8473 -0.0859499 12.1664 0.552232C12.6573 1.54223 10.4032 4.09087 9.27 4.09087Z" fill="black"/>
<path d="M28.4441 3.43637C29.4709 1.52183 25.7482 -1.23545 24.7336 0.662736C23.7109 2.57319 27.4336 5.32228 28.4441 3.43637Z" fill="black"/>
<path d="M36.8182 3.0027C36.8182 3.48134 36.8182 4.09088 36.8182 4.09088C36.8182 4.09088 35.4272 4.09088 34.7727 4.09088C34.2613 4.09088 32.7273 4.09088 32.7273 4.09088V3.06406C32.7273 3.06406 32.6413 0.384517 33.2795 0.0654262C34.2695 -0.425483 36.8182 1.86952 36.8182 3.0027Z" fill="black"/>
<path d="M16.1714 7.5272C17.1982 5.61265 13.4754 2.85537 12.4609 4.75356C11.4382 6.66401 15.1609 9.4131 16.1714 7.5272Z" fill="black"/>
<path d="M24.5455 7.09352C24.5455 7.57216 24.5455 8.1817 24.5455 8.1817C24.5455 8.1817 23.1546 8.1817 22.5 8.1817C21.9886 8.1817 20.4545 8.1817 20.4545 8.1817V7.15489C20.4545 7.15489 20.3686 4.47534 21.0068 4.15625C21.9968 3.66534 24.5455 5.96034 24.5455 7.09352Z" fill="black"/>
<path d="M31.6391 4.09082C32.1177 4.09082 32.7273 4.09082 32.7273 4.09082C32.7273 4.09082 32.7273 5.48173 32.7273 6.13627C32.7273 6.64764 32.7273 8.18173 32.7273 8.18173H31.7004C31.7004 8.18173 29.0209 8.26764 28.7018 7.62946C28.2109 6.63946 30.5059 4.09082 31.6391 4.09082Z" fill="black"/>
<path d="M36.8182 4.09082H32.7273V8.18173H36.8182V4.09082Z" fill="black"/>
<path d="M40.9091 4.09082H36.8182V8.18173H40.9091V4.09082Z" fill="black"/>
<path d="M45 4.09082H40.9091V8.18173H45V4.09082Z" fill="black"/>
<path d="M4.0909 11.1843C4.0909 11.663 4.0909 12.2725 4.0909 12.2725C4.0909 12.2725 2.69999 12.2725 2.04544 12.2725C1.53408 12.2725 -1.02161e-05 12.2725 -1.02161e-05 12.2725V11.2457C-1.02161e-05 11.2457 -0.0859193 8.56616 0.552262 8.24707C1.54226 7.75616 4.0909 10.0512 4.0909 11.1843Z" fill="black"/>
<path d="M19.3663 8.18164C19.845 8.18164 20.4545 8.18164 20.4545 8.18164C20.4545 8.18164 20.4545 9.57255 20.4545 10.2271C20.4545 10.7385 20.4545 12.2725 20.4545 12.2725H19.4277C19.4277 12.2725 16.7482 12.3585 16.4291 11.7203C15.9382 10.7303 18.2332 8.18164 19.3663 8.18164Z" fill="black"/>
<path d="M24.5454 8.18164H20.4545V12.2726H24.5454V8.18164Z" fill="black"/>
<path d="M25.6336 12.2728C25.155 12.2728 24.5454 12.2728 24.5454 12.2728C24.5454 12.2728 24.5454 10.8818 24.5454 10.2273C24.5454 9.71593 24.5454 8.18184 24.5454 8.18184H25.5723C25.5723 8.18184 28.2109 8.09593 28.53 8.73412C29.0209 9.72412 26.7668 12.2728 25.6336 12.2728Z" fill="black"/>
<path d="M32.7273 9.22905C32.7273 8.75041 32.7273 8.14087 32.7273 8.14087C32.7273 8.14087 34.1182 8.14087 34.7727 8.14087C35.2841 8.14087 36.8182 8.14087 36.8182 8.14087V9.16769C36.8182 9.16769 36.9041 11.8472 36.2659 12.1663C35.2759 12.6572 32.7273 10.3622 32.7273 9.22905Z" fill="black"/>
<path d="M45 8.18164H40.9091V10.8653C40.9091 11.2539 41.0482 11.5853 41.3223 11.8594C41.5964 12.1335 41.9277 12.2726 42.3164 12.2726H45V8.18164Z" fill="black"/>
<path d="M4.09091 12.2727H0V14.9563C0 15.345 0.13909 15.6763 0.413181 15.9504C0.687272 16.2245 1.01864 16.3636 1.40727 16.3636H4.09091V12.2727Z" fill="black"/>
<path d="M5.17909 16.3636C4.70046 16.3636 4.09091 16.3636 4.09091 16.3636C4.09091 16.3636 4.09091 14.9727 4.09091 14.3181C4.09091 13.8068 4.09091 12.2727 4.09091 12.2727H5.11773C5.11773 12.2727 7.75637 12.1868 8.07546 12.8249C8.56637 13.8149 6.31227 16.3636 5.17909 16.3636Z" fill="black"/>
<path d="M32.535 15.7091C33.5618 13.7945 29.8391 11.0373 28.8245 12.9354C27.8018 14.8459 31.5245 17.595 32.535 15.7091Z" fill="black"/>
<path d="M40.7168 15.7091C41.7436 13.7945 38.0209 11.0373 37.0063 12.9354C35.9836 14.8459 39.7064 17.595 40.7168 15.7091Z" fill="black"/>
<path d="M12.2727 17.7708V16.3635H9.5891C9.20046 16.3635 8.8691 16.5026 8.595 16.7767C8.32091 17.0508 8.18182 17.3822 8.18182 17.7708V20.4544H12.2727V17.7708Z" fill="black"/>
<path d="M13.3609 20.4544C12.8822 20.4544 12.2727 20.4544 12.2727 20.4544C12.2727 20.4544 12.2727 19.0635 12.2727 18.4089C12.2727 17.8976 12.2727 16.3635 12.2727 16.3635H13.2995C13.2995 16.3635 15.9382 16.2776 16.2572 16.9158C16.7482 17.9058 14.4941 20.4544 13.3609 20.4544Z" fill="black"/>
<path d="M24.5454 17.7708V16.3635H21.8618C21.4732 16.3635 21.1418 16.5026 20.8677 16.7767C20.5936 17.0508 20.4545 17.3822 20.4545 17.7708V20.4544H24.5454V17.7708Z" fill="black"/>
<path d="M25.6336 20.4544C25.155 20.4544 24.5454 20.4544 24.5454 20.4544C24.5454 20.4544 24.5454 19.0635 24.5454 18.4089C24.5454 17.8976 24.5454 16.3635 24.5454 16.3635H25.5723C25.5723 16.3635 28.2109 16.2776 28.53 16.9158C29.0209 17.9058 26.7668 20.4544 25.6336 20.4544Z" fill="black"/>
<path d="M36.8182 19.3662C36.8182 19.8449 36.8182 20.4544 36.8182 20.4544C36.8182 20.4544 35.4272 20.4544 34.7727 20.4544C34.2613 20.4544 32.7273 20.4544 32.7273 20.4544V19.4276C32.7273 19.4276 32.6413 16.748 33.2795 16.429C34.2695 15.938 36.8182 18.233 36.8182 19.3662Z" fill="black"/>
<path d="M8.18182 21.5018C8.18182 21.0231 8.18182 20.4136 8.18182 20.4136C8.18182 20.4136 9.57273 20.4136 10.2273 20.4136C10.7386 20.4136 12.2727 20.4136 12.2727 20.4136V21.4404C12.2727 21.4404 12.3586 24.1199 11.7205 24.439C10.7305 24.9299 8.18182 22.6349 8.18182 21.5018Z" fill="black"/>
<path d="M20.4545 21.5018C20.4545 21.0231 20.4545 20.4136 20.4545 20.4136C20.4545 20.4136 21.8454 20.4136 22.5 20.4136C23.0113 20.4136 24.5454 20.4136 24.5454 20.4136V21.4404C24.5454 21.4404 24.6313 24.1199 23.9932 24.439C23.0032 24.9299 20.4545 22.6349 20.4545 21.5018Z" fill="black"/>
<path d="M32.7273 21.8619V20.4546H30.0436C29.655 20.4546 29.3236 20.5937 29.0495 20.8678C28.7754 21.1419 28.6364 21.4732 28.6364 21.8619V24.5455H32.7273V21.8619Z" fill="black"/>
<path d="M36.8182 20.4546H32.7273V24.5455H35.4109C35.7995 24.5455 36.1309 24.4064 36.405 24.1323C36.6791 23.8582 36.8182 23.5269 36.8182 23.1382V20.4546Z" fill="black"/>
<path d="M4.09091 25.9527V24.5454H1.40727C1.01864 24.5454 0.687272 24.6845 0.413181 24.9586C0.13909 25.2327 0 25.564 0 25.9527V28.6363H4.09091V25.9527Z" fill="black"/>
<path d="M5.17909 28.6363C4.70046 28.6363 4.09091 28.6363 4.09091 28.6363C4.09091 28.6363 4.09091 27.2454 4.09091 26.5908C4.09091 26.0795 4.09091 24.5454 4.09091 24.5454H5.11773C5.11773 24.5454 7.75637 24.4595 8.07546 25.0976C8.56637 26.0876 6.31227 28.6363 5.17909 28.6363Z" fill="black"/>
<path d="M16.1714 27.9818C17.1982 26.0672 13.4754 23.31 12.4609 25.2081C11.4382 27.1186 15.1609 29.8677 16.1714 27.9818Z" fill="black"/>
<path d="M28.6363 25.9527V24.5454H25.9527C25.5641 24.5454 25.2327 24.6845 24.9586 24.9586C24.6845 25.2327 24.5454 25.564 24.5454 25.9527V28.6363H28.6363V25.9527Z" fill="black"/>
<path d="M32.7273 24.5454H28.6364V28.6363H31.32C31.7086 28.6363 32.04 28.4972 32.3141 28.2231C32.5882 27.949 32.7273 27.6177 32.7273 27.229V24.5454Z" fill="black"/>
<path d="M40.9091 25.9527V24.5454H38.2255C37.8368 24.5454 37.5054 24.6845 37.2314 24.9586C36.9573 25.2327 36.8182 25.564 36.8182 25.9527V28.6363H40.9091V25.9527Z" fill="black"/>
<path d="M45 24.5454H40.9091V28.6363H45V24.5454Z" fill="black"/>
<path d="M4.09091 28.6362H0V32.7271H4.09091V28.6362Z" fill="black"/>
<path d="M12.2727 31.6389C12.2727 32.1176 12.2727 32.7271 12.2727 32.7271C12.2727 32.7271 10.8818 32.7271 10.2273 32.7271C9.7159 32.7271 8.18181 32.7271 8.18181 32.7271V31.7003C8.18181 31.7003 8.0959 29.0207 8.73409 28.7017C9.72409 28.2107 12.2727 30.5057 12.2727 31.6389Z" fill="black"/>
<path d="M20.4545 31.6389C20.4545 32.1176 20.4545 32.7271 20.4545 32.7271C20.4545 32.7271 19.0636 32.7271 18.4091 32.7271C17.8977 32.7271 16.3636 32.7271 16.3636 32.7271V31.7003C16.3636 31.7003 16.2777 29.0207 16.9159 28.7017C17.9059 28.2107 20.4545 30.5057 20.4545 31.6389Z" fill="black"/>
<path d="M28.6363 28.6362H24.5454V32.7271H28.6363V28.6362Z" fill="black"/>
<path d="M36.8182 29.6836C36.8182 29.205 36.8182 28.5955 36.8182 28.5955C36.8182 28.5955 38.2091 28.5955 38.8636 28.5955C39.375 28.5955 40.9091 28.5955 40.9091 28.5955V29.6223C40.9091 29.6223 40.995 32.3018 40.3568 32.6209C39.3668 33.1118 36.8182 30.8168 36.8182 29.6836Z" fill="black"/>
<path d="M4.09091 32.7273H0V35.4109C0 35.7996 0.13909 36.1309 0.413181 36.405C0.687272 36.6791 1.01864 36.8182 1.40727 36.8182H4.09091V32.7273Z" fill="black"/>
<path d="M8.18182 32.7273H4.09091V36.8182H8.18182V32.7273Z" fill="black"/>
<path d="M12.2727 32.7273H8.18182V36.8182H12.2727V32.7273Z" fill="black"/>
<path d="M20.4545 32.7273H16.3636V36.8182H20.4545V32.7273Z" fill="black"/>
<path d="M24.5454 33.7745C24.5454 33.2958 24.5454 32.6863 24.5454 32.6863C24.5454 32.6863 25.9364 32.6863 26.5909 32.6863C27.1023 32.6863 28.6364 32.6863 28.6364 32.6863V33.7131C28.6364 33.7131 28.7223 36.3926 28.0841 36.7117C27.0941 37.2026 24.5454 34.9076 24.5454 33.7745Z" fill="black"/>
<path d="M36.8182 35.73C36.8182 36.2086 36.8182 36.8182 36.8182 36.8182C36.8182 36.8182 35.4272 36.8182 34.7727 36.8182C34.2613 36.8182 32.7273 36.8182 32.7273 36.8182V35.7914C32.7273 35.7914 32.6413 33.1118 33.2795 32.7927C34.2695 32.3018 36.8182 34.5968 36.8182 35.73Z" fill="black"/>
<path d="M48.0027 32.7273C48.4814 32.7273 49.0909 32.7273 49.0909 32.7273C49.0909 32.7273 49.0909 34.1182 49.0909 34.7727C49.0909 35.2841 49.0909 36.8182 49.0909 36.8182H48.0641C48.0641 36.8182 45.3845 36.9041 45.0655 36.2659C44.5745 35.2759 46.8696 32.7273 48.0027 32.7273Z" fill="black"/>
<path d="M8.18182 36.8181H4.09091V40.909H8.18182V36.8181Z" fill="black"/>
<path d="M12.2727 36.8181H8.18182V40.909H12.2727V36.8181Z" fill="black"/>
<path d="M16.3636 36.8181H12.2727V40.909H16.3636V36.8181Z" fill="black"/>
<path d="M20.4545 36.8181H16.3636V40.909H20.4545V36.8181Z" fill="black"/>
<path d="M36.8182 36.8181H32.7273V40.909H36.8182V36.8181Z" fill="black"/>
<path d="M40.9091 38.2254C40.9091 37.8368 40.77 37.5054 40.4959 37.2313C40.2218 36.9572 39.8905 36.8181 39.5018 36.8181H36.8182V40.909H40.9091V38.2254Z" fill="black"/>
<path d="M8.18182 40.9089H4.09091V44.9998H8.18182V40.9089Z" fill="black"/>
<path d="M20.4545 40.9089H16.3636V44.9998H20.4545V40.9089Z" fill="black"/>
<path d="M28.6363 42.3162V40.9089H25.9527C25.5641 40.9089 25.2327 41.048 24.9586 41.3221C24.6845 41.5962 24.5454 41.9276 24.5454 42.3162V44.9998H28.6363V42.3162Z" fill="black"/>
<path d="M32.7273 40.9089H28.6364V44.9998H32.7273V40.9089Z" fill="black"/>
<path d="M36.8182 40.9089H32.7273V44.9998H36.8182V40.9089Z" fill="black"/>
<path d="M40.9091 40.9089H36.8182V44.9998H40.9091V40.9089Z" fill="black"/>
<path d="M45 40.9089H40.9091V44.9998H45V40.9089Z" fill="black"/>
<path d="M40.9091 46.0472C40.9091 45.5685 40.9091 44.959 40.9091 44.959C40.9091 44.959 42.3 44.959 42.9545 44.959C43.4659 44.959 45 44.959 45 44.959V45.9858C45 45.9858 45.0859 48.6653 44.4477 48.9844C43.4577 49.4753 40.9091 47.1803 40.9091 46.0472Z" fill="black"/>
</g>
<defs>
<clipPath id="clip0">
<rect width="45" height="45" fill="white"/>
</clipPath>
</defs>
</svg>
