<svg width="45" height="45" viewBox="0 0 45 45" fill="none" xmlns="http://www.w3.org/2000/svg">
<g clip-path="url(#clip0)">
<path d="M98.1818 -53.1819H-53.1819V98.1818H98.1818V-53.1819Z" fill="white"/>
<path d="M6.13636 3.2729C6.81417 3.2729 7.36364 2.72344 7.36364 2.04563C7.36364 1.36783 6.81417 0.818359 6.13636 0.818359C5.45856 0.818359 4.90909 1.36783 4.90909 2.04563C4.90909 2.72344 5.45856 3.2729 6.13636 3.2729Z" fill="black"/>
<path d="M10.2273 3.2729C10.9051 3.2729 11.4545 2.72344 11.4545 2.04563C11.4545 1.36783 10.9051 0.818359 10.2273 0.818359C9.54947 0.818359 9 1.36783 9 2.04563C9 2.72344 9.54947 3.2729 10.2273 3.2729Z" fill="black"/>
<path d="M26.5909 3.2729C27.2687 3.2729 27.8182 2.72344 27.8182 2.04563C27.8182 1.36783 27.2687 0.818359 26.5909 0.818359C25.9131 0.818359 25.3636 1.36783 25.3636 2.04563C25.3636 2.72344 25.9131 3.2729 26.5909 3.2729Z" fill="black"/>
<path d="M34.7727 3.2729C35.4505 3.2729 36 2.72344 36 2.04563C36 1.36783 35.4505 0.818359 34.7727 0.818359C34.0949 0.818359 33.5455 1.36783 33.5455 2.04563C33.5455 2.72344 34.0949 3.2729 34.7727 3.2729Z" fill="black"/>
<path d="M14.3182 7.36373C14.996 7.36373 15.5455 6.81426 15.5455 6.13645C15.5455 5.45865 14.996 4.90918 14.3182 4.90918C13.6404 4.90918 13.0909 5.45865 13.0909 6.13645C13.0909 6.81426 13.6404 7.36373 14.3182 7.36373Z" fill="black"/>
<path d="M22.5 7.36373C23.1778 7.36373 23.7273 6.81426 23.7273 6.13645C23.7273 5.45865 23.1778 4.90918 22.5 4.90918C21.8222 4.90918 21.2727 5.45865 21.2727 6.13645C21.2727 6.81426 21.8222 7.36373 22.5 7.36373Z" fill="black"/>
<path d="M30.6818 7.36373C31.3596 7.36373 31.9091 6.81426 31.9091 6.13645C31.9091 5.45865 31.3596 4.90918 30.6818 4.90918C30.004 4.90918 29.4545 5.45865 29.4545 6.13645C29.4545 6.81426 30.004 7.36373 30.6818 7.36373Z" fill="black"/>
<path d="M34.7727 7.36373C35.4505 7.36373 36 6.81426 36 6.13645C36 5.45865 35.4505 4.90918 34.7727 4.90918C34.0949 4.90918 33.5455 5.45865 33.5455 6.13645C33.5455 6.81426 34.0949 7.36373 34.7727 7.36373Z" fill="black"/>
<path d="M38.8636 7.36373C39.5414 7.36373 40.0909 6.81426 40.0909 6.13645C40.0909 5.45865 39.5414 4.90918 38.8636 4.90918C38.1858 4.90918 37.6364 5.45865 37.6364 6.13645C37.6364 6.81426 38.1858 7.36373 38.8636 7.36373Z" fill="black"/>
<path d="M42.9545 7.36373C43.6324 7.36373 44.1818 6.81426 44.1818 6.13645C44.1818 5.45865 43.6324 4.90918 42.9545 4.90918C42.2767 4.90918 41.7273 5.45865 41.7273 6.13645C41.7273 6.81426 42.2767 7.36373 42.9545 7.36373Z" fill="black"/>
<path d="M2.04545 11.4548C2.72325 11.4548 3.27272 10.9053 3.27272 10.2275C3.27272 9.54971 2.72325 9.00024 2.04545 9.00024C1.36765 9.00024 0.818176 9.54971 0.818176 10.2275C0.818176 10.9053 1.36765 11.4548 2.04545 11.4548Z" fill="black"/>
<path d="M18.4091 11.4548C19.0869 11.4548 19.6364 10.9053 19.6364 10.2275C19.6364 9.54971 19.0869 9.00024 18.4091 9.00024C17.7313 9.00024 17.1818 9.54971 17.1818 10.2275C17.1818 10.9053 17.7313 11.4548 18.4091 11.4548Z" fill="black"/>
<path d="M22.5 11.4548C23.1778 11.4548 23.7273 10.9053 23.7273 10.2275C23.7273 9.54971 23.1778 9.00024 22.5 9.00024C21.8222 9.00024 21.2727 9.54971 21.2727 10.2275C21.2727 10.9053 21.8222 11.4548 22.5 11.4548Z" fill="black"/>
<path d="M26.5909 11.4548C27.2687 11.4548 27.8182 10.9053 27.8182 10.2275C27.8182 9.54971 27.2687 9.00024 26.5909 9.00024C25.9131 9.00024 25.3636 9.54971 25.3636 10.2275C25.3636 10.9053 25.9131 11.4548 26.5909 11.4548Z" fill="black"/>
<path d="M34.7727 11.4548C35.4505 11.4548 36 10.9053 36 10.2275C36 9.54971 35.4505 9.00024 34.7727 9.00024C34.0949 9.00024 33.5455 9.54971 33.5455 10.2275C33.5455 10.9053 34.0949 11.4548 34.7727 11.4548Z" fill="black"/>
<path d="M42.9545 11.4548C43.6324 11.4548 44.1818 10.9053 44.1818 10.2275C44.1818 9.54971 43.6324 9.00024 42.9545 9.00024C42.2767 9.00024 41.7273 9.54971 41.7273 10.2275C41.7273 10.9053 42.2767 11.4548 42.9545 11.4548Z" fill="black"/>
<path d="M2.04545 15.5456C2.72325 15.5456 3.27272 14.9961 3.27272 14.3183C3.27272 13.6405 2.72325 13.0911 2.04545 13.0911C1.36765 13.0911 0.818176 13.6405 0.818176 14.3183C0.818176 14.9961 1.36765 15.5456 2.04545 15.5456Z" fill="black"/>
<path d="M6.13636 15.5456C6.81417 15.5456 7.36364 14.9961 7.36364 14.3183C7.36364 13.6405 6.81417 13.0911 6.13636 13.0911C5.45856 13.0911 4.90909 13.6405 4.90909 14.3183C4.90909 14.9961 5.45856 15.5456 6.13636 15.5456Z" fill="black"/>
<path d="M30.6818 15.5456C31.3596 15.5456 31.9091 14.9961 31.9091 14.3183C31.9091 13.6405 31.3596 13.0911 30.6818 13.0911C30.004 13.0911 29.4545 13.6405 29.4545 14.3183C29.4545 14.9961 30.004 15.5456 30.6818 15.5456Z" fill="black"/>
<path d="M38.8636 15.5456C39.5414 15.5456 40.0909 14.9961 40.0909 14.3183C40.0909 13.6405 39.5414 13.0911 38.8636 13.0911C38.1858 13.0911 37.6364 13.6405 37.6364 14.3183C37.6364 14.9961 38.1858 15.5456 38.8636 15.5456Z" fill="black"/>
<path d="M10.2273 19.6364C10.9051 19.6364 11.4545 19.087 11.4545 18.4092C11.4545 17.7314 10.9051 17.1819 10.2273 17.1819C9.54947 17.1819 9 17.7314 9 18.4092C9 19.087 9.54947 19.6364 10.2273 19.6364Z" fill="black"/>
<path d="M14.3182 19.6364C14.996 19.6364 15.5455 19.087 15.5455 18.4092C15.5455 17.7314 14.996 17.1819 14.3182 17.1819C13.6404 17.1819 13.0909 17.7314 13.0909 18.4092C13.0909 19.087 13.6404 19.6364 14.3182 19.6364Z" fill="black"/>
<path d="M22.5 19.6364C23.1778 19.6364 23.7273 19.087 23.7273 18.4092C23.7273 17.7314 23.1778 17.1819 22.5 17.1819C21.8222 17.1819 21.2727 17.7314 21.2727 18.4092C21.2727 19.087 21.8222 19.6364 22.5 19.6364Z" fill="black"/>
<path d="M26.5909 19.6364C27.2687 19.6364 27.8182 19.087 27.8182 18.4092C27.8182 17.7314 27.2687 17.1819 26.5909 17.1819C25.9131 17.1819 25.3636 17.7314 25.3636 18.4092C25.3636 19.087 25.9131 19.6364 26.5909 19.6364Z" fill="black"/>
<path d="M34.7727 19.6364C35.4505 19.6364 36 19.087 36 18.4092C36 17.7314 35.4505 17.1819 34.7727 17.1819C34.0949 17.1819 33.5455 17.7314 33.5455 18.4092C33.5455 19.087 34.0949 19.6364 34.7727 19.6364Z" fill="black"/>
<path d="M10.2273 23.7275C10.9051 23.7275 11.4545 23.178 11.4545 22.5002C11.4545 21.8224 10.9051 21.2729 10.2273 21.2729C9.54947 21.2729 9 21.8224 9 22.5002C9 23.178 9.54947 23.7275 10.2273 23.7275Z" fill="black"/>
<path d="M22.5 23.7275C23.1778 23.7275 23.7273 23.178 23.7273 22.5002C23.7273 21.8224 23.1778 21.2729 22.5 21.2729C21.8222 21.2729 21.2727 21.8224 21.2727 22.5002C21.2727 23.178 21.8222 23.7275 22.5 23.7275Z" fill="black"/>
<path d="M30.6818 23.7275C31.3596 23.7275 31.9091 23.178 31.9091 22.5002C31.9091 21.8224 31.3596 21.2729 30.6818 21.2729C30.004 21.2729 29.4545 21.8224 29.4545 22.5002C29.4545 23.178 30.004 23.7275 30.6818 23.7275Z" fill="black"/>
<path d="M34.7727 23.7275C35.4505 23.7275 36 23.178 36 22.5002C36 21.8224 35.4505 21.2729 34.7727 21.2729C34.0949 21.2729 33.5455 21.8224 33.5455 22.5002C33.5455 23.178 34.0949 23.7275 34.7727 23.7275Z" fill="black"/>
<path d="M2.04545 27.8183C2.72325 27.8183 3.27272 27.2688 3.27272 26.591C3.27272 25.9132 2.72325 25.3638 2.04545 25.3638C1.36765 25.3638 0.818176 25.9132 0.818176 26.591C0.818176 27.2688 1.36765 27.8183 2.04545 27.8183Z" fill="black"/>
<path d="M6.13636 27.8183C6.81417 27.8183 7.36364 27.2688 7.36364 26.591C7.36364 25.9132 6.81417 25.3638 6.13636 25.3638C5.45856 25.3638 4.90909 25.9132 4.90909 26.591C4.90909 27.2688 5.45856 27.8183 6.13636 27.8183Z" fill="black"/>
<path d="M14.3182 27.8183C14.996 27.8183 15.5455 27.2688 15.5455 26.591C15.5455 25.9132 14.996 25.3638 14.3182 25.3638C13.6404 25.3638 13.0909 25.9132 13.0909 26.591C13.0909 27.2688 13.6404 27.8183 14.3182 27.8183Z" fill="black"/>
<path d="M26.5909 27.8183C27.2687 27.8183 27.8182 27.2688 27.8182 26.591C27.8182 25.9132 27.2687 25.3638 26.5909 25.3638C25.9131 25.3638 25.3636 25.9132 25.3636 26.591C25.3636 27.2688 25.9131 27.8183 26.5909 27.8183Z" fill="black"/>
<path d="M30.6818 27.8183C31.3596 27.8183 31.9091 27.2688 31.9091 26.591C31.9091 25.9132 31.3596 25.3638 30.6818 25.3638C30.004 25.3638 29.4545 25.9132 29.4545 26.591C29.4545 27.2688 30.004 27.8183 30.6818 27.8183Z" fill="black"/>
<path d="M38.8636 27.8183C39.5414 27.8183 40.0909 27.2688 40.0909 26.591C40.0909 25.9132 39.5414 25.3638 38.8636 25.3638C38.1858 25.3638 37.6364 25.9132 37.6364 26.591C37.6364 27.2688 38.1858 27.8183 38.8636 27.8183Z" fill="black"/>
<path d="M42.9545 27.8183C43.6324 27.8183 44.1818 27.2688 44.1818 26.591C44.1818 25.9132 43.6324 25.3638 42.9545 25.3638C42.2767 25.3638 41.7273 25.9132 41.7273 26.591C41.7273 27.2688 42.2767 27.8183 42.9545 27.8183Z" fill="black"/>
<path d="M2.04545 31.9094C2.72325 31.9094 3.27272 31.3599 3.27272 30.6821C3.27272 30.0043 2.72325 29.4548 2.04545 29.4548C1.36765 29.4548 0.818176 30.0043 0.818176 30.6821C0.818176 31.3599 1.36765 31.9094 2.04545 31.9094Z" fill="black"/>
<path d="M10.2273 31.9094C10.9051 31.9094 11.4545 31.3599 11.4545 30.6821C11.4545 30.0043 10.9051 29.4548 10.2273 29.4548C9.54947 29.4548 9 30.0043 9 30.6821C9 31.3599 9.54947 31.9094 10.2273 31.9094Z" fill="black"/>
<path d="M18.4091 31.9094C19.0869 31.9094 19.6364 31.3599 19.6364 30.6821C19.6364 30.0043 19.0869 29.4548 18.4091 29.4548C17.7313 29.4548 17.1818 30.0043 17.1818 30.6821C17.1818 31.3599 17.7313 31.9094 18.4091 31.9094Z" fill="black"/>
<path d="M26.5909 31.9094C27.2687 31.9094 27.8182 31.3599 27.8182 30.6821C27.8182 30.0043 27.2687 29.4548 26.5909 29.4548C25.9131 29.4548 25.3636 30.0043 25.3636 30.6821C25.3636 31.3599 25.9131 31.9094 26.5909 31.9094Z" fill="black"/>
<path d="M38.8636 31.9094C39.5414 31.9094 40.0909 31.3599 40.0909 30.6821C40.0909 30.0043 39.5414 29.4548 38.8636 29.4548C38.1858 29.4548 37.6364 30.0043 37.6364 30.6821C37.6364 31.3599 38.1858 31.9094 38.8636 31.9094Z" fill="black"/>
<path d="M2.04545 36.0002C2.72325 36.0002 3.27272 35.4507 3.27272 34.7729C3.27272 34.0951 2.72325 33.5457 2.04545 33.5457C1.36765 33.5457 0.818176 34.0951 0.818176 34.7729C0.818176 35.4507 1.36765 36.0002 2.04545 36.0002Z" fill="black"/>
<path d="M6.13636 36.0002C6.81417 36.0002 7.36364 35.4507 7.36364 34.7729C7.36364 34.0951 6.81417 33.5457 6.13636 33.5457C5.45856 33.5457 4.90909 34.0951 4.90909 34.7729C4.90909 35.4507 5.45856 36.0002 6.13636 36.0002Z" fill="black"/>
<path d="M10.2273 36.0002C10.9051 36.0002 11.4545 35.4507 11.4545 34.7729C11.4545 34.0951 10.9051 33.5457 10.2273 33.5457C9.54947 33.5457 9 34.0951 9 34.7729C9 35.4507 9.54947 36.0002 10.2273 36.0002Z" fill="black"/>
<path d="M18.4091 36.0002C19.0869 36.0002 19.6364 35.4507 19.6364 34.7729C19.6364 34.0951 19.0869 33.5457 18.4091 33.5457C17.7313 33.5457 17.1818 34.0951 17.1818 34.7729C17.1818 35.4507 17.7313 36.0002 18.4091 36.0002Z" fill="black"/>
<path d="M26.5909 36.0002C27.2687 36.0002 27.8182 35.4507 27.8182 34.7729C27.8182 34.0951 27.2687 33.5457 26.5909 33.5457C25.9131 33.5457 25.3636 34.0951 25.3636 34.7729C25.3636 35.4507 25.9131 36.0002 26.5909 36.0002Z" fill="black"/>
<path d="M34.7727 36.0002C35.4505 36.0002 36 35.4507 36 34.7729C36 34.0951 35.4505 33.5457 34.7727 33.5457C34.0949 33.5457 33.5455 34.0951 33.5455 34.7729C33.5455 35.4507 34.0949 36.0002 34.7727 36.0002Z" fill="black"/>
<path d="M6.13636 40.091C6.81417 40.091 7.36364 39.5415 7.36364 38.8637C7.36364 38.1859 6.81417 37.6365 6.13636 37.6365C5.45856 37.6365 4.90909 38.1859 4.90909 38.8637C4.90909 39.5415 5.45856 40.091 6.13636 40.091Z" fill="black"/>
<path d="M10.2273 40.091C10.9051 40.091 11.4545 39.5415 11.4545 38.8637C11.4545 38.1859 10.9051 37.6365 10.2273 37.6365C9.54947 37.6365 9 38.1859 9 38.8637C9 39.5415 9.54947 40.091 10.2273 40.091Z" fill="black"/>
<path d="M14.3182 40.091C14.996 40.091 15.5455 39.5415 15.5455 38.8637C15.5455 38.1859 14.996 37.6365 14.3182 37.6365C13.6404 37.6365 13.0909 38.1859 13.0909 38.8637C13.0909 39.5415 13.6404 40.091 14.3182 40.091Z" fill="black"/>
<path d="M18.4091 40.091C19.0869 40.091 19.6364 39.5415 19.6364 38.8637C19.6364 38.1859 19.0869 37.6365 18.4091 37.6365C17.7313 37.6365 17.1818 38.1859 17.1818 38.8637C17.1818 39.5415 17.7313 40.091 18.4091 40.091Z" fill="black"/>
<path d="M34.7727 40.091C35.4505 40.091 36 39.5415 36 38.8637C36 38.1859 35.4505 37.6365 34.7727 37.6365C34.0949 37.6365 33.5455 38.1859 33.5455 38.8637C33.5455 39.5415 34.0949 40.091 34.7727 40.091Z" fill="black"/>
<path d="M38.8636 40.091C39.5414 40.091 40.0909 39.5415 40.0909 38.8637C40.0909 38.1859 39.5414 37.6365 38.8636 37.6365C38.1858 37.6365 37.6364 38.1859 37.6364 38.8637C37.6364 39.5415 38.1858 40.091 38.8636 40.091Z" fill="black"/>
<path d="M6.13636 44.1821C6.81417 44.1821 7.36364 43.6326 7.36364 42.9548C7.36364 42.277 6.81417 41.7275 6.13636 41.7275C5.45856 41.7275 4.90909 42.277 4.90909 42.9548C4.90909 43.6326 5.45856 44.1821 6.13636 44.1821Z" fill="black"/>
<path d="M18.4091 44.1821C19.0869 44.1821 19.6364 43.6326 19.6364 42.9548C19.6364 42.277 19.0869 41.7275 18.4091 41.7275C17.7313 41.7275 17.1818 42.277 17.1818 42.9548C17.1818 43.6326 17.7313 44.1821 18.4091 44.1821Z" fill="black"/>
<path d="M26.5909 44.1821C27.2687 44.1821 27.8182 43.6326 27.8182 42.9548C27.8182 42.277 27.2687 41.7275 26.5909 41.7275C25.9131 41.7275 25.3636 42.277 25.3636 42.9548C25.3636 43.6326 25.9131 44.1821 26.5909 44.1821Z" fill="black"/>
<path d="M30.6818 44.1821C31.3596 44.1821 31.9091 43.6326 31.9091 42.9548C31.9091 42.277 31.3596 41.7275 30.6818 41.7275C30.004 41.7275 29.4545 42.277 29.4545 42.9548C29.4545 43.6326 30.004 44.1821 30.6818 44.1821Z" fill="black"/>
<path d="M34.7727 44.1821C35.4505 44.1821 36 43.6326 36 42.9548C36 42.277 35.4505 41.7275 34.7727 41.7275C34.0949 41.7275 33.5455 42.277 33.5455 42.9548C33.5455 43.6326 34.0949 44.1821 34.7727 44.1821Z" fill="black"/>
<path d="M38.8636 44.1821C39.5414 44.1821 40.0909 43.6326 40.0909 42.9548C40.0909 42.277 39.5414 41.7275 38.8636 41.7275C38.1858 41.7275 37.6364 42.277 37.6364 42.9548C37.6364 43.6326 38.1858 44.1821 38.8636 44.1821Z" fill="black"/>
<path d="M42.9545 44.1821C43.6324 44.1821 44.1818 43.6326 44.1818 42.9548C44.1818 42.277 43.6324 41.7275 42.9545 41.7275C42.2767 41.7275 41.7273 42.277 41.7273 42.9548C41.7273 43.6326 42.2767 44.1821 42.9545 44.1821Z" fill="black"/>
</g>
<defs>
<clipPath id="clip0">
<rect width="45" height="45" fill="white"/>
</clipPath>
</defs>
</svg>
