<svg width="45" height="45" viewBox="0 0 45 45" fill="none" xmlns="http://www.w3.org/2000/svg">
<g clip-path="url(#clip0)">
<path d="M98.1818 -53.1819H-53.1819V98.1818H98.1818V-53.1819Z" fill="white"/>
<path d="M8.18182 0H4.09091V4.09091H8.18182V0Z" fill="black"/>
<path d="M12.2727 0H8.18182V4.09091H12.2727L11.1232 2.04545L12.2727 0Z" fill="black"/>
<path d="M28.6364 0H24.5455V4.09091H28.6364V0Z" fill="black"/>
<path d="M32.7273 0V4.09091H36.8182V0L34.7727 1.14954L32.7273 0Z" fill="black"/>
<path d="M16.3636 4.09082H12.2727V8.18173H16.3636V4.09082Z" fill="black"/>
<path d="M20.4545 4.09082V8.18173H24.5455V4.09082L22.5 5.24036L20.4545 4.09082Z" fill="black"/>
<path d="M28.6364 8.18173H32.7273V4.09082H28.6364L29.7859 6.13627L28.6364 8.18173Z" fill="black"/>
<path d="M36.8182 4.09082H32.7273V8.18173H36.8182V4.09082Z" fill="black"/>
<path d="M40.9091 4.09082H36.8182V8.18173H40.9091V4.09082Z" fill="black"/>
<path d="M45 4.09082H40.9091V8.18173H45V4.09082Z" fill="black"/>
<path d="M0 8.18188V12.2728H4.09091V8.18188L2.04545 9.33143L0 8.18188Z" fill="black"/>
<path d="M16.3636 12.2728H20.4545V8.18188H16.3636L17.5132 10.2273L16.3636 12.2728Z" fill="black"/>
<path d="M24.5455 8.18188H20.4545V12.2728H24.5455V8.18188Z" fill="black"/>
<path d="M28.6364 8.18188H24.5455V12.2728H28.6364L27.4868 10.2273L28.6364 8.18188Z" fill="black"/>
<path d="M36.8182 12.2728V8.18188H32.7273V12.2728L34.7727 11.1233L36.8182 12.2728Z" fill="black"/>
<path d="M45 8.18188H40.9091V12.2728H45V8.18188Z" fill="black"/>
<path d="M4.09091 12.2727H0V16.3636H4.09091V12.2727Z" fill="black"/>
<path d="M8.18182 12.2727H4.09091V16.3636H8.18182L7.03228 14.3182L8.18182 12.2727Z" fill="black"/>
<path d="M32.7273 12.2727H28.6364V16.3636H32.7273V12.2727Z" fill="black"/>
<path d="M40.9091 12.2727H36.8182V16.3636H40.9091V12.2727Z" fill="black"/>
<path d="M12.2727 16.3635H8.18182V20.4544H12.2727V16.3635Z" fill="black"/>
<path d="M16.3636 16.3635H12.2727V20.4544H16.3636L15.2141 18.409L16.3636 16.3635Z" fill="black"/>
<path d="M24.5455 16.3635H20.4545V20.4544H24.5455V16.3635Z" fill="black"/>
<path d="M28.6364 16.3635H24.5455V20.4544H28.6364L27.4868 18.409L28.6364 16.3635Z" fill="black"/>
<path d="M32.7273 16.3635V20.4544H36.8182V16.3635L34.7727 17.5131L32.7273 16.3635Z" fill="black"/>
<path d="M12.2727 24.5455V20.4546H8.18182V24.5455L10.2273 23.396L12.2727 24.5455Z" fill="black"/>
<path d="M24.5455 24.5455V20.4546H20.4545V24.5455L22.5 23.396L24.5455 24.5455Z" fill="black"/>
<path d="M32.7273 20.4546H28.6364V24.5455H32.7273V20.4546Z" fill="black"/>
<path d="M36.8182 20.4546H32.7273V24.5455H36.8182V20.4546Z" fill="black"/>
<path d="M4.09091 24.5454H0V28.6363H4.09091V24.5454Z" fill="black"/>
<path d="M8.18182 24.5454H4.09091V28.6363H8.18182L7.03228 26.5909L8.18182 24.5454Z" fill="black"/>
<path d="M16.3636 24.5454H12.2727V28.6363H16.3636V24.5454Z" fill="black"/>
<path d="M28.6364 24.5454H24.5455V28.6363H28.6364V24.5454Z" fill="black"/>
<path d="M32.7273 24.5454H28.6364V28.6363H32.7273V24.5454Z" fill="black"/>
<path d="M40.9091 24.5454H36.8182V28.6363H40.9091V24.5454Z" fill="black"/>
<path d="M45 24.5454H40.9091V28.6363H45V24.5454Z" fill="black"/>
<path d="M4.09091 28.6365H0V32.7274H4.09091V28.6365Z" fill="black"/>
<path d="M8.18182 28.6365V32.7274H12.2727V28.6365L10.2273 29.786L8.18182 28.6365Z" fill="black"/>
<path d="M16.3636 28.6365V32.7274H20.4545V28.6365L18.4091 29.786L16.3636 28.6365Z" fill="black"/>
<path d="M28.6364 28.6365H24.5455V32.7274H28.6364V28.6365Z" fill="black"/>
<path d="M40.9091 32.7274V28.6365H36.8182V32.7274L38.8636 31.5778L40.9091 32.7274Z" fill="black"/>
<path d="M4.09091 32.7273H0V36.8182H4.09091V32.7273Z" fill="black"/>
<path d="M8.18182 32.7273H4.09091V36.8182H8.18182V32.7273Z" fill="black"/>
<path d="M12.2727 32.7273H8.18182V36.8182H12.2727V32.7273Z" fill="black"/>
<path d="M20.4545 32.7273H16.3636V36.8182H20.4545V32.7273Z" fill="black"/>
<path d="M28.6364 36.8182V32.7273H24.5455V36.8182L26.5909 35.6687L28.6364 36.8182Z" fill="black"/>
<path d="M32.7273 32.7273V36.8182H36.8182V32.7273L34.7727 33.8768L32.7273 32.7273Z" fill="black"/>
<path d="M8.18182 36.8181H4.09091V40.909H8.18182V36.8181Z" fill="black"/>
<path d="M12.2727 36.8181H8.18182V40.909H12.2727V36.8181Z" fill="black"/>
<path d="M16.3636 36.8181H12.2727V40.909H16.3636V36.8181Z" fill="black"/>
<path d="M20.4545 36.8181H16.3636V40.909H20.4545V36.8181Z" fill="black"/>
<path d="M36.8182 36.8181H32.7273V40.909H36.8182V36.8181Z" fill="black"/>
<path d="M40.9091 36.8181H36.8182V40.909H40.9091V36.8181Z" fill="black"/>
<path d="M8.18182 40.9092H4.09091V45.0001H8.18182V40.9092Z" fill="black"/>
<path d="M20.4545 40.9092H16.3636V45.0001H20.4545V40.9092Z" fill="black"/>
<path d="M28.6364 40.9092H24.5455V45.0001H28.6364V40.9092Z" fill="black"/>
<path d="M32.7273 40.9092H28.6364V45.0001H32.7273V40.9092Z" fill="black"/>
<path d="M36.8182 40.9092H32.7273V45.0001H36.8182V40.9092Z" fill="black"/>
<path d="M40.9091 40.9092H36.8182V45.0001H40.9091V40.9092Z" fill="black"/>
<path d="M45 40.9092H40.9091V45.0001H45V40.9092Z" fill="black"/>
</g>
<defs>
<clipPath id="clip0">
<rect width="45" height="45" fill="white"/>
</clipPath>
</defs>
</svg>
