<svg width="45" height="45" viewBox="0 0 45 45" fill="none" xmlns="http://www.w3.org/2000/svg">
<g clip-path="url(#clip0)">
<path d="M98.1818 -53.1819H-53.1819V98.1818H98.1818V-53.1819Z" fill="white"/>
<path d="M7.93637 0.314941H7.55182C7.55182 0.314941 7.31291 0.314941 7.00773 0.314941C6.96109 0.314941 6.91282 0.314941 6.86373 0.314941C6.47509 0.314941 6.02755 0.314941 5.82137 0.314941C4.86491 0.314941 4.09091 1.08976 4.09091 2.0454C4.09091 3.00103 4.86491 3.77585 5.82137 3.77585C6.07909 3.77585 6.50046 3.77585 6.86373 3.77585C6.91282 3.77585 6.96109 3.77585 7.00773 3.77585C7.31618 3.77585 7.55182 3.77585 7.55182 3.77585H7.93637H8.18182V0.314941H7.93637Z" fill="black"/>
<path d="M10.5423 0.314941C10.1913 0.314941 9.53426 0.314941 9.13908 0.314941C8.94354 0.314941 8.81181 0.314941 8.81181 0.314941H8.66863H8.42726H8.18181V3.77585H8.42726H8.66863H8.81181C8.81181 3.77585 8.94435 3.77585 9.13908 3.77585C9.55881 3.77585 10.2665 3.77585 10.5423 3.77585C11.4979 3.77585 12.2727 3.00103 12.2727 2.0454C12.2727 1.08976 11.4979 0.314941 10.5423 0.314941Z" fill="black"/>
<path d="M26.5909 0.314941C27.5465 0.314941 28.3214 1.08976 28.3214 2.0454C28.3214 3.00103 27.5465 3.77585 26.5909 3.77585C25.6353 3.77585 24.8605 3.00103 24.8605 2.0454C24.8605 1.08976 25.6353 0.314941 26.5909 0.314941Z" fill="black"/>
<path d="M34.7727 0.314941C35.7284 0.314941 36.5032 1.08976 36.5032 2.0454C36.5032 3.00103 35.7284 3.77585 34.7727 3.77585C33.8171 3.77585 33.0423 3.00103 33.0423 2.0454C33.0423 1.08976 33.8171 0.314941 34.7727 0.314941Z" fill="black"/>
<path d="M14.3182 4.40576C15.2738 4.40576 16.0486 5.18058 16.0486 6.13622C16.0486 7.09185 15.2738 7.86667 14.3182 7.86667C13.3625 7.86667 12.5877 7.09185 12.5877 6.13622C12.5877 5.18058 13.3625 4.40576 14.3182 4.40576Z" fill="black"/>
<path d="M22.5 4.40576C23.4556 4.40576 24.2304 5.18058 24.2304 6.13622C24.2304 7.09185 23.4556 7.86667 22.5 7.86667C21.5444 7.86667 20.7695 7.09185 20.7695 6.13622C20.7695 5.18058 21.5444 4.40576 22.5 4.40576Z" fill="black"/>
<path d="M32.4818 4.40576H32.0973C32.0973 4.40576 31.8584 4.40576 31.5532 4.40576C31.5065 4.40576 31.4583 4.40576 31.4092 4.40576C31.0205 4.40576 30.573 4.40576 30.3668 4.40576C29.4104 4.40576 28.6364 5.18058 28.6364 6.13622C28.6364 7.09185 29.4104 7.86667 30.3668 7.86667C30.6245 7.86667 31.0459 7.86667 31.4092 7.86667C31.4583 7.86667 31.5065 7.86667 31.5532 7.86667C31.8616 7.86667 32.0973 7.86667 32.0973 7.86667H32.4818H32.7273V4.40576H32.4818Z" fill="black"/>
<path d="M34.7727 4.40576H32.7273V7.86667H34.7727H36.8182V4.40576H34.7727Z" fill="black"/>
<path d="M38.8636 4.40576H36.8182V7.86667H38.8636H40.9091V4.40576H38.8636Z" fill="black"/>
<path d="M43.2695 4.40576C42.9185 4.40576 42.2615 4.40576 41.8664 4.40576C41.6708 4.40576 41.5391 4.40576 41.5391 4.40576H41.3959H41.1545H40.9091V7.86667H41.1545H41.3959H41.5391C41.5391 7.86667 41.6716 7.86667 41.8664 7.86667C42.2861 7.86667 42.9938 7.86667 43.2695 7.86667C44.2252 7.86667 45 7.09185 45 6.13622C45 5.18058 44.2252 4.40576 43.2695 4.40576Z" fill="black"/>
<path d="M2.04546 8.49683C3.00109 8.49683 3.77591 9.27164 3.77591 10.2273C3.77591 11.1829 3.00109 11.9577 2.04546 11.9577C1.08982 11.9577 0.315002 11.1829 0.315002 10.2273C0.315002 9.27164 1.08982 8.49683 2.04546 8.49683Z" fill="black"/>
<path d="M20.2091 8.49683H19.8245C19.8245 8.49683 19.5856 8.49683 19.2805 8.49683C19.2338 8.49683 19.1855 8.49683 19.1365 8.49683C18.7478 8.49683 18.3003 8.49683 18.0941 8.49683C17.1376 8.49683 16.3636 9.27164 16.3636 10.2273C16.3636 11.1829 17.1376 11.9577 18.0941 11.9577C18.3518 11.9577 18.7732 11.9577 19.1365 11.9577C19.1855 11.9577 19.2338 11.9577 19.2805 11.9577C19.5889 11.9577 19.8245 11.9577 19.8245 11.9577H20.2091H20.4545V8.49683H20.2091Z" fill="black"/>
<path d="M22.5 8.49683H20.4545V11.9577H22.5H24.5455V8.49683H22.5Z" fill="black"/>
<path d="M26.9059 8.49683C26.5549 8.49683 25.8979 8.49683 25.5027 8.49683C25.3072 8.49683 25.1755 8.49683 25.1755 8.49683H25.0323H24.7909H24.5455V11.9577H24.7909H25.0323H25.1755C25.1755 11.9577 25.308 11.9577 25.5027 11.9577C25.9225 11.9577 26.6302 11.9577 26.9059 11.9577C27.8615 11.9577 28.6364 11.1829 28.6364 10.2273C28.6364 9.27164 27.8615 8.49683 26.9059 8.49683Z" fill="black"/>
<path d="M34.7727 8.49683C35.7284 8.49683 36.5032 9.27164 36.5032 10.2273C36.5032 11.1829 35.7284 11.9577 34.7727 11.9577C33.8171 11.9577 33.0423 11.1829 33.0423 10.2273C33.0423 9.27164 33.8171 8.49683 34.7727 8.49683Z" fill="black"/>
<path d="M43.2696 8.49683C44.2252 8.49683 45 9.27164 45 10.2273C45 11.1829 44.2252 11.9577 43.2696 11.9577C42.3139 11.9577 41.5391 11.1829 41.5391 10.2273C41.5391 9.27164 42.3139 8.49683 43.2696 8.49683Z" fill="black"/>
<path d="M3.84545 12.5879H3.46091C3.46091 12.5879 3.222 12.5879 2.91682 12.5879C2.87018 12.5879 2.82191 12.5879 2.77282 12.5879C2.38418 12.5879 1.93664 12.5879 1.73045 12.5879C0.774 12.5879 0 13.3627 0 14.3183C0 15.274 0.774 16.0488 1.73045 16.0488C1.98818 16.0488 2.40954 16.0488 2.77282 16.0488C2.82191 16.0488 2.87018 16.0488 2.91682 16.0488C3.22527 16.0488 3.46091 16.0488 3.46091 16.0488H3.84545H4.09091V12.5879H3.84545Z" fill="black"/>
<path d="M6.45137 12.5879C6.10037 12.5879 5.44337 12.5879 5.04818 12.5879C4.85264 12.5879 4.72091 12.5879 4.72091 12.5879H4.57773H4.33637H4.09091V16.0488H4.33637H4.57773H4.72091C4.72091 16.0488 4.85346 16.0488 5.04818 16.0488C5.46791 16.0488 6.17564 16.0488 6.45137 16.0488C7.407 16.0488 8.18182 15.274 8.18182 14.3183C8.18182 13.3627 7.407 12.5879 6.45137 12.5879Z" fill="black"/>
<path d="M30.6818 12.5879C31.6374 12.5879 32.4123 13.3627 32.4123 14.3183C32.4123 15.274 31.6374 16.0488 30.6818 16.0488C29.7262 16.0488 28.9514 15.274 28.9514 14.3183C28.9514 13.3627 29.7262 12.5879 30.6818 12.5879Z" fill="black"/>
<path d="M38.8636 12.5879C39.8193 12.5879 40.5941 13.3627 40.5941 14.3183C40.5941 15.274 39.8193 16.0488 38.8636 16.0488C37.908 16.0488 37.1332 15.274 37.1332 14.3183C37.1332 13.3627 37.908 12.5879 38.8636 12.5879Z" fill="black"/>
<path d="M12.0273 16.6787H11.6427C11.6427 16.6787 11.4038 16.6787 11.0986 16.6787C11.052 16.6787 11.0037 16.6787 10.9546 16.6787C10.566 16.6787 10.1184 16.6787 9.91226 16.6787C8.95581 16.6787 8.18181 17.4535 8.18181 18.4092C8.18181 19.3648 8.95581 20.1396 9.91226 20.1396C10.17 20.1396 10.5914 20.1396 10.9546 20.1396C11.0037 20.1396 11.052 20.1396 11.0986 20.1396C11.4071 20.1396 11.6427 20.1396 11.6427 20.1396H12.0273H12.2727V16.6787H12.0273Z" fill="black"/>
<path d="M14.6332 16.6787C14.2822 16.6787 13.6252 16.6787 13.23 16.6787C13.0344 16.6787 12.9027 16.6787 12.9027 16.6787H12.7595H12.5182H12.2727V20.1396H12.5182H12.7595H12.9027C12.9027 20.1396 13.0353 20.1396 13.23 20.1396C13.6497 20.1396 14.3574 20.1396 14.6332 20.1396C15.5888 20.1396 16.3636 19.3648 16.3636 18.4092C16.3636 17.4535 15.5888 16.6787 14.6332 16.6787Z" fill="black"/>
<path d="M24.3 16.6787H23.9155C23.9155 16.6787 23.6765 16.6787 23.3714 16.6787C23.3247 16.6787 23.2765 16.6787 23.2274 16.6787C22.8387 16.6787 22.3912 16.6787 22.185 16.6787C21.2285 16.6787 20.4545 17.4535 20.4545 18.4092C20.4545 19.3648 21.2285 20.1396 22.185 20.1396C22.4427 20.1396 22.8641 20.1396 23.2274 20.1396C23.2765 20.1396 23.3247 20.1396 23.3714 20.1396C23.6798 20.1396 23.9155 20.1396 23.9155 20.1396H24.3H24.5455V16.6787H24.3Z" fill="black"/>
<path d="M26.9059 16.6787C26.5549 16.6787 25.8979 16.6787 25.5027 16.6787C25.3072 16.6787 25.1755 16.6787 25.1755 16.6787H25.0323H24.7909H24.5455V20.1396H24.7909H25.0323H25.1755C25.1755 20.1396 25.308 20.1396 25.5027 20.1396C25.9225 20.1396 26.6302 20.1396 26.9059 20.1396C27.8615 20.1396 28.6364 19.3648 28.6364 18.4092C28.6364 17.4535 27.8615 16.6787 26.9059 16.6787Z" fill="black"/>
<path d="M34.7727 16.6787C35.7284 16.6787 36.5032 17.4535 36.5032 18.4092C36.5032 19.3648 35.7284 20.1396 34.7727 20.1396C33.8171 20.1396 33.0423 19.3648 33.0423 18.4092C33.0423 17.4535 33.8171 16.6787 34.7727 16.6787Z" fill="black"/>
<path d="M10.2273 20.7695C11.1829 20.7695 11.9577 21.5443 11.9577 22.5C11.9577 23.4556 11.1829 24.2304 10.2273 24.2304C9.27163 24.2304 8.49681 23.4556 8.49681 22.5C8.49681 21.5443 9.27163 20.7695 10.2273 20.7695Z" fill="black"/>
<path d="M22.5 20.7695C23.4556 20.7695 24.2304 21.5443 24.2304 22.5C24.2304 23.4556 23.4556 24.2304 22.5 24.2304C21.5444 24.2304 20.7695 23.4556 20.7695 22.5C20.7695 21.5443 21.5444 20.7695 22.5 20.7695Z" fill="black"/>
<path d="M32.4818 20.7695H32.0973C32.0973 20.7695 31.8584 20.7695 31.5532 20.7695C31.5065 20.7695 31.4583 20.7695 31.4092 20.7695C31.0205 20.7695 30.573 20.7695 30.3668 20.7695C29.4104 20.7695 28.6364 21.5443 28.6364 22.5C28.6364 23.4556 29.4104 24.2304 30.3668 24.2304C30.6245 24.2304 31.0459 24.2304 31.4092 24.2304C31.4583 24.2304 31.5065 24.2304 31.5532 24.2304C31.8616 24.2304 32.0973 24.2304 32.0973 24.2304H32.4818H32.7273V20.7695H32.4818Z" fill="black"/>
<path d="M35.0877 20.7695C34.7367 20.7695 34.0797 20.7695 33.6845 20.7695C33.489 20.7695 33.3573 20.7695 33.3573 20.7695H33.2141H32.9727H32.7273V24.2304H32.9727H33.2141H33.3573C33.3573 24.2304 33.4898 24.2304 33.6845 24.2304C34.1043 24.2304 34.812 24.2304 35.0877 24.2304C36.0434 24.2304 36.8182 23.4556 36.8182 22.5C36.8182 21.5443 36.0434 20.7695 35.0877 20.7695Z" fill="black"/>
<path d="M3.84545 24.8606H3.46091C3.46091 24.8606 3.222 24.8606 2.91682 24.8606C2.87018 24.8606 2.82191 24.8606 2.77282 24.8606C2.38418 24.8606 1.93664 24.8606 1.73045 24.8606C0.774 24.8606 0 25.6354 0 26.5911C0 27.5467 0.774 28.3215 1.73045 28.3215C1.98818 28.3215 2.40954 28.3215 2.77282 28.3215C2.82191 28.3215 2.87018 28.3215 2.91682 28.3215C3.22527 28.3215 3.46091 28.3215 3.46091 28.3215H3.84545H4.09091V24.8606H3.84545Z" fill="black"/>
<path d="M6.45137 24.8606C6.10037 24.8606 5.44337 24.8606 5.04818 24.8606C4.85264 24.8606 4.72091 24.8606 4.72091 24.8606H4.57773H4.33637H4.09091V28.3215H4.33637H4.57773H4.72091C4.72091 28.3215 4.85346 28.3215 5.04818 28.3215C5.46791 28.3215 6.17564 28.3215 6.45137 28.3215C7.407 28.3215 8.18182 27.5467 8.18182 26.5911C8.18182 25.6354 7.407 24.8606 6.45137 24.8606Z" fill="black"/>
<path d="M14.3182 24.8606C15.2738 24.8606 16.0486 25.6354 16.0486 26.5911C16.0486 27.5467 15.2738 28.3215 14.3182 28.3215C13.3625 28.3215 12.5877 27.5467 12.5877 26.5911C12.5877 25.6354 13.3625 24.8606 14.3182 24.8606Z" fill="black"/>
<path d="M28.3909 24.8606H28.0064C28.0064 24.8606 27.7675 24.8606 27.4623 24.8606C27.4156 24.8606 27.3674 24.8606 27.3183 24.8606C26.9296 24.8606 26.4821 24.8606 26.2759 24.8606C25.3195 24.8606 24.5455 25.6354 24.5455 26.5911C24.5455 27.5467 25.3195 28.3215 26.2759 28.3215C26.5336 28.3215 26.955 28.3215 27.3183 28.3215C27.3674 28.3215 27.4156 28.3215 27.4623 28.3215C27.7707 28.3215 28.0064 28.3215 28.0064 28.3215H28.3909H28.6364V24.8606H28.3909Z" fill="black"/>
<path d="M30.9968 24.8606C30.6458 24.8606 29.9888 24.8606 29.5936 24.8606C29.3981 24.8606 29.2664 24.8606 29.2664 24.8606H29.1232H28.8818H28.6364V28.3215H28.8818H29.1232H29.2664C29.2664 28.3215 29.3989 28.3215 29.5936 28.3215C30.0134 28.3215 30.7211 28.3215 30.9968 28.3215C31.9525 28.3215 32.7273 27.5467 32.7273 26.5911C32.7273 25.6354 31.9525 24.8606 30.9968 24.8606Z" fill="black"/>
<path d="M40.6636 24.8606H40.2791C40.2791 24.8606 40.0402 24.8606 39.735 24.8606C39.6884 24.8606 39.6401 24.8606 39.591 24.8606C39.2024 24.8606 38.7548 24.8606 38.5486 24.8606C37.5922 24.8606 36.8182 25.6354 36.8182 26.5911C36.8182 27.5467 37.5922 28.3215 38.5486 28.3215C38.8064 28.3215 39.2277 28.3215 39.591 28.3215C39.6401 28.3215 39.6884 28.3215 39.735 28.3215C40.0435 28.3215 40.2791 28.3215 40.2791 28.3215H40.6636H40.9091V24.8606H40.6636Z" fill="black"/>
<path d="M43.2695 24.8606C42.9185 24.8606 42.2615 24.8606 41.8664 24.8606C41.6708 24.8606 41.5391 24.8606 41.5391 24.8606H41.3959H41.1545H40.9091V28.3215H41.1545H41.3959H41.5391C41.5391 28.3215 41.6716 28.3215 41.8664 28.3215C42.2861 28.3215 42.9938 28.3215 43.2695 28.3215C44.2252 28.3215 45 27.5467 45 26.5911C45 25.6354 44.2252 24.8606 43.2695 24.8606Z" fill="black"/>
<path d="M2.04546 28.9514C3.00109 28.9514 3.77591 29.7262 3.77591 30.6819C3.77591 31.6375 3.00109 32.4123 2.04546 32.4123C1.08982 32.4123 0.315002 31.6375 0.315002 30.6819C0.315002 29.7262 1.08982 28.9514 2.04546 28.9514Z" fill="black"/>
<path d="M10.2273 28.9514C11.1829 28.9514 11.9577 29.7262 11.9577 30.6819C11.9577 31.6375 11.1829 32.4123 10.2273 32.4123C9.27163 32.4123 8.49681 31.6375 8.49681 30.6819C8.49681 29.7262 9.27163 28.9514 10.2273 28.9514Z" fill="black"/>
<path d="M18.4091 28.9514C19.3647 28.9514 20.1395 29.7262 20.1395 30.6819C20.1395 31.6375 19.3647 32.4123 18.4091 32.4123C17.4535 32.4123 16.6786 31.6375 16.6786 30.6819C16.6786 29.7262 17.4535 28.9514 18.4091 28.9514Z" fill="black"/>
<path d="M26.5909 28.9514C27.5465 28.9514 28.3214 29.7262 28.3214 30.6819C28.3214 31.6375 27.5465 32.4123 26.5909 32.4123C25.6353 32.4123 24.8605 31.6375 24.8605 30.6819C24.8605 29.7262 25.6353 28.9514 26.5909 28.9514Z" fill="black"/>
<path d="M38.8636 28.9514C39.8193 28.9514 40.5941 29.7262 40.5941 30.6819C40.5941 31.6375 39.8193 32.4123 38.8636 32.4123C37.908 32.4123 37.1332 31.6375 37.1332 30.6819C37.1332 29.7262 37.908 28.9514 38.8636 28.9514Z" fill="black"/>
<path d="M3.84545 33.0422H3.46091C3.46091 33.0422 3.222 33.0422 2.91682 33.0422C2.87018 33.0422 2.82191 33.0422 2.77282 33.0422C2.38418 33.0422 1.93664 33.0422 1.73045 33.0422C0.774 33.0422 0 33.8171 0 34.7727C0 35.7283 0.774 36.5032 1.73045 36.5032C1.98818 36.5032 2.40954 36.5032 2.77282 36.5032C2.82191 36.5032 2.87018 36.5032 2.91682 36.5032C3.22527 36.5032 3.46091 36.5032 3.46091 36.5032H3.84545H4.09091V33.0422H3.84545Z" fill="black"/>
<path d="M6.13637 33.0422H4.09091V36.5032H6.13637H8.18182V33.0422H6.13637Z" fill="black"/>
<path d="M10.5423 33.0422C10.1913 33.0422 9.53426 33.0422 9.13908 33.0422C8.94354 33.0422 8.81181 33.0422 8.81181 33.0422H8.66863H8.42726H8.18181V36.5032H8.42726H8.66863H8.81181C8.81181 36.5032 8.94435 36.5032 9.13908 36.5032C9.55881 36.5032 10.2665 36.5032 10.5423 36.5032C11.4979 36.5032 12.2727 35.7283 12.2727 34.7727C12.2727 33.8171 11.4979 33.0422 10.5423 33.0422Z" fill="black"/>
<path d="M18.4091 33.0422C19.3647 33.0422 20.1395 33.8171 20.1395 34.7727C20.1395 35.7283 19.3647 36.5032 18.4091 36.5032C17.4535 36.5032 16.6786 35.7283 16.6786 34.7727C16.6786 33.8171 17.4535 33.0422 18.4091 33.0422Z" fill="black"/>
<path d="M26.5909 33.0422C27.5465 33.0422 28.3214 33.8171 28.3214 34.7727C28.3214 35.7283 27.5465 36.5032 26.5909 36.5032C25.6353 36.5032 24.8605 35.7283 24.8605 34.7727C24.8605 33.8171 25.6353 33.0422 26.5909 33.0422Z" fill="black"/>
<path d="M34.7727 33.0422C35.7284 33.0422 36.5032 33.8171 36.5032 34.7727C36.5032 35.7283 35.7284 36.5032 34.7727 36.5032C33.8171 36.5032 33.0423 35.7283 33.0423 34.7727C33.0423 33.8171 33.8171 33.0422 34.7727 33.0422Z" fill="black"/>
<path d="M7.93637 37.1333H7.55182C7.55182 37.1333 7.31291 37.1333 7.00773 37.1333C6.96109 37.1333 6.91282 37.1333 6.86373 37.1333C6.47509 37.1333 6.02755 37.1333 5.82137 37.1333C4.86491 37.1333 4.09091 37.9081 4.09091 38.8637C4.09091 39.8194 4.86491 40.5942 5.82137 40.5942C6.07909 40.5942 6.50046 40.5942 6.86373 40.5942C6.91282 40.5942 6.96109 40.5942 7.00773 40.5942C7.31618 40.5942 7.55182 40.5942 7.55182 40.5942H7.93637H8.18182V37.1333H7.93637Z" fill="black"/>
<path d="M10.2273 37.1333H8.18181V40.5942H10.2273H12.2727V37.1333H10.2273Z" fill="black"/>
<path d="M14.3182 37.1333H12.2727V40.5942H14.3182H16.3636V37.1333H14.3182Z" fill="black"/>
<path d="M18.7241 37.1333C18.3731 37.1333 17.7161 37.1333 17.3209 37.1333C17.1254 37.1333 16.9936 37.1333 16.9936 37.1333H16.8505H16.6091H16.3636V40.5942H16.6091H16.8505H16.9936C16.9936 40.5942 17.1262 40.5942 17.3209 40.5942C17.7406 40.5942 18.4484 40.5942 18.7241 40.5942C19.6797 40.5942 20.4545 39.8194 20.4545 38.8637C20.4545 37.9081 19.6797 37.1333 18.7241 37.1333Z" fill="black"/>
<path d="M36.5727 37.1333H36.1882C36.1882 37.1333 35.9493 37.1333 35.6441 37.1333C35.5974 37.1333 35.5492 37.1333 35.5001 37.1333C35.1114 37.1333 34.6639 37.1333 34.4577 37.1333C33.5013 37.1333 32.7273 37.9081 32.7273 38.8637C32.7273 39.8194 33.5013 40.5942 34.4577 40.5942C34.7154 40.5942 35.1368 40.5942 35.5001 40.5942C35.5492 40.5942 35.5974 40.5942 35.6441 40.5942C35.9525 40.5942 36.1882 40.5942 36.1882 40.5942H36.5727H36.8182V37.1333H36.5727Z" fill="black"/>
<path d="M39.1786 37.1333C38.8276 37.1333 38.1706 37.1333 37.7754 37.1333C37.5799 37.1333 37.4482 37.1333 37.4482 37.1333H37.305H37.0636H36.8182V40.5942H37.0636H37.305H37.4482C37.4482 40.5942 37.5807 40.5942 37.7754 40.5942C38.1952 40.5942 38.9029 40.5942 39.1786 40.5942C40.1343 40.5942 40.9091 39.8194 40.9091 38.8637C40.9091 37.9081 40.1343 37.1333 39.1786 37.1333Z" fill="black"/>
<path d="M6.13635 41.2241C7.09199 41.2241 7.86681 41.9989 7.86681 42.9546C7.86681 43.9102 7.09199 44.685 6.13635 44.685C5.18072 44.685 4.4059 43.9102 4.4059 42.9546C4.4059 41.9989 5.18072 41.2241 6.13635 41.2241Z" fill="black"/>
<path d="M18.4091 41.2241C19.3647 41.2241 20.1395 41.9989 20.1395 42.9546C20.1395 43.9102 19.3647 44.685 18.4091 44.685C17.4535 44.685 16.6786 43.9102 16.6786 42.9546C16.6786 41.9989 17.4535 41.2241 18.4091 41.2241Z" fill="black"/>
<path d="M28.3909 41.2241H28.0064C28.0064 41.2241 27.7675 41.2241 27.4623 41.2241C27.4156 41.2241 27.3674 41.2241 27.3183 41.2241C26.9296 41.2241 26.4821 41.2241 26.2759 41.2241C25.3195 41.2241 24.5455 41.9989 24.5455 42.9546C24.5455 43.9102 25.3195 44.685 26.2759 44.685C26.5336 44.685 26.955 44.685 27.3183 44.685C27.3674 44.685 27.4156 44.685 27.4623 44.685C27.7707 44.685 28.0064 44.685 28.0064 44.685H28.3909H28.6364V41.2241H28.3909Z" fill="black"/>
<path d="M30.6818 41.2241H28.6364V44.685H30.6818H32.7273V41.2241H30.6818Z" fill="black"/>
<path d="M34.7727 41.2241H32.7273V44.685H34.7727H36.8182V41.2241H34.7727Z" fill="black"/>
<path d="M38.8636 41.2241H36.8182V44.685H38.8636H40.9091V41.2241H38.8636Z" fill="black"/>
<path d="M43.2695 41.2241C42.9185 41.2241 42.2615 41.2241 41.8664 41.2241C41.6708 41.2241 41.5391 41.2241 41.5391 41.2241H41.3959H41.1545H40.9091V44.685H41.1545H41.3959H41.5391C41.5391 44.685 41.6716 44.685 41.8664 44.685C42.2861 44.685 42.9938 44.685 43.2695 44.685C44.2252 44.685 45 43.9102 45 42.9546C45 41.9989 44.2252 41.2241 43.2695 41.2241Z" fill="black"/>
</g>
<defs>
<clipPath id="clip0">
<rect width="45" height="45" fill="white"/>
</clipPath>
</defs>
</svg>
