<svg width="45" height="45" viewBox="0 0 45 45" fill="none" xmlns="http://www.w3.org/2000/svg">
<g clip-path="url(#clip0)">
<path d="M98.1819 -53.1819H-53.1818V98.1818H98.1819V-53.1819Z" fill="white"/>
<path d="M8.18182 0H4.09091V4.09091H8.18182V0Z" fill="black"/>
<path d="M12.2727 0H8.18182V4.09091H12.2727V0Z" fill="black"/>
<path d="M28.6364 0H24.5455V4.09091H28.6364V0Z" fill="black"/>
<path d="M36.8182 0H32.7273V4.09091H36.8182V0Z" fill="black"/>
<path d="M16.3636 4.09082H12.2727V8.18173H16.3636V4.09082Z" fill="black"/>
<path d="M24.5455 4.09082H20.4546V8.18173H24.5455V4.09082Z" fill="black"/>
<path d="M32.7273 4.09082H28.6364V8.18173H32.7273V4.09082Z" fill="black"/>
<path d="M36.8182 4.09082H32.7273V8.18173H36.8182V4.09082Z" fill="black"/>
<path d="M40.9091 4.09082H36.8182V8.18173H40.9091V4.09082Z" fill="black"/>
<path d="M45 4.09082H40.9091V8.18173H45V4.09082Z" fill="black"/>
<path d="M4.09091 8.18164H0V12.2726H4.09091V8.18164Z" fill="black"/>
<path d="M20.4546 8.18164H16.3636V12.2726H20.4546V8.18164Z" fill="black"/>
<path d="M24.5455 8.18164H20.4546V12.2726H24.5455V8.18164Z" fill="black"/>
<path d="M28.6364 8.18164H24.5455V12.2726H28.6364V8.18164Z" fill="black"/>
<path d="M36.8182 8.18164H32.7273V12.2726H36.8182V8.18164Z" fill="black"/>
<path d="M45 8.18164H40.9091V12.2726H45V8.18164Z" fill="black"/>
<path d="M4.09091 12.2727H0V16.3636H4.09091V12.2727Z" fill="black"/>
<path d="M8.18182 12.2727H4.09091V16.3636H8.18182V12.2727Z" fill="black"/>
<path d="M32.7273 12.2727H28.6364V16.3636H32.7273V12.2727Z" fill="black"/>
<path d="M40.9091 12.2727H36.8182V16.3636H40.9091V12.2727Z" fill="black"/>
<path d="M12.2727 16.3635H8.18182V20.4544H12.2727V16.3635Z" fill="black"/>
<path d="M16.3636 16.3635H12.2727V20.4544H16.3636V16.3635Z" fill="black"/>
<path d="M24.5455 16.3635H20.4546V20.4544H24.5455V16.3635Z" fill="black"/>
<path d="M28.6364 16.3635H24.5455V20.4544H28.6364V16.3635Z" fill="black"/>
<path d="M36.8182 16.3635H32.7273V20.4544H36.8182V16.3635Z" fill="black"/>
<path d="M12.2727 20.4546H8.18182V24.5455H12.2727V20.4546Z" fill="black"/>
<path d="M24.5455 20.4546H20.4546V24.5455H24.5455V20.4546Z" fill="black"/>
<path d="M32.7273 20.4546H28.6364V24.5455H32.7273V20.4546Z" fill="black"/>
<path d="M36.8182 20.4546H32.7273V24.5455H36.8182V20.4546Z" fill="black"/>
<path d="M4.09091 24.5454H0V28.6363H4.09091V24.5454Z" fill="black"/>
<path d="M8.18182 24.5454H4.09091V28.6363H8.18182V24.5454Z" fill="black"/>
<path d="M16.3636 24.5454H12.2727V28.6363H16.3636V24.5454Z" fill="black"/>
<path d="M28.6364 24.5454H24.5455V28.6363H28.6364V24.5454Z" fill="black"/>
<path d="M32.7273 24.5454H28.6364V28.6363H32.7273V24.5454Z" fill="black"/>
<path d="M40.9091 24.5454H36.8182V28.6363H40.9091V24.5454Z" fill="black"/>
<path d="M45 24.5454H40.9091V28.6363H45V24.5454Z" fill="black"/>
<path d="M4.09091 28.6362H0V32.7271H4.09091V28.6362Z" fill="black"/>
<path d="M12.2727 28.6362H8.18182V32.7271H12.2727V28.6362Z" fill="black"/>
<path d="M20.4546 28.6362H16.3636V32.7271H20.4546V28.6362Z" fill="black"/>
<path d="M28.6364 28.6362H24.5455V32.7271H28.6364V28.6362Z" fill="black"/>
<path d="M40.9091 28.6362H36.8182V32.7271H40.9091V28.6362Z" fill="black"/>
<path d="M4.09091 32.7273H0V36.8182H4.09091V32.7273Z" fill="black"/>
<path d="M8.18182 32.7273H4.09091V36.8182H8.18182V32.7273Z" fill="black"/>
<path d="M12.2727 32.7273H8.18182V36.8182H12.2727V32.7273Z" fill="black"/>
<path d="M20.4546 32.7273H16.3636V36.8182H20.4546V32.7273Z" fill="black"/>
<path d="M28.6364 32.7273H24.5455V36.8182H28.6364V32.7273Z" fill="black"/>
<path d="M36.8182 32.7273H32.7273V36.8182H36.8182V32.7273Z" fill="black"/>
<path d="M8.18182 36.8181H4.09091V40.909H8.18182V36.8181Z" fill="black"/>
<path d="M12.2727 36.8181H8.18182V40.909H12.2727V36.8181Z" fill="black"/>
<path d="M16.3636 36.8181H12.2727V40.909H16.3636V36.8181Z" fill="black"/>
<path d="M20.4546 36.8181H16.3636V40.909H20.4546V36.8181Z" fill="black"/>
<path d="M36.8182 36.8181H32.7273V40.909H36.8182V36.8181Z" fill="black"/>
<path d="M40.9091 36.8181H36.8182V40.909H40.9091V36.8181Z" fill="black"/>
<path d="M8.18182 40.9089H4.09091V44.9998H8.18182V40.9089Z" fill="black"/>
<path d="M20.4546 40.9089H16.3636V44.9998H20.4546V40.9089Z" fill="black"/>
<path d="M28.6364 40.9089H24.5455V44.9998H28.6364V40.9089Z" fill="black"/>
<path d="M32.7273 40.9089H28.6364V44.9998H32.7273V40.9089Z" fill="black"/>
<path d="M36.8182 40.9089H32.7273V44.9998H36.8182V40.9089Z" fill="black"/>
<path d="M40.9091 40.9089H36.8182V44.9998H40.9091V40.9089Z" fill="black"/>
<path d="M45 40.9089H40.9091V44.9998H45V40.9089Z" fill="black"/>
</g>
<defs>
<clipPath id="clip0">
<rect width="45" height="45" fill="white"/>
</clipPath>
</defs>
</svg>
