<svg width="45" height="45" viewBox="0 0 45 45" fill="none" xmlns="http://www.w3.org/2000/svg">
<g clip-path="url(#clip0)">
<path d="M98.1818 -53.1818H-53.1818V98.1819H98.1818V-53.1818Z" fill="white"/>
<path d="M4.62273 0L4.09091 3.55909L7.65 4.09091L8.18182 0.531818L4.62273 0Z" fill="black"/>
<path d="M8.79544 0.20459L8.38635 3.47732L11.6591 3.88641L12.0682 0.613681L8.79544 0.20459Z" fill="black"/>
<path d="M24.5454 0.613636L28.0227 0L28.6363 3.47727L25.1591 4.09091L24.5454 0.613636Z" fill="black"/>
<path d="M32.7273 0.204545L36.6137 0L36.8182 3.88636L32.9318 4.09091L32.7273 0.204545Z" fill="black"/>
<path d="M12.2727 4.70446L15.75 4.09082L16.3636 7.56809L12.8864 8.18173L12.2727 4.70446Z" fill="black"/>
<path d="M20.4546 4.29537L24.3409 4.09082L24.5455 7.97718L20.6591 8.18173L20.4546 4.29537Z" fill="black"/>
<path d="M28.8409 5.11359L31.7045 4.29541L32.5227 7.15905L29.6591 7.97723L28.8409 5.11359Z" fill="black"/>
<path d="M33.0545 4.25464L32.8909 7.85464L36.4909 8.01828L36.6545 4.41828L33.0545 4.25464Z" fill="black"/>
<path d="M37.1454 4.25464L36.9818 7.85464L40.5818 8.01828L40.7454 4.41828L37.1454 4.25464Z" fill="black"/>
<path d="M41.2364 4.25464L41.0727 7.85464L44.6727 8.01828L44.8364 4.41828L41.2364 4.25464Z" fill="black"/>
<path d="M0 8.38643L3.88636 8.18188L4.09091 12.0682L0.204545 12.2728L0 8.38643Z" fill="black"/>
<path d="M16.5682 9.20441L19.4318 8.38623L20.25 11.2499L17.3864 12.0681L16.5682 9.20441Z" fill="black"/>
<path d="M20.7818 8.34546L20.6182 11.9455L24.2182 12.1091L24.3818 8.5091L20.7818 8.34546Z" fill="black"/>
<path d="M25.1591 8.38623L24.75 11.659L28.0227 12.0681L28.4318 8.79532L25.1591 8.38623Z" fill="black"/>
<path d="M32.7273 8.59098L36.4091 8.18188L36.8182 11.8637L33.1364 12.2728L32.7273 8.59098Z" fill="black"/>
<path d="M41.4409 8.18188L40.9091 11.741L44.4682 12.2728L45 8.7137L41.4409 8.18188Z" fill="black"/>
<path d="M0.531818 12.2727L0 15.8318L3.55909 16.3636L4.09091 12.8045L0.531818 12.2727Z" fill="black"/>
<path d="M4.70456 12.4773L4.29547 15.75L7.5682 16.1591L7.97729 12.8864L4.70456 12.4773Z" fill="black"/>
<path d="M28.6364 12.8863L32.1136 12.2727L32.7273 15.75L29.25 16.3636L28.6364 12.8863Z" fill="black"/>
<path d="M36.8182 12.8863L40.2954 12.2727L40.9091 15.75L37.4318 16.3636L36.8182 12.8863Z" fill="black"/>
<path d="M8.18182 16.8544L11.7818 16.3635L12.2727 19.9635L8.67273 20.4544L8.18182 16.8544Z" fill="black"/>
<path d="M12.8864 16.5681L12.4773 19.8408L15.75 20.2499L16.1591 16.9772L12.8864 16.5681Z" fill="black"/>
<path d="M20.4546 16.8544L24.0546 16.3635L24.5455 19.9635L20.9455 20.4544L20.4546 16.8544Z" fill="black"/>
<path d="M25.1591 16.5681L24.75 19.8408L28.0227 20.2499L28.4318 16.9772L25.1591 16.5681Z" fill="black"/>
<path d="M32.7273 16.5681L36.6137 16.3635L36.8182 20.2499L32.9318 20.4544L32.7273 16.5681Z" fill="black"/>
<path d="M8.18182 20.8637L11.8636 20.4546L12.2727 24.1364L8.59091 24.5455L8.18182 20.8637Z" fill="black"/>
<path d="M20.4546 20.8637L24.1364 20.4546L24.5455 24.1364L20.8636 24.5455L20.4546 20.8637Z" fill="black"/>
<path d="M28.6364 20.9455L32.2364 20.4546L32.7273 24.0546L29.1273 24.5455L28.6364 20.9455Z" fill="black"/>
<path d="M32.7273 21.15L36.1227 20.4546L36.8182 23.85L33.4227 24.5455L32.7273 21.15Z" fill="black"/>
<path d="M0 25.0363L3.6 24.5454L4.09091 28.1454L0.490909 28.6363L0 25.0363Z" fill="black"/>
<path d="M4.70456 24.75L4.29547 28.0227L7.5682 28.4318L7.97729 25.1591L4.70456 24.75Z" fill="black"/>
<path d="M12.2727 25.159L15.75 24.5454L16.3636 28.0227L12.8864 28.6363L12.2727 25.159Z" fill="black"/>
<path d="M24.5454 25.0363L28.1454 24.5454L28.6363 28.1454L25.0363 28.6363L24.5454 25.0363Z" fill="black"/>
<path d="M28.6364 25.2409L32.0318 24.5454L32.7273 27.9409L29.3318 28.6363L28.6364 25.2409Z" fill="black"/>
<path d="M36.8182 25.0363L40.4182 24.5454L40.9091 28.1454L37.3091 28.6363L36.8182 25.0363Z" fill="black"/>
<path d="M41.2364 24.709L41.0727 28.309L44.6727 28.4726L44.8364 24.8726L41.2364 24.709Z" fill="black"/>
<path d="M0.327272 28.8L0.163635 32.4L3.76363 32.5637L3.92727 28.9637L0.327272 28.8Z" fill="black"/>
<path d="M8.18182 28.841L12.0682 28.6365L12.2727 32.5228L8.38637 32.7274L8.18182 28.841Z" fill="black"/>
<path d="M16.3636 28.841L20.25 28.6365L20.4546 32.5228L16.5682 32.7274L16.3636 28.841Z" fill="black"/>
<path d="M24.8727 28.8L24.7091 32.4L28.3091 32.5637L28.4727 28.9637L24.8727 28.8Z" fill="black"/>
<path d="M36.8182 29.0456L40.5 28.6365L40.9091 32.3183L37.2273 32.7274L36.8182 29.0456Z" fill="black"/>
<path d="M0.531818 32.7273L0 36.2864L3.55909 36.8182L4.09091 33.2591L0.531818 32.7273Z" fill="black"/>
<path d="M4.41818 32.8909L4.25455 36.4909L7.85455 36.6545L8.01818 33.0545L4.41818 32.8909Z" fill="black"/>
<path d="M8.5091 32.8909L8.34546 36.4909L11.9455 36.6545L12.1091 33.0545L8.5091 32.8909Z" fill="black"/>
<path d="M16.6909 32.8909L16.5273 36.4909L20.1273 36.6545L20.2909 33.0545L16.6909 32.8909Z" fill="black"/>
<path d="M24.5454 33.1364L28.2273 32.7273L28.6363 36.4091L24.9545 36.8182L24.5454 33.1364Z" fill="black"/>
<path d="M32.7273 32.9318L36.6137 32.7273L36.8182 36.6137L32.9318 36.8182L32.7273 32.9318Z" fill="black"/>
<path d="M4.41818 36.9817L4.25455 40.5817L7.85455 40.7453L8.01818 37.1453L4.41818 36.9817Z" fill="black"/>
<path d="M8.5091 36.9817L8.34546 40.5817L11.9455 40.7453L12.1091 37.1453L8.5091 36.9817Z" fill="black"/>
<path d="M12.6 36.9817L12.4364 40.5817L16.0364 40.7453L16.2 37.1453L12.6 36.9817Z" fill="black"/>
<path d="M16.6909 36.9817L16.5273 40.5817L20.1273 40.7453L20.2909 37.1453L16.6909 36.9817Z" fill="black"/>
<path d="M33.0545 36.9817L32.8909 40.5817L36.4909 40.7453L36.6545 37.1453L33.0545 36.9817Z" fill="black"/>
<path d="M37.7182 36.8181L36.8182 40.009L40.0091 40.909L40.9091 37.7181L37.7182 36.8181Z" fill="black"/>
<path d="M4.41818 41.0728L4.25455 44.6727L7.85455 44.8364L8.01818 41.2364L4.41818 41.0728Z" fill="black"/>
<path d="M16.6909 41.0728L16.5273 44.6727L20.1273 44.8364L20.2909 41.2364L16.6909 41.0728Z" fill="black"/>
<path d="M24.5454 41.4001L28.1454 40.9092L28.6363 44.5092L25.0363 45.0001L24.5454 41.4001Z" fill="black"/>
<path d="M28.9636 41.0728L28.8 44.6727L32.4 44.8364L32.5636 41.2364L28.9636 41.0728Z" fill="black"/>
<path d="M33.0545 41.0728L32.8909 44.6727L36.4909 44.8364L36.6545 41.2364L33.0545 41.0728Z" fill="black"/>
<path d="M37.1454 41.0728L36.9818 44.6727L40.5818 44.8364L40.7454 41.2364L37.1454 41.0728Z" fill="black"/>
<path d="M41.2364 41.0728L41.0727 44.6727L44.6727 44.8364L44.8364 41.2364L41.2364 41.0728Z" fill="black"/>
</g>
<defs>
<clipPath id="clip0">
<rect width="45" height="45" fill="white"/>
</clipPath>
</defs>
</svg>
