<svg width="45" height="45" viewBox="0 0 45 45" fill="none" xmlns="http://www.w3.org/2000/svg">
<g clip-path="url(#clip0)">
<path d="M98.1818 -53.1819H-53.1818V98.1818H98.1818V-53.1819Z" fill="white"/>
<path d="M8.18182 0H4.09091V2.68364C4.09091 3.07227 4.23 3.40364 4.50409 3.67773C4.77818 3.95182 5.10955 4.09091 5.49818 4.09091H8.18182V0Z" fill="black"/>
<path d="M10.6118 0H8.18182V4.09091H10.6118L12.2727 2.04545L10.6118 0Z" fill="black"/>
<path d="M28.6364 2.68357C28.6364 3.07221 28.4973 3.40358 28.2232 3.67767C27.9491 3.95176 27.6177 4.09085 27.2291 4.09085H25.9486C25.56 4.09085 25.2286 3.95176 24.9545 3.67767C24.6805 3.40358 24.5414 3.07221 24.5414 2.68357V1.40312C24.5414 1.01449 24.6805 0.683121 24.9545 0.40903C25.2286 0.13494 25.56 -0.00415039 25.9486 -0.00415039H27.2291C27.6177 -0.00415039 27.9491 0.13494 28.2232 0.40903C28.4973 0.683121 28.6364 1.01449 28.6364 1.40312V2.68357Z" fill="black"/>
<path d="M36.8182 1.66091V4.09091H32.7273V1.66091L34.7727 0L36.8182 1.66091Z" fill="black"/>
<path d="M16.3636 6.77439C16.3636 7.16303 16.2245 7.49439 15.9505 7.76848C15.6764 8.04258 15.345 8.18167 14.9564 8.18167H13.6759C13.2873 8.18167 12.9559 8.04258 12.6818 7.76848C12.4077 7.49439 12.2686 7.16303 12.2686 6.77439V5.49394C12.2686 5.10531 12.4077 4.77394 12.6818 4.49985C12.9559 4.22576 13.2873 4.08667 13.6759 4.08667H14.9564C15.345 4.08667 15.6764 4.22576 15.9505 4.49985C16.2245 4.77394 16.3636 5.10531 16.3636 5.49394V6.77439Z" fill="black"/>
<path d="M24.5455 5.75173V8.18173H20.4545V5.75173L22.5 4.09082L24.5455 5.75173Z" fill="black"/>
<path d="M30.2973 4.09082H32.7273V8.18173H30.2973L28.6364 6.13627L30.2973 4.09082Z" fill="black"/>
<path d="M36.8182 4.09082H32.7273V8.18173H36.8182V4.09082Z" fill="black"/>
<path d="M40.9091 4.09082H36.8182V8.18173H40.9091V4.09082Z" fill="black"/>
<path d="M45 4.09082H40.9091V8.18173H45V4.09082Z" fill="black"/>
<path d="M4.09091 9.84255V12.2726H0V9.84255L2.04545 8.18164L4.09091 9.84255Z" fill="black"/>
<path d="M18.0245 8.18164H20.4545V12.2726H18.0245L16.3636 10.2271L18.0245 8.18164Z" fill="black"/>
<path d="M24.5455 8.18164H20.4545V12.2726H24.5455V8.18164Z" fill="black"/>
<path d="M26.9755 8.18164H24.5455V12.2726H26.9755L28.6364 10.2271L26.9755 8.18164Z" fill="black"/>
<path d="M36.8182 10.6116V8.18164H32.7273V10.6116L34.7727 12.2726L36.8182 10.6116Z" fill="black"/>
<path d="M45 8.18164H40.9091V10.8653C40.9091 11.2539 41.0482 11.5853 41.3223 11.8594C41.5964 12.1335 41.9277 12.2726 42.3164 12.2726H45V8.18164Z" fill="black"/>
<path d="M4.09091 12.2727H0V14.9563C0 15.345 0.13909 15.6763 0.413181 15.9504C0.687272 16.2245 1.01864 16.3636 1.40727 16.3636H4.09091V12.2727Z" fill="black"/>
<path d="M6.52091 12.2727H4.09091V16.3636H6.52091L8.18182 14.3182L6.52091 12.2727Z" fill="black"/>
<path d="M32.7273 14.9563C32.7273 15.3449 32.5882 15.6763 32.3141 15.9504C32.04 16.2245 31.7086 16.3636 31.32 16.3636H30.0396C29.6509 16.3636 29.3195 16.2245 29.0455 15.9504C28.7714 15.6763 28.6323 15.3449 28.6323 14.9563V13.6758C28.6323 13.2872 28.7714 12.9558 29.0455 12.6817C29.3195 12.4076 29.6509 12.2686 30.0396 12.2686H31.32C31.7086 12.2686 32.04 12.4076 32.3141 12.6817C32.5882 12.9558 32.7273 13.2872 32.7273 13.6758V14.9563Z" fill="black"/>
<path d="M40.9091 14.9563C40.9091 15.3449 40.77 15.6763 40.4959 15.9504C40.2218 16.2245 39.8905 16.3636 39.5018 16.3636H38.2214C37.8327 16.3636 37.5014 16.2245 37.2273 15.9504C36.9532 15.6763 36.8141 15.3449 36.8141 14.9563V13.6758C36.8141 13.2872 36.9532 12.9558 37.2273 12.6817C37.5014 12.4076 37.8327 12.2686 38.2214 12.2686H39.5018C39.8905 12.2686 40.2218 12.4076 40.4959 12.6817C40.77 12.9558 40.9091 13.2872 40.9091 13.6758V14.9563Z" fill="black"/>
<path d="M12.2727 17.7708V16.3635H9.58909C9.20046 16.3635 8.86909 16.5026 8.595 16.7767C8.32091 17.0508 8.18182 17.3822 8.18182 17.7708V20.4544H12.2727V17.7708Z" fill="black"/>
<path d="M14.7027 16.3635H12.2727V20.4544H14.7027L16.3636 18.409L14.7027 16.3635Z" fill="black"/>
<path d="M24.5455 17.7708V16.3635H21.8618C21.4732 16.3635 21.1418 16.5026 20.8677 16.7767C20.5936 17.0508 20.4545 17.3822 20.4545 17.7708V20.4544H24.5455V17.7708Z" fill="black"/>
<path d="M26.9755 16.3635H24.5455V20.4544H26.9755L28.6364 18.409L26.9755 16.3635Z" fill="black"/>
<path d="M36.8182 18.0244V20.4544H32.7273V18.0244L34.7727 16.3635L36.8182 18.0244Z" fill="black"/>
<path d="M12.2727 22.8846V20.4546H8.18182V22.8846L10.2273 24.5455L12.2727 22.8846Z" fill="black"/>
<path d="M24.5455 22.8846V20.4546H20.4545V22.8846L22.5 24.5455L24.5455 22.8846Z" fill="black"/>
<path d="M32.7273 21.8619V20.4546H30.0436C29.655 20.4546 29.3236 20.5937 29.0495 20.8678C28.7755 21.1419 28.6364 21.4732 28.6364 21.8619V24.5455H32.7273V21.8619Z" fill="black"/>
<path d="M36.8182 20.4546H32.7273V24.5455H35.4109C35.7995 24.5455 36.1309 24.4064 36.405 24.1323C36.6791 23.8582 36.8182 23.5269 36.8182 23.1382V20.4546Z" fill="black"/>
<path d="M4.09091 25.9527V24.5454H1.40727C1.01864 24.5454 0.687272 24.6845 0.413181 24.9586C0.13909 25.2327 0 25.564 0 25.9527V28.6363H4.09091V25.9527Z" fill="black"/>
<path d="M6.52091 24.5454H4.09091V28.6363H6.52091L8.18182 26.5909L6.52091 24.5454Z" fill="black"/>
<path d="M16.3636 27.229C16.3636 27.6176 16.2245 27.949 15.9505 28.2231C15.6764 28.4972 15.345 28.6363 14.9564 28.6363H13.6759C13.2873 28.6363 12.9559 28.4972 12.6818 28.2231C12.4077 27.949 12.2686 27.6176 12.2686 27.229V25.9485C12.2686 25.5599 12.4077 25.2285 12.6818 24.9544C12.9559 24.6803 13.2873 24.5413 13.6759 24.5413H14.9564C15.345 24.5413 15.6764 24.6803 15.9505 24.9544C16.2245 25.2285 16.3636 25.5599 16.3636 25.9485V27.229Z" fill="black"/>
<path d="M28.6364 25.9527V24.5454H25.9527C25.5641 24.5454 25.2327 24.6845 24.9586 24.9586C24.6845 25.2327 24.5455 25.564 24.5455 25.9527V28.6363H28.6364V25.9527Z" fill="black"/>
<path d="M32.7273 24.5454H28.6364V28.6363H31.32C31.7086 28.6363 32.04 28.4972 32.3141 28.2231C32.5882 27.949 32.7273 27.6177 32.7273 27.229V24.5454Z" fill="black"/>
<path d="M40.9091 25.9527V24.5454H38.2255C37.8368 24.5454 37.5055 24.6845 37.2314 24.9586C36.9573 25.2327 36.8182 25.564 36.8182 25.9527V28.6363H40.9091V25.9527Z" fill="black"/>
<path d="M45 24.5454H40.9091V28.6363H45V24.5454Z" fill="black"/>
<path d="M4.09091 28.6362H0V32.7271H4.09091V28.6362Z" fill="black"/>
<path d="M12.2727 30.2971V32.7271H8.18182V30.2971L10.2273 28.6362L12.2727 30.2971Z" fill="black"/>
<path d="M20.4545 30.2971V32.7271H16.3636V30.2971L18.4091 28.6362L20.4545 30.2971Z" fill="black"/>
<path d="M28.6364 28.6362H24.5455V32.7271H28.6364V28.6362Z" fill="black"/>
<path d="M40.9091 31.0662V28.6362H36.8182V31.0662L38.8636 32.7271L40.9091 31.0662Z" fill="black"/>
<path d="M4.09091 32.7273H0V35.4109C0 35.7996 0.13909 36.1309 0.413181 36.405C0.687272 36.6791 1.01864 36.8182 1.40727 36.8182H4.09091V32.7273Z" fill="black"/>
<path d="M8.18182 32.7273H4.09091V36.8182H8.18182V32.7273Z" fill="black"/>
<path d="M12.2727 32.7273H8.18182V36.8182H12.2727V32.7273Z" fill="black"/>
<path d="M20.4545 32.7273H16.3636V36.8182H20.4545V32.7273Z" fill="black"/>
<path d="M28.6364 35.1573V32.7273H24.5455V35.1573L26.5909 36.8182L28.6364 35.1573Z" fill="black"/>
<path d="M36.8182 34.3882V36.8182H32.7273V34.3882L34.7727 32.7273L36.8182 34.3882Z" fill="black"/>
<path d="M8.18182 36.8181H4.09091V40.909H8.18182V36.8181Z" fill="black"/>
<path d="M12.2727 36.8181H8.18182V40.909H12.2727V36.8181Z" fill="black"/>
<path d="M16.3636 36.8181H12.2727V40.909H16.3636V36.8181Z" fill="black"/>
<path d="M20.4545 36.8181H16.3636V40.909H20.4545V36.8181Z" fill="black"/>
<path d="M36.8182 36.8181H32.7273V40.909H36.8182V36.8181Z" fill="black"/>
<path d="M40.9091 38.2254C40.9091 37.8368 40.77 37.5054 40.4959 37.2313C40.2218 36.9572 39.8905 36.8181 39.5018 36.8181H36.8182V40.909H40.9091V38.2254Z" fill="black"/>
<path d="M8.18182 40.9089H4.09091V44.9998H8.18182V40.9089Z" fill="black"/>
<path d="M20.4545 40.9089H16.3636V44.9998H20.4545V40.9089Z" fill="black"/>
<path d="M28.6364 42.3162V40.9089H25.9527C25.5641 40.9089 25.2327 41.048 24.9586 41.3221C24.6845 41.5962 24.5455 41.9276 24.5455 42.3162V44.9998H28.6364V42.3162Z" fill="black"/>
<path d="M32.7273 40.9089H28.6364V44.9998H32.7273V40.9089Z" fill="black"/>
<path d="M36.8182 40.9089H32.7273V44.9998H36.8182V40.9089Z" fill="black"/>
<path d="M40.9091 40.9089H36.8182V44.9998H40.9091V40.9089Z" fill="black"/>
<path d="M45 40.9089H40.9091V44.9998H45V40.9089Z" fill="black"/>
</g>
<defs>
<clipPath id="clip0">
<rect width="45" height="45" fill="white"/>
</clipPath>
</defs>
</svg>
