<svg width="45" height="45" viewBox="0 0 45 45" fill="none" xmlns="http://www.w3.org/2000/svg">
<g clip-path="url(#clip0)">
<path d="M98.1818 -53.1819H-53.1818V98.1818H98.1818V-53.1819Z" fill="white"/>
<path d="M8.18182 0H4.09091V2.68364C4.09091 3.07227 4.23 3.40364 4.50409 3.67773C4.77818 3.95182 5.10955 4.09091 5.49819 4.09091H8.18182V0Z" fill="black"/>
<path d="M10.8655 0H8.18182V4.09091H10.8655C11.2541 4.09091 11.5855 3.95182 11.8595 3.67773C12.1336 3.40364 12.2727 3.07227 12.2727 2.68364V1.40318C12.2727 1.01455 12.1336 0.683182 11.8595 0.409091C11.5855 0.139091 11.2541 0 10.8655 0Z" fill="black"/>
<path d="M28.6364 2.68357C28.6364 3.07221 28.4973 3.40358 28.2232 3.67767C27.9491 3.95176 27.6177 4.09085 27.2291 4.09085H25.9486C25.56 4.09085 25.2286 3.95176 24.9545 3.67767C24.6805 3.40358 24.5414 3.07221 24.5414 2.68357V1.40312C24.5414 1.01449 24.6805 0.683121 24.9545 0.40903C25.2286 0.13494 25.56 -0.00415039 25.9486 -0.00415039H27.2291C27.6177 -0.00415039 27.9491 0.13494 28.2232 0.40903C28.4973 0.683121 28.6364 1.01449 28.6364 1.40312V2.68357Z" fill="black"/>
<path d="M36.8182 1.40727C36.8182 1.01864 36.6791 0.687272 36.405 0.413181C36.1309 0.13909 35.7995 0 35.4109 0H34.1305C33.7418 0 33.4105 0.13909 33.1364 0.413181C32.8623 0.687272 32.7232 1.01864 32.7232 1.40727V2.68773C32.7232 2.70818 32.7273 2.74091 32.7314 2.78182H32.7232V4.09091H36.8141V2.78182H36.8059C36.81 2.74091 36.8141 2.70818 36.8141 2.68773V1.40727H36.8182Z" fill="black"/>
<path d="M16.3636 6.77439C16.3636 7.16303 16.2245 7.49439 15.9505 7.76848C15.6764 8.04258 15.345 8.18167 14.9564 8.18167H13.6759C13.2873 8.18167 12.9559 8.04258 12.6818 7.76848C12.4077 7.49439 12.2686 7.16303 12.2686 6.77439V5.49394C12.2686 5.10531 12.4077 4.77394 12.6818 4.49985C12.9559 4.22576 13.2873 4.08667 13.6759 4.08667H14.9564C15.345 4.08667 15.6764 4.22576 15.9505 4.49985C16.2245 4.77394 16.3636 5.10531 16.3636 5.49394V6.77439Z" fill="black"/>
<path d="M24.5455 5.49809C24.5455 5.10946 24.4064 4.77809 24.1323 4.504C23.8582 4.22991 23.5268 4.09082 23.1382 4.09082H21.8577C21.4691 4.09082 21.1377 4.22991 20.8636 4.504C20.5895 4.77809 20.4505 5.10946 20.4505 5.49809V6.77855C20.4505 6.799 20.4545 6.83173 20.4586 6.87264H20.4505V8.18173H24.5414V6.87264H24.5332C24.5373 6.83173 24.5414 6.799 24.5414 6.77855V5.49809H24.5455Z" fill="black"/>
<path d="M32.7273 5.4981V4.09082H30.0436C29.655 4.09082 29.3236 4.22991 29.0495 4.504C28.7755 4.77809 28.6364 5.10946 28.6364 5.4981V6.77855C28.6364 7.16719 28.7755 7.49855 29.0495 7.77264C29.3236 8.04673 29.655 8.18582 30.0436 8.18582H32.7273V5.4981Z" fill="black"/>
<path d="M36.8182 4.09082H32.7273V8.18173H36.8182V4.09082Z" fill="black"/>
<path d="M40.9091 4.09082H36.8182V8.18173H40.9091V4.09082Z" fill="black"/>
<path d="M45 4.09082H40.9091V8.18173H45V4.09082Z" fill="black"/>
<path d="M4.09091 9.58891C4.09091 9.20028 3.95182 8.86891 3.67773 8.59482C3.40364 8.32073 3.07227 8.18164 2.68364 8.18164H1.40318C1.01455 8.18164 0.683182 8.32073 0.409091 8.59482C0.135001 8.86891 -0.00408936 9.20028 -0.00408936 9.58891V10.8694C-0.00408936 10.8898 -4.43775e-07 10.9226 0.00409047 10.9635H-0.00408936V12.2726H4.08682V10.9635H4.07864C4.08273 10.9226 4.08682 10.8898 4.08682 10.8694V9.58891H4.09091Z" fill="black"/>
<path d="M20.4545 9.58891V8.18164H17.7709C17.3823 8.18164 17.0509 8.32073 16.7768 8.59482C16.5027 8.86891 16.3636 9.20028 16.3636 9.58891V10.8694C16.3636 11.258 16.5027 11.5894 16.7768 11.8635C17.0509 12.1375 17.3823 12.2766 17.7709 12.2766H20.4545V9.58891Z" fill="black"/>
<path d="M24.5455 8.18164H20.4545V12.2726H24.5455V8.18164Z" fill="black"/>
<path d="M27.2291 8.18164H24.5455V12.2726H27.2291C27.6177 12.2726 27.9491 12.1335 28.2232 11.8594C28.4973 11.5853 28.6364 11.2539 28.6364 10.8653V9.58482C28.6364 9.19619 28.4973 8.86482 28.2232 8.59073C27.9491 8.32073 27.6177 8.18164 27.2291 8.18164Z" fill="black"/>
<path d="M36.81 9.49073H36.8182V8.18164H32.7273V9.49073H32.7355C32.7314 9.53164 32.7273 9.56437 32.7273 9.58482V10.8653C32.7273 11.2539 32.8664 11.5853 33.1405 11.8594C33.4145 12.1335 33.7459 12.2726 34.1346 12.2726H35.415C35.8036 12.2726 36.135 12.1335 36.4091 11.8594C36.6832 11.5853 36.8223 11.2539 36.8223 10.8653V9.58482C36.8182 9.56846 36.8141 9.53573 36.81 9.49073Z" fill="black"/>
<path d="M45 8.18164H40.9091V10.8653C40.9091 11.2539 41.0482 11.5853 41.3223 11.8594C41.5964 12.1335 41.9277 12.2726 42.3164 12.2726H45V8.18164Z" fill="black"/>
<path d="M4.09091 12.2727H0V14.9563C0 15.345 0.13909 15.6763 0.413181 15.9504C0.687272 16.2245 1.01864 16.3636 1.40727 16.3636H4.09091V12.2727Z" fill="black"/>
<path d="M6.77455 12.2727H4.09091V16.3636H6.77455C7.16318 16.3636 7.49455 16.2245 7.76864 15.9504C8.04273 15.6763 8.18182 15.345 8.18182 14.9563V13.6759C8.18182 13.2873 8.04273 12.9559 7.76864 12.6818C7.49455 12.4118 7.16318 12.2727 6.77455 12.2727Z" fill="black"/>
<path d="M32.7273 14.9563C32.7273 15.3449 32.5882 15.6763 32.3141 15.9504C32.04 16.2245 31.7086 16.3636 31.32 16.3636H30.0396C29.6509 16.3636 29.3196 16.2245 29.0455 15.9504C28.7714 15.6763 28.6323 15.3449 28.6323 14.9563V13.6758C28.6323 13.2872 28.7714 12.9558 29.0455 12.6817C29.3196 12.4076 29.6509 12.2686 30.0396 12.2686H31.32C31.7086 12.2686 32.04 12.4076 32.3141 12.6817C32.5882 12.9558 32.7273 13.2872 32.7273 13.6758V14.9563Z" fill="black"/>
<path d="M40.9091 14.9563C40.9091 15.3449 40.77 15.6763 40.4959 15.9504C40.2218 16.2245 39.8905 16.3636 39.5018 16.3636H38.2214C37.8327 16.3636 37.5014 16.2245 37.2273 15.9504C36.9532 15.6763 36.8141 15.3449 36.8141 14.9563V13.6758C36.8141 13.2872 36.9532 12.9558 37.2273 12.6817C37.5014 12.4076 37.8327 12.2686 38.2214 12.2686H39.5018C39.8905 12.2686 40.2218 12.4076 40.4959 12.6817C40.77 12.9558 40.9091 13.2872 40.9091 13.6758V14.9563Z" fill="black"/>
<path d="M12.2727 17.7708V16.3635H9.58909C9.20045 16.3635 8.86909 16.5026 8.595 16.7767C8.32091 17.0508 8.18182 17.3822 8.18182 17.7708V20.4544H12.2727V17.7708Z" fill="black"/>
<path d="M14.9564 16.3635H12.2727V20.4544H14.9564C15.345 20.4544 15.6764 20.3153 15.9505 20.0413C16.2245 19.7672 16.3636 19.4358 16.3636 19.0472V17.7667C16.3636 17.3781 16.2245 17.0467 15.9505 16.7726C15.6764 16.5026 15.345 16.3635 14.9564 16.3635Z" fill="black"/>
<path d="M24.5455 17.7708V16.3635H21.8618C21.4732 16.3635 21.1418 16.5026 20.8677 16.7767C20.5936 17.0508 20.4545 17.3822 20.4545 17.7708V20.4544H24.5455V17.7708Z" fill="black"/>
<path d="M27.2291 16.3635H24.5455V20.4544H27.2291C27.6177 20.4544 27.9491 20.3153 28.2232 20.0413C28.4973 19.7672 28.6364 19.4358 28.6364 19.0472V17.7667C28.6364 17.3781 28.4973 17.0467 28.2232 16.7726C27.9491 16.5026 27.6177 16.3635 27.2291 16.3635Z" fill="black"/>
<path d="M36.8182 17.7708C36.8182 17.3822 36.6791 17.0508 36.405 16.7767C36.1309 16.5026 35.7995 16.3635 35.4109 16.3635H34.1305C33.7418 16.3635 33.4105 16.5026 33.1364 16.7767C32.8623 17.0508 32.7232 17.3822 32.7232 17.7708V19.0513C32.7232 19.0717 32.7273 19.1044 32.7314 19.1453H32.7232V20.4544H36.8141V19.1453H36.8059C36.81 19.1044 36.8141 19.0717 36.8141 19.0513V17.7708H36.8182Z" fill="black"/>
<path d="M12.2645 21.7637H12.2727V20.4546H8.18182V21.7637H8.19C8.18591 21.8046 8.18182 21.8373 8.18182 21.8578V23.1382C8.18182 23.5269 8.32091 23.8582 8.595 24.1323C8.86909 24.4064 9.20045 24.5455 9.58909 24.5455H10.8695C11.2582 24.5455 11.5895 24.4064 11.8636 24.1323C12.1377 23.8582 12.2768 23.5269 12.2768 23.1382V21.8578C12.2727 21.8414 12.2686 21.8087 12.2645 21.7637Z" fill="black"/>
<path d="M24.5373 21.7637H24.5454V20.4546H20.4545V21.7637H20.4627C20.4586 21.8046 20.4545 21.8373 20.4545 21.8578V23.1382C20.4545 23.5269 20.5936 23.8582 20.8677 24.1323C21.1418 24.4064 21.4732 24.5455 21.8618 24.5455H23.1423C23.5309 24.5455 23.8623 24.4064 24.1364 24.1323C24.4104 23.8582 24.5495 23.5269 24.5495 23.1382V21.8578C24.5454 21.8414 24.5414 21.8087 24.5373 21.7637Z" fill="black"/>
<path d="M32.7273 21.8619V20.4546H30.0436C29.655 20.4546 29.3236 20.5937 29.0495 20.8678C28.7755 21.1419 28.6364 21.4732 28.6364 21.8619V24.5455H32.7273V21.8619Z" fill="black"/>
<path d="M36.8182 20.4546H32.7273V24.5455H35.4109C35.7995 24.5455 36.1309 24.4064 36.405 24.1323C36.6791 23.8582 36.8182 23.5269 36.8182 23.1382V20.4546Z" fill="black"/>
<path d="M4.09091 25.9527V24.5454H1.40727C1.01864 24.5454 0.687272 24.6845 0.413181 24.9586C0.13909 25.2327 0 25.564 0 25.9527V28.6363H4.09091V25.9527Z" fill="black"/>
<path d="M6.77455 24.5454H4.09091V28.6363H6.77455C7.16318 28.6363 7.49455 28.4972 7.76864 28.2231C8.04273 27.949 8.18182 27.6177 8.18182 27.229V25.9486C8.18182 25.56 8.04273 25.2286 7.76864 24.9545C7.49455 24.6845 7.16318 24.5454 6.77455 24.5454Z" fill="black"/>
<path d="M16.3636 27.229C16.3636 27.6176 16.2245 27.949 15.9505 28.2231C15.6764 28.4972 15.345 28.6363 14.9564 28.6363H13.6759C13.2873 28.6363 12.9559 28.4972 12.6818 28.2231C12.4077 27.949 12.2686 27.6176 12.2686 27.229V25.9485C12.2686 25.5599 12.4077 25.2285 12.6818 24.9544C12.9559 24.6803 13.2873 24.5413 13.6759 24.5413H14.9564C15.345 24.5413 15.6764 24.6803 15.9505 24.9544C16.2245 25.2285 16.3636 25.5599 16.3636 25.9485V27.229Z" fill="black"/>
<path d="M28.6364 25.9527V24.5454H25.9527C25.5641 24.5454 25.2327 24.6845 24.9586 24.9586C24.6845 25.2327 24.5455 25.564 24.5455 25.9527V28.6363H28.6364V25.9527Z" fill="black"/>
<path d="M32.7273 24.5454H28.6364V28.6363H31.32C31.7086 28.6363 32.04 28.4972 32.3141 28.2231C32.5882 27.949 32.7273 27.6177 32.7273 27.229V24.5454Z" fill="black"/>
<path d="M40.9091 25.9527V24.5454H38.2255C37.8368 24.5454 37.5054 24.6845 37.2314 24.9586C36.9573 25.2327 36.8182 25.564 36.8182 25.9527V28.6363H40.9091V25.9527Z" fill="black"/>
<path d="M45 24.5454H40.9091V28.6363H45V24.5454Z" fill="black"/>
<path d="M4.09091 28.6362H0V32.7271H4.09091V28.6362Z" fill="black"/>
<path d="M12.2727 30.0435C12.2727 29.6549 12.1336 29.3235 11.8595 29.0494C11.5855 28.7753 11.2541 28.6362 10.8654 28.6362H9.585C9.19636 28.6362 8.865 28.7753 8.59091 29.0494C8.31682 29.3235 8.17773 29.6549 8.17773 30.0435V31.324C8.17773 31.3444 8.18182 31.3771 8.18591 31.418H8.17773V32.7271H12.2686V31.418H12.2604C12.2645 31.3771 12.2686 31.3444 12.2686 31.324V30.0435H12.2727Z" fill="black"/>
<path d="M20.4545 30.0435C20.4545 29.6549 20.3155 29.3235 20.0414 29.0494C19.7673 28.7753 19.4359 28.6362 19.0473 28.6362H17.7668C17.3782 28.6362 17.0468 28.7753 16.7727 29.0494C16.4986 29.3235 16.3596 29.6549 16.3596 30.0435V31.324C16.3596 31.3444 16.3636 31.3771 16.3677 31.418H16.3596V32.7271H20.4505V31.418H20.4423C20.4464 31.3771 20.4505 31.3444 20.4505 31.324V30.0435H20.4545Z" fill="black"/>
<path d="M28.6364 28.6362H24.5455V32.7271H28.6364V28.6362Z" fill="black"/>
<path d="M40.9009 29.9453H40.9091V28.6362H36.8182V29.9453H36.8264C36.8223 29.9862 36.8182 30.019 36.8182 30.0394V31.3199C36.8182 31.7085 36.9573 32.0399 37.2314 32.314C37.5055 32.588 37.8368 32.7271 38.2255 32.7271H39.5059C39.8945 32.7271 40.2259 32.588 40.5 32.314C40.7741 32.0399 40.9132 31.7085 40.9132 31.3199V30.0394C40.9091 30.0231 40.905 29.9903 40.9009 29.9453Z" fill="black"/>
<path d="M4.09091 32.7273H0V35.4109C0 35.7996 0.13909 36.1309 0.413181 36.405C0.687272 36.6791 1.01864 36.8182 1.40727 36.8182H4.09091V32.7273Z" fill="black"/>
<path d="M8.18182 32.7273H4.09091V36.8182H8.18182V32.7273Z" fill="black"/>
<path d="M12.2727 32.7273H8.18182V36.8182H12.2727V32.7273Z" fill="black"/>
<path d="M20.4545 32.7273H16.3636V36.8182H20.4545V32.7273Z" fill="black"/>
<path d="M28.6282 34.0364H28.6364V32.7273H24.5455V34.0364H24.5536C24.5495 34.0773 24.5455 34.11 24.5455 34.1305V35.4109C24.5455 35.7996 24.6845 36.1309 24.9586 36.405C25.2327 36.6791 25.5641 36.8182 25.9527 36.8182H27.2332C27.6218 36.8182 27.9532 36.6791 28.2273 36.405C28.5014 36.1309 28.6404 35.7996 28.6404 35.4109V34.1305C28.6364 34.1141 28.6323 34.0814 28.6282 34.0364Z" fill="black"/>
<path d="M36.8182 34.1346C36.8182 33.7459 36.6791 33.4146 36.405 33.1405C36.1309 32.8664 35.7995 32.7273 35.4109 32.7273H34.1305C33.7418 32.7273 33.4105 32.8664 33.1364 33.1405C32.8623 33.4146 32.7232 33.7459 32.7232 34.1346V35.415C32.7232 35.4355 32.7273 35.4682 32.7314 35.5091H32.7232V36.8182H36.8141V35.5091H36.8059C36.81 35.4682 36.8141 35.4355 36.8141 35.415V34.1346H36.8182Z" fill="black"/>
<path d="M8.18182 36.8181H4.09091V40.909H8.18182V36.8181Z" fill="black"/>
<path d="M12.2727 36.8181H8.18182V40.909H12.2727V36.8181Z" fill="black"/>
<path d="M16.3636 36.8181H12.2727V40.909H16.3636V36.8181Z" fill="black"/>
<path d="M20.4545 36.8181H16.3636V40.909H20.4545V36.8181Z" fill="black"/>
<path d="M36.8182 36.8181H32.7273V40.909H36.8182V36.8181Z" fill="black"/>
<path d="M40.9091 38.2254C40.9091 37.8368 40.77 37.5054 40.4959 37.2313C40.2218 36.9572 39.8905 36.8181 39.5018 36.8181H36.8182V40.909H40.9091V38.2254Z" fill="black"/>
<path d="M8.18182 40.9089H4.09091V44.9998H8.18182V40.9089Z" fill="black"/>
<path d="M20.4545 40.9089H16.3636V44.9998H20.4545V40.9089Z" fill="black"/>
<path d="M28.6364 42.3162V40.9089H25.9527C25.5641 40.9089 25.2327 41.048 24.9586 41.3221C24.6845 41.5962 24.5455 41.9276 24.5455 42.3162V44.9998H28.6364V42.3162Z" fill="black"/>
<path d="M32.7273 40.9089H28.6364V44.9998H32.7273V40.9089Z" fill="black"/>
<path d="M36.8182 40.9089H32.7273V44.9998H36.8182V40.9089Z" fill="black"/>
<path d="M40.9091 40.9089H36.8182V44.9998H40.9091V40.9089Z" fill="black"/>
<path d="M45 40.9089H40.9091V44.9998H45V40.9089Z" fill="black"/>
</g>
<defs>
<clipPath id="clip0">
<rect width="45" height="45" fill="white"/>
</clipPath>
</defs>
</svg>
