<svg width="35" height="15" viewBox="0 0 35 15" fill="none" xmlns="http://www.w3.org/2000/svg">
<path d="M27.7076 34.6354C26.1764 34.9757 24.5722 34.9271 23.0167 34.9271C22.166 34.9271 13.2945 34.9028 13.2945 34.9514C13.1972 34.9514 12.4438 34.9514 11.9333 34.9514H11.909C9.91598 34.9514 7.94724 34.9271 5.97849 34.9514C4.7146 34.9514 3.47501 34.9514 2.21113 34.9757C1.6764 34.9757 0.461126 35.2188 0.120849 34.5868C-0.0492901 34.2708 0.0236266 33.8576 0.0722377 33.5417C0.145154 32.9826 0.218071 32.3993 0.290988 31.8403C0.436821 30.6979 0.582654 29.5799 0.704182 28.4375C0.947237 26.0799 1.02015 23.7465 1.02015 21.3889C1.02015 18.2049 0.898626 15.0451 0.339599 11.9097C-0.122207 9.26042 -0.389568 6.58681 1.06877 4.18056C2.23543 2.28472 4.13126 0.972222 6.27015 0.510417C7.70418 0.21875 9.23543 0.194444 10.6938 0.121528C12.3465 0.0486111 13.975 0 15.6278 0C18.909 0 22.1903 0.121528 25.4715 0.315972C26.8326 0.388889 28.291 0.340278 29.6278 0.729167C30.6486 1.02083 31.5722 1.57986 32.3257 2.30903C34.1243 4.03472 34.8535 6.5625 34.9507 8.99306C35.0236 10.5486 34.9507 12.1042 34.975 13.6354C34.9993 15.2639 34.9993 16.8924 35.0236 18.5451C35.0236 20.1736 35.0236 21.8021 35.0236 23.4306C35.0236 24.8403 35.0965 26.2986 34.8535 27.7083C34.4889 29.8715 33.2736 31.7674 31.4507 33.0312C30.3083 33.7847 29.0444 34.3438 27.7076 34.6354Z" fill="black"/>
</svg>
