<svg width="35" height="35" viewBox="0 0 35 35" fill="none" xmlns="http://www.w3.org/2000/svg">
<path d="M35.0169 17.4906C35.0169 14.7045 33.088 12.347 30.4805 11.7041C33.088 11.0611 35.0169 8.73935 35.0169 5.91753C35.0169 2.63135 32.3379 -0.0476074 29.0517 -0.0476074C26.2656 -0.0476074 23.9082 1.88124 23.2652 4.48875C22.6223 1.88124 20.3005 -0.0476074 17.4787 -0.0476074C14.6926 -0.0476074 12.3351 1.88124 11.6921 4.48875C11.0492 1.88124 8.72744 -0.0476074 5.90561 -0.0476074C2.61943 -0.0476074 -0.0595245 2.63135 -0.0595245 5.91753C-0.0595245 8.70363 1.86932 11.0611 4.47684 11.7041C1.86932 12.347 -0.0595245 14.6688 -0.0595245 17.4906C-0.0595245 20.2767 1.86932 22.6342 4.47684 23.2771C1.86932 23.9201 -0.0595245 26.2418 -0.0595245 29.0637C-0.0595245 32.3498 2.61943 35.0288 5.90561 35.0288C8.69172 35.0288 11.0492 33.0999 11.6921 30.4924C12.3351 33.0999 14.6568 35.0288 17.4787 35.0288C20.2648 35.0288 22.6223 33.0999 23.2652 30.4924C23.9082 33.0999 26.2299 35.0288 29.0517 35.0288C32.3379 35.0288 35.0169 32.3498 35.0169 29.0637C35.0169 26.2776 33.088 23.9201 30.4805 23.2771C33.0523 22.6342 35.0169 20.3124 35.0169 17.4906Z" fill="black"/>
</svg>
