<svg width="45" height="45" viewBox="0 0 45 45" fill="none" xmlns="http://www.w3.org/2000/svg">
<g clip-path="url(#clip0)">
<path d="M44.2486 5.50546C44.7131 4.93169 45 4.18033 45 3.37432C45 1.62568 43.6748 0.191257 41.9672 0.0136612C41.8579 0 41.7486 0 41.6257 0C41.5027 0 41.3934 0 41.2841 0.0136612C40.6147 0.0819672 40 0.34153 39.5082 0.751366C38.9344 0.286885 38.183 0 37.3907 0C36.5847 0 35.847 0.286885 35.2595 0.751366C34.6858 0.286885 33.9344 0 33.1284 0C32.3224 0 31.5847 0.286885 30.9972 0.751366C30.4235 0.286885 29.6721 0 28.8661 0C28.0601 0 27.3224 0.286885 26.735 0.751366C26.1612 0.286885 25.4235 0 24.6175 0C23.8115 0 23.0738 0.286885 22.4863 0.751366C21.9262 0.286885 21.1749 0 20.3825 0C19.5765 0 18.8388 0.286885 18.2514 0.751366C17.6639 0.286885 16.9262 0 16.1202 0C15.3142 0 14.5765 0.286885 13.9891 0.751366C13.4153 0.286885 12.6776 0 11.8716 0C11.0656 0 10.3279 0.286885 9.75409 0.751366C9.16666 0.286885 8.42896 0 7.62295 0C6.81694 0 6.07923 0.286885 5.50546 0.751366C5.01366 0.355191 4.3989 0.0819672 3.72951 0.0136612C3.60655 0 3.49727 0 3.37432 0C3.25136 0 3.14207 0 3.03279 0.0136612C1.32514 0.191257 0 1.62568 0 3.37432C0 4.18033 0.286885 4.91803 0.751366 5.50546C0.286885 6.07924 0 6.81694 0 7.62295C0 8.42896 0.286885 9.16667 0.751366 9.7541C0.286885 10.3279 0 11.0656 0 11.8716C0 12.6776 0.286885 13.4153 0.751366 14.0027C0.286885 14.5765 0 15.3142 0 16.1202C0 16.9262 0.286885 17.6639 0.751366 18.2514C0.286885 18.8251 0 19.5765 0 20.3825C0 21.1885 0.286885 21.9262 0.751366 22.5137C0.286885 23.0874 0 23.8251 0 24.6311C0 25.4372 0.286885 26.1749 0.751366 26.7623C0.286885 27.3361 0 28.0874 0 28.8934C0 29.6995 0.286885 30.4372 0.751366 31.0246C0.286885 31.612 0 32.3497 0 33.1557C0 33.9618 0.286885 34.6995 0.751366 35.2869C0.286885 35.8607 0 36.612 0 37.418C0 38.224 0.286885 38.9618 0.751366 39.5492C0.286885 40.123 0 40.8743 0 41.6667C0 43.5246 1.51639 45.041 3.37432 45.041C4.18033 45.041 4.91803 44.7541 5.50546 44.2896C6.07923 44.7541 6.8306 45.041 7.63661 45.041C8.44262 45.041 9.18032 44.7541 9.76775 44.2896C10.3415 44.7541 11.0929 45.041 11.8989 45.041C12.7049 45.041 13.4426 44.7541 14.03 44.2896C14.6038 44.7541 15.3552 45.041 16.1612 45.041C16.9672 45.041 17.7049 44.7541 18.2923 44.2896C18.8661 44.7541 19.6175 45.041 20.4235 45.041C21.2295 45.041 21.9672 44.7541 22.5546 44.2896C23.1284 44.7541 23.8798 45.041 24.6858 45.041C25.4918 45.041 26.2295 44.7541 26.8169 44.2896C27.3907 44.7541 28.1421 45.041 28.9481 45.041C29.7541 45.041 30.4918 44.7541 31.0792 44.2896C31.653 44.7541 32.4044 45.041 33.2104 45.041C34.0164 45.041 34.7541 44.7541 35.3415 44.2896C35.9153 44.7541 36.6666 45.041 37.4727 45.041C38.2787 45.041 39.0164 44.7541 39.6038 44.2896C40.1776 44.7541 40.9289 45.041 41.7349 45.041C43.5929 45.041 45.1093 43.5246 45.1093 41.6667C45.1093 40.8607 44.8224 40.123 44.3579 39.5355C44.8224 38.9618 45.1093 38.2104 45.1093 37.4044C45.1093 36.5984 44.8224 35.8607 44.3579 35.2732C44.8224 34.6995 45.1093 33.9481 45.1093 33.1421C45.1093 32.3361 44.8224 31.5984 44.3579 31.0109C44.8224 30.4372 45.1093 29.6858 45.1093 28.8934C45.1093 28.0874 44.8224 27.3497 44.3579 26.7623C44.8224 26.1885 45.1093 25.4372 45.1093 24.6311C45.1093 23.8251 44.8224 23.0874 44.3579 22.5C44.8224 21.9262 45.1093 21.1749 45.1093 20.3689C45.1093 19.5628 44.8224 18.8251 44.3579 18.2377C44.8224 17.6639 45.1093 16.9126 45.1093 16.1066C45.1093 15.3005 44.8224 14.5628 44.3579 13.9754C44.8224 13.4016 45.1093 12.6503 45.1093 11.8443C45.1093 11.0383 44.8224 10.3005 44.3579 9.71311C44.8224 9.13934 45.1093 8.38798 45.1093 7.58197C45.1093 6.77596 44.7131 6.07924 44.2486 5.50546ZM39.0027 14.0027C38.5382 14.5765 38.2513 15.3279 38.2513 16.1339C38.2513 16.9399 38.5382 17.6776 39.0027 18.265C38.5382 18.8388 38.2513 19.5902 38.2513 20.3962C38.2513 21.2022 38.5382 21.9399 39.0027 22.5273C38.5382 23.1011 38.2513 23.8525 38.2513 24.6585C38.2513 25.4645 38.5382 26.2022 39.0027 26.7896C38.5382 27.3634 38.2513 28.1148 38.2513 28.9208C38.2513 29.7268 38.5382 30.4645 39.0027 31.0519C38.5382 31.6257 38.2513 32.377 38.2513 33.1831C38.2513 33.9891 38.5382 34.7268 39.0027 35.3142C38.5382 35.888 38.2513 36.6393 38.2513 37.4454C38.2513 37.8142 38.306 38.1557 38.4153 38.4836C38.0874 38.3743 37.7322 38.3197 37.377 38.3197C36.571 38.3197 35.8333 38.6066 35.2459 39.071C34.6721 38.6066 33.9207 38.3197 33.1147 38.3197C32.3087 38.3197 31.571 38.6066 30.9836 39.071C30.4098 38.5929 29.6585 38.3197 28.8661 38.3197C28.0601 38.3197 27.3224 38.6066 26.735 39.071C26.1612 38.6066 25.4098 38.3197 24.6038 38.3197C23.7978 38.3197 23.0601 38.6066 22.4727 39.071C21.8989 38.6066 21.1475 38.3197 20.3415 38.3197C19.5355 38.3197 18.7978 38.6066 18.2104 39.071C17.6366 38.6066 16.8852 38.3197 16.0792 38.3197C15.2732 38.3197 14.5355 38.6066 13.9481 39.071C13.3743 38.6066 12.6229 38.3197 11.8169 38.3197C11.0109 38.3197 10.2732 38.6066 9.68579 39.071C9.11202 38.6066 8.36065 38.3197 7.55464 38.3197C7.18579 38.3197 6.84426 38.3743 6.51639 38.4836C6.62568 38.1557 6.68032 37.8005 6.68032 37.4454C6.68032 36.6393 6.39344 35.9016 5.92896 35.3142C6.39344 34.7404 6.68032 33.9891 6.68032 33.1831C6.68032 32.377 6.39344 31.6393 5.92896 31.0519C6.39344 30.4781 6.68032 29.7268 6.68032 28.9208C6.68032 28.1148 6.39344 27.3771 5.92896 26.7896C6.39344 26.2158 6.68032 25.4645 6.68032 24.6585C6.68032 23.8525 6.39344 23.1148 5.92896 22.5273C6.39344 21.9536 6.68032 21.2022 6.68032 20.3962C6.68032 19.5902 6.39344 18.8525 5.92896 18.265C6.39344 17.6913 6.68032 16.9399 6.68032 16.1339C6.68032 15.3279 6.39344 14.5902 5.92896 14.0027C6.39344 13.429 6.68032 12.6776 6.68032 11.8716C6.68032 11.0656 6.39344 10.3279 5.92896 9.74044C6.39344 9.16667 6.68032 8.4153 6.68032 7.60929C6.68032 7.24044 6.62568 6.89891 6.51639 6.57104C6.84426 6.68033 7.19945 6.73497 7.55464 6.73497C8.36065 6.73497 9.09836 6.44809 9.68579 5.98361C10.2596 6.44809 11.0109 6.73497 11.8169 6.73497C12.6229 6.73497 13.3606 6.44809 13.9481 5.98361C14.5218 6.44809 15.2732 6.73497 16.0792 6.73497C16.8852 6.73497 17.6229 6.44809 18.2104 5.98361C18.7841 6.44809 19.5355 6.73497 20.3415 6.73497C21.1475 6.73497 21.8852 6.44809 22.4727 5.98361C23.0464 6.44809 23.7978 6.73497 24.6038 6.73497C25.4098 6.73497 26.1475 6.44809 26.735 5.98361C27.3087 6.44809 28.0601 6.73497 28.8661 6.73497C29.6721 6.73497 30.4098 6.44809 30.9972 5.98361C31.5847 6.44809 32.3224 6.73497 33.1284 6.73497C33.9344 6.73497 34.6721 6.44809 35.2595 5.98361C35.8333 6.44809 36.5847 6.73497 37.3907 6.73497C37.7595 6.73497 38.1011 6.68033 38.4289 6.57104C38.3196 6.89891 38.265 7.2541 38.265 7.60929C38.265 8.4153 38.5519 9.15301 39.0164 9.74044C38.5519 10.3142 38.265 11.0656 38.265 11.8716C38.265 12.6776 38.5382 13.4153 39.0027 14.0027Z" fill="black"/>
</g>
<defs>
<clipPath id="clip0">
<rect width="45" height="45" fill="white"/>
</clipPath>
</defs>
</svg>
