<svg width="45" height="45" viewBox="0 0 45 45" fill="none" xmlns="http://www.w3.org/2000/svg">
<g clip-path="url(#clip0)">
<path d="M44.9964 9.76421C44.9964 8.27933 44.0515 7.01944 42.7016 6.56947C44.0065 6.11951 44.9964 4.85961 44.9964 3.37473C44.9964 1.52988 43.4665 0 41.6216 0C40.1368 0 38.8769 0.944924 38.4269 2.29482C37.9769 0.98992 36.717 0 35.2322 0C33.7473 0 32.4874 0.944924 32.0374 2.29482C31.5875 0.98992 30.3276 0 28.8427 0C27.3578 0 26.0979 0.944924 25.6479 2.29482C25.198 0.98992 23.9381 0 22.4532 0C20.9683 0 19.7084 0.944924 19.2584 2.29482C18.8085 0.98992 17.5486 0 16.0637 0C14.5788 0 13.3189 0.944924 12.869 2.29482C12.419 0.98992 11.1591 0 9.67422 0C8.18934 0 6.92943 0.944924 6.47947 2.29482C6.02951 0.98992 4.76961 0 3.28473 0C1.43988 0 -0.0899963 1.52988 -0.0899963 3.37473C-0.0899963 4.85961 0.854924 6.11951 2.20481 6.56947C0.89992 7.01944 -0.0899963 8.27933 -0.0899963 9.76421C-0.0899963 11.2491 0.854924 12.509 2.20481 12.959C0.89992 13.4089 -0.0899963 14.6688 -0.0899963 16.1537C-0.0899963 17.6386 0.854924 18.8985 2.20481 19.3484C0.89992 19.7984 -0.0899963 21.0583 -0.0899963 22.5432C-0.0899963 24.0281 0.854924 25.288 2.20481 25.7379C0.89992 26.1879 -0.0899963 27.4478 -0.0899963 28.9327C-0.0899963 30.4176 0.854924 31.6775 2.20481 32.1274C0.89992 32.5774 -0.0899963 33.8373 -0.0899963 35.3222C-0.0899963 36.807 0.854924 38.0669 2.20481 38.5169C0.89992 38.9669 -0.0899963 40.2268 -0.0899963 41.7116C-0.0899963 43.5565 1.43988 45.0864 3.28473 45.0864C3.50971 45.0864 3.7347 45.0414 3.95968 44.9964C5.12958 44.7714 6.0745 43.9165 6.47947 42.7916C6.92943 44.0965 8.18934 45.0864 9.67422 45.0864C11.1591 45.0864 12.419 44.1414 12.869 42.7916C13.3189 44.0965 14.5788 45.0864 16.0637 45.0864C17.5486 45.0864 18.8085 44.1414 19.2584 42.7916C19.7084 44.0965 20.9683 45.0864 22.4532 45.0864C23.9381 45.0864 25.198 44.1414 25.6479 42.7916C26.0979 44.0965 27.3578 45.0864 28.8427 45.0864C30.3276 45.0864 31.5875 44.1414 32.0374 42.7916C32.4874 44.0965 33.7473 45.0864 35.2322 45.0864C36.717 45.0864 37.9769 44.1414 38.4269 42.7916C38.8769 44.0965 40.1368 45.0864 41.6216 45.0864C43.4665 45.0864 44.9964 43.5565 44.9964 41.7116C44.9964 40.2268 44.0515 38.9669 42.7016 38.5169C44.0065 38.0669 44.9964 36.807 44.9964 35.3222C44.9964 33.8373 44.0515 32.5774 42.7016 32.1274C44.0065 31.6775 44.9964 30.4176 44.9964 28.9327C44.9964 27.4478 44.0515 26.1879 42.7016 25.7379C44.0065 25.288 44.9964 24.0281 44.9964 22.5432C44.9964 21.0583 44.0515 19.7984 42.7016 19.3484C44.0065 18.8985 44.9964 17.6386 44.9964 16.1537C44.9964 14.6688 44.0515 13.4089 42.7016 12.959C44.0515 12.464 44.9964 11.2491 44.9964 9.76421ZM40.5417 38.4269C39.5518 38.7869 38.7869 39.5518 38.4719 40.4967C38.0219 39.1918 36.762 38.2019 35.2772 38.2019C33.7923 38.2019 32.5324 39.1469 32.0824 40.4967C31.6325 39.1918 30.3726 38.2019 28.8877 38.2019C27.4028 38.2019 26.1429 39.1469 25.6929 40.4967C25.243 39.1918 23.9831 38.2019 22.4982 38.2019C21.0133 38.2019 19.7534 39.1469 19.3034 40.4967C18.8535 39.1918 17.5936 38.2019 16.1087 38.2019C14.6238 38.2019 13.3639 39.1469 12.914 40.4967C12.464 39.1918 11.2041 38.2019 9.71922 38.2019C8.23434 38.2019 6.97443 39.1469 6.52447 40.4967C6.1645 39.5068 5.39956 38.7419 4.45463 38.4269C5.75953 37.9769 6.74945 36.717 6.74945 35.2322C6.74945 33.7473 5.80453 32.4874 4.45463 32.0374C5.75953 31.5875 6.74945 30.3276 6.74945 28.8427C6.74945 27.3578 5.80453 26.0979 4.45463 25.6479C5.75953 25.198 6.74945 23.9381 6.74945 22.4532C6.74945 20.9683 5.80453 19.7084 4.45463 19.2585C5.75953 18.8085 6.74945 17.5486 6.74945 16.0637C6.74945 14.5788 5.80453 13.3189 4.45463 12.869C5.75953 12.419 6.74945 11.1591 6.74945 9.67422C6.74945 8.18934 5.80453 6.92944 4.45463 6.47948C5.44455 6.11951 6.2095 5.35457 6.52447 4.40965C6.97443 5.71454 8.23434 6.70446 9.71922 6.70446C11.2041 6.70446 12.464 5.75954 12.914 4.40965C13.3639 5.71454 14.6238 6.70446 16.1087 6.70446C17.5936 6.70446 18.8535 5.75954 19.3034 4.40965C19.7534 5.71454 21.0133 6.70446 22.4982 6.70446C23.9831 6.70446 25.243 5.75954 25.6929 4.40965C26.1429 5.71454 27.4028 6.70446 28.8877 6.70446C30.3726 6.70446 31.6325 5.75954 32.0824 4.40965C32.5324 5.71454 33.7923 6.70446 35.2772 6.70446C36.762 6.70446 38.0219 5.75954 38.4719 4.40965C38.8319 5.39957 39.5968 6.1645 40.5417 6.47948C39.2368 6.92944 38.2469 8.18934 38.2469 9.67422C38.2469 11.1591 39.1918 12.419 40.5417 12.869C39.2368 13.3189 38.2469 14.5788 38.2469 16.0637C38.2469 17.5486 39.1918 18.8085 40.5417 19.2585C39.2368 19.7084 38.2469 20.9683 38.2469 22.4532C38.2469 23.9381 39.1918 25.198 40.5417 25.6479C39.2368 26.0979 38.2469 27.3578 38.2469 28.8427C38.2469 30.3276 39.1918 31.5875 40.5417 32.0374C39.2368 32.4874 38.2469 33.7473 38.2469 35.2322C38.2469 36.717 39.1918 37.9769 40.5417 38.4269Z" fill="black"/>
</g>
<defs>
<clipPath id="clip0">
<rect width="45" height="45" fill="white"/>
</clipPath>
</defs>
</svg>
