<svg width="45" height="45" viewBox="0 0 45 45" fill="none" xmlns="http://www.w3.org/2000/svg">
<g clip-path="url(#clip0)">
<path d="M17.46 44.9551C14.49 44.9551 11.475 44.9551 8.50499 44.9551C7.01999 44.9551 5.53499 44.9551 4.00499 44.9551C3.28499 44.9551 2.565 44.9551 1.845 44.9551C1.44 44.9551 0.944998 45.0451 0.494998 44.9101C0.224998 44.8201 0.134996 44.5951 0.134996 44.3251C0.134996 43.6951 0.359998 43.0201 0.494998 42.3901C0.719998 40.9501 0.899996 39.5101 1.035 38.0701C1.305 35.1451 1.53 32.1751 1.62 29.2501C1.71 26.3251 1.61999 23.4001 1.30499 20.4751C1.16999 19.0351 0.944995 17.5951 0.674995 16.2001C0.404995 14.8951 0.0899949 13.6351 -5.11482e-06 12.2851C-0.135005 9.76509 0.449992 7.29009 1.75499 5.13009C2.96999 3.1051 4.815 1.7551 7.02 0.945098C9.72 -0.0449011 12.555 0.0450989 15.345 0.0450989C18.315 0.0450989 21.285 0.0450989 24.255 0.0450989C27.225 0.0450989 30.195 0.0450989 33.165 0.135099C35.37 0.180099 37.62 0.585098 39.6 1.7101C41.67 2.8801 43.29 4.81509 44.055 7.06509C44.955 9.67509 44.865 12.6001 44.865 15.3001C44.865 21.1501 45.045 27.0451 44.865 32.9401C44.775 35.1901 44.37 37.4851 43.2 39.4651C41.985 41.5801 40.005 43.1101 37.755 43.9651C35.145 44.9551 32.31 45.0451 29.565 45.0001C26.64 44.9551 23.715 45.0001 20.79 45.0001C19.665 44.9551 18.585 44.9551 17.46 44.9551C12.06 44.9551 20.385 44.9551 17.46 44.9551ZM18.72 38.5201C18.72 38.4751 26.775 38.5201 27.54 38.5201C28.935 38.5201 30.375 38.5651 31.77 38.2501C32.985 37.9801 34.11 37.4851 35.145 36.7651C36.81 35.5951 37.89 33.8851 38.205 31.8601C38.43 30.5551 38.34 29.2501 38.34 27.9451C38.34 26.4601 38.34 24.9301 38.34 23.4451C38.34 21.9601 38.34 20.4301 38.295 18.9451C38.295 17.5051 38.34 16.1101 38.25 14.6701C38.16 12.4651 37.485 10.1251 35.865 8.55009C35.19 7.87509 34.335 7.38009 33.435 7.11009C32.22 6.75009 30.915 6.79509 29.655 6.70509C26.685 6.52509 23.715 6.43509 20.745 6.43509C19.26 6.43509 17.775 6.48009 16.29 6.57009C14.985 6.66009 13.59 6.66009 12.285 6.93009C10.35 7.33509 8.63999 8.55009 7.60499 10.2601C6.25499 12.4651 6.52499 14.9401 6.92999 17.3701C7.42499 20.2501 7.56 23.1751 7.56 26.0551C7.56 28.2151 7.51499 30.3751 7.28999 32.5351C7.19999 33.5701 7.06499 34.6051 6.92999 35.6401C6.83999 36.1801 6.79499 36.6751 6.70499 37.2151C6.65999 37.5301 6.615 37.8901 6.75 38.2051C7.065 38.7901 8.14499 38.5651 8.63999 38.5651C9.76499 38.5651 10.935 38.5651 12.06 38.5651C14.31 38.5201 16.515 38.5201 18.72 38.5201C18.72 38.5201 15.075 38.5201 18.72 38.5201Z" fill="black"/>
</g>
<defs>
<clipPath id="clip0">
<rect width="45" height="45" fill="white"/>
</clipPath>
</defs>
</svg>
