<svg width="83" height="80" viewBox="0 0 83 80" fill="none" xmlns="http://www.w3.org/2000/svg">
<path d="M17.3016 79.3173H14.1014C14.1014 79.3173 13.6223 79.3343 13.0233 78.8564C13.0233 78.8564 11.8767 79.5221 9.92577 79.5221C7.01649 79.5221 4.84309 77.764 4.84309 77.764C4.82598 77.747 4.79175 77.747 4.77464 77.747H2.20763C1.74556 77.747 0.650307 77.5763 0.650307 75.9377V71.3121C0.650307 70.3051 1.47175 69.4858 2.48144 69.4858H4.94577L4.87732 69.9467C4.82598 70.271 4.80886 70.6294 4.80886 71.0049C4.80886 71.0561 4.84309 71.0902 4.84309 71.0902C4.8602 71.1073 4.89443 71.1244 4.92866 71.1244C4.98 71.1244 5.01422 71.0902 5.01422 71.0902C5.03134 71.0732 5.04845 71.039 5.04845 71.0049C4.98 68.3251 6.5202 67.6253 9.3268 66.3793L9.48082 66.3111C11.6542 65.3382 11.6029 63.3412 11.5687 62.1464C11.5515 61.8733 11.5515 61.6343 11.5687 61.4807L11.6029 61.2588L11.8082 61.1735C11.8767 61.1393 12.0307 61.0881 12.2703 61.0881C12.3388 61.0881 12.4243 61.0881 12.5099 61.1052C12.8008 61.1564 13.3485 61.3271 13.7421 61.9586C14.3924 63.0169 14.2383 65.0139 13.6907 66.1233C13.3484 66.8231 13.3313 67.5059 13.6223 67.9667C13.8961 68.3934 14.3924 68.6153 15.0769 68.6153H25.6359C26.115 68.6153 26.5087 68.7519 26.7654 69.0079C26.9878 69.2298 27.1076 69.52 27.1076 69.8443C27.1076 70.3904 26.7311 70.9366 26.0295 70.9366H16.9594C16.8909 70.9366 16.8225 70.9878 16.8225 71.0732C16.8225 71.1585 16.8738 71.2097 16.9594 71.2097H20.228C20.9126 71.2097 21.4773 71.773 21.4773 72.4557C21.4773 73.1385 20.9126 73.7017 20.228 73.7017H16.8054C16.7369 73.7017 16.6684 73.7529 16.6684 73.8383C16.6684 73.9236 16.7198 73.9748 16.8054 73.9748H18.7049C19.6633 73.9748 19.9542 74.7088 19.9542 75.3915C19.9542 76.0742 19.3895 76.6375 18.7049 76.6375H16.8054L16.7711 76.6546C16.7369 76.6716 16.6856 76.7058 16.6856 76.7741C16.6856 76.8423 16.7198 76.8765 16.7711 76.8935L17.5412 76.9277C18.106 77.0301 18.5509 77.5421 18.5509 78.1395C18.5509 78.754 17.9862 79.3173 17.3016 79.3173C17.3016 79.3173 17.2845 79.3173 17.2674 79.3343L17.3016 79.3173ZM80.7924 2.83337H78.0542C78.02 2.83337 78.0029 2.83337 77.9858 2.8163C76.0862 1.50203 71.6196 -0.273097 66.7936 1.12652L66.4342 1.246C66.4171 1.246 66.4 1.26307 66.4 1.26307C65.7155 1.26307 65.1507 1.82633 65.1507 2.50907C65.1507 3.10646 65.5786 3.61852 66.1604 3.72093L66.246 3.75507C66.2802 3.77213 66.3315 3.80627 66.3315 3.87455C66.3315 3.94282 66.2973 3.97696 66.246 3.99402L66.2117 4.01109H64.9796C64.295 4.01109 63.7303 4.57435 63.7303 5.25709C63.7303 5.93983 64.295 6.50309 64.9796 6.50309H66.1946C66.2631 6.50309 66.3315 6.5543 66.3315 6.63964C66.3315 6.72498 66.2802 6.77619 66.1946 6.77619H63.4565C62.772 6.77619 62.2072 7.33945 62.2072 8.02219C62.2072 8.70493 62.772 9.26819 63.4565 9.26819H66.0406C66.1091 9.26819 66.1775 9.31939 66.1775 9.40474C66.1775 9.49008 66.1262 9.54128 66.0406 9.54128H56.9705C56.2517 9.54128 55.8924 10.0875 55.8924 10.6337C55.8924 10.958 56.0122 11.2481 56.2346 11.47C56.4913 11.726 56.8849 11.8626 57.3641 11.8626H67.9231C68.6076 11.8626 69.1039 12.0845 69.3777 12.5112C69.6687 12.9891 69.6515 13.6548 69.3093 14.3546C68.7616 15.464 68.6247 17.4611 69.2579 18.5193C69.6515 19.1508 70.1992 19.3386 70.4901 19.3727C70.5757 19.3898 70.6612 19.3898 70.7297 19.3898C70.9522 19.3898 71.1233 19.3386 71.1917 19.3045L71.3971 19.2191L71.4313 18.9972C71.4484 18.8436 71.4484 18.6047 71.4313 18.3316C71.3971 17.1368 71.3287 15.1397 73.5192 14.1668L73.6732 14.0986C76.4798 12.8526 78.02 12.1698 77.9515 9.47301C77.9515 9.4218 77.9687 9.38767 77.9858 9.38767C78.0029 9.38767 78.0371 9.35353 78.0713 9.35353C78.1227 9.35353 78.1398 9.3706 78.1569 9.38767C78.174 9.40474 78.1911 9.43887 78.1911 9.47301C78.2082 9.84852 78.174 10.207 78.1227 10.5313L78.0542 10.9921H80.5186C81.5282 10.9921 82.3497 10.1728 82.3497 9.16578V4.64263C82.3497 3.02112 81.2544 2.83337 80.7924 2.83337Z" fill="white"/>
<path d="M51.6311 11.0261C51.6311 11.3163 51.4087 11.5382 51.1177 11.5382H12.9035V56.0016C12.9035 56.2917 12.681 56.5136 12.3901 56.5136C12.0992 56.5136 11.8767 56.2917 11.8767 56.0016V11.5382H7.25608C6.96516 11.5382 6.74268 11.3163 6.74268 11.0261C6.74268 10.7359 6.96516 10.514 7.25608 10.514H11.8767V5.90555C11.8767 5.61539 12.0992 5.3935 12.3901 5.3935C12.681 5.3935 12.9035 5.61539 12.9035 5.90555V10.514H51.1177C51.4087 10.514 51.6311 10.753 51.6311 11.0261ZM32.3786 70.3561H70.5928V74.9646C70.5928 75.2548 70.8153 75.4767 71.1062 75.4767C71.3971 75.4767 71.6196 75.2548 71.6196 74.9646V70.3561H76.2402C76.5311 70.3561 76.7536 70.1343 76.7536 69.8441C76.7536 69.5539 76.5311 69.332 76.2402 69.332H71.6196V24.8857C71.6196 24.5955 71.3971 24.3737 71.1062 24.3737C70.8153 24.3737 70.5928 24.5955 70.5928 24.8857V69.3491H32.3786C32.0876 69.3491 31.8652 69.571 31.8652 69.8612C31.8652 70.1513 32.0876 70.3561 32.3786 70.3561ZM27.7751 69.9124C27.7751 70.7487 27.1761 71.6534 26.0466 71.6534H21.7682C21.9052 71.9094 21.9736 72.1995 21.9736 72.5068C21.9736 73.4967 21.2035 74.299 20.228 74.3843C20.3649 74.6403 20.4334 74.9305 20.4334 75.2548C20.4334 76.2106 19.7146 76.9958 18.7905 77.1153C18.9274 77.3713 19.013 77.6785 19.013 77.9858C19.013 79.0269 18.1744 79.8633 17.1305 79.8633H14.0843C13.6565 79.8633 13.28 79.7267 12.9548 79.4878C12.0649 79.8292 11.1237 79.9998 10.1654 79.9998C8.36845 79.9998 6.50309 79.4195 4.77464 78.2759H2.20763C0.85567 78.2759 0 77.3372 0 75.8181V71.3632C0 69.9977 1.11237 68.8883 2.48144 68.8883H4.80887C5.4934 67.4204 7.03361 66.7376 9.08722 65.833L9.24124 65.7647C11.021 64.9796 10.9697 63.3751 10.9355 62.2145C10.9184 61.5829 10.9012 61.1392 11.2093 60.849C11.5173 60.5588 12.0307 60.4394 12.5784 60.5076C12.9891 60.5588 13.7763 60.7807 14.3239 61.6683C15.1111 62.9655 14.94 65.1673 14.3068 66.4475C14.0672 66.9424 14.033 67.4033 14.2041 67.6764C14.3924 67.9666 14.8031 68.0178 15.1111 68.0178H25.6701C26.4915 68.0178 26.9878 68.325 27.2617 68.581C27.5868 68.9565 27.7751 69.4174 27.7751 69.9124ZM18.0033 77.9858C18.0033 77.5078 17.6097 77.1323 17.1476 77.1323H14.0843C13.6052 77.1323 13.2287 77.5249 13.2287 77.9858C13.2287 78.4466 13.6223 78.8392 14.0843 78.8392H17.1476C17.6268 78.8562 18.0033 78.4637 18.0033 77.9858ZM19.4237 75.2548C19.4237 74.7769 19.0301 74.4014 18.568 74.4014H14.2383H14.0843C13.6052 74.4014 13.2287 74.794 13.2287 75.2548C13.2287 75.7157 13.6223 76.1082 14.0843 76.1082H17.1476H18.568C19.0301 76.1082 19.4237 75.7327 19.4237 75.2548ZM20.0911 71.6534H17.8664H14.2383C13.8619 71.6534 13.5367 71.8923 13.434 72.2337C13.4169 72.302 13.3998 72.3702 13.3998 72.4214C13.3998 72.4556 13.3998 72.4726 13.3998 72.5068C13.3998 72.9847 13.7934 73.3602 14.2555 73.3602H18.5852H20.1082C20.5874 73.3602 20.9639 72.9676 20.9639 72.5068C20.9639 72.0459 20.5703 71.6534 20.0911 71.6534ZM26.7482 69.9124C26.7482 69.6905 26.6627 69.5027 26.5087 69.3491C26.3204 69.1613 26.0124 69.0589 25.6359 69.0589H15.094C14.0501 69.0589 13.5538 68.6152 13.3142 68.2397C12.9548 67.6593 12.972 66.8571 13.3656 66.0208C13.8619 64.9966 13.9988 63.1532 13.434 62.2145C13.126 61.7024 12.6981 61.5659 12.4586 61.5317C12.219 61.4976 12.0478 61.5317 11.9623 61.5659C11.9452 61.7024 11.9623 61.9755 11.9623 62.1803C11.9965 63.3922 12.0649 65.6282 9.65196 66.7035L9.49794 66.7718C6.67423 68.0348 5.37361 68.5981 5.44206 71.0389C5.44206 71.329 5.21959 71.5509 4.94577 71.568C4.65485 71.568 4.43237 71.3461 4.41526 71.073C4.39814 70.6463 4.43237 70.2708 4.48371 69.9294H2.48144C1.67711 69.9294 1.0268 70.578 1.0268 71.3803V75.8351C1.0268 76.4837 1.23216 77.2689 2.20763 77.2689H5.09979L5.2367 77.3542C8.33423 79.4878 10.9697 79.1123 12.3216 78.6514C12.2532 78.4466 12.2019 78.2247 12.2019 78.0028C12.2019 77.4566 12.4243 76.9787 12.8008 76.6373C12.4414 76.296 12.2019 75.801 12.2019 75.2719C12.2019 75.1353 12.219 74.9988 12.2532 74.8622C11.6542 75.6303 10.8841 76.2789 9.97711 76.7056C9.90866 76.7398 9.82309 76.7568 9.75464 76.7568C9.56639 76.7568 9.37814 76.6544 9.29258 76.4667C9.17278 76.2106 9.27546 75.9034 9.53217 75.7839C10.9697 75.1012 11.9965 73.7869 12.373 72.2849C12.3901 72.1825 12.4072 72.063 12.4414 71.9606C12.4928 71.6534 12.527 71.3461 12.527 71.0389C12.527 70.6805 12.4928 70.322 12.4243 69.9806C12.373 69.7075 12.5441 69.4344 12.8179 69.3832C13.0918 69.332 13.3656 69.5027 13.4169 69.7758C13.4854 70.1001 13.5196 70.4415 13.5367 70.7829C13.7592 70.6975 13.9816 70.6463 14.2383 70.6463H17.8664H20.0911H26.0466C26.6113 70.6292 26.7482 70.1855 26.7482 69.9124ZM83 4.64248V9.09736C83 10.4628 81.8876 11.5723 80.5186 11.5723H78.1911C77.5066 13.0402 75.9664 13.7229 73.9128 14.6275L73.7588 14.6958C71.979 15.481 72.0303 17.0854 72.0645 18.2461C72.0816 18.8776 72.0988 19.3214 71.7907 19.6115C71.5511 19.8505 71.1404 19.97 70.7126 19.97C70.6099 19.97 70.5243 19.97 70.4217 19.9529C70.0109 19.9017 69.2237 19.6798 68.6761 18.7923C67.8889 17.4951 68.06 15.2932 68.6932 14.0131C68.9328 13.5181 68.967 13.0572 68.7959 12.7842C68.6076 12.494 68.1969 12.4428 67.8889 12.4428H57.3299C56.5085 12.4428 56.0122 12.1355 55.7384 11.8795C55.379 11.5382 55.1907 11.0773 55.1907 10.5823C55.1907 9.74596 55.7897 8.84133 56.9192 8.84133H61.728C61.5911 8.5853 61.5227 8.29514 61.5227 7.98791C61.5227 6.99793 62.2928 6.19572 63.2682 6.11037C63.1313 5.85435 63.0629 5.56418 63.0629 5.23988C63.0629 4.28404 63.7817 3.49889 64.7058 3.37942C64.5689 3.12339 64.4833 2.81616 64.4833 2.50892C64.4833 1.50188 65.2876 0.682595 66.2802 0.631389C70.7639 -0.802363 75.453 0.375362 78.2083 2.21876H80.7924C82.1443 2.20169 83 3.14046 83 4.64248ZM81.9732 4.64248C81.9732 3.46476 81.34 3.20873 80.7924 3.20873H77.9002L77.7633 3.12339C75.8637 1.82618 71.3629 0.0339923 66.5369 1.60429C66.5198 1.60429 66.5198 1.60429 66.5027 1.60429C66.4856 1.60429 66.4685 1.60429 66.4513 1.62136C66.4342 1.62136 66.4171 1.62136 66.4 1.62136C66.3829 1.62136 66.3829 1.62136 66.3829 1.62136C65.9037 1.62136 65.5272 2.01394 65.5272 2.47479C65.5272 2.93563 65.9208 3.32821 66.3829 3.32821V3.39648C66.554 3.48183 66.6909 3.65251 66.6909 3.85733C66.6909 4.06215 66.5711 4.24991 66.3829 4.31818V4.36939H66.1775H64.9625C64.4833 4.36939 64.1068 4.76196 64.1068 5.22281C64.1068 5.68366 64.5004 6.07624 64.9625 6.07624H66.0064H66.1604C66.4513 6.07624 66.6738 6.29813 66.6738 6.58829C66.6738 6.87845 66.4513 7.10034 66.1604 7.10034H66.0064H64.9625H63.4394C62.9602 7.10034 62.5837 7.49292 62.5837 7.95377C62.5837 8.41462 62.9773 8.80719 63.4394 8.80719H65.1507H66.0235C66.3144 8.80719 66.5369 9.02908 66.5369 9.31925C66.5369 9.60941 66.3144 9.8313 66.0235 9.8313H65.1507H63.4394H56.9534C56.4058 9.8313 56.2518 10.2751 56.2518 10.5482C56.2518 10.7701 56.3373 10.9578 56.4913 11.1114C56.6796 11.2992 56.9876 11.4016 57.3641 11.4016H67.9231C68.967 11.4016 69.4633 11.8454 69.7029 12.2209C70.0623 12.8012 70.0452 13.6034 69.6516 14.4398C69.1553 15.4639 69.0184 17.3073 69.5831 18.2461C69.8911 18.7581 70.319 18.8947 70.5586 18.9288C70.7981 18.9629 70.9693 18.9288 71.0548 18.8947C71.072 18.7581 71.0548 18.485 71.0548 18.2802C71.0206 17.0683 70.9522 14.8324 73.3652 13.7571L73.5192 13.6888C76.3429 12.4257 77.6435 11.8625 77.5751 9.42166C77.5751 9.13149 77.7975 8.9096 78.0713 8.89254C78.3623 8.89254 78.5847 9.11443 78.6019 9.38752C78.619 9.81423 78.5847 10.1897 78.5334 10.5311H80.5528C81.3571 10.5311 82.0074 9.88251 82.0074 9.08029V4.64248H81.9732Z" fill="black"/>
<path d="M62.9431 16.1809H19.8687C18.568 16.1809 17.5241 17.2392 17.5241 18.5193V61.4807C17.5241 62.7779 18.5852 63.819 19.8687 63.819H62.926C64.2266 63.819 65.2705 62.7608 65.2876 61.4807V18.5193C65.2876 17.2221 64.2266 16.1809 62.9431 16.1809Z" fill="white"/>
<path d="M37.2901 76.9618C37.2901 77.3885 37.1361 77.7299 36.828 77.9859C36.52 78.2419 36.0751 78.3614 35.5274 78.3614C34.9456 78.3614 34.4835 78.2761 34.1584 78.1225V77.5251C34.3637 77.6104 34.6033 77.6787 34.8429 77.7469C35.0825 77.8152 35.3221 77.8323 35.5445 77.8323C35.921 77.8323 36.1949 77.764 36.3831 77.6104C36.5713 77.4568 36.6569 77.269 36.6569 77.0301C36.6569 76.8594 36.6227 76.7228 36.5542 76.6204C36.4858 76.518 36.366 76.4156 36.212 76.3303C36.0579 76.2449 35.8184 76.1254 35.4932 76.023C35.0311 75.8523 34.706 75.6646 34.5006 75.4256C34.2953 75.2037 34.2097 74.9136 34.2097 74.5381C34.2097 74.1455 34.3637 73.8383 34.6546 73.6164C34.9456 73.3945 35.3221 73.275 35.8012 73.275C36.2975 73.275 36.7596 73.3603 37.1703 73.5481L36.9821 74.0772C36.5542 73.9065 36.1606 73.8212 35.8012 73.8212C35.5103 73.8212 35.2707 73.8895 35.1167 74.0089C34.9456 74.1284 34.86 74.3162 34.86 74.5381C34.86 74.7088 34.8942 74.8282 34.9627 74.9477C35.0311 75.0672 35.1338 75.1525 35.2707 75.2379C35.4076 75.3232 35.6472 75.4256 35.9553 75.5451C36.3318 75.6817 36.6056 75.8182 36.7767 75.9377C36.965 76.0572 37.0847 76.2108 37.1703 76.3815C37.2559 76.5522 37.2901 76.7399 37.2901 76.9618ZM40.4219 73.8212C39.8913 73.8212 39.4635 73.9919 39.1555 74.3503C38.8474 74.7088 38.6934 75.1867 38.6934 75.8182C38.6934 76.4497 38.8474 76.9447 39.1384 77.3032C39.4293 77.6445 39.8571 77.8152 40.4047 77.8152C40.7641 77.8152 41.1577 77.7469 41.6027 77.6104V78.1566C41.3973 78.2249 41.192 78.2931 40.9866 78.3102C40.7812 78.3273 40.5759 78.3443 40.3192 78.3443C39.5833 78.3443 39.0186 78.1225 38.625 77.6787C38.2313 77.2349 38.026 76.6034 38.026 75.8011C38.026 75.2891 38.1287 74.8453 38.3169 74.4527C38.5052 74.0772 38.779 73.77 39.1384 73.5652C39.4977 73.3603 39.9256 73.2579 40.4219 73.2579C40.9524 73.2579 41.3973 73.3603 41.7909 73.5481L41.5342 74.0772C41.1577 73.9065 40.7812 73.8212 40.4219 73.8212ZM45.8126 78.2931L45.2136 76.757H43.2456L42.6466 78.2931H42.0134L43.9472 73.3262H44.512L46.4458 78.2931H45.8126ZM45.0254 76.2108L44.4606 74.7088L44.221 73.9748C44.1526 74.2479 44.0841 74.4869 43.9986 74.7088L43.4338 76.2108H45.0254ZM51.0835 78.2931H50.3476L47.6951 74.1796H47.6608L47.6779 74.4527C47.7122 74.8624 47.7122 75.2208 47.7122 75.528V78.2931H47.1303V73.3433H47.8491L48.0031 73.5822L49.6289 76.0913L50.5017 77.4397H50.5359C50.5359 77.3885 50.5188 77.1837 50.5017 76.8594C50.4845 76.518 50.4845 76.2791 50.4845 76.1425V73.3433H51.0664V78.2931H51.0835ZM56.4229 78.2931L54.78 73.9577H54.7629C54.7971 74.3162 54.8142 74.76 54.8142 75.2891V78.2931H54.2324V73.3433H55.1565L56.6967 77.4056H56.7309L58.2883 73.3433H59.2124V78.2931H58.5963V75.2549C58.5963 74.9136 58.6134 74.4869 58.6476 73.9577H58.6134L56.9534 78.2931H56.4229ZM63.3196 78.2931H60.5472V73.3433H63.3196V73.8895H61.1633V75.4427H63.1827V75.9889H61.1633V77.764H63.3196V78.2931Z" fill="black"/>
</svg>
