<svg width="80" height="72" viewBox="0 0 80 72" fill="none" xmlns="http://www.w3.org/2000/svg">
<g clip-path="url(#clip0)">
<path d="M79.8816 63.0074L77.7104 58.0446C77.3156 57.1712 77.3156 56.1786 77.7104 55.3052L79.8618 50.3424C80.1974 49.5682 79.6447 48.7146 78.796 48.7146H67.5253V55.8015H12.455V48.7146H1.18432C0.355304 48.7146 -0.217112 49.5881 0.118442 50.3424L2.26993 55.3052C2.64497 56.1786 2.64497 57.1712 2.26993 58.0446L0.0987036 63.0074C-0.23685 63.7816 0.315827 64.655 1.16458 64.655H6.82952V68.7444C6.82952 70.5508 8.29017 72 10.0469 72H69.9531C71.7296 72 73.1705 70.531 73.1705 68.7444V64.655H78.8354C79.6842 64.655 80.2171 63.7816 79.8816 63.0074Z" fill="black"/>
<path d="M24.9099 65.8461C24.9099 66.4218 24.7126 66.8585 24.2981 67.196C23.8835 67.5334 23.3111 67.6923 22.5808 67.6923C21.811 67.6923 21.2189 67.593 20.7846 67.3746V66.5806C21.0609 66.6997 21.357 66.7989 21.6926 66.8585C22.0281 66.9181 22.3242 66.9578 22.6203 66.9578C23.1137 66.9578 23.469 66.8585 23.7256 66.6798C23.9822 66.5012 24.1007 66.2233 24.1007 65.9057C24.1007 65.6873 24.0612 65.5086 23.9625 65.3697C23.8638 65.2307 23.7256 65.0918 23.5085 64.9726C23.2914 64.8535 22.9756 64.7146 22.5611 64.5558C21.9492 64.3374 21.5347 64.0793 21.2583 63.7816C21.0017 63.4838 20.8636 63.0868 20.8636 62.6104C20.8636 62.0942 21.0609 61.6972 21.436 61.3994C21.811 61.1017 22.3242 60.9429 22.9361 60.9429C23.5875 60.9429 24.1796 61.062 24.7323 61.32L24.4757 62.0347C23.923 61.7965 23.3901 61.6774 22.9164 61.6774C22.5216 61.6774 22.2255 61.7568 22.0084 61.9354C21.7913 62.0942 21.6728 62.3324 21.6728 62.6302C21.6728 62.8486 21.7123 63.0272 21.7913 63.1662C21.8702 63.3052 22.0084 63.4441 22.2058 63.5632C22.4032 63.6823 22.6992 63.8213 23.094 63.9602C23.5875 64.1389 23.9428 64.3176 24.1796 64.4764C24.4165 64.655 24.5941 64.8337 24.7126 65.0521C24.8507 65.2704 24.9099 65.5285 24.9099 65.8461ZM29.0155 61.6575C28.305 61.6575 27.772 61.8957 27.3575 62.3722C26.9627 62.8486 26.7456 63.4838 26.7456 64.3176C26.7456 65.1712 26.943 65.8262 27.3378 66.2828C27.7325 66.7394 28.2852 66.9776 28.9958 66.9776C29.4695 66.9776 29.9827 66.8982 30.5551 66.7195V67.4342C30.2788 67.5334 30.0222 67.6128 29.7656 67.6525C29.509 67.6922 29.2129 67.7121 28.8774 67.7121C27.9102 67.7121 27.1799 67.4143 26.6667 66.8387C26.1535 66.2431 25.8969 65.4094 25.8969 64.3374C25.8969 63.6625 26.0153 63.0669 26.2719 62.5707C26.5285 62.0545 26.8838 61.6774 27.3575 61.3994C27.8312 61.1215 28.3839 60.9826 29.0353 60.9826C29.7261 60.9826 30.3183 61.1017 30.8315 61.3597L30.4959 62.0545C29.963 61.7965 29.4695 61.6575 29.0155 61.6575ZM36.0819 67.593L35.2924 65.5682H32.7066L31.9368 67.593H31.1078L33.6541 61.0024H34.4041L36.9504 67.593H36.0819ZM35.0555 64.8337L34.3252 62.8486L34.0094 61.8759C33.9107 62.2332 33.8317 62.5707 33.733 62.8486L32.983 64.8337H35.0555ZM42.9904 67.593H42.0429L38.5492 62.1538H38.5097L38.5295 62.5111C38.569 63.0471 38.5887 63.5235 38.5887 63.9205V67.593H37.8386V61.0421H38.7861L38.9835 61.3597L41.1152 64.6947L42.26 66.4813H42.2995C42.2995 66.4019 42.2798 66.1439 42.26 65.7071C42.2403 65.2704 42.2403 64.9528 42.2403 64.7543V61.062H43.0101V67.593H42.9904ZM50.0173 67.593L47.8658 61.8362H47.8263C47.8658 62.3126 47.8855 62.9081 47.8855 63.6029V67.5731H47.1354V61.0223H48.3395L50.3528 66.4019H50.3923L52.4451 61.0223H53.6491V67.5731H52.8399V63.5434C52.8399 63.0868 52.8596 62.531 52.8991 61.8362H52.8596L50.6884 67.5731H50.0173V67.593ZM59.0772 67.593H55.4256V61.0421H59.0772V61.7766H56.2546V63.8213H58.9193V64.5359H56.2546V66.8784H59.0772V67.593Z" fill="white"/>
<path d="M67.545 3.11658C67.545 1.60789 66.3212 0.396973 64.8408 0.396973H15.1591C13.659 0.396973 12.455 1.62774 12.455 3.11658V55.8014H67.545V3.11658Z" fill="white"/>
<path d="M66.4397 1.52856H13.5998V54.67H66.4397V1.52856Z" fill="white"/>
<path opacity="0.25" d="M35.8056 6.84863H34.1081V8.55583H35.8056V6.84863Z" fill="black"/>
<path opacity="0.25" d="M44.2536 6.84863H42.5561V8.55583H44.2536V6.84863Z" fill="black"/>
<path opacity="0.25" d="M47.6289 6.84863H45.9314V8.55583H47.6289V6.84863Z" fill="black"/>
<path opacity="0.25" d="M34.1081 8.53601H32.4106V10.2432H34.1081V8.53601Z" fill="black"/>
<path opacity="0.25" d="M35.8056 8.53601H34.1081V10.2432H35.8056V8.53601Z" fill="black"/>
<path opacity="0.25" d="M39.1808 8.53601H37.4833V10.2432H39.1808V8.53601Z" fill="black"/>
<path opacity="0.25" d="M40.8784 8.53601H39.1808V10.2432H40.8784V8.53601Z" fill="black"/>
<path opacity="0.25" d="M42.5561 8.53601H40.8586V10.2432H42.5561V8.53601Z" fill="black"/>
<path opacity="0.25" d="M44.2536 8.53601H42.5561V10.2432H44.2536V8.53601Z" fill="black"/>
<path opacity="0.25" d="M35.8056 10.2432H34.1081V11.9504H35.8056V10.2432Z" fill="black"/>
<path opacity="0.25" d="M37.4834 10.2432H35.7859V11.9504H37.4834V10.2432Z" fill="black"/>
<path opacity="0.25" d="M39.1808 10.2432H37.4833V11.9504H39.1808V10.2432Z" fill="black"/>
<path opacity="0.25" d="M34.1081 11.9504H32.4106V13.6576H34.1081V11.9504Z" fill="black"/>
<path opacity="0.25" d="M35.8056 11.9504H34.1081V13.6576H35.8056V11.9504Z" fill="black"/>
<path opacity="0.25" d="M39.1808 11.9504H37.4833V13.6576H39.1808V11.9504Z" fill="black"/>
<path opacity="0.25" d="M42.5561 11.9504H40.8586V13.6576H42.5561V11.9504Z" fill="black"/>
<path opacity="0.25" d="M45.9511 11.9504H44.2536V13.6576H45.9511V11.9504Z" fill="black"/>
<path opacity="0.25" d="M47.6289 11.9504H45.9314V13.6576H47.6289V11.9504Z" fill="black"/>
<path opacity="0.25" d="M37.4834 13.6377H35.7859V15.3449H37.4834V13.6377Z" fill="black"/>
<path opacity="0.25" d="M40.8784 13.6377H39.1808V15.3449H40.8784V13.6377Z" fill="black"/>
<path opacity="0.25" d="M45.9511 13.6377H44.2536V15.3449H45.9511V13.6377Z" fill="black"/>
<path opacity="0.25" d="M47.6289 13.6377H45.9314V15.3449H47.6289V13.6377Z" fill="black"/>
<path opacity="0.25" d="M34.1081 15.3448H32.4106V17.052H34.1081V15.3448Z" fill="black"/>
<path opacity="0.25" d="M37.4834 15.3448H35.7859V17.052H37.4834V15.3448Z" fill="black"/>
<path opacity="0.25" d="M42.5561 15.3448H40.8586V17.052H42.5561V15.3448Z" fill="black"/>
<path opacity="0.25" d="M44.2536 15.3448H42.5561V17.052H44.2536V15.3448Z" fill="black"/>
<path opacity="0.25" d="M45.9511 15.3448H44.2536V17.052H45.9511V15.3448Z" fill="black"/>
<path opacity="0.25" d="M34.1081 17.0521H32.4106V18.7593H34.1081V17.0521Z" fill="black"/>
<path opacity="0.25" d="M37.4834 17.0521H35.7859V18.7593H37.4834V17.0521Z" fill="black"/>
<path opacity="0.25" d="M40.8784 17.0521H39.1808V18.7593H40.8784V17.0521Z" fill="black"/>
<path opacity="0.25" d="M44.2536 17.0521H42.5561V18.7593H44.2536V17.0521Z" fill="black"/>
<path opacity="0.25" d="M47.6289 17.0521H45.9314V18.7593H47.6289V17.0521Z" fill="black"/>
<path opacity="0.25" d="M40.8784 18.7394H39.1808V20.4466H40.8784V18.7394Z" fill="black"/>
<path opacity="0.25" d="M47.6289 18.7394H45.9314V20.4466H47.6289V18.7394Z" fill="black"/>
<path opacity="0.25" d="M20.5872 20.4467H18.8897V22.1539H20.5872V20.4467Z" fill="black"/>
<path opacity="0.25" d="M22.265 20.4467H20.5675V22.1539H22.265V20.4467Z" fill="black"/>
<path opacity="0.25" d="M23.9625 20.4467H22.265V22.1539H23.9625V20.4467Z" fill="black"/>
<path opacity="0.25" d="M25.66 20.4467H23.9625V22.1539H25.66V20.4467Z" fill="black"/>
<path opacity="0.25" d="M27.3378 20.4467H25.6403V22.1539H27.3378V20.4467Z" fill="black"/>
<path opacity="0.25" d="M30.7328 20.4467H29.0353V22.1539H30.7328V20.4467Z" fill="black"/>
<path opacity="0.25" d="M32.4105 20.4467H30.713V22.1539H32.4105V20.4467Z" fill="black"/>
<path opacity="0.25" d="M34.1081 20.4467H32.4106V22.1539H34.1081V20.4467Z" fill="black"/>
<path opacity="0.25" d="M35.8056 20.4467H34.1081V22.1539H35.8056V20.4467Z" fill="black"/>
<path opacity="0.25" d="M37.4834 20.4467H35.7859V22.1539H37.4834V20.4467Z" fill="black"/>
<path opacity="0.25" d="M40.8784 20.4467H39.1808V22.1539H40.8784V20.4467Z" fill="black"/>
<path opacity="0.25" d="M42.5561 20.4467H40.8586V22.1539H42.5561V20.4467Z" fill="black"/>
<path opacity="0.25" d="M45.9511 20.4467H44.2536V22.1539H45.9511V20.4467Z" fill="black"/>
<path opacity="0.25" d="M49.3264 20.4467H47.6289V22.1539H49.3264V20.4467Z" fill="black"/>
<path opacity="0.25" d="M52.7017 20.4467H51.0042V22.1539H52.7017V20.4467Z" fill="black"/>
<path opacity="0.25" d="M56.0967 20.4467H54.3992V22.1539H56.0967V20.4467Z" fill="black"/>
<path opacity="0.25" d="M59.472 20.4467H57.7745V22.1539H59.472V20.4467Z" fill="black"/>
<path opacity="0.25" d="M25.66 22.1538H23.9625V23.861H25.66V22.1538Z" fill="black"/>
<path opacity="0.25" d="M35.8056 22.1538H34.1081V23.861H35.8056V22.1538Z" fill="black"/>
<path opacity="0.25" d="M45.9511 22.1538H44.2536V23.861H45.9511V22.1538Z" fill="black"/>
<path opacity="0.25" d="M47.6289 22.1538H45.9314V23.861H47.6289V22.1538Z" fill="black"/>
<path opacity="0.25" d="M49.3264 22.1538H47.6289V23.861H49.3264V22.1538Z" fill="black"/>
<path opacity="0.25" d="M52.7017 22.1538H51.0042V23.861H52.7017V22.1538Z" fill="black"/>
<path opacity="0.25" d="M54.3992 22.1538H52.7017V23.861H54.3992V22.1538Z" fill="black"/>
<path opacity="0.25" d="M61.1695 22.1538H59.472V23.861H61.1695V22.1538Z" fill="black"/>
<path opacity="0.25" d="M23.9625 23.8412H22.265V25.5484H23.9625V23.8412Z" fill="black"/>
<path opacity="0.25" d="M29.0353 23.8412H27.3378V25.5484H29.0353V23.8412Z" fill="black"/>
<path opacity="0.25" d="M30.7328 23.8412H29.0353V25.5484H30.7328V23.8412Z" fill="black"/>
<path opacity="0.25" d="M32.4105 23.8412H30.713V25.5484H32.4105V23.8412Z" fill="black"/>
<path opacity="0.25" d="M35.8056 23.8412H34.1081V25.5484H35.8056V23.8412Z" fill="black"/>
<path opacity="0.25" d="M39.1808 23.8412H37.4833V25.5484H39.1808V23.8412Z" fill="black"/>
<path opacity="0.25" d="M40.8784 23.8412H39.1808V25.5484H40.8784V23.8412Z" fill="black"/>
<path opacity="0.25" d="M42.5561 23.8412H40.8586V25.5484H42.5561V23.8412Z" fill="black"/>
<path opacity="0.25" d="M44.2536 23.8412H42.5561V25.5484H44.2536V23.8412Z" fill="black"/>
<path opacity="0.25" d="M45.9511 23.8412H44.2536V25.5484H45.9511V23.8412Z" fill="black"/>
<path opacity="0.25" d="M49.3264 23.8412H47.6289V25.5484H49.3264V23.8412Z" fill="black"/>
<path opacity="0.25" d="M51.0239 23.8412H49.3264V25.5484H51.0239V23.8412Z" fill="black"/>
<path opacity="0.25" d="M54.3992 23.8412H52.7017V25.5484H54.3992V23.8412Z" fill="black"/>
<path opacity="0.25" d="M57.7745 23.8412H56.077V25.5484H57.7745V23.8412Z" fill="black"/>
<path opacity="0.25" d="M20.5872 25.5485H18.8897V27.2557H20.5872V25.5485Z" fill="black"/>
<path opacity="0.25" d="M23.9625 25.5485H22.265V27.2557H23.9625V25.5485Z" fill="black"/>
<path opacity="0.25" d="M25.66 25.5485H23.9625V27.2557H25.66V25.5485Z" fill="black"/>
<path opacity="0.25" d="M27.3378 25.5485H25.6403V27.2557H27.3378V25.5485Z" fill="black"/>
<path opacity="0.25" d="M29.0353 25.5485H27.3378V27.2557H29.0353V25.5485Z" fill="black"/>
<path opacity="0.25" d="M32.4105 25.5485H30.713V27.2557H32.4105V25.5485Z" fill="black"/>
<path opacity="0.25" d="M34.1081 25.5485H32.4106V27.2557H34.1081V25.5485Z" fill="black"/>
<path opacity="0.25" d="M35.8056 25.5485H34.1081V27.2557H35.8056V25.5485Z" fill="black"/>
<path opacity="0.25" d="M37.4834 25.5485H35.7859V27.2557H37.4834V25.5485Z" fill="black"/>
<path opacity="0.25" d="M39.1808 25.5485H37.4833V27.2557H39.1808V25.5485Z" fill="black"/>
<path opacity="0.25" d="M44.2536 25.5485H42.5561V27.2557H44.2536V25.5485Z" fill="black"/>
<path opacity="0.25" d="M47.6289 25.5485H45.9314V27.2557H47.6289V25.5485Z" fill="black"/>
<path opacity="0.25" d="M49.3264 25.5485H47.6289V27.2557H49.3264V25.5485Z" fill="black"/>
<path opacity="0.25" d="M20.5872 27.2555H18.8897V28.9627H20.5872V27.2555Z" fill="black"/>
<path opacity="0.25" d="M25.66 27.2555H23.9625V28.9627H25.66V27.2555Z" fill="black"/>
<path opacity="0.25" d="M30.7328 27.2555H29.0353V28.9627H30.7328V27.2555Z" fill="black"/>
<path opacity="0.25" d="M35.8056 27.2555H34.1081V28.9627H35.8056V27.2555Z" fill="black"/>
<path opacity="0.25" d="M39.1808 27.2555H37.4833V28.9627H39.1808V27.2555Z" fill="black"/>
<path opacity="0.25" d="M42.5561 27.2555H40.8586V28.9627H42.5561V27.2555Z" fill="black"/>
<path opacity="0.25" d="M45.9511 27.2555H44.2536V28.9627H45.9511V27.2555Z" fill="black"/>
<path opacity="0.25" d="M51.0239 27.2555H49.3264V28.9627H51.0239V27.2555Z" fill="black"/>
<path opacity="0.25" d="M52.7017 27.2555H51.0042V28.9627H52.7017V27.2555Z" fill="black"/>
<path opacity="0.25" d="M54.3992 27.2555H52.7017V28.9627H54.3992V27.2555Z" fill="black"/>
<path opacity="0.25" d="M56.0967 27.2555H54.3992V28.9627H56.0967V27.2555Z" fill="black"/>
<path opacity="0.25" d="M59.472 27.2555H57.7745V28.9627H59.472V27.2555Z" fill="black"/>
<path opacity="0.25" d="M61.1695 27.2555H59.472V28.9627H61.1695V27.2555Z" fill="black"/>
<path opacity="0.25" d="M20.5872 28.9429H18.8897V30.6501H20.5872V28.9429Z" fill="black"/>
<path opacity="0.25" d="M22.265 28.9429H20.5675V30.6501H22.265V28.9429Z" fill="black"/>
<path opacity="0.25" d="M25.66 28.9429H23.9625V30.6501H25.66V28.9429Z" fill="black"/>
<path opacity="0.25" d="M32.4105 28.9429H30.713V30.6501H32.4105V28.9429Z" fill="black"/>
<path opacity="0.25" d="M37.4834 28.9429H35.7859V30.6501H37.4834V28.9429Z" fill="black"/>
<path opacity="0.25" d="M40.8784 28.9429H39.1808V30.6501H40.8784V28.9429Z" fill="black"/>
<path opacity="0.25" d="M44.2536 28.9429H42.5561V30.6501H44.2536V28.9429Z" fill="black"/>
<path opacity="0.25" d="M47.6289 28.9429H45.9314V30.6501H47.6289V28.9429Z" fill="black"/>
<path opacity="0.25" d="M49.3264 28.9429H47.6289V30.6501H49.3264V28.9429Z" fill="black"/>
<path opacity="0.25" d="M51.0239 28.9429H49.3264V30.6501H51.0239V28.9429Z" fill="black"/>
<path opacity="0.25" d="M52.7017 28.9429H51.0042V30.6501H52.7017V28.9429Z" fill="black"/>
<path opacity="0.25" d="M54.3992 28.9429H52.7017V30.6501H54.3992V28.9429Z" fill="black"/>
<path opacity="0.25" d="M20.5872 30.6501H18.8897V32.3573H20.5872V30.6501Z" fill="black"/>
<path opacity="0.25" d="M23.9625 30.6501H22.265V32.3573H23.9625V30.6501Z" fill="black"/>
<path opacity="0.25" d="M25.66 30.6501H23.9625V32.3573H25.66V30.6501Z" fill="black"/>
<path opacity="0.25" d="M27.3378 30.6501H25.6403V32.3573H27.3378V30.6501Z" fill="black"/>
<path opacity="0.25" d="M30.7328 30.6501H29.0353V32.3573H30.7328V30.6501Z" fill="black"/>
<path opacity="0.25" d="M32.4105 30.6501H30.713V32.3573H32.4105V30.6501Z" fill="black"/>
<path opacity="0.25" d="M42.5561 30.6501H40.8586V32.3573H42.5561V30.6501Z" fill="black"/>
<path opacity="0.25" d="M49.3264 30.6501H47.6289V32.3573H49.3264V30.6501Z" fill="black"/>
<path opacity="0.25" d="M51.0239 30.6501H49.3264V32.3573H51.0239V30.6501Z" fill="black"/>
<path opacity="0.25" d="M54.3992 30.6501H52.7017V32.3573H54.3992V30.6501Z" fill="black"/>
<path opacity="0.25" d="M57.7745 30.6501H56.077V32.3573H57.7745V30.6501Z" fill="black"/>
<path opacity="0.25" d="M59.472 30.6501H57.7745V32.3573H59.472V30.6501Z" fill="black"/>
<path opacity="0.25" d="M61.1695 30.6501H59.472V32.3573H61.1695V30.6501Z" fill="black"/>
<path opacity="0.25" d="M20.5872 32.3573H18.8897V34.0645H20.5872V32.3573Z" fill="black"/>
<path opacity="0.25" d="M25.66 32.3573H23.9625V34.0645H25.66V32.3573Z" fill="black"/>
<path opacity="0.25" d="M29.0353 32.3573H27.3378V34.0645H29.0353V32.3573Z" fill="black"/>
<path opacity="0.25" d="M35.8056 32.3573H34.1081V34.0645H35.8056V32.3573Z" fill="black"/>
<path opacity="0.25" d="M37.4834 32.3573H35.7859V34.0645H37.4834V32.3573Z" fill="black"/>
<path opacity="0.25" d="M40.8784 32.3573H39.1808V34.0645H40.8784V32.3573Z" fill="black"/>
<path opacity="0.25" d="M42.5561 32.3573H40.8586V34.0645H42.5561V32.3573Z" fill="black"/>
<path opacity="0.25" d="M44.2536 32.3573H42.5561V34.0645H44.2536V32.3573Z" fill="black"/>
<path opacity="0.25" d="M49.3264 32.3573H47.6289V34.0645H49.3264V32.3573Z" fill="black"/>
<path opacity="0.25" d="M59.472 32.3573H57.7745V34.0645H59.472V32.3573Z" fill="black"/>
<path opacity="0.25" d="M61.1695 32.3573H59.472V34.0645H61.1695V32.3573Z" fill="black"/>
<path opacity="0.25" d="M20.5872 34.0447H18.8897V35.7519H20.5872V34.0447Z" fill="black"/>
<path opacity="0.25" d="M30.7328 34.0447H29.0353V35.7519H30.7328V34.0447Z" fill="black"/>
<path opacity="0.25" d="M37.4834 34.0447H35.7859V35.7519H37.4834V34.0447Z" fill="black"/>
<path opacity="0.25" d="M40.8784 34.0447H39.1808V35.7519H40.8784V34.0447Z" fill="black"/>
<path opacity="0.25" d="M45.9511 34.0447H44.2536V35.7519H45.9511V34.0447Z" fill="black"/>
<path opacity="0.25" d="M47.6289 34.0447H45.9314V35.7519H47.6289V34.0447Z" fill="black"/>
<path opacity="0.25" d="M49.3264 34.0447H47.6289V35.7519H49.3264V34.0447Z" fill="black"/>
<path opacity="0.25" d="M51.0239 34.0447H49.3264V35.7519H51.0239V34.0447Z" fill="black"/>
<path opacity="0.25" d="M52.7017 34.0447H51.0042V35.7519H52.7017V34.0447Z" fill="black"/>
<path opacity="0.25" d="M54.3992 34.0447H52.7017V35.7519H54.3992V34.0447Z" fill="black"/>
<path opacity="0.25" d="M56.0967 34.0447H54.3992V35.7519H56.0967V34.0447Z" fill="black"/>
<path opacity="0.25" d="M61.1695 34.0447H59.472V35.7519H61.1695V34.0447Z" fill="black"/>
<path opacity="0.25" d="M34.1081 35.7518H32.4106V37.459H34.1081V35.7518Z" fill="black"/>
<path opacity="0.25" d="M37.4834 35.7518H35.7859V37.459H37.4834V35.7518Z" fill="black"/>
<path opacity="0.25" d="M44.2536 35.7518H42.5561V37.459H44.2536V35.7518Z" fill="black"/>
<path opacity="0.25" d="M47.6289 35.7518H45.9314V37.459H47.6289V35.7518Z" fill="black"/>
<path opacity="0.25" d="M54.3992 35.7518H52.7017V37.459H54.3992V35.7518Z" fill="black"/>
<path opacity="0.25" d="M61.1695 35.7518H59.472V37.459H61.1695V35.7518Z" fill="black"/>
<path opacity="0.25" d="M34.1081 37.4591H32.4106V39.1663H34.1081V37.4591Z" fill="black"/>
<path opacity="0.25" d="M35.8056 37.4591H34.1081V39.1663H35.8056V37.4591Z" fill="black"/>
<path opacity="0.25" d="M37.4834 37.4591H35.7859V39.1663H37.4834V37.4591Z" fill="black"/>
<path opacity="0.25" d="M39.1808 37.4591H37.4833V39.1663H39.1808V37.4591Z" fill="black"/>
<path opacity="0.25" d="M40.8784 37.4591H39.1808V39.1663H40.8784V37.4591Z" fill="black"/>
<path opacity="0.25" d="M44.2536 37.4591H42.5561V39.1663H44.2536V37.4591Z" fill="black"/>
<path opacity="0.25" d="M47.6289 37.4591H45.9314V39.1663H47.6289V37.4591Z" fill="black"/>
<path opacity="0.25" d="M51.0239 37.4591H49.3264V39.1663H51.0239V37.4591Z" fill="black"/>
<path opacity="0.25" d="M54.3992 37.4591H52.7017V39.1663H54.3992V37.4591Z" fill="black"/>
<path opacity="0.25" d="M57.7745 37.4591H56.077V39.1663H57.7745V37.4591Z" fill="black"/>
<path opacity="0.25" d="M59.472 37.4591H57.7745V39.1663H59.472V37.4591Z" fill="black"/>
<path opacity="0.25" d="M61.1695 37.4591H59.472V39.1663H61.1695V37.4591Z" fill="black"/>
<path opacity="0.25" d="M35.8056 39.1465H34.1081V40.8537H35.8056V39.1465Z" fill="black"/>
<path opacity="0.25" d="M37.4834 39.1465H35.7859V40.8537H37.4834V39.1465Z" fill="black"/>
<path opacity="0.25" d="M39.1808 39.1465H37.4833V40.8537H39.1808V39.1465Z" fill="black"/>
<path opacity="0.25" d="M44.2536 39.1465H42.5561V40.8537H44.2536V39.1465Z" fill="black"/>
<path opacity="0.25" d="M47.6289 39.1465H45.9314V40.8537H47.6289V39.1465Z" fill="black"/>
<path opacity="0.25" d="M54.3992 39.1465H52.7017V40.8537H54.3992V39.1465Z" fill="black"/>
<path opacity="0.25" d="M56.0967 39.1465H54.3992V40.8537H56.0967V39.1465Z" fill="black"/>
<path opacity="0.25" d="M34.1081 40.8535H32.4106V42.5607H34.1081V40.8535Z" fill="black"/>
<path opacity="0.25" d="M35.8056 40.8535H34.1081V42.5607H35.8056V40.8535Z" fill="black"/>
<path opacity="0.25" d="M39.1808 40.8535H37.4833V42.5607H39.1808V40.8535Z" fill="black"/>
<path opacity="0.25" d="M40.8784 40.8535H39.1808V42.5607H40.8784V40.8535Z" fill="black"/>
<path opacity="0.25" d="M42.5561 40.8535H40.8586V42.5607H42.5561V40.8535Z" fill="black"/>
<path opacity="0.25" d="M47.6289 40.8535H45.9314V42.5607H47.6289V40.8535Z" fill="black"/>
<path opacity="0.25" d="M49.3264 40.8535H47.6289V42.5607H49.3264V40.8535Z" fill="black"/>
<path opacity="0.25" d="M51.0239 40.8535H49.3264V42.5607H51.0239V40.8535Z" fill="black"/>
<path opacity="0.25" d="M52.7017 40.8535H51.0042V42.5607H52.7017V40.8535Z" fill="black"/>
<path opacity="0.25" d="M54.3992 40.8535H52.7017V42.5607H54.3992V40.8535Z" fill="black"/>
<path opacity="0.25" d="M56.0967 40.8535H54.3992V42.5607H56.0967V40.8535Z" fill="black"/>
<path opacity="0.25" d="M34.1081 42.5608H32.4106V44.268H34.1081V42.5608Z" fill="black"/>
<path opacity="0.25" d="M35.8056 42.5608H34.1081V44.268H35.8056V42.5608Z" fill="black"/>
<path opacity="0.25" d="M37.4834 42.5608H35.7859V44.268H37.4834V42.5608Z" fill="black"/>
<path opacity="0.25" d="M40.8784 42.5608H39.1808V44.268H40.8784V42.5608Z" fill="black"/>
<path opacity="0.25" d="M45.9511 42.5608H44.2536V44.268H45.9511V42.5608Z" fill="black"/>
<path opacity="0.25" d="M47.6289 42.5608H45.9314V44.268H47.6289V42.5608Z" fill="black"/>
<path opacity="0.25" d="M51.0239 42.5608H49.3264V44.268H51.0239V42.5608Z" fill="black"/>
<path opacity="0.25" d="M54.3992 42.5608H52.7017V44.268H54.3992V42.5608Z" fill="black"/>
<path opacity="0.25" d="M59.472 42.5608H57.7745V44.268H59.472V42.5608Z" fill="black"/>
<path opacity="0.25" d="M61.1695 42.5608H59.472V44.268H61.1695V42.5608Z" fill="black"/>
<path opacity="0.25" d="M34.1081 44.2482H32.4106V45.9554H34.1081V44.2482Z" fill="black"/>
<path opacity="0.25" d="M35.8056 44.2482H34.1081V45.9554H35.8056V44.2482Z" fill="black"/>
<path opacity="0.25" d="M40.8784 44.2482H39.1808V45.9554H40.8784V44.2482Z" fill="black"/>
<path opacity="0.25" d="M42.5561 44.2482H40.8586V45.9554H42.5561V44.2482Z" fill="black"/>
<path opacity="0.25" d="M44.2536 44.2482H42.5561V45.9554H44.2536V44.2482Z" fill="black"/>
<path opacity="0.25" d="M54.3992 44.2482H52.7017V45.9554H54.3992V44.2482Z" fill="black"/>
<path opacity="0.25" d="M57.7745 44.2482H56.077V45.9554H57.7745V44.2482Z" fill="black"/>
<path opacity="0.25" d="M61.1695 44.2482H59.472V45.9554H61.1695V44.2482Z" fill="black"/>
<path opacity="0.25" d="M34.1081 45.9553H32.4106V47.6625H34.1081V45.9553Z" fill="black"/>
<path opacity="0.25" d="M35.8056 45.9553H34.1081V47.6625H35.8056V45.9553Z" fill="black"/>
<path opacity="0.25" d="M37.4834 45.9553H35.7859V47.6625H37.4834V45.9553Z" fill="black"/>
<path opacity="0.25" d="M40.8784 45.9553H39.1808V47.6625H40.8784V45.9553Z" fill="black"/>
<path opacity="0.25" d="M42.5561 45.9553H40.8586V47.6625H42.5561V45.9553Z" fill="black"/>
<path opacity="0.25" d="M47.6289 45.9553H45.9314V47.6625H47.6289V45.9553Z" fill="black"/>
<path opacity="0.25" d="M49.3264 45.9553H47.6289V47.6625H49.3264V45.9553Z" fill="black"/>
<path opacity="0.25" d="M51.0239 45.9553H49.3264V47.6625H51.0239V45.9553Z" fill="black"/>
<path opacity="0.25" d="M52.7017 45.9553H51.0042V47.6625H52.7017V45.9553Z" fill="black"/>
<path opacity="0.25" d="M54.3992 45.9553H52.7017V47.6625H54.3992V45.9553Z" fill="black"/>
<path opacity="0.25" d="M56.0967 45.9553H54.3992V47.6625H56.0967V45.9553Z" fill="black"/>
<path opacity="0.25" d="M59.472 45.9553H57.7745V47.6625H59.472V45.9553Z" fill="black"/>
<path opacity="0.25" d="M34.1081 47.6626H32.4106V49.3698H34.1081V47.6626Z" fill="black"/>
<path opacity="0.25" d="M42.5561 47.6626H40.8586V49.3698H42.5561V47.6626Z" fill="black"/>
<path opacity="0.25" d="M45.9511 47.6626H44.2536V49.3698H45.9511V47.6626Z" fill="black"/>
<path opacity="0.25" d="M57.7745 47.6626H56.077V49.3698H57.7745V47.6626Z" fill="black"/>
<path opacity="0.25" d="M59.472 47.6626H57.7745V49.3698H59.472V47.6626Z" fill="black"/>
<path opacity="0.25" d="M61.1695 47.6626H59.472V49.3698H61.1695V47.6626Z" fill="black"/>
<path opacity="0.25" d="M19.245 6.84859C19.0476 6.84859 18.8897 7.00739 18.8897 7.20591V8.53593V10.2431V11.9503V13.6575V15.3647V17.0719V18.4218C18.8897 18.6203 19.0476 18.7791 19.245 18.7791H30.3578C30.5551 18.7791 30.7131 18.6203 30.7131 18.4218V17.0719V15.3647V13.6575V11.9503V10.2431V8.53593V7.18606C30.7131 6.98754 30.5551 6.82874 30.3578 6.82874C30.3578 6.84859 19.245 6.84859 19.245 6.84859ZM29.0353 10.2431V11.9503V13.6575V15.3647V16.8535C29.0353 16.9727 28.9366 17.0521 28.8379 17.0521H20.8043C20.6859 17.0521 20.607 16.9528 20.607 16.8535V15.3647V13.6575V11.9503V10.2431V8.75429C20.607 8.63519 20.7056 8.55578 20.8043 8.55578H28.8182C28.9366 8.55578 29.0155 8.65504 29.0155 8.75429V10.2431H29.0353Z" fill="black"/>
<path opacity="0.25" d="M27.3378 13.6377V11.9305V10.5806C27.3378 10.3821 27.1799 10.2233 26.9825 10.2233H22.6203C22.4229 10.2233 22.265 10.3821 22.265 10.5806V11.9305V13.6377V14.9875C22.265 15.186 22.4229 15.3449 22.6203 15.3449H26.9825C27.1799 15.3449 27.3378 15.186 27.3378 14.9875V13.6377Z" fill="black"/>
<path opacity="0.25" d="M49.6817 6.84859C49.4843 6.84859 49.3264 7.00739 49.3264 7.20591V8.53593V10.2431V11.9503V13.6575V15.3647V17.0719V18.4218C49.3264 18.6203 49.4843 18.7791 49.6817 18.7791H60.7945C60.9919 18.7791 61.1498 18.6203 61.1498 18.4218V17.0719V15.3647V13.6575V11.9503V10.2431V8.53593V7.18606C61.1498 6.98754 60.9919 6.82874 60.7945 6.82874C60.7945 6.84859 49.6817 6.84859 49.6817 6.84859ZM59.472 10.2431V11.9503V13.6575V15.3647V16.8535C59.472 16.9727 59.3733 17.0521 59.2746 17.0521H51.241C51.1226 17.0521 51.0437 16.9528 51.0437 16.8535V15.3647V13.6575V11.9503V10.2431V8.75429C51.0437 8.63519 51.1424 8.55578 51.241 8.55578H59.2746C59.393 8.55578 59.472 8.65504 59.472 8.75429V10.2431Z" fill="black"/>
<path opacity="0.25" d="M57.7745 13.6377V11.9305V10.5806C57.7745 10.3821 57.6166 10.2233 57.4192 10.2233H53.057C52.8596 10.2233 52.7017 10.3821 52.7017 10.5806V11.9305V13.6377V14.9875C52.7017 15.186 52.8596 15.3449 53.057 15.3449H57.4192C57.6166 15.3449 57.7745 15.186 57.7745 14.9875V13.6377Z" fill="black"/>
<path opacity="0.25" d="M19.245 37.4591C19.0476 37.4591 18.8897 37.6179 18.8897 37.8164V39.1663V40.8735V42.5807V44.2879V45.9951V47.7023V49.0521C18.8897 49.2507 19.0476 49.4095 19.245 49.4095H30.3578C30.5551 49.4095 30.7131 49.2507 30.7131 49.0521V47.7023V45.9951V44.2879V42.5807V40.8735V39.1663V37.8164C30.7131 37.6179 30.5551 37.4591 30.3578 37.4591H19.245ZM29.0353 40.8536V42.5608V44.268V45.9752V47.4641C29.0353 47.5832 28.9366 47.6626 28.8379 47.6626H20.8043C20.6859 47.6626 20.607 47.5633 20.607 47.4641V45.9752V44.268V42.5608V40.8536V39.3648C20.607 39.2457 20.7056 39.1663 20.8043 39.1663H28.8182C28.9366 39.1663 29.0155 39.2656 29.0155 39.3648V40.8536H29.0353Z" fill="black"/>
<path opacity="0.25" d="M27.3378 44.2481V42.5409V41.1911C27.3378 40.9925 27.1799 40.8337 26.9825 40.8337H22.6203C22.4229 40.8337 22.265 40.9925 22.265 41.1911V42.5409V44.2481V45.598C22.265 45.7965 22.4229 45.9553 22.6203 45.9553H26.9825C27.1799 45.9553 27.3378 45.7965 27.3378 45.598V44.2481Z" fill="black"/>
<path opacity="0.35" d="M72.0454 51.2158C71.9072 51.1364 67.545 48.7146 67.545 48.7146V55.0868H12.455V48.7146C12.455 48.7146 8.09278 51.1364 7.95461 51.2158C7.26376 51.6526 6.80978 52.4466 6.79004 53.3201C6.80978 54.6898 7.91513 55.8014 9.27709 55.8014H9.5929H11.6654H12.455H67.545H68.3148H70.4071H70.7229C72.1046 55.8014 73.1902 54.6898 73.21 53.3201C73.1902 52.4466 72.7363 51.6526 72.0454 51.2158Z" fill="white"/>
<path opacity="0.15" d="M78.8354 64.6551H73.21V53.3201C73.1902 52.4466 72.7363 51.6526 72.0454 51.2158C71.9072 51.1364 67.545 48.7146 67.545 48.7146H78.8157C79.6645 48.7146 80.2171 49.5682 79.8816 50.3424L77.7301 55.3052C77.3353 56.1786 77.3353 57.1712 77.7301 58.0446L79.9013 63.0074C80.2171 63.7816 79.6842 64.6551 78.8354 64.6551ZM1.16458 64.6551H6.79004V53.3201C6.80978 52.4466 7.26377 51.6526 7.95461 51.2158C8.09278 51.1364 12.455 48.7146 12.455 48.7146H1.18432C0.335565 48.7146 -0.217112 49.5682 0.118442 50.3424L2.26993 55.3052C2.6647 56.1786 2.6647 57.1712 2.26993 58.0446L0.0987036 63.0074C-0.23685 63.7816 0.315827 64.6551 1.16458 64.6551Z" fill="white"/>
<path d="M12.455 48.7146V3.11663C12.455 1.62779 13.659 0.397022 15.1591 0.397022H64.8408C66.3212 0.397022 67.545 1.60794 67.545 3.11663V48.7146H67.9398V3.11663C67.9398 1.38958 66.5581 0 64.8408 0H15.1591C13.4419 0 12.0602 1.38958 12.0602 3.11663V48.7146H12.455Z" fill="#E6E6E6"/>
</g>
<defs>
<clipPath id="clip0">
<rect width="80" height="72" fill="white"/>
</clipPath>
</defs>
</svg>
