<svg width="63" height="80" viewBox="0 0 63 80" fill="none" xmlns="http://www.w3.org/2000/svg">
<g clip-path="url(#clip0)">
<path d="M60.2209 80H2.77908C1.25507 80 0 78.8063 0 77.3088V63.2665H25.953L31.0854 59.5334C31.3319 59.3598 31.6681 59.3598 31.9146 59.5334L37.047 63.2665H63V77.3088C63 78.8063 61.7673 80 60.2209 80Z" fill="black"/>
<path d="M59.7054 0H3.29456C1.47919 0 0 1.43245 0 3.19045V63.2881H0.22412H0.448239H25.953L31.0854 59.5551C31.3319 59.3814 31.6681 59.3814 31.9146 59.5551L37.047 63.2881H62.5518H62.7759H63V3.19045C63 1.43245 61.5208 0 59.7054 0Z" fill="white"/>
<path d="M61.5208 1.32397H1.52402V59.4249H61.5208V1.32397Z" fill="white"/>
<path opacity="0.25" d="M26.724 7.13403H24.8033V8.99404H26.724V7.13403Z" fill="black"/>
<path opacity="0.25" d="M36.3231 7.13403H34.4023V8.99404H36.3231V7.13403Z" fill="black"/>
<path opacity="0.25" d="M40.1622 7.13403H38.2415V8.99404H40.1622V7.13403Z" fill="black"/>
<path opacity="0.25" d="M24.8033 8.99414H22.8826V10.8542H24.8033V8.99414Z" fill="black"/>
<path opacity="0.25" d="M26.724 8.99414H24.8033V10.8542H26.724V8.99414Z" fill="black"/>
<path opacity="0.25" d="M30.5632 8.99414H28.6425V10.8542H30.5632V8.99414Z" fill="black"/>
<path opacity="0.25" d="M32.4839 8.99414H30.5632V10.8542H32.4839V8.99414Z" fill="black"/>
<path opacity="0.25" d="M34.4023 8.99414H32.4816V10.8542H34.4023V8.99414Z" fill="black"/>
<path opacity="0.25" d="M36.3231 8.99414H34.4023V10.8542H36.3231V8.99414Z" fill="black"/>
<path opacity="0.25" d="M26.724 10.8518H24.8033V12.7118H26.724V10.8518Z" fill="black"/>
<path opacity="0.25" d="M28.6425 10.8518H26.7218V12.7118H28.6425V10.8518Z" fill="black"/>
<path opacity="0.25" d="M30.5632 10.8518H28.6425V12.7118H30.5632V10.8518Z" fill="black"/>
<path opacity="0.25" d="M24.8033 12.7119H22.8826V14.5719H24.8033V12.7119Z" fill="black"/>
<path opacity="0.25" d="M26.724 12.7119H24.8033V14.5719H26.724V12.7119Z" fill="black"/>
<path opacity="0.25" d="M30.5632 12.7119H28.6425V14.5719H30.5632V12.7119Z" fill="black"/>
<path opacity="0.25" d="M34.4023 12.7119H32.4816V14.5719H34.4023V12.7119Z" fill="black"/>
<path opacity="0.25" d="M38.2438 12.7119H36.3231V14.5719H38.2438V12.7119Z" fill="black"/>
<path opacity="0.25" d="M40.1622 12.7119H38.2415V14.5719H40.1622V12.7119Z" fill="black"/>
<path opacity="0.25" d="M28.6425 14.5719H26.7218V16.4319H28.6425V14.5719Z" fill="black"/>
<path opacity="0.25" d="M32.4839 14.5719H30.5632V16.4319H32.4839V14.5719Z" fill="black"/>
<path opacity="0.25" d="M38.2438 14.5719H36.3231V16.4319H38.2438V14.5719Z" fill="black"/>
<path opacity="0.25" d="M40.1622 14.5719H38.2415V16.4319H40.1622V14.5719Z" fill="black"/>
<path opacity="0.25" d="M24.8033 16.4298H22.8826V18.2898H24.8033V16.4298Z" fill="black"/>
<path opacity="0.25" d="M28.6425 16.4298H26.7218V18.2898H28.6425V16.4298Z" fill="black"/>
<path opacity="0.25" d="M34.4023 16.4298H32.4816V18.2898H34.4023V16.4298Z" fill="black"/>
<path opacity="0.25" d="M36.3231 16.4298H34.4023V18.2898H36.3231V16.4298Z" fill="black"/>
<path opacity="0.25" d="M38.2438 16.4298H36.3231V18.2898H38.2438V16.4298Z" fill="black"/>
<path opacity="0.25" d="M24.8033 18.2897H22.8826V20.1497H24.8033V18.2897Z" fill="black"/>
<path opacity="0.25" d="M28.6425 18.2897H26.7218V20.1497H28.6425V18.2897Z" fill="black"/>
<path opacity="0.25" d="M32.4839 18.2897H30.5632V20.1497H32.4839V18.2897Z" fill="black"/>
<path opacity="0.25" d="M36.3231 18.2897H34.4023V20.1497H36.3231V18.2897Z" fill="black"/>
<path opacity="0.25" d="M40.1622 18.2897H38.2415V20.1497H40.1622V18.2897Z" fill="black"/>
<path opacity="0.25" d="M32.4839 20.1476H30.5632V22.0076H32.4839V20.1476Z" fill="black"/>
<path opacity="0.25" d="M40.1622 20.1476H38.2415V22.0076H40.1622V20.1476Z" fill="black"/>
<path opacity="0.25" d="M9.44439 22.0076H7.52368V23.8676H9.44439V22.0076Z" fill="black"/>
<path opacity="0.25" d="M11.3651 22.0076H9.4444V23.8676H11.3651V22.0076Z" fill="black"/>
<path opacity="0.25" d="M13.2836 22.0076H11.3629V23.8676H13.2836V22.0076Z" fill="black"/>
<path opacity="0.25" d="M15.2043 22.0076H13.2836V23.8676H15.2043V22.0076Z" fill="black"/>
<path opacity="0.25" d="M17.125 22.0076H15.2043V23.8676H17.125V22.0076Z" fill="black"/>
<path opacity="0.25" d="M20.9641 22.0076H19.0434V23.8676H20.9641V22.0076Z" fill="black"/>
<path opacity="0.25" d="M22.8826 22.0076H20.9619V23.8676H22.8826V22.0076Z" fill="black"/>
<path opacity="0.25" d="M24.8033 22.0076H22.8826V23.8676H24.8033V22.0076Z" fill="black"/>
<path opacity="0.25" d="M26.724 22.0076H24.8033V23.8676H26.724V22.0076Z" fill="black"/>
<path opacity="0.25" d="M28.6425 22.0076H26.7218V23.8676H28.6425V22.0076Z" fill="black"/>
<path opacity="0.25" d="M32.4839 22.0076H30.5632V23.8676H32.4839V22.0076Z" fill="black"/>
<path opacity="0.25" d="M34.4023 22.0076H32.4816V23.8676H34.4023V22.0076Z" fill="black"/>
<path opacity="0.25" d="M38.2438 22.0076H36.3231V23.8676H38.2438V22.0076Z" fill="black"/>
<path opacity="0.25" d="M42.0829 22.0076H40.1622V23.8676H42.0829V22.0076Z" fill="black"/>
<path opacity="0.25" d="M45.9221 22.0076H44.0014V23.8676H45.9221V22.0076Z" fill="black"/>
<path opacity="0.25" d="M49.7612 22.0076H47.8405V23.8676H49.7612V22.0076Z" fill="black"/>
<path opacity="0.25" d="M53.6027 22.0076H51.6819V23.8676H53.6027V22.0076Z" fill="black"/>
<path opacity="0.25" d="M15.2043 23.8677H13.2836V25.7277H15.2043V23.8677Z" fill="black"/>
<path opacity="0.25" d="M26.724 23.8677H24.8033V25.7277H26.724V23.8677Z" fill="black"/>
<path opacity="0.25" d="M38.2438 23.8677H36.3231V25.7277H38.2438V23.8677Z" fill="black"/>
<path opacity="0.25" d="M40.1622 23.8677H38.2415V25.7277H40.1622V23.8677Z" fill="black"/>
<path opacity="0.25" d="M42.0829 23.8677H40.1622V25.7277H42.0829V23.8677Z" fill="black"/>
<path opacity="0.25" d="M45.9221 23.8677H44.0014V25.7277H45.9221V23.8677Z" fill="black"/>
<path opacity="0.25" d="M47.8428 23.8677H45.9221V25.7277H47.8428V23.8677Z" fill="black"/>
<path opacity="0.25" d="M55.5211 23.8677H53.6004V25.7277H55.5211V23.8677Z" fill="black"/>
<path opacity="0.25" d="M13.2836 25.7255H11.3629V27.5855H13.2836V25.7255Z" fill="black"/>
<path opacity="0.25" d="M19.0434 25.7255H17.1227V27.5855H19.0434V25.7255Z" fill="black"/>
<path opacity="0.25" d="M20.9641 25.7255H19.0434V27.5855H20.9641V25.7255Z" fill="black"/>
<path opacity="0.25" d="M22.8826 25.7255H20.9619V27.5855H22.8826V25.7255Z" fill="black"/>
<path opacity="0.25" d="M26.724 25.7255H24.8033V27.5855H26.724V25.7255Z" fill="black"/>
<path opacity="0.25" d="M30.5632 25.7255H28.6425V27.5855H30.5632V25.7255Z" fill="black"/>
<path opacity="0.25" d="M32.4839 25.7255H30.5632V27.5855H32.4839V25.7255Z" fill="black"/>
<path opacity="0.25" d="M34.4023 25.7255H32.4816V27.5855H34.4023V25.7255Z" fill="black"/>
<path opacity="0.25" d="M36.3231 25.7255H34.4023V27.5855H36.3231V25.7255Z" fill="black"/>
<path opacity="0.25" d="M38.2438 25.7255H36.3231V27.5855H38.2438V25.7255Z" fill="black"/>
<path opacity="0.25" d="M42.0829 25.7255H40.1622V27.5855H42.0829V25.7255Z" fill="black"/>
<path opacity="0.25" d="M44.0036 25.7255H42.0829V27.5855H44.0036V25.7255Z" fill="black"/>
<path opacity="0.25" d="M47.8428 25.7255H45.9221V27.5855H47.8428V25.7255Z" fill="black"/>
<path opacity="0.25" d="M51.682 25.7255H49.7613V27.5855H51.682V25.7255Z" fill="black"/>
<path opacity="0.25" d="M9.44439 27.5854H7.52368V29.4454H9.44439V27.5854Z" fill="black"/>
<path opacity="0.25" d="M13.2836 27.5854H11.3629V29.4454H13.2836V27.5854Z" fill="black"/>
<path opacity="0.25" d="M15.2043 27.5854H13.2836V29.4454H15.2043V27.5854Z" fill="black"/>
<path opacity="0.25" d="M17.125 27.5854H15.2043V29.4454H17.125V27.5854Z" fill="black"/>
<path opacity="0.25" d="M19.0434 27.5854H17.1227V29.4454H19.0434V27.5854Z" fill="black"/>
<path opacity="0.25" d="M22.8826 27.5854H20.9619V29.4454H22.8826V27.5854Z" fill="black"/>
<path opacity="0.25" d="M24.8033 27.5854H22.8826V29.4454H24.8033V27.5854Z" fill="black"/>
<path opacity="0.25" d="M26.724 27.5854H24.8033V29.4454H26.724V27.5854Z" fill="black"/>
<path opacity="0.25" d="M28.6425 27.5854H26.7218V29.4454H28.6425V27.5854Z" fill="black"/>
<path opacity="0.25" d="M30.5632 27.5854H28.6425V29.4454H30.5632V27.5854Z" fill="black"/>
<path opacity="0.25" d="M36.3231 27.5854H34.4023V29.4454H36.3231V27.5854Z" fill="black"/>
<path opacity="0.25" d="M40.1622 27.5854H38.2415V29.4454H40.1622V27.5854Z" fill="black"/>
<path opacity="0.25" d="M42.0829 27.5854H40.1622V29.4454H42.0829V27.5854Z" fill="black"/>
<path opacity="0.25" d="M9.44439 29.4454H7.52368V31.3054H9.44439V29.4454Z" fill="black"/>
<path opacity="0.25" d="M15.2043 29.4454H13.2836V31.3054H15.2043V29.4454Z" fill="black"/>
<path opacity="0.25" d="M20.9641 29.4454H19.0434V31.3054H20.9641V29.4454Z" fill="black"/>
<path opacity="0.25" d="M26.724 29.4454H24.8033V31.3054H26.724V29.4454Z" fill="black"/>
<path opacity="0.25" d="M30.5632 29.4454H28.6425V31.3054H30.5632V29.4454Z" fill="black"/>
<path opacity="0.25" d="M34.4023 29.4454H32.4816V31.3054H34.4023V29.4454Z" fill="black"/>
<path opacity="0.25" d="M38.2438 29.4454H36.3231V31.3054H38.2438V29.4454Z" fill="black"/>
<path opacity="0.25" d="M44.0036 29.4454H42.0829V31.3054H44.0036V29.4454Z" fill="black"/>
<path opacity="0.25" d="M45.9221 29.4454H44.0014V31.3054H45.9221V29.4454Z" fill="black"/>
<path opacity="0.25" d="M47.8428 29.4454H45.9221V31.3054H47.8428V29.4454Z" fill="black"/>
<path opacity="0.25" d="M49.7612 29.4454H47.8405V31.3054H49.7612V29.4454Z" fill="black"/>
<path opacity="0.25" d="M53.6027 29.4454H51.6819V31.3054H53.6027V29.4454Z" fill="black"/>
<path opacity="0.25" d="M55.5211 29.4454H53.6004V31.3054H55.5211V29.4454Z" fill="black"/>
<path opacity="0.25" d="M9.44439 31.3033H7.52368V33.1634H9.44439V31.3033Z" fill="black"/>
<path opacity="0.25" d="M11.3651 31.3033H9.4444V33.1634H11.3651V31.3033Z" fill="black"/>
<path opacity="0.25" d="M15.2043 31.3033H13.2836V33.1634H15.2043V31.3033Z" fill="black"/>
<path opacity="0.25" d="M22.8826 31.3033H20.9619V33.1634H22.8826V31.3033Z" fill="black"/>
<path opacity="0.25" d="M28.6425 31.3033H26.7218V33.1634H28.6425V31.3033Z" fill="black"/>
<path opacity="0.25" d="M32.4839 31.3033H30.5632V33.1634H32.4839V31.3033Z" fill="black"/>
<path opacity="0.25" d="M36.3231 31.3033H34.4023V33.1634H36.3231V31.3033Z" fill="black"/>
<path opacity="0.25" d="M40.1622 31.3033H38.2415V33.1634H40.1622V31.3033Z" fill="black"/>
<path opacity="0.25" d="M42.0829 31.3033H40.1622V33.1634H42.0829V31.3033Z" fill="black"/>
<path opacity="0.25" d="M44.0036 31.3033H42.0829V33.1634H44.0036V31.3033Z" fill="black"/>
<path opacity="0.25" d="M45.9221 31.3033H44.0014V33.1634H45.9221V31.3033Z" fill="black"/>
<path opacity="0.25" d="M47.8428 31.3033H45.9221V33.1634H47.8428V31.3033Z" fill="black"/>
<path opacity="0.25" d="M9.44439 33.1633H7.52368V35.0233H9.44439V33.1633Z" fill="black"/>
<path opacity="0.25" d="M13.2836 33.1633H11.3629V35.0233H13.2836V33.1633Z" fill="black"/>
<path opacity="0.25" d="M15.2043 33.1633H13.2836V35.0233H15.2043V33.1633Z" fill="black"/>
<path opacity="0.25" d="M17.125 33.1633H15.2043V35.0233H17.125V33.1633Z" fill="black"/>
<path opacity="0.25" d="M20.9641 33.1633H19.0434V35.0233H20.9641V33.1633Z" fill="black"/>
<path opacity="0.25" d="M22.8826 33.1633H20.9619V35.0233H22.8826V33.1633Z" fill="black"/>
<path opacity="0.25" d="M34.4023 33.1633H32.4816V35.0233H34.4023V33.1633Z" fill="black"/>
<path opacity="0.25" d="M42.0829 33.1633H40.1622V35.0233H42.0829V33.1633Z" fill="black"/>
<path opacity="0.25" d="M44.0036 33.1633H42.0829V35.0233H44.0036V33.1633Z" fill="black"/>
<path opacity="0.25" d="M47.8428 33.1633H45.9221V35.0233H47.8428V33.1633Z" fill="black"/>
<path opacity="0.25" d="M51.682 33.1633H49.7613V35.0233H51.682V33.1633Z" fill="black"/>
<path opacity="0.25" d="M53.6027 33.1633H51.6819V35.0233H53.6027V33.1633Z" fill="black"/>
<path opacity="0.25" d="M55.5211 33.1633H53.6004V35.0233H55.5211V33.1633Z" fill="black"/>
<path opacity="0.25" d="M9.44439 35.0233H7.52368V36.8833H9.44439V35.0233Z" fill="black"/>
<path opacity="0.25" d="M15.2043 35.0233H13.2836V36.8833H15.2043V35.0233Z" fill="black"/>
<path opacity="0.25" d="M19.0434 35.0233H17.1227V36.8833H19.0434V35.0233Z" fill="black"/>
<path opacity="0.25" d="M26.724 35.0233H24.8033V36.8833H26.724V35.0233Z" fill="black"/>
<path opacity="0.25" d="M28.6425 35.0233H26.7218V36.8833H28.6425V35.0233Z" fill="black"/>
<path opacity="0.25" d="M32.4839 35.0233H30.5632V36.8833H32.4839V35.0233Z" fill="black"/>
<path opacity="0.25" d="M34.4023 35.0233H32.4816V36.8833H34.4023V35.0233Z" fill="black"/>
<path opacity="0.25" d="M36.3231 35.0233H34.4023V36.8833H36.3231V35.0233Z" fill="black"/>
<path opacity="0.25" d="M42.0829 35.0233H40.1622V36.8833H42.0829V35.0233Z" fill="black"/>
<path opacity="0.25" d="M53.6027 35.0233H51.6819V36.8833H53.6027V35.0233Z" fill="black"/>
<path opacity="0.25" d="M55.5211 35.0233H53.6004V36.8833H55.5211V35.0233Z" fill="black"/>
<path opacity="0.25" d="M9.44439 36.8812H7.52368V38.7412H9.44439V36.8812Z" fill="black"/>
<path opacity="0.25" d="M20.9641 36.8812H19.0434V38.7412H20.9641V36.8812Z" fill="black"/>
<path opacity="0.25" d="M28.6425 36.8812H26.7218V38.7412H28.6425V36.8812Z" fill="black"/>
<path opacity="0.25" d="M32.4839 36.8812H30.5632V38.7412H32.4839V36.8812Z" fill="black"/>
<path opacity="0.25" d="M38.2438 36.8812H36.3231V38.7412H38.2438V36.8812Z" fill="black"/>
<path opacity="0.25" d="M40.1622 36.8812H38.2415V38.7412H40.1622V36.8812Z" fill="black"/>
<path opacity="0.25" d="M42.0829 36.8812H40.1622V38.7412H42.0829V36.8812Z" fill="black"/>
<path opacity="0.25" d="M44.0036 36.8812H42.0829V38.7412H44.0036V36.8812Z" fill="black"/>
<path opacity="0.25" d="M45.9221 36.8812H44.0014V38.7412H45.9221V36.8812Z" fill="black"/>
<path opacity="0.25" d="M47.8428 36.8812H45.9221V38.7412H47.8428V36.8812Z" fill="black"/>
<path opacity="0.25" d="M49.7612 36.8812H47.8405V38.7412H49.7612V36.8812Z" fill="black"/>
<path opacity="0.25" d="M55.5211 36.8812H53.6004V38.7412H55.5211V36.8812Z" fill="black"/>
<path opacity="0.25" d="M24.8033 38.7412H22.8826V40.6012H24.8033V38.7412Z" fill="black"/>
<path opacity="0.25" d="M28.6425 38.7412H26.7218V40.6012H28.6425V38.7412Z" fill="black"/>
<path opacity="0.25" d="M36.3231 38.7412H34.4023V40.6012H36.3231V38.7412Z" fill="black"/>
<path opacity="0.25" d="M40.1622 38.7412H38.2415V40.6012H40.1622V38.7412Z" fill="black"/>
<path opacity="0.25" d="M47.8428 38.7412H45.9221V40.6012H47.8428V38.7412Z" fill="black"/>
<path opacity="0.25" d="M55.5211 38.7412H53.6004V40.6012H55.5211V38.7412Z" fill="black"/>
<path opacity="0.25" d="M24.8033 40.6012H22.8826V42.4612H24.8033V40.6012Z" fill="black"/>
<path opacity="0.25" d="M26.724 40.6012H24.8033V42.4612H26.724V40.6012Z" fill="black"/>
<path opacity="0.25" d="M28.6425 40.6012H26.7218V42.4612H28.6425V40.6012Z" fill="black"/>
<path opacity="0.25" d="M30.5632 40.6012H28.6425V42.4612H30.5632V40.6012Z" fill="black"/>
<path opacity="0.25" d="M32.4839 40.6012H30.5632V42.4612H32.4839V40.6012Z" fill="black"/>
<path opacity="0.25" d="M36.3231 40.6012H34.4023V42.4612H36.3231V40.6012Z" fill="black"/>
<path opacity="0.25" d="M40.1622 40.6012H38.2415V42.4612H40.1622V40.6012Z" fill="black"/>
<path opacity="0.25" d="M44.0036 40.6012H42.0829V42.4612H44.0036V40.6012Z" fill="black"/>
<path opacity="0.25" d="M47.8428 40.6012H45.9221V42.4612H47.8428V40.6012Z" fill="black"/>
<path opacity="0.25" d="M51.682 40.6012H49.7613V42.4612H51.682V40.6012Z" fill="black"/>
<path opacity="0.25" d="M53.6027 40.6012H51.6819V42.4612H53.6027V40.6012Z" fill="black"/>
<path opacity="0.25" d="M55.5211 40.6012H53.6004V42.4612H55.5211V40.6012Z" fill="black"/>
<path opacity="0.25" d="M26.724 42.459H24.8033V44.319H26.724V42.459Z" fill="black"/>
<path opacity="0.25" d="M28.6425 42.459H26.7218V44.319H28.6425V42.459Z" fill="black"/>
<path opacity="0.25" d="M30.5632 42.459H28.6425V44.319H30.5632V42.459Z" fill="black"/>
<path opacity="0.25" d="M36.3231 42.459H34.4023V44.319H36.3231V42.459Z" fill="black"/>
<path opacity="0.25" d="M40.1622 42.459H38.2415V44.319H40.1622V42.459Z" fill="black"/>
<path opacity="0.25" d="M47.8428 42.459H45.9221V44.319H47.8428V42.459Z" fill="black"/>
<path opacity="0.25" d="M49.7612 42.459H47.8405V44.319H49.7612V42.459Z" fill="black"/>
<path opacity="0.25" d="M24.8033 44.3191H22.8826V46.1791H24.8033V44.3191Z" fill="black"/>
<path opacity="0.25" d="M26.724 44.3191H24.8033V46.1791H26.724V44.3191Z" fill="black"/>
<path opacity="0.25" d="M30.5632 44.3191H28.6425V46.1791H30.5632V44.3191Z" fill="black"/>
<path opacity="0.25" d="M32.4839 44.3191H30.5632V46.1791H32.4839V44.3191Z" fill="black"/>
<path opacity="0.25" d="M34.4023 44.3191H32.4816V46.1791H34.4023V44.3191Z" fill="black"/>
<path opacity="0.25" d="M40.1622 44.3191H38.2415V46.1791H40.1622V44.3191Z" fill="black"/>
<path opacity="0.25" d="M42.0829 44.3191H40.1622V46.1791H42.0829V44.3191Z" fill="black"/>
<path opacity="0.25" d="M44.0036 44.3191H42.0829V46.1791H44.0036V44.3191Z" fill="black"/>
<path opacity="0.25" d="M45.9221 44.3191H44.0014V46.1791H45.9221V44.3191Z" fill="black"/>
<path opacity="0.25" d="M47.8428 44.3191H45.9221V46.1791H47.8428V44.3191Z" fill="black"/>
<path opacity="0.25" d="M49.7612 44.3191H47.8405V46.1791H49.7612V44.3191Z" fill="black"/>
<path opacity="0.25" d="M24.8033 46.1769H22.8826V48.0369H24.8033V46.1769Z" fill="black"/>
<path opacity="0.25" d="M26.724 46.1769H24.8033V48.0369H26.724V46.1769Z" fill="black"/>
<path opacity="0.25" d="M28.6425 46.1769H26.7218V48.0369H28.6425V46.1769Z" fill="black"/>
<path opacity="0.25" d="M32.4839 46.1769H30.5632V48.0369H32.4839V46.1769Z" fill="black"/>
<path opacity="0.25" d="M38.2438 46.1769H36.3231V48.0369H38.2438V46.1769Z" fill="black"/>
<path opacity="0.25" d="M40.1622 46.1769H38.2415V48.0369H40.1622V46.1769Z" fill="black"/>
<path opacity="0.25" d="M44.0036 46.1769H42.0829V48.0369H44.0036V46.1769Z" fill="black"/>
<path opacity="0.25" d="M47.8428 46.1769H45.9221V48.0369H47.8428V46.1769Z" fill="black"/>
<path opacity="0.25" d="M53.6027 46.1769H51.6819V48.0369H53.6027V46.1769Z" fill="black"/>
<path opacity="0.25" d="M55.5211 46.1769H53.6004V48.0369H55.5211V46.1769Z" fill="black"/>
<path opacity="0.25" d="M24.8033 48.0369H22.8826V49.8969H24.8033V48.0369Z" fill="black"/>
<path opacity="0.25" d="M26.724 48.0369H24.8033V49.8969H26.724V48.0369Z" fill="black"/>
<path opacity="0.25" d="M32.4839 48.0369H30.5632V49.8969H32.4839V48.0369Z" fill="black"/>
<path opacity="0.25" d="M34.4023 48.0369H32.4816V49.8969H34.4023V48.0369Z" fill="black"/>
<path opacity="0.25" d="M36.3231 48.0369H34.4023V49.8969H36.3231V48.0369Z" fill="black"/>
<path opacity="0.25" d="M47.8428 48.0369H45.9221V49.8969H47.8428V48.0369Z" fill="black"/>
<path opacity="0.25" d="M51.682 48.0369H49.7613V49.8969H51.682V48.0369Z" fill="black"/>
<path opacity="0.25" d="M55.5211 48.0369H53.6004V49.8969H55.5211V48.0369Z" fill="black"/>
<path opacity="0.25" d="M24.8033 49.8969H22.8826V51.7569H24.8033V49.8969Z" fill="black"/>
<path opacity="0.25" d="M26.724 49.8969H24.8033V51.7569H26.724V49.8969Z" fill="black"/>
<path opacity="0.25" d="M28.6425 49.8969H26.7218V51.7569H28.6425V49.8969Z" fill="black"/>
<path opacity="0.25" d="M32.4839 49.8969H30.5632V51.7569H32.4839V49.8969Z" fill="black"/>
<path opacity="0.25" d="M34.4023 49.8969H32.4816V51.7569H34.4023V49.8969Z" fill="black"/>
<path opacity="0.25" d="M40.1622 49.8969H38.2415V51.7569H40.1622V49.8969Z" fill="black"/>
<path opacity="0.25" d="M42.0829 49.8969H40.1622V51.7569H42.0829V49.8969Z" fill="black"/>
<path opacity="0.25" d="M44.0036 49.8969H42.0829V51.7569H44.0036V49.8969Z" fill="black"/>
<path opacity="0.25" d="M45.9221 49.8969H44.0014V51.7569H45.9221V49.8969Z" fill="black"/>
<path opacity="0.25" d="M47.8428 49.8969H45.9221V51.7569H47.8428V49.8969Z" fill="black"/>
<path opacity="0.25" d="M49.7612 49.8969H47.8405V51.7569H49.7612V49.8969Z" fill="black"/>
<path opacity="0.25" d="M53.6027 49.8969H51.6819V51.7569H53.6027V49.8969Z" fill="black"/>
<path opacity="0.25" d="M24.8033 51.7548H22.8826V53.6148H24.8033V51.7548Z" fill="black"/>
<path opacity="0.25" d="M34.4023 51.7548H32.4816V53.6148H34.4023V51.7548Z" fill="black"/>
<path opacity="0.25" d="M38.2438 51.7548H36.3231V53.6148H38.2438V51.7548Z" fill="black"/>
<path opacity="0.25" d="M51.682 51.7548H49.7613V53.6148H51.682V51.7548Z" fill="black"/>
<path opacity="0.25" d="M53.6027 51.7548H51.6819V53.6148H53.6027V51.7548Z" fill="black"/>
<path opacity="0.25" d="M55.5211 51.7548H53.6004V53.6148H55.5211V51.7548Z" fill="black"/>
<path opacity="0.25" d="M7.93158 7.13184C7.70746 7.13184 7.52368 7.30981 7.52368 7.52684V8.99185V10.8519V12.7119V14.5719V16.4319V18.2919V19.7569C7.52368 19.9739 7.70522 20.1519 7.93158 20.1519H20.5562C20.7803 20.1519 20.9641 19.9761 20.9641 19.7569V18.2919V16.4297V14.5697V12.7097V10.8519V8.99185V7.52684C20.9641 7.30981 20.7826 7.13184 20.5562 7.13184H7.93158ZM19.0434 10.8519V12.7119V14.5719V16.4319V18.064C19.0434 18.1899 18.9381 18.2919 18.8081 18.2919H9.67747C9.54748 18.2919 9.44214 18.1899 9.44214 18.064V16.4297V14.5697V12.7097V10.8519V9.21974C9.44214 9.09385 9.54748 8.99185 9.67747 8.99185H18.8081C18.9381 8.99185 19.0434 9.09385 19.0434 9.21974V10.8519Z" fill="black"/>
<path opacity="0.25" d="M17.1227 14.5718V12.7118V11.2468C17.1227 11.0298 16.9412 10.8518 16.7148 10.8518H11.7708C11.5466 10.8518 11.3629 11.0276 11.3629 11.2468V12.7118V14.5718V16.0368C11.3629 16.2539 11.5444 16.4318 11.7708 16.4318H16.7148C16.939 16.4318 17.1227 16.256 17.1227 16.0368V14.5718Z" fill="black"/>
<path opacity="0.25" d="M42.4886 7.13184C42.2645 7.13184 42.0807 7.30981 42.0807 7.52684V8.99185V10.8519V12.7119V14.5719V16.4319V18.2919V19.7569C42.0807 19.9739 42.2622 20.1519 42.4886 20.1519H55.1132C55.3374 20.1519 55.5211 19.9761 55.5211 19.7569V18.2919V16.4297V14.5697V12.7097V10.8519V8.99185V7.52684C55.5211 7.30981 55.3396 7.13184 55.1132 7.13184H42.4886ZM53.6004 10.8519V12.7119V14.5719V16.4319V18.064C53.6004 18.1899 53.4951 18.2919 53.3651 18.2919H44.2345C44.1045 18.2919 43.9992 18.1899 43.9992 18.064V16.4297V14.5697V12.7097V10.8519V9.21974C43.9992 9.09385 44.1045 8.99185 44.2345 8.99185H53.3651C53.4951 8.99185 53.6004 9.09385 53.6004 9.21974V10.8519Z" fill="black"/>
<path opacity="0.25" d="M51.682 14.5718V12.7118V11.2468C51.682 11.0298 51.5004 10.8518 51.2741 10.8518H46.33C46.1059 10.8518 45.9221 11.0276 45.9221 11.2468V12.7118V14.5718V16.0368C45.9221 16.2539 46.1036 16.4318 46.33 16.4318H51.2741C51.4982 16.4318 51.682 16.256 51.682 16.0368V14.5718Z" fill="black"/>
<path opacity="0.25" d="M7.93158 40.599C7.70746 40.599 7.52368 40.777 7.52368 40.994V42.459V44.319V46.179V48.039V49.8991V51.7591V53.2241C7.52368 53.4411 7.70522 53.6191 7.93158 53.6191H20.5562C20.7803 53.6191 20.9641 53.4433 20.9641 53.2241V51.7591V49.8991V48.039V46.179V44.319V42.459V40.994C20.9641 40.777 20.7826 40.599 20.5562 40.599H7.93158ZM19.0434 44.319V46.179V48.039V49.8991V51.5312C19.0434 51.6571 18.9381 51.7591 18.8081 51.7591H9.67747C9.54748 51.7591 9.44214 51.6571 9.44214 51.5312V49.8991V48.039V46.179V44.319V42.6869C9.44214 42.561 9.54748 42.459 9.67747 42.459H18.8081C18.9381 42.459 19.0434 42.561 19.0434 42.6869V44.319Z" fill="black"/>
<path opacity="0.25" d="M17.1227 48.0369V46.1769V44.7119C17.1227 44.4949 16.9412 44.3169 16.7148 44.3169H11.7708C11.5466 44.3169 11.3629 44.4927 11.3629 44.7119V46.1769V48.0369V49.5019C11.3629 49.7189 11.5444 49.8969 11.7708 49.8969H16.7148C16.939 49.8969 17.1227 49.7211 17.1227 49.5019V48.0369Z" fill="black"/>
<path d="M15.1931 73.606C15.1931 74.1964 14.9734 74.663 14.5319 75.0016C14.0904 75.3402 13.4785 75.5116 12.6919 75.5116C11.8604 75.5116 11.2194 75.4053 10.7667 75.1926V74.3765C11.0648 74.5002 11.3897 74.5979 11.7416 74.6695C12.0935 74.7411 12.4252 74.7759 12.73 74.7759C13.2544 74.7759 13.6489 74.6782 13.9133 74.4829C14.1778 74.2875 14.31 74.0206 14.31 73.6798C14.31 73.4541 14.263 73.2675 14.1666 73.122C14.0702 72.9766 13.9111 72.8399 13.6847 72.714C13.4584 72.5881 13.1177 72.4427 12.6627 72.2821C12.015 72.0542 11.5511 71.7829 11.2732 71.4726C10.9953 71.1622 10.8563 70.7607 10.8563 70.268C10.8563 69.7384 11.0625 69.3174 11.4727 69.007C11.8828 68.6945 12.4229 68.5382 13.0953 68.5382C13.7945 68.5382 14.4378 68.6641 15.025 68.918L14.7515 69.6516C14.1509 69.4107 13.5928 69.2892 13.0751 69.2892C12.6605 69.2892 12.3355 69.376 12.1002 69.5496C11.8649 69.7232 11.7483 69.9663 11.7483 70.2788C11.7483 70.5024 11.7932 70.6869 11.885 70.8323C11.9769 70.9799 12.1226 71.1123 12.3266 71.2338C12.5305 71.3554 12.8488 71.4921 13.2813 71.6462C13.8013 71.8328 14.189 72.013 14.4445 72.1866C14.7 72.3624 14.8883 72.5621 15.0093 72.79C15.1325 73.02 15.1931 73.2913 15.1931 73.606ZM19.606 69.2913C18.8529 69.2913 18.259 69.5366 17.8287 70.0249C17.3984 70.5133 17.181 71.1817 17.181 72.0282C17.181 72.9028 17.3894 73.5778 17.8085 74.0531C18.2276 74.5285 18.8215 74.765 19.5948 74.765C20.0923 74.765 20.6526 74.676 21.2757 74.4959V75.2382C20.9776 75.3423 20.6929 75.4161 20.4173 75.453C20.1416 75.4921 19.8256 75.5116 19.4693 75.5116C18.4383 75.5116 17.6427 75.2078 17.0869 74.6001C16.5288 73.9924 16.2509 73.1307 16.2509 72.0173C16.2509 71.3185 16.3831 70.7064 16.6498 70.1812C16.9165 69.6559 17.3043 69.2501 17.813 68.9658C18.3218 68.6815 18.9224 68.5382 19.6127 68.5382C20.3545 68.5382 20.9977 68.6706 21.5491 68.9376L21.195 69.6603C20.6369 69.415 20.108 69.2913 19.606 69.2913ZM27.1991 75.4205L26.3564 73.3196H23.5774L22.7436 75.4205H21.8516L24.5881 68.6098H25.3838L28.1135 75.4205H27.1991ZM26.092 72.5621L25.3053 70.5067L24.9691 69.491C24.8728 69.8621 24.7719 70.2007 24.6666 70.5067L23.871 72.5621H26.092ZM34.6287 75.4205H33.5977L29.846 69.7883H29.8079L29.8325 70.1638C29.8706 70.7259 29.8908 71.2165 29.8908 71.6288V75.4183H29.0773V68.6359H30.097L30.3122 68.9658L32.6116 72.408L33.8331 74.2506H33.8712C33.8645 74.1768 33.851 73.9121 33.8331 73.4541C33.8129 72.9983 33.8039 72.6684 33.8039 72.4644V68.6359H34.6287V75.4205ZM42.1703 75.4205L39.8619 69.4736H39.8238C39.8709 69.9685 39.8955 70.5784 39.8955 71.3054V75.4205H39.082V68.638H40.3841L42.5446 74.1964H42.5827L44.7813 68.638H46.0745V75.4205H45.2027V71.249C45.2027 70.7845 45.2251 70.1964 45.2699 69.4823H45.2318L42.8942 75.4205H42.1703ZM51.8949 75.4205H47.9817V68.638H51.8949V69.389H48.8625V71.5051H51.7178V72.2474H48.8625V74.6695H51.8949V75.4205Z" fill="white"/>
<path d="M31.5112 59.8373C31.556 59.8373 31.6233 59.859 31.6457 59.8807L36.778 63.6137L36.8901 63.7005H37.047H62.5518V77.3088C62.5518 77.9165 62.3052 78.4808 61.8794 78.9149C61.4312 79.3489 60.8485 79.566 60.2209 79.566H2.77908C1.5016 79.566 0.448239 78.5459 0.448239 77.3088V63.7005H25.953H26.1099L26.222 63.6137L31.3543 59.8807C31.3991 59.859 31.444 59.8373 31.5112 59.8373ZM31.5112 59.4032C31.3767 59.4032 31.2199 59.4466 31.0854 59.5334L25.953 63.2665H0V77.3088C0 78.8063 1.25507 80.0001 2.77908 80.0001H60.2209C61.7673 80.0001 63 78.8063 63 77.3088V63.2665H37.047L31.9146 59.5334C31.8026 59.4466 31.6457 59.4032 31.5112 59.4032Z" fill="#E6E6E6"/>
<path d="M0 63.2881V3.19045C0 1.43245 1.47919 0 3.29456 0H59.7054C61.5208 0 63 1.43245 63 3.19045V63.2881H62.5518V3.19045C62.5518 1.67119 61.2743 0.434075 59.7054 0.434075H3.29456C1.72572 0.434075 0.448239 1.67119 0.448239 3.19045V63.2881H0Z" fill="#E6E6E6"/>
</g>
<defs>
<clipPath id="clip0">
<rect width="63" height="80" fill="white"/>
</clipPath>
</defs>
</svg>
