<svg width="47" height="80" viewBox="0 0 47 80" fill="none" xmlns="http://www.w3.org/2000/svg">
<path d="M0 68.2328H47V73.9483C47 77.2935 44.3081 80 40.9808 80H6.01921C2.69192 80 0 77.2935 0 73.9483V68.2328ZM40.9808 0H6.01921C2.69192 0 0 2.70645 0 6.05169V11.7504H47V6.05169C47 2.70645 44.3081 0 40.9808 0Z" fill="black"/>
<path opacity="0.35" d="M23.5084 78.3526C21.318 78.3526 19.5457 76.5707 19.5457 74.3686C19.5457 72.1664 21.318 70.3846 23.5084 70.3846C25.6987 70.3846 27.471 72.1664 27.471 74.3686C27.471 76.5707 25.682 78.3526 23.5084 78.3526ZM23.5084 71.41C21.8865 71.41 20.5489 72.738 20.5489 74.3854C20.5489 76.016 21.8698 77.3608 23.5084 77.3608C25.1469 77.3608 26.4678 76.0328 26.4678 74.3854C26.4511 72.738 25.1302 71.41 23.5084 71.41ZM28.5076 6.11894C28.5076 5.83317 28.2903 5.61464 28.006 5.61464H18.994C18.7097 5.61464 18.4923 5.83317 18.4923 6.11894C18.4923 6.40472 18.7097 6.62325 18.994 6.62325H28.006C28.2903 6.62325 28.5076 6.40472 28.5076 6.11894ZM16.6699 6.11894C16.6699 5.74912 16.3689 5.44653 16.0011 5.44653C15.6332 5.44653 15.3323 5.74912 15.3323 6.11894C15.3323 6.48877 15.6332 6.79135 16.0011 6.79135C16.3689 6.79135 16.6699 6.48877 16.6699 6.11894Z" fill="white"/>
<path d="M46.8161 11.7504H0.183916V68.2328H46.8161V11.7504Z" fill="white"/>
<path d="M45.8797 12.49H1.12024V57.491H45.8797V12.49Z" fill="white"/>
<path opacity="0.25" d="M19.9202 16.9901H18.4873V18.4307H19.9202V16.9901Z" fill="black"/>
<path opacity="0.25" d="M27.0814 16.9901H25.6485V18.4307H27.0814V16.9901Z" fill="black"/>
<path opacity="0.25" d="M29.9456 16.9901H28.5127V18.4307H29.9456V16.9901Z" fill="black"/>
<path opacity="0.25" d="M18.4873 18.4308H17.0544V19.8714H18.4873V18.4308Z" fill="black"/>
<path opacity="0.25" d="M19.9202 18.4308H18.4873V19.8714H19.9202V18.4308Z" fill="black"/>
<path opacity="0.25" d="M22.7844 18.4308H21.3515V19.8714H22.7844V18.4308Z" fill="black"/>
<path opacity="0.25" d="M24.2173 18.4308H22.7844V19.8714H24.2173V18.4308Z" fill="black"/>
<path opacity="0.25" d="M25.6485 18.4308H24.2156V19.8714H25.6485V18.4308Z" fill="black"/>
<path opacity="0.25" d="M27.0814 18.4308H25.6485V19.8714H27.0814V18.4308Z" fill="black"/>
<path opacity="0.25" d="M19.9202 19.8698H18.4873V21.3104H19.9202V19.8698Z" fill="black"/>
<path opacity="0.25" d="M21.3515 19.8698H19.9186V21.3104H21.3515V19.8698Z" fill="black"/>
<path opacity="0.25" d="M22.7844 19.8698H21.3515V21.3104H22.7844V19.8698Z" fill="black"/>
<path opacity="0.25" d="M18.4873 21.3103H17.0544V22.7509H18.4873V21.3103Z" fill="black"/>
<path opacity="0.25" d="M19.9202 21.3103H18.4873V22.7509H19.9202V21.3103Z" fill="black"/>
<path opacity="0.25" d="M22.7844 21.3103H21.3515V22.7509H22.7844V21.3103Z" fill="black"/>
<path opacity="0.25" d="M25.6485 21.3103H24.2156V22.7509H25.6485V21.3103Z" fill="black"/>
<path opacity="0.25" d="M28.5143 21.3103H27.0814V22.7509H28.5143V21.3103Z" fill="black"/>
<path opacity="0.25" d="M29.9456 21.3103H28.5127V22.7509H29.9456V21.3103Z" fill="black"/>
<path opacity="0.25" d="M21.3515 22.751H19.9186V24.1916H21.3515V22.751Z" fill="black"/>
<path opacity="0.25" d="M24.2173 22.751H22.7844V24.1916H24.2173V22.751Z" fill="black"/>
<path opacity="0.25" d="M28.5143 22.751H27.0814V24.1916H28.5143V22.751Z" fill="black"/>
<path opacity="0.25" d="M29.9456 22.751H28.5127V24.1916H29.9456V22.751Z" fill="black"/>
<path opacity="0.25" d="M18.4873 24.1899H17.0544V25.6306H18.4873V24.1899Z" fill="black"/>
<path opacity="0.25" d="M21.3515 24.1899H19.9186V25.6306H21.3515V24.1899Z" fill="black"/>
<path opacity="0.25" d="M25.6485 24.1899H24.2156V25.6306H25.6485V24.1899Z" fill="black"/>
<path opacity="0.25" d="M27.0814 24.1899H25.6485V25.6306H27.0814V24.1899Z" fill="black"/>
<path opacity="0.25" d="M28.5143 24.1899H27.0814V25.6306H28.5143V24.1899Z" fill="black"/>
<path opacity="0.25" d="M18.4873 25.6306H17.0544V27.0713H18.4873V25.6306Z" fill="black"/>
<path opacity="0.25" d="M21.3515 25.6306H19.9186V27.0713H21.3515V25.6306Z" fill="black"/>
<path opacity="0.25" d="M24.2173 25.6306H22.7844V27.0713H24.2173V25.6306Z" fill="black"/>
<path opacity="0.25" d="M27.0814 25.6306H25.6485V27.0713H27.0814V25.6306Z" fill="black"/>
<path opacity="0.25" d="M29.9456 25.6306H28.5127V27.0713H29.9456V25.6306Z" fill="black"/>
<path opacity="0.25" d="M24.2173 27.0696H22.7844V28.5102H24.2173V27.0696Z" fill="black"/>
<path opacity="0.25" d="M29.9456 27.0696H28.5127V28.5102H29.9456V27.0696Z" fill="black"/>
<path opacity="0.25" d="M7.0291 28.5103H5.59619V29.9509H7.0291V28.5103Z" fill="black"/>
<path opacity="0.25" d="M8.46201 28.5103H7.0291V29.9509H8.46201V28.5103Z" fill="black"/>
<path opacity="0.25" d="M9.89324 28.5103H8.46033V29.9509H9.89324V28.5103Z" fill="black"/>
<path opacity="0.25" d="M11.3261 28.5103H9.89324V29.9509H11.3261V28.5103Z" fill="black"/>
<path opacity="0.25" d="M12.7591 28.5103H11.3261V29.9509H12.7591V28.5103Z" fill="black"/>
<path opacity="0.25" d="M15.6232 28.5103H14.1903V29.9509H15.6232V28.5103Z" fill="black"/>
<path opacity="0.25" d="M17.0544 28.5103H15.6215V29.9509H17.0544V28.5103Z" fill="black"/>
<path opacity="0.25" d="M18.4873 28.5103H17.0544V29.9509H18.4873V28.5103Z" fill="black"/>
<path opacity="0.25" d="M19.9202 28.5103H18.4873V29.9509H19.9202V28.5103Z" fill="black"/>
<path opacity="0.25" d="M21.3515 28.5103H19.9186V29.9509H21.3515V28.5103Z" fill="black"/>
<path opacity="0.25" d="M24.2173 28.5103H22.7844V29.9509H24.2173V28.5103Z" fill="black"/>
<path opacity="0.25" d="M25.6485 28.5103H24.2156V29.9509H25.6485V28.5103Z" fill="black"/>
<path opacity="0.25" d="M28.5143 28.5103H27.0814V29.9509H28.5143V28.5103Z" fill="black"/>
<path opacity="0.25" d="M31.3785 28.5103H29.9456V29.9509H31.3785V28.5103Z" fill="black"/>
<path opacity="0.25" d="M34.2426 28.5103H32.8097V29.9509H34.2426V28.5103Z" fill="black"/>
<path opacity="0.25" d="M37.1068 28.5103H35.6739V29.9509H37.1068V28.5103Z" fill="black"/>
<path opacity="0.25" d="M39.9726 28.5103H38.5397V29.9509H39.9726V28.5103Z" fill="black"/>
<path opacity="0.25" d="M11.3261 29.9508H9.89324V31.3914H11.3261V29.9508Z" fill="black"/>
<path opacity="0.25" d="M19.9202 29.9508H18.4873V31.3914H19.9202V29.9508Z" fill="black"/>
<path opacity="0.25" d="M28.5143 29.9508H27.0814V31.3914H28.5143V29.9508Z" fill="black"/>
<path opacity="0.25" d="M29.9456 29.9508H28.5127V31.3914H29.9456V29.9508Z" fill="black"/>
<path opacity="0.25" d="M31.3785 29.9508H29.9456V31.3914H31.3785V29.9508Z" fill="black"/>
<path opacity="0.25" d="M34.2426 29.9508H32.8097V31.3914H34.2426V29.9508Z" fill="black"/>
<path opacity="0.25" d="M35.6755 29.9508H34.2426V31.3914H35.6755V29.9508Z" fill="black"/>
<path opacity="0.25" d="M41.4038 29.9508H39.9709V31.3914H41.4038V29.9508Z" fill="black"/>
<path opacity="0.25" d="M9.89324 31.3898H8.46033V32.8304H9.89324V31.3898Z" fill="black"/>
<path opacity="0.25" d="M14.1903 31.3898H12.7574V32.8304H14.1903V31.3898Z" fill="black"/>
<path opacity="0.25" d="M15.6232 31.3898H14.1903V32.8304H15.6232V31.3898Z" fill="black"/>
<path opacity="0.25" d="M17.0544 31.3898H15.6215V32.8304H17.0544V31.3898Z" fill="black"/>
<path opacity="0.25" d="M19.9202 31.3898H18.4873V32.8304H19.9202V31.3898Z" fill="black"/>
<path opacity="0.25" d="M22.7844 31.3898H21.3515V32.8304H22.7844V31.3898Z" fill="black"/>
<path opacity="0.25" d="M24.2173 31.3898H22.7844V32.8304H24.2173V31.3898Z" fill="black"/>
<path opacity="0.25" d="M25.6485 31.3898H24.2156V32.8304H25.6485V31.3898Z" fill="black"/>
<path opacity="0.25" d="M27.0814 31.3898H25.6485V32.8304H27.0814V31.3898Z" fill="black"/>
<path opacity="0.25" d="M28.5143 31.3898H27.0814V32.8304H28.5143V31.3898Z" fill="black"/>
<path opacity="0.25" d="M31.3785 31.3898H29.9456V32.8304H31.3785V31.3898Z" fill="black"/>
<path opacity="0.25" d="M32.8114 31.3898H31.3785V32.8304H32.8114V31.3898Z" fill="black"/>
<path opacity="0.25" d="M35.6755 31.3898H34.2426V32.8304H35.6755V31.3898Z" fill="black"/>
<path opacity="0.25" d="M38.5397 31.3898H37.1068V32.8304H38.5397V31.3898Z" fill="black"/>
<path opacity="0.25" d="M7.0291 32.8304H5.59619V34.2711H7.0291V32.8304Z" fill="black"/>
<path opacity="0.25" d="M9.89324 32.8304H8.46033V34.2711H9.89324V32.8304Z" fill="black"/>
<path opacity="0.25" d="M11.3261 32.8304H9.89324V34.2711H11.3261V32.8304Z" fill="black"/>
<path opacity="0.25" d="M12.7591 32.8304H11.3261V34.2711H12.7591V32.8304Z" fill="black"/>
<path opacity="0.25" d="M14.1903 32.8304H12.7574V34.2711H14.1903V32.8304Z" fill="black"/>
<path opacity="0.25" d="M17.0544 32.8304H15.6215V34.2711H17.0544V32.8304Z" fill="black"/>
<path opacity="0.25" d="M18.4873 32.8304H17.0544V34.2711H18.4873V32.8304Z" fill="black"/>
<path opacity="0.25" d="M19.9202 32.8304H18.4873V34.2711H19.9202V32.8304Z" fill="black"/>
<path opacity="0.25" d="M21.3515 32.8304H19.9186V34.2711H21.3515V32.8304Z" fill="black"/>
<path opacity="0.25" d="M22.7844 32.8304H21.3515V34.2711H22.7844V32.8304Z" fill="black"/>
<path opacity="0.25" d="M27.0814 32.8304H25.6485V34.2711H27.0814V32.8304Z" fill="black"/>
<path opacity="0.25" d="M29.9456 32.8304H28.5127V34.2711H29.9456V32.8304Z" fill="black"/>
<path opacity="0.25" d="M31.3785 32.8304H29.9456V34.2711H31.3785V32.8304Z" fill="black"/>
<path opacity="0.25" d="M7.0291 34.2711H5.59619V35.7118H7.0291V34.2711Z" fill="black"/>
<path opacity="0.25" d="M11.3261 34.2711H9.89324V35.7118H11.3261V34.2711Z" fill="black"/>
<path opacity="0.25" d="M15.6232 34.2711H14.1903V35.7118H15.6232V34.2711Z" fill="black"/>
<path opacity="0.25" d="M19.9202 34.2711H18.4873V35.7118H19.9202V34.2711Z" fill="black"/>
<path opacity="0.25" d="M22.7844 34.2711H21.3515V35.7118H22.7844V34.2711Z" fill="black"/>
<path opacity="0.25" d="M25.6485 34.2711H24.2156V35.7118H25.6485V34.2711Z" fill="black"/>
<path opacity="0.25" d="M28.5143 34.2711H27.0814V35.7118H28.5143V34.2711Z" fill="black"/>
<path opacity="0.25" d="M32.8114 34.2711H31.3785V35.7118H32.8114V34.2711Z" fill="black"/>
<path opacity="0.25" d="M34.2426 34.2711H32.8097V35.7118H34.2426V34.2711Z" fill="black"/>
<path opacity="0.25" d="M35.6755 34.2711H34.2426V35.7118H35.6755V34.2711Z" fill="black"/>
<path opacity="0.25" d="M37.1068 34.2711H35.6739V35.7118H37.1068V34.2711Z" fill="black"/>
<path opacity="0.25" d="M39.9726 34.2711H38.5397V35.7118H39.9726V34.2711Z" fill="black"/>
<path opacity="0.25" d="M41.4038 34.2711H39.9709V35.7118H41.4038V34.2711Z" fill="black"/>
<path opacity="0.25" d="M7.0291 35.7101H5.59619V37.1507H7.0291V35.7101Z" fill="black"/>
<path opacity="0.25" d="M8.46201 35.7101H7.0291V37.1507H8.46201V35.7101Z" fill="black"/>
<path opacity="0.25" d="M11.3261 35.7101H9.89324V37.1507H11.3261V35.7101Z" fill="black"/>
<path opacity="0.25" d="M17.0544 35.7101H15.6215V37.1507H17.0544V35.7101Z" fill="black"/>
<path opacity="0.25" d="M21.3515 35.7101H19.9186V37.1507H21.3515V35.7101Z" fill="black"/>
<path opacity="0.25" d="M24.2173 35.7101H22.7844V37.1507H24.2173V35.7101Z" fill="black"/>
<path opacity="0.25" d="M27.0814 35.7101H25.6485V37.1507H27.0814V35.7101Z" fill="black"/>
<path opacity="0.25" d="M29.9456 35.7101H28.5127V37.1507H29.9456V35.7101Z" fill="black"/>
<path opacity="0.25" d="M31.3785 35.7101H29.9456V37.1507H31.3785V35.7101Z" fill="black"/>
<path opacity="0.25" d="M32.8114 35.7101H31.3785V37.1507H32.8114V35.7101Z" fill="black"/>
<path opacity="0.25" d="M34.2426 35.7101H32.8097V37.1507H34.2426V35.7101Z" fill="black"/>
<path opacity="0.25" d="M35.6755 35.7101H34.2426V37.1507H35.6755V35.7101Z" fill="black"/>
<path opacity="0.25" d="M7.0291 37.1506H5.59619V38.5913H7.0291V37.1506Z" fill="black"/>
<path opacity="0.25" d="M9.89324 37.1506H8.46033V38.5913H9.89324V37.1506Z" fill="black"/>
<path opacity="0.25" d="M11.3261 37.1506H9.89324V38.5913H11.3261V37.1506Z" fill="black"/>
<path opacity="0.25" d="M12.7591 37.1506H11.3261V38.5913H12.7591V37.1506Z" fill="black"/>
<path opacity="0.25" d="M15.6232 37.1506H14.1903V38.5913H15.6232V37.1506Z" fill="black"/>
<path opacity="0.25" d="M17.0544 37.1506H15.6215V38.5913H17.0544V37.1506Z" fill="black"/>
<path opacity="0.25" d="M25.6485 37.1506H24.2156V38.5913H25.6485V37.1506Z" fill="black"/>
<path opacity="0.25" d="M31.3785 37.1506H29.9456V38.5913H31.3785V37.1506Z" fill="black"/>
<path opacity="0.25" d="M32.8114 37.1506H31.3785V38.5913H32.8114V37.1506Z" fill="black"/>
<path opacity="0.25" d="M35.6755 37.1506H34.2426V38.5913H35.6755V37.1506Z" fill="black"/>
<path opacity="0.25" d="M38.5397 37.1506H37.1068V38.5913H38.5397V37.1506Z" fill="black"/>
<path opacity="0.25" d="M39.9726 37.1506H38.5397V38.5913H39.9726V37.1506Z" fill="black"/>
<path opacity="0.25" d="M41.4038 37.1506H39.9709V38.5913H41.4038V37.1506Z" fill="black"/>
<path opacity="0.25" d="M7.0291 38.5913H5.59619V40.032H7.0291V38.5913Z" fill="black"/>
<path opacity="0.25" d="M11.3261 38.5913H9.89324V40.032H11.3261V38.5913Z" fill="black"/>
<path opacity="0.25" d="M14.1903 38.5913H12.7574V40.032H14.1903V38.5913Z" fill="black"/>
<path opacity="0.25" d="M19.9202 38.5913H18.4873V40.032H19.9202V38.5913Z" fill="black"/>
<path opacity="0.25" d="M21.3515 38.5913H19.9186V40.032H21.3515V38.5913Z" fill="black"/>
<path opacity="0.25" d="M24.2173 38.5913H22.7844V40.032H24.2173V38.5913Z" fill="black"/>
<path opacity="0.25" d="M25.6485 38.5913H24.2156V40.032H25.6485V38.5913Z" fill="black"/>
<path opacity="0.25" d="M27.0814 38.5913H25.6485V40.032H27.0814V38.5913Z" fill="black"/>
<path opacity="0.25" d="M31.3785 38.5913H29.9456V40.032H31.3785V38.5913Z" fill="black"/>
<path opacity="0.25" d="M39.9726 38.5913H38.5397V40.032H39.9726V38.5913Z" fill="black"/>
<path opacity="0.25" d="M41.4038 38.5913H39.9709V40.032H41.4038V38.5913Z" fill="black"/>
<path opacity="0.25" d="M7.0291 40.0303H5.59619V41.4709H7.0291V40.0303Z" fill="black"/>
<path opacity="0.25" d="M15.6232 40.0303H14.1903V41.4709H15.6232V40.0303Z" fill="black"/>
<path opacity="0.25" d="M21.3515 40.0303H19.9186V41.4709H21.3515V40.0303Z" fill="black"/>
<path opacity="0.25" d="M24.2173 40.0303H22.7844V41.4709H24.2173V40.0303Z" fill="black"/>
<path opacity="0.25" d="M28.5143 40.0303H27.0814V41.4709H28.5143V40.0303Z" fill="black"/>
<path opacity="0.25" d="M29.9456 40.0303H28.5127V41.4709H29.9456V40.0303Z" fill="black"/>
<path opacity="0.25" d="M31.3785 40.0303H29.9456V41.4709H31.3785V40.0303Z" fill="black"/>
<path opacity="0.25" d="M32.8114 40.0303H31.3785V41.4709H32.8114V40.0303Z" fill="black"/>
<path opacity="0.25" d="M34.2426 40.0303H32.8097V41.4709H34.2426V40.0303Z" fill="black"/>
<path opacity="0.25" d="M35.6755 40.0303H34.2426V41.4709H35.6755V40.0303Z" fill="black"/>
<path opacity="0.25" d="M37.1068 40.0303H35.6739V41.4709H37.1068V40.0303Z" fill="black"/>
<path opacity="0.25" d="M41.4038 40.0303H39.9709V41.4709H41.4038V40.0303Z" fill="black"/>
<path opacity="0.25" d="M18.4873 41.4709H17.0544V42.9116H18.4873V41.4709Z" fill="black"/>
<path opacity="0.25" d="M21.3515 41.4709H19.9186V42.9116H21.3515V41.4709Z" fill="black"/>
<path opacity="0.25" d="M27.0814 41.4709H25.6485V42.9116H27.0814V41.4709Z" fill="black"/>
<path opacity="0.25" d="M29.9456 41.4709H28.5127V42.9116H29.9456V41.4709Z" fill="black"/>
<path opacity="0.25" d="M35.6755 41.4709H34.2426V42.9116H35.6755V41.4709Z" fill="black"/>
<path opacity="0.25" d="M41.4038 41.4709H39.9709V42.9116H41.4038V41.4709Z" fill="black"/>
<path opacity="0.25" d="M18.4873 42.9115H17.0544V44.3521H18.4873V42.9115Z" fill="black"/>
<path opacity="0.25" d="M19.9202 42.9115H18.4873V44.3521H19.9202V42.9115Z" fill="black"/>
<path opacity="0.25" d="M21.3515 42.9115H19.9186V44.3521H21.3515V42.9115Z" fill="black"/>
<path opacity="0.25" d="M22.7844 42.9115H21.3515V44.3521H22.7844V42.9115Z" fill="black"/>
<path opacity="0.25" d="M24.2173 42.9115H22.7844V44.3521H24.2173V42.9115Z" fill="black"/>
<path opacity="0.25" d="M27.0814 42.9115H25.6485V44.3521H27.0814V42.9115Z" fill="black"/>
<path opacity="0.25" d="M29.9456 42.9115H28.5127V44.3521H29.9456V42.9115Z" fill="black"/>
<path opacity="0.25" d="M32.8114 42.9115H31.3785V44.3521H32.8114V42.9115Z" fill="black"/>
<path opacity="0.25" d="M35.6755 42.9115H34.2426V44.3521H35.6755V42.9115Z" fill="black"/>
<path opacity="0.25" d="M38.5397 42.9115H37.1068V44.3521H38.5397V42.9115Z" fill="black"/>
<path opacity="0.25" d="M39.9726 42.9115H38.5397V44.3521H39.9726V42.9115Z" fill="black"/>
<path opacity="0.25" d="M41.4038 42.9115H39.9709V44.3521H41.4038V42.9115Z" fill="black"/>
<path opacity="0.25" d="M19.9202 44.3505H18.4873V45.7911H19.9202V44.3505Z" fill="black"/>
<path opacity="0.25" d="M21.3515 44.3505H19.9186V45.7911H21.3515V44.3505Z" fill="black"/>
<path opacity="0.25" d="M22.7844 44.3505H21.3515V45.7911H22.7844V44.3505Z" fill="black"/>
<path opacity="0.25" d="M27.0814 44.3505H25.6485V45.7911H27.0814V44.3505Z" fill="black"/>
<path opacity="0.25" d="M29.9456 44.3505H28.5127V45.7911H29.9456V44.3505Z" fill="black"/>
<path opacity="0.25" d="M35.6755 44.3505H34.2426V45.7911H35.6755V44.3505Z" fill="black"/>
<path opacity="0.25" d="M37.1068 44.3505H35.6739V45.7911H37.1068V44.3505Z" fill="black"/>
<path opacity="0.25" d="M18.4873 45.7911H17.0544V47.2318H18.4873V45.7911Z" fill="black"/>
<path opacity="0.25" d="M19.9202 45.7911H18.4873V47.2318H19.9202V45.7911Z" fill="black"/>
<path opacity="0.25" d="M22.7844 45.7911H21.3515V47.2318H22.7844V45.7911Z" fill="black"/>
<path opacity="0.25" d="M24.2173 45.7911H22.7844V47.2318H24.2173V45.7911Z" fill="black"/>
<path opacity="0.25" d="M25.6485 45.7911H24.2156V47.2318H25.6485V45.7911Z" fill="black"/>
<path opacity="0.25" d="M29.9456 45.7911H28.5127V47.2318H29.9456V45.7911Z" fill="black"/>
<path opacity="0.25" d="M31.3785 45.7911H29.9456V47.2318H31.3785V45.7911Z" fill="black"/>
<path opacity="0.25" d="M32.8114 45.7911H31.3785V47.2318H32.8114V45.7911Z" fill="black"/>
<path opacity="0.25" d="M34.2426 45.7911H32.8097V47.2318H34.2426V45.7911Z" fill="black"/>
<path opacity="0.25" d="M35.6755 45.7911H34.2426V47.2318H35.6755V45.7911Z" fill="black"/>
<path opacity="0.25" d="M37.1068 45.7911H35.6739V47.2318H37.1068V45.7911Z" fill="black"/>
<path opacity="0.25" d="M18.4873 47.2301H17.0544V48.6707H18.4873V47.2301Z" fill="black"/>
<path opacity="0.25" d="M19.9202 47.2301H18.4873V48.6707H19.9202V47.2301Z" fill="black"/>
<path opacity="0.25" d="M21.3515 47.2301H19.9186V48.6707H21.3515V47.2301Z" fill="black"/>
<path opacity="0.25" d="M24.2173 47.2301H22.7844V48.6707H24.2173V47.2301Z" fill="black"/>
<path opacity="0.25" d="M28.5143 47.2301H27.0814V48.6707H28.5143V47.2301Z" fill="black"/>
<path opacity="0.25" d="M29.9456 47.2301H28.5127V48.6707H29.9456V47.2301Z" fill="black"/>
<path opacity="0.25" d="M32.8114 47.2301H31.3785V48.6707H32.8114V47.2301Z" fill="black"/>
<path opacity="0.25" d="M35.6755 47.2301H34.2426V48.6707H35.6755V47.2301Z" fill="black"/>
<path opacity="0.25" d="M39.9726 47.2301H38.5397V48.6707H39.9726V47.2301Z" fill="black"/>
<path opacity="0.25" d="M41.4038 47.2301H39.9709V48.6707H41.4038V47.2301Z" fill="black"/>
<path opacity="0.25" d="M18.4873 48.6707H17.0544V50.1113H18.4873V48.6707Z" fill="black"/>
<path opacity="0.25" d="M19.9202 48.6707H18.4873V50.1113H19.9202V48.6707Z" fill="black"/>
<path opacity="0.25" d="M24.2173 48.6707H22.7844V50.1113H24.2173V48.6707Z" fill="black"/>
<path opacity="0.25" d="M25.6485 48.6707H24.2156V50.1113H25.6485V48.6707Z" fill="black"/>
<path opacity="0.25" d="M27.0814 48.6707H25.6485V50.1113H27.0814V48.6707Z" fill="black"/>
<path opacity="0.25" d="M35.6755 48.6707H34.2426V50.1113H35.6755V48.6707Z" fill="black"/>
<path opacity="0.25" d="M38.5397 48.6707H37.1068V50.1113H38.5397V48.6707Z" fill="black"/>
<path opacity="0.25" d="M41.4038 48.6707H39.9709V50.1113H41.4038V48.6707Z" fill="black"/>
<path opacity="0.25" d="M18.4873 50.1115H17.0544V51.5521H18.4873V50.1115Z" fill="black"/>
<path opacity="0.25" d="M19.9202 50.1115H18.4873V51.5521H19.9202V50.1115Z" fill="black"/>
<path opacity="0.25" d="M21.3515 50.1115H19.9186V51.5521H21.3515V50.1115Z" fill="black"/>
<path opacity="0.25" d="M24.2173 50.1115H22.7844V51.5521H24.2173V50.1115Z" fill="black"/>
<path opacity="0.25" d="M25.6485 50.1115H24.2156V51.5521H25.6485V50.1115Z" fill="black"/>
<path opacity="0.25" d="M29.9456 50.1115H28.5127V51.5521H29.9456V50.1115Z" fill="black"/>
<path opacity="0.25" d="M31.3785 50.1115H29.9456V51.5521H31.3785V50.1115Z" fill="black"/>
<path opacity="0.25" d="M32.8114 50.1115H31.3785V51.5521H32.8114V50.1115Z" fill="black"/>
<path opacity="0.25" d="M34.2426 50.1115H32.8097V51.5521H34.2426V50.1115Z" fill="black"/>
<path opacity="0.25" d="M35.6755 50.1115H34.2426V51.5521H35.6755V50.1115Z" fill="black"/>
<path opacity="0.25" d="M37.1068 50.1115H35.6739V51.5521H37.1068V50.1115Z" fill="black"/>
<path opacity="0.25" d="M39.9726 50.1115H38.5397V51.5521H39.9726V50.1115Z" fill="black"/>
<path opacity="0.25" d="M18.4873 51.5503H17.0544V52.9909H18.4873V51.5503Z" fill="black"/>
<path opacity="0.25" d="M25.6485 51.5503H24.2156V52.9909H25.6485V51.5503Z" fill="black"/>
<path opacity="0.25" d="M28.5143 51.5503H27.0814V52.9909H28.5143V51.5503Z" fill="black"/>
<path opacity="0.25" d="M38.5397 51.5503H37.1068V52.9909H38.5397V51.5503Z" fill="black"/>
<path opacity="0.25" d="M39.9726 51.5503H38.5397V52.9909H39.9726V51.5503Z" fill="black"/>
<path opacity="0.25" d="M41.4038 51.5503H39.9709V52.9909H41.4038V51.5503Z" fill="black"/>
<path opacity="0.25" d="M5.9005 16.9884C5.7333 16.9884 5.59619 17.1262 5.59619 17.2943V18.429V19.8697V21.3103V22.751V24.1916V25.6322V26.7669C5.59619 26.935 5.73163 27.0729 5.9005 27.0729H15.3189C15.4861 27.0729 15.6232 26.9367 15.6232 26.7669V25.6322V24.1916V22.751V21.3103V19.8697V18.429V17.2943C15.6232 17.1262 15.4878 16.9884 15.3189 16.9884H5.9005ZM14.1903 19.8697V21.3103V22.751V24.1916V25.4557C14.1903 25.5532 14.1117 25.6322 14.0147 25.6322H7.20299C7.10601 25.6322 7.02743 25.5532 7.02743 25.4557V24.1916V22.751V21.3103V19.8697V18.6056C7.02743 18.5081 7.10601 18.429 7.20299 18.429H14.0147C14.1117 18.429 14.1903 18.5081 14.1903 18.6056V19.8697Z" fill="black"/>
<path opacity="0.25" d="M12.7574 22.751V21.3104V20.1757C12.7574 20.0076 12.622 19.8698 12.4531 19.8698H8.76464C8.59744 19.8698 8.46033 20.0059 8.46033 20.1757V21.3104V22.751V23.8857C8.46033 24.0538 8.59577 24.1917 8.76464 24.1917H12.4531C12.6203 24.1917 12.7574 24.0555 12.7574 23.8857V22.751Z" fill="black"/>
<path opacity="0.25" d="M31.6811 16.9884C31.5139 16.9884 31.3768 17.1262 31.3768 17.2943V18.429V19.8697V21.3103V22.751V24.1916V25.6322V26.7669C31.3768 26.935 31.5122 27.0729 31.6811 27.0729H41.0995C41.2667 27.0729 41.4038 26.9367 41.4038 26.7669V25.6322V24.1916V22.751V21.3103V19.8697V18.429V17.2943C41.4038 17.1262 41.2684 16.9884 41.0995 16.9884H31.6811ZM39.9709 19.8697V21.3103V22.751V24.1916V25.4557C39.9709 25.5532 39.8923 25.6322 39.7953 25.6322H32.9836C32.8866 25.6322 32.808 25.5532 32.808 25.4557V24.1916V22.751V21.3103V19.8697V18.6056C32.808 18.5081 32.8866 18.429 32.9836 18.429H39.7953C39.8923 18.429 39.9709 18.5081 39.9709 18.6056V19.8697Z" fill="black"/>
<path opacity="0.25" d="M38.5397 22.751V21.3104V20.1757C38.5397 20.0076 38.4042 19.8698 38.2354 19.8698H34.5469C34.3797 19.8698 34.2426 20.0059 34.2426 20.1757V21.3104V22.751V23.8857C34.2426 24.0538 34.378 24.1917 34.5469 24.1917H38.2354C38.4026 24.1917 38.5397 24.0555 38.5397 23.8857V22.751Z" fill="black"/>
<path opacity="0.25" d="M5.9005 42.9099C5.7333 42.9099 5.59619 43.0478 5.59619 43.2159V44.3505V45.7912V47.2318V48.6725V50.1131V51.5537V52.6884C5.59619 52.8565 5.73163 52.9944 5.9005 52.9944H15.3189C15.4861 52.9944 15.6232 52.8582 15.6232 52.6884V51.5537V50.1131V48.6725V47.2318V45.7912V44.3505V43.2159C15.6232 43.0478 15.4878 42.9099 15.3189 42.9099H5.9005ZM14.1903 45.7912V47.2318V48.6725V50.1131V51.3772C14.1903 51.4747 14.1117 51.5537 14.0147 51.5537H7.20299C7.10601 51.5537 7.02743 51.4747 7.02743 51.3772V50.1131V48.6725V47.2318V45.7912V44.5271C7.02743 44.4296 7.10601 44.3505 7.20299 44.3505H14.0147C14.1117 44.3505 14.1903 44.4296 14.1903 44.5271V45.7912Z" fill="black"/>
<path opacity="0.25" d="M12.7574 48.6707V47.2301V46.0954C12.7574 45.9273 12.622 45.7894 12.4531 45.7894H8.76464C8.59744 45.7894 8.46033 45.9256 8.46033 46.0954V47.2301V48.6707V49.8054C8.46033 49.9735 8.59577 50.1113 8.76464 50.1113H12.4531C12.6203 50.1113 12.7574 49.9752 12.7574 49.8054V48.6707Z" fill="black"/>
<path d="M10.5052 64.6001C10.5052 65.091 10.3296 65.4759 9.97684 65.7583C9.62405 66.0408 9.13415 66.182 8.50715 66.182C7.84337 66.182 7.33006 66.0929 6.96724 65.9164V65.2389C7.20466 65.3415 7.46382 65.4221 7.74639 65.481C8.02896 65.5398 8.29146 65.5701 8.53725 65.5701C8.95525 65.5701 9.27126 65.4894 9.4836 65.328C9.69594 65.1666 9.80128 64.9447 9.80128 64.6623C9.80128 64.4757 9.76282 64.3211 9.68591 64.2C9.609 64.079 9.48026 63.9664 9.30135 63.8605C9.12078 63.7546 8.84824 63.6352 8.48374 63.5024C7.96542 63.3125 7.59591 63.0889 7.37353 62.83C7.15116 62.5728 7.0408 62.2383 7.0408 61.8315C7.0408 61.3927 7.20466 61.0431 7.53237 60.7842C7.86009 60.5253 8.29313 60.3959 8.82817 60.3959C9.38662 60.3959 9.9016 60.5018 10.3714 60.7119L10.1524 61.3204C9.67254 61.1204 9.22611 61.0195 8.81145 61.0195C8.4804 61.0195 8.21957 61.0918 8.0323 61.2347C7.84504 61.3793 7.75141 61.5793 7.75141 61.8399C7.75141 62.0248 7.78819 62.1778 7.86009 62.3005C7.93365 62.4232 8.05069 62.5341 8.21288 62.6333C8.37506 62.7342 8.62921 62.8468 8.97698 62.9762C9.39331 63.1309 9.70263 63.2805 9.90829 63.4251C10.1123 63.5696 10.2628 63.7378 10.3597 63.926C10.4567 64.1143 10.5052 64.3396 10.5052 64.6001ZM14.0331 61.0212C13.4312 61.0212 12.9563 61.2246 12.6119 61.6297C12.2675 62.0349 12.0953 62.5896 12.0953 63.2923C12.0953 64.0185 12.2625 64.5783 12.5969 64.9733C12.9313 65.3683 13.4078 65.565 14.0248 65.565C14.4227 65.565 14.8708 65.4911 15.369 65.3415V65.9567C15.1316 66.0441 14.9026 66.103 14.6835 66.1366C14.4645 66.1702 14.212 66.1853 13.9261 66.1853C13.1018 66.1853 12.4665 65.9332 12.0217 65.4289C11.5769 64.9246 11.3529 64.2101 11.3529 63.2856C11.3529 62.7056 11.4599 62.1979 11.6723 61.7609C11.8846 61.3238 12.1956 60.9876 12.6036 60.7523C13.0115 60.5169 13.4897 60.3976 14.0415 60.3976C14.6334 60.3976 15.15 60.5085 15.5881 60.7287L15.3055 61.3288C14.8574 61.1238 14.4327 61.0212 14.0331 61.0212ZM20.1025 66.1063L19.4287 64.3614H17.2083L16.5411 66.1063H15.8288L18.0158 60.4547H18.6512L20.8332 66.1063H20.1025ZM19.218 63.7344L18.5893 62.0298L18.3218 61.186C18.2449 61.4936 18.1646 61.7743 18.081 62.0298L17.4457 63.7361H19.218V63.7344ZM26.0414 66.1063H25.2188L22.2209 61.4331H22.1908L22.2092 61.7457C22.2393 62.2131 22.2544 62.6182 22.2544 62.9628V66.108H21.6039V60.4799H22.4199L22.5921 60.7539L24.4296 63.61L25.4061 65.138H25.4362C25.4312 65.0758 25.4211 64.8556 25.4061 64.4774C25.391 64.0992 25.3827 63.8252 25.3827 63.6554V60.4782H26.0414V66.1063ZM32.069 66.1063L30.2231 61.1708H30.193C30.2315 61.581 30.2499 62.0887 30.2499 62.6922V66.108H29.5995V60.4799H30.6411L32.3683 65.0927H32.3984L34.1557 60.4799H35.189V66.108H34.4917V62.6468C34.4917 62.2618 34.5101 61.7726 34.5452 61.1792H34.5152L32.6459 66.108H32.069V66.1063ZM39.8422 66.1063H36.7138V60.4782H39.8422V61.1019H37.4177V62.8569H39.7V63.4721H37.4194V65.4827H39.8438V66.1063H39.8422Z" fill="black"/>
<path d="M0.334401 68.2328H0V11.7504H0.334401V68.2328ZM46.6656 68.2328H47V11.7504H46.6656V68.2328Z" fill="#E6E6E6"/>
</svg>
