<svg width="47" height="80" viewBox="0 0 47 80" fill="none" xmlns="http://www.w3.org/2000/svg">
<path d="M0 68.2328H47V73.9483C47 77.2935 44.3081 80 40.9808 80H6.01921C2.69192 80 0 77.2935 0 73.9483V68.2328ZM40.9808 0H6.01921C2.69192 0 0 2.70645 0 6.05169V11.7504H47V6.05169C47 2.70645 44.3081 0 40.9808 0Z" fill="black"/>
<path opacity="0.35" d="M23.5084 78.3526C21.318 78.3526 19.5457 76.5707 19.5457 74.3686C19.5457 72.1664 21.318 70.3846 23.5084 70.3846C25.6987 70.3846 27.471 72.1664 27.471 74.3686C27.471 76.5707 25.682 78.3526 23.5084 78.3526ZM23.5084 71.41C21.8865 71.41 20.5489 72.738 20.5489 74.3854C20.5489 76.016 21.8698 77.3608 23.5084 77.3608C25.1469 77.3608 26.4678 76.0328 26.4678 74.3854C26.4511 72.738 25.1302 71.41 23.5084 71.41ZM28.5076 6.11894C28.5076 5.83317 28.2903 5.61464 28.006 5.61464H18.994C18.7097 5.61464 18.4923 5.83317 18.4923 6.11894C18.4923 6.40472 18.7097 6.62325 18.994 6.62325H28.006C28.2903 6.62325 28.5076 6.40472 28.5076 6.11894ZM16.6699 6.11894C16.6699 5.74912 16.3689 5.44653 16.0011 5.44653C15.6332 5.44653 15.3323 5.74912 15.3323 6.11894C15.3323 6.48877 15.6332 6.79135 16.0011 6.79135C16.3689 6.79135 16.6699 6.48877 16.6699 6.11894Z" fill="white"/>
</svg>