<svg width="64" height="80" viewBox="0 0 64 80" fill="none" xmlns="http://www.w3.org/2000/svg">
<g clip-path="url(#clip0)">
<path d="M61.7987 2.23877H2.2243V62.8247H61.7987V2.23877Z" fill="white"/>
<path opacity="0.25" d="M27.2442 8.29736H25.3386V10.2353H27.2442V8.29736Z" fill="black"/>
<path opacity="0.25" d="M36.7765 8.29736H34.8709V10.2353H36.7765V8.29736Z" fill="black"/>
<path opacity="0.25" d="M40.5899 8.29736H38.6843V10.2353H40.5899V8.29736Z" fill="black"/>
<path opacity="0.25" d="M25.3386 10.2352H23.433V12.1731H25.3386V10.2352Z" fill="black"/>
<path opacity="0.25" d="M27.2442 10.2352H25.3386V12.1731H27.2442V10.2352Z" fill="black"/>
<path opacity="0.25" d="M31.0575 10.2352H29.152V12.1731H31.0575V10.2352Z" fill="black"/>
<path opacity="0.25" d="M32.9631 10.2352H31.0576V12.1731H32.9631V10.2352Z" fill="black"/>
<path opacity="0.25" d="M34.8709 10.2352H32.9654V12.1731H34.8709V10.2352Z" fill="black"/>
<path opacity="0.25" d="M36.7765 10.2352H34.8709V12.1731H36.7765V10.2352Z" fill="black"/>
<path opacity="0.25" d="M27.2442 12.1755H25.3386V14.1134H27.2442V12.1755Z" fill="black"/>
<path opacity="0.25" d="M29.152 12.1755H27.2464V14.1134H29.152V12.1755Z" fill="black"/>
<path opacity="0.25" d="M31.0575 12.1755H29.152V14.1134H31.0575V12.1755Z" fill="black"/>
<path opacity="0.25" d="M25.3386 14.1134H23.433V16.0513H25.3386V14.1134Z" fill="black"/>
<path opacity="0.25" d="M27.2442 14.1134H25.3386V16.0513H27.2442V14.1134Z" fill="black"/>
<path opacity="0.25" d="M31.0575 14.1134H29.152V16.0513H31.0575V14.1134Z" fill="black"/>
<path opacity="0.25" d="M34.8709 14.1134H32.9654V16.0513H34.8709V14.1134Z" fill="black"/>
<path opacity="0.25" d="M38.682 14.1134H36.7765V16.0513H38.682V14.1134Z" fill="black"/>
<path opacity="0.25" d="M40.5899 14.1134H38.6843V16.0513H40.5899V14.1134Z" fill="black"/>
<path opacity="0.25" d="M29.152 16.0514H27.2464V17.9893H29.152V16.0514Z" fill="black"/>
<path opacity="0.25" d="M32.9631 16.0514H31.0576V17.9893H32.9631V16.0514Z" fill="black"/>
<path opacity="0.25" d="M38.682 16.0514H36.7765V17.9893H38.682V16.0514Z" fill="black"/>
<path opacity="0.25" d="M40.5899 16.0514H38.6843V17.9893H40.5899V16.0514Z" fill="black"/>
<path opacity="0.25" d="M25.3386 17.9916H23.433V19.9295H25.3386V17.9916Z" fill="black"/>
<path opacity="0.25" d="M29.152 17.9916H27.2464V19.9295H29.152V17.9916Z" fill="black"/>
<path opacity="0.25" d="M34.8709 17.9916H32.9654V19.9295H34.8709V17.9916Z" fill="black"/>
<path opacity="0.25" d="M36.7765 17.9916H34.8709V19.9295H36.7765V17.9916Z" fill="black"/>
<path opacity="0.25" d="M38.682 17.9916H36.7765V19.9295H38.682V17.9916Z" fill="black"/>
<path opacity="0.25" d="M25.3386 19.9294H23.433V21.8674H25.3386V19.9294Z" fill="black"/>
<path opacity="0.25" d="M29.152 19.9294H27.2464V21.8674H29.152V19.9294Z" fill="black"/>
<path opacity="0.25" d="M32.9631 19.9294H31.0576V21.8674H32.9631V19.9294Z" fill="black"/>
<path opacity="0.25" d="M36.7765 19.9294H34.8709V21.8674H36.7765V19.9294Z" fill="black"/>
<path opacity="0.25" d="M40.5899 19.9294H38.6843V21.8674H40.5899V19.9294Z" fill="black"/>
<path opacity="0.25" d="M32.9631 21.8696H31.0576V23.8075H32.9631V21.8696Z" fill="black"/>
<path opacity="0.25" d="M40.5899 21.8696H38.6843V23.8075H40.5899V21.8696Z" fill="black"/>
<path opacity="0.25" d="M10.0873 23.8076H8.18173V25.7455H10.0873V23.8076Z" fill="black"/>
<path opacity="0.25" d="M11.9928 23.8076H10.0873V25.7455H11.9928V23.8076Z" fill="black"/>
<path opacity="0.25" d="M13.9007 23.8076H11.9951V25.7455H13.9007V23.8076Z" fill="black"/>
<path opacity="0.25" d="M15.8062 23.8076H13.9007V25.7455H15.8062V23.8076Z" fill="black"/>
<path opacity="0.25" d="M17.7118 23.8076H15.8062V25.7455H17.7118V23.8076Z" fill="black"/>
<path opacity="0.25" d="M21.5252 23.8076H19.6196V25.7455H21.5252V23.8076Z" fill="black"/>
<path opacity="0.25" d="M23.433 23.8076H21.5275V25.7455H23.433V23.8076Z" fill="black"/>
<path opacity="0.25" d="M25.3386 23.8076H23.433V25.7455H25.3386V23.8076Z" fill="black"/>
<path opacity="0.25" d="M27.2442 23.8076H25.3386V25.7455H27.2442V23.8076Z" fill="black"/>
<path opacity="0.25" d="M29.152 23.8076H27.2464V25.7455H29.152V23.8076Z" fill="black"/>
<path opacity="0.25" d="M32.9631 23.8076H31.0576V25.7455H32.9631V23.8076Z" fill="black"/>
<path opacity="0.25" d="M34.8709 23.8076H32.9654V25.7455H34.8709V23.8076Z" fill="black"/>
<path opacity="0.25" d="M38.682 23.8076H36.7765V25.7455H38.682V23.8076Z" fill="black"/>
<path opacity="0.25" d="M42.4955 23.8076H40.5899V25.7455H42.4955V23.8076Z" fill="black"/>
<path opacity="0.25" d="M46.3088 23.8076H44.4033V25.7455H46.3088V23.8076Z" fill="black"/>
<path opacity="0.25" d="M50.1223 23.8076H48.2167V25.7455H50.1223V23.8076Z" fill="black"/>
<path opacity="0.25" d="M53.9333 23.8076H52.0278V25.7455H53.9333V23.8076Z" fill="black"/>
<path opacity="0.25" d="M15.8062 25.7455H13.9007V27.6834H15.8062V25.7455Z" fill="black"/>
<path opacity="0.25" d="M27.2442 25.7455H25.3386V27.6834H27.2442V25.7455Z" fill="black"/>
<path opacity="0.25" d="M38.682 25.7455H36.7765V27.6834H38.682V25.7455Z" fill="black"/>
<path opacity="0.25" d="M40.5899 25.7455H38.6843V27.6834H40.5899V25.7455Z" fill="black"/>
<path opacity="0.25" d="M42.4955 25.7455H40.5899V27.6834H42.4955V25.7455Z" fill="black"/>
<path opacity="0.25" d="M46.3088 25.7455H44.4033V27.6834H46.3088V25.7455Z" fill="black"/>
<path opacity="0.25" d="M48.2144 25.7455H46.3088V27.6834H48.2144V25.7455Z" fill="black"/>
<path opacity="0.25" d="M55.8412 25.7455H53.9356V27.6834H55.8412V25.7455Z" fill="black"/>
<path opacity="0.25" d="M13.9007 27.6858H11.9951V29.6237H13.9007V27.6858Z" fill="black"/>
<path opacity="0.25" d="M19.6196 27.6858H17.7141V29.6237H19.6196V27.6858Z" fill="black"/>
<path opacity="0.25" d="M21.5252 27.6858H19.6196V29.6237H21.5252V27.6858Z" fill="black"/>
<path opacity="0.25" d="M23.433 27.6858H21.5275V29.6237H23.433V27.6858Z" fill="black"/>
<path opacity="0.25" d="M27.2442 27.6858H25.3386V29.6237H27.2442V27.6858Z" fill="black"/>
<path opacity="0.25" d="M31.0575 27.6858H29.152V29.6237H31.0575V27.6858Z" fill="black"/>
<path opacity="0.25" d="M32.9631 27.6858H31.0576V29.6237H32.9631V27.6858Z" fill="black"/>
<path opacity="0.25" d="M34.8709 27.6858H32.9654V29.6237H34.8709V27.6858Z" fill="black"/>
<path opacity="0.25" d="M36.7765 27.6858H34.8709V29.6237H36.7765V27.6858Z" fill="black"/>
<path opacity="0.25" d="M38.682 27.6858H36.7765V29.6237H38.682V27.6858Z" fill="black"/>
<path opacity="0.25" d="M42.4955 27.6858H40.5899V29.6237H42.4955V27.6858Z" fill="black"/>
<path opacity="0.25" d="M44.401 27.6858H42.4955V29.6237H44.401V27.6858Z" fill="black"/>
<path opacity="0.25" d="M48.2144 27.6858H46.3088V29.6237H48.2144V27.6858Z" fill="black"/>
<path opacity="0.25" d="M52.0278 27.6858H50.1223V29.6237H52.0278V27.6858Z" fill="black"/>
<path opacity="0.25" d="M10.0873 29.6237H8.18173V31.5616H10.0873V29.6237Z" fill="black"/>
<path opacity="0.25" d="M13.9007 29.6237H11.9951V31.5616H13.9007V29.6237Z" fill="black"/>
<path opacity="0.25" d="M15.8062 29.6237H13.9007V31.5616H15.8062V29.6237Z" fill="black"/>
<path opacity="0.25" d="M17.7118 29.6237H15.8062V31.5616H17.7118V29.6237Z" fill="black"/>
<path opacity="0.25" d="M19.6196 29.6237H17.7141V31.5616H19.6196V29.6237Z" fill="black"/>
<path opacity="0.25" d="M23.433 29.6237H21.5275V31.5616H23.433V29.6237Z" fill="black"/>
<path opacity="0.25" d="M25.3386 29.6237H23.433V31.5616H25.3386V29.6237Z" fill="black"/>
<path opacity="0.25" d="M27.2442 29.6237H25.3386V31.5616H27.2442V29.6237Z" fill="black"/>
<path opacity="0.25" d="M29.152 29.6237H27.2464V31.5616H29.152V29.6237Z" fill="black"/>
<path opacity="0.25" d="M31.0575 29.6237H29.152V31.5616H31.0575V29.6237Z" fill="black"/>
<path opacity="0.25" d="M36.7765 29.6237H34.8709V31.5616H36.7765V29.6237Z" fill="black"/>
<path opacity="0.25" d="M40.5899 29.6237H38.6843V31.5616H40.5899V29.6237Z" fill="black"/>
<path opacity="0.25" d="M42.4955 29.6237H40.5899V31.5616H42.4955V29.6237Z" fill="black"/>
<path opacity="0.25" d="M10.0873 31.5616H8.18173V33.4996H10.0873V31.5616Z" fill="black"/>
<path opacity="0.25" d="M15.8062 31.5616H13.9007V33.4996H15.8062V31.5616Z" fill="black"/>
<path opacity="0.25" d="M21.5252 31.5616H19.6196V33.4996H21.5252V31.5616Z" fill="black"/>
<path opacity="0.25" d="M27.2442 31.5616H25.3386V33.4996H27.2442V31.5616Z" fill="black"/>
<path opacity="0.25" d="M31.0575 31.5616H29.152V33.4996H31.0575V31.5616Z" fill="black"/>
<path opacity="0.25" d="M34.8709 31.5616H32.9654V33.4996H34.8709V31.5616Z" fill="black"/>
<path opacity="0.25" d="M38.682 31.5616H36.7765V33.4996H38.682V31.5616Z" fill="black"/>
<path opacity="0.25" d="M44.401 31.5616H42.4955V33.4996H44.401V31.5616Z" fill="black"/>
<path opacity="0.25" d="M46.3088 31.5616H44.4033V33.4996H46.3088V31.5616Z" fill="black"/>
<path opacity="0.25" d="M48.2144 31.5616H46.3088V33.4996H48.2144V31.5616Z" fill="black"/>
<path opacity="0.25" d="M50.1223 31.5616H48.2167V33.4996H50.1223V31.5616Z" fill="black"/>
<path opacity="0.25" d="M53.9333 31.5616H52.0278V33.4996H53.9333V31.5616Z" fill="black"/>
<path opacity="0.25" d="M55.8412 31.5616H53.9356V33.4996H55.8412V31.5616Z" fill="black"/>
<path opacity="0.25" d="M10.0873 33.5018H8.18173V35.4397H10.0873V33.5018Z" fill="black"/>
<path opacity="0.25" d="M11.9928 33.5018H10.0873V35.4397H11.9928V33.5018Z" fill="black"/>
<path opacity="0.25" d="M15.8062 33.5018H13.9007V35.4397H15.8062V33.5018Z" fill="black"/>
<path opacity="0.25" d="M23.433 33.5018H21.5275V35.4397H23.433V33.5018Z" fill="black"/>
<path opacity="0.25" d="M29.152 33.5018H27.2464V35.4397H29.152V33.5018Z" fill="black"/>
<path opacity="0.25" d="M32.9631 33.5018H31.0576V35.4397H32.9631V33.5018Z" fill="black"/>
<path opacity="0.25" d="M36.7765 33.5018H34.8709V35.4397H36.7765V33.5018Z" fill="black"/>
<path opacity="0.25" d="M40.5899 33.5018H38.6843V35.4397H40.5899V33.5018Z" fill="black"/>
<path opacity="0.25" d="M42.4955 33.5018H40.5899V35.4397H42.4955V33.5018Z" fill="black"/>
<path opacity="0.25" d="M44.401 33.5018H42.4955V35.4397H44.401V33.5018Z" fill="black"/>
<path opacity="0.25" d="M46.3088 33.5018H44.4033V35.4397H46.3088V33.5018Z" fill="black"/>
<path opacity="0.25" d="M48.2144 33.5018H46.3088V35.4397H48.2144V33.5018Z" fill="black"/>
<path opacity="0.25" d="M10.0873 35.4397H8.18173V37.3776H10.0873V35.4397Z" fill="black"/>
<path opacity="0.25" d="M13.9007 35.4397H11.9951V37.3776H13.9007V35.4397Z" fill="black"/>
<path opacity="0.25" d="M15.8062 35.4397H13.9007V37.3776H15.8062V35.4397Z" fill="black"/>
<path opacity="0.25" d="M17.7118 35.4397H15.8062V37.3776H17.7118V35.4397Z" fill="black"/>
<path opacity="0.25" d="M21.5252 35.4397H19.6196V37.3776H21.5252V35.4397Z" fill="black"/>
<path opacity="0.25" d="M23.433 35.4397H21.5275V37.3776H23.433V35.4397Z" fill="black"/>
<path opacity="0.25" d="M34.8709 35.4397H32.9654V37.3776H34.8709V35.4397Z" fill="black"/>
<path opacity="0.25" d="M42.4955 35.4397H40.5899V37.3776H42.4955V35.4397Z" fill="black"/>
<path opacity="0.25" d="M44.401 35.4397H42.4955V37.3776H44.401V35.4397Z" fill="black"/>
<path opacity="0.25" d="M48.2144 35.4397H46.3088V37.3776H48.2144V35.4397Z" fill="black"/>
<path opacity="0.25" d="M52.0278 35.4397H50.1223V37.3776H52.0278V35.4397Z" fill="black"/>
<path opacity="0.25" d="M53.9333 35.4397H52.0278V37.3776H53.9333V35.4397Z" fill="black"/>
<path opacity="0.25" d="M55.8412 35.4397H53.9356V37.3776H55.8412V35.4397Z" fill="black"/>
<path opacity="0.25" d="M10.0873 37.3776H8.18173V39.3155H10.0873V37.3776Z" fill="black"/>
<path opacity="0.25" d="M15.8062 37.3776H13.9007V39.3155H15.8062V37.3776Z" fill="black"/>
<path opacity="0.25" d="M19.6196 37.3776H17.7141V39.3155H19.6196V37.3776Z" fill="black"/>
<path opacity="0.25" d="M27.2442 37.3776H25.3386V39.3155H27.2442V37.3776Z" fill="black"/>
<path opacity="0.25" d="M29.152 37.3776H27.2464V39.3155H29.152V37.3776Z" fill="black"/>
<path opacity="0.25" d="M32.9631 37.3776H31.0576V39.3155H32.9631V37.3776Z" fill="black"/>
<path opacity="0.25" d="M34.8709 37.3776H32.9654V39.3155H34.8709V37.3776Z" fill="black"/>
<path opacity="0.25" d="M36.7765 37.3776H34.8709V39.3155H36.7765V37.3776Z" fill="black"/>
<path opacity="0.25" d="M42.4955 37.3776H40.5899V39.3155H42.4955V37.3776Z" fill="black"/>
<path opacity="0.25" d="M53.9333 37.3776H52.0278V39.3155H53.9333V37.3776Z" fill="black"/>
<path opacity="0.25" d="M55.8412 37.3776H53.9356V39.3155H55.8412V37.3776Z" fill="black"/>
<path opacity="0.25" d="M10.0873 39.3179H8.18173V41.2558H10.0873V39.3179Z" fill="black"/>
<path opacity="0.25" d="M21.5252 39.3179H19.6196V41.2558H21.5252V39.3179Z" fill="black"/>
<path opacity="0.25" d="M29.152 39.3179H27.2464V41.2558H29.152V39.3179Z" fill="black"/>
<path opacity="0.25" d="M32.9631 39.3179H31.0576V41.2558H32.9631V39.3179Z" fill="black"/>
<path opacity="0.25" d="M38.682 39.3179H36.7765V41.2558H38.682V39.3179Z" fill="black"/>
<path opacity="0.25" d="M40.5899 39.3179H38.6843V41.2558H40.5899V39.3179Z" fill="black"/>
<path opacity="0.25" d="M42.4955 39.3179H40.5899V41.2558H42.4955V39.3179Z" fill="black"/>
<path opacity="0.25" d="M44.401 39.3179H42.4955V41.2558H44.401V39.3179Z" fill="black"/>
<path opacity="0.25" d="M46.3088 39.3179H44.4033V41.2558H46.3088V39.3179Z" fill="black"/>
<path opacity="0.25" d="M48.2144 39.3179H46.3088V41.2558H48.2144V39.3179Z" fill="black"/>
<path opacity="0.25" d="M50.1223 39.3179H48.2167V41.2558H50.1223V39.3179Z" fill="black"/>
<path opacity="0.25" d="M55.8412 39.3179H53.9356V41.2558H55.8412V39.3179Z" fill="black"/>
<path opacity="0.25" d="M25.3386 41.2557H23.433V43.1936H25.3386V41.2557Z" fill="black"/>
<path opacity="0.25" d="M29.152 41.2557H27.2464V43.1936H29.152V41.2557Z" fill="black"/>
<path opacity="0.25" d="M36.7765 41.2557H34.8709V43.1936H36.7765V41.2557Z" fill="black"/>
<path opacity="0.25" d="M40.5899 41.2557H38.6843V43.1936H40.5899V41.2557Z" fill="black"/>
<path opacity="0.25" d="M48.2144 41.2557H46.3088V43.1936H48.2144V41.2557Z" fill="black"/>
<path opacity="0.25" d="M55.8412 41.2557H53.9356V43.1936H55.8412V41.2557Z" fill="black"/>
<path opacity="0.25" d="M25.3386 43.1937H23.433V45.1316H25.3386V43.1937Z" fill="black"/>
<path opacity="0.25" d="M27.2442 43.1937H25.3386V45.1316H27.2442V43.1937Z" fill="black"/>
<path opacity="0.25" d="M29.152 43.1937H27.2464V45.1316H29.152V43.1937Z" fill="black"/>
<path opacity="0.25" d="M31.0575 43.1937H29.152V45.1316H31.0575V43.1937Z" fill="black"/>
<path opacity="0.25" d="M32.9631 43.1937H31.0576V45.1316H32.9631V43.1937Z" fill="black"/>
<path opacity="0.25" d="M36.7765 43.1937H34.8709V45.1316H36.7765V43.1937Z" fill="black"/>
<path opacity="0.25" d="M40.5899 43.1937H38.6843V45.1316H40.5899V43.1937Z" fill="black"/>
<path opacity="0.25" d="M44.401 43.1937H42.4955V45.1316H44.401V43.1937Z" fill="black"/>
<path opacity="0.25" d="M48.2144 43.1937H46.3088V45.1316H48.2144V43.1937Z" fill="black"/>
<path opacity="0.25" d="M52.0278 43.1937H50.1223V45.1316H52.0278V43.1937Z" fill="black"/>
<path opacity="0.25" d="M53.9333 43.1937H52.0278V45.1316H53.9333V43.1937Z" fill="black"/>
<path opacity="0.25" d="M55.8412 43.1937H53.9356V45.1316H55.8412V43.1937Z" fill="black"/>
<path opacity="0.25" d="M27.2442 45.1339H25.3386V47.0718H27.2442V45.1339Z" fill="black"/>
<path opacity="0.25" d="M29.152 45.1339H27.2464V47.0718H29.152V45.1339Z" fill="black"/>
<path opacity="0.25" d="M31.0575 45.1339H29.152V47.0718H31.0575V45.1339Z" fill="black"/>
<path opacity="0.25" d="M36.7765 45.1339H34.8709V47.0718H36.7765V45.1339Z" fill="black"/>
<path opacity="0.25" d="M40.5899 45.1339H38.6843V47.0718H40.5899V45.1339Z" fill="black"/>
<path opacity="0.25" d="M48.2144 45.1339H46.3088V47.0718H48.2144V45.1339Z" fill="black"/>
<path opacity="0.25" d="M50.1223 45.1339H48.2167V47.0718H50.1223V45.1339Z" fill="black"/>
<path opacity="0.25" d="M25.3386 47.0719H23.433V49.0098H25.3386V47.0719Z" fill="black"/>
<path opacity="0.25" d="M27.2442 47.0719H25.3386V49.0098H27.2442V47.0719Z" fill="black"/>
<path opacity="0.25" d="M31.0575 47.0719H29.152V49.0098H31.0575V47.0719Z" fill="black"/>
<path opacity="0.25" d="M32.9631 47.0719H31.0576V49.0098H32.9631V47.0719Z" fill="black"/>
<path opacity="0.25" d="M34.8709 47.0719H32.9654V49.0098H34.8709V47.0719Z" fill="black"/>
<path opacity="0.25" d="M40.5899 47.0719H38.6843V49.0098H40.5899V47.0719Z" fill="black"/>
<path opacity="0.25" d="M42.4955 47.0719H40.5899V49.0098H42.4955V47.0719Z" fill="black"/>
<path opacity="0.25" d="M44.401 47.0719H42.4955V49.0098H44.401V47.0719Z" fill="black"/>
<path opacity="0.25" d="M46.3088 47.0719H44.4033V49.0098H46.3088V47.0719Z" fill="black"/>
<path opacity="0.25" d="M48.2144 47.0719H46.3088V49.0098H48.2144V47.0719Z" fill="black"/>
<path opacity="0.25" d="M50.1223 47.0719H48.2167V49.0098H50.1223V47.0719Z" fill="black"/>
<path opacity="0.25" d="M25.3386 49.0121H23.433V50.95H25.3386V49.0121Z" fill="black"/>
<path opacity="0.25" d="M27.2442 49.0121H25.3386V50.95H27.2442V49.0121Z" fill="black"/>
<path opacity="0.25" d="M29.152 49.0121H27.2464V50.95H29.152V49.0121Z" fill="black"/>
<path opacity="0.25" d="M32.9631 49.0121H31.0576V50.95H32.9631V49.0121Z" fill="black"/>
<path opacity="0.25" d="M38.682 49.0121H36.7765V50.95H38.682V49.0121Z" fill="black"/>
<path opacity="0.25" d="M40.5899 49.0121H38.6843V50.95H40.5899V49.0121Z" fill="black"/>
<path opacity="0.25" d="M44.401 49.0121H42.4955V50.95H44.401V49.0121Z" fill="black"/>
<path opacity="0.25" d="M48.2144 49.0121H46.3088V50.95H48.2144V49.0121Z" fill="black"/>
<path opacity="0.25" d="M53.9333 49.0121H52.0278V50.95H53.9333V49.0121Z" fill="black"/>
<path opacity="0.25" d="M55.8412 49.0121H53.9356V50.95H55.8412V49.0121Z" fill="black"/>
<path opacity="0.25" d="M25.3386 50.9501H23.433V52.888H25.3386V50.9501Z" fill="black"/>
<path opacity="0.25" d="M27.2442 50.9501H25.3386V52.888H27.2442V50.9501Z" fill="black"/>
<path opacity="0.25" d="M32.9631 50.9501H31.0576V52.888H32.9631V50.9501Z" fill="black"/>
<path opacity="0.25" d="M34.8709 50.9501H32.9654V52.888H34.8709V50.9501Z" fill="black"/>
<path opacity="0.25" d="M36.7765 50.9501H34.8709V52.888H36.7765V50.9501Z" fill="black"/>
<path opacity="0.25" d="M48.2144 50.9501H46.3088V52.888H48.2144V50.9501Z" fill="black"/>
<path opacity="0.25" d="M52.0278 50.9501H50.1223V52.888H52.0278V50.9501Z" fill="black"/>
<path opacity="0.25" d="M55.8412 50.9501H53.9356V52.888H55.8412V50.9501Z" fill="black"/>
<path opacity="0.25" d="M25.3386 52.8879H23.433V54.8258H25.3386V52.8879Z" fill="black"/>
<path opacity="0.25" d="M27.2442 52.8879H25.3386V54.8258H27.2442V52.8879Z" fill="black"/>
<path opacity="0.25" d="M29.152 52.8879H27.2464V54.8258H29.152V52.8879Z" fill="black"/>
<path opacity="0.25" d="M32.9631 52.8879H31.0576V54.8258H32.9631V52.8879Z" fill="black"/>
<path opacity="0.25" d="M34.8709 52.8879H32.9654V54.8258H34.8709V52.8879Z" fill="black"/>
<path opacity="0.25" d="M40.5899 52.8879H38.6843V54.8258H40.5899V52.8879Z" fill="black"/>
<path opacity="0.25" d="M42.4955 52.8879H40.5899V54.8258H42.4955V52.8879Z" fill="black"/>
<path opacity="0.25" d="M44.401 52.8879H42.4955V54.8258H44.401V52.8879Z" fill="black"/>
<path opacity="0.25" d="M46.3088 52.8879H44.4033V54.8258H46.3088V52.8879Z" fill="black"/>
<path opacity="0.25" d="M48.2144 52.8879H46.3088V54.8258H48.2144V52.8879Z" fill="black"/>
<path opacity="0.25" d="M50.1223 52.8879H48.2167V54.8258H50.1223V52.8879Z" fill="black"/>
<path opacity="0.25" d="M53.9333 52.8879H52.0278V54.8258H53.9333V52.8879Z" fill="black"/>
<path opacity="0.25" d="M25.3386 54.8281H23.433V56.766H25.3386V54.8281Z" fill="black"/>
<path opacity="0.25" d="M34.8709 54.8281H32.9654V56.766H34.8709V54.8281Z" fill="black"/>
<path opacity="0.25" d="M38.682 54.8281H36.7765V56.766H38.682V54.8281Z" fill="black"/>
<path opacity="0.25" d="M52.0278 54.8281H50.1223V56.766H52.0278V54.8281Z" fill="black"/>
<path opacity="0.25" d="M53.9333 54.8281H52.0278V56.766H53.9333V54.8281Z" fill="black"/>
<path opacity="0.25" d="M55.8412 54.8281H53.9356V56.766H55.8412V54.8281Z" fill="black"/>
<path opacity="0.25" d="M8.58532 8.29504C8.36289 8.29504 8.17944 8.48161 8.17944 8.70781V10.2353V12.1732V14.1111V16.049V17.9869V19.9248V21.4523C8.17944 21.6785 8.3606 21.8651 8.58532 21.8651H21.1216C21.3441 21.8651 21.5275 21.6809 21.5275 21.4523V19.9248V17.9869V16.049V14.1111V12.1732V10.2353V8.70781C21.5275 8.48161 21.3463 8.29504 21.1216 8.29504H8.58532ZM19.6197 12.1755V14.1134V16.0514V17.9893V19.6916C19.6197 19.8246 19.5142 19.9272 19.3881 19.9272H10.3212C10.1905 19.9272 10.0896 19.8199 10.0896 19.6916V17.9893V16.0514V14.1134V12.1755V10.4732C10.0896 10.3402 10.1951 10.2376 10.3212 10.2376H19.3881C19.5188 10.2376 19.6197 10.3449 19.6197 10.4732V12.1755Z" fill="black"/>
<path opacity="0.25" d="M17.7141 16.0514V14.1135V12.586C17.7141 12.3598 17.5329 12.1732 17.3082 12.1732H12.3987C12.1763 12.1732 11.9928 12.3574 11.9928 12.586V14.1135V16.0514V17.5788C11.9928 17.8051 12.174 17.9916 12.3987 17.9916H17.3082C17.5306 17.9916 17.7141 17.8074 17.7141 17.5788V16.0514Z" fill="black"/>
<path opacity="0.25" d="M42.9013 8.29504C42.6789 8.29504 42.4955 8.48161 42.4955 8.70781V10.2353V12.1732V14.1111V16.049V17.9869V19.9248V21.4523C42.4955 21.6785 42.6766 21.8651 42.9013 21.8651H55.4376C55.6601 21.8651 55.8435 21.6809 55.8435 21.4523V19.9248V17.9869V16.049V14.1111V12.1732V10.2353V8.70781C55.8435 8.48161 55.6623 8.29504 55.4376 8.29504H42.9013ZM53.9357 12.1755V14.1134V16.0514V17.9893V19.6916C53.9357 19.8246 53.8302 19.9272 53.704 19.9272H44.6372C44.5065 19.9272 44.4056 19.8199 44.4056 19.6916V17.9893V16.0514V14.1134V12.1755V10.4732C44.4056 10.3402 44.5111 10.2376 44.6372 10.2376H53.704C53.8348 10.2376 53.9357 10.3449 53.9357 10.4732V12.1755Z" fill="black"/>
<path opacity="0.25" d="M52.0278 16.0514V14.1135V12.586C52.0278 12.3598 51.8466 12.1732 51.6219 12.1732H46.7124C46.49 12.1732 46.3065 12.3574 46.3065 12.586V14.1135V16.0514V17.5788C46.3065 17.8051 46.4877 17.9916 46.7124 17.9916H51.6219C51.8443 17.9916 52.0278 17.8074 52.0278 17.5788V16.0514Z" fill="black"/>
<path opacity="0.25" d="M8.58532 43.1937C8.36289 43.1937 8.17944 43.3803 8.17944 43.6065V45.134V47.0719V49.0098V50.9477V52.8856V54.8235V56.351C8.17944 56.5772 8.3606 56.7637 8.58532 56.7637H21.1216C21.3441 56.7637 21.5275 56.5795 21.5275 56.351V54.8235V52.8856V50.9477V49.0098V47.0719V45.134V43.6065C21.5275 43.3803 21.3463 43.1937 21.1216 43.1937H8.58532ZM19.6197 47.0719V49.0098V50.9477V52.8856V54.588C19.6197 54.7209 19.5142 54.8235 19.3881 54.8235H10.3212C10.1905 54.8235 10.0896 54.7162 10.0896 54.588V52.8856V50.9477V49.0098V47.0719V45.3695C10.0896 45.2366 10.1951 45.134 10.3212 45.134H19.3881C19.5188 45.134 19.6197 45.2412 19.6197 45.3695V47.0719Z" fill="black"/>
<path opacity="0.25" d="M17.7141 50.9501V49.0121V47.4847C17.7141 47.2585 17.5329 47.0719 17.3082 47.0719H12.3987C12.1763 47.0719 11.9928 47.2561 11.9928 47.4847V49.0121V50.9501V52.4775C11.9928 52.7037 12.174 52.8903 12.3987 52.8903H17.3082C17.5306 52.8903 17.7141 52.7061 17.7141 52.4775V50.9501Z" fill="black"/>
<path d="M60.8585 0H3.14153C1.39878 0 0 1.42253 0 3.19487V61.8685C0 63.6409 1.42171 65.0634 3.14153 65.0634H60.8355C62.5783 65.0634 63.9771 63.6409 64 61.8918V3.19487C64 1.42253 62.5783 0 60.8585 0ZM61.5693 60.8891C61.5693 61.8452 60.8126 62.6148 59.8724 62.6148H4.10462C3.16446 62.6148 2.40774 61.8452 2.40774 60.8891V4.17432C2.40774 3.21819 3.16446 2.44862 4.10462 2.44862H59.8724C60.8126 2.44862 61.5693 3.21819 61.5693 4.17432V60.8891Z" fill="black"/>
<path d="M10.6995 77.3649C10.6995 78.1811 10.4106 78.8247 9.83044 79.2935C9.25029 79.7645 8.44313 79.9977 7.41124 79.9977C6.31973 79.9977 5.47358 79.8508 4.87738 79.5547V78.426C5.2672 78.5962 5.69601 78.7315 6.15921 78.8294C6.62242 78.9273 7.0581 78.9763 7.46169 78.9763C8.14961 78.9763 8.67014 78.8411 9.01869 78.5729C9.36724 78.3047 9.54151 77.9339 9.54151 77.4652C9.54151 77.1527 9.4796 76.8962 9.35348 76.6956C9.22736 76.4951 9.0164 76.3062 8.72059 76.1313C8.42478 75.9564 7.97534 75.7581 7.37455 75.5343C6.52152 75.2171 5.91156 74.8463 5.54696 74.4149C5.18236 73.9858 4.99891 73.4308 4.99891 72.7522C4.99891 72.0222 5.2695 71.4392 5.80837 71.0078C6.34725 70.5764 7.0604 70.3595 7.94094 70.3595C8.86047 70.3595 9.70662 70.5344 10.4817 70.8842L10.1217 71.8963C9.33284 71.5628 8.59676 71.3972 7.91572 71.3972C7.36996 71.3972 6.94116 71.5162 6.63388 71.7564C6.32661 71.9966 6.17068 72.3301 6.17068 72.7615C6.17068 73.0693 6.2303 73.3235 6.34954 73.5264C6.46878 73.7293 6.66369 73.9135 6.92969 74.0814C7.19569 74.247 7.61532 74.4382 8.1863 74.6528C8.87193 74.9093 9.381 75.1588 9.71808 75.399C10.0552 75.6415 10.3028 75.919 10.461 76.2315C10.6193 76.544 10.6995 76.9288 10.6995 77.3649ZM16.5033 71.4042C15.5127 71.4042 14.7331 71.7424 14.1644 72.4163C13.598 73.0903 13.3136 74.0138 13.3136 75.1845C13.3136 76.3948 13.5888 77.3252 14.1391 77.9829C14.6895 78.6382 15.4737 78.967 16.4896 78.967C17.1454 78.967 17.8815 78.8434 18.7024 78.5962V79.6223C18.3126 79.7669 17.9365 79.8672 17.5742 79.9208C17.2119 79.9744 16.7968 80.0001 16.3268 80.0001C14.9692 80.0001 13.9236 79.5803 13.1921 78.7408C12.4583 77.9013 12.0914 76.7119 12.0914 75.1751C12.0914 74.2097 12.2657 73.3631 12.6165 72.6379C12.9674 71.9126 13.4787 71.3506 14.1483 70.9588C14.8179 70.5647 15.6067 70.3688 16.5148 70.3688C17.4893 70.3688 18.3378 70.5531 19.0601 70.9192L18.5946 71.9196C17.8608 71.5768 17.1637 71.4042 16.5033 71.4042ZM26.492 79.8718L25.3821 76.9684H21.7293L20.6332 79.8718H19.4614L23.0592 70.4621H24.1049L27.6982 79.8718H26.492ZM25.0382 75.9237L24.004 73.0833L23.5637 71.6794C23.4376 72.1925 23.3046 72.6589 23.167 73.0833L22.1214 75.9237H25.0382ZM36.2674 79.8718H34.9122L29.9775 72.0899H29.927L29.9591 72.6099C30.0096 73.3865 30.0348 74.0628 30.0348 74.6341V79.8695H28.9639V70.4994H30.3054L30.5897 70.9542L33.6143 75.7092L35.2218 78.2534H35.2722C35.263 78.1508 35.247 77.7847 35.2218 77.155C35.1965 76.5254 35.1851 76.0683 35.1851 75.7861V70.4994H36.2697V79.8718H36.2674ZM46.1873 79.8718L43.149 71.6561H43.0985C43.1604 72.3394 43.1925 73.1836 43.1925 74.1887V79.8742H42.1217V70.5041H43.8369L46.6803 78.1834H46.7308L49.6246 70.5041H51.3261V79.8742H50.1796V74.1117C50.1796 73.4704 50.2094 72.6565 50.2667 71.6701H50.2163L47.1412 79.8742H46.1873V79.8718ZM58.9804 79.8718H53.8324V70.5018H58.9804V71.5395H54.9905V74.4615H58.7465V75.4876H54.9905V78.8341H58.9804V79.8718Z" fill="black"/>
</g>
<defs>
<clipPath id="clip0">
<rect width="64" height="80" fill="white"/>
</clipPath>
</defs>
</svg>
