<svg width="78" height="80" viewBox="0 0 78 80" fill="none" xmlns="http://www.w3.org/2000/svg">
<path d="M74.6354 62.907H17.4369C15.5955 62.907 14.095 61.43 14.095 59.6173V3.28969C14.095 1.47701 15.5955 0 17.4369 0H74.6581C76.4996 0 78 1.47701 78 3.28969V59.6173C77.9773 61.43 76.4768 62.907 74.6354 62.907ZM17.4369 0.447577C15.8455 0.447577 14.5497 1.72317 14.5497 3.28969V59.6173C14.5497 61.1838 15.8455 62.4594 17.4369 62.4594H74.6354C76.2267 62.4594 77.5226 61.1838 77.5453 59.6173V3.28969C77.5453 1.72317 76.2495 0.447577 74.6581 0.447577H17.4369Z" fill="#E6E6E6"/>
<path d="M9.82104 39.6329C9.86651 38.8721 9.93471 38.0888 10.0029 37.3279C10.0938 36.567 10.1848 35.8062 10.3212 35.0676C10.4576 34.3291 10.6167 33.5906 10.7986 32.8745C11.0032 32.1808 11.2305 31.487 11.5261 30.9276C11.5488 30.8604 11.5715 30.7709 11.5943 30.6814C11.7307 29.9653 11.276 29.2715 10.5485 29.1372L10.4803 29.1149C10.3894 29.0925 10.3439 29.0925 10.2757 29.0925C10.2075 29.0925 10.162 29.0701 10.0938 29.0701C9.98018 29.0701 9.86651 29.0477 9.75284 29.0477C9.5255 29.0477 9.29816 29.0701 9.07082 29.0701C8.61614 29.1149 8.1842 29.1596 7.75226 29.2268C6.88837 29.361 6.02448 29.5401 5.20606 29.7639C4.38764 30.01 3.56922 30.2786 2.79627 30.6143C2.40979 30.7709 2.02332 30.9723 1.63684 31.129C1.25036 31.308 0.886622 31.5318 0.522879 31.7108C0.40921 31.778 0.341008 31.8898 0.386476 32.0241C0.431944 32.1808 0.568347 32.2703 0.727484 32.2255H0.750218C1.15943 32.136 1.5459 32.0241 1.93238 31.9346C2.34159 31.8451 2.72807 31.7556 3.11454 31.7108C3.91023 31.5542 4.70592 31.487 5.5016 31.4423C6.00175 31.4199 6.52463 31.4199 7.02477 31.4199C5.97901 32.6283 5.06966 33.9263 4.31944 35.2691C3.29641 37.0817 2.50073 38.984 1.86418 40.9309C0.613815 44.8248 0 48.8754 0 52.926C0 56.9542 0.613815 61.0048 1.88691 64.8316C3.18274 68.6584 5.13786 72.239 7.70679 75.3496C7.82046 75.4839 8.02506 75.5287 8.1842 75.4168C8.34334 75.3049 8.36607 75.0811 8.2524 74.9468C5.88808 71.8138 4.11483 68.2555 3.04634 64.5183C1.97785 60.781 1.56864 56.8647 1.72778 53.0155C1.88691 49.144 2.63713 45.3172 3.97843 41.7142C4.66045 39.9239 5.47887 38.1783 6.47916 36.567C7.11571 35.5376 7.82046 34.5753 8.61614 33.7025C8.61614 34.1501 8.61614 34.5753 8.63888 35.0229C8.68435 35.8285 8.72981 36.6118 8.82075 37.3951C8.91168 38.1783 9.00262 38.9616 9.13902 39.7448C9.16176 39.9015 9.29816 40.0358 9.48003 40.0581C9.63917 39.991 9.82104 39.8344 9.82104 39.6329Z" fill="black"/>
<path d="M24.7274 68.1754C24.7327 68.1839 24.7463 68.2076 24.7631 68.2423C24.7821 68.2767 24.7995 68.3181 24.8194 68.3615C24.8393 68.4049 24.8548 68.451 24.8726 68.4968C24.8904 68.5427 24.8978 68.5736 24.8996 68.5938C24.9145 68.7594 24.8982 68.9593 24.8487 69.1958C24.8015 69.4321 24.7284 69.6842 24.6315 69.9519C24.5346 70.2195 24.4155 70.4935 24.2787 70.7736C24.1396 71.0539 23.9928 71.3235 23.8309 71.5786C23.6713 71.8336 23.5031 72.0689 23.3261 72.2825C23.1491 72.4961 22.973 72.669 22.7978 72.8012C22.7242 72.7443 22.6336 72.6753 22.5307 72.5961C22.4278 72.5169 22.3175 72.4316 22.1999 72.3424C22.0824 72.2531 21.967 72.1615 21.849 72.0678C21.7311 71.974 21.6227 71.884 21.5212 71.7957C21.6538 71.6716 21.8012 71.5102 21.9638 71.3137C22.1264 71.1171 22.2892 70.898 22.4547 70.6583C22.618 70.4189 22.7784 70.1729 22.9337 69.9206C23.0889 69.6683 23.2222 69.4246 23.3315 69.1942C23.4407 68.9616 23.5246 68.7537 23.5833 68.5683C23.6419 68.3829 23.6539 68.2375 23.6262 68.1316C23.6055 68.0792 23.5794 68.0431 23.5459 68.0257C23.5122 68.006 23.4523 67.9998 23.3708 68.0067C23.072 68.0322 22.7308 68.1199 22.3474 68.2699C21.9639 68.4198 21.5692 68.6226 21.1635 68.8805C20.7555 69.1385 20.3497 69.446 19.9437 69.8031C19.5378 70.1603 19.1629 70.5576 18.8187 70.9929C18.4745 71.4282 18.1746 71.8981 17.9212 72.4046C17.6679 72.9112 17.4853 73.4432 17.3779 74.0005C17.7216 73.9667 18.0464 73.9255 18.3546 73.8767C18.6628 73.8278 18.9551 73.7804 19.2313 73.732C19.5076 73.6837 19.775 73.6384 20.0292 73.5987C20.2832 73.5567 20.5292 73.5267 20.7714 73.5061C20.8982 73.4953 21.0424 73.5507 21.2018 73.6747C21.3612 73.7987 21.5138 73.9481 21.6577 74.1276C21.8015 74.307 21.9252 74.4905 22.0269 74.6825C22.1286 74.8746 22.1838 75.0323 22.1947 75.1532C22.2256 75.4979 22.1662 75.8526 22.0186 76.2147C21.8709 76.5769 21.6611 76.9331 21.3866 77.2813C21.1145 77.6293 20.7907 77.9614 20.4172 78.2729C20.0439 78.5866 19.6468 78.864 19.226 79.1074C18.8053 79.3507 18.3717 79.5523 17.9251 79.7099C17.4784 79.8675 17.0492 79.965 16.6371 80.0001C16.5787 79.96 16.5027 79.901 16.4064 79.819C16.3101 79.737 16.2059 79.6444 16.0967 79.5454C15.9872 79.4442 15.8728 79.3389 15.7553 79.2249C15.638 79.1131 15.5302 79.005 15.4296 78.9008C15.329 78.7966 15.2407 78.7026 15.1621 78.6146C15.0859 78.5286 15.0319 78.461 15.0028 78.4161C15.2757 78.4312 15.6027 78.4146 15.9812 78.3621C16.3598 78.3095 16.7557 78.2217 17.1712 78.0983C17.5867 77.9749 18.0011 77.8133 18.4165 77.6133C18.832 77.4132 19.2144 77.1754 19.5657 76.8951C19.9169 76.6148 20.2189 76.2936 20.4733 75.9269C20.7278 75.5601 20.8983 75.1463 20.9844 74.6834C20.6996 74.7122 20.4427 74.7476 20.2138 74.7896C19.9849 74.8317 19.7629 74.8754 19.5503 74.9206C19.3376 74.9658 19.1177 75.0071 18.8932 75.0465C18.6686 75.0859 18.4203 75.1161 18.1441 75.1396C18.0558 75.1471 17.9605 75.153 17.8562 75.1596C17.7518 75.1663 17.6494 75.1682 17.544 75.1637C17.4387 75.1591 17.3395 75.1473 17.2441 75.1261C17.1486 75.1049 17.068 75.0712 17.0043 75.0225C16.8607 74.9219 16.7235 74.8163 16.59 74.7014C16.4566 74.5887 16.3342 74.4706 16.2254 74.3513C16.1166 74.232 16.0255 74.1067 15.955 73.9818C15.8845 73.857 15.8436 73.7319 15.8327 73.6111C15.7995 73.2417 15.8553 72.822 16.0026 72.3538C16.1475 71.8836 16.3668 71.4048 16.6559 70.9155C16.945 70.4262 17.2965 69.9452 17.7103 69.4724C18.124 68.9996 18.5805 68.5705 19.082 68.1849C19.5835 67.7993 20.1206 67.4807 20.691 67.2268C21.2613 66.973 21.8497 66.8191 22.4542 66.7676C22.6648 66.7497 22.86 66.7646 23.04 66.8124C23.2199 66.8603 23.3859 66.9296 23.5377 67.0204C23.6896 67.1112 23.8265 67.2123 23.9507 67.3258C24.075 67.4393 24.1854 67.5516 24.2842 67.6605C24.383 67.7694 24.4696 67.8703 24.542 67.9656C24.6182 68.0516 24.6796 68.1253 24.7274 68.1754ZM29.9918 70.9838C30.1307 70.8795 30.2762 70.7476 30.4286 70.5903C30.581 70.4329 30.7294 70.2556 30.8783 70.0602C31.0273 69.8649 31.1681 69.6544 31.3007 69.4288C31.4335 69.2055 31.5477 68.9792 31.6439 68.7545C31.7399 68.5275 31.8134 68.3047 31.8618 68.0818C31.9102 67.8589 31.9279 67.6499 31.91 67.4507C31.8966 67.3007 31.8744 67.1808 31.841 67.0889C31.8079 66.9993 31.7697 66.9303 31.7221 66.8825C31.6767 66.8345 31.6237 66.8029 31.57 66.7895C31.5163 66.776 31.4565 66.7698 31.3976 66.7748C31.1622 66.7949 30.9039 66.9161 30.6204 67.1388C30.337 67.3614 30.0463 67.6546 29.7461 68.0207C29.4459 68.3869 29.1417 68.8098 28.8359 69.2914C28.5302 69.7731 28.2385 70.2851 27.9612 70.8298C27.6839 71.3744 27.4262 71.9332 27.1879 72.5061C26.9496 73.079 26.747 73.6421 26.5823 74.1952C26.4175 74.7483 26.2936 75.2731 26.2106 75.7719C26.1299 76.2705 26.106 76.7146 26.1407 77.1018C26.1538 77.2473 26.176 77.3672 26.2071 77.4593C26.2382 77.5514 26.2767 77.6248 26.3225 77.6773C26.3683 77.7298 26.426 77.7632 26.491 77.7757C26.556 77.7882 26.6317 77.7931 26.7155 77.7859C26.8581 77.7738 27.0202 77.6991 27.2043 77.5638C27.3883 77.4286 27.5805 77.2566 27.7807 77.0478C27.9832 76.8389 28.1839 76.6097 28.3872 76.3579C28.5904 76.106 28.778 75.8577 28.9548 75.6171C29.1317 75.3764 29.2894 75.151 29.4283 74.9452C29.5672 74.7394 29.676 74.579 29.7474 74.4601C29.7478 74.4646 29.8136 74.5109 29.9422 74.5969C30.0709 74.6829 30.224 74.7872 30.397 74.91C30.5722 75.0327 30.7452 75.1555 30.9207 75.2804C31.0962 75.4053 31.2285 75.5068 31.3201 75.587C31.2143 75.7291 31.0797 75.9074 30.9171 76.1288C30.7543 76.3479 30.5676 76.5804 30.3592 76.8259C30.1509 77.0715 29.9267 77.3184 29.6868 77.5689C29.447 77.8194 29.1983 78.0481 28.9384 78.2529C28.6807 78.4575 28.4155 78.629 28.1451 78.7671C27.8746 78.9052 27.6079 78.9843 27.343 79.0068C27.1506 79.0232 26.9418 78.9846 26.7165 78.8888C26.4912 78.793 26.2628 78.6635 26.036 78.5002C25.8091 78.3368 25.5941 78.1521 25.393 77.9459C25.192 77.7398 25.0206 77.5333 24.8766 77.3268C24.7051 77.0685 24.5965 76.8251 24.5511 76.599C24.5057 76.3728 24.4781 76.1924 24.4658 76.0559C24.4322 75.6821 24.4486 75.2544 24.515 74.7751C24.5815 74.2957 24.6912 73.7902 24.8466 73.2604C25.0021 72.7307 25.1976 72.1907 25.4352 71.6359C25.673 71.0834 25.9417 70.544 26.2434 70.0175C26.5454 69.4933 26.8794 68.9957 27.2452 68.5225C27.6111 68.0492 28.0027 67.6347 28.4171 67.2701C28.8315 66.9055 29.2681 66.6111 29.7246 66.385C30.1809 66.1567 30.6526 66.0241 31.1394 65.9826C31.2775 65.9708 31.4256 65.9943 31.5835 66.0508C31.7414 66.1072 31.8993 66.1885 32.0567 66.2901C32.2141 66.3917 32.3686 66.5117 32.5202 66.6499C32.6718 66.7881 32.8056 66.9323 32.9218 67.0825C33.04 67.2304 33.1358 67.3823 33.211 67.5338C33.2862 67.6853 33.331 67.8281 33.3428 67.9602C33.369 68.2512 33.3391 68.5785 33.2529 68.9399C33.1668 69.3014 33.038 69.671 32.8707 70.0439C32.7012 70.4169 32.4926 70.7866 32.247 71.1504C31.9991 71.5143 31.7319 71.8416 31.4413 72.137L29.9918 70.9838ZM41.7163 67.1588C41.7368 67.3872 41.712 67.6441 41.642 67.932C41.5721 68.2199 41.471 68.5173 41.3434 68.8236C41.2158 69.1299 41.0612 69.4408 40.884 69.7537C40.7068 70.0665 40.5237 70.364 40.3366 70.6439C40.4747 70.7584 40.6006 70.865 40.7142 70.9613C40.8278 71.0576 40.9065 71.1209 40.9548 71.1506C40.8973 71.2728 40.8177 71.4532 40.7178 71.6873C40.6179 71.9213 40.512 72.1897 40.4042 72.4876C40.2963 72.7855 40.1856 73.1017 40.074 73.4338C39.9624 73.7658 39.8639 74.0922 39.7783 74.4085C39.6928 74.7271 39.6262 75.026 39.5805 75.305C39.5351 75.5863 39.5193 75.8177 39.5358 76.0013C39.5576 76.243 39.6118 76.4662 39.6964 76.671C39.7807 76.8736 39.8969 77.0487 40.0402 77.1966C40.1833 77.3423 40.3582 77.4605 40.5623 77.5491C40.7665 77.6377 40.9964 77.6835 41.2549 77.6908L40.9373 78.1938C40.8785 78.1988 40.7867 78.1931 40.6621 78.1766C40.5374 78.1602 40.3951 78.125 40.2375 78.073C40.08 78.021 39.9112 77.9451 39.7359 77.8473C39.5583 77.7496 39.3894 77.6219 39.2268 77.4621C39.0641 77.3023 38.9143 77.1075 38.7817 76.8753C38.649 76.643 38.5422 76.3679 38.47 76.047C38.2563 76.3088 38.0244 76.5721 37.7718 76.8327C37.5192 77.0933 37.2577 77.3321 36.9848 77.5448C36.7122 77.7598 36.4315 77.9371 36.1454 78.0787C35.8593 78.2204 35.5747 78.3033 35.2962 78.327C35.1332 78.3409 34.9639 78.3102 34.7863 78.2374C34.6086 78.1645 34.4307 78.0624 34.2548 77.9331C34.0766 77.8039 33.9055 77.6515 33.739 77.474C33.5725 77.2965 33.4214 77.1131 33.2879 76.9215C33.1543 76.7299 33.0413 76.5388 32.9465 76.3461C32.8516 76.1535 32.7898 75.9738 32.7609 75.8048C32.7553 75.7421 32.7507 75.6658 32.745 75.5761C32.7392 75.4864 32.7353 75.392 32.7311 75.2953C32.727 75.1987 32.7252 75.1019 32.7237 75.0095C32.7223 74.9172 32.7239 74.8336 32.7263 74.7589C32.7622 74.3206 32.8389 73.8539 32.9564 73.359C33.0762 72.8638 33.2293 72.3591 33.4181 71.8445C33.6068 71.33 33.8274 70.815 34.0777 70.2997C34.328 69.7844 34.6052 69.2894 34.9091 68.8124C35.213 68.3354 35.5382 67.8927 35.8887 67.4771C36.2392 67.0616 36.6013 66.6992 36.9816 66.3871C37.3618 66.0727 37.7541 65.8183 38.1609 65.6235C38.5653 65.4266 38.9771 65.3126 39.3959 65.2769C39.5385 65.2648 39.6935 65.2877 39.8631 65.3477C40.0327 65.4076 40.2019 65.4879 40.3709 65.5908C40.5398 65.6937 40.7056 65.8127 40.8638 65.9481C41.022 66.0835 41.1622 66.2226 41.287 66.3676C41.4116 66.5104 41.5132 66.6506 41.5917 66.7883C41.6616 66.9312 41.7068 67.0536 41.7163 67.1588ZM34.8751 77.093C34.9679 77.0851 35.0989 77.0198 35.2704 76.897C35.4396 76.7743 35.6342 76.6043 35.8563 76.3847C36.0761 76.1652 36.3146 75.899 36.5667 75.5821C36.8213 75.2672 37.0725 74.9142 37.3247 74.5228C37.577 74.1314 37.8216 73.7046 38.0606 73.2421C38.2997 72.7797 38.5155 72.2876 38.7105 71.7658L37.7639 70.9803C37.8398 70.8859 37.9584 70.7585 38.1219 70.598C38.2854 70.4374 38.4669 70.2483 38.6641 70.0308C38.8613 69.8132 39.0655 69.5725 39.2698 69.307C39.4741 69.0415 39.6609 68.7594 39.8255 68.459C39.9902 68.1585 40.1174 67.8477 40.2137 67.5237C40.3078 67.1999 40.3396 66.8679 40.309 66.5276C40.2919 66.3374 40.2406 66.1974 40.1568 66.103C40.071 66.0111 40.0007 65.9652 39.9418 65.9702C39.6521 65.9949 39.3466 66.1247 39.0232 66.3597C38.6999 66.5948 38.3764 66.9043 38.048 67.2864C37.7218 67.6683 37.3989 68.1108 37.0789 68.6118C36.7611 69.1125 36.46 69.6456 36.1752 70.209C35.8927 70.7721 35.6318 71.3469 35.3948 71.9332C35.1577 72.5196 34.9584 73.0937 34.7963 73.6511C34.6342 74.2085 34.5127 74.7353 34.4341 75.2315C34.3555 75.7276 34.3328 76.1603 34.366 76.5297C34.3999 76.9328 34.5695 77.1191 34.8751 77.093ZM51.1365 66.76C51.1592 67.013 51.1633 67.3126 51.1511 67.6588C51.1388 68.0049 51.0972 68.4054 51.0329 68.8575C50.9663 69.3097 50.8683 69.8188 50.7387 70.3825C50.6092 70.9461 50.442 71.5738 50.2374 72.2679C50.013 73.0201 49.7743 73.69 49.5237 74.2775C49.2731 74.865 49.0327 75.3636 48.8049 75.7732C48.577 76.1829 48.3755 76.5045 48.1977 76.734C48.0198 76.9634 47.8954 77.1025 47.8196 77.1473C47.698 77.2163 47.5603 77.2574 47.4086 77.2703C47.2818 77.2811 47.1487 77.2722 47.014 77.2453C46.8792 77.2184 46.7606 77.1676 46.6581 77.0929C46.5948 77.0487 46.4864 76.9339 46.3326 76.7462C46.1789 76.5586 46.0109 76.2887 45.8263 75.9345C45.6416 75.5804 45.4534 75.1363 45.2615 74.6C45.0696 74.0638 44.9045 73.4192 44.7686 72.6684C44.5824 72.9572 44.3778 73.2701 44.1542 73.6004C43.9309 73.933 43.7051 74.2635 43.4725 74.5945C43.2399 74.9256 43.0087 75.2475 42.777 75.5628C42.5452 75.878 42.3271 76.1672 42.1249 76.4303C41.9202 76.6913 41.7376 76.9189 41.5769 77.1108C41.4162 77.3027 41.2896 77.442 41.1993 77.5286C41.1405 77.484 41.0719 77.4312 40.9957 77.3701C40.9194 77.3089 40.8383 77.2436 40.7545 77.1741C40.6707 77.1045 40.5914 77.0346 40.5121 76.9647C40.4349 76.8923 40.3651 76.8261 40.3045 76.7613C40.9663 76.0779 41.6144 75.1408 42.2484 73.9455C42.8827 72.7524 43.4641 71.327 43.9884 69.6719C44.0782 69.7319 44.1637 69.7945 44.2421 69.8555C44.3229 69.9163 44.3993 69.9797 44.4732 70.0411C44.4325 69.3589 44.4008 68.7526 44.3805 68.222C44.3603 67.6914 44.3477 67.2211 44.3475 66.8129C44.345 66.4048 44.3476 66.0528 44.3532 65.7591C44.3587 65.4654 44.3681 65.2142 44.3792 65.008C44.3904 64.8018 44.4004 64.6341 44.4114 64.5023C44.4226 64.3728 44.4312 64.266 44.438 64.1888C44.4918 64.2293 44.5703 64.2903 44.6785 64.378C44.7843 64.4638 44.9047 64.5595 45.0376 64.6677C45.1703 64.7737 45.3104 64.8858 45.4577 65.0018C45.6051 65.1179 45.7429 65.2302 45.8733 65.3363C46.0038 65.4425 46.1196 65.5387 46.2185 65.6227C46.3173 65.7068 46.3869 65.7708 46.4247 65.8104C46.383 66.0575 46.3361 66.348 46.2835 66.6773C46.231 67.0065 46.1903 67.3912 46.157 67.8338C46.1259 68.2741 46.1094 68.7762 46.1096 69.3378C46.1099 69.8994 46.1423 70.5395 46.2063 71.2513C46.2705 71.9157 46.3533 72.5582 46.4543 73.1744C46.4986 73.439 46.546 73.7124 46.5987 73.9944C46.6514 74.2763 46.7105 74.5532 46.7781 74.8227C46.8456 75.0921 46.9191 75.352 47.0007 75.5999C47.0823 75.8478 47.1683 76.0683 47.2609 76.2612C47.7845 75.2083 48.1888 74.1972 48.4692 73.2305C48.7517 72.2614 48.95 71.3198 49.0663 70.4054C49.1826 69.491 49.2298 68.5938 49.2104 67.7181C49.1911 66.8423 49.1423 65.9691 49.0642 65.1006L49.019 64.597C49.2923 64.7699 49.5539 64.9641 49.8063 65.184C50.0588 65.4038 50.2826 65.6103 50.4785 65.8101C50.7069 66.041 50.9216 66.2731 51.121 66.511L51.1433 66.7595L51.1365 66.76ZM65.3333 64.1725C65.1114 65.0034 64.9065 65.8463 64.7206 66.6967C64.5346 67.5471 64.3858 68.4552 64.2737 69.4166C64.1616 70.378 64.0969 71.4097 64.0777 72.5166C64.0583 73.6212 64.1062 74.8396 64.2211 76.1696C64.1656 76.2126 64.0822 76.2739 63.9725 76.3486C63.8629 76.4234 63.7426 76.5058 63.6088 76.5916C63.4753 76.6797 63.3372 76.7682 63.1901 76.8574C63.0455 76.9486 62.905 77.035 62.7712 77.1209C62.6375 77.2067 62.5165 77.2824 62.4086 77.3502C62.3006 77.4181 62.2186 77.4702 62.1623 77.5043C62.1341 77.1391 62.123 76.7363 62.1291 76.2959C62.1351 75.8556 62.1526 75.3895 62.1861 74.8994C62.2196 74.4094 62.2629 73.9004 62.3159 73.3727C62.3688 72.8449 62.4327 72.3116 62.5028 71.7711C62.1918 72.2712 61.8899 72.6939 61.5963 73.0325C61.3028 73.371 61.0403 73.6482 60.8061 73.8599C60.5364 74.1084 60.2828 74.3082 60.0434 74.4617C59.9445 74.5288 59.8204 74.5438 59.669 74.5094C59.5174 74.4727 59.3638 74.4136 59.2101 74.3274C59.0565 74.2435 58.9133 74.1475 58.7829 74.0413C58.6524 73.9351 58.5577 73.8462 58.5031 73.7719C58.4463 73.6978 58.3745 73.4829 58.2851 73.1228C58.1958 72.7628 58.1082 72.2447 58.0221 71.5664C57.8359 71.8552 57.633 72.1612 57.4134 72.4844C57.1958 72.8051 56.9714 73.1265 56.7471 73.4478C56.5203 73.7671 56.2972 74.0771 56.0778 74.3777C55.8584 74.6784 55.6504 74.9532 55.4583 75.2019C55.2662 75.4506 55.0917 75.6662 54.937 75.8485C54.7822 76.0309 54.6618 76.163 54.5754 76.2425C54.5208 76.193 54.4565 76.1376 54.378 76.0766C54.2995 76.0156 54.2206 75.9502 54.1368 75.8806C54.053 75.8111 53.9717 75.7436 53.8924 75.6736C53.8131 75.6037 53.741 75.5377 53.6806 75.4752C54.3424 74.7917 54.9903 73.8524 55.6243 72.6571C56.2584 71.4618 56.8396 70.0341 57.3641 68.3813C57.4445 68.4376 57.5178 68.4922 57.5864 68.545C57.655 68.5978 57.7214 68.6508 57.7855 68.704C57.755 67.9329 57.7397 67.0772 57.7374 66.1368C57.735 65.1964 57.7572 64.148 57.8086 62.9933C57.8343 63.0001 57.8951 63.0423 57.9931 63.1174C58.0911 63.1925 58.2067 63.2864 58.3423 63.3989C58.4779 63.5114 58.619 63.6348 58.7677 63.7664C58.9164 63.8981 59.0623 64.0233 59.1987 64.1447C59.335 64.2662 59.4564 64.3731 59.5583 64.466C59.6604 64.561 59.73 64.625 59.7697 64.66C59.764 64.6988 59.7508 64.8059 59.7321 64.9789C59.7135 65.152 59.6924 65.3748 59.6688 65.6452C59.6452 65.9156 59.6229 66.2265 59.5996 66.5759C59.5762 66.9252 59.5592 67.2943 59.551 67.6852C59.5427 68.0761 59.5398 68.4756 59.5451 68.8901C59.5502 69.3025 59.5683 69.7069 59.599 70.099C59.6094 70.2651 59.6219 70.4557 59.639 70.6708C59.6562 70.8881 59.6738 71.1099 59.6944 71.3382C59.7149 71.5665 59.7395 71.79 59.7662 72.011C59.7929 72.232 59.8221 72.4303 59.8539 72.6058C59.8856 72.7812 59.919 72.925 59.9565 73.0368C59.9939 73.1487 60.0357 73.2083 60.0796 73.2136C60.1353 73.2246 60.2579 73.142 60.4501 72.97C60.6422 72.798 60.8707 72.5484 61.1334 72.2216C61.3962 71.8969 61.6779 71.503 61.9812 71.0441C62.2844 70.5852 62.5717 70.0758 62.8429 69.5137C62.939 68.9326 63.0391 68.3714 63.1411 67.8305C63.2431 67.2895 63.3437 66.7847 63.4437 66.3228C63.5434 65.8587 63.6385 65.4446 63.7286 65.076C63.8189 64.7097 63.9035 64.407 63.9803 64.1704C64.0781 64.1666 64.1919 64.1637 64.317 64.1598C64.4421 64.1559 64.5699 64.1563 64.7 64.1565C64.83 64.1567 64.9489 64.1601 65.0609 64.1618C65.173 64.1658 65.2644 64.1671 65.3333 64.1725ZM71.8232 66.8337C71.9954 66.6679 72.1619 66.4642 72.3184 66.2254C72.4748 65.9865 72.6122 65.7379 72.7257 65.4779C72.8415 65.2177 72.9299 64.9575 72.9883 64.6932C73.0467 64.4288 73.0682 64.1856 73.048 63.9618C73.032 63.7827 72.9753 63.6342 72.8782 63.5184C72.7811 63.4026 72.6192 63.3533 72.3928 63.3726C72.2004 63.3889 71.9939 63.4516 71.7708 63.5586C71.5477 63.6656 71.3254 63.8063 71.1036 63.9786C70.8818 64.1509 70.6674 64.3541 70.4644 64.5834C70.2614 64.8127 70.0829 65.0602 69.933 65.3211C69.7832 65.5842 69.6685 65.8557 69.5864 66.1356C69.5043 66.4155 69.477 66.6952 69.5019 66.9728C69.5232 67.2101 69.5712 67.4135 69.6455 67.5808C69.7199 67.7482 69.8196 67.893 69.9448 68.0177C70.0701 68.1424 70.2168 68.2517 70.3876 68.3499C70.5561 68.4483 70.75 68.5491 70.9669 68.6524C70.3719 68.9625 69.832 69.3265 69.3475 69.749C68.8629 70.1692 68.4535 70.6146 68.1191 71.0829C67.7848 71.5512 67.5354 72.0258 67.3667 72.5093C67.2 72.9904 67.1359 73.4447 67.1743 73.8722C67.1878 74.0222 67.2359 74.1512 67.3208 74.259C67.4058 74.3668 67.5263 74.4129 67.6825 74.3996C67.8885 74.382 68.1144 74.3064 68.3602 74.1727C68.606 74.039 68.8578 73.8709 69.1157 73.6685C69.3735 73.4661 69.6316 73.2411 69.89 72.9935C70.1483 72.746 70.3886 72.5 70.6105 72.2532C70.8325 72.0065 71.0305 71.7731 71.2046 71.553C71.3788 71.333 71.515 71.1477 71.6155 70.997C71.9307 71.2047 72.2053 71.3911 72.4366 71.5541C72.668 71.7171 72.8846 71.8678 73.086 72.0018C73.0123 72.1208 72.888 72.287 72.7112 72.5028C72.5344 72.7186 72.3226 72.951 72.0759 73.202C71.8293 73.4531 71.5582 73.7108 71.2623 73.9728C70.9665 74.2348 70.6641 74.4749 70.3552 74.6929C70.0463 74.9109 69.7364 75.093 69.428 75.241C69.1197 75.3891 68.833 75.4744 68.5682 75.497C68.3372 75.5167 68.1051 75.4981 67.8694 75.4392C67.6337 75.3804 67.4072 75.2959 67.1897 75.1859C66.9722 75.0759 66.7685 74.9421 66.5793 74.7913C66.3899 74.6383 66.2227 74.4788 66.0751 74.3087C65.93 74.1406 65.8073 73.9684 65.7142 73.7959C65.6189 73.6236 65.5631 73.4591 65.5445 73.3028L65.5288 73.1283C65.483 72.6179 65.5305 72.1312 65.671 71.6636C65.8115 71.196 66.0231 70.7584 66.3059 70.3509C66.5886 69.9434 66.929 69.567 67.3246 69.2221C67.7225 68.8769 68.1534 68.5695 68.6196 68.2998C68.5235 68.22 68.4268 68.1335 68.3315 68.0379C68.2362 67.9422 68.149 67.8346 68.0716 67.7104C67.9945 67.5884 67.9271 67.4475 67.8741 67.2897C67.8212 67.1318 67.7847 66.9544 67.7668 66.7552C67.7363 66.415 67.7676 66.0785 67.8605 65.7413C67.9534 65.4041 68.0913 65.0856 68.2716 64.7815C68.4519 64.4774 68.6706 64.1949 68.9255 63.9341C69.1804 63.6733 69.4562 63.4423 69.7509 63.2435C70.0456 63.0447 70.3505 62.8834 70.6654 62.7574C70.9805 62.6335 71.2907 62.5575 71.5941 62.5316C72.099 62.4886 72.4591 62.5098 72.6696 62.5934C72.845 62.6664 73.0351 62.7765 73.2447 62.9256C73.4543 63.0746 73.6494 63.2407 73.8344 63.4212C74.0197 63.6039 74.1779 63.7911 74.307 63.9831C74.4383 64.1749 74.5111 64.3514 74.5254 64.5104C74.5504 64.7879 74.5288 65.0807 74.4629 65.3886C74.397 65.6964 74.3011 66.0001 74.1727 66.2974C74.0465 66.5946 73.8961 66.8759 73.7217 67.1433C73.5473 67.4108 73.3669 67.6382 73.1805 67.8232L71.8232 66.8337Z" fill="black"/>
</svg>
