<svg width="73" height="80" viewBox="0 0 73 80" fill="none" xmlns="http://www.w3.org/2000/svg">
<path d="M65.2752 2.08301H8.09888V58.454H65.2752V2.08301Z" fill="white"/>
<path opacity="0.25" d="M32.1116 7.72009H30.2828V9.52318H32.1116V7.72009Z" fill="black"/>
<path opacity="0.25" d="M41.2603 7.72009H39.4314V9.52318H41.2603V7.72009Z" fill="black"/>
<path opacity="0.25" d="M44.9202 7.72009H43.0914V9.52318H44.9202V7.72009Z" fill="black"/>
<path opacity="0.25" d="M30.2828 9.52319H28.4539V11.3263H30.2828V9.52319Z" fill="black"/>
<path opacity="0.25" d="M32.1116 9.52319H30.2828V11.3263H32.1116V9.52319Z" fill="black"/>
<path opacity="0.25" d="M35.7715 9.52319H33.9427V11.3263H35.7715V9.52319Z" fill="black"/>
<path opacity="0.25" d="M37.6004 9.52319H35.7715V11.3263H37.6004V9.52319Z" fill="black"/>
<path opacity="0.25" d="M39.4314 9.52319H37.6026V11.3263H39.4314V9.52319Z" fill="black"/>
<path opacity="0.25" d="M41.2603 9.52319H39.4314V11.3263H41.2603V9.52319Z" fill="black"/>
<path opacity="0.25" d="M32.1116 11.3285H30.2828V13.1316H32.1116V11.3285Z" fill="black"/>
<path opacity="0.25" d="M33.9427 11.3285H32.1138V13.1316H33.9427V11.3285Z" fill="black"/>
<path opacity="0.25" d="M35.7715 11.3285H33.9427V13.1316H35.7715V11.3285Z" fill="black"/>
<path opacity="0.25" d="M30.2828 13.1316H28.4539V14.9347H30.2828V13.1316Z" fill="black"/>
<path opacity="0.25" d="M32.1116 13.1316H30.2828V14.9347H32.1116V13.1316Z" fill="black"/>
<path opacity="0.25" d="M35.7715 13.1316H33.9427V14.9347H35.7715V13.1316Z" fill="black"/>
<path opacity="0.25" d="M39.4314 13.1316H37.6026V14.9347H39.4314V13.1316Z" fill="black"/>
<path opacity="0.25" d="M43.0891 13.1316H41.2603V14.9347H43.0891V13.1316Z" fill="black"/>
<path opacity="0.25" d="M44.9202 13.1316H43.0914V14.9347H44.9202V13.1316Z" fill="black"/>
<path opacity="0.25" d="M33.9427 14.9347H32.1138V16.7378H33.9427V14.9347Z" fill="black"/>
<path opacity="0.25" d="M37.6004 14.9347H35.7715V16.7378H37.6004V14.9347Z" fill="black"/>
<path opacity="0.25" d="M43.0891 14.9347H41.2603V16.7378H43.0891V14.9347Z" fill="black"/>
<path opacity="0.25" d="M44.9202 14.9347H43.0914V16.7378H44.9202V14.9347Z" fill="black"/>
<path opacity="0.25" d="M30.2828 16.7399H28.4539V18.543H30.2828V16.7399Z" fill="black"/>
<path opacity="0.25" d="M33.9427 16.7399H32.1138V18.543H33.9427V16.7399Z" fill="black"/>
<path opacity="0.25" d="M39.4314 16.7399H37.6026V18.543H39.4314V16.7399Z" fill="black"/>
<path opacity="0.25" d="M41.2603 16.7399H39.4314V18.543H41.2603V16.7399Z" fill="black"/>
<path opacity="0.25" d="M43.0891 16.7399H41.2603V18.543H43.0891V16.7399Z" fill="black"/>
<path opacity="0.25" d="M30.2828 18.543H28.4539V20.3461H30.2828V18.543Z" fill="black"/>
<path opacity="0.25" d="M33.9427 18.543H32.1138V20.3461H33.9427V18.543Z" fill="black"/>
<path opacity="0.25" d="M37.6004 18.543H35.7715V20.3461H37.6004V18.543Z" fill="black"/>
<path opacity="0.25" d="M41.2603 18.543H39.4314V20.3461H41.2603V18.543Z" fill="black"/>
<path opacity="0.25" d="M44.9202 18.543H43.0914V20.3461H44.9202V18.543Z" fill="black"/>
<path opacity="0.25" d="M37.6004 20.3483H35.7715V22.1514H37.6004V20.3483Z" fill="black"/>
<path opacity="0.25" d="M44.9202 20.3483H43.0914V22.1514H44.9202V20.3483Z" fill="black"/>
<path opacity="0.25" d="M15.6454 22.1514H13.8165V23.9545H15.6454V22.1514Z" fill="black"/>
<path opacity="0.25" d="M17.4742 22.1514H15.6454V23.9545H17.4742V22.1514Z" fill="black"/>
<path opacity="0.25" d="M19.3053 22.1514H17.4764V23.9545H19.3053V22.1514Z" fill="black"/>
<path opacity="0.25" d="M21.1341 22.1514H19.3053V23.9545H21.1341V22.1514Z" fill="black"/>
<path opacity="0.25" d="M22.963 22.1514H21.1341V23.9545H22.963V22.1514Z" fill="black"/>
<path opacity="0.25" d="M26.6229 22.1514H24.794V23.9545H26.6229V22.1514Z" fill="black"/>
<path opacity="0.25" d="M28.4539 22.1514H26.6251V23.9545H28.4539V22.1514Z" fill="black"/>
<path opacity="0.25" d="M30.2828 22.1514H28.4539V23.9545H30.2828V22.1514Z" fill="black"/>
<path opacity="0.25" d="M32.1116 22.1514H30.2828V23.9545H32.1116V22.1514Z" fill="black"/>
<path opacity="0.25" d="M33.9427 22.1514H32.1138V23.9545H33.9427V22.1514Z" fill="black"/>
<path opacity="0.25" d="M37.6004 22.1514H35.7715V23.9545H37.6004V22.1514Z" fill="black"/>
<path opacity="0.25" d="M39.4314 22.1514H37.6026V23.9545H39.4314V22.1514Z" fill="black"/>
<path opacity="0.25" d="M43.0891 22.1514H41.2603V23.9545H43.0891V22.1514Z" fill="black"/>
<path opacity="0.25" d="M46.749 22.1514H44.9202V23.9545H46.749V22.1514Z" fill="black"/>
<path opacity="0.25" d="M50.409 22.1514H48.5801V23.9545H50.409V22.1514Z" fill="black"/>
<path opacity="0.25" d="M54.0689 22.1514H52.24V23.9545H54.0689V22.1514Z" fill="black"/>
<path opacity="0.25" d="M57.7266 22.1514H55.8977V23.9545H57.7266V22.1514Z" fill="black"/>
<path opacity="0.25" d="M21.1341 23.9545H19.3053V25.7576H21.1341V23.9545Z" fill="black"/>
<path opacity="0.25" d="M32.1116 23.9545H30.2828V25.7576H32.1116V23.9545Z" fill="black"/>
<path opacity="0.25" d="M43.0891 23.9545H41.2603V25.7576H43.0891V23.9545Z" fill="black"/>
<path opacity="0.25" d="M44.9202 23.9545H43.0914V25.7576H44.9202V23.9545Z" fill="black"/>
<path opacity="0.25" d="M46.749 23.9545H44.9202V25.7576H46.749V23.9545Z" fill="black"/>
<path opacity="0.25" d="M50.409 23.9545H48.5801V25.7576H50.409V23.9545Z" fill="black"/>
<path opacity="0.25" d="M52.2378 23.9545H50.409V25.7576H52.2378V23.9545Z" fill="black"/>
<path opacity="0.25" d="M59.5576 23.9545H57.7288V25.7576H59.5576V23.9545Z" fill="black"/>
<path opacity="0.25" d="M19.3053 25.7598H17.4764V27.5629H19.3053V25.7598Z" fill="black"/>
<path opacity="0.25" d="M24.794 25.7598H22.9652V27.5629H24.794V25.7598Z" fill="black"/>
<path opacity="0.25" d="M26.6229 25.7598H24.794V27.5629H26.6229V25.7598Z" fill="black"/>
<path opacity="0.25" d="M28.4539 25.7598H26.6251V27.5629H28.4539V25.7598Z" fill="black"/>
<path opacity="0.25" d="M32.1116 25.7598H30.2828V27.5629H32.1116V25.7598Z" fill="black"/>
<path opacity="0.25" d="M35.7715 25.7598H33.9427V27.5629H35.7715V25.7598Z" fill="black"/>
<path opacity="0.25" d="M37.6004 25.7598H35.7715V27.5629H37.6004V25.7598Z" fill="black"/>
<path opacity="0.25" d="M39.4314 25.7598H37.6026V27.5629H39.4314V25.7598Z" fill="black"/>
<path opacity="0.25" d="M41.2603 25.7598H39.4314V27.5629H41.2603V25.7598Z" fill="black"/>
<path opacity="0.25" d="M43.0891 25.7598H41.2603V27.5629H43.0891V25.7598Z" fill="black"/>
<path opacity="0.25" d="M46.749 25.7598H44.9202V27.5629H46.749V25.7598Z" fill="black"/>
<path opacity="0.25" d="M48.5779 25.7598H46.7491V27.5629H48.5779V25.7598Z" fill="black"/>
<path opacity="0.25" d="M52.2378 25.7598H50.409V27.5629H52.2378V25.7598Z" fill="black"/>
<path opacity="0.25" d="M55.8977 25.7598H54.0688V27.5629H55.8977V25.7598Z" fill="black"/>
<path opacity="0.25" d="M15.6454 27.5627H13.8165V29.3658H15.6454V27.5627Z" fill="black"/>
<path opacity="0.25" d="M19.3053 27.5627H17.4764V29.3658H19.3053V27.5627Z" fill="black"/>
<path opacity="0.25" d="M21.1341 27.5627H19.3053V29.3658H21.1341V27.5627Z" fill="black"/>
<path opacity="0.25" d="M22.963 27.5627H21.1341V29.3658H22.963V27.5627Z" fill="black"/>
<path opacity="0.25" d="M24.794 27.5627H22.9652V29.3658H24.794V27.5627Z" fill="black"/>
<path opacity="0.25" d="M28.4539 27.5627H26.6251V29.3658H28.4539V27.5627Z" fill="black"/>
<path opacity="0.25" d="M30.2828 27.5627H28.4539V29.3658H30.2828V27.5627Z" fill="black"/>
<path opacity="0.25" d="M32.1116 27.5627H30.2828V29.3658H32.1116V27.5627Z" fill="black"/>
<path opacity="0.25" d="M33.9427 27.5627H32.1138V29.3658H33.9427V27.5627Z" fill="black"/>
<path opacity="0.25" d="M35.7715 27.5627H33.9427V29.3658H35.7715V27.5627Z" fill="black"/>
<path opacity="0.25" d="M41.2603 27.5627H39.4314V29.3658H41.2603V27.5627Z" fill="black"/>
<path opacity="0.25" d="M44.9202 27.5627H43.0914V29.3658H44.9202V27.5627Z" fill="black"/>
<path opacity="0.25" d="M46.749 27.5627H44.9202V29.3658H46.749V27.5627Z" fill="black"/>
<path opacity="0.25" d="M15.6454 29.3658H13.8165V31.1689H15.6454V29.3658Z" fill="black"/>
<path opacity="0.25" d="M21.1341 29.3658H19.3053V31.1689H21.1341V29.3658Z" fill="black"/>
<path opacity="0.25" d="M26.6229 29.3658H24.794V31.1689H26.6229V29.3658Z" fill="black"/>
<path opacity="0.25" d="M32.1116 29.3658H30.2828V31.1689H32.1116V29.3658Z" fill="black"/>
<path opacity="0.25" d="M35.7715 29.3658H33.9427V31.1689H35.7715V29.3658Z" fill="black"/>
<path opacity="0.25" d="M39.4314 29.3658H37.6026V31.1689H39.4314V29.3658Z" fill="black"/>
<path opacity="0.25" d="M43.0891 29.3658H41.2603V31.1689H43.0891V29.3658Z" fill="black"/>
<path opacity="0.25" d="M48.5779 29.3658H46.7491V31.1689H48.5779V29.3658Z" fill="black"/>
<path opacity="0.25" d="M50.409 29.3658H48.5801V31.1689H50.409V29.3658Z" fill="black"/>
<path opacity="0.25" d="M52.2378 29.3658H50.409V31.1689H52.2378V29.3658Z" fill="black"/>
<path opacity="0.25" d="M54.0689 29.3658H52.24V31.1689H54.0689V29.3658Z" fill="black"/>
<path opacity="0.25" d="M57.7266 29.3658H55.8977V31.1689H57.7266V29.3658Z" fill="black"/>
<path opacity="0.25" d="M59.5576 29.3658H57.7288V31.1689H59.5576V29.3658Z" fill="black"/>
<path opacity="0.25" d="M15.6454 31.1711H13.8165V32.9742H15.6454V31.1711Z" fill="black"/>
<path opacity="0.25" d="M17.4742 31.1711H15.6454V32.9742H17.4742V31.1711Z" fill="black"/>
<path opacity="0.25" d="M21.1341 31.1711H19.3053V32.9742H21.1341V31.1711Z" fill="black"/>
<path opacity="0.25" d="M28.4539 31.1711H26.6251V32.9742H28.4539V31.1711Z" fill="black"/>
<path opacity="0.25" d="M33.9427 31.1711H32.1138V32.9742H33.9427V31.1711Z" fill="black"/>
<path opacity="0.25" d="M37.6004 31.1711H35.7715V32.9742H37.6004V31.1711Z" fill="black"/>
<path opacity="0.25" d="M41.2603 31.1711H39.4314V32.9742H41.2603V31.1711Z" fill="black"/>
<path opacity="0.25" d="M44.9202 31.1711H43.0914V32.9742H44.9202V31.1711Z" fill="black"/>
<path opacity="0.25" d="M46.749 31.1711H44.9202V32.9742H46.749V31.1711Z" fill="black"/>
<path opacity="0.25" d="M48.5779 31.1711H46.7491V32.9742H48.5779V31.1711Z" fill="black"/>
<path opacity="0.25" d="M50.409 31.1711H48.5801V32.9742H50.409V31.1711Z" fill="black"/>
<path opacity="0.25" d="M52.2378 31.1711H50.409V32.9742H52.2378V31.1711Z" fill="black"/>
<path opacity="0.25" d="M15.6454 32.9742H13.8165V34.7773H15.6454V32.9742Z" fill="black"/>
<path opacity="0.25" d="M19.3053 32.9742H17.4764V34.7773H19.3053V32.9742Z" fill="black"/>
<path opacity="0.25" d="M21.1341 32.9742H19.3053V34.7773H21.1341V32.9742Z" fill="black"/>
<path opacity="0.25" d="M22.963 32.9742H21.1341V34.7773H22.963V32.9742Z" fill="black"/>
<path opacity="0.25" d="M26.6229 32.9742H24.794V34.7773H26.6229V32.9742Z" fill="black"/>
<path opacity="0.25" d="M28.4539 32.9742H26.6251V34.7773H28.4539V32.9742Z" fill="black"/>
<path opacity="0.25" d="M39.4314 32.9742H37.6026V34.7773H39.4314V32.9742Z" fill="black"/>
<path opacity="0.25" d="M46.749 32.9742H44.9202V34.7773H46.749V32.9742Z" fill="black"/>
<path opacity="0.25" d="M48.5779 32.9742H46.7491V34.7773H48.5779V32.9742Z" fill="black"/>
<path opacity="0.25" d="M52.2378 32.9742H50.409V34.7773H52.2378V32.9742Z" fill="black"/>
<path opacity="0.25" d="M55.8977 32.9742H54.0688V34.7773H55.8977V32.9742Z" fill="black"/>
<path opacity="0.25" d="M57.7266 32.9742H55.8977V34.7773H57.7266V32.9742Z" fill="black"/>
<path opacity="0.25" d="M59.5576 32.9742H57.7288V34.7773H59.5576V32.9742Z" fill="black"/>
<path opacity="0.25" d="M15.6454 34.7773H13.8165V36.5804H15.6454V34.7773Z" fill="black"/>
<path opacity="0.25" d="M21.1341 34.7773H19.3053V36.5804H21.1341V34.7773Z" fill="black"/>
<path opacity="0.25" d="M24.794 34.7773H22.9652V36.5804H24.794V34.7773Z" fill="black"/>
<path opacity="0.25" d="M32.1116 34.7773H30.2828V36.5804H32.1116V34.7773Z" fill="black"/>
<path opacity="0.25" d="M33.9427 34.7773H32.1138V36.5804H33.9427V34.7773Z" fill="black"/>
<path opacity="0.25" d="M37.6004 34.7773H35.7715V36.5804H37.6004V34.7773Z" fill="black"/>
<path opacity="0.25" d="M39.4314 34.7773H37.6026V36.5804H39.4314V34.7773Z" fill="black"/>
<path opacity="0.25" d="M41.2603 34.7773H39.4314V36.5804H41.2603V34.7773Z" fill="black"/>
<path opacity="0.25" d="M46.749 34.7773H44.9202V36.5804H46.749V34.7773Z" fill="black"/>
<path opacity="0.25" d="M57.7266 34.7773H55.8977V36.5804H57.7266V34.7773Z" fill="black"/>
<path opacity="0.25" d="M59.5576 34.7773H57.7288V36.5804H59.5576V34.7773Z" fill="black"/>
<path opacity="0.25" d="M15.6454 36.5826H13.8165V38.3857H15.6454V36.5826Z" fill="black"/>
<path opacity="0.25" d="M26.6229 36.5826H24.794V38.3857H26.6229V36.5826Z" fill="black"/>
<path opacity="0.25" d="M33.9427 36.5826H32.1138V38.3857H33.9427V36.5826Z" fill="black"/>
<path opacity="0.25" d="M37.6004 36.5826H35.7715V38.3857H37.6004V36.5826Z" fill="black"/>
<path opacity="0.25" d="M43.0891 36.5826H41.2603V38.3857H43.0891V36.5826Z" fill="black"/>
<path opacity="0.25" d="M44.9202 36.5826H43.0914V38.3857H44.9202V36.5826Z" fill="black"/>
<path opacity="0.25" d="M46.749 36.5826H44.9202V38.3857H46.749V36.5826Z" fill="black"/>
<path opacity="0.25" d="M48.5779 36.5826H46.7491V38.3857H48.5779V36.5826Z" fill="black"/>
<path opacity="0.25" d="M50.409 36.5826H48.5801V38.3857H50.409V36.5826Z" fill="black"/>
<path opacity="0.25" d="M52.2378 36.5826H50.409V38.3857H52.2378V36.5826Z" fill="black"/>
<path opacity="0.25" d="M54.0689 36.5826H52.24V38.3857H54.0689V36.5826Z" fill="black"/>
<path opacity="0.25" d="M59.5576 36.5826H57.7288V38.3857H59.5576V36.5826Z" fill="black"/>
<path opacity="0.25" d="M30.2828 38.3856H28.4539V40.1887H30.2828V38.3856Z" fill="black"/>
<path opacity="0.25" d="M33.9427 38.3856H32.1138V40.1887H33.9427V38.3856Z" fill="black"/>
<path opacity="0.25" d="M41.2603 38.3856H39.4314V40.1887H41.2603V38.3856Z" fill="black"/>
<path opacity="0.25" d="M44.9202 38.3856H43.0914V40.1887H44.9202V38.3856Z" fill="black"/>
<path opacity="0.25" d="M52.2378 38.3856H50.409V40.1887H52.2378V38.3856Z" fill="black"/>
<path opacity="0.25" d="M59.5576 38.3856H57.7288V40.1887H59.5576V38.3856Z" fill="black"/>
<path opacity="0.25" d="M30.2828 40.1887H28.4539V41.9918H30.2828V40.1887Z" fill="black"/>
<path opacity="0.25" d="M32.1116 40.1887H30.2828V41.9918H32.1116V40.1887Z" fill="black"/>
<path opacity="0.25" d="M33.9427 40.1887H32.1138V41.9918H33.9427V40.1887Z" fill="black"/>
<path opacity="0.25" d="M35.7715 40.1887H33.9427V41.9918H35.7715V40.1887Z" fill="black"/>
<path opacity="0.25" d="M37.6004 40.1887H35.7715V41.9918H37.6004V40.1887Z" fill="black"/>
<path opacity="0.25" d="M41.2603 40.1887H39.4314V41.9918H41.2603V40.1887Z" fill="black"/>
<path opacity="0.25" d="M44.9202 40.1887H43.0914V41.9918H44.9202V40.1887Z" fill="black"/>
<path opacity="0.25" d="M48.5779 40.1887H46.7491V41.9918H48.5779V40.1887Z" fill="black"/>
<path opacity="0.25" d="M52.2378 40.1887H50.409V41.9918H52.2378V40.1887Z" fill="black"/>
<path opacity="0.25" d="M55.8977 40.1887H54.0688V41.9918H55.8977V40.1887Z" fill="black"/>
<path opacity="0.25" d="M57.7266 40.1887H55.8977V41.9918H57.7266V40.1887Z" fill="black"/>
<path opacity="0.25" d="M59.5576 40.1887H57.7288V41.9918H59.5576V40.1887Z" fill="black"/>
<path opacity="0.25" d="M32.1116 41.994H30.2828V43.7971H32.1116V41.994Z" fill="black"/>
<path opacity="0.25" d="M33.9427 41.994H32.1138V43.7971H33.9427V41.994Z" fill="black"/>
<path opacity="0.25" d="M35.7715 41.994H33.9427V43.7971H35.7715V41.994Z" fill="black"/>
<path opacity="0.25" d="M41.2603 41.994H39.4314V43.7971H41.2603V41.994Z" fill="black"/>
<path opacity="0.25" d="M44.9202 41.994H43.0914V43.7971H44.9202V41.994Z" fill="black"/>
<path opacity="0.25" d="M52.2378 41.994H50.409V43.7971H52.2378V41.994Z" fill="black"/>
<path opacity="0.25" d="M54.0689 41.994H52.24V43.7971H54.0689V41.994Z" fill="black"/>
<path opacity="0.25" d="M30.2828 43.7971H28.4539V45.6002H30.2828V43.7971Z" fill="black"/>
<path opacity="0.25" d="M32.1116 43.7971H30.2828V45.6002H32.1116V43.7971Z" fill="black"/>
<path opacity="0.25" d="M35.7715 43.7971H33.9427V45.6002H35.7715V43.7971Z" fill="black"/>
<path opacity="0.25" d="M37.6004 43.7971H35.7715V45.6002H37.6004V43.7971Z" fill="black"/>
<path opacity="0.25" d="M39.4314 43.7971H37.6026V45.6002H39.4314V43.7971Z" fill="black"/>
<path opacity="0.25" d="M44.9202 43.7971H43.0914V45.6002H44.9202V43.7971Z" fill="black"/>
<path opacity="0.25" d="M46.749 43.7971H44.9202V45.6002H46.749V43.7971Z" fill="black"/>
<path opacity="0.25" d="M48.5779 43.7971H46.7491V45.6002H48.5779V43.7971Z" fill="black"/>
<path opacity="0.25" d="M50.409 43.7971H48.5801V45.6002H50.409V43.7971Z" fill="black"/>
<path opacity="0.25" d="M52.2378 43.7971H50.409V45.6002H52.2378V43.7971Z" fill="black"/>
<path opacity="0.25" d="M54.0689 43.7971H52.24V45.6002H54.0689V43.7971Z" fill="black"/>
<path opacity="0.25" d="M30.2828 45.6024H28.4539V47.4055H30.2828V45.6024Z" fill="black"/>
<path opacity="0.25" d="M32.1116 45.6024H30.2828V47.4055H32.1116V45.6024Z" fill="black"/>
<path opacity="0.25" d="M33.9427 45.6024H32.1138V47.4055H33.9427V45.6024Z" fill="black"/>
<path opacity="0.25" d="M37.6004 45.6024H35.7715V47.4055H37.6004V45.6024Z" fill="black"/>
<path opacity="0.25" d="M43.0891 45.6024H41.2603V47.4055H43.0891V45.6024Z" fill="black"/>
<path opacity="0.25" d="M44.9202 45.6024H43.0914V47.4055H44.9202V45.6024Z" fill="black"/>
<path opacity="0.25" d="M48.5779 45.6024H46.7491V47.4055H48.5779V45.6024Z" fill="black"/>
<path opacity="0.25" d="M52.2378 45.6024H50.409V47.4055H52.2378V45.6024Z" fill="black"/>
<path opacity="0.25" d="M57.7266 45.6024H55.8977V47.4055H57.7266V45.6024Z" fill="black"/>
<path opacity="0.25" d="M59.5576 45.6024H57.7288V47.4055H59.5576V45.6024Z" fill="black"/>
<path opacity="0.25" d="M30.2828 47.4055H28.4539V49.2086H30.2828V47.4055Z" fill="black"/>
<path opacity="0.25" d="M32.1116 47.4055H30.2828V49.2086H32.1116V47.4055Z" fill="black"/>
<path opacity="0.25" d="M37.6004 47.4055H35.7715V49.2086H37.6004V47.4055Z" fill="black"/>
<path opacity="0.25" d="M39.4314 47.4055H37.6026V49.2086H39.4314V47.4055Z" fill="black"/>
<path opacity="0.25" d="M41.2603 47.4055H39.4314V49.2086H41.2603V47.4055Z" fill="black"/>
<path opacity="0.25" d="M52.2378 47.4055H50.409V49.2086H52.2378V47.4055Z" fill="black"/>
<path opacity="0.25" d="M55.8977 47.4055H54.0688V49.2086H55.8977V47.4055Z" fill="black"/>
<path opacity="0.25" d="M59.5576 47.4055H57.7288V49.2086H59.5576V47.4055Z" fill="black"/>
<path opacity="0.25" d="M30.2828 49.2085H28.4539V51.0116H30.2828V49.2085Z" fill="black"/>
<path opacity="0.25" d="M32.1116 49.2085H30.2828V51.0116H32.1116V49.2085Z" fill="black"/>
<path opacity="0.25" d="M33.9427 49.2085H32.1138V51.0116H33.9427V49.2085Z" fill="black"/>
<path opacity="0.25" d="M37.6004 49.2085H35.7715V51.0116H37.6004V49.2085Z" fill="black"/>
<path opacity="0.25" d="M39.4314 49.2085H37.6026V51.0116H39.4314V49.2085Z" fill="black"/>
<path opacity="0.25" d="M44.9202 49.2085H43.0914V51.0116H44.9202V49.2085Z" fill="black"/>
<path opacity="0.25" d="M46.749 49.2085H44.9202V51.0116H46.749V49.2085Z" fill="black"/>
<path opacity="0.25" d="M48.5779 49.2085H46.7491V51.0116H48.5779V49.2085Z" fill="black"/>
<path opacity="0.25" d="M50.409 49.2085H48.5801V51.0116H50.409V49.2085Z" fill="black"/>
<path opacity="0.25" d="M52.2378 49.2085H50.409V51.0116H52.2378V49.2085Z" fill="black"/>
<path opacity="0.25" d="M54.0689 49.2085H52.24V51.0116H54.0689V49.2085Z" fill="black"/>
<path opacity="0.25" d="M57.7266 49.2085H55.8977V51.0116H57.7266V49.2085Z" fill="black"/>
<path opacity="0.25" d="M30.2828 51.0138H28.4539V52.8169H30.2828V51.0138Z" fill="black"/>
<path opacity="0.25" d="M39.4314 51.0138H37.6026V52.8169H39.4314V51.0138Z" fill="black"/>
<path opacity="0.25" d="M43.0891 51.0138H41.2603V52.8169H43.0891V51.0138Z" fill="black"/>
<path opacity="0.25" d="M55.8977 51.0138H54.0688V52.8169H55.8977V51.0138Z" fill="black"/>
<path opacity="0.25" d="M57.7266 51.0138H55.8977V52.8169H57.7266V51.0138Z" fill="black"/>
<path opacity="0.25" d="M59.5576 51.0138H57.7288V52.8169H59.5576V51.0138Z" fill="black"/>
<path opacity="0.25" d="M14.2039 7.71802C13.9904 7.71802 13.8143 7.8916 13.8143 8.10207V9.52328V11.3264V13.1295V14.9326V16.7356V18.5387V19.96C13.8143 20.1704 13.9882 20.344 14.2039 20.344H26.2355C26.449 20.344 26.6251 20.1726 26.6251 19.96V18.5387V16.7356V14.9326V13.1295V11.3264V9.52328V8.10207C26.6251 7.8916 26.4512 7.71802 26.2355 7.71802H14.2039ZM24.794 11.3285V13.1316V14.9347V16.7378V18.3218C24.794 18.4454 24.6928 18.5409 24.5717 18.5409H15.8698C15.7444 18.5409 15.6476 18.4411 15.6476 18.3218V16.7378V14.9347V13.1316V11.3285V9.7446C15.6476 9.62092 15.7488 9.52545 15.8698 9.52545H24.5717C24.6972 9.52545 24.794 9.62526 24.794 9.7446V11.3285Z" fill="black"/>
<path opacity="0.25" d="M22.9652 14.9346V13.1316V11.7103C22.9652 11.4999 22.7913 11.3263 22.5756 11.3263H17.8638C17.6503 11.3263 17.4742 11.4977 17.4742 11.7103V13.1316V14.9346V16.3559C17.4742 16.5663 17.6481 16.7399 17.8638 16.7399H22.5756C22.7891 16.7399 22.9652 16.5685 22.9652 16.3559V14.9346Z" fill="black"/>
<path opacity="0.25" d="M47.1386 7.71802C46.9251 7.71802 46.7491 7.8916 46.7491 8.10207V9.52328V11.3264V13.1295V14.9326V16.7356V18.5387V19.96C46.7491 20.1704 46.9229 20.344 47.1386 20.344H59.1703C59.3838 20.344 59.5598 20.1726 59.5598 19.96V18.5387V16.7356V14.9326V13.1295V11.3264V9.52328V8.10207C59.5598 7.8916 59.386 7.71802 59.1703 7.71802H47.1386ZM57.7288 11.3285V13.1316V14.9347V16.7378V18.3218C57.7288 18.4454 57.6275 18.5409 57.5065 18.5409H48.8046C48.6791 18.5409 48.5823 18.4411 48.5823 18.3218V16.7378V14.9347V13.1316V11.3285V9.7446C48.5823 9.62092 48.6835 9.52545 48.8046 9.52545H57.5065C57.6319 9.52545 57.7288 9.62526 57.7288 9.7446V11.3285Z" fill="black"/>
<path opacity="0.25" d="M55.8977 14.9346V13.1316V11.7103C55.8977 11.4999 55.7238 11.3263 55.5082 11.3263H50.7963C50.5828 11.3263 50.4068 11.4977 50.4068 11.7103V13.1316V14.9346V16.3559C50.4068 16.5663 50.5806 16.7399 50.7963 16.7399H55.5082C55.7216 16.7399 55.8977 16.5685 55.8977 16.3559V14.9346Z" fill="black"/>
<path opacity="0.25" d="M14.2039 40.1887C13.9904 40.1887 13.8143 40.3623 13.8143 40.5728V41.994V43.7971V45.6002V47.4033V49.2064V51.0094V52.4307C13.8143 52.6411 13.9882 52.8147 14.2039 52.8147H26.2355C26.449 52.8147 26.6251 52.6433 26.6251 52.4307V51.0094V49.2064V47.4033V45.6002V43.7971V41.994V40.5728C26.6251 40.3623 26.4512 40.1887 26.2355 40.1887H14.2039ZM24.794 43.7971V45.6002V47.4033V49.2064V50.7903C24.794 50.914 24.6928 51.0094 24.5717 51.0094H15.8698C15.7444 51.0094 15.6476 50.9096 15.6476 50.7903V49.2064V47.4033V45.6002V43.7971V42.2131C15.6476 42.0895 15.7488 41.994 15.8698 41.994H24.5717C24.6972 41.994 24.794 42.0938 24.794 42.2131V43.7971Z" fill="black"/>
<path opacity="0.25" d="M22.9652 47.4055V45.6024V44.1812C22.9652 43.9707 22.7913 43.7971 22.5756 43.7971H17.8638C17.6503 43.7971 17.4742 43.9685 17.4742 44.1812V45.6024V47.4055V48.8267C17.4742 49.0371 17.6481 49.2107 17.8638 49.2107H22.5756C22.7891 49.2107 22.9652 49.0393 22.9652 48.8267V47.4055Z" fill="black"/>
<path d="M70.3371 62.6851H67.1899V2.97261C67.1899 1.34527 65.8475 0 64.1749 0H8.80313C7.15255 0 5.78806 1.32357 5.78806 2.97261V62.6851H2.66295C1.18842 62.6851 0 63.8568 0 65.3105V77.3746C0 78.8283 1.18842 80 2.66295 80H70.3371C71.8116 80 73 78.8283 73 77.3746V65.3105C73 63.8568 71.8116 62.6851 70.3371 62.6851ZM64.8791 56.6531C64.8791 57.5427 64.1528 58.2587 63.2725 58.2587H9.72746C8.82514 58.2587 8.09888 57.5427 8.09888 56.6531V3.88392C8.09888 2.9943 8.82514 2.27828 9.72746 2.27828H63.2505C64.1528 2.27828 64.8791 2.9943 64.8791 3.88392V56.6531Z" fill="black"/>
<path opacity="0.35" d="M67.1899 60.537H5.78806V62.6851H67.1899V60.537Z" fill="white"/>
<path d="M20.4211 73.3257C20.4211 73.9159 20.2054 74.3824 19.7718 74.7209C19.3383 75.0616 18.7375 75.2308 17.965 75.2308C17.1485 75.2308 16.5191 75.1245 16.0745 74.9118V74.096C16.3672 74.2197 16.6863 74.3173 17.0319 74.3889C17.3774 74.4605 17.7031 74.4952 18.0024 74.4952C18.5174 74.4952 18.9047 74.3976 19.1644 74.2023C19.4241 74.007 19.554 73.7402 19.554 73.3995C19.554 73.1738 19.5077 72.9872 19.4131 72.8419C19.3185 72.6965 19.1622 72.5598 18.9399 72.4339C18.7199 72.3081 18.3831 72.1627 17.9364 72.0022C17.3004 71.7743 16.8448 71.5031 16.5719 71.1928C16.299 70.8825 16.1626 70.4811 16.1626 69.9886C16.1626 69.4592 16.365 69.0382 16.7678 68.728C17.1705 68.4177 17.7009 68.2593 18.3611 68.2593C19.0478 68.2593 19.6794 68.3851 20.256 68.639L19.9875 69.3724C19.3977 69.1315 18.8497 69.01 18.3413 69.01C17.9342 69.01 17.6151 69.0968 17.384 69.2704C17.1529 69.444 17.0385 69.687 17.0385 69.9994C17.0385 70.2229 17.0825 70.4074 17.1727 70.5527C17.2629 70.6981 17.406 70.8326 17.6063 70.9542C17.8065 71.0757 18.1191 71.2124 18.5438 71.3664C19.0544 71.553 19.4351 71.7331 19.686 71.9067C19.9369 72.0803 20.1218 72.2821 20.2406 72.5099C20.3617 72.7399 20.4211 73.0111 20.4211 73.3257ZM24.7544 69.0122C24.015 69.0122 23.4317 69.2574 23.0092 69.7456C22.5866 70.2338 22.3732 70.9021 22.3732 71.7483C22.3732 72.6227 22.5778 73.2975 22.9894 73.7727C23.4009 74.2479 23.9841 74.4844 24.7434 74.4844C25.232 74.4844 25.7822 74.3954 26.394 74.2153V74.9574C26.1013 75.0616 25.8218 75.1353 25.5511 75.1722C25.2804 75.2091 24.9701 75.2308 24.6202 75.2308C23.6078 75.2308 22.8265 74.927 22.2807 74.3195C21.7327 73.712 21.4598 72.8505 21.4598 71.7374C21.4598 71.0388 21.5897 70.4269 21.8516 69.9018C22.1135 69.3767 22.4942 68.971 22.9938 68.6867C23.4934 68.4025 24.0832 68.2593 24.761 68.2593C25.4895 68.2593 26.1211 68.3916 26.6625 68.6585L26.3148 69.3811C25.7668 69.1359 25.2474 69.0122 24.7544 69.0122ZM32.2107 75.1397L31.3832 73.0393H28.6542L27.8355 75.1397H26.9596L29.6468 68.3309H30.428L33.1086 75.1397H32.2107ZM31.1235 72.2821L30.351 70.2273L30.0209 69.2118C29.9263 69.5829 29.8272 69.9213 29.7238 70.2273L28.9425 72.2821H31.1235ZM39.5063 75.1397H38.4939L34.8098 69.5091H34.7724L34.7966 69.8844C34.834 70.4464 34.8538 70.9368 34.8538 71.3491V75.1375H34.0549V68.3569H35.0563L35.2676 68.6867L37.5256 72.128L38.725 73.9702H38.7624C38.7558 73.8964 38.7426 73.6317 38.725 73.1738C38.7052 72.7182 38.6964 72.3884 38.6964 72.1844V68.3569H39.5063V75.1397ZM46.9119 75.1397L44.6451 69.1945H44.6077C44.6539 69.6892 44.6781 70.2989 44.6781 71.0258V75.1397H43.8792V68.3591H45.1579L47.2794 73.9159H47.3168L49.4758 68.3591H50.7457V75.1397H49.8896V70.9693C49.8896 70.505 49.9116 69.917 49.9556 69.2031H49.9182L47.6228 75.1397H46.9119ZM56.4611 75.1397H52.6185V68.3591H56.4611V69.1098H53.4834V71.2254H56.2872V71.9674H53.4834V74.3889H56.4611V75.1397Z" fill="white"/>
</svg>
