<svg width="80" height="72" viewBox="0 0 80 72" fill="none" xmlns="http://www.w3.org/2000/svg">
<path d="M79.8816 63.0074L77.7104 58.0446C77.3156 57.1712 77.3156 56.1786 77.7104 55.3052L79.8618 50.3424C80.1974 49.5682 79.6447 48.7146 78.796 48.7146H67.5253V55.8015H12.455V48.7146H1.18432C0.355304 48.7146 -0.217112 49.5881 0.118442 50.3424L2.26993 55.3052C2.64497 56.1786 2.64497 57.1712 2.26993 58.0446L0.0987036 63.0074C-0.23685 63.7816 0.315827 64.655 1.16458 64.655H6.82952V68.7444C6.82952 70.5508 8.29017 72 10.0469 72H69.9531C71.7296 72 73.1705 70.531 73.1705 68.7444V64.655H78.8354C79.6842 64.655 80.2171 63.7816 79.8816 63.0074Z" fill="black"/>
<path d="M24.9099 65.8461C24.9099 66.4218 24.7126 66.8585 24.2981 67.196C23.8835 67.5334 23.3111 67.6923 22.5808 67.6923C21.811 67.6923 21.2189 67.593 20.7846 67.3746V66.5806C21.0609 66.6997 21.357 66.7989 21.6926 66.8585C22.0281 66.9181 22.3242 66.9578 22.6203 66.9578C23.1137 66.9578 23.469 66.8585 23.7256 66.6798C23.9822 66.5012 24.1007 66.2233 24.1007 65.9057C24.1007 65.6873 24.0612 65.5086 23.9625 65.3697C23.8638 65.2307 23.7256 65.0918 23.5085 64.9726C23.2914 64.8535 22.9756 64.7146 22.5611 64.5558C21.9492 64.3374 21.5347 64.0793 21.2583 63.7816C21.0017 63.4838 20.8636 63.0868 20.8636 62.6104C20.8636 62.0942 21.0609 61.6972 21.436 61.3994C21.811 61.1017 22.3242 60.9429 22.9361 60.9429C23.5875 60.9429 24.1796 61.062 24.7323 61.32L24.4757 62.0347C23.923 61.7965 23.3901 61.6774 22.9164 61.6774C22.5216 61.6774 22.2255 61.7568 22.0084 61.9354C21.7913 62.0942 21.6728 62.3324 21.6728 62.6302C21.6728 62.8486 21.7123 63.0272 21.7913 63.1662C21.8702 63.3052 22.0084 63.4441 22.2058 63.5632C22.4032 63.6823 22.6992 63.8213 23.094 63.9602C23.5875 64.1389 23.9428 64.3176 24.1796 64.4764C24.4165 64.655 24.5941 64.8337 24.7126 65.0521C24.8507 65.2704 24.9099 65.5285 24.9099 65.8461ZM29.0155 61.6575C28.305 61.6575 27.772 61.8957 27.3575 62.3722C26.9627 62.8486 26.7456 63.4838 26.7456 64.3176C26.7456 65.1712 26.943 65.8262 27.3378 66.2828C27.7325 66.7394 28.2852 66.9776 28.9958 66.9776C29.4695 66.9776 29.9827 66.8982 30.5551 66.7195V67.4342C30.2788 67.5334 30.0222 67.6128 29.7656 67.6525C29.509 67.6922 29.2129 67.7121 28.8774 67.7121C27.9102 67.7121 27.1799 67.4143 26.6667 66.8387C26.1535 66.2431 25.8969 65.4094 25.8969 64.3374C25.8969 63.6625 26.0153 63.0669 26.2719 62.5707C26.5285 62.0545 26.8838 61.6774 27.3575 61.3994C27.8312 61.1215 28.3839 60.9826 29.0353 60.9826C29.7261 60.9826 30.3183 61.1017 30.8315 61.3597L30.4959 62.0545C29.963 61.7965 29.4695 61.6575 29.0155 61.6575ZM36.0819 67.593L35.2924 65.5682H32.7066L31.9368 67.593H31.1078L33.6541 61.0024H34.4041L36.9504 67.593H36.0819ZM35.0555 64.8337L34.3252 62.8486L34.0094 61.8759C33.9107 62.2332 33.8317 62.5707 33.733 62.8486L32.983 64.8337H35.0555ZM42.9904 67.593H42.0429L38.5492 62.1538H38.5097L38.5295 62.5111C38.569 63.0471 38.5887 63.5235 38.5887 63.9205V67.593H37.8386V61.0421H38.7861L38.9835 61.3597L41.1152 64.6947L42.26 66.4813H42.2995C42.2995 66.4019 42.2798 66.1439 42.26 65.7071C42.2403 65.2704 42.2403 64.9528 42.2403 64.7543V61.062H43.0101V67.593H42.9904ZM50.0173 67.593L47.8658 61.8362H47.8263C47.8658 62.3126 47.8855 62.9081 47.8855 63.6029V67.5731H47.1354V61.0223H48.3395L50.3528 66.4019H50.3923L52.4451 61.0223H53.6491V67.5731H52.8399V63.5434C52.8399 63.0868 52.8596 62.531 52.8991 61.8362H52.8596L50.6884 67.5731H50.0173V67.593ZM59.0772 67.593H55.4256V61.0421H59.0772V61.7766H56.2546V63.8213H58.9193V64.5359H56.2546V66.8784H59.0772V67.593Z" fill="white"/>
<path d="M12.455 48.7146V3.11663C12.455 1.62779 13.659 0.397022 15.1591 0.397022H64.8408C66.3212 0.397022 67.545 1.60794 67.545 3.11663V48.7146H67.9398V3.11663C67.9398 1.38958 66.5581 0 64.8408 0H15.1591C13.4419 0 12.0602 1.38958 12.0602 3.11663V48.7146H12.455Z" fill="#E6E6E6"/>
</svg>
