<svg width="56" height="80" viewBox="0 0 56 80" fill="none" xmlns="http://www.w3.org/2000/svg">
<path d="M53.2512 24.347H2.74884C1.22393 24.347 0 25.5833 0 27.0788V77.2682C0 78.7837 1.244 80 2.74884 80H53.2311C54.756 80 55.9799 78.7637 56 77.2682V27.0788C56 25.5633 54.756 24.347 53.2512 24.347ZM2.50806 0H53.4117C54.7761 0 55.8997 1.09671 55.8997 2.47258V13.5793C55.8997 14.9352 54.7961 16.0518 53.4117 16.0518H45.8072L42.0351 21.7946C41.7943 22.0339 41.3931 22.0339 41.1523 21.7946L37.3801 16.0518H2.50806C1.14368 16.0518 0.0200645 14.9551 0.0200645 13.5793V2.47258C0.0200645 1.09671 1.12361 0 2.50806 0ZM53.8732 76.4307C53.8732 77.2483 53.211 77.9063 52.3884 77.9063H3.59154C2.7689 77.9063 2.10677 77.2483 2.10677 76.4307V27.9163C2.10677 27.0987 2.7689 26.4407 3.59154 26.4407H52.3884C53.211 26.4407 53.8732 27.0987 53.8732 27.9163V76.4307Z" fill="black"/>
<path d="M13.6017 9.79861C13.6017 10.341 13.4051 10.7697 13.0098 11.0808C12.6145 11.3918 12.0668 11.5494 11.3625 11.5494C10.6181 11.5494 10.0443 11.4517 9.63898 11.2562V10.5065C9.90583 10.6201 10.1968 10.7099 10.5118 10.7757C10.8268 10.8415 11.1237 10.8734 11.3966 10.8734C11.8661 10.8734 12.2193 10.7837 12.456 10.6042C12.6928 10.4247 12.8112 10.1795 12.8112 9.86641C12.8112 9.65903 12.769 9.48754 12.6828 9.35394C12.5965 9.22035 12.454 9.09472 12.2514 8.97907C12.0487 8.86342 11.7437 8.72982 11.3364 8.58226C10.7566 8.37289 10.3412 8.12364 10.0924 7.83849C9.84363 7.55335 9.71923 7.18445 9.71923 6.73181C9.71923 6.24527 9.90383 5.85843 10.271 5.57329C10.6382 5.28615 11.1217 5.14258 11.7237 5.14258C12.3497 5.14258 12.9255 5.25823 13.4512 5.49153L13.2064 6.16551C12.6687 5.94417 12.1691 5.83251 11.7056 5.83251C11.3344 5.83251 11.0435 5.91227 10.8328 6.07179C10.6221 6.23131 10.5178 6.45464 10.5178 6.74178C10.5178 6.94716 10.5579 7.11666 10.6402 7.25026C10.7225 7.38585 10.8529 7.50748 11.0355 7.61915C11.216 7.73081 11.503 7.85644 11.8902 7.99801C12.3557 8.1695 12.7028 8.335 12.9316 8.49452C13.1603 8.65604 13.3288 8.83949 13.4372 9.04886C13.5475 9.26023 13.6017 9.50948 13.6017 9.79861ZM17.5524 5.8345C16.8782 5.8345 16.3465 6.05983 15.9613 6.50848C15.5761 6.95713 15.3814 7.57129 15.3814 8.34896C15.3814 9.15255 15.568 9.77269 15.9432 10.2094C16.3184 10.6461 16.8502 10.8634 17.5424 10.8634C17.9878 10.8634 18.4894 10.7817 19.0472 10.6162V11.2981C18.7804 11.3938 18.5255 11.4616 18.2787 11.4955C18.032 11.5314 17.749 11.5494 17.43 11.5494C16.5071 11.5494 15.7948 11.2702 15.2972 10.7119C14.7976 10.1535 14.5488 9.36192 14.5488 8.33899C14.5488 7.69692 14.6671 7.1346 14.9059 6.65205C15.1447 6.1695 15.4918 5.79662 15.9473 5.5354C16.4027 5.27418 16.9404 5.14258 17.5584 5.14258C18.2226 5.14258 18.7984 5.26421 19.292 5.50948L18.975 6.17349C18.4754 5.94816 18.0019 5.8345 17.5524 5.8345ZM24.3503 11.4656L23.5958 9.5354H21.1078L20.3614 11.4656H19.5629L22.0127 5.20838H22.725L25.1689 11.4656H24.3503ZM23.3591 8.83949L22.6548 6.95115L22.3538 6.01795C22.2676 6.35893 22.1773 6.67 22.083 6.95115L21.3707 8.83949H23.3591ZM31.0016 11.4656H30.0787L26.7199 6.29113H26.6858L26.7078 6.6361C26.742 7.15255 26.76 7.6032 26.76 7.98206V11.4656H26.0317V5.2343H26.9446L27.1372 5.53739L29.1958 8.69991L30.2894 10.3928H30.3235C30.3174 10.325 30.3054 10.0818 30.2894 9.66102C30.2713 9.24228 30.2633 8.93919 30.2633 8.75175V5.2343H31.0016V11.4656ZM37.7533 11.4656L35.6867 6.002H35.6526C35.6947 6.45664 35.7168 7.01696 35.7168 7.68495V11.4656H34.9885V5.2343H36.1542L38.0884 10.341H38.1225L40.0909 5.2343H41.2486V11.4656H40.4681V7.63311C40.4681 7.20639 40.4881 6.66601 40.5283 6.00998H40.4942L38.4014 11.4656H37.7533ZM46.4593 11.4656H42.9561V5.2343H46.4593V5.92423H43.7446V7.8684H46.3008V8.55036H43.7446V10.7757H46.4593V11.4656Z" fill="white"/>
</svg>
