<svg width="30" height="30" viewBox="0 0 30 30" fill="none" xmlns="http://www.w3.org/2000/svg">
<path d="M24.9291 6.89893C24.7462 6.79123 24.5212 6.78374 24.3316 6.87895C24.1423 6.9744 24.0142 7.15938 23.9916 7.3702C23.9691 7.57522 23.9341 7.78018 23.8903 7.99522C22.6666 13.549 20.2091 16.2502 16.3753 16.2502H10.7503C10.4537 16.2507 10.1984 16.4596 10.1391 16.7502L8.2641 25.5389L7.92912 27.7764C7.73653 28.7939 8.4052 29.7749 9.42262 29.9675C9.53482 29.9887 9.64867 29.9997 9.76287 30.0002H13.5253C14.3877 30.0028 15.1396 29.4143 15.3441 28.5764L16.8641 22.5002H20.1253C23.974 22.5002 26.6341 19.4315 27.6153 13.859C28.263 11.2055 27.1914 8.42922 24.9291 6.89893Z" fill="#03A9F4"/>
<path d="M23.7503 2.22754C22.5153 0.826626 20.7429 0.0167447 18.8753 4.55173e-05H8.52532C6.9764 -0.00827478 5.65769 1.12498 5.43286 2.6575L2.21912 24.0962C2.06519 25.1203 2.77049 26.0752 3.79453 26.2291C3.88746 26.2431 3.98138 26.2501 4.07537 26.25H8.87536C9.17196 26.2495 9.42731 26.0406 9.48661 25.75L11.2554 17.5H16.3804C20.8279 17.5 23.7666 14.3913 25.1166 8.25003C25.1709 8.00523 25.2126 7.75784 25.2416 7.50876C25.555 5.61414 25.0084 3.67838 23.7503 2.22754Z" fill="#283593"/>
</svg>
