<svg width="30" height="30" viewBox="0 0 30 30" fill="none" xmlns="http://www.w3.org/2000/svg">
<path d="M29.235 11.6062C28.6012 11.3363 25.8844 11.6362 25.1306 10.9556C24.5981 10.4644 24.5644 9.57562 24.3562 8.39062C24.0075 6.405 23.8631 5.955 23.5013 5.17313C22.1831 2.38688 19.0256 0 16.1569 0H9.50625C4.275 0 0 4.26938 0 9.48188V20.5369C0 25.74 4.275 30 9.50625 30H20.4319C25.6631 30 29.91 25.74 29.94 20.5369L30 12.8812C30 12.8812 30 11.9344 29.235 11.6062ZM9.62625 7.74937H14.8988C15.9038 7.74937 16.7194 8.56125 16.7194 9.55312C16.7194 10.5469 15.9038 11.3663 14.8988 11.3663H9.62625C8.62125 11.3663 7.80562 10.545 7.80562 9.55312C7.80562 8.55937 8.62125 7.74937 9.62625 7.74937ZM20.3419 22.2019H9.62625C8.62125 22.2019 7.80562 21.3806 7.80562 20.3981C7.80562 19.4062 8.62125 18.5944 9.62625 18.5944H20.3419C21.3375 18.5944 22.1531 19.4062 22.1531 20.3981C22.1531 21.3806 21.3375 22.2019 20.3419 22.2019Z" fill="#FF7043"/>
</svg>
