<svg width="30" height="30" viewBox="0 0 30 30" fill="none" xmlns="http://www.w3.org/2000/svg">
<path d="M14.9981 0.312012C6.71625 0.312012 0 7.05451 0 15.372C0 22.0245 4.2975 27.6683 10.26 29.6614C11.01 29.8001 11.2838 29.3351 11.2838 28.9358C11.2838 28.5776 11.2706 27.6308 11.2631 26.3745C7.09125 27.2839 6.21 24.3551 6.21 24.3551C5.52938 22.6151 4.545 22.152 4.545 22.152C3.18187 21.2183 4.64625 21.237 4.64625 21.237C6.15188 21.3439 6.94313 22.7895 6.94313 22.7895C8.28187 25.0901 10.455 24.4264 11.31 24.0401C11.445 23.067 11.8331 22.4033 12.2625 22.0264C8.9325 21.6458 5.43 20.3539 5.43 14.5845C5.43 12.9401 6.015 11.5958 6.975 10.542C6.81938 10.1614 6.30562 8.62951 7.12125 6.55764C7.12125 6.55764 8.38125 6.15264 11.2463 8.10076C12.4425 7.76701 13.725 7.60014 15.0019 7.59451C16.275 7.60201 17.5594 7.76701 18.7575 8.10264C21.6206 6.15451 22.8787 6.55951 22.8787 6.55951C23.6962 8.63326 23.1825 10.1633 23.0287 10.5439C23.9906 11.5976 24.57 12.942 24.57 14.5864C24.57 20.3708 21.0637 21.6439 17.7225 22.017C18.2606 22.482 18.7406 23.4008 18.7406 24.8051C18.7406 26.8189 18.7219 28.4426 18.7219 28.9358C18.7219 29.3389 18.9919 29.8076 19.7531 29.6595C25.7062 27.6645 30 22.0226 30 15.372C30 7.05451 23.2838 0.312012 14.9981 0.312012Z" fill="#5C6BC0"/>
</svg>
