<svg width="30" height="30" viewBox="0 0 30 30" fill="none" xmlns="http://www.w3.org/2000/svg">
<path d="M15.4079 0C7.18565 0 2.81296 5.26899 2.81296 11.0142C2.81296 13.6787 4.30177 17.0014 6.68501 18.0552C7.0469 18.2183 7.24378 18.1489 7.32441 17.8133C7.39566 17.5583 7.7088 16.3301 7.86068 15.7507C7.90756 15.5651 7.88319 15.4038 7.73318 15.2294C6.94189 14.3144 6.31374 12.6474 6.31374 11.0836C6.31374 7.07657 9.49951 3.18577 14.9204 3.18577C19.6081 3.18577 22.8876 6.23091 22.8876 10.5867C22.8876 15.5088 20.2831 18.914 16.8986 18.914C15.0254 18.914 13.6303 17.4439 14.0728 15.6251C14.6072 13.4594 15.6554 11.1305 15.6554 9.56856C15.6554 8.16787 14.8641 7.00906 13.2478 7.00906C11.3408 7.00906 9.7939 8.89727 9.7939 11.4324C9.7939 13.0431 10.3639 14.1306 10.3639 14.1306C10.3639 14.1306 8.47759 21.751 8.12695 23.1742C7.53442 25.5837 8.20758 29.4857 8.2657 29.8213C8.30133 30.007 8.50946 30.0651 8.62572 29.9132C8.81135 29.6695 11.0915 26.4162 11.7309 24.0648C11.9634 23.2079 12.9178 19.7334 12.9178 19.7334C13.5459 20.8678 15.3591 21.8185 17.2905 21.8185C23.0357 21.8185 27.1872 16.7689 27.1872 10.5023C27.1666 4.49458 22.0251 0 15.4079 0Z" fill="#D32F2F"/>
</svg>
