<svg width="288" height="65" viewBox="0 0 288 65" fill="none" xmlns="http://www.w3.org/2000/svg">
<g clip-path="url(#clip0)">
<path d="M52.7433 58.3414H12.2582C9.16632 58.3414 6.66016 55.8352 6.66016 52.7433V12.2582C6.66016 9.16632 9.16632 6.66016 12.2582 6.66016H52.7433C55.8352 6.66016 58.3414 9.16632 58.3414 12.2582V52.7433C58.3414 55.8352 55.8352 58.3414 52.7433 58.3414Z" fill="#0469FF"/>
<path d="M61.768 47.3663L25.0759 64.475C22.2746 65.7813 18.943 64.5694 17.6368 61.7667L0.526524 25.076C-0.779738 22.2747 0.43215 18.9431 3.23492 17.6369L39.9256 0.526646C42.7269 -0.779616 46.0584 0.432272 47.3647 3.23504L64.4749 39.9257C65.7827 42.7285 64.5693 46.0586 61.768 47.3663Z" fill="#0469FF"/>
<path d="M48.459 52.8737H16.541C14.1037 52.8737 12.1279 50.8978 12.1279 48.4606V16.5411C12.1279 14.1038 14.1037 12.1279 16.541 12.1279H48.4605C50.8978 12.1279 52.8736 14.1038 52.8736 16.5411V48.4606C52.8736 50.8978 50.8978 52.8737 48.459 52.8737Z" fill="white"/>
<path d="M43.2969 46.2823H21.7046C20.0553 46.2823 18.7191 44.9461 18.7191 43.2968V21.7045C18.7191 20.0552 20.0553 18.719 21.7046 18.719H43.2969C44.9462 18.719 46.2824 20.0552 46.2824 21.7045V43.2968C46.2824 44.9446 44.9447 46.2823 43.2969 46.2823Z" fill="#0469FF"/>
</g>
<path d="M95.816 24.1C95.816 26.356 95.352 28.212 94.424 29.668C93.496 31.108 92.176 32.044 90.464 32.476C91.856 32.94 93.568 33.204 95.6 33.268L95.072 35.62C93.504 35.54 91.872 35.196 90.176 34.588C88.48 33.98 87.168 33.292 86.24 32.524C84.496 32.108 83.144 31.172 82.184 29.716C81.224 28.244 80.744 26.372 80.744 24.1C80.744 22.308 81.04 20.764 81.632 19.468C82.24 18.172 83.112 17.18 84.248 16.492C85.384 15.804 86.728 15.46 88.28 15.46C89.848 15.46 91.192 15.804 92.312 16.492C93.448 17.18 94.312 18.172 94.904 19.468C95.512 20.764 95.816 22.308 95.816 24.1ZM84.2 24.1C84.2 25.94 84.56 27.388 85.28 28.444C86.016 29.484 87.016 30.004 88.28 30.004C89.56 30.004 90.56 29.484 91.28 28.444C92.016 27.388 92.384 25.94 92.384 24.1C92.384 22.26 92.016 20.82 91.28 19.78C90.56 18.724 89.56 18.196 88.28 18.196C87.016 18.196 86.016 18.724 85.28 19.78C84.56 20.82 84.2 22.26 84.2 24.1ZM98.2023 15.7H104.13C106.034 15.7 107.458 16.092 108.402 16.876C109.346 17.644 109.818 18.812 109.818 20.38C109.818 21.484 109.586 22.428 109.122 23.212C108.658 23.996 107.986 24.564 107.106 24.916V24.964C107.41 25.188 107.642 25.404 107.802 25.612C107.978 25.804 108.122 26.028 108.234 26.284L110.706 32.5H107.034L105.114 27.388C104.922 26.876 104.674 26.54 104.37 26.38C104.066 26.204 103.538 26.116 102.786 26.116H101.658V32.5H98.2023V15.7ZM103.77 23.38C104.65 23.38 105.314 23.164 105.762 22.732C106.226 22.284 106.458 21.636 106.458 20.788C106.458 19.236 105.546 18.46 103.722 18.46H101.658V23.38H103.77ZM124.989 32.74C123.421 32.74 122.045 32.388 120.861 31.684C119.693 30.98 118.789 29.98 118.149 28.684C117.525 27.372 117.213 25.844 117.213 24.1C117.213 22.356 117.525 20.836 118.149 19.54C118.789 18.228 119.693 17.22 120.861 16.516C122.045 15.812 123.429 15.46 125.013 15.46C126.357 15.46 127.525 15.716 128.517 16.228C129.525 16.74 130.269 17.468 130.749 18.412L128.781 20.14C127.933 18.86 126.693 18.22 125.061 18.22C123.637 18.22 122.549 18.724 121.797 19.732C121.045 20.724 120.669 22.18 120.669 24.1C120.669 26.004 121.037 27.46 121.773 28.468C122.509 29.476 123.573 29.98 124.965 29.98C126.693 29.98 127.965 29.34 128.781 28.06L130.749 29.788C130.269 30.732 129.525 31.46 128.517 31.972C127.525 32.484 126.349 32.74 124.989 32.74ZM138.288 32.74C136.352 32.74 134.84 32.188 133.752 31.084C132.664 29.98 132.12 28.452 132.12 26.5C132.12 24.548 132.664 23.02 133.752 21.916C134.84 20.812 136.352 20.26 138.288 20.26C140.224 20.26 141.736 20.812 142.824 21.916C143.928 23.02 144.48 24.548 144.48 26.5C144.48 28.452 143.928 29.98 142.824 31.084C141.736 32.188 140.224 32.74 138.288 32.74ZM138.288 30.46C139.264 30.46 140.032 30.108 140.592 29.404C141.152 28.7 141.432 27.732 141.432 26.5C141.432 25.268 141.152 24.3 140.592 23.596C140.032 22.892 139.264 22.54 138.288 22.54C137.312 22.54 136.544 22.892 135.984 23.596C135.44 24.3 135.168 25.268 135.168 26.5C135.168 27.732 135.44 28.7 135.984 29.404C136.544 30.108 137.312 30.46 138.288 30.46ZM150.962 32.74C149.394 32.74 148.154 32.172 147.242 31.036C146.346 29.884 145.898 28.308 145.898 26.308C145.898 25.092 146.106 24.028 146.522 23.116C146.938 22.204 147.53 21.5 148.298 21.004C149.082 20.508 149.994 20.26 151.034 20.26C151.738 20.26 152.354 20.38 152.882 20.62C153.426 20.86 153.898 21.228 154.298 21.724H154.346V14.692H157.394V29.308C157.394 30.972 157.418 32.036 157.466 32.5H154.586C154.57 32.228 154.562 31.7 154.562 30.916H154.514C154.146 31.46 153.634 31.9 152.978 32.236C152.338 32.572 151.666 32.74 150.962 32.74ZM151.562 30.388C152.41 30.388 153.082 30.148 153.578 29.668C154.09 29.172 154.346 28.524 154.346 27.724V25.252C154.346 24.468 154.082 23.82 153.554 23.308C153.026 22.796 152.362 22.54 151.562 22.54C150.714 22.54 150.066 22.868 149.618 23.524C149.17 24.18 148.946 25.124 148.946 26.356C148.946 27.652 149.17 28.652 149.618 29.356C150.066 30.044 150.714 30.388 151.562 30.388ZM170.897 27.628H162.545C162.801 29.324 163.785 30.172 165.497 30.172C166.201 30.172 166.809 30.052 167.321 29.812C167.849 29.572 168.361 29.172 168.857 28.612L170.513 30.196C170.049 30.964 169.345 31.58 168.401 32.044C167.473 32.508 166.449 32.74 165.329 32.74C163.457 32.74 162.001 32.196 160.961 31.108C159.921 30.004 159.401 28.484 159.401 26.548C159.401 24.596 159.921 23.06 160.961 21.94C162.017 20.82 163.465 20.26 165.305 20.26C167.065 20.26 168.433 20.812 169.409 21.916C170.401 23.02 170.897 24.556 170.897 26.524V27.628ZM167.897 25.396C167.897 24.58 167.657 23.94 167.177 23.476C166.713 22.996 166.065 22.756 165.233 22.756C164.481 22.756 163.873 23.004 163.409 23.5C162.945 23.98 162.649 24.66 162.521 25.54H167.897V25.396ZM191.738 23.38V32.5H189.122L188.81 31.564C187.722 32.348 186.458 32.74 185.018 32.74C182.794 32.74 181.066 31.98 179.834 30.46C178.602 28.94 177.986 26.82 177.986 24.1C177.986 22.356 178.306 20.836 178.946 19.54C179.586 18.228 180.49 17.22 181.658 16.516C182.826 15.812 184.194 15.46 185.762 15.46C187.122 15.46 188.306 15.724 189.314 16.252C190.338 16.764 191.082 17.484 191.546 18.412L189.578 20.14C189.178 19.516 188.65 19.044 187.994 18.724C187.354 18.388 186.618 18.22 185.786 18.22C184.378 18.22 183.298 18.724 182.546 19.732C181.81 20.74 181.442 22.196 181.442 24.1C181.442 26.1 181.786 27.62 182.474 28.66C183.162 29.684 184.162 30.196 185.474 30.196C186.53 30.196 187.482 29.94 188.33 29.428V25.828H184.682V23.38H191.738ZM205.186 27.628H196.834C197.09 29.324 198.074 30.172 199.786 30.172C200.49 30.172 201.098 30.052 201.61 29.812C202.138 29.572 202.65 29.172 203.146 28.612L204.802 30.196C204.338 30.964 203.634 31.58 202.69 32.044C201.762 32.508 200.738 32.74 199.618 32.74C197.746 32.74 196.29 32.196 195.25 31.108C194.21 30.004 193.69 28.484 193.69 26.548C193.69 24.596 194.21 23.06 195.25 21.94C196.306 20.82 197.754 20.26 199.594 20.26C201.354 20.26 202.722 20.812 203.698 21.916C204.69 23.02 205.186 24.556 205.186 26.524V27.628ZM202.186 25.396C202.186 24.58 201.946 23.94 201.466 23.476C201.002 22.996 200.354 22.756 199.522 22.756C198.77 22.756 198.162 23.004 197.698 23.5C197.234 23.98 196.938 24.66 196.81 25.54H202.186V25.396ZM207.058 23.668C207.058 22.212 207.026 21.156 206.962 20.5H209.842C209.922 21.172 209.962 21.868 209.962 22.588H210.034C210.322 21.884 210.826 21.324 211.546 20.908C212.282 20.476 213.098 20.26 213.994 20.26C215.37 20.26 216.41 20.724 217.114 21.652C217.818 22.58 218.17 23.948 218.17 25.756V32.5H215.122V25.732C215.122 24.692 214.954 23.932 214.618 23.452C214.282 22.972 213.746 22.732 213.01 22.732C212.162 22.732 211.466 23.036 210.922 23.644C210.394 24.236 210.13 25.004 210.13 25.948V32.5H207.058V23.668ZM231.717 27.628H223.365C223.621 29.324 224.605 30.172 226.317 30.172C227.021 30.172 227.629 30.052 228.141 29.812C228.669 29.572 229.181 29.172 229.677 28.612L231.333 30.196C230.869 30.964 230.165 31.58 229.221 32.044C228.293 32.508 227.269 32.74 226.149 32.74C224.277 32.74 222.821 32.196 221.781 31.108C220.741 30.004 220.221 28.484 220.221 26.548C220.221 24.596 220.741 23.06 221.781 21.94C222.837 20.82 224.285 20.26 226.125 20.26C227.885 20.26 229.253 20.812 230.229 21.916C231.221 23.02 231.717 24.556 231.717 26.524V27.628ZM228.717 25.396C228.717 24.58 228.477 23.94 227.997 23.476C227.533 22.996 226.885 22.756 226.053 22.756C225.301 22.756 224.693 23.004 224.229 23.5C223.765 23.98 223.469 24.66 223.341 25.54H228.717V25.396ZM233.757 23.428C233.757 22.068 233.733 21.092 233.685 20.5H236.589C236.653 21.124 236.685 21.828 236.685 22.612V22.852H236.781C237.085 22.068 237.621 21.444 238.389 20.98C239.157 20.5 240.037 20.26 241.029 20.26C241.221 20.26 241.461 20.284 241.749 20.332V22.756C241.685 22.724 241.493 22.708 241.173 22.708C240.405 22.708 239.685 22.916 239.013 23.332C238.357 23.748 237.829 24.308 237.429 25.012C237.029 25.7 236.829 26.444 236.829 27.244V32.5H233.757V23.428ZM246.824 32.74C246.04 32.74 245.336 32.58 244.712 32.26C244.088 31.924 243.6 31.468 243.248 30.892C242.896 30.3 242.72 29.644 242.72 28.924C242.72 27.692 243.208 26.748 244.184 26.092C245.16 25.436 246.552 25.108 248.36 25.108H250.232V24.604C250.232 23.964 250.04 23.476 249.656 23.14C249.288 22.788 248.76 22.612 248.072 22.612C247.352 22.612 246.664 22.74 246.008 22.996C245.352 23.252 244.816 23.604 244.4 24.052L243.056 22.276C243.712 21.652 244.488 21.164 245.384 20.812C246.28 20.444 247.208 20.26 248.168 20.26C249.768 20.26 251.024 20.636 251.936 21.388C252.848 22.14 253.304 23.18 253.304 24.508V29.98C253.304 30.348 253.328 30.78 253.376 31.276C253.44 31.772 253.512 32.18 253.592 32.5H250.88C250.784 32.292 250.712 32.092 250.664 31.9C250.616 31.692 250.576 31.412 250.544 31.06H250.496C249.584 32.18 248.36 32.74 246.824 32.74ZM247.568 30.436C248.336 30.436 248.968 30.244 249.464 29.86C249.976 29.46 250.232 28.956 250.232 28.348V27.148H248.264C247.448 27.148 246.816 27.3 246.368 27.604C245.936 27.908 245.72 28.348 245.72 28.924C245.72 29.404 245.88 29.78 246.2 30.052C246.536 30.308 246.992 30.436 247.568 30.436ZM261.087 32.74C259.855 32.74 258.895 32.404 258.207 31.732C257.519 31.06 257.175 30.116 257.175 28.9V22.78H254.991V20.5H257.175V17.404L260.151 16.54H260.247V20.5H263.727V22.78H260.247V28.444C260.247 29.132 260.407 29.636 260.727 29.956C261.047 30.276 261.535 30.436 262.191 30.436C262.815 30.436 263.399 30.34 263.943 30.148L264.087 32.236C263.367 32.572 262.367 32.74 261.087 32.74ZM270.991 32.74C269.055 32.74 267.543 32.188 266.455 31.084C265.367 29.98 264.823 28.452 264.823 26.5C264.823 24.548 265.367 23.02 266.455 21.916C267.543 20.812 269.055 20.26 270.991 20.26C272.927 20.26 274.439 20.812 275.527 21.916C276.631 23.02 277.183 24.548 277.183 26.5C277.183 28.452 276.631 29.98 275.527 31.084C274.439 32.188 272.927 32.74 270.991 32.74ZM270.991 30.46C271.967 30.46 272.735 30.108 273.295 29.404C273.855 28.7 274.135 27.732 274.135 26.5C274.135 25.268 273.855 24.3 273.295 23.596C272.735 22.892 271.967 22.54 270.991 22.54C270.015 22.54 269.247 22.892 268.687 23.596C268.143 24.3 267.871 25.268 267.871 26.5C267.871 27.732 268.143 28.7 268.687 29.404C269.247 30.108 270.015 30.46 270.991 30.46ZM279.249 23.428C279.249 22.068 279.225 21.092 279.177 20.5H282.081C282.145 21.124 282.177 21.828 282.177 22.612V22.852H282.273C282.577 22.068 283.113 21.444 283.881 20.98C284.649 20.5 285.529 20.26 286.521 20.26C286.713 20.26 286.953 20.284 287.241 20.332V22.756C287.177 22.724 286.985 22.708 286.665 22.708C285.897 22.708 285.177 22.916 284.505 23.332C283.849 23.748 283.321 24.308 282.921 25.012C282.521 25.7 282.321 26.444 282.321 27.244V32.5H279.249V23.428Z" fill="#3C3C3C"/>
<path d="M84.032 55.62C83.296 55.62 82.656 55.444 82.112 55.092C81.568 54.74 81.148 54.24 80.852 53.592C80.556 52.944 80.408 52.18 80.408 51.3C80.408 50.42 80.556 49.656 80.852 49.008C81.156 48.36 81.584 47.86 82.136 47.508C82.688 47.156 83.336 46.98 84.08 46.98C84.672 46.98 85.2 47.096 85.664 47.328C86.128 47.56 86.472 47.88 86.696 48.288L86.072 48.9C85.632 48.228 84.972 47.892 84.092 47.892C83.284 47.892 82.652 48.192 82.196 48.792C81.748 49.384 81.524 50.22 81.524 51.3C81.524 52.372 81.744 53.208 82.184 53.808C82.632 54.408 83.248 54.708 84.032 54.708C84.512 54.708 84.916 54.628 85.244 54.468C85.58 54.3 85.856 54.044 86.072 53.7L86.696 54.312C86.464 54.728 86.116 55.052 85.652 55.284C85.188 55.508 84.648 55.62 84.032 55.62ZM87.9915 47.1H90.5715C91.4835 47.1 92.1635 47.288 92.6115 47.664C93.0595 48.032 93.2835 48.592 93.2835 49.344C93.2835 49.904 93.1435 50.38 92.8635 50.772C92.5835 51.156 92.1955 51.416 91.6995 51.552V51.576C91.8675 51.688 92.0035 51.808 92.1075 51.936C92.2115 52.056 92.2995 52.204 92.3715 52.38L93.6315 55.5H92.4435L91.3875 52.788C91.2515 52.436 91.0875 52.2 90.8955 52.08C90.7035 51.96 90.4035 51.9 89.9955 51.9H89.0955V55.5H87.9915V47.1ZM90.5115 51C91.6555 51 92.2275 50.472 92.2275 49.416C92.2275 48.944 92.0835 48.592 91.7955 48.36C91.5075 48.128 91.0675 48.012 90.4755 48.012H89.0955V51H90.5115ZM94.9642 47.1H100.004V48.012H96.0682V50.628H99.5842V51.54H96.0682V54.588H100.004V55.5H94.9642V47.1ZM105.821 53.688H102.557L101.993 55.5H100.817L103.673 47.1H104.705L107.561 55.5H106.385L105.821 53.688ZM105.533 52.788L104.189 48.48L102.845 52.788H105.533ZM109.843 47.964H107.251V47.1H113.527V47.964H110.947V55.5H109.843V47.964ZM114.71 47.1H119.75V48.012H115.814V50.628H119.33V51.54H115.814V54.588H119.75V55.5H114.71V47.1ZM126.157 52.164L123.481 47.1H124.705L126.709 51.108L128.713 47.1H129.937L127.273 52.164V55.5H126.157V52.164ZM133.648 55.62C132.92 55.62 132.288 55.448 131.752 55.104C131.216 54.752 130.804 54.252 130.516 53.604C130.228 52.948 130.084 52.18 130.084 51.3C130.084 50.42 130.228 49.656 130.516 49.008C130.804 48.352 131.216 47.852 131.752 47.508C132.288 47.156 132.92 46.98 133.648 46.98C134.376 46.98 135.004 47.156 135.532 47.508C136.068 47.852 136.48 48.352 136.768 49.008C137.056 49.656 137.2 50.42 137.2 51.3C137.2 52.18 137.056 52.948 136.768 53.604C136.48 54.252 136.068 54.752 135.532 55.104C135.004 55.448 134.376 55.62 133.648 55.62ZM133.648 54.732C134.144 54.732 134.576 54.592 134.944 54.312C135.32 54.032 135.604 53.636 135.796 53.124C135.996 52.604 136.096 51.996 136.096 51.3C136.096 50.604 135.996 50 135.796 49.488C135.604 48.968 135.32 48.568 134.944 48.288C134.576 48.008 134.144 47.868 133.648 47.868C133.144 47.868 132.708 48.008 132.34 48.288C131.972 48.568 131.688 48.968 131.488 49.488C131.288 50 131.188 50.604 131.188 51.3C131.188 51.996 131.288 52.604 131.488 53.124C131.688 53.636 131.972 54.032 132.34 54.312C132.708 54.592 133.144 54.732 133.648 54.732ZM141.557 55.62C140.557 55.62 139.801 55.336 139.289 54.768C138.785 54.192 138.533 53.34 138.533 52.212V47.1H139.649V52.188C139.649 53.868 140.285 54.708 141.557 54.708C142.829 54.708 143.465 53.868 143.465 52.188V47.1H144.569V52.212C144.569 53.332 144.313 54.18 143.801 54.756C143.297 55.332 142.549 55.62 141.557 55.62ZM146.468 47.1H149.048C149.96 47.1 150.64 47.288 151.088 47.664C151.536 48.032 151.76 48.592 151.76 49.344C151.76 49.904 151.62 50.38 151.34 50.772C151.06 51.156 150.672 51.416 150.176 51.552V51.576C150.344 51.688 150.48 51.808 150.584 51.936C150.688 52.056 150.776 52.204 150.848 52.38L152.108 55.5H150.92L149.864 52.788C149.728 52.436 149.564 52.2 149.372 52.08C149.18 51.96 148.88 51.9 148.472 51.9H147.572V55.5H146.468V47.1ZM148.988 51C150.132 51 150.704 50.472 150.704 49.416C150.704 48.944 150.56 48.592 150.272 48.36C149.984 48.128 149.544 48.012 148.952 48.012H147.572V51H148.988ZM162.911 51.3C162.911 52.428 162.679 53.36 162.215 54.096C161.751 54.832 161.107 55.304 160.283 55.512C160.899 55.752 161.703 55.932 162.695 56.052L162.515 56.832C161.859 56.76 161.203 56.608 160.547 56.376C159.899 56.152 159.327 55.888 158.831 55.584C157.887 55.464 157.143 55.028 156.599 54.276C156.063 53.516 155.795 52.524 155.795 51.3C155.795 50.42 155.939 49.656 156.227 49.008C156.515 48.352 156.927 47.852 157.463 47.508C157.999 47.156 158.631 46.98 159.359 46.98C160.087 46.98 160.715 47.156 161.243 47.508C161.779 47.852 162.191 48.352 162.479 49.008C162.767 49.656 162.911 50.42 162.911 51.3ZM156.899 51.3C156.899 51.996 156.999 52.604 157.199 53.124C157.399 53.636 157.683 54.032 158.051 54.312C158.419 54.592 158.855 54.732 159.359 54.732C159.855 54.732 160.287 54.592 160.655 54.312C161.031 54.032 161.315 53.636 161.507 53.124C161.707 52.604 161.807 51.996 161.807 51.3C161.807 50.604 161.707 50 161.507 49.488C161.315 48.968 161.031 48.568 160.655 48.288C160.287 48.008 159.855 47.868 159.359 47.868C158.855 47.868 158.419 48.008 158.051 48.288C157.683 48.568 157.399 48.968 157.199 49.488C156.999 50 156.899 50.604 156.899 51.3ZM164.292 47.1H166.872C167.784 47.1 168.464 47.288 168.912 47.664C169.36 48.032 169.584 48.592 169.584 49.344C169.584 49.904 169.444 50.38 169.164 50.772C168.884 51.156 168.496 51.416 168 51.552V51.576C168.168 51.688 168.304 51.808 168.408 51.936C168.512 52.056 168.6 52.204 168.672 52.38L169.932 55.5H168.744L167.688 52.788C167.552 52.436 167.388 52.2 167.196 52.08C167.004 51.96 166.704 51.9 166.296 51.9H165.396V55.5H164.292V47.1ZM166.812 51C167.956 51 168.528 50.472 168.528 49.416C168.528 48.944 168.384 48.592 168.096 48.36C167.808 48.128 167.368 48.012 166.776 48.012H165.396V51H166.812ZM177.243 55.62C176.507 55.62 175.867 55.444 175.323 55.092C174.779 54.74 174.359 54.24 174.063 53.592C173.767 52.944 173.619 52.18 173.619 51.3C173.619 50.42 173.767 49.656 174.063 49.008C174.367 48.36 174.795 47.86 175.347 47.508C175.899 47.156 176.547 46.98 177.291 46.98C177.883 46.98 178.411 47.096 178.875 47.328C179.339 47.56 179.683 47.88 179.907 48.288L179.283 48.9C178.843 48.228 178.183 47.892 177.303 47.892C176.495 47.892 175.863 48.192 175.407 48.792C174.959 49.384 174.735 50.22 174.735 51.3C174.735 52.372 174.955 53.208 175.395 53.808C175.843 54.408 176.459 54.708 177.243 54.708C177.723 54.708 178.127 54.628 178.455 54.468C178.791 54.3 179.067 54.044 179.283 53.7L179.907 54.312C179.675 54.728 179.327 55.052 178.863 55.284C178.399 55.508 177.859 55.62 177.243 55.62ZM184.202 55.62C183.474 55.62 182.842 55.448 182.306 55.104C181.77 54.752 181.358 54.252 181.07 53.604C180.782 52.948 180.638 52.18 180.638 51.3C180.638 50.42 180.782 49.656 181.07 49.008C181.358 48.352 181.77 47.852 182.306 47.508C182.842 47.156 183.474 46.98 184.202 46.98C184.93 46.98 185.558 47.156 186.086 47.508C186.622 47.852 187.034 48.352 187.322 49.008C187.61 49.656 187.754 50.42 187.754 51.3C187.754 52.18 187.61 52.948 187.322 53.604C187.034 54.252 186.622 54.752 186.086 55.104C185.558 55.448 184.93 55.62 184.202 55.62ZM184.202 54.732C184.698 54.732 185.13 54.592 185.498 54.312C185.874 54.032 186.158 53.636 186.35 53.124C186.55 52.604 186.65 51.996 186.65 51.3C186.65 50.604 186.55 50 186.35 49.488C186.158 48.968 185.874 48.568 185.498 48.288C185.13 48.008 184.698 47.868 184.202 47.868C183.698 47.868 183.262 48.008 182.894 48.288C182.526 48.568 182.242 48.968 182.042 49.488C181.842 50 181.742 50.604 181.742 51.3C181.742 51.996 181.842 52.604 182.042 53.124C182.242 53.636 182.526 54.032 182.894 54.312C183.262 54.592 183.698 54.732 184.202 54.732ZM189.136 47.1H191.8C192.896 47.1 193.72 47.44 194.272 48.12C194.832 48.8 195.112 49.804 195.112 51.132C195.112 52.172 194.988 53.012 194.74 53.652C194.492 54.284 194.1 54.752 193.564 55.056C193.036 55.352 192.336 55.5 191.464 55.5H189.136V47.1ZM191.656 54.588C192.472 54.588 193.068 54.312 193.444 53.76C193.82 53.208 194.008 52.332 194.008 51.132C194.008 50.068 193.824 49.284 193.456 48.78C193.088 48.268 192.52 48.012 191.752 48.012H190.24V54.588H191.656ZM196.613 47.1H201.653V48.012H197.717V50.628H201.233V51.54H197.717V54.588H201.653V55.5H196.613V47.1ZM206.152 47.1H211.252V48.012H207.256V50.964H210.988V51.876H207.256V55.5H206.152V47.1ZM215.749 55.62C215.021 55.62 214.389 55.448 213.853 55.104C213.317 54.752 212.905 54.252 212.617 53.604C212.329 52.948 212.185 52.18 212.185 51.3C212.185 50.42 212.329 49.656 212.617 49.008C212.905 48.352 213.317 47.852 213.853 47.508C214.389 47.156 215.021 46.98 215.749 46.98C216.477 46.98 217.105 47.156 217.633 47.508C218.169 47.852 218.581 48.352 218.869 49.008C219.157 49.656 219.301 50.42 219.301 51.3C219.301 52.18 219.157 52.948 218.869 53.604C218.581 54.252 218.169 54.752 217.633 55.104C217.105 55.448 216.477 55.62 215.749 55.62ZM215.749 54.732C216.245 54.732 216.677 54.592 217.045 54.312C217.421 54.032 217.705 53.636 217.897 53.124C218.097 52.604 218.197 51.996 218.197 51.3C218.197 50.604 218.097 50 217.897 49.488C217.705 48.968 217.421 48.568 217.045 48.288C216.677 48.008 216.245 47.868 215.749 47.868C215.245 47.868 214.809 48.008 214.441 48.288C214.073 48.568 213.789 48.968 213.589 49.488C213.389 50 213.289 50.604 213.289 51.3C213.289 51.996 213.389 52.604 213.589 53.124C213.789 53.636 214.073 54.032 214.441 54.312C214.809 54.592 215.245 54.732 215.749 54.732ZM220.683 47.1H223.263C224.175 47.1 224.855 47.288 225.303 47.664C225.751 48.032 225.975 48.592 225.975 49.344C225.975 49.904 225.835 50.38 225.555 50.772C225.275 51.156 224.887 51.416 224.391 51.552V51.576C224.559 51.688 224.695 51.808 224.799 51.936C224.903 52.056 224.991 52.204 225.063 52.38L226.323 55.5H225.135L224.079 52.788C223.943 52.436 223.779 52.2 223.587 52.08C223.395 51.96 223.095 51.9 222.687 51.9H221.787V55.5H220.683V47.1ZM223.203 51C224.347 51 224.919 50.472 224.919 49.416C224.919 48.944 224.775 48.592 224.487 48.36C224.199 48.128 223.759 48.012 223.167 48.012H221.787V51H223.203ZM230.574 47.1H235.674V48.012H231.678V50.964H235.41V51.876H231.678V55.5H230.574V47.1ZM237.171 47.1H239.751C240.663 47.1 241.343 47.288 241.791 47.664C242.239 48.032 242.463 48.592 242.463 49.344C242.463 49.904 242.323 50.38 242.043 50.772C241.763 51.156 241.375 51.416 240.879 51.552V51.576C241.047 51.688 241.183 51.808 241.287 51.936C241.391 52.056 241.479 52.204 241.551 52.38L242.811 55.5H241.623L240.567 52.788C240.431 52.436 240.267 52.2 240.075 52.08C239.883 51.96 239.583 51.9 239.175 51.9H238.275V55.5H237.171V47.1ZM239.691 51C240.835 51 241.407 50.472 241.407 49.416C241.407 48.944 241.263 48.592 240.975 48.36C240.687 48.128 240.247 48.012 239.655 48.012H238.275V51H239.691ZM244.144 47.1H249.184V48.012H245.248V50.628H248.764V51.54H245.248V54.588H249.184V55.5H244.144V47.1ZM250.765 47.1H255.805V48.012H251.869V50.628H255.385V51.54H251.869V54.588H255.805V55.5H250.765V47.1Z" fill="#3C3C3C"/>
<defs>
<clipPath id="clip0">
<rect width="65" height="65" fill="white"/>
</clipPath>
</defs>
</svg>
