<svg width="30" height="30" viewBox="0 0 30 30" fill="none" xmlns="http://www.w3.org/2000/svg">
<path d="M29.4675 15.1556C29.4675 7.365 23.0625 1.04813 15.1594 1.04813C14.3269 1.04813 13.5094 1.11938 12.7125 1.25438C11.4338 0.46125 9.92063 0 8.29875 0C3.71438 0 0 3.66187 0 8.1825C0 9.69187 0.41625 11.1038 1.14 12.3206C0.950625 13.2356 0.849375 14.1863 0.849375 15.1556C0.849375 22.9481 7.25625 29.265 15.1575 29.265C16.0537 29.265 16.9275 29.1825 17.7788 29.0288C18.9488 29.6475 20.2819 30 21.7031 30C26.2856 30 30 26.3363 30 21.8194C30 20.5144 29.6887 19.2806 29.1375 18.1856C29.355 17.2069 29.4675 16.1963 29.4675 15.1556Z" fill="#03A9F4"/>
<path d="M22.4982 21.8983C21.8363 22.8227 20.8594 23.5539 19.5901 24.0714C18.3357 24.5852 16.8338 24.8496 15.1201 24.8496C13.0651 24.8496 11.3419 24.4933 9.99568 23.7883C9.0338 23.2764 8.24255 22.5846 7.64068 21.7258C7.0313 20.8633 6.72568 20.0064 6.72568 19.1758C6.72568 18.6621 6.9263 18.2121 7.32193 17.8464C7.7138 17.4808 8.2163 17.2989 8.8163 17.2989C9.30755 17.2989 9.7313 17.4433 10.0763 17.7302C10.4044 18.0077 10.6876 18.4164 10.9144 18.9396C11.1676 19.5133 11.4432 19.9971 11.7338 20.3739C12.0169 20.7433 12.4201 21.0508 12.9357 21.2927C13.4551 21.5327 14.1544 21.6583 15.0132 21.6583C16.1963 21.6583 17.1676 21.4071 17.8951 20.9177C18.6094 20.4396 18.9544 19.8621 18.9544 19.1571C18.9544 18.6021 18.7726 18.1633 18.4032 17.8202C18.0132 17.4602 17.4994 17.1808 16.8769 16.9877C16.2263 16.7889 15.3432 16.5714 14.2519 16.3464C12.7651 16.0333 11.5032 15.6639 10.5019 15.2402C9.4763 14.8089 8.64755 14.2127 8.0438 13.4683C7.4288 12.7071 7.11755 11.7564 7.11755 10.6389C7.11755 9.57395 7.4438 8.61395 8.0888 7.7852C8.72818 6.96207 9.66193 6.31895 10.8676 5.88207C12.0544 5.44895 13.4663 5.23145 15.0657 5.23145C16.3426 5.23145 17.4657 5.3777 18.4051 5.66645C19.3482 5.9552 20.1432 6.3452 20.7676 6.82707C21.3976 7.31457 21.8663 7.8302 22.1588 8.3702C22.4551 8.91395 22.6069 9.45582 22.6069 9.97895C22.6069 10.4833 22.4101 10.9427 22.0201 11.3402C21.6263 11.7414 21.1313 11.9439 20.5501 11.9439C20.0213 11.9439 19.6051 11.8146 19.3182 11.5652C19.0501 11.3308 18.7707 10.9652 18.4632 10.4439C18.1069 9.77645 17.6738 9.24957 17.1788 8.87645C16.6969 8.51457 15.8944 8.33457 14.7882 8.33457C13.7644 8.33457 12.9282 8.53707 12.3094 8.93832C11.7132 9.3227 11.4226 9.7652 11.4226 10.2902C11.4226 10.6108 11.5163 10.8789 11.7094 11.1096C11.9119 11.3571 12.1988 11.5689 12.5626 11.7489C12.9376 11.9346 13.3257 12.0846 13.7138 12.1896C14.1113 12.2983 14.7769 12.4614 15.6938 12.6696C16.8526 12.9133 17.9157 13.1889 18.8569 13.4871C19.8113 13.7852 20.6326 14.1546 21.3076 14.5877C21.9919 15.0283 22.5338 15.5908 22.9201 16.2658C23.3063 16.9464 23.5013 17.7808 23.5013 18.7521C23.4994 19.9127 23.1619 20.9721 22.4982 21.8983Z" fill="#FAFAFA"/>
</svg>
