<svg width="30" height="30" viewBox="0 0 30 30" fill="none" xmlns="http://www.w3.org/2000/svg">
<path d="M24.375 16.875C21.2737 16.875 18.75 19.3987 18.75 22.5V23.4375C18.75 23.955 19.17 24.375 19.6875 24.375H29.0625C29.58 24.375 30 23.955 30 23.4375V22.5C30 19.3987 27.4762 16.875 24.375 16.875Z" fill="#37474F"/>
<path d="M24.375 15C26.9638 15 29.0625 12.9013 29.0625 10.3125C29.0625 7.72367 26.9638 5.625 24.375 5.625C21.7862 5.625 19.6875 7.72367 19.6875 10.3125C19.6875 12.9013 21.7862 15 24.375 15Z" fill="#37474F"/>
<path d="M13.125 16.875C10.5412 16.875 8.4375 18.9769 8.4375 21.5625V23.4375C8.4375 23.955 8.8575 24.375 9.375 24.375H16.875C17.3925 24.375 17.8125 23.955 17.8125 23.4375V21.5625C17.8125 18.9769 15.7088 16.875 13.125 16.875Z" fill="#37474F"/>
<path d="M3.75 16.875C1.68187 16.875 0 18.5569 0 20.625V23.4375C0 23.955 0.42 24.375 0.9375 24.375H6.5625C7.08 24.375 7.5 23.955 7.5 23.4375V20.625C7.5 18.5569 5.81813 16.875 3.75 16.875Z" fill="#37474F"/>
<path d="M13.125 15.4688C15.455 15.4688 17.3438 13.58 17.3438 11.25C17.3438 8.92005 15.455 7.03125 13.125 7.03125C10.795 7.03125 8.90625 8.92005 8.90625 11.25C8.90625 13.58 10.795 15.4688 13.125 15.4688Z" fill="#37474F"/>
<path d="M3.75 15.4688C5.56218 15.4688 7.03125 13.9997 7.03125 12.1875C7.03125 10.3753 5.56218 8.90625 3.75 8.90625C1.93782 8.90625 0.46875 10.3753 0.46875 12.1875C0.46875 13.9997 1.93782 15.4688 3.75 15.4688Z" fill="#37474F"/>
</svg>
