<svg width="30" height="30" viewBox="0 0 30 30" fill="none" xmlns="http://www.w3.org/2000/svg">
<path d="M25.3125 14.0625C24.9788 14.0625 24.6506 14.0981 24.3356 14.1656C23.9138 9.90375 20.3081 6.5625 15.9375 6.5625C15.42 6.5625 15 6.9825 15 7.5V22.5C15 23.0175 15.42 23.4375 15.9375 23.4375H25.3125C27.8981 23.4375 30 21.3356 30 18.75C30 16.1663 27.8981 14.0625 25.3125 14.0625Z" fill="#FF7A00"/>
<path d="M12.1875 8.4375C11.67 8.4375 11.25 8.8575 11.25 9.375V22.5C11.25 23.0175 11.67 23.4375 12.1875 23.4375C12.705 23.4375 13.125 23.0175 13.125 22.5V9.375C13.125 8.8575 12.705 8.4375 12.1875 8.4375Z" fill="#FF7A00"/>
<path d="M8.4375 12.1875C7.92 12.1875 7.5 12.6075 7.5 13.125V22.5C7.5 23.0175 7.92 23.4375 8.4375 23.4375C8.955 23.4375 9.375 23.0175 9.375 22.5V13.125C9.375 12.6075 8.955 12.1875 8.4375 12.1875Z" fill="#FF7A00"/>
<path d="M4.6875 12.1875C4.17 12.1875 3.75 12.6075 3.75 13.125V22.5C3.75 23.0175 4.17 23.4375 4.6875 23.4375C5.205 23.4375 5.625 23.0175 5.625 22.5V13.125C5.625 12.6075 5.205 12.1875 4.6875 12.1875Z" fill="#FF7A00"/>
<path d="M0.9375 15C0.42 15 0 15.42 0 15.9375V21.5625C0 22.08 0.42 22.5 0.9375 22.5C1.455 22.5 1.875 22.08 1.875 21.5625V15.9375C1.875 15.42 1.455 15 0.9375 15Z" fill="#FF7A00"/>
</svg>
