<svg width="30" height="30" viewBox="0 0 30 30" fill="none" xmlns="http://www.w3.org/2000/svg">
<g clip-path="url(#clip0)">
<path d="M13.7655 7.57418C14.3318 8.35237 14.6149 9.28057 14.6149 10.3663C14.6149 11.482 14.3318 12.3821 13.758 13.0609C13.4355 13.4378 12.9648 13.7866 12.3423 14.0997C13.2873 14.441 13.9999 14.9792 14.4856 15.7142C14.9656 16.4493 15.2075 17.3437 15.2075 18.3938C15.2075 19.4777 14.9318 20.4509 14.3806 21.3097C14.0318 21.8779 13.593 22.3598 13.0679 22.7479C12.4773 23.1942 11.7797 23.4999 10.9734 23.6668C10.1671 23.8318 9.29514 23.9124 8.35381 23.9124H0V5.62402H8.95948C11.2209 5.65778 12.8204 6.30658 13.7655 7.57418ZM3.69593 8.80053V12.8359H8.2038C9.00636 12.8359 9.66079 12.684 10.1652 12.3821C10.6659 12.0802 10.919 11.5439 10.919 10.7769C10.919 9.92188 10.5871 9.3612 9.92331 9.08556C9.34952 8.89617 8.61821 8.80053 7.73126 8.80053H3.69593ZM3.69593 15.8624V20.7396H8.19817C9.00261 20.7396 9.63079 20.6328 10.0771 20.4171C10.8909 20.0158 11.2959 19.2583 11.2959 18.1332C11.2959 17.1787 10.904 16.5262 10.1165 16.1699C9.67392 15.973 9.05512 15.868 8.26005 15.8624H3.69593ZM26.4153 10.6644C27.3735 11.0863 28.1611 11.7539 28.7817 12.6652C29.348 13.4697 29.7118 14.4016 29.8768 15.4611C29.9743 16.0799 30.0118 16.9781 29.9968 18.1463H20.0079C20.0679 19.502 20.5404 20.4546 21.4443 20.9984C21.9918 21.3378 22.6481 21.5085 23.4225 21.5085C24.2364 21.5085 24.9002 21.3022 25.4102 20.8897C25.6915 20.6646 25.9371 20.3552 26.149 19.9596H29.8093C29.7118 20.7603 29.2674 21.576 28.4817 22.4048C27.2535 23.7174 25.534 24.3756 23.3232 24.3756C21.4968 24.3756 19.8879 23.8224 18.4946 22.7123C17.0958 21.6041 16.4001 19.7983 16.4001 17.2987C16.4001 14.9548 17.0301 13.1565 18.2884 11.9058C19.5504 10.6588 21.1817 10.0306 23.19 10.0306C24.3864 10.0288 25.4608 10.2407 26.4153 10.6644ZM21.0542 13.7191C20.5479 14.2347 20.2292 14.9323 20.0979 15.8117H26.2765C26.2109 14.8723 25.8902 14.1616 25.3221 13.6722C24.7464 13.1865 24.0395 12.9446 23.1938 12.9446C22.2768 12.9465 21.5605 13.2053 21.0542 13.7191ZM19.1716 8.75365H27.1166V6.47722H19.1716V8.75365Z" fill="#1976D2"/>
</g>
<defs>
<clipPath id="clip0">
<rect width="30" height="30" fill="white"/>
</clipPath>
</defs>
</svg>
