<svg width="30" height="30" viewBox="0 0 30 30" fill="none" xmlns="http://www.w3.org/2000/svg">
<path d="M15 28.9614C22.7665 28.9614 29.0625 22.6654 29.0625 14.8989C29.0625 7.13242 22.7665 0.836426 15 0.836426C7.2335 0.836426 0.9375 7.13242 0.9375 14.8989C0.9375 22.6654 7.2335 28.9614 15 28.9614Z" fill="#EC407A"/>
<path d="M15 0C6.72938 0 0 6.72938 0 15C0 23.2706 6.72938 30 15 30C23.2706 30 30 23.2706 30 15C30 6.72938 23.2706 0 15 0ZM28.1194 15.1125C24.9431 14.2744 21.6863 14.1769 18.5831 14.8162C18.1594 13.7587 17.7019 12.7181 17.2106 11.6906C20.0175 10.3781 22.6125 8.59875 24.8888 6.39937C26.8969 8.70375 28.125 11.7075 28.125 15C28.125 15.0375 28.1194 15.0731 28.1194 15.1125ZM23.5631 5.07562C21.4369 7.12875 19.0181 8.80125 16.3969 10.0238C14.9963 7.3425 13.3575 4.78125 11.5031 2.3625C12.6188 2.05312 13.7869 1.875 15 1.875C18.2719 1.875 21.2625 3.08625 23.5631 5.07562ZM9.65062 3.02625C11.5538 5.44875 13.2244 8.02875 14.6475 10.7306C10.71 12.2344 6.435 12.8119 2.15438 12.3112C3.0225 8.15625 5.865 4.725 9.65062 3.02625ZM1.875 15C1.875 14.7188 1.89937 14.4431 1.91813 14.1675C3.02813 14.2988 4.13812 14.385 5.24437 14.385C8.77312 14.385 12.24 13.695 15.4894 12.4294C15.9394 13.3669 16.3631 14.3175 16.755 15.2812C12.1462 16.665 8.04 19.6163 5.27625 23.7844C3.17062 21.4556 1.875 18.3787 1.875 15ZM6.64688 25.1156C9.18937 21.1181 13.0669 18.3 17.43 17.025C18.615 20.2875 19.4681 23.6756 19.965 27.1425C18.4331 27.7725 16.7569 28.125 15 28.125C11.8294 28.125 8.9175 26.9944 6.64688 25.1156ZM21.7238 26.25C21.2081 22.9463 20.3906 19.7119 19.2712 16.59C22.1044 16.0575 25.0688 16.1831 27.9562 16.9988C27.3506 20.9287 25.005 24.2812 21.7238 26.25Z" fill="#C2185B"/>
</svg>
