<svg width="30" height="30" viewBox="0 0 30 30" fill="none" xmlns="http://www.w3.org/2000/svg">
<path d="M1.60936 28.3909V18.6753H0V28.3909V30.0002H1.60936H11.3249V28.3909H1.60936Z" fill="#3C3C3C"/>
<path d="M1.60936 1.60936H11.3249V0H1.60936H0V1.60936V11.3249H1.60936V1.60936Z" fill="#3C3C3C"/>
<path d="M28.3906 1.60936V11.3249H30V1.60936V0H28.3906H18.675V1.60936H28.3906Z" fill="#3C3C3C"/>
<path d="M28.3906 28.3909H18.675V30.0002H28.3906H30V28.3909V18.6753H28.3906V28.3909Z" fill="#3C3C3C"/>
<path d="M9.06212 10.6576C9.06212 10.4686 8.99191 10.3174 8.8569 10.1932C8.72188 10.0798 8.48426 9.97175 8.14403 9.86913C7.54997 9.69632 7.10172 9.4965 6.79929 9.26427C6.49686 9.03205 6.34565 8.70802 6.34565 8.30298C6.34565 7.89794 6.51846 7.5577 6.8641 7.30388C7.21513 7.04465 7.65258 6.91504 8.19803 6.91504C8.74889 6.91504 9.18633 7.05545 9.53737 7.34708C9.8776 7.63871 10.045 7.99515 10.0342 8.42179L10.0288 8.44339H9.06212C9.06212 8.21657 8.98651 8.02755 8.8353 7.88174C8.67868 7.74132 8.46266 7.67111 8.18723 7.67111C7.9172 7.67111 7.71198 7.73052 7.57157 7.84933C7.43116 7.96814 7.35555 8.11936 7.35555 8.30298C7.35555 8.47039 7.43656 8.61081 7.58777 8.71882C7.74439 8.82683 8.00901 8.94024 8.39245 9.05905C8.94331 9.21567 9.35915 9.41549 9.63998 9.66391C9.92081 9.91774 10.0612 10.2418 10.0612 10.6522C10.0612 11.0735 9.8938 11.4137 9.55897 11.6567C9.22414 11.9051 8.78129 12.0294 8.22503 12.0294C7.67958 12.0294 7.21513 11.8943 6.81009 11.6135C6.40505 11.3327 6.21063 10.9438 6.22143 10.4416L6.22683 10.42H7.19893C7.19893 10.717 7.29074 10.933 7.46896 11.0735C7.65258 11.2085 7.901 11.2787 8.22503 11.2787C8.49506 11.2787 8.70568 11.2193 8.8461 11.1113C8.99731 10.9978 9.06212 10.8466 9.06212 10.6576Z" fill="#3C3C3C"/>
<path d="M14.5653 10.261L14.5707 10.2826C14.5815 10.8172 14.414 11.2439 14.0792 11.5571C13.7444 11.8703 13.2799 12.0269 12.6805 12.0269C12.081 12.0269 11.595 11.8325 11.2223 11.4491C10.8497 11.0656 10.6607 10.5688 10.6607 9.96393V8.97563C10.6607 8.37077 10.8443 7.87932 11.2115 7.49048C11.5788 7.10165 12.054 6.90723 12.6319 6.90723C13.2475 6.90723 13.7282 7.06924 14.0738 7.38247C14.4249 7.69571 14.5869 8.12775 14.5761 8.6732L14.5707 8.69481H13.5986C13.5986 8.37077 13.5176 8.11695 13.3663 7.93873C13.2097 7.76051 12.9667 7.6741 12.6373 7.6741C12.3402 7.6741 12.1026 7.79292 11.9298 8.04134C11.7516 8.27896 11.6652 8.5922 11.6652 8.96483V9.95853C11.6652 10.3366 11.757 10.6498 11.9406 10.8874C12.1242 11.125 12.3726 11.2547 12.6913 11.2547C13.0045 11.2547 13.2367 11.1683 13.3825 11.0008C13.5338 10.8334 13.604 10.585 13.604 10.2502C13.5986 10.261 14.5653 10.261 14.5653 10.261Z" fill="#3C3C3C"/>
<path d="M17.9514 10.8875H16.207L15.8722 11.9622H14.8677L16.5743 6.98828H17.595L19.2961 11.9622H18.2916L17.9514 10.8875ZM16.4501 10.1044H17.703L17.0873 8.1494H17.0657L16.4501 10.1044Z" fill="#3C3C3C"/>
<path d="M23.7786 11.9568H22.7849L20.7813 8.55984L20.7597 8.56524V11.9622H19.766V6.98828H20.7597L22.7633 10.3852L22.7849 10.3798V6.99368H23.7786V11.9568Z" fill="#3C3C3C"/>
<path d="M7.82539 13.8199L10.7741 21.3428H10.8119L13.7606 13.8199H15.3591V23.0764H14.1062V19.4148L14.2304 15.6506L14.198 15.6452L11.1953 23.0818H10.369L7.38255 15.6668L7.34475 15.6614L7.46356 19.404V23.0656H6.21063V13.8145H7.81999V13.8199H7.82539Z" fill="#3C3C3C"/>
<path d="M23.1575 18.7829H18.9181V22.0934H23.811V23.0763H17.6652V13.8198H23.7408V14.8027H18.9181V17.8054H23.1575V18.7829Z" fill="#3C3C3C"/>
</svg>
