<svg width="30" height="30" viewBox="0 0 30 30" fill="none" xmlns="http://www.w3.org/2000/svg">
<g clip-path="url(#clip0)">
<path d="M15.8274 10.1473L15.8602 10.0162C16.3845 7.86862 17.0399 5.18009 16.5319 2.73747C16.1879 0.803043 14.7624 0.0653376 13.5664 -0.000236162C12.1245 -0.0658099 10.8629 0.753862 10.5352 1.93419C9.94538 4.09812 10.4861 7.06534 11.4528 10.8522C10.2239 13.7703 8.25778 18.0326 6.83233 20.5571C4.16166 21.9342 0.573453 24.0653 0.0327647 26.7703C-0.0819267 27.2621 0.0491492 27.9014 0.34407 28.4752C0.67176 29.1145 1.21245 29.5899 1.83506 29.8358C2.1136 29.9342 2.4249 30.0162 2.81813 30.0162C4.40742 30.0162 6.97979 28.7375 10.4205 22.8358C10.9448 22.6719 11.4855 22.4916 12.0098 22.2948C14.4675 21.4588 17.0071 20.5899 19.3173 20.2129C21.8569 21.5735 24.757 22.4588 26.7395 22.4588C28.6892 22.4588 29.4593 21.2948 29.7542 20.6063C30.2621 19.3932 30.0164 17.8522 29.1972 17.0326C28.0011 15.8522 25.101 15.5571 20.5953 16.1145C18.3506 14.7375 16.8924 12.9014 15.8274 10.1473ZM5.93118 23.885C4.66958 25.7047 3.73566 26.6227 3.21136 27.0162C3.81758 25.9014 4.99727 24.7211 5.93118 23.885ZM13.8449 2.58993C14.32 3.39321 14.2545 5.81944 13.894 7.04894C13.4353 5.26206 13.3697 2.72108 13.6319 2.4096C13.7138 2.42599 13.7794 2.47517 13.8449 2.58993ZM13.6974 13.4916C14.6641 15.1637 15.8766 16.6063 17.2365 17.6719C15.2867 18.1145 13.5008 18.8522 11.9115 19.4916C11.5347 19.6391 11.1578 19.803 10.7974 19.9506C11.9934 17.7539 12.9929 15.2948 13.6974 13.4916ZM27.7389 19.4096C27.7553 19.426 27.7553 19.4588 27.7062 19.4916H27.6898L27.6734 19.5244C27.6079 19.5735 26.8542 19.9998 23.6756 18.7539C27.3457 18.5571 27.7389 19.3932 27.7389 19.4096Z" fill="#3C3C3C"/>
</g>
<defs>
<clipPath id="clip0">
<rect width="30" height="30" fill="white"/>
</clipPath>
</defs>
</svg>
