<svg width="45" height="45" viewBox="0 0 45 45" fill="none" xmlns="http://www.w3.org/2000/svg">
<g clip-path="url(#clip0)">
<path d="M98.1818 -53.1819H-53.1818V98.1818H98.1818V-53.1819Z" fill="white"/>
<path d="M8.18182 0H4.09091V4.09091H8.18182V0Z" fill="black"/>
<path d="M12.2727 0H8.18182V4.09091H12.2727C12.2441 4.06227 12.2114 4.02545 12.1746 3.97636C12.1336 3.92727 12.0641 3.825 11.9618 3.66954C11.8596 3.51409 11.7696 3.35864 11.6918 3.20727C11.61 3.05182 11.5405 2.86773 11.475 2.655C11.4096 2.44227 11.3809 2.23773 11.3809 2.04954C11.3809 1.86136 11.4096 1.65682 11.4709 1.44818C11.5323 1.23955 11.6059 1.05136 11.6959 0.883635C11.7818 0.719999 11.8718 0.568635 11.9577 0.433635C12.0436 0.298635 12.1173 0.192274 12.1786 0.118637L12.2727 0Z" fill="black"/>
<path d="M28.6364 0H24.5455V4.09091H28.6364V0Z" fill="black"/>
<path d="M32.7273 0V4.09091H36.8182V0C36.7895 0.0286364 36.7527 0.0613646 36.7036 0.0981828C36.6545 0.139092 36.5523 0.208635 36.3968 0.310908C36.2414 0.413181 36.0859 0.50318 35.9345 0.580907C35.7791 0.662725 35.595 0.732273 35.3823 0.797727C35.1695 0.863182 34.965 0.89182 34.7768 0.89182C34.5886 0.89182 34.3841 0.863181 34.1754 0.801817C33.9668 0.740454 33.7786 0.666817 33.6109 0.576817C33.4473 0.490908 33.2959 0.400907 33.1609 0.314998C33.0259 0.229089 32.9195 0.155457 32.8459 0.0940929L32.7273 0Z" fill="black"/>
<path d="M16.3636 4.09082H12.2727V8.18173H16.3636V4.09082Z" fill="black"/>
<path d="M20.4545 4.09082V8.18173H24.5455V4.09082C24.5168 4.11946 24.48 4.15218 24.4309 4.189C24.3818 4.22991 24.2795 4.29946 24.1241 4.40173C23.9686 4.504 23.8132 4.594 23.6618 4.67173C23.5064 4.75355 23.3223 4.82309 23.1095 4.88855C22.8968 4.954 22.6923 4.98264 22.5041 4.98264C22.3159 4.98264 22.1114 4.954 21.9027 4.89264C21.6941 4.83127 21.5059 4.75764 21.3382 4.66764C21.1745 4.58173 21.0232 4.49173 20.8882 4.40582C20.7532 4.31991 20.6468 4.24628 20.5732 4.18491L20.4545 4.09082Z" fill="black"/>
<path d="M28.6364 8.18173H32.7273V4.09082H28.6364C28.665 4.11946 28.6977 4.15628 28.7346 4.20537C28.7755 4.25446 28.845 4.35673 28.9473 4.51219C29.0495 4.66764 29.1395 4.82309 29.2173 4.97446C29.2991 5.12991 29.3686 5.314 29.4341 5.52673C29.4995 5.73946 29.5282 5.944 29.5282 6.13218C29.5282 6.32037 29.4995 6.52491 29.4382 6.73355C29.3768 6.94218 29.3032 7.13037 29.2132 7.29809C29.1273 7.46173 29.0373 7.61309 28.9514 7.74809C28.8655 7.88309 28.7918 7.98946 28.7305 8.06309L28.6364 8.18173Z" fill="black"/>
<path d="M36.8182 4.09082H32.7273V8.18173H36.8182V4.09082Z" fill="black"/>
<path d="M40.9091 4.09082H36.8182V8.18173H40.9091V4.09082Z" fill="black"/>
<path d="M45 4.09082H40.9091V8.18173H45V4.09082Z" fill="black"/>
<path d="M0 8.18188V12.2728H4.09091V8.18188C4.06227 8.21052 4.02545 8.24325 3.97636 8.28007C3.92727 8.32098 3.825 8.39052 3.66954 8.49279C3.51409 8.59507 3.35864 8.68506 3.20727 8.76279C3.05182 8.84461 2.86773 8.91416 2.655 8.97961C2.44227 9.04507 2.23773 9.07371 2.04954 9.07371C1.86136 9.07371 1.65682 9.04507 1.44818 8.9837C1.23955 8.92234 1.05136 8.8487 0.883635 8.7587C0.719999 8.67279 0.568635 8.58279 0.433635 8.49688C0.298635 8.41097 0.192274 8.33734 0.118637 8.27598L0 8.18188Z" fill="black"/>
<path d="M16.3636 12.2728H20.4545V8.18188H16.3636C16.3923 8.21052 16.425 8.24734 16.4618 8.29643C16.5027 8.34552 16.5723 8.4478 16.6745 8.60325C16.7768 8.75871 16.8668 8.91416 16.9445 9.06552C17.0264 9.22097 17.0959 9.40507 17.1614 9.61779C17.2268 9.83052 17.2555 10.0351 17.2555 10.2232C17.2555 10.4114 17.2268 10.616 17.1654 10.8246C17.1041 11.0332 17.0304 11.2214 16.9404 11.3892C16.8545 11.5528 16.7645 11.7042 16.6786 11.8392C16.5927 11.9742 16.5191 12.0805 16.4577 12.1542L16.3636 12.2728Z" fill="black"/>
<path d="M24.5455 8.18188H20.4545V12.2728H24.5455V8.18188Z" fill="black"/>
<path d="M28.6364 8.18188H24.5455V12.2728H28.6364C28.6077 12.2442 28.575 12.2073 28.5382 12.1582C28.4973 12.1092 28.4277 12.0069 28.3255 11.8514C28.2232 11.696 28.1332 11.5405 28.0555 11.3892C27.9736 11.2337 27.9041 11.0496 27.8386 10.8369C27.7732 10.6242 27.7445 10.4196 27.7445 10.2314C27.7445 10.0432 27.7732 9.8387 27.8345 9.63007C27.8959 9.42143 27.9695 9.23325 28.0595 9.06552C28.1455 8.90188 28.2355 8.75052 28.3214 8.61552C28.4073 8.48052 28.4809 8.37416 28.5423 8.30052L28.6364 8.18188Z" fill="black"/>
<path d="M36.8182 12.2728V8.18188H32.7273V12.2728C32.7559 12.2442 32.7927 12.2114 32.8418 12.1746C32.8909 12.1337 32.9932 12.0642 33.1486 11.9619C33.3041 11.8596 33.4595 11.7696 33.6109 11.6919C33.7623 11.6142 33.9504 11.5405 34.1632 11.4751C34.3759 11.4096 34.5804 11.381 34.7686 11.381C34.9568 11.381 35.1614 11.4096 35.37 11.471C35.5786 11.5323 35.7668 11.606 35.9345 11.696C36.0982 11.7819 36.2495 11.8719 36.3845 11.9578C36.5195 12.0437 36.6259 12.1173 36.6995 12.1787C36.7732 12.2401 36.8182 12.2687 36.8182 12.2728Z" fill="black"/>
<path d="M45 8.18188H40.9091V12.2728H45V8.18188Z" fill="black"/>
<path d="M4.09091 12.2727H0V16.3636H4.09091V12.2727Z" fill="black"/>
<path d="M8.18182 12.2727H4.09091V16.3636H8.18182C8.15318 16.335 8.12046 16.2982 8.08364 16.2491C8.04273 16.2 7.97319 16.0977 7.87091 15.9422C7.76864 15.7868 7.67864 15.6313 7.60091 15.48C7.5191 15.3245 7.44955 15.1404 7.38409 14.9277C7.31864 14.715 7.29 14.5104 7.29 14.3222C7.29 14.1341 7.31864 13.9295 7.38 13.7209C7.44137 13.5123 7.515 13.3241 7.605 13.1563C7.69091 12.9927 7.78091 12.8413 7.86682 12.7063C7.95273 12.5713 8.02636 12.465 8.08773 12.3913L8.18182 12.2727Z" fill="black"/>
<path d="M32.7273 12.2727H28.6364V16.3636H32.7273V12.2727Z" fill="black"/>
<path d="M40.9091 12.2727H36.8182V16.3636H40.9091V12.2727Z" fill="black"/>
<path d="M12.2727 16.3635H8.18182V20.4544H12.2727V16.3635Z" fill="black"/>
<path d="M16.3636 16.3635H12.2727V20.4544H16.3636C16.335 20.4258 16.3023 20.389 16.2655 20.3399C16.2246 20.2908 16.155 20.1885 16.0527 20.0331C15.9505 19.8776 15.8605 19.7222 15.7827 19.5708C15.7009 19.4153 15.6314 19.2313 15.5659 19.0185C15.5005 18.8058 15.4718 18.6013 15.4718 18.4131C15.4718 18.2249 15.5005 18.0203 15.5618 17.8117C15.6232 17.6031 15.6968 17.4149 15.7868 17.2472C15.8727 17.0835 15.9627 16.9322 16.0486 16.7972C16.1346 16.6622 16.2082 16.5558 16.2696 16.4822L16.3636 16.3635Z" fill="black"/>
<path d="M24.5455 16.3635H20.4545V20.4544H24.5455V16.3635Z" fill="black"/>
<path d="M28.6364 16.3635H24.5455V20.4544H28.6364C28.6077 20.4258 28.575 20.389 28.5382 20.3399C28.4973 20.2908 28.4277 20.1885 28.3255 20.0331C28.2232 19.8776 28.1332 19.7222 28.0555 19.5708C27.9736 19.4153 27.9041 19.2313 27.8386 19.0185C27.7732 18.8058 27.7445 18.6013 27.7445 18.4131C27.7445 18.2249 27.7732 18.0203 27.8345 17.8117C27.8959 17.6031 27.9695 17.4149 28.0595 17.2472C28.1455 17.0835 28.2355 16.9322 28.3214 16.7972C28.4073 16.6622 28.4809 16.5558 28.5423 16.4822L28.6364 16.3635Z" fill="black"/>
<path d="M32.7273 16.3635V20.4544H36.8182V16.3635C36.7895 16.3922 36.7527 16.4249 36.7036 16.4617C36.6545 16.5026 36.5523 16.5722 36.3968 16.6744C36.2414 16.7767 36.0859 16.8667 35.9345 16.9444C35.7791 17.0263 35.595 17.0958 35.3823 17.1613C35.1695 17.2267 34.965 17.2553 34.7768 17.2553C34.5886 17.2553 34.3841 17.2267 34.1754 17.1653C33.9668 17.104 33.7786 17.0303 33.6109 16.9403C33.4473 16.8544 33.2959 16.7644 33.1609 16.6785C33.0259 16.5926 32.9195 16.519 32.8459 16.4576L32.7273 16.3635Z" fill="black"/>
<path d="M12.2727 24.5455V20.4546H8.18182V24.5455C8.21046 24.5169 8.24728 24.4841 8.29637 24.4473C8.34546 24.4064 8.44773 24.3369 8.60319 24.2346C8.75864 24.1323 8.9141 24.0423 9.06546 23.9646C9.21682 23.8869 9.405 23.8132 9.61773 23.7478C9.83046 23.6823 10.035 23.6537 10.2232 23.6537C10.4114 23.6537 10.6159 23.6823 10.8246 23.7437C11.0332 23.805 11.2214 23.8787 11.3891 23.9687C11.5527 24.0546 11.7041 24.1446 11.8391 24.2305C11.9741 24.3164 12.0805 24.39 12.1541 24.4514C12.2277 24.5128 12.2727 24.5414 12.2727 24.5455Z" fill="black"/>
<path d="M24.5455 24.5455V20.4546H20.4545V24.5455C20.4832 24.5169 20.52 24.4841 20.5691 24.4473C20.6182 24.4064 20.7205 24.3369 20.8759 24.2346C21.0314 24.1323 21.1868 24.0423 21.3382 23.9646C21.4895 23.8869 21.6777 23.8132 21.8905 23.7478C22.1032 23.6823 22.3077 23.6537 22.4959 23.6537C22.6841 23.6537 22.8886 23.6823 23.0973 23.7437C23.3059 23.805 23.4941 23.8787 23.6618 23.9687C23.8255 24.0546 23.9768 24.1446 24.1118 24.2305C24.2468 24.3164 24.3532 24.39 24.4268 24.4514C24.5005 24.5128 24.5455 24.5414 24.5455 24.5455Z" fill="black"/>
<path d="M32.7273 20.4546H28.6364V24.5455H32.7273V20.4546Z" fill="black"/>
<path d="M36.8182 20.4546H32.7273V24.5455H36.8182V20.4546Z" fill="black"/>
<path d="M4.09091 24.5454H0V28.6363H4.09091V24.5454Z" fill="black"/>
<path d="M8.18182 24.5454H4.09091V28.6363H8.18182C8.15318 28.6077 8.12046 28.5709 8.08364 28.5218C8.04273 28.4727 7.97319 28.3704 7.87091 28.215C7.76864 28.0595 7.67864 27.904 7.60091 27.7527C7.5191 27.5972 7.44955 27.4131 7.38409 27.2004C7.31864 26.9877 7.29 26.7831 7.29 26.595C7.29 26.4068 7.31864 26.2022 7.38 25.9936C7.44137 25.785 7.515 25.5968 7.605 25.429C7.69091 25.2654 7.78091 25.114 7.86682 24.979C7.95273 24.844 8.02636 24.7377 8.08773 24.664L8.18182 24.5454Z" fill="black"/>
<path d="M16.3636 24.5454H12.2727V28.6363H16.3636V24.5454Z" fill="black"/>
<path d="M28.6364 24.5454H24.5455V28.6363H28.6364V24.5454Z" fill="black"/>
<path d="M32.7273 24.5454H28.6364V28.6363H32.7273V24.5454Z" fill="black"/>
<path d="M40.9091 24.5454H36.8182V28.6363H40.9091V24.5454Z" fill="black"/>
<path d="M45 24.5454H40.9091V28.6363H45V24.5454Z" fill="black"/>
<path d="M4.09091 28.6365H0V32.7274H4.09091V28.6365Z" fill="black"/>
<path d="M8.18182 28.6365V32.7274H12.2727V28.6365C12.2441 28.6651 12.2073 28.6978 12.1582 28.7347C12.1091 28.7756 12.0068 28.8451 11.8514 28.9474C11.6959 29.0497 11.5405 29.1397 11.3891 29.2174C11.2336 29.2992 11.0496 29.3687 10.8368 29.4342C10.6241 29.4997 10.4196 29.5283 10.2314 29.5283C10.0432 29.5283 9.83864 29.4997 9.63001 29.4383C9.42137 29.3769 9.23319 29.3033 9.06546 29.2133C8.90182 29.1274 8.75046 29.0374 8.61546 28.9515C8.48046 28.8656 8.3741 28.7919 8.30046 28.7306L8.18182 28.6365Z" fill="black"/>
<path d="M16.3636 28.6365V32.7274H20.4545V28.6365C20.4259 28.6651 20.3891 28.6978 20.34 28.7347C20.2909 28.7756 20.1886 28.8451 20.0332 28.9474C19.8777 29.0497 19.7223 29.1397 19.5709 29.2174C19.4155 29.2992 19.2314 29.3687 19.0186 29.4342C18.8059 29.4997 18.6014 29.5283 18.4132 29.5283C18.225 29.5283 18.0205 29.4997 17.8118 29.4383C17.6032 29.3769 17.415 29.3033 17.2473 29.2133C17.0836 29.1274 16.9323 29.0374 16.7973 28.9515C16.6623 28.8656 16.5559 28.7919 16.4823 28.7306L16.3636 28.6365Z" fill="black"/>
<path d="M28.6364 28.6365H24.5455V32.7274H28.6364V28.6365Z" fill="black"/>
<path d="M40.9091 32.7274V28.6365H36.8182V32.7274C36.8468 32.6987 36.8836 32.666 36.9327 32.6292C36.9818 32.5883 37.0841 32.5187 37.2395 32.4165C37.395 32.3142 37.5504 32.2242 37.7018 32.1465C37.8532 32.0687 38.0414 31.9951 38.2541 31.9297C38.4668 31.8642 38.6714 31.8356 38.8595 31.8356C39.0477 31.8356 39.2523 31.8642 39.4609 31.9256C39.6695 31.9869 39.8577 32.0606 40.0255 32.1506C40.1891 32.2365 40.3405 32.3265 40.4755 32.4124C40.6105 32.4983 40.7168 32.5719 40.7905 32.6333C40.8641 32.6947 40.9091 32.7233 40.9091 32.7274Z" fill="black"/>
<path d="M4.09091 32.7273H0V36.8182H4.09091V32.7273Z" fill="black"/>
<path d="M8.18182 32.7273H4.09091V36.8182H8.18182V32.7273Z" fill="black"/>
<path d="M12.2727 32.7273H8.18182V36.8182H12.2727V32.7273Z" fill="black"/>
<path d="M20.4545 32.7273H16.3636V36.8182H20.4545V32.7273Z" fill="black"/>
<path d="M28.6364 36.8182V32.7273H24.5455V36.8182C24.5741 36.7896 24.6109 36.7568 24.66 36.72C24.7091 36.6791 24.8114 36.6096 24.9668 36.5073C25.1223 36.405 25.2777 36.315 25.4291 36.2373C25.5805 36.1596 25.7686 36.0859 25.9814 36.0205C26.1941 35.955 26.3986 35.9264 26.5868 35.9264C26.775 35.9264 26.9795 35.955 27.1882 36.0164C27.3968 36.0777 27.585 36.1514 27.7527 36.2414C27.9164 36.3273 28.0677 36.4173 28.2027 36.5032C28.3377 36.5891 28.4441 36.6627 28.5177 36.7241C28.5914 36.7855 28.6364 36.8141 28.6364 36.8182Z" fill="black"/>
<path d="M32.7273 32.7273V36.8182H36.8182V32.7273C36.7895 32.7559 36.7527 32.7887 36.7036 32.8255C36.6545 32.8664 36.5523 32.9359 36.3968 33.0382C36.2414 33.1405 36.0859 33.2305 35.9345 33.3082C35.7791 33.39 35.595 33.4596 35.3823 33.525C35.1695 33.5905 34.965 33.6191 34.7768 33.6191C34.5886 33.6191 34.3841 33.5905 34.1754 33.5291C33.9668 33.4677 33.7786 33.3941 33.6109 33.3041C33.4473 33.2182 33.2959 33.1282 33.1609 33.0423C33.0259 32.9564 32.9195 32.8828 32.8459 32.8214L32.7273 32.7273Z" fill="black"/>
<path d="M8.18182 36.8181H4.09091V40.909H8.18182V36.8181Z" fill="black"/>
<path d="M12.2727 36.8181H8.18182V40.909H12.2727V36.8181Z" fill="black"/>
<path d="M16.3636 36.8181H12.2727V40.909H16.3636V36.8181Z" fill="black"/>
<path d="M20.4545 36.8181H16.3636V40.909H20.4545V36.8181Z" fill="black"/>
<path d="M36.8182 36.8181H32.7273V40.909H36.8182V36.8181Z" fill="black"/>
<path d="M40.9091 36.8181H36.8182V40.909H40.9091V36.8181Z" fill="black"/>
<path d="M8.18182 40.9092H4.09091V45.0001H8.18182V40.9092Z" fill="black"/>
<path d="M20.4545 40.9092H16.3636V45.0001H20.4545V40.9092Z" fill="black"/>
<path d="M28.6364 40.9092H24.5455V45.0001H28.6364V40.9092Z" fill="black"/>
<path d="M32.7273 40.9092H28.6364V45.0001H32.7273V40.9092Z" fill="black"/>
<path d="M36.8182 40.9092H32.7273V45.0001H36.8182V40.9092Z" fill="black"/>
<path d="M40.9091 40.9092H36.8182V45.0001H40.9091V40.9092Z" fill="black"/>
<path d="M45 40.9092H40.9091V45.0001H45V40.9092Z" fill="black"/>
</g>
<defs>
<clipPath id="clip0">
<rect width="45" height="45" fill="white"/>
</clipPath>
</defs>
</svg>
