<svg width="45" height="45" viewBox="0 0 45 45" fill="none" xmlns="http://www.w3.org/2000/svg">
<path d="M4.09091 0C5.45881 1.02273 6.81392 1.02273 8.18182 0C7.15909 1.3679 7.15909 2.72301 8.18182 4.09091C6.81392 3.06818 5.45881 3.06818 4.09091 4.09091C5.11364 2.72301 5.11364 1.3679 4.09091 0ZM8.18182 0C9.54972 1.02273 10.9048 1.02273 12.2727 0C11.25 1.3679 11.25 2.72301 12.2727 4.09091C10.9048 3.06818 9.54972 3.06818 8.18182 4.09091C9.20455 2.72301 9.20455 1.3679 8.18182 0ZM24.5455 0C25.9134 1.02273 27.2685 1.02273 28.6364 0C27.6136 1.3679 27.6136 2.72301 28.6364 4.09091C27.2685 3.06818 25.9134 3.06818 24.5455 4.09091C25.5682 2.72301 25.5682 1.3679 24.5455 0ZM32.7273 0C34.0952 1.02273 35.4503 1.02273 36.8182 0C35.7955 1.3679 35.7955 2.72301 36.8182 4.09091C35.4503 3.06818 34.0952 3.06818 32.7273 4.09091C33.75 2.72301 33.75 1.3679 32.7273 0ZM12.2727 4.09091C13.6406 5.11364 14.9957 5.11364 16.3636 4.09091C15.3409 5.45881 15.3409 6.81392 16.3636 8.18182C14.9957 7.15909 13.6406 7.15909 12.2727 8.18182C13.2955 6.81392 13.2955 5.45881 12.2727 4.09091ZM20.4545 4.09091C21.8224 5.11364 23.1776 5.11364 24.5455 4.09091C23.5227 5.45881 23.5227 6.81392 24.5455 8.18182C23.1776 7.15909 21.8224 7.15909 20.4545 8.18182C21.4773 6.81392 21.4773 5.45881 20.4545 4.09091ZM28.6364 4.09091C30.0043 5.11364 31.3594 5.11364 32.7273 4.09091C31.7045 5.45881 31.7045 6.81392 32.7273 8.18182C31.3594 7.15909 30.0043 7.15909 28.6364 8.18182C29.6591 6.81392 29.6591 5.45881 28.6364 4.09091ZM32.7273 4.09091C34.0952 5.11364 35.4503 5.11364 36.8182 4.09091C35.7955 5.45881 35.7955 6.81392 36.8182 8.18182C35.4503 7.15909 34.0952 7.15909 32.7273 8.18182C33.75 6.81392 33.75 5.45881 32.7273 4.09091ZM36.8182 4.09091C38.1861 5.11364 39.5412 5.11364 40.9091 4.09091C39.8864 5.45881 39.8864 6.81392 40.9091 8.18182C39.5412 7.15909 38.1861 7.15909 36.8182 8.18182C37.8409 6.81392 37.8409 5.45881 36.8182 4.09091ZM40.9091 4.09091C42.277 5.11364 43.6321 5.11364 45 4.09091C43.9773 5.45881 43.9773 6.81392 45 8.18182C43.6321 7.15909 42.277 7.15909 40.9091 8.18182C41.9318 6.81392 41.9318 5.45881 40.9091 4.09091ZM0 8.18182C1.3679 9.20455 2.72301 9.20455 4.09091 8.18182C3.06818 9.54972 3.06818 10.9048 4.09091 12.2727C2.72301 11.25 1.3679 11.25 0 12.2727C1.02273 10.9048 1.02273 9.54972 0 8.18182ZM16.3636 8.18182C17.7315 9.20455 19.0866 9.20455 20.4545 8.18182C19.4318 9.54972 19.4318 10.9048 20.4545 12.2727C19.0866 11.25 17.7315 11.25 16.3636 12.2727C17.3864 10.9048 17.3864 9.54972 16.3636 8.18182ZM20.4545 8.18182C21.8224 9.20455 23.1776 9.20455 24.5455 8.18182C23.5227 9.54972 23.5227 10.9048 24.5455 12.2727C23.1776 11.25 21.8224 11.25 20.4545 12.2727C21.4773 10.9048 21.4773 9.54972 20.4545 8.18182ZM24.5455 8.18182C25.9134 9.20455 27.2685 9.20455 28.6364 8.18182C27.6136 9.54972 27.6136 10.9048 28.6364 12.2727C27.2685 11.25 25.9134 11.25 24.5455 12.2727C25.5682 10.9048 25.5682 9.54972 24.5455 8.18182ZM32.7273 8.18182C34.0952 9.20455 35.4503 9.20455 36.8182 8.18182C35.7955 9.54972 35.7955 10.9048 36.8182 12.2727C35.4503 11.25 34.0952 11.25 32.7273 12.2727C33.75 10.9048 33.75 9.54972 32.7273 8.18182ZM40.9091 8.18182C42.277 9.20455 43.6321 9.20455 45 8.18182C43.9773 9.54972 43.9773 10.9048 45 12.2727C43.6321 11.25 42.277 11.25 40.9091 12.2727C41.9318 10.9048 41.9318 9.54972 40.9091 8.18182ZM0 12.2727C1.3679 13.2955 2.72301 13.2955 4.09091 12.2727C3.06818 13.6406 3.06818 14.9957 4.09091 16.3636C2.72301 15.3409 1.3679 15.3409 0 16.3636C1.02273 14.9957 1.02273 13.6406 0 12.2727ZM4.09091 12.2727C5.45881 13.2955 6.81392 13.2955 8.18182 12.2727C7.15909 13.6406 7.15909 14.9957 8.18182 16.3636C6.81392 15.3409 5.45881 15.3409 4.09091 16.3636C5.11364 14.9957 5.11364 13.6406 4.09091 12.2727ZM28.6364 12.2727C30.0043 13.2955 31.3594 13.2955 32.7273 12.2727C31.7045 13.6406 31.7045 14.9957 32.7273 16.3636C31.3594 15.3409 30.0043 15.3409 28.6364 16.3636C29.6591 14.9957 29.6591 13.6406 28.6364 12.2727ZM36.8182 12.2727C38.1861 13.2955 39.5412 13.2955 40.9091 12.2727C39.8864 13.6406 39.8864 14.9957 40.9091 16.3636C39.5412 15.3409 38.1861 15.3409 36.8182 16.3636C37.8409 14.9957 37.8409 13.6406 36.8182 12.2727ZM8.18182 16.3636C9.54972 17.3864 10.9048 17.3864 12.2727 16.3636C11.25 17.7315 11.25 19.0866 12.2727 20.4545C10.9048 19.4318 9.54972 19.4318 8.18182 20.4545C9.20455 19.0866 9.20455 17.7315 8.18182 16.3636ZM12.2727 16.3636C13.6406 17.3864 14.9957 17.3864 16.3636 16.3636C15.3409 17.7315 15.3409 19.0866 16.3636 20.4545C14.9957 19.4318 13.6406 19.4318 12.2727 20.4545C13.2955 19.0866 13.2955 17.7315 12.2727 16.3636ZM20.4545 16.3636C21.8224 17.3864 23.1776 17.3864 24.5455 16.3636C23.5227 17.7315 23.5227 19.0866 24.5455 20.4545C23.1776 19.4318 21.8224 19.4318 20.4545 20.4545C21.4773 19.0866 21.4773 17.7315 20.4545 16.3636ZM24.5455 16.3636C25.9134 17.3864 27.2685 17.3864 28.6364 16.3636C27.6136 17.7315 27.6136 19.0866 28.6364 20.4545C27.2685 19.4318 25.9134 19.4318 24.5455 20.4545C25.5682 19.0866 25.5682 17.7315 24.5455 16.3636ZM32.7273 16.3636C34.0952 17.3864 35.4503 17.3864 36.8182 16.3636C35.7955 17.7315 35.7955 19.0866 36.8182 20.4545C35.4503 19.4318 34.0952 19.4318 32.7273 20.4545C33.75 19.0866 33.75 17.7315 32.7273 16.3636ZM8.18182 20.4545C9.54972 21.4773 10.9048 21.4773 12.2727 20.4545C11.25 21.8224 11.25 23.1776 12.2727 24.5455C10.9048 23.5227 9.54972 23.5227 8.18182 24.5455C9.20455 23.1776 9.20455 21.8224 8.18182 20.4545ZM20.4545 20.4545C21.8224 21.4773 23.1776 21.4773 24.5455 20.4545C23.5227 21.8224 23.5227 23.1776 24.5455 24.5455C23.1776 23.5227 21.8224 23.5227 20.4545 24.5455C21.4773 23.1776 21.4773 21.8224 20.4545 20.4545ZM28.6364 20.4545C30.0043 21.4773 31.3594 21.4773 32.7273 20.4545C31.7045 21.8224 31.7045 23.1776 32.7273 24.5455C31.3594 23.5227 30.0043 23.5227 28.6364 24.5455C29.6591 23.1776 29.6591 21.8224 28.6364 20.4545ZM32.7273 20.4545C34.0952 21.4773 35.4503 21.4773 36.8182 20.4545C35.7955 21.8224 35.7955 23.1776 36.8182 24.5455C35.4503 23.5227 34.0952 23.5227 32.7273 24.5455C33.75 23.1776 33.75 21.8224 32.7273 20.4545ZM0 24.5455C1.3679 25.5682 2.72301 25.5682 4.09091 24.5455C3.06818 25.9134 3.06818 27.2685 4.09091 28.6364C2.72301 27.6136 1.3679 27.6136 0 28.6364C1.02273 27.2685 1.02273 25.9134 0 24.5455ZM4.09091 24.5455C5.45881 25.5682 6.81392 25.5682 8.18182 24.5455C7.15909 25.9134 7.15909 27.2685 8.18182 28.6364C6.81392 27.6136 5.45881 27.6136 4.09091 28.6364C5.11364 27.2685 5.11364 25.9134 4.09091 24.5455ZM12.2727 24.5455C13.6406 25.5682 14.9957 25.5682 16.3636 24.5455C15.3409 25.9134 15.3409 27.2685 16.3636 28.6364C14.9957 27.6136 13.6406 27.6136 12.2727 28.6364C13.2955 27.2685 13.2955 25.9134 12.2727 24.5455ZM24.5455 24.5455C25.9134 25.5682 27.2685 25.5682 28.6364 24.5455C27.6136 25.9134 27.6136 27.2685 28.6364 28.6364C27.2685 27.6136 25.9134 27.6136 24.5455 28.6364C25.5682 27.2685 25.5682 25.9134 24.5455 24.5455ZM28.6364 24.5455C30.0043 25.5682 31.3594 25.5682 32.7273 24.5455C31.7045 25.9134 31.7045 27.2685 32.7273 28.6364C31.3594 27.6136 30.0043 27.6136 28.6364 28.6364C29.6591 27.2685 29.6591 25.9134 28.6364 24.5455ZM36.8182 24.5455C38.1861 25.5682 39.5412 25.5682 40.9091 24.5455C39.8864 25.9134 39.8864 27.2685 40.9091 28.6364C39.5412 27.6136 38.1861 27.6136 36.8182 28.6364C37.8409 27.2685 37.8409 25.9134 36.8182 24.5455ZM40.9091 24.5455C42.277 25.5682 43.6321 25.5682 45 24.5455C43.9773 25.9134 43.9773 27.2685 45 28.6364C43.6321 27.6136 42.277 27.6136 40.9091 28.6364C41.9318 27.2685 41.9318 25.9134 40.9091 24.5455ZM0 28.6364C1.3679 29.6591 2.72301 29.6591 4.09091 28.6364C3.06818 30.0043 3.06818 31.3594 4.09091 32.7273C2.72301 31.7045 1.3679 31.7045 0 32.7273C1.02273 31.3594 1.02273 30.0043 0 28.6364ZM8.18182 28.6364C9.54972 29.6591 10.9048 29.6591 12.2727 28.6364C11.25 30.0043 11.25 31.3594 12.2727 32.7273C10.9048 31.7045 9.54972 31.7045 8.18182 32.7273C9.20455 31.3594 9.20455 30.0043 8.18182 28.6364ZM16.3636 28.6364C17.7315 29.6591 19.0866 29.6591 20.4545 28.6364C19.4318 30.0043 19.4318 31.3594 20.4545 32.7273C19.0866 31.7045 17.7315 31.7045 16.3636 32.7273C17.3864 31.3594 17.3864 30.0043 16.3636 28.6364ZM24.5455 28.6364C25.9134 29.6591 27.2685 29.6591 28.6364 28.6364C27.6136 30.0043 27.6136 31.3594 28.6364 32.7273C27.2685 31.7045 25.9134 31.7045 24.5455 32.7273C25.5682 31.3594 25.5682 30.0043 24.5455 28.6364ZM36.8182 28.6364C38.1861 29.6591 39.5412 29.6591 40.9091 28.6364C39.8864 30.0043 39.8864 31.3594 40.9091 32.7273C39.5412 31.7045 38.1861 31.7045 36.8182 32.7273C37.8409 31.3594 37.8409 30.0043 36.8182 28.6364ZM0 32.7273C1.3679 33.75 2.72301 33.75 4.09091 32.7273C3.06818 34.0952 3.06818 35.4503 4.09091 36.8182C2.72301 35.7955 1.3679 35.7955 0 36.8182C1.02273 35.4503 1.02273 34.0952 0 32.7273ZM4.09091 32.7273C5.45881 33.75 6.81392 33.75 8.18182 32.7273C7.15909 34.0952 7.15909 35.4503 8.18182 36.8182C6.81392 35.7955 5.45881 35.7955 4.09091 36.8182C5.11364 35.4503 5.11364 34.0952 4.09091 32.7273ZM8.18182 32.7273C9.54972 33.75 10.9048 33.75 12.2727 32.7273C11.25 34.0952 11.25 35.4503 12.2727 36.8182C10.9048 35.7955 9.54972 35.7955 8.18182 36.8182C9.20455 35.4503 9.20455 34.0952 8.18182 32.7273ZM16.3636 32.7273C17.7315 33.75 19.0866 33.75 20.4545 32.7273C19.4318 34.0952 19.4318 35.4503 20.4545 36.8182C19.0866 35.7955 17.7315 35.7955 16.3636 36.8182C17.3864 35.4503 17.3864 34.0952 16.3636 32.7273ZM24.5455 32.7273C25.9134 33.75 27.2685 33.75 28.6364 32.7273C27.6136 34.0952 27.6136 35.4503 28.6364 36.8182C27.2685 35.7955 25.9134 35.7955 24.5455 36.8182C25.5682 35.4503 25.5682 34.0952 24.5455 32.7273ZM32.7273 32.7273C34.0952 33.75 35.4503 33.75 36.8182 32.7273C35.7955 34.0952 35.7955 35.4503 36.8182 36.8182C35.4503 35.7955 34.0952 35.7955 32.7273 36.8182C33.75 35.4503 33.75 34.0952 32.7273 32.7273ZM4.09091 36.8182C5.45881 37.8409 6.81392 37.8409 8.18182 36.8182C7.15909 38.1861 7.15909 39.5412 8.18182 40.9091C6.81392 39.8864 5.45881 39.8864 4.09091 40.9091C5.11364 39.5412 5.11364 38.1861 4.09091 36.8182ZM8.18182 36.8182C9.54972 37.8409 10.9048 37.8409 12.2727 36.8182C11.25 38.1861 11.25 39.5412 12.2727 40.9091C10.9048 39.8864 9.54972 39.8864 8.18182 40.9091C9.20455 39.5412 9.20455 38.1861 8.18182 36.8182ZM12.2727 36.8182C13.6406 37.8409 14.9957 37.8409 16.3636 36.8182C15.3409 38.1861 15.3409 39.5412 16.3636 40.9091C14.9957 39.8864 13.6406 39.8864 12.2727 40.9091C13.2955 39.5412 13.2955 38.1861 12.2727 36.8182ZM16.3636 36.8182C17.7315 37.8409 19.0866 37.8409 20.4545 36.8182C19.4318 38.1861 19.4318 39.5412 20.4545 40.9091C19.0866 39.8864 17.7315 39.8864 16.3636 40.9091C17.3864 39.5412 17.3864 38.1861 16.3636 36.8182ZM32.7273 36.8182C34.0952 37.8409 35.4503 37.8409 36.8182 36.8182C35.7955 38.1861 35.7955 39.5412 36.8182 40.9091C35.4503 39.8864 34.0952 39.8864 32.7273 40.9091C33.75 39.5412 33.75 38.1861 32.7273 36.8182ZM36.8182 36.8182C38.1861 37.8409 39.5412 37.8409 40.9091 36.8182C39.8864 38.1861 39.8864 39.5412 40.9091 40.9091C39.5412 39.8864 38.1861 39.8864 36.8182 40.9091C37.8409 39.5412 37.8409 38.1861 36.8182 36.8182ZM4.09091 40.9091C5.45881 41.9318 6.81392 41.9318 8.18182 40.9091C7.15909 42.277 7.15909 43.6321 8.18182 45C6.81392 43.9773 5.45881 43.9773 4.09091 45C5.11364 43.6321 5.11364 42.277 4.09091 40.9091ZM16.3636 40.9091C17.7315 41.9318 19.0866 41.9318 20.4545 40.9091C19.4318 42.277 19.4318 43.6321 20.4545 45C19.0866 43.9773 17.7315 43.9773 16.3636 45C17.3864 43.6321 17.3864 42.277 16.3636 40.9091ZM24.5455 40.9091C25.9134 41.9318 27.2685 41.9318 28.6364 40.9091C27.6136 42.277 27.6136 43.6321 28.6364 45C27.2685 43.9773 25.9134 43.9773 24.5455 45C25.5682 43.6321 25.5682 42.277 24.5455 40.9091ZM28.6364 40.9091C30.0043 41.9318 31.3594 41.9318 32.7273 40.9091C31.7045 42.277 31.7045 43.6321 32.7273 45C31.3594 43.9773 30.0043 43.9773 28.6364 45C29.6591 43.6321 29.6591 42.277 28.6364 40.9091ZM32.7273 40.9091C34.0952 41.9318 35.4503 41.9318 36.8182 40.9091C35.7955 42.277 35.7955 43.6321 36.8182 45C35.4503 43.9773 34.0952 43.9773 32.7273 45C33.75 43.6321 33.75 42.277 32.7273 40.9091ZM36.8182 40.9091C38.1861 41.9318 39.5412 41.9318 40.9091 40.9091C39.8864 42.277 39.8864 43.6321 40.9091 45C39.5412 43.9773 38.1861 43.9773 36.8182 45C37.8409 43.6321 37.8409 42.277 36.8182 40.9091ZM40.9091 40.9091C42.277 41.9318 43.6321 41.9318 45 40.9091C43.9773 42.277 43.9773 43.6321 45 45C43.6321 43.9773 42.277 43.9773 40.9091 45C41.9318 43.6321 41.9318 42.277 40.9091 40.9091Z" fill="black"/>
</svg>
