<svg width="45" height="45" viewBox="0 0 45 45" fill="none" xmlns="http://www.w3.org/2000/svg">
<g clip-path="url(#clip0)">
<path d="M98.1818 -53.1819H-53.1819V98.1818H98.1818V-53.1819Z" fill="white"/>
<path d="M8.18182 0H4.09091V2.68364C4.09091 3.07227 4.23 3.40364 4.50409 3.67773C4.77818 3.95182 5.10955 4.09091 5.49819 4.09091H8.18182V0Z" fill="black"/>
<path d="M8.18182 4.09091L12.2727 2.04545L8.18182 0V4.09091Z" fill="black"/>
<path d="M28.6364 2.04545L26.5909 0L24.5455 2.04545L26.5909 4.09091L28.6364 2.04545Z" fill="black"/>
<path d="M36.8182 4.09091L34.7727 0L32.7273 4.09091H36.8182Z" fill="black"/>
<path d="M16.3636 6.13627L14.3182 4.09082L12.2727 6.13627L14.3182 8.18173L16.3636 6.13627Z" fill="black"/>
<path d="M24.5455 8.18173L22.5 4.09082L20.4546 8.18173H24.5455Z" fill="black"/>
<path d="M32.7273 8.18173L28.6364 6.13627L32.7273 4.09082V8.18173Z" fill="black"/>
<path d="M36.8182 4.09082H32.7273V8.18173H36.8182V4.09082Z" fill="black"/>
<path d="M40.9091 4.09082H36.8182V8.18173H40.9091V4.09082Z" fill="black"/>
<path d="M45 4.09082H40.9091V8.18173H45V4.09082Z" fill="black"/>
<path d="M4.09091 12.2728L2.04545 8.18188L0 12.2728H4.09091Z" fill="black"/>
<path d="M20.4546 12.2728L16.3636 10.2273L20.4546 8.18188V12.2728Z" fill="black"/>
<path d="M24.5455 8.18188H20.4546V12.2728H24.5455V8.18188Z" fill="black"/>
<path d="M24.5455 12.2728L28.6364 10.2273L24.5455 8.18188V12.2728Z" fill="black"/>
<path d="M32.7273 8.18188L34.7727 12.2728L36.8182 8.18188H32.7273Z" fill="black"/>
<path d="M45 8.18188H40.9091V10.8655C40.9091 11.2542 41.0482 11.5855 41.3223 11.8596C41.5964 12.1337 41.9277 12.2728 42.3164 12.2728H45V8.18188Z" fill="black"/>
<path d="M4.09091 12.2727H0V14.9563C0 15.345 0.13909 15.6763 0.413181 15.9504C0.687272 16.2245 1.01864 16.3636 1.40727 16.3636H4.09091V12.2727Z" fill="black"/>
<path d="M4.09091 16.3636L8.18182 14.3182L4.09091 12.2727V16.3636Z" fill="black"/>
<path d="M32.7273 14.3182L30.6818 12.2727L28.6364 14.3182L30.6818 16.3636L32.7273 14.3182Z" fill="black"/>
<path d="M40.9091 14.3182L38.8636 12.2727L36.8182 14.3182L38.8636 16.3636L40.9091 14.3182Z" fill="black"/>
<path d="M12.2727 17.7708V16.3635H9.5891C9.20046 16.3635 8.8691 16.5026 8.595 16.7767C8.32091 17.0508 8.18182 17.3822 8.18182 17.7708V20.4544H12.2727V17.7708Z" fill="black"/>
<path d="M12.2727 20.4544L16.3636 18.409L12.2727 16.3635V20.4544Z" fill="black"/>
<path d="M24.5455 17.7708V16.3635H21.8618C21.4732 16.3635 21.1418 16.5026 20.8677 16.7767C20.5936 17.0508 20.4546 17.3822 20.4546 17.7708V20.4544H24.5455V17.7708Z" fill="black"/>
<path d="M24.5455 20.4544L28.6364 18.409L24.5455 16.3635V20.4544Z" fill="black"/>
<path d="M36.8182 20.4544L34.7727 16.3635L32.7273 20.4544H36.8182Z" fill="black"/>
<path d="M8.18182 20.4546L10.2273 24.5455L12.2727 20.4546H8.18182Z" fill="black"/>
<path d="M20.4546 20.4546L22.5 24.5455L24.5455 20.4546H20.4546Z" fill="black"/>
<path d="M32.7273 21.8619V20.4546H30.0436C29.655 20.4546 29.3236 20.5937 29.0495 20.8678C28.7754 21.1419 28.6364 21.4732 28.6364 21.8619V24.5455H32.7273V21.8619Z" fill="black"/>
<path d="M36.8182 20.4546H32.7273V24.5455H35.4109C35.7995 24.5455 36.1309 24.4064 36.405 24.1323C36.6791 23.8582 36.8182 23.5269 36.8182 23.1382V20.4546Z" fill="black"/>
<path d="M4.09091 25.9527V24.5454H1.40727C1.01864 24.5454 0.687272 24.6845 0.413181 24.9586C0.13909 25.2327 0 25.564 0 25.9527V28.6363H4.09091V25.9527Z" fill="black"/>
<path d="M4.09091 28.6363L8.18182 26.5909L4.09091 24.5454V28.6363Z" fill="black"/>
<path d="M16.3636 26.5909L14.3182 24.5454L12.2727 26.5909L14.3182 28.6363L16.3636 26.5909Z" fill="black"/>
<path d="M28.6364 25.9527V24.5454H25.9527C25.5641 24.5454 25.2327 24.6845 24.9587 24.9586C24.6846 25.2327 24.5455 25.564 24.5455 25.9527V28.6363H28.6364V25.9527Z" fill="black"/>
<path d="M32.7273 24.5454H28.6364V28.6363H31.32C31.7086 28.6363 32.04 28.4972 32.3141 28.2231C32.5882 27.949 32.7273 27.6177 32.7273 27.229V24.5454Z" fill="black"/>
<path d="M40.9091 25.9527V24.5454H38.2255C37.8368 24.5454 37.5054 24.6845 37.2314 24.9586C36.9573 25.2327 36.8182 25.564 36.8182 25.9527V28.6363H40.9091V25.9527Z" fill="black"/>
<path d="M45 24.5454H40.9091V28.6363H45V24.5454Z" fill="black"/>
<path d="M4.09091 28.6365H0V32.7274H4.09091V28.6365Z" fill="black"/>
<path d="M12.2727 32.7274L10.2273 28.6365L8.18182 32.7274H12.2727Z" fill="black"/>
<path d="M20.4546 32.7274L18.4091 28.6365L16.3636 32.7274H20.4546Z" fill="black"/>
<path d="M28.6364 28.6365H24.5455V32.7274H28.6364V28.6365Z" fill="black"/>
<path d="M36.8182 28.6365L38.8636 32.7274L40.9091 28.6365H36.8182Z" fill="black"/>
<path d="M4.09091 32.7273H0V35.4109C0 35.7996 0.13909 36.1309 0.413181 36.405C0.687272 36.6791 1.01864 36.8182 1.40727 36.8182H4.09091V32.7273Z" fill="black"/>
<path d="M8.18182 32.7273H4.09091V36.8182H8.18182V32.7273Z" fill="black"/>
<path d="M12.2727 32.7273H8.18182V36.8182H12.2727V32.7273Z" fill="black"/>
<path d="M20.4546 32.7273H16.3636V36.8182H20.4546V32.7273Z" fill="black"/>
<path d="M24.5455 32.7273L26.5909 36.8182L28.6364 32.7273H24.5455Z" fill="black"/>
<path d="M36.8182 36.8182L34.7727 32.7273L32.7273 36.8182H36.8182Z" fill="black"/>
<path d="M8.18182 36.8181H4.09091V40.909H8.18182V36.8181Z" fill="black"/>
<path d="M12.2727 36.8181H8.18182V40.909H12.2727V36.8181Z" fill="black"/>
<path d="M16.3636 36.8181H12.2727V40.909H16.3636V36.8181Z" fill="black"/>
<path d="M20.4546 36.8181H16.3636V40.909H20.4546V36.8181Z" fill="black"/>
<path d="M36.8182 36.8181H32.7273V40.909H36.8182V36.8181Z" fill="black"/>
<path d="M40.9091 38.2254C40.9091 37.8368 40.77 37.5054 40.4959 37.2313C40.2218 36.9572 39.8905 36.8181 39.5018 36.8181H36.8182V40.909H40.9091V38.2254Z" fill="black"/>
<path d="M8.18182 40.9092H4.09091V45.0001H8.18182V40.9092Z" fill="black"/>
<path d="M20.4546 40.9092H16.3636V45.0001H20.4546V40.9092Z" fill="black"/>
<path d="M28.6364 42.3165V40.9092H25.9527C25.5641 40.9092 25.2327 41.0483 24.9587 41.3224C24.6846 41.5965 24.5455 41.9278 24.5455 42.3165V45.0001H28.6364V42.3165Z" fill="black"/>
<path d="M32.7273 40.9092H28.6364V45.0001H32.7273V40.9092Z" fill="black"/>
<path d="M36.8182 40.9092H32.7273V45.0001H36.8182V40.9092Z" fill="black"/>
<path d="M40.9091 40.9092H36.8182V45.0001H40.9091V40.9092Z" fill="black"/>
<path d="M45 40.9092H40.9091V45.0001H45V40.9092Z" fill="black"/>
</g>
<defs>
<clipPath id="clip0">
<rect width="45" height="45" fill="white"/>
</clipPath>
</defs>
</svg>
