<svg width="45" height="45" viewBox="0 0 45 45" fill="none" xmlns="http://www.w3.org/2000/svg">
<g clip-path="url(#clip0)">
<path d="M98.1818 -53.1819H-53.1819V98.1818H98.1818V-53.1819Z" fill="white"/>
<path d="M5.49819 4.09091H8.18182V0H4.09091V2.68364" fill="black"/>
<path d="M10.6118 0H8.18182V4.09091H10.6118L12.2727 2.04545L10.6118 0Z" fill="black"/>
<path d="M28.6364 2.04545L26.5909 0L24.5455 2.04545L26.5909 4.09091L28.6364 2.04545Z" fill="black"/>
<path d="M36.8182 1.66091V4.09091H32.7273V1.66091L34.7727 0L36.8182 1.66091Z" fill="black"/>
<path d="M16.3636 6.13627L14.3182 4.09082L12.2727 6.13627L14.3182 8.18173L16.3636 6.13627Z" fill="black"/>
<path d="M24.5455 5.75173V8.18173H20.4545V5.75173L22.5 4.09082L24.5455 5.75173Z" fill="black"/>
<path d="M30.2973 4.09082H32.7273V8.18173H30.2973L28.6364 6.13627L30.2973 4.09082Z" fill="black"/>
<path d="M36.8182 4.09082H32.7273V8.18173H36.8182V4.09082Z" fill="black"/>
<path d="M40.9091 4.09082H36.8182V8.18173H40.9091V4.09082Z" fill="black"/>
<path d="M45 4.09082H40.9091V8.18173H45V4.09082Z" fill="black"/>
<path d="M4.09091 9.84279V12.2728H0V9.84279L2.04545 8.18188L4.09091 9.84279Z" fill="black"/>
<path d="M18.0245 8.18188H20.4545V12.2728H18.0245L16.3636 10.2273L18.0245 8.18188Z" fill="black"/>
<path d="M24.5455 8.18188H20.4545V12.2728H24.5455V8.18188Z" fill="black"/>
<path d="M26.9755 8.18188H24.5455V12.2728H26.9755L28.6364 10.2273L26.9755 8.18188Z" fill="black"/>
<path d="M36.8182 10.6119V8.18188H32.7273V10.6119L34.7727 12.2728L36.8182 10.6119Z" fill="black"/>
<path d="M42.3164 12.2728H45V8.18188H40.9091V10.8655" fill="black"/>
<path d="M1.40727 16.3636H4.09091V12.2727H0V14.9563" fill="black"/>
<path d="M6.52091 12.2727H4.09091V16.3636H6.52091L8.18182 14.3182L6.52091 12.2727Z" fill="black"/>
<path d="M32.7273 14.3182L30.6818 12.2727L28.6364 14.3182L30.6818 16.3636L32.7273 14.3182Z" fill="black"/>
<path d="M40.9091 14.3182L38.8636 12.2727L36.8182 14.3182L38.8636 16.3636L40.9091 14.3182Z" fill="black"/>
<path d="M8.18182 17.7708V20.4544H12.2727V17.7708V16.3635H9.5891" fill="black"/>
<path d="M14.7027 16.3635H12.2727V20.4544H14.7027L16.3636 18.409L14.7027 16.3635Z" fill="black"/>
<path d="M20.4545 17.7708V20.4544H24.5455V17.7708V16.3635H21.8618" fill="black"/>
<path d="M26.9755 16.3635H24.5455V20.4544H26.9755L28.6364 18.409L26.9755 16.3635Z" fill="black"/>
<path d="M36.8182 18.0244V20.4544H32.7273V18.0244L34.7727 16.3635L36.8182 18.0244Z" fill="black"/>
<path d="M12.2727 22.8846V20.4546H8.18182V22.8846L10.2273 24.5455L12.2727 22.8846Z" fill="black"/>
<path d="M24.5455 22.8846V20.4546H20.4545V22.8846L22.5 24.5455L24.5455 22.8846Z" fill="black"/>
<path d="M28.6364 21.8619V24.5455H32.7273V21.8619V20.4546H30.0436" fill="black"/>
<path d="M36.8182 23.1382V20.4546H32.7273V24.5455H35.4109" fill="black"/>
<path d="M0 25.9527V28.6363H4.09091V25.9527V24.5454H1.40727" fill="black"/>
<path d="M6.52091 24.5454H4.09091V28.6363H6.52091L8.18182 26.5909L6.52091 24.5454Z" fill="black"/>
<path d="M16.3636 26.5909L14.3182 24.5454L12.2727 26.5909L14.3182 28.6363L16.3636 26.5909Z" fill="black"/>
<path d="M24.5455 25.9527V28.6363H28.6364V25.9527V24.5454H25.9527" fill="black"/>
<path d="M32.7273 27.229V24.5454H28.6364V28.6363H31.32" fill="black"/>
<path d="M36.8182 25.9527V28.6363H40.9091V25.9527V24.5454H38.2255" fill="black"/>
<path d="M45 24.5454H40.9091V28.6363H45V24.5454Z" fill="black"/>
<path d="M4.09091 28.6365H0V32.7274H4.09091V28.6365Z" fill="black"/>
<path d="M12.2727 30.2974V32.7274H8.18182V30.2974L10.2273 28.6365L12.2727 30.2974Z" fill="black"/>
<path d="M20.4545 30.2974V32.7274H16.3636V30.2974L18.4091 28.6365L20.4545 30.2974Z" fill="black"/>
<path d="M28.6364 28.6365H24.5455V32.7274H28.6364V28.6365Z" fill="black"/>
<path d="M40.9091 31.0665V28.6365H36.8182V31.0665L38.8636 32.7274L40.9091 31.0665Z" fill="black"/>
<path d="M1.40727 36.8182H4.09091V32.7273H0V35.4109" fill="black"/>
<path d="M8.18182 32.7273H4.09091V36.8182H8.18182V32.7273Z" fill="black"/>
<path d="M12.2727 32.7273H8.18182V36.8182H12.2727V32.7273Z" fill="black"/>
<path d="M20.4545 32.7273H16.3636V36.8182H20.4545V32.7273Z" fill="black"/>
<path d="M28.6364 35.1573V32.7273H24.5455V35.1573L26.5909 36.8182L28.6364 35.1573Z" fill="black"/>
<path d="M36.8182 34.3882V36.8182H32.7273V34.3882L34.7727 32.7273L36.8182 34.3882Z" fill="black"/>
<path d="M8.18182 36.8181H4.09091V40.909H8.18182V36.8181Z" fill="black"/>
<path d="M12.2727 36.8181H8.18182V40.909H12.2727V36.8181Z" fill="black"/>
<path d="M16.3636 36.8181H12.2727V40.909H16.3636V36.8181Z" fill="black"/>
<path d="M20.4545 36.8181H16.3636V40.909H20.4545V36.8181Z" fill="black"/>
<path d="M36.8182 36.8181H32.7273V40.909H36.8182V36.8181Z" fill="black"/>
<path d="M40.9091 38.2254L39.5018 36.8181H36.8182V40.909H40.9091V38.2254Z" fill="black"/>
<path d="M8.18182 40.9092H4.09091V45.0001H8.18182V40.9092Z" fill="black"/>
<path d="M20.4545 40.9092H16.3636V45.0001H20.4545V40.9092Z" fill="black"/>
<path d="M24.5455 42.3165V45.0001H28.6364V42.3165V40.9092H25.9527" fill="black"/>
<path d="M32.7273 40.9092H28.6364V45.0001H32.7273V40.9092Z" fill="black"/>
<path d="M36.8182 40.9092H32.7273V45.0001H36.8182V40.9092Z" fill="black"/>
<path d="M40.9091 40.9092H36.8182V45.0001H40.9091V40.9092Z" fill="black"/>
<path d="M45 40.9092H40.9091V45.0001H45V40.9092Z" fill="black"/>
</g>
<defs>
<clipPath id="clip0">
<rect width="45" height="45" fill="white"/>
</clipPath>
</defs>
</svg>
