<svg width="45" height="45" viewBox="0 0 45 45" fill="none" xmlns="http://www.w3.org/2000/svg">
<g clip-path="url(#clip0)">
<path d="M98.1818 -53.1819H-53.1818V98.1818H98.1818V-53.1819Z" fill="white"/>
<path d="M8.18182 0H4.09091V4.09091H8.18182V0Z" fill="black"/>
<path d="M12.2727 4.09091H8.18182V0H10.6118L12.2727 4.09091Z" fill="black"/>
<path d="M28.6364 0H24.5455V4.09091H28.6364V0Z" fill="black"/>
<path d="M36.8182 0V4.09091H32.7273V1.66091L36.8182 0Z" fill="black"/>
<path d="M16.3636 4.09082H12.2727V8.18173H16.3636V4.09082Z" fill="black"/>
<path d="M24.5455 4.09082V8.18173H20.4545V5.75173L24.5455 4.09082Z" fill="black"/>
<path d="M28.6364 4.09082H32.7273V8.18173H30.2973L28.6364 4.09082Z" fill="black"/>
<path d="M36.8182 4.09082H32.7273V8.18173H36.8182V4.09082Z" fill="black"/>
<path d="M40.9091 4.09082H36.8182V8.18173H40.9091V4.09082Z" fill="black"/>
<path d="M45 4.09082H40.9091V8.18173H45V4.09082Z" fill="black"/>
<path d="M4.09091 8.18188V12.2728H0V9.84279L4.09091 8.18188Z" fill="black"/>
<path d="M16.3636 8.18188H20.4545V12.2728H18.0245L16.3636 8.18188Z" fill="black"/>
<path d="M24.5455 8.18188H20.4545V12.2728H24.5455V8.18188Z" fill="black"/>
<path d="M28.6364 12.2728H24.5455V8.18188H26.9755L28.6364 12.2728Z" fill="black"/>
<path d="M32.7273 12.2728V8.18188H36.8182V10.6119L32.7273 12.2728Z" fill="black"/>
<path d="M45 8.18188H40.9091V12.2728H45V8.18188Z" fill="black"/>
<path d="M4.09091 12.2727H0V16.3636H4.09091V12.2727Z" fill="black"/>
<path d="M8.18182 16.3636H4.09091V12.2727H6.52091L8.18182 16.3636Z" fill="black"/>
<path d="M32.7273 12.2727H28.6364V16.3636H32.7273V12.2727Z" fill="black"/>
<path d="M40.9091 12.2727H36.8182V16.3636H40.9091V12.2727Z" fill="black"/>
<path d="M12.2727 16.3635H8.18182V20.4544H12.2727V16.3635Z" fill="black"/>
<path d="M16.3636 20.4544H12.2727V16.3635H14.7027L16.3636 20.4544Z" fill="black"/>
<path d="M24.5455 16.3635H20.4545V20.4544H24.5455V16.3635Z" fill="black"/>
<path d="M28.6364 20.4544H24.5455V16.3635H26.9755L28.6364 20.4544Z" fill="black"/>
<path d="M36.8182 16.3635V20.4544H32.7273V18.0244L36.8182 16.3635Z" fill="black"/>
<path d="M8.18182 24.5455V20.4546H12.2727V22.8846L8.18182 24.5455Z" fill="black"/>
<path d="M20.4545 24.5455V20.4546H24.5455V22.8846L20.4545 24.5455Z" fill="black"/>
<path d="M32.7273 20.4546H28.6364V24.5455H32.7273V20.4546Z" fill="black"/>
<path d="M36.8182 20.4546H32.7273V24.5455H36.8182V20.4546Z" fill="black"/>
<path d="M4.09091 24.5454H0V28.6363H4.09091V24.5454Z" fill="black"/>
<path d="M8.18182 28.6363H4.09091V24.5454H6.52091L8.18182 28.6363Z" fill="black"/>
<path d="M16.3636 24.5454H12.2727V28.6363H16.3636V24.5454Z" fill="black"/>
<path d="M28.6364 24.5454H24.5455V28.6363H28.6364V24.5454Z" fill="black"/>
<path d="M32.7273 24.5454H28.6364V28.6363H32.7273V24.5454Z" fill="black"/>
<path d="M40.9091 24.5454H36.8182V28.6363H40.9091V24.5454Z" fill="black"/>
<path d="M45 24.5454H40.9091V28.6363H45V24.5454Z" fill="black"/>
<path d="M4.09091 28.6365H0V32.7274H4.09091V28.6365Z" fill="black"/>
<path d="M12.2727 28.6365V32.7274H8.18182V30.2974L12.2727 28.6365Z" fill="black"/>
<path d="M20.4545 28.6365V32.7274H16.3636V30.2974L20.4545 28.6365Z" fill="black"/>
<path d="M28.6364 28.6365H24.5455V32.7274H28.6364V28.6365Z" fill="black"/>
<path d="M36.8182 32.7274V28.6365H40.9091V31.0665L36.8182 32.7274Z" fill="black"/>
<path d="M4.09091 32.7273H0V36.8182H4.09091V32.7273Z" fill="black"/>
<path d="M8.18182 32.7273H4.09091V36.8182H8.18182V32.7273Z" fill="black"/>
<path d="M12.2727 32.7273H8.18182V36.8182H12.2727V32.7273Z" fill="black"/>
<path d="M20.4545 32.7273H16.3636V36.8182H20.4545V32.7273Z" fill="black"/>
<path d="M24.5455 36.8182V32.7273H28.6364V35.1573L24.5455 36.8182Z" fill="black"/>
<path d="M36.8182 32.7273V36.8182H32.7273V34.3882L36.8182 32.7273Z" fill="black"/>
<path d="M8.18182 36.8181H4.09091V40.909H8.18182V36.8181Z" fill="black"/>
<path d="M12.2727 36.8181H8.18182V40.909H12.2727V36.8181Z" fill="black"/>
<path d="M16.3636 36.8181H12.2727V40.909H16.3636V36.8181Z" fill="black"/>
<path d="M20.4545 36.8181H16.3636V40.909H20.4545V36.8181Z" fill="black"/>
<path d="M36.8182 36.8181H32.7273V40.909H36.8182V36.8181Z" fill="black"/>
<path d="M40.9091 36.8181H36.8182V40.909H40.9091V36.8181Z" fill="black"/>
<path d="M8.18182 40.9092H4.09091V45.0001H8.18182V40.9092Z" fill="black"/>
<path d="M20.4545 40.9092H16.3636V45.0001H20.4545V40.9092Z" fill="black"/>
<path d="M28.6364 40.9092H24.5455V45.0001H28.6364V40.9092Z" fill="black"/>
<path d="M32.7273 40.9092H28.6364V45.0001H32.7273V40.9092Z" fill="black"/>
<path d="M36.8182 40.9092H32.7273V45.0001H36.8182V40.9092Z" fill="black"/>
<path d="M40.9091 40.9092H36.8182V45.0001H40.9091V40.9092Z" fill="black"/>
<path d="M45 40.9092H40.9091V45.0001H45V40.9092Z" fill="black"/>
</g>
<defs>
<clipPath id="clip0">
<rect width="45" height="45" fill="white"/>
</clipPath>
</defs>
</svg>
