<svg width="35" height="35" viewBox="0 0 35 35" fill="none" xmlns="http://www.w3.org/2000/svg">
<path d="M33.6994 33.1745L34.9942 30.9348L33.6994 28.6952L34.9942 26.4556L33.6994 24.216L34.9942 21.9763L33.6994 19.7367L34.9942 17.4971L33.6994 15.2575L34.9942 13.0178L33.6994 10.7782L34.9942 8.53858L33.6994 6.29895L34.9942 4.05932L33.6994 1.8197L34.4343 0.559906L33.1745 1.29478L30.9348 0L28.6952 1.29478L26.4556 0L24.216 1.29478L21.9763 0L19.7367 1.29478L17.4971 0L15.2575 1.29478L13.0178 0L10.7782 1.29478L8.53859 0L6.29895 1.29478L4.05931 0L1.8197 1.29478L0.559898 0.559906L1.29479 1.8197L0 4.05932L1.29479 6.29895L0 8.53858L1.29479 10.7782L0 13.0178L1.29479 15.2575L0 17.4971L1.29479 19.7367L0 21.9763L1.29479 24.216L0 26.4556L1.29479 28.6952L0 30.9348L1.29479 33.1745L0.559898 34.4343L1.8197 33.6994L4.05931 34.9942L6.29895 33.6994L8.53859 34.9942L10.7782 33.6994L13.0178 34.9942L15.2575 33.6994L17.4971 34.9942L19.7367 33.6994L21.9763 34.9942L24.216 33.6994L26.4556 34.9942L28.6952 33.6994L30.9348 34.9942L33.1745 33.6994L34.4343 34.4343L33.6994 33.1745Z" fill="black"/>
</svg>
