<svg width="35" height="35" viewBox="0 0 35 35" fill="none" xmlns="http://www.w3.org/2000/svg">
<path d="M5.94972 11.8994C9.22903 11.8994 11.8874 9.24097 11.8874 5.96165C11.8874 2.68234 9.22903 0.0239258 5.94972 0.0239258C2.6704 0.0239258 0.0119934 2.68234 0.0119934 5.96165C0.0119934 9.24097 2.6704 11.8994 5.94972 11.8994Z" fill="black"/>
<path d="M17.5069 11.8989C20.7862 11.8989 23.4446 9.24048 23.4446 5.96117C23.4446 2.68185 20.7862 0.0234375 17.5069 0.0234375C14.2276 0.0234375 11.5691 2.68185 11.5691 5.96117C11.5691 9.24048 14.2276 11.8989 17.5069 11.8989Z" fill="black"/>
<path d="M29.0289 11.8989C32.3082 11.8989 34.9666 9.24048 34.9666 5.96117C34.9666 2.68185 32.3082 0.0234375 29.0289 0.0234375C25.7496 0.0234375 23.0912 2.68185 23.0912 5.96117C23.0912 9.24048 25.7496 11.8989 29.0289 11.8989Z" fill="black"/>
<path d="M5.94952 34.9782C9.22883 34.9782 11.8872 32.3198 11.8872 29.0405C11.8872 25.7612 9.22883 23.1028 5.94952 23.1028C2.6702 23.1028 0.011795 25.7612 0.011795 29.0405C0.011795 32.3198 2.6702 34.9782 5.94952 34.9782Z" fill="black"/>
<path d="M17.5069 34.9782C20.7862 34.9782 23.4446 32.3198 23.4446 29.0405C23.4446 25.7612 20.7862 23.1028 17.5069 23.1028C14.2276 23.1028 11.5691 25.7612 11.5691 29.0405C11.5691 32.3198 14.2276 34.9782 17.5069 34.9782Z" fill="black"/>
<path d="M29.0289 34.9782C32.3082 34.9782 34.9666 32.3198 34.9666 29.0405C34.9666 25.7612 32.3082 23.1028 29.0289 23.1028C25.7496 23.1028 23.0912 25.7612 23.0912 29.0405C23.0912 32.3198 25.7496 34.9782 29.0289 34.9782Z" fill="black"/>
<path d="M5.94952 23.4209C9.22883 23.4209 11.8872 20.7625 11.8872 17.4831C11.8872 14.2038 9.22883 11.5454 5.94952 11.5454C2.6702 11.5454 0.011795 14.2038 0.011795 17.4831C0.011795 20.7625 2.6702 23.4209 5.94952 23.4209Z" fill="black"/>
<path d="M17.5069 23.4209C20.7862 23.4209 23.4446 20.7625 23.4446 17.4831C23.4446 14.2038 20.7862 11.5454 17.5069 11.5454C14.2276 11.5454 11.5691 14.2038 11.5691 17.4831C11.5691 20.7625 14.2276 23.4209 17.5069 23.4209Z" fill="black"/>
<path d="M29.0289 23.4209C32.3082 23.4209 34.9666 20.7625 34.9666 17.4831C34.9666 14.2038 32.3082 11.5454 29.0289 11.5454C25.7496 11.5454 23.0912 14.2038 23.0912 17.4831C23.0912 20.7625 25.7496 23.4209 29.0289 23.4209Z" fill="black"/>
</svg>
