<svg width="35" height="35" viewBox="0 0 35 35" fill="none" xmlns="http://www.w3.org/2000/svg">
<path d="M35.0117 3.20843C34.4867 3.27843 34.5217 2.15843 34.4517 1.35343L33.8917 1.49343C34.3117 1.31843 33.8917 1.03843 33.2967 0.933427C31.5817 0.723427 31.9317 2.01843 30.6017 1.35343C30.7767 1.35343 30.8117 1.28343 31.0217 1.28343L30.3567 1.00343C30.2167 2.40343 26.3667 0.128426 26.1917 1.49343C25.2117 0.933426 26.1217 1.14343 27.3817 0.513428L25.5967 0.653426C25.6317 0.653426 24.9667 0.793428 25.3167 0.688428C23.9517 0.093428 24.9317 0.793427 24.1967 1.17843C23.6717 0.968427 24.6167 0.128428 23.1117 0.373428C21.0467 0.653428 23.4967 1.38843 22.2717 1.56343L21.3617 0.863428C19.7517 1.42343 18.5617 0.898426 17.2317 0.828426C16.9167 0.898426 16.7767 0.968427 16.7067 1.03843C15.2717 0.723427 13.6967 1.73843 12.6117 1.49343C12.8567 1.35343 11.9817 1.38843 11.8767 1.21343L9.91667 1.66843C10.7917 1.49343 10.7567 1.07343 10.8967 0.653426C10.3017 0.688426 9.98667 0.933426 9.60167 0.968427C9.84667 0.828426 10.1267 0.688426 9.77667 0.478426L7.74666 1.14343C7.85166 1.21343 8.09667 1.24843 8.30667 1.24843C7.78167 1.24843 6.69667 1.52843 5.96167 1.17843C6.03167 1.00343 6.27666 0.863428 6.34666 0.723428C6.97666 1.17843 7.32667 0.793426 7.64167 0.478426C6.24167 0.548426 7.29166 0.373426 6.62666 0.0934265C5.64666 0.0934265 5.22666 1.10843 5.47166 1.45843C4.35166 1.31843 4.00166 1.03843 2.84666 1.45843L3.05668 0.583427L2.00668 0.443426L2.84666 0.0934265C0.956664 -0.256574 2.28666 1.49343 0.571664 1.45843C0.501664 2.26343 0.536673 3.31343 0.011673 3.24343C0.046673 3.69843 0.046673 4.08343 0.011673 4.43343C0.221673 4.60843 0.396669 4.60843 0.466669 3.62843L0.921664 5.27343C2.77666 6.18343 0.78166 9.61343 1.37666 12.0984C1.30666 11.9234 1.20167 11.8884 1.16667 11.8534C1.76167 14.0584 0.676677 16.7884 0.956677 17.2784L0.466669 17.4884C1.23667 19.3784 1.30667 19.5884 0.991669 21.8284C0.921669 21.7934 0.746669 21.5484 0.641669 21.8984C1.02667 22.4234 1.37666 22.9834 1.27166 24.5234L1.09666 24.4534L1.16667 26.8684C-0.408331 26.8334 2.11168 30.9634 0.431677 31.6984C0.746677 32.0134 0.921673 32.9234 1.06167 33.7284C2.00667 34.0084 1.16666 35.3384 2.84666 35.0234L2.00668 34.6734L3.05668 34.5334L2.84666 33.6584C4.00166 34.0784 4.35166 33.7984 5.47166 33.6584C5.22666 34.0084 5.61166 35.0234 6.62666 35.0234C7.29166 34.7434 6.24167 34.5684 7.64167 34.6384C7.32667 34.3234 6.97666 33.9384 6.34666 34.3934C6.27666 34.2184 6.03167 34.0784 5.96167 33.9384C6.69667 33.5884 7.78167 33.8684 8.30667 33.8684C8.09667 33.9034 7.88666 33.9034 7.74666 33.9734L9.77667 34.6384C10.0917 34.4634 9.84667 34.2884 9.60167 34.1484C10.0217 34.2184 10.3017 34.4284 10.8967 34.4634C10.7217 34.0784 10.7917 33.6584 9.91667 33.4484L11.8767 33.9034C12.0167 33.7284 12.8917 33.7634 12.6117 33.6234C13.6967 33.3784 15.2717 34.3934 16.7067 34.0784C16.7767 34.1484 16.9167 34.2184 17.2317 34.2884C18.5617 34.1834 19.7867 33.6934 21.3617 34.2534L22.2717 33.5534C23.5317 33.7284 21.0467 34.4634 23.1117 34.7434C24.5817 34.9884 23.6717 34.1484 24.1967 33.9384C24.9317 34.2884 23.9867 34.9884 25.3167 34.4284C24.9317 34.3234 25.5967 34.4634 25.5967 34.4634L27.3817 34.6034C26.1217 33.9384 25.2467 34.1834 26.1917 33.6234C26.3317 35.0234 30.1817 32.7484 30.3567 34.1134L31.0217 33.8334C30.8117 33.8334 30.8117 33.7634 30.6017 33.7634C31.9317 33.0984 31.5817 34.3934 33.2967 34.1834C33.5767 34.1484 33.7867 34.0434 33.9267 33.9384C33.9617 33.8334 33.9617 33.7284 33.9967 33.6584C33.9617 33.6584 33.9617 33.6234 33.9267 33.6234L33.9967 33.6584C34.1367 32.8884 34.3117 32.0834 34.5917 31.7684C32.9117 31.0334 35.4317 26.9034 33.8567 26.9384L33.9267 24.5234L33.7517 24.5934C33.6467 23.0534 34.0317 22.5284 34.3817 21.9684C34.2767 21.6184 34.1367 21.8634 34.0317 21.8984C33.7167 19.6584 33.7867 19.4484 34.5567 17.5584L34.0667 17.3484C34.3467 16.8234 33.2617 14.0934 33.8567 11.9234C33.7867 11.9584 33.7167 11.9934 33.6467 12.1684C34.2417 9.68343 32.2467 6.25343 34.1017 5.34343L34.5567 3.69843C34.6267 4.67843 34.8017 4.67843 35.0117 4.50343C34.9767 4.04843 34.9767 3.66343 35.0117 3.20843Z" fill="black"/>
</svg>
