<svg width="46" height="45" viewBox="0 0 46 45" fill="none" xmlns="http://www.w3.org/2000/svg">
<g clip-path="url(#clip0)">
<path d="M29.6638 0H15.3946C8.4175 0 2.52075 4.59136 0.675198 10.8932C0.495145 11.5234 0.315091 12.1986 0.225064 12.8738C0.0900241 13.6391 0.0450134 14.4043 0.0450134 15.1695V29.7989C0.0450134 38.1713 6.93206 45.0134 15.3946 45.0134H22.5517H29.7088C38.1714 45.0134 45.0584 38.2164 45.0584 29.7989V15.2145C45.0134 6.79702 38.1263 0 29.6638 0ZM38.2614 29.7989C38.2614 34.4352 34.3902 38.2614 29.6638 38.2614H22.5067H15.3496C10.5781 38.2614 6.75201 34.4802 6.75201 29.7989V15.2145C6.75201 13.7741 7.11212 12.3787 7.78732 11.2083C8.4175 10.038 9.31777 9.04769 10.3981 8.32747C11.7935 7.38219 13.504 6.79702 15.3496 6.79702H29.6188C34.3902 6.79702 38.2164 10.5781 38.2164 15.2595V29.7989H38.2614Z" fill="black"/>
</g>
<defs>
<clipPath id="clip0">
<rect width="45.0134" height="45" fill="white"/>
</clipPath>
</defs>
</svg>
