<svg width="45" height="45" viewBox="0 0 45 45" fill="none" xmlns="http://www.w3.org/2000/svg">
<path d="M44.1643 0L45 5.59285L39.4071 6.42857L38.5714 0.835714L44.1643 0Z" fill="black"/>
<path d="M38.5714 1.09286L33.2357 0L32.1429 5.33571L37.4786 6.42857L38.5714 1.09286Z" fill="black"/>
<path d="M32.1429 0.642857L26.3571 0L25.7143 5.78571L32.1429 6.42857V0.642857Z" fill="black"/>
<path d="M25.7143 0.964285L20.25 0L19.2857 5.46428L24.75 6.42857L25.7143 0.964285Z" fill="black"/>
<path d="M19.2857 0.771428L13.6286 0L12.8571 5.65714L18.5143 6.42857L19.2857 0.771428Z" fill="black"/>
<path d="M11.4429 0L12.8571 5.01428L7.84285 6.42857L6.42857 1.41428L11.4429 0Z" fill="black"/>
<path d="M5.46428 0.321533L6.10714 5.46439L0.964283 6.10725L0.321425 0.96439L5.46428 0.321533Z" fill="black"/>
<path d="M45 7.39275L39.5357 6.42847L38.5714 11.8927L44.0357 12.857L45 7.39275Z" fill="black"/>
<path d="M6.42857 7.19989L0.771426 6.42847L-1.90735e-06 12.0856L5.65714 12.857L6.42857 7.19989Z" fill="black"/>
<path d="M43.5857 12.8572L45 17.8715L39.9857 19.2858L38.5714 14.2715L43.5857 12.8572Z" fill="black"/>
<path d="M5.46428 13.1787L6.10714 18.3216L0.964283 18.9644L0.321425 13.8216L5.46428 13.1787Z" fill="black"/>
<path d="M45 19.9285L39.2143 19.2856L38.5714 25.0713L45 25.7142V19.9285Z" fill="black"/>
<path d="M6.42857 20.2499L0.964283 19.2856L-1.90735e-06 24.7499L5.46428 25.7142L6.42857 20.2499Z" fill="black"/>
<path d="M45 26.4858L39.3429 25.7144L38.5714 31.3715L44.2286 32.1429L45 26.4858Z" fill="black"/>
<path d="M5.01428 25.7144L6.42857 30.7287L1.41428 32.1429L-1.90735e-06 27.1286L5.01428 25.7144Z" fill="black"/>
<path d="M45 33.1071L39.5357 32.1428L38.5714 37.6071L44.0357 38.5714L45 33.1071Z" fill="black"/>
<path d="M6.42857 32.9143L0.771426 32.1428L-1.90735e-06 37.8L5.65714 38.5714L6.42857 32.9143Z" fill="black"/>
<path d="M44.1643 38.5715L45 44.1644L39.4071 45.0001L38.5714 39.4072L44.1643 38.5715Z" fill="black"/>
<path d="M38.5714 39.6644L33.2357 38.5715L32.1429 43.9072L37.4786 45.0001L38.5714 39.6644Z" fill="black"/>
<path d="M32.1429 39.2144L26.3571 38.5715L25.7143 44.3572L32.1429 45.0001V39.2144Z" fill="black"/>
<path d="M25.7143 39.5358L20.25 38.5715L19.2857 44.0358L24.75 45.0001L25.7143 39.5358Z" fill="black"/>
<path d="M19.2857 39.343L13.6286 38.5715L12.8571 44.2287L18.5143 45.0001L19.2857 39.343Z" fill="black"/>
<path d="M11.4429 38.5715L12.8571 43.5858L7.84285 45.0001L6.42857 39.9858L11.4429 38.5715Z" fill="black"/>
<path d="M5.46428 38.8928L6.10714 44.0357L0.964283 44.6785L0.321425 39.5357L5.46428 38.8928Z" fill="black"/>
</svg>
