<svg width="64" height="80" viewBox="0 0 64 80" fill="none" xmlns="http://www.w3.org/2000/svg">
<path d="M60.8585 0H3.14153C1.39878 0 0 1.42253 0 3.19487V61.8685C0 63.6409 1.42171 65.0634 3.14153 65.0634H60.8355C62.5783 65.0634 63.9771 63.6409 64 61.8918V3.19487C64 1.42253 62.5783 0 60.8585 0ZM61.5693 60.8891C61.5693 61.8452 60.8126 62.6148 59.8724 62.6148H4.10462C3.16446 62.6148 2.40774 61.8452 2.40774 60.8891V4.17432C2.40774 3.21819 3.16446 2.44862 4.10462 2.44862H59.8724C60.8126 2.44862 61.5693 3.21819 61.5693 4.17432V60.8891Z" fill="black"/>
<path d="M10.6995 77.3649C10.6995 78.1811 10.4106 78.8247 9.83044 79.2935C9.25029 79.7645 8.44313 79.9977 7.41124 79.9977C6.31973 79.9977 5.47358 79.8508 4.87738 79.5547V78.426C5.2672 78.5962 5.69601 78.7315 6.15921 78.8294C6.62242 78.9273 7.0581 78.9763 7.46169 78.9763C8.14961 78.9763 8.67014 78.8411 9.01869 78.5729C9.36724 78.3047 9.54151 77.9339 9.54151 77.4652C9.54151 77.1527 9.4796 76.8962 9.35348 76.6956C9.22736 76.4951 9.0164 76.3062 8.72059 76.1313C8.42478 75.9564 7.97534 75.7581 7.37455 75.5343C6.52152 75.2171 5.91156 74.8463 5.54696 74.4149C5.18236 73.9858 4.99891 73.4308 4.99891 72.7522C4.99891 72.0222 5.2695 71.4392 5.80837 71.0078C6.34725 70.5764 7.0604 70.3595 7.94094 70.3595C8.86047 70.3595 9.70662 70.5344 10.4817 70.8842L10.1217 71.8963C9.33284 71.5628 8.59676 71.3972 7.91572 71.3972C7.36996 71.3972 6.94116 71.5162 6.63388 71.7564C6.32661 71.9966 6.17068 72.3301 6.17068 72.7615C6.17068 73.0693 6.2303 73.3235 6.34954 73.5264C6.46878 73.7293 6.66369 73.9135 6.92969 74.0814C7.19569 74.247 7.61532 74.4382 8.1863 74.6528C8.87193 74.9093 9.381 75.1588 9.71808 75.399C10.0552 75.6415 10.3028 75.919 10.461 76.2315C10.6193 76.544 10.6995 76.9288 10.6995 77.3649ZM16.5033 71.4042C15.5127 71.4042 14.7331 71.7424 14.1644 72.4163C13.598 73.0903 13.3136 74.0138 13.3136 75.1845C13.3136 76.3948 13.5888 77.3252 14.1391 77.9829C14.6895 78.6382 15.4737 78.967 16.4896 78.967C17.1454 78.967 17.8815 78.8434 18.7024 78.5962V79.6223C18.3126 79.7669 17.9365 79.8672 17.5742 79.9208C17.2119 79.9744 16.7968 80.0001 16.3268 80.0001C14.9692 80.0001 13.9236 79.5803 13.1921 78.7408C12.4583 77.9013 12.0914 76.7119 12.0914 75.1751C12.0914 74.2097 12.2657 73.3631 12.6165 72.6379C12.9674 71.9126 13.4787 71.3506 14.1483 70.9588C14.8179 70.5647 15.6067 70.3688 16.5148 70.3688C17.4893 70.3688 18.3378 70.5531 19.0601 70.9192L18.5946 71.9196C17.8608 71.5768 17.1637 71.4042 16.5033 71.4042ZM26.492 79.8718L25.3821 76.9684H21.7293L20.6332 79.8718H19.4614L23.0592 70.4621H24.1049L27.6982 79.8718H26.492ZM25.0382 75.9237L24.004 73.0833L23.5637 71.6794C23.4376 72.1925 23.3046 72.6589 23.167 73.0833L22.1214 75.9237H25.0382ZM36.2674 79.8718H34.9122L29.9775 72.0899H29.927L29.9591 72.6099C30.0096 73.3865 30.0348 74.0628 30.0348 74.6341V79.8695H28.9639V70.4994H30.3054L30.5897 70.9542L33.6143 75.7092L35.2218 78.2534H35.2722C35.263 78.1508 35.247 77.7847 35.2218 77.155C35.1965 76.5254 35.1851 76.0683 35.1851 75.7861V70.4994H36.2697V79.8718H36.2674ZM46.1873 79.8718L43.149 71.6561H43.0985C43.1604 72.3394 43.1925 73.1836 43.1925 74.1887V79.8742H42.1217V70.5041H43.8369L46.6803 78.1834H46.7308L49.6246 70.5041H51.3261V79.8742H50.1796V74.1117C50.1796 73.4704 50.2094 72.6565 50.2667 71.6701H50.2163L47.1412 79.8742H46.1873V79.8718ZM58.9804 79.8718H53.8324V70.5018H58.9804V71.5395H54.9905V74.4615H58.7465V75.4876H54.9905V78.8341H58.9804V79.8718Z" fill="black"/>
</svg>
