<svg width="60" height="80" viewBox="0 0 60 80" fill="none" xmlns="http://www.w3.org/2000/svg">
<path d="M52.2608 64.0973H7.71766C3.46113 64.0973 0 67.6583 0 72.0597C0 76.439 3.46113 80 7.71766 80H52.2393C56.4959 80 59.957 76.439 59.957 72.0597C59.9785 67.6583 56.5174 64.0973 52.2608 64.0973ZM57.0333 0H2.94518C1.31136 0 0 1.34918 0 3.03014V58.7006C0 60.3594 1.31136 61.7307 2.94518 61.7307H57.0548C58.6671 61.7307 60 60.3815 60 58.7006V3.03014C59.9785 1.34918 58.6671 0 57.0333 0ZM57.7212 57.7495C57.7212 58.6563 57.0118 59.3862 56.1304 59.3862H3.84808C2.96668 59.3862 2.25726 58.6563 2.25726 57.7495V3.95908C2.25726 3.05225 2.96668 2.32237 3.84808 2.32237H56.1304C57.0118 2.32237 57.7212 3.05225 57.7212 3.95908V57.7495Z" fill="black"/>
<path d="M7.71766 65.7341C4.32102 65.7341 1.59082 68.5431 1.59082 72.0377C1.59082 75.5323 4.32102 78.3413 7.71766 78.3413C11.1143 78.3413 13.8445 75.5323 13.8445 72.0377C13.8445 68.5652 11.1143 65.7341 7.71766 65.7341Z" fill="black"/>
<path d="M7.71766 65.7341C4.32102 65.7341 1.59082 68.5431 1.59082 72.0377C1.59082 75.5323 4.32102 78.3413 7.71766 78.3413C11.1143 78.3413 13.8445 75.5323 13.8445 72.0377C13.8445 68.5652 11.1143 65.7341 7.71766 65.7341Z" fill="white"/>
<path d="M5.71838 71.2413L5.91186 71.6837C5.91186 71.7058 5.93335 71.7279 5.97635 71.7279L6.4493 71.7943C6.51379 71.7943 6.53529 71.8827 6.49229 71.927L6.14833 72.2587C6.12683 72.2808 6.12683 72.303 6.12683 72.3251L6.21282 72.7896C6.23432 72.8559 6.16983 72.9001 6.10533 72.878L5.69688 72.6568C5.67538 72.6347 5.65388 72.6347 5.63239 72.6568L5.22393 72.878C5.18093 72.9001 5.11644 72.8559 5.11644 72.7896L5.20243 72.3251C5.20243 72.303 5.20243 72.2808 5.18093 72.2587L4.83697 71.927C4.79398 71.8827 4.81547 71.8164 4.87997 71.7943L5.35292 71.7279C5.37441 71.7279 5.39591 71.7058 5.41741 71.6837L5.61089 71.2413C5.63239 71.1971 5.69688 71.1971 5.71838 71.2413ZM7.80365 71.2413L7.99713 71.6837C7.99713 71.7058 8.01863 71.7279 8.06162 71.7279L8.53457 71.7943C8.59906 71.7943 8.62056 71.8827 8.57757 71.927L8.2336 72.2587C8.21211 72.2808 8.21211 72.303 8.21211 72.3251L8.2981 72.7896C8.31959 72.8559 8.2551 72.9001 8.19061 72.878L7.78215 72.6568C7.76065 72.6347 7.73916 72.6347 7.71766 72.6568L7.3092 72.878C7.26621 72.9001 7.20172 72.8559 7.20172 72.7896L7.28771 72.3251C7.28771 72.303 7.28771 72.2808 7.26621 72.2587L6.92225 71.927C6.87925 71.8827 6.90075 71.8164 6.96524 71.7943L7.43819 71.7279C7.45969 71.7279 7.48119 71.7058 7.50268 71.6837L7.69616 71.2413C7.71766 71.1971 7.78215 71.1971 7.80365 71.2413ZM9.88892 71.2413L10.0824 71.6837C10.0824 71.7058 10.1039 71.7279 10.1469 71.7279L10.6198 71.7943C10.6843 71.7943 10.7058 71.8827 10.6628 71.927L10.3189 72.2587C10.2974 72.2808 10.2974 72.303 10.2974 72.3251L10.3834 72.7896C10.4049 72.8559 10.3404 72.9001 10.2759 72.878L9.86743 72.6568C9.84593 72.6347 9.82443 72.6347 9.80293 72.6568L9.39448 72.878C9.35148 72.9001 9.28699 72.8559 9.28699 72.7896L9.37298 72.3251C9.37298 72.303 9.37298 72.2808 9.35148 72.2587L9.00752 71.927C8.96452 71.8827 8.98602 71.8164 9.05051 71.7943L9.52346 71.7279C9.54496 71.7279 9.56646 71.7058 9.58796 71.6837L9.78144 71.2413C9.78144 71.1971 9.86743 71.1971 9.88892 71.2413ZM10.9423 76.063C10.5768 76.063 9.99641 75.9966 9.37298 75.6649C8.85704 75.9082 8.2766 76.0409 7.71766 76.0409C5.56789 76.0409 3.80508 74.2493 3.80508 72.0154C3.80508 69.7815 5.5464 67.99 7.71766 67.99C9.88892 67.99 11.6302 69.7815 11.6302 72.0154C11.6302 72.878 11.3508 73.7185 10.8563 74.4263C10.9423 74.6474 11.1358 75.0898 11.4798 75.4879C11.5657 75.5764 11.5872 75.7091 11.5442 75.8197C11.5012 75.9303 11.4153 76.0187 11.2863 76.0409C11.2863 76.0409 11.1573 76.063 10.9423 76.063ZM7.71766 68.6978C5.91186 68.6978 4.45001 70.2018 4.45001 72.0597C4.45001 73.9176 5.91186 75.4216 7.71766 75.4216C8.2551 75.4216 8.77105 75.2889 9.24399 75.0456C9.35148 75.0013 9.45897 75.0013 9.56646 75.0456C9.95342 75.2667 10.3189 75.3773 10.5983 75.4216C10.2974 74.935 10.1899 74.5147 10.1899 74.4926C10.1684 74.382 10.1899 74.2714 10.2544 74.183C10.7273 73.5858 10.9853 72.8338 10.9853 72.0597C10.9853 70.2018 9.52346 68.6978 7.71766 68.6978Z" fill="black"/>
<path d="M21.1601 73.827C21.1601 74.3401 20.9796 74.7449 20.6184 75.0412C20.2572 75.3376 19.7563 75.4836 19.1136 75.4836C18.4342 75.4836 17.9097 75.3907 17.5378 75.2049V74.4949C17.7807 74.6033 18.0473 74.6874 18.3353 74.7493C18.6234 74.8112 18.8943 74.8422 19.1437 74.8422C19.5715 74.8422 19.8939 74.7581 20.1111 74.5878C20.3282 74.4175 20.4357 74.1853 20.4357 73.8911C20.4357 73.6943 20.397 73.5328 20.3174 73.4067C20.24 73.2807 20.1068 73.1612 19.924 73.0529C19.7413 72.9445 19.4618 72.8184 19.0878 72.6769C18.5568 72.4778 18.1784 72.2433 17.9505 71.9735C17.7227 71.7037 17.6087 71.3542 17.6087 70.9273C17.6087 70.4673 17.7764 70.1024 18.1118 69.8303C18.4471 69.5583 18.89 69.4233 19.4382 69.4233C20.01 69.4233 20.5367 69.5339 21.0183 69.7529L20.7947 70.3899C20.3045 70.1798 19.8466 70.0758 19.4231 70.0758C19.0835 70.0758 18.8169 70.151 18.6256 70.3014C18.4342 70.4518 18.3375 70.6619 18.3375 70.934C18.3375 71.1264 18.374 71.2879 18.4493 71.4161C18.5245 71.5444 18.6449 71.6594 18.8104 71.7656C18.976 71.8718 19.2361 71.989 19.593 72.1239C20.0186 72.2854 20.3368 72.4424 20.5453 72.5928C20.7538 72.7454 20.9086 72.9201 21.0075 73.117C21.1107 73.3183 21.1601 73.5549 21.1601 73.827ZM24.7696 70.078C24.1526 70.078 23.6689 70.2904 23.3164 70.715C22.9638 71.1397 22.7875 71.7192 22.7875 72.4557C22.7875 73.2165 22.9595 73.8026 23.3013 74.2162C23.6431 74.6298 24.1311 74.8355 24.7631 74.8355C25.1716 74.8355 25.6295 74.7581 26.139 74.6011V75.2469C25.8961 75.3376 25.6618 75.4018 25.4382 75.4349C25.2146 75.4681 24.9545 75.4858 24.6621 75.4858C23.8194 75.4858 23.168 75.2226 22.7123 74.694C22.2565 74.1654 22.0286 73.4178 22.0286 72.4513C22.0286 71.843 22.1383 71.3122 22.3554 70.8544C22.5725 70.3965 22.8907 70.0448 23.3078 69.7971C23.7248 69.5494 24.215 69.4256 24.7782 69.4256C25.3844 69.4256 25.9111 69.5406 26.3604 69.7728L26.0702 70.4009C25.6123 70.1864 25.1802 70.078 24.7696 70.078ZM30.9803 75.404L30.2902 73.577H28.0179L27.3364 75.404H26.6076L28.8456 69.4853H29.4969L31.7305 75.404H30.9803ZM30.0752 72.9202L29.4324 71.1352L29.1573 70.2528C29.0799 70.5757 28.996 70.8698 28.91 71.1352L28.2587 72.9202H30.0752ZM37.0577 75.404H36.215L33.1472 70.5093H33.115L33.1343 70.8367C33.1666 71.3255 33.1816 71.7501 33.1816 72.1106V75.404H32.5152V69.5096H33.3493L33.5256 69.7949L35.4066 72.7852L36.4063 74.3866H36.4385C36.4342 74.3224 36.4235 74.0924 36.4063 73.6943C36.3912 73.2984 36.3826 73.0108 36.3826 72.8339V69.5074H37.0555V75.404H37.0577ZM43.2232 75.404L41.3357 70.2351H41.3035C41.3422 70.6641 41.3615 71.195 41.3615 71.8275V75.404H40.6951V69.5096H41.7614L43.5285 74.3379H43.5607L45.3601 69.5096H46.4178V75.404H45.704V71.7789C45.704 71.3763 45.7234 70.8632 45.7599 70.2439H45.7277L43.8165 75.404H43.2232ZM51.1773 75.404H47.9763V69.5096H51.1773V70.1621H48.6965V72.0001H51.0312V72.6459H48.6965V74.7493H51.1773V75.404Z" fill="white"/>
</svg>
