<svg width="65" height="80" viewBox="0 0 65 80" fill="none" xmlns="http://www.w3.org/2000/svg">
<path d="M62.7875 2.21582H2.25905V62.2043H62.7875V2.21582Z" fill="white"/>
<path opacity="0.25" d="M27.6815 8.21472H25.7438V10.1351H27.6815V8.21472Z" fill="black"/>
<path opacity="0.25" d="M37.3674 8.21472H35.4298V10.1351H37.3674V8.21472Z" fill="black"/>
<path opacity="0.25" d="M41.2404 8.21472H39.3028V10.1351H41.2404V8.21472Z" fill="black"/>
<path opacity="0.25" d="M25.7438 10.135H23.8062V12.0554H25.7438V10.135Z" fill="black"/>
<path opacity="0.25" d="M27.6815 10.135H25.7438V12.0554H27.6815V10.135Z" fill="black"/>
<path opacity="0.25" d="M31.5545 10.135H29.6168V12.0554H31.5545V10.135Z" fill="black"/>
<path opacity="0.25" d="M33.4921 10.135H31.5545V12.0554H33.4921V10.135Z" fill="black"/>
<path opacity="0.25" d="M35.4298 10.135H33.4921V12.0554H35.4298V10.135Z" fill="black"/>
<path opacity="0.25" d="M37.3674 10.135H35.4298V12.0554H37.3674V10.135Z" fill="black"/>
<path opacity="0.25" d="M27.6815 12.0531H25.7438V13.9735H27.6815V12.0531Z" fill="black"/>
<path opacity="0.25" d="M29.6191 12.0531H27.6815V13.9735H29.6191V12.0531Z" fill="black"/>
<path opacity="0.25" d="M31.5545 12.0531H29.6168V13.9735H31.5545V12.0531Z" fill="black"/>
<path opacity="0.25" d="M25.7438 13.9734H23.8062V15.8938H25.7438V13.9734Z" fill="black"/>
<path opacity="0.25" d="M27.6815 13.9734H25.7438V15.8938H27.6815V13.9734Z" fill="black"/>
<path opacity="0.25" d="M31.5545 13.9734H29.6168V15.8938H31.5545V13.9734Z" fill="black"/>
<path opacity="0.25" d="M35.4298 13.9734H33.4921V15.8938H35.4298V13.9734Z" fill="black"/>
<path opacity="0.25" d="M39.3028 13.9734H37.3651V15.8938H39.3028V13.9734Z" fill="black"/>
<path opacity="0.25" d="M41.2404 13.9734H39.3028V15.8938H41.2404V13.9734Z" fill="black"/>
<path opacity="0.25" d="M29.6191 15.8938H27.6815V17.8142H29.6191V15.8938Z" fill="black"/>
<path opacity="0.25" d="M33.4921 15.8938H31.5545V17.8142H33.4921V15.8938Z" fill="black"/>
<path opacity="0.25" d="M39.3028 15.8938H37.3651V17.8142H39.3028V15.8938Z" fill="black"/>
<path opacity="0.25" d="M41.2404 15.8938H39.3028V17.8142H41.2404V15.8938Z" fill="black"/>
<path opacity="0.25" d="M25.7438 17.8119H23.8062V19.7323H25.7438V17.8119Z" fill="black"/>
<path opacity="0.25" d="M29.6191 17.8119H27.6815V19.7323H29.6191V17.8119Z" fill="black"/>
<path opacity="0.25" d="M35.4298 17.8119H33.4921V19.7323H35.4298V17.8119Z" fill="black"/>
<path opacity="0.25" d="M37.3674 17.8119H35.4298V19.7323H37.3674V17.8119Z" fill="black"/>
<path opacity="0.25" d="M39.3028 17.8119H37.3651V19.7323H39.3028V17.8119Z" fill="black"/>
<path opacity="0.25" d="M25.7438 19.7323H23.8062V21.6527H25.7438V19.7323Z" fill="black"/>
<path opacity="0.25" d="M29.6191 19.7323H27.6815V21.6527H29.6191V19.7323Z" fill="black"/>
<path opacity="0.25" d="M33.4921 19.7323H31.5545V21.6527H33.4921V19.7323Z" fill="black"/>
<path opacity="0.25" d="M37.3674 19.7323H35.4298V21.6527H37.3674V19.7323Z" fill="black"/>
<path opacity="0.25" d="M41.2404 19.7323H39.3028V21.6527H41.2404V19.7323Z" fill="black"/>
<path opacity="0.25" d="M33.4921 21.6526H31.5545V23.573H33.4921V21.6526Z" fill="black"/>
<path opacity="0.25" d="M41.2404 21.6526H39.3028V23.573H41.2404V21.6526Z" fill="black"/>
<path opacity="0.25" d="M10.2495 23.5707H8.31189V25.491H10.2495V23.5707Z" fill="black"/>
<path opacity="0.25" d="M12.1872 23.5707H10.2496V25.491H12.1872V23.5707Z" fill="black"/>
<path opacity="0.25" d="M14.1225 23.5707H12.1849V25.491H14.1225V23.5707Z" fill="black"/>
<path opacity="0.25" d="M16.0602 23.5707H14.1225V25.491H16.0602V23.5707Z" fill="black"/>
<path opacity="0.25" d="M17.9978 23.5707H16.0602V25.491H17.9978V23.5707Z" fill="black"/>
<path opacity="0.25" d="M21.8708 23.5707H19.9332V25.491H21.8708V23.5707Z" fill="black"/>
<path opacity="0.25" d="M23.8085 23.5707H21.8708V25.491H23.8085V23.5707Z" fill="black"/>
<path opacity="0.25" d="M25.7438 23.5707H23.8062V25.491H25.7438V23.5707Z" fill="black"/>
<path opacity="0.25" d="M27.6815 23.5707H25.7438V25.491H27.6815V23.5707Z" fill="black"/>
<path opacity="0.25" d="M29.6191 23.5707H27.6815V25.491H29.6191V23.5707Z" fill="black"/>
<path opacity="0.25" d="M33.4921 23.5707H31.5545V25.491H33.4921V23.5707Z" fill="black"/>
<path opacity="0.25" d="M35.4298 23.5707H33.4921V25.491H35.4298V23.5707Z" fill="black"/>
<path opacity="0.25" d="M39.3028 23.5707H37.3651V25.491H39.3028V23.5707Z" fill="black"/>
<path opacity="0.25" d="M43.1781 23.5707H41.2404V25.491H43.1781V23.5707Z" fill="black"/>
<path opacity="0.25" d="M47.0511 23.5707H45.1134V25.491H47.0511V23.5707Z" fill="black"/>
<path opacity="0.25" d="M50.924 23.5707H48.9864V25.491H50.924V23.5707Z" fill="black"/>
<path opacity="0.25" d="M54.7994 23.5707H52.8617V25.491H54.7994V23.5707Z" fill="black"/>
<path opacity="0.25" d="M16.0602 25.4911H14.1225V27.4115H16.0602V25.4911Z" fill="black"/>
<path opacity="0.25" d="M27.6815 25.4911H25.7438V27.4115H27.6815V25.4911Z" fill="black"/>
<path opacity="0.25" d="M39.3028 25.4911H37.3651V27.4115H39.3028V25.4911Z" fill="black"/>
<path opacity="0.25" d="M41.2404 25.4911H39.3028V27.4115H41.2404V25.4911Z" fill="black"/>
<path opacity="0.25" d="M43.1781 25.4911H41.2404V27.4115H43.1781V25.4911Z" fill="black"/>
<path opacity="0.25" d="M47.0511 25.4911H45.1134V27.4115H47.0511V25.4911Z" fill="black"/>
<path opacity="0.25" d="M48.9887 25.4911H47.0511V27.4115H48.9887V25.4911Z" fill="black"/>
<path opacity="0.25" d="M56.7347 25.4911H54.797V27.4115H56.7347V25.4911Z" fill="black"/>
<path opacity="0.25" d="M14.1225 27.4114H12.1849V29.3317H14.1225V27.4114Z" fill="black"/>
<path opacity="0.25" d="M19.9332 27.4114H17.9955V29.3317H19.9332V27.4114Z" fill="black"/>
<path opacity="0.25" d="M21.8708 27.4114H19.9332V29.3317H21.8708V27.4114Z" fill="black"/>
<path opacity="0.25" d="M23.8085 27.4114H21.8708V29.3317H23.8085V27.4114Z" fill="black"/>
<path opacity="0.25" d="M27.6815 27.4114H25.7438V29.3317H27.6815V27.4114Z" fill="black"/>
<path opacity="0.25" d="M31.5545 27.4114H29.6168V29.3317H31.5545V27.4114Z" fill="black"/>
<path opacity="0.25" d="M33.4921 27.4114H31.5545V29.3317H33.4921V27.4114Z" fill="black"/>
<path opacity="0.25" d="M35.4298 27.4114H33.4921V29.3317H35.4298V27.4114Z" fill="black"/>
<path opacity="0.25" d="M37.3674 27.4114H35.4298V29.3317H37.3674V27.4114Z" fill="black"/>
<path opacity="0.25" d="M39.3028 27.4114H37.3651V29.3317H39.3028V27.4114Z" fill="black"/>
<path opacity="0.25" d="M43.1781 27.4114H41.2404V29.3317H43.1781V27.4114Z" fill="black"/>
<path opacity="0.25" d="M45.1134 27.4114H43.1757V29.3317H45.1134V27.4114Z" fill="black"/>
<path opacity="0.25" d="M48.9887 27.4114H47.0511V29.3317H48.9887V27.4114Z" fill="black"/>
<path opacity="0.25" d="M52.8617 27.4114H50.924V29.3317H52.8617V27.4114Z" fill="black"/>
<path opacity="0.25" d="M10.2495 29.3295H8.31189V31.2498H10.2495V29.3295Z" fill="black"/>
<path opacity="0.25" d="M14.1225 29.3295H12.1849V31.2498H14.1225V29.3295Z" fill="black"/>
<path opacity="0.25" d="M16.0602 29.3295H14.1225V31.2498H16.0602V29.3295Z" fill="black"/>
<path opacity="0.25" d="M17.9978 29.3295H16.0602V31.2498H17.9978V29.3295Z" fill="black"/>
<path opacity="0.25" d="M19.9332 29.3295H17.9955V31.2498H19.9332V29.3295Z" fill="black"/>
<path opacity="0.25" d="M23.8085 29.3295H21.8708V31.2498H23.8085V29.3295Z" fill="black"/>
<path opacity="0.25" d="M25.7438 29.3295H23.8062V31.2498H25.7438V29.3295Z" fill="black"/>
<path opacity="0.25" d="M27.6815 29.3295H25.7438V31.2498H27.6815V29.3295Z" fill="black"/>
<path opacity="0.25" d="M29.6191 29.3295H27.6815V31.2498H29.6191V29.3295Z" fill="black"/>
<path opacity="0.25" d="M31.5545 29.3295H29.6168V31.2498H31.5545V29.3295Z" fill="black"/>
<path opacity="0.25" d="M37.3674 29.3295H35.4298V31.2498H37.3674V29.3295Z" fill="black"/>
<path opacity="0.25" d="M41.2404 29.3295H39.3028V31.2498H41.2404V29.3295Z" fill="black"/>
<path opacity="0.25" d="M43.1781 29.3295H41.2404V31.2498H43.1781V29.3295Z" fill="black"/>
<path opacity="0.25" d="M10.2495 31.2499H8.31189V33.1702H10.2495V31.2499Z" fill="black"/>
<path opacity="0.25" d="M16.0602 31.2499H14.1225V33.1702H16.0602V31.2499Z" fill="black"/>
<path opacity="0.25" d="M21.8708 31.2499H19.9332V33.1702H21.8708V31.2499Z" fill="black"/>
<path opacity="0.25" d="M27.6815 31.2499H25.7438V33.1702H27.6815V31.2499Z" fill="black"/>
<path opacity="0.25" d="M31.5545 31.2499H29.6168V33.1702H31.5545V31.2499Z" fill="black"/>
<path opacity="0.25" d="M35.4298 31.2499H33.4921V33.1702H35.4298V31.2499Z" fill="black"/>
<path opacity="0.25" d="M39.3028 31.2499H37.3651V33.1702H39.3028V31.2499Z" fill="black"/>
<path opacity="0.25" d="M45.1134 31.2499H43.1757V33.1702H45.1134V31.2499Z" fill="black"/>
<path opacity="0.25" d="M47.0511 31.2499H45.1134V33.1702H47.0511V31.2499Z" fill="black"/>
<path opacity="0.25" d="M48.9887 31.2499H47.0511V33.1702H48.9887V31.2499Z" fill="black"/>
<path opacity="0.25" d="M50.924 31.2499H48.9864V33.1702H50.924V31.2499Z" fill="black"/>
<path opacity="0.25" d="M54.7994 31.2499H52.8617V33.1702H54.7994V31.2499Z" fill="black"/>
<path opacity="0.25" d="M56.7347 31.2499H54.797V33.1702H56.7347V31.2499Z" fill="black"/>
<path opacity="0.25" d="M10.2495 33.1703H8.31189V35.0907H10.2495V33.1703Z" fill="black"/>
<path opacity="0.25" d="M12.1872 33.1703H10.2496V35.0907H12.1872V33.1703Z" fill="black"/>
<path opacity="0.25" d="M16.0602 33.1703H14.1225V35.0907H16.0602V33.1703Z" fill="black"/>
<path opacity="0.25" d="M23.8085 33.1703H21.8708V35.0907H23.8085V33.1703Z" fill="black"/>
<path opacity="0.25" d="M29.6191 33.1703H27.6815V35.0907H29.6191V33.1703Z" fill="black"/>
<path opacity="0.25" d="M33.4921 33.1703H31.5545V35.0907H33.4921V33.1703Z" fill="black"/>
<path opacity="0.25" d="M37.3674 33.1703H35.4298V35.0907H37.3674V33.1703Z" fill="black"/>
<path opacity="0.25" d="M41.2404 33.1703H39.3028V35.0907H41.2404V33.1703Z" fill="black"/>
<path opacity="0.25" d="M43.1781 33.1703H41.2404V35.0907H43.1781V33.1703Z" fill="black"/>
<path opacity="0.25" d="M45.1134 33.1703H43.1757V35.0907H45.1134V33.1703Z" fill="black"/>
<path opacity="0.25" d="M47.0511 33.1703H45.1134V35.0907H47.0511V33.1703Z" fill="black"/>
<path opacity="0.25" d="M48.9887 33.1703H47.0511V35.0907H48.9887V33.1703Z" fill="black"/>
<path opacity="0.25" d="M10.2495 35.0906H8.31189V37.0109H10.2495V35.0906Z" fill="black"/>
<path opacity="0.25" d="M14.1225 35.0906H12.1849V37.0109H14.1225V35.0906Z" fill="black"/>
<path opacity="0.25" d="M16.0602 35.0906H14.1225V37.0109H16.0602V35.0906Z" fill="black"/>
<path opacity="0.25" d="M17.9978 35.0906H16.0602V37.0109H17.9978V35.0906Z" fill="black"/>
<path opacity="0.25" d="M21.8708 35.0906H19.9332V37.0109H21.8708V35.0906Z" fill="black"/>
<path opacity="0.25" d="M23.8085 35.0906H21.8708V37.0109H23.8085V35.0906Z" fill="black"/>
<path opacity="0.25" d="M35.4298 35.0906H33.4921V37.0109H35.4298V35.0906Z" fill="black"/>
<path opacity="0.25" d="M43.1781 35.0906H41.2404V37.0109H43.1781V35.0906Z" fill="black"/>
<path opacity="0.25" d="M45.1134 35.0906H43.1757V37.0109H45.1134V35.0906Z" fill="black"/>
<path opacity="0.25" d="M48.9887 35.0906H47.0511V37.0109H48.9887V35.0906Z" fill="black"/>
<path opacity="0.25" d="M52.8617 35.0906H50.924V37.0109H52.8617V35.0906Z" fill="black"/>
<path opacity="0.25" d="M54.7994 35.0906H52.8617V37.0109H54.7994V35.0906Z" fill="black"/>
<path opacity="0.25" d="M56.7347 35.0906H54.797V37.0109H56.7347V35.0906Z" fill="black"/>
<path opacity="0.25" d="M10.2495 37.0087H8.31189V38.929H10.2495V37.0087Z" fill="black"/>
<path opacity="0.25" d="M16.0602 37.0087H14.1225V38.929H16.0602V37.0087Z" fill="black"/>
<path opacity="0.25" d="M19.9332 37.0087H17.9955V38.929H19.9332V37.0087Z" fill="black"/>
<path opacity="0.25" d="M27.6815 37.0087H25.7438V38.929H27.6815V37.0087Z" fill="black"/>
<path opacity="0.25" d="M29.6191 37.0087H27.6815V38.929H29.6191V37.0087Z" fill="black"/>
<path opacity="0.25" d="M33.4921 37.0087H31.5545V38.929H33.4921V37.0087Z" fill="black"/>
<path opacity="0.25" d="M35.4298 37.0087H33.4921V38.929H35.4298V37.0087Z" fill="black"/>
<path opacity="0.25" d="M37.3674 37.0087H35.4298V38.929H37.3674V37.0087Z" fill="black"/>
<path opacity="0.25" d="M43.1781 37.0087H41.2404V38.929H43.1781V37.0087Z" fill="black"/>
<path opacity="0.25" d="M54.7994 37.0087H52.8617V38.929H54.7994V37.0087Z" fill="black"/>
<path opacity="0.25" d="M56.7347 37.0087H54.797V38.929H56.7347V37.0087Z" fill="black"/>
<path opacity="0.25" d="M10.2495 38.929H8.31189V40.8493H10.2495V38.929Z" fill="black"/>
<path opacity="0.25" d="M21.8708 38.929H19.9332V40.8493H21.8708V38.929Z" fill="black"/>
<path opacity="0.25" d="M29.6191 38.929H27.6815V40.8493H29.6191V38.929Z" fill="black"/>
<path opacity="0.25" d="M33.4921 38.929H31.5545V40.8493H33.4921V38.929Z" fill="black"/>
<path opacity="0.25" d="M39.3028 38.929H37.3651V40.8493H39.3028V38.929Z" fill="black"/>
<path opacity="0.25" d="M41.2404 38.929H39.3028V40.8493H41.2404V38.929Z" fill="black"/>
<path opacity="0.25" d="M43.1781 38.929H41.2404V40.8493H43.1781V38.929Z" fill="black"/>
<path opacity="0.25" d="M45.1134 38.929H43.1757V40.8493H45.1134V38.929Z" fill="black"/>
<path opacity="0.25" d="M47.0511 38.929H45.1134V40.8493H47.0511V38.929Z" fill="black"/>
<path opacity="0.25" d="M48.9887 38.929H47.0511V40.8493H48.9887V38.929Z" fill="black"/>
<path opacity="0.25" d="M50.924 38.929H48.9864V40.8493H50.924V38.929Z" fill="black"/>
<path opacity="0.25" d="M56.7347 38.929H54.797V40.8493H56.7347V38.929Z" fill="black"/>
<path opacity="0.25" d="M25.7438 40.8494H23.8062V42.7697H25.7438V40.8494Z" fill="black"/>
<path opacity="0.25" d="M29.6191 40.8494H27.6815V42.7697H29.6191V40.8494Z" fill="black"/>
<path opacity="0.25" d="M37.3674 40.8494H35.4298V42.7697H37.3674V40.8494Z" fill="black"/>
<path opacity="0.25" d="M41.2404 40.8494H39.3028V42.7697H41.2404V40.8494Z" fill="black"/>
<path opacity="0.25" d="M48.9887 40.8494H47.0511V42.7697H48.9887V40.8494Z" fill="black"/>
<path opacity="0.25" d="M56.7347 40.8494H54.797V42.7697H56.7347V40.8494Z" fill="black"/>
<path opacity="0.25" d="M25.7438 42.7675H23.8062V44.6878H25.7438V42.7675Z" fill="black"/>
<path opacity="0.25" d="M27.6815 42.7675H25.7438V44.6878H27.6815V42.7675Z" fill="black"/>
<path opacity="0.25" d="M29.6191 42.7675H27.6815V44.6878H29.6191V42.7675Z" fill="black"/>
<path opacity="0.25" d="M31.5545 42.7675H29.6168V44.6878H31.5545V42.7675Z" fill="black"/>
<path opacity="0.25" d="M33.4921 42.7675H31.5545V44.6878H33.4921V42.7675Z" fill="black"/>
<path opacity="0.25" d="M37.3674 42.7675H35.4298V44.6878H37.3674V42.7675Z" fill="black"/>
<path opacity="0.25" d="M41.2404 42.7675H39.3028V44.6878H41.2404V42.7675Z" fill="black"/>
<path opacity="0.25" d="M45.1134 42.7675H43.1757V44.6878H45.1134V42.7675Z" fill="black"/>
<path opacity="0.25" d="M48.9887 42.7675H47.0511V44.6878H48.9887V42.7675Z" fill="black"/>
<path opacity="0.25" d="M52.8617 42.7675H50.924V44.6878H52.8617V42.7675Z" fill="black"/>
<path opacity="0.25" d="M54.7994 42.7675H52.8617V44.6878H54.7994V42.7675Z" fill="black"/>
<path opacity="0.25" d="M56.7347 42.7675H54.797V44.6878H56.7347V42.7675Z" fill="black"/>
<path opacity="0.25" d="M27.6815 44.6879H25.7438V46.6083H27.6815V44.6879Z" fill="black"/>
<path opacity="0.25" d="M29.6191 44.6879H27.6815V46.6083H29.6191V44.6879Z" fill="black"/>
<path opacity="0.25" d="M31.5545 44.6879H29.6168V46.6083H31.5545V44.6879Z" fill="black"/>
<path opacity="0.25" d="M37.3674 44.6879H35.4298V46.6083H37.3674V44.6879Z" fill="black"/>
<path opacity="0.25" d="M41.2404 44.6879H39.3028V46.6083H41.2404V44.6879Z" fill="black"/>
<path opacity="0.25" d="M48.9887 44.6879H47.0511V46.6083H48.9887V44.6879Z" fill="black"/>
<path opacity="0.25" d="M50.924 44.6879H48.9864V46.6083H50.924V44.6879Z" fill="black"/>
<path opacity="0.25" d="M25.7438 46.6083H23.8062V48.5286H25.7438V46.6083Z" fill="black"/>
<path opacity="0.25" d="M27.6815 46.6083H25.7438V48.5286H27.6815V46.6083Z" fill="black"/>
<path opacity="0.25" d="M31.5545 46.6083H29.6168V48.5286H31.5545V46.6083Z" fill="black"/>
<path opacity="0.25" d="M33.4921 46.6083H31.5545V48.5286H33.4921V46.6083Z" fill="black"/>
<path opacity="0.25" d="M35.4298 46.6083H33.4921V48.5286H35.4298V46.6083Z" fill="black"/>
<path opacity="0.25" d="M41.2404 46.6083H39.3028V48.5286H41.2404V46.6083Z" fill="black"/>
<path opacity="0.25" d="M43.1781 46.6083H41.2404V48.5286H43.1781V46.6083Z" fill="black"/>
<path opacity="0.25" d="M45.1134 46.6083H43.1757V48.5286H45.1134V46.6083Z" fill="black"/>
<path opacity="0.25" d="M47.0511 46.6083H45.1134V48.5286H47.0511V46.6083Z" fill="black"/>
<path opacity="0.25" d="M48.9887 46.6083H47.0511V48.5286H48.9887V46.6083Z" fill="black"/>
<path opacity="0.25" d="M50.924 46.6083H48.9864V48.5286H50.924V46.6083Z" fill="black"/>
<path opacity="0.25" d="M25.7438 48.5262H23.8062V50.4466H25.7438V48.5262Z" fill="black"/>
<path opacity="0.25" d="M27.6815 48.5262H25.7438V50.4466H27.6815V48.5262Z" fill="black"/>
<path opacity="0.25" d="M29.6191 48.5262H27.6815V50.4466H29.6191V48.5262Z" fill="black"/>
<path opacity="0.25" d="M33.4921 48.5262H31.5545V50.4466H33.4921V48.5262Z" fill="black"/>
<path opacity="0.25" d="M39.3028 48.5262H37.3651V50.4466H39.3028V48.5262Z" fill="black"/>
<path opacity="0.25" d="M41.2404 48.5262H39.3028V50.4466H41.2404V48.5262Z" fill="black"/>
<path opacity="0.25" d="M45.1134 48.5262H43.1757V50.4466H45.1134V48.5262Z" fill="black"/>
<path opacity="0.25" d="M48.9887 48.5262H47.0511V50.4466H48.9887V48.5262Z" fill="black"/>
<path opacity="0.25" d="M54.7994 48.5262H52.8617V50.4466H54.7994V48.5262Z" fill="black"/>
<path opacity="0.25" d="M56.7347 48.5262H54.797V50.4466H56.7347V48.5262Z" fill="black"/>
<path opacity="0.25" d="M25.7438 50.4465H23.8062V52.3669H25.7438V50.4465Z" fill="black"/>
<path opacity="0.25" d="M27.6815 50.4465H25.7438V52.3669H27.6815V50.4465Z" fill="black"/>
<path opacity="0.25" d="M33.4921 50.4465H31.5545V52.3669H33.4921V50.4465Z" fill="black"/>
<path opacity="0.25" d="M35.4298 50.4465H33.4921V52.3669H35.4298V50.4465Z" fill="black"/>
<path opacity="0.25" d="M37.3674 50.4465H35.4298V52.3669H37.3674V50.4465Z" fill="black"/>
<path opacity="0.25" d="M48.9887 50.4465H47.0511V52.3669H48.9887V50.4465Z" fill="black"/>
<path opacity="0.25" d="M52.8617 50.4465H50.924V52.3669H52.8617V50.4465Z" fill="black"/>
<path opacity="0.25" d="M56.7347 50.4465H54.797V52.3669H56.7347V50.4465Z" fill="black"/>
<path opacity="0.25" d="M25.7438 52.3669H23.8062V54.2873H25.7438V52.3669Z" fill="black"/>
<path opacity="0.25" d="M27.6815 52.3669H25.7438V54.2873H27.6815V52.3669Z" fill="black"/>
<path opacity="0.25" d="M29.6191 52.3669H27.6815V54.2873H29.6191V52.3669Z" fill="black"/>
<path opacity="0.25" d="M33.4921 52.3669H31.5545V54.2873H33.4921V52.3669Z" fill="black"/>
<path opacity="0.25" d="M35.4298 52.3669H33.4921V54.2873H35.4298V52.3669Z" fill="black"/>
<path opacity="0.25" d="M41.2404 52.3669H39.3028V54.2873H41.2404V52.3669Z" fill="black"/>
<path opacity="0.25" d="M43.1781 52.3669H41.2404V54.2873H43.1781V52.3669Z" fill="black"/>
<path opacity="0.25" d="M45.1134 52.3669H43.1757V54.2873H45.1134V52.3669Z" fill="black"/>
<path opacity="0.25" d="M47.0511 52.3669H45.1134V54.2873H47.0511V52.3669Z" fill="black"/>
<path opacity="0.25" d="M48.9887 52.3669H47.0511V54.2873H48.9887V52.3669Z" fill="black"/>
<path opacity="0.25" d="M50.924 52.3669H48.9864V54.2873H50.924V52.3669Z" fill="black"/>
<path opacity="0.25" d="M54.7994 52.3669H52.8617V54.2873H54.7994V52.3669Z" fill="black"/>
<path opacity="0.25" d="M25.7438 54.285H23.8062V56.2054H25.7438V54.285Z" fill="black"/>
<path opacity="0.25" d="M35.4298 54.285H33.4921V56.2054H35.4298V54.285Z" fill="black"/>
<path opacity="0.25" d="M39.3028 54.285H37.3651V56.2054H39.3028V54.285Z" fill="black"/>
<path opacity="0.25" d="M52.8617 54.285H50.924V56.2054H52.8617V54.285Z" fill="black"/>
<path opacity="0.25" d="M54.7994 54.285H52.8617V56.2054H54.7994V54.285Z" fill="black"/>
<path opacity="0.25" d="M56.7347 54.285H54.797V56.2054H56.7347V54.285Z" fill="black"/>
<path opacity="0.25" d="M8.72179 8.2124C8.49588 8.2124 8.30957 8.39705 8.30957 8.62094V10.1328V12.0531V13.9735V15.8939V17.8142V19.7346V21.2464C8.30957 21.4703 8.49355 21.655 8.72179 21.655H21.4586C21.6845 21.655 21.8708 21.4726 21.8708 21.2464V19.7346V17.8142V15.8939V13.9735V12.0531V10.1328V8.62094C21.8708 8.39705 21.6869 8.2124 21.4586 8.2124C21.4586 8.2124 8.72179 8.2124 8.72179 8.2124ZM19.9332 12.0531V13.9735V15.8939V17.8142V19.4992C19.9332 19.6308 19.826 19.7323 19.698 19.7323H10.4848C10.352 19.7323 10.2496 19.6261 10.2496 19.4992V17.8142V15.8939V13.9735V12.0531V10.3682C10.2496 10.2366 10.3567 10.1351 10.4848 10.1351H19.6956C19.8284 10.1351 19.9309 10.2413 19.9309 10.3682V12.0531H19.9332Z" fill="black"/>
<path opacity="0.25" d="M17.9955 15.8938V13.9735V12.4616C17.9955 12.2378 17.8115 12.0531 17.5833 12.0531H12.5971C12.3712 12.0531 12.1849 12.2354 12.1849 12.4616V13.9735V15.8938V17.4057C12.1849 17.6296 12.3689 17.8142 12.5971 17.8142H17.5833C17.8092 17.8142 17.9955 17.6319 17.9955 17.4057V15.8938Z" fill="black"/>
<path opacity="0.25" d="M43.588 8.2124C43.3621 8.2124 43.1757 8.39705 43.1757 8.62094V10.1328V12.0531V13.9735V15.8939V17.8142V19.7346V21.2464C43.1757 21.4703 43.3597 21.655 43.588 21.655H56.3248C56.5507 21.655 56.737 21.4726 56.737 21.2464V19.7346V17.8142V15.8939V13.9735V12.0531V10.1328V8.62094C56.737 8.39705 56.553 8.2124 56.3248 8.2124C56.3248 8.2124 43.588 8.2124 43.588 8.2124ZM54.797 12.0531V13.9735V15.8939V17.8142V19.4992C54.797 19.6308 54.6899 19.7323 54.5618 19.7323H45.3509C45.2182 19.7323 45.1157 19.6261 45.1157 19.4992V17.8142V15.8939V13.9735V12.0531V10.3682C45.1157 10.2366 45.2229 10.1351 45.3509 10.1351H54.5618C54.6946 10.1351 54.797 10.2413 54.797 10.3682V12.0531Z" fill="black"/>
<path opacity="0.25" d="M52.8617 15.8938V13.9735V12.4616C52.8617 12.2378 52.6777 12.0531 52.4495 12.0531H47.4609C47.235 12.0531 47.0487 12.2354 47.0487 12.4616V13.9735V15.8938V17.4057C47.0487 17.6296 47.2327 17.8142 47.4609 17.8142H52.4495C52.6754 17.8142 52.8617 17.6319 52.8617 17.4057V15.8938Z" fill="black"/>
<path opacity="0.25" d="M8.72179 42.7651C8.49588 42.7651 8.30957 42.9498 8.30957 43.1737V44.6855V46.6059V48.5262V50.4466V52.367V54.2874V55.7992C8.30957 56.0231 8.49355 56.2077 8.72179 56.2077H21.4586C21.6845 56.2077 21.8708 56.0254 21.8708 55.7992V54.2874V52.367V50.4466V48.5262V46.6059V44.6855V43.1737C21.8708 42.9498 21.6869 42.7651 21.4586 42.7651H8.72179ZM19.9332 46.6082V48.5286V50.4489V52.3693V54.0542C19.9332 54.1858 19.826 54.2874 19.698 54.2874H10.4848C10.352 54.2874 10.2496 54.1812 10.2496 54.0542V52.3693V50.4489V48.5286V46.6082V44.9232C10.2496 44.7917 10.3567 44.6901 10.4848 44.6901H19.6956C19.8284 44.6901 19.9309 44.7963 19.9309 44.9232V46.6082H19.9332Z" fill="black"/>
<path opacity="0.25" d="M17.9955 50.4466V48.5262V47.0144C17.9955 46.7905 17.8115 46.6058 17.5833 46.6058H12.5971C12.3712 46.6058 12.1849 46.7882 12.1849 47.0144V48.5262V50.4466V51.9584C12.1849 52.1823 12.3689 52.367 12.5971 52.367H17.5833C17.8092 52.367 17.9955 52.1846 17.9955 51.9584V50.4466Z" fill="black"/>
<path d="M3.19061 80H61.8094C63.5794 80 65 78.5689 65 76.8378V3.16215C65 1.40796 63.5561 0 61.8094 0H3.2139C1.44393 0 0.0232891 1.43104 0 3.16215V76.8378C0 78.592 1.44393 80 3.19061 80ZM2.46865 4.13156C2.46865 3.18523 3.23719 2.42354 4.19205 2.42354H60.8312C61.7861 2.42354 62.5546 3.18523 62.5546 4.13156V60.2885C62.5546 61.2349 61.7861 61.9965 60.8312 61.9965H4.19205C3.23719 61.9965 2.46865 61.2349 2.46865 60.2885V4.13156Z" fill="black"/>
<path d="M15.7877 73.6618C15.7877 74.2896 15.5595 74.7859 15.1007 75.146C14.6419 75.506 14.0061 75.6884 13.1886 75.6884C12.3246 75.6884 11.6585 75.5753 11.1881 75.3491V74.4812C11.4978 74.6128 11.8355 74.7166 12.2012 74.7928C12.5668 74.869 12.9115 74.9059 13.2282 74.9059C13.7732 74.9059 14.1831 74.802 14.4579 74.5943C14.7327 74.3866 14.8701 74.1027 14.8701 73.7403C14.8701 73.5003 14.8212 73.3018 14.7211 73.1471C14.6209 72.9925 14.4556 72.8471 14.2203 72.7132C13.9851 72.5793 13.6311 72.4247 13.1584 72.2539C12.4853 72.0115 12.0032 71.723 11.7144 71.3929C11.4257 71.0629 11.2813 70.6359 11.2813 70.1119C11.2813 69.5487 11.4955 69.101 11.9217 68.7709C12.3479 68.4385 12.9092 68.2723 13.6078 68.2723C14.3345 68.2723 15.0029 68.4062 15.613 68.6763L15.3289 69.4564C14.7048 69.2002 14.1249 69.071 13.5869 69.071C13.156 69.071 12.8183 69.1633 12.5738 69.3479C12.3293 69.5326 12.2082 69.7911 12.2082 70.1235C12.2082 70.3612 12.2547 70.5574 12.3502 70.712C12.4457 70.869 12.5971 71.0098 12.809 71.139C13.021 71.2683 13.3517 71.4137 13.8011 71.5776C14.3415 71.7761 14.7444 71.9677 15.0099 72.1523C15.2753 72.3393 15.471 72.5516 15.5967 72.794C15.7248 73.0386 15.7877 73.3272 15.7877 73.6618ZM20.3733 69.0733C19.5908 69.0733 18.9737 69.3341 18.5265 69.8534C18.0794 70.3727 17.8535 71.0836 17.8535 71.9838C17.8535 72.914 18.07 73.6318 18.5056 74.1373C18.9411 74.6428 19.5582 74.8944 20.3617 74.8944C20.8787 74.8944 21.4609 74.7997 22.1084 74.6082V75.3975C21.7986 75.5083 21.5029 75.5868 21.2164 75.626C20.93 75.6676 20.6016 75.6884 20.2313 75.6884C19.16 75.6884 18.3332 75.3652 17.7556 74.719C17.1757 74.0727 16.887 73.1563 16.887 71.9723C16.887 71.2291 17.0244 70.5782 17.3015 70.0196C17.5786 69.461 17.9815 69.0294 18.5102 68.727C19.0389 68.4247 19.663 68.2723 20.3803 68.2723C21.1512 68.2723 21.8196 68.4131 22.3925 68.697L22.0245 69.4656C21.4446 69.2048 20.895 69.0733 20.3733 69.0733ZM28.2637 75.5914L27.388 73.3572H24.5002L23.6338 75.5914H22.7069L25.5505 68.3485H26.3773L29.2139 75.5914H28.2637ZM27.1132 72.5516L26.2958 70.3658L25.9464 69.2856C25.8463 69.6803 25.7415 70.0404 25.632 70.3658L24.8053 72.5516H27.1132ZM35.9841 75.5914H34.9128L31.0142 69.6018H30.9746L31.0002 70.0011C31.0398 70.5989 31.0607 71.1206 31.0607 71.5591V75.5891H30.2153V68.3762H31.275L31.4986 68.727L33.888 72.3877L35.1573 74.3473H35.1969C35.1899 74.2689 35.1759 73.9873 35.1573 73.5003C35.1363 73.0155 35.127 72.6647 35.127 72.4477V68.3762H35.9841V75.5914ZM43.8209 75.5914L41.4221 69.2671H41.3825C41.4314 69.7934 41.457 70.442 41.457 71.2152V75.5914H40.6116V68.3785H41.9647L44.2098 74.2896H44.2494L46.534 68.3785H47.8778V75.5914H46.9719V71.1552C46.9719 70.6613 46.9952 70.0358 47.0417 69.2764H47.0021L44.5731 75.5914H43.8209ZM53.926 75.5914H49.8597V68.3785H53.926V69.1771H50.775V71.4276H53.742V72.2169H50.775V74.7928H53.926V75.5914Z" fill="white"/>
</svg>
