<svg width="57" height="80" viewBox="0 0 57 80" fill="none" xmlns="http://www.w3.org/2000/svg">
<g clip-path="url(#clip0)">
<path d="M52.2029 17.0588H4.81537V63.369H52.2029V17.0588Z" fill="white"/>
<path opacity="0.25" d="M24.7152 21.6935H23.2013V23.173H24.7152V21.6935Z" fill="black"/>
<path opacity="0.25" d="M32.303 21.6935H30.7891V23.173H32.303V21.6935Z" fill="black"/>
<path opacity="0.25" d="M35.3309 21.6935H33.817V23.173H35.3309V21.6935Z" fill="black"/>
<path opacity="0.25" d="M23.2013 23.1729H21.6874V24.6524H23.2013V23.1729Z" fill="black"/>
<path opacity="0.25" d="M24.7152 23.1729H23.2013V24.6524H24.7152V23.1729Z" fill="black"/>
<path opacity="0.25" d="M27.743 23.1729H26.2291V24.6524H27.743V23.1729Z" fill="black"/>
<path opacity="0.25" d="M29.257 23.1729H27.743V24.6524H29.257V23.1729Z" fill="black"/>
<path opacity="0.25" d="M30.7891 23.1729H29.2752V24.6524H30.7891V23.1729Z" fill="black"/>
<path opacity="0.25" d="M32.303 23.1729H30.7891V24.6524H32.303V23.1729Z" fill="black"/>
<path opacity="0.25" d="M24.7152 24.6523H23.2013V26.1318H24.7152V24.6523Z" fill="black"/>
<path opacity="0.25" d="M26.2291 24.6523H24.7152V26.1318H26.2291V24.6523Z" fill="black"/>
<path opacity="0.25" d="M27.743 24.6523H26.2291V26.1318H27.743V24.6523Z" fill="black"/>
<path opacity="0.25" d="M23.2013 26.132H21.6874V27.6115H23.2013V26.132Z" fill="black"/>
<path opacity="0.25" d="M24.7152 26.132H23.2013V27.6115H24.7152V26.132Z" fill="black"/>
<path opacity="0.25" d="M27.743 26.132H26.2291V27.6115H27.743V26.132Z" fill="black"/>
<path opacity="0.25" d="M30.7891 26.132H29.2752V27.6115H30.7891V26.132Z" fill="black"/>
<path opacity="0.25" d="M33.817 26.132H32.303V27.6115H33.817V26.132Z" fill="black"/>
<path opacity="0.25" d="M35.3309 26.132H33.817V27.6115H35.3309V26.132Z" fill="black"/>
<path opacity="0.25" d="M26.2291 27.6113H24.7152V29.0908H26.2291V27.6113Z" fill="black"/>
<path opacity="0.25" d="M29.257 27.6113H27.743V29.0908H29.257V27.6113Z" fill="black"/>
<path opacity="0.25" d="M33.817 27.6113H32.303V29.0908H33.817V27.6113Z" fill="black"/>
<path opacity="0.25" d="M35.3309 27.6113H33.817V29.0908H35.3309V27.6113Z" fill="black"/>
<path opacity="0.25" d="M23.2013 29.0909H21.6874V30.5704H23.2013V29.0909Z" fill="black"/>
<path opacity="0.25" d="M26.2291 29.0909H24.7152V30.5704H26.2291V29.0909Z" fill="black"/>
<path opacity="0.25" d="M30.7891 29.0909H29.2752V30.5704H30.7891V29.0909Z" fill="black"/>
<path opacity="0.25" d="M32.303 29.0909H30.7891V30.5704H32.303V29.0909Z" fill="black"/>
<path opacity="0.25" d="M33.817 29.0909H32.303V30.5704H33.817V29.0909Z" fill="black"/>
<path opacity="0.25" d="M23.2013 30.5883H21.6874V32.0678H23.2013V30.5883Z" fill="black"/>
<path opacity="0.25" d="M26.2291 30.5883H24.7152V32.0678H26.2291V30.5883Z" fill="black"/>
<path opacity="0.25" d="M29.257 30.5883H27.743V32.0678H29.257V30.5883Z" fill="black"/>
<path opacity="0.25" d="M32.303 30.5883H30.7891V32.0678H32.303V30.5883Z" fill="black"/>
<path opacity="0.25" d="M35.3309 30.5883H33.817V32.0678H35.3309V30.5883Z" fill="black"/>
<path opacity="0.25" d="M29.257 32.0677H27.743V33.5473H29.257V32.0677Z" fill="black"/>
<path opacity="0.25" d="M35.3309 32.0677H33.817V33.5473H35.3309V32.0677Z" fill="black"/>
<path opacity="0.25" d="M11.0717 33.5472H9.55777V35.0267H11.0717V33.5472Z" fill="black"/>
<path opacity="0.25" d="M12.5856 33.5472H11.0717V35.0267H12.5856V33.5472Z" fill="black"/>
<path opacity="0.25" d="M14.0995 33.5472H12.5856V35.0267H14.0995V33.5472Z" fill="black"/>
<path opacity="0.25" d="M15.6134 33.5472H14.0995V35.0267H15.6134V33.5472Z" fill="black"/>
<path opacity="0.25" d="M17.1274 33.5472H15.6134V35.0267H17.1274V33.5472Z" fill="black"/>
<path opacity="0.25" d="M20.1735 33.5472H18.6595V35.0267H20.1735V33.5472Z" fill="black"/>
<path opacity="0.25" d="M21.6874 33.5472H20.1734V35.0267H21.6874V33.5472Z" fill="black"/>
<path opacity="0.25" d="M23.2013 33.5472H21.6874V35.0267H23.2013V33.5472Z" fill="black"/>
<path opacity="0.25" d="M24.7152 33.5472H23.2013V35.0267H24.7152V33.5472Z" fill="black"/>
<path opacity="0.25" d="M26.2291 33.5472H24.7152V35.0267H26.2291V33.5472Z" fill="black"/>
<path opacity="0.25" d="M29.257 33.5472H27.743V35.0267H29.257V33.5472Z" fill="black"/>
<path opacity="0.25" d="M30.7891 33.5472H29.2752V35.0267H30.7891V33.5472Z" fill="black"/>
<path opacity="0.25" d="M33.817 33.5472H32.303V35.0267H33.817V33.5472Z" fill="black"/>
<path opacity="0.25" d="M36.8448 33.5472H35.3309V35.0267H36.8448V33.5472Z" fill="black"/>
<path opacity="0.25" d="M39.8727 33.5472H38.3587V35.0267H39.8727V33.5472Z" fill="black"/>
<path opacity="0.25" d="M42.9187 33.5472H41.4048V35.0267H42.9187V33.5472Z" fill="black"/>
<path opacity="0.25" d="M45.9466 33.5472H44.4326V35.0267H45.9466V33.5472Z" fill="black"/>
<path opacity="0.25" d="M15.6134 35.0267H14.0995V36.5062H15.6134V35.0267Z" fill="black"/>
<path opacity="0.25" d="M24.7152 35.0267H23.2013V36.5062H24.7152V35.0267Z" fill="black"/>
<path opacity="0.25" d="M33.817 35.0267H32.303V36.5062H33.817V35.0267Z" fill="black"/>
<path opacity="0.25" d="M35.3309 35.0267H33.817V36.5062H35.3309V35.0267Z" fill="black"/>
<path opacity="0.25" d="M36.8448 35.0267H35.3309V36.5062H36.8448V35.0267Z" fill="black"/>
<path opacity="0.25" d="M39.8727 35.0267H38.3587V36.5062H39.8727V35.0267Z" fill="black"/>
<path opacity="0.25" d="M41.4048 35.0267H39.8909V36.5062H41.4048V35.0267Z" fill="black"/>
<path opacity="0.25" d="M47.4605 35.0267H45.9466V36.5062H47.4605V35.0267Z" fill="black"/>
<path opacity="0.25" d="M14.0995 36.5062H12.5856V37.9857H14.0995V36.5062Z" fill="black"/>
<path opacity="0.25" d="M18.6595 36.5062H17.1456V37.9857H18.6595V36.5062Z" fill="black"/>
<path opacity="0.25" d="M20.1735 36.5062H18.6595V37.9857H20.1735V36.5062Z" fill="black"/>
<path opacity="0.25" d="M21.6874 36.5062H20.1734V37.9857H21.6874V36.5062Z" fill="black"/>
<path opacity="0.25" d="M24.7152 36.5062H23.2013V37.9857H24.7152V36.5062Z" fill="black"/>
<path opacity="0.25" d="M27.743 36.5062H26.2291V37.9857H27.743V36.5062Z" fill="black"/>
<path opacity="0.25" d="M29.257 36.5062H27.743V37.9857H29.257V36.5062Z" fill="black"/>
<path opacity="0.25" d="M30.7891 36.5062H29.2752V37.9857H30.7891V36.5062Z" fill="black"/>
<path opacity="0.25" d="M32.303 36.5062H30.7891V37.9857H32.303V36.5062Z" fill="black"/>
<path opacity="0.25" d="M33.817 36.5062H32.303V37.9857H33.817V36.5062Z" fill="black"/>
<path opacity="0.25" d="M36.8448 36.5062H35.3309V37.9857H36.8448V36.5062Z" fill="black"/>
<path opacity="0.25" d="M38.3587 36.5062H36.8448V37.9857H38.3587V36.5062Z" fill="black"/>
<path opacity="0.25" d="M41.4048 36.5062H39.8909V37.9857H41.4048V36.5062Z" fill="black"/>
<path opacity="0.25" d="M44.4326 36.5062H42.9187V37.9857H44.4326V36.5062Z" fill="black"/>
<path opacity="0.25" d="M11.0717 37.9857H9.55777V39.4652H11.0717V37.9857Z" fill="black"/>
<path opacity="0.25" d="M14.0995 37.9857H12.5856V39.4652H14.0995V37.9857Z" fill="black"/>
<path opacity="0.25" d="M15.6134 37.9857H14.0995V39.4652H15.6134V37.9857Z" fill="black"/>
<path opacity="0.25" d="M17.1274 37.9857H15.6134V39.4652H17.1274V37.9857Z" fill="black"/>
<path opacity="0.25" d="M18.6595 37.9857H17.1456V39.4652H18.6595V37.9857Z" fill="black"/>
<path opacity="0.25" d="M21.6874 37.9857H20.1734V39.4652H21.6874V37.9857Z" fill="black"/>
<path opacity="0.25" d="M23.2013 37.9857H21.6874V39.4652H23.2013V37.9857Z" fill="black"/>
<path opacity="0.25" d="M24.7152 37.9857H23.2013V39.4652H24.7152V37.9857Z" fill="black"/>
<path opacity="0.25" d="M26.2291 37.9857H24.7152V39.4652H26.2291V37.9857Z" fill="black"/>
<path opacity="0.25" d="M27.743 37.9857H26.2291V39.4652H27.743V37.9857Z" fill="black"/>
<path opacity="0.25" d="M32.303 37.9857H30.7891V39.4652H32.303V37.9857Z" fill="black"/>
<path opacity="0.25" d="M35.3309 37.9857H33.817V39.4652H35.3309V37.9857Z" fill="black"/>
<path opacity="0.25" d="M36.8448 37.9857H35.3309V39.4652H36.8448V37.9857Z" fill="black"/>
<path opacity="0.25" d="M11.0717 39.4652H9.55777V40.9447H11.0717V39.4652Z" fill="black"/>
<path opacity="0.25" d="M15.6134 39.4652H14.0995V40.9447H15.6134V39.4652Z" fill="black"/>
<path opacity="0.25" d="M20.1735 39.4652H18.6595V40.9447H20.1735V39.4652Z" fill="black"/>
<path opacity="0.25" d="M24.7152 39.4652H23.2013V40.9447H24.7152V39.4652Z" fill="black"/>
<path opacity="0.25" d="M27.743 39.4652H26.2291V40.9447H27.743V39.4652Z" fill="black"/>
<path opacity="0.25" d="M30.7891 39.4652H29.2752V40.9447H30.7891V39.4652Z" fill="black"/>
<path opacity="0.25" d="M33.817 39.4652H32.303V40.9447H33.817V39.4652Z" fill="black"/>
<path opacity="0.25" d="M38.3587 39.4652H36.8448V40.9447H38.3587V39.4652Z" fill="black"/>
<path opacity="0.25" d="M39.8727 39.4652H38.3587V40.9447H39.8727V39.4652Z" fill="black"/>
<path opacity="0.25" d="M41.4048 39.4652H39.8909V40.9447H41.4048V39.4652Z" fill="black"/>
<path opacity="0.25" d="M42.9187 39.4652H41.4048V40.9447H42.9187V39.4652Z" fill="black"/>
<path opacity="0.25" d="M45.9466 39.4652H44.4326V40.9447H45.9466V39.4652Z" fill="black"/>
<path opacity="0.25" d="M47.4605 39.4652H45.9466V40.9447H47.4605V39.4652Z" fill="black"/>
<path opacity="0.25" d="M11.0717 40.9625H9.55777V42.442H11.0717V40.9625Z" fill="black"/>
<path opacity="0.25" d="M12.5856 40.9625H11.0717V42.442H12.5856V40.9625Z" fill="black"/>
<path opacity="0.25" d="M15.6134 40.9625H14.0995V42.442H15.6134V40.9625Z" fill="black"/>
<path opacity="0.25" d="M21.6874 40.9625H20.1734V42.442H21.6874V40.9625Z" fill="black"/>
<path opacity="0.25" d="M26.2291 40.9625H24.7152V42.442H26.2291V40.9625Z" fill="black"/>
<path opacity="0.25" d="M29.257 40.9625H27.743V42.442H29.257V40.9625Z" fill="black"/>
<path opacity="0.25" d="M32.303 40.9625H30.7891V42.442H32.303V40.9625Z" fill="black"/>
<path opacity="0.25" d="M35.3309 40.9625H33.817V42.442H35.3309V40.9625Z" fill="black"/>
<path opacity="0.25" d="M36.8448 40.9625H35.3309V42.442H36.8448V40.9625Z" fill="black"/>
<path opacity="0.25" d="M38.3587 40.9625H36.8448V42.442H38.3587V40.9625Z" fill="black"/>
<path opacity="0.25" d="M39.8727 40.9625H38.3587V42.442H39.8727V40.9625Z" fill="black"/>
<path opacity="0.25" d="M41.4048 40.9625H39.8909V42.442H41.4048V40.9625Z" fill="black"/>
<path opacity="0.25" d="M11.0717 42.4421H9.55777V43.9217H11.0717V42.4421Z" fill="black"/>
<path opacity="0.25" d="M14.0995 42.4421H12.5856V43.9217H14.0995V42.4421Z" fill="black"/>
<path opacity="0.25" d="M15.6134 42.4421H14.0995V43.9217H15.6134V42.4421Z" fill="black"/>
<path opacity="0.25" d="M17.1274 42.4421H15.6134V43.9217H17.1274V42.4421Z" fill="black"/>
<path opacity="0.25" d="M20.1735 42.4421H18.6595V43.9217H20.1735V42.4421Z" fill="black"/>
<path opacity="0.25" d="M21.6874 42.4421H20.1734V43.9217H21.6874V42.4421Z" fill="black"/>
<path opacity="0.25" d="M30.7891 42.4421H29.2752V43.9217H30.7891V42.4421Z" fill="black"/>
<path opacity="0.25" d="M36.8448 42.4421H35.3309V43.9217H36.8448V42.4421Z" fill="black"/>
<path opacity="0.25" d="M38.3587 42.4421H36.8448V43.9217H38.3587V42.4421Z" fill="black"/>
<path opacity="0.25" d="M41.4048 42.4421H39.8909V43.9217H41.4048V42.4421Z" fill="black"/>
<path opacity="0.25" d="M44.4326 42.4421H42.9187V43.9217H44.4326V42.4421Z" fill="black"/>
<path opacity="0.25" d="M45.9466 42.4421H44.4326V43.9217H45.9466V42.4421Z" fill="black"/>
<path opacity="0.25" d="M47.4605 42.4421H45.9466V43.9217H47.4605V42.4421Z" fill="black"/>
<path opacity="0.25" d="M11.0717 43.9215H9.55777V45.401H11.0717V43.9215Z" fill="black"/>
<path opacity="0.25" d="M15.6134 43.9215H14.0995V45.401H15.6134V43.9215Z" fill="black"/>
<path opacity="0.25" d="M18.6595 43.9215H17.1456V45.401H18.6595V43.9215Z" fill="black"/>
<path opacity="0.25" d="M24.7152 43.9215H23.2013V45.401H24.7152V43.9215Z" fill="black"/>
<path opacity="0.25" d="M26.2291 43.9215H24.7152V45.401H26.2291V43.9215Z" fill="black"/>
<path opacity="0.25" d="M29.257 43.9215H27.743V45.401H29.257V43.9215Z" fill="black"/>
<path opacity="0.25" d="M30.7891 43.9215H29.2752V45.401H30.7891V43.9215Z" fill="black"/>
<path opacity="0.25" d="M32.303 43.9215H30.7891V45.401H32.303V43.9215Z" fill="black"/>
<path opacity="0.25" d="M36.8448 43.9215H35.3309V45.401H36.8448V43.9215Z" fill="black"/>
<path opacity="0.25" d="M45.9466 43.9215H44.4326V45.401H45.9466V43.9215Z" fill="black"/>
<path opacity="0.25" d="M47.4605 43.9215H45.9466V45.401H47.4605V43.9215Z" fill="black"/>
<path opacity="0.25" d="M11.0717 45.4011H9.55777V46.8806H11.0717V45.4011Z" fill="black"/>
<path opacity="0.25" d="M20.1735 45.4011H18.6595V46.8806H20.1735V45.4011Z" fill="black"/>
<path opacity="0.25" d="M26.2291 45.4011H24.7152V46.8806H26.2291V45.4011Z" fill="black"/>
<path opacity="0.25" d="M29.257 45.4011H27.743V46.8806H29.257V45.4011Z" fill="black"/>
<path opacity="0.25" d="M33.817 45.4011H32.303V46.8806H33.817V45.4011Z" fill="black"/>
<path opacity="0.25" d="M35.3309 45.4011H33.817V46.8806H35.3309V45.4011Z" fill="black"/>
<path opacity="0.25" d="M36.8448 45.4011H35.3309V46.8806H36.8448V45.4011Z" fill="black"/>
<path opacity="0.25" d="M38.3587 45.4011H36.8448V46.8806H38.3587V45.4011Z" fill="black"/>
<path opacity="0.25" d="M39.8727 45.4011H38.3587V46.8806H39.8727V45.4011Z" fill="black"/>
<path opacity="0.25" d="M41.4048 45.4011H39.8909V46.8806H41.4048V45.4011Z" fill="black"/>
<path opacity="0.25" d="M42.9187 45.4011H41.4048V46.8806H42.9187V45.4011Z" fill="black"/>
<path opacity="0.25" d="M47.4605 45.4011H45.9466V46.8806H47.4605V45.4011Z" fill="black"/>
<path opacity="0.25" d="M23.2013 46.8806H21.6874V48.3601H23.2013V46.8806Z" fill="black"/>
<path opacity="0.25" d="M26.2291 46.8806H24.7152V48.3601H26.2291V46.8806Z" fill="black"/>
<path opacity="0.25" d="M32.303 46.8806H30.7891V48.3601H32.303V46.8806Z" fill="black"/>
<path opacity="0.25" d="M35.3309 46.8806H33.817V48.3601H35.3309V46.8806Z" fill="black"/>
<path opacity="0.25" d="M41.4048 46.8806H39.8909V48.3601H41.4048V46.8806Z" fill="black"/>
<path opacity="0.25" d="M47.4605 46.8806H45.9466V48.3601H47.4605V46.8806Z" fill="black"/>
<path opacity="0.25" d="M23.2013 48.36H21.6874V49.8395H23.2013V48.36Z" fill="black"/>
<path opacity="0.25" d="M24.7152 48.36H23.2013V49.8395H24.7152V48.36Z" fill="black"/>
<path opacity="0.25" d="M26.2291 48.36H24.7152V49.8395H26.2291V48.36Z" fill="black"/>
<path opacity="0.25" d="M27.743 48.36H26.2291V49.8395H27.743V48.36Z" fill="black"/>
<path opacity="0.25" d="M29.257 48.36H27.743V49.8395H29.257V48.36Z" fill="black"/>
<path opacity="0.25" d="M32.303 48.36H30.7891V49.8395H32.303V48.36Z" fill="black"/>
<path opacity="0.25" d="M35.3309 48.36H33.817V49.8395H35.3309V48.36Z" fill="black"/>
<path opacity="0.25" d="M38.3587 48.36H36.8448V49.8395H38.3587V48.36Z" fill="black"/>
<path opacity="0.25" d="M41.4048 48.36H39.8909V49.8395H41.4048V48.36Z" fill="black"/>
<path opacity="0.25" d="M44.4326 48.36H42.9187V49.8395H44.4326V48.36Z" fill="black"/>
<path opacity="0.25" d="M45.9466 48.36H44.4326V49.8395H45.9466V48.36Z" fill="black"/>
<path opacity="0.25" d="M47.4605 48.36H45.9466V49.8395H47.4605V48.36Z" fill="black"/>
<path opacity="0.25" d="M24.7152 49.8396H23.2013V51.3191H24.7152V49.8396Z" fill="black"/>
<path opacity="0.25" d="M26.2291 49.8396H24.7152V51.3191H26.2291V49.8396Z" fill="black"/>
<path opacity="0.25" d="M27.743 49.8396H26.2291V51.3191H27.743V49.8396Z" fill="black"/>
<path opacity="0.25" d="M32.303 49.8396H30.7891V51.3191H32.303V49.8396Z" fill="black"/>
<path opacity="0.25" d="M35.3309 49.8396H33.817V51.3191H35.3309V49.8396Z" fill="black"/>
<path opacity="0.25" d="M41.4048 49.8396H39.8909V51.3191H41.4048V49.8396Z" fill="black"/>
<path opacity="0.25" d="M42.9187 49.8396H41.4048V51.3191H42.9187V49.8396Z" fill="black"/>
<path opacity="0.25" d="M23.2013 51.3369H21.6874V52.8164H23.2013V51.3369Z" fill="black"/>
<path opacity="0.25" d="M24.7152 51.3369H23.2013V52.8164H24.7152V51.3369Z" fill="black"/>
<path opacity="0.25" d="M27.743 51.3369H26.2291V52.8164H27.743V51.3369Z" fill="black"/>
<path opacity="0.25" d="M29.257 51.3369H27.743V52.8164H29.257V51.3369Z" fill="black"/>
<path opacity="0.25" d="M30.7891 51.3369H29.2752V52.8164H30.7891V51.3369Z" fill="black"/>
<path opacity="0.25" d="M35.3309 51.3369H33.817V52.8164H35.3309V51.3369Z" fill="black"/>
<path opacity="0.25" d="M36.8448 51.3369H35.3309V52.8164H36.8448V51.3369Z" fill="black"/>
<path opacity="0.25" d="M38.3587 51.3369H36.8448V52.8164H38.3587V51.3369Z" fill="black"/>
<path opacity="0.25" d="M39.8727 51.3369H38.3587V52.8164H39.8727V51.3369Z" fill="black"/>
<path opacity="0.25" d="M41.4048 51.3369H39.8909V52.8164H41.4048V51.3369Z" fill="black"/>
<path opacity="0.25" d="M42.9187 51.3369H41.4048V52.8164H42.9187V51.3369Z" fill="black"/>
<path opacity="0.25" d="M23.2013 52.8164H21.6874V54.2959H23.2013V52.8164Z" fill="black"/>
<path opacity="0.25" d="M24.7152 52.8164H23.2013V54.2959H24.7152V52.8164Z" fill="black"/>
<path opacity="0.25" d="M26.2291 52.8164H24.7152V54.2959H26.2291V52.8164Z" fill="black"/>
<path opacity="0.25" d="M29.257 52.8164H27.743V54.2959H29.257V52.8164Z" fill="black"/>
<path opacity="0.25" d="M33.817 52.8164H32.303V54.2959H33.817V52.8164Z" fill="black"/>
<path opacity="0.25" d="M35.3309 52.8164H33.817V54.2959H35.3309V52.8164Z" fill="black"/>
<path opacity="0.25" d="M38.3587 52.8164H36.8448V54.2959H38.3587V52.8164Z" fill="black"/>
<path opacity="0.25" d="M41.4048 52.8164H39.8909V54.2959H41.4048V52.8164Z" fill="black"/>
<path opacity="0.25" d="M45.9466 52.8164H44.4326V54.2959H45.9466V52.8164Z" fill="black"/>
<path opacity="0.25" d="M47.4605 52.8164H45.9466V54.2959H47.4605V52.8164Z" fill="black"/>
<path opacity="0.25" d="M23.2013 54.2959H21.6874V55.7754H23.2013V54.2959Z" fill="black"/>
<path opacity="0.25" d="M24.7152 54.2959H23.2013V55.7754H24.7152V54.2959Z" fill="black"/>
<path opacity="0.25" d="M29.257 54.2959H27.743V55.7754H29.257V54.2959Z" fill="black"/>
<path opacity="0.25" d="M30.7891 54.2959H29.2752V55.7754H30.7891V54.2959Z" fill="black"/>
<path opacity="0.25" d="M32.303 54.2959H30.7891V55.7754H32.303V54.2959Z" fill="black"/>
<path opacity="0.25" d="M41.4048 54.2959H39.8909V55.7754H41.4048V54.2959Z" fill="black"/>
<path opacity="0.25" d="M44.4326 54.2959H42.9187V55.7754H44.4326V54.2959Z" fill="black"/>
<path opacity="0.25" d="M47.4605 54.2959H45.9466V55.7754H47.4605V54.2959Z" fill="black"/>
<path opacity="0.25" d="M23.2013 55.7754H21.6874V57.2549H23.2013V55.7754Z" fill="black"/>
<path opacity="0.25" d="M24.7152 55.7754H23.2013V57.2549H24.7152V55.7754Z" fill="black"/>
<path opacity="0.25" d="M26.2291 55.7754H24.7152V57.2549H26.2291V55.7754Z" fill="black"/>
<path opacity="0.25" d="M29.257 55.7754H27.743V57.2549H29.257V55.7754Z" fill="black"/>
<path opacity="0.25" d="M30.7891 55.7754H29.2752V57.2549H30.7891V55.7754Z" fill="black"/>
<path opacity="0.25" d="M35.3309 55.7754H33.817V57.2549H35.3309V55.7754Z" fill="black"/>
<path opacity="0.25" d="M36.8448 55.7754H35.3309V57.2549H36.8448V55.7754Z" fill="black"/>
<path opacity="0.25" d="M38.3587 55.7754H36.8448V57.2549H38.3587V55.7754Z" fill="black"/>
<path opacity="0.25" d="M39.8727 55.7754H38.3587V57.2549H39.8727V55.7754Z" fill="black"/>
<path opacity="0.25" d="M41.4048 55.7754H39.8909V57.2549H41.4048V55.7754Z" fill="black"/>
<path opacity="0.25" d="M42.9187 55.7754H41.4048V57.2549H42.9187V55.7754Z" fill="black"/>
<path opacity="0.25" d="M45.9466 55.7754H44.4326V57.2549H45.9466V55.7754Z" fill="black"/>
<path opacity="0.25" d="M23.2013 57.255H21.6874V58.7345H23.2013V57.255Z" fill="black"/>
<path opacity="0.25" d="M30.7891 57.255H29.2752V58.7345H30.7891V57.255Z" fill="black"/>
<path opacity="0.25" d="M33.817 57.255H32.303V58.7345H33.817V57.255Z" fill="black"/>
<path opacity="0.25" d="M44.4326 57.255H42.9187V58.7345H44.4326V57.255Z" fill="black"/>
<path opacity="0.25" d="M45.9466 57.255H44.4326V58.7345H45.9466V57.255Z" fill="black"/>
<path opacity="0.25" d="M47.4605 57.255H45.9466V58.7345H47.4605V57.255Z" fill="black"/>
<path opacity="0.25" d="M9.86784 21.6935C9.68544 21.6935 9.53952 21.8361 9.53952 22.0143V23.1908V24.6703V26.1498V27.6293V29.1088V30.5883V31.7648C9.53952 31.943 9.68544 32.0856 9.86784 32.0856H19.8451C20.0275 32.0856 20.1734 31.943 20.1734 31.7648V30.5883V29.1088V27.6293V26.1498V24.6703V23.173V21.9965C20.1734 21.8183 20.0275 21.6757 19.8451 21.6757C19.8451 21.6935 9.86784 21.6935 9.86784 21.6935ZM18.6595 24.6525V26.132V27.6115V29.091V30.3922C18.6595 30.4992 18.5683 30.5705 18.4771 30.5705H11.2541C11.1446 30.5705 11.0717 30.4814 11.0717 30.3922V29.091V27.6115V26.132V24.6525V23.3512C11.0717 23.2443 11.1629 23.173 11.2541 23.173H18.4589C18.5683 23.173 18.6413 23.2621 18.6413 23.3512V24.6525H18.6595Z" fill="black"/>
<path opacity="0.25" d="M17.1456 27.6115V26.132V24.9555C17.1456 24.7772 16.9997 24.6346 16.8173 24.6346H12.9139C12.7315 24.6346 12.5856 24.7772 12.5856 24.9555V26.132V27.6115V28.7879C12.5856 28.9662 12.7315 29.1088 12.9139 29.1088H16.8173C16.9997 29.1088 17.1456 28.9662 17.1456 28.7879V27.6115Z" fill="black"/>
<path opacity="0.25" d="M37.1731 21.6935C36.9907 21.6935 36.8448 21.8361 36.8448 22.0143V23.1908V24.6703V26.1498V27.6293V29.1088V30.5883V31.7648C36.8448 31.943 36.9907 32.0856 37.1731 32.0856H47.1504C47.3328 32.0856 47.4787 31.943 47.4787 31.7648V30.5883V29.1088V27.6293V26.1498V24.6703V23.173V21.9965C47.4787 21.8183 47.3328 21.6757 47.1504 21.6757C47.1504 21.6935 37.1731 21.6935 37.1731 21.6935ZM45.9466 24.6525V26.132V27.6115V29.091V30.3922C45.9466 30.4992 45.8554 30.5705 45.7642 30.5705H38.5594C38.4499 30.5705 38.377 30.4814 38.377 30.3922V29.091V27.6115V26.132V24.6525V23.3512C38.377 23.2443 38.4682 23.173 38.5594 23.173H45.7642C45.8736 23.173 45.9466 23.2621 45.9466 23.3512V24.6525Z" fill="black"/>
<path opacity="0.25" d="M44.4326 27.6115V26.132V24.9555C44.4326 24.7772 44.2867 24.6346 44.1043 24.6346H40.201C40.0186 24.6346 39.8727 24.7772 39.8727 24.9555V26.132V27.6115V28.7879C39.8727 28.9662 40.0186 29.1088 40.201 29.1088H44.1043C44.2867 29.1088 44.4326 28.9662 44.4326 28.7879V27.6115Z" fill="black"/>
<path opacity="0.25" d="M9.86784 48.36C9.68544 48.36 9.53952 48.5026 9.53952 48.6808V49.8573V51.3368V52.8163V54.2958V55.7753V57.2548V58.4313C9.53952 58.6095 9.68544 58.7521 9.86784 58.7521H19.8451C20.0275 58.7521 20.1734 58.6095 20.1734 58.4313V57.2548V55.7753V54.2958V52.8163V51.3368V49.8573V48.6808C20.1734 48.5026 20.0275 48.36 19.8451 48.36C19.8451 48.36 9.86784 48.36 9.86784 48.36ZM18.6595 51.3368V52.8163V54.2958V55.7753V57.0766C18.6595 57.1835 18.5683 57.2548 18.4771 57.2548H11.2541C11.1446 57.2548 11.0717 57.1657 11.0717 57.0766V55.7753V54.2958V52.8163V51.3368V50.0356C11.0717 49.9286 11.1629 49.8573 11.2541 49.8573H18.4589C18.5683 49.8573 18.6413 49.9464 18.6413 50.0356V51.3368H18.6595Z" fill="black"/>
<path opacity="0.25" d="M17.1456 54.2959V52.8164V51.64C17.1456 51.4617 16.9997 51.3191 16.8173 51.3191H12.9139C12.7315 51.3191 12.5856 51.4617 12.5856 51.64V52.8164V54.2959V55.4724C12.5856 55.6507 12.7315 55.7933 12.9139 55.7933H16.8173C16.9997 55.7933 17.1456 55.6507 17.1456 55.4724V54.2959Z" fill="black"/>
<path d="M55.34 17.2193C55.3036 15.6506 53.972 14.385 52.3669 14.385H41.7877V6.43494C41.7877 5.75758 41.5141 5.09804 41.0216 4.63458L38.0667 1.71123C36.9359 0.623886 35.4037 0 33.8168 0H23.2011C21.6143 0 20.0821 0.623886 18.9512 1.71123L15.9781 4.61676C15.4856 5.09804 15.212 5.73975 15.212 6.41711V14.385H4.63282C3.0277 14.385 1.69618 15.6328 1.6597 17.2193L-0.000141526 77.0053C-0.0366215 78.6453 1.2949 80 2.97298 80H54.0268C55.7048 80 57.0546 78.6453 56.9999 77.0053L55.34 17.2193ZM20.7023 5.36542H36.2975V14.385H20.7023V5.36542ZM52.0386 61.9073C52.0386 62.6381 51.4367 63.2264 50.6888 63.2264H6.32914C5.5813 63.2264 4.97938 62.6381 4.97938 61.9073V18.5383C4.97938 17.8075 5.5813 17.2193 6.32914 17.2193H50.6888C51.4367 17.2193 52.0386 17.8075 52.0386 18.5383V61.9073Z" fill="black"/>
<path opacity="0.35" d="M36.2976 5.36542V3.01248C36.2976 1.35472 34.9296 0 33.215 0H23.6573C22.0339 0 20.7024 1.30125 20.7024 2.8877V5.36542H36.2976Z" fill="white"/>
<path d="M15.1027 72.9234C15.1027 73.4047 14.9203 73.7969 14.5738 74.0643C14.2272 74.3316 13.7165 74.4921 13.0781 74.4921C12.4032 74.4921 11.8742 74.4029 11.5094 74.2247V73.5473C11.7466 73.6543 12.0202 73.7256 12.312 73.7791C12.6038 73.8325 12.8592 73.8682 13.1146 73.8682C13.5341 73.8682 13.8624 73.7969 14.0813 73.6365C14.3002 73.476 14.4096 73.2621 14.4096 72.9769C14.4096 72.7987 14.3731 72.6382 14.3002 72.5135C14.2272 72.3887 14.0995 72.2817 13.9171 72.1748C13.7347 72.0678 13.4611 71.9609 13.0781 71.8183C12.5491 71.6222 12.1661 71.4083 11.9472 71.1587C11.7283 70.9092 11.6006 70.5705 11.6006 70.1783C11.6006 69.7505 11.7648 69.394 12.0931 69.1445C12.4214 68.8949 12.8592 68.7523 13.4064 68.7523C13.9718 68.7523 14.5008 68.8593 14.975 69.0732L14.7562 69.6792C14.2637 69.4832 13.8077 69.3762 13.3882 69.3762C13.0416 69.3762 12.7862 69.4475 12.5856 69.5901C12.4032 69.7327 12.2938 69.9288 12.2938 70.1962C12.2938 70.3744 12.3302 70.5348 12.4032 70.6596C12.4762 70.7844 12.6038 70.8914 12.768 70.9805C12.9322 71.0696 13.1875 71.1944 13.5523 71.3192C13.9718 71.4796 14.3002 71.6222 14.5008 71.7648C14.7014 71.9074 14.8656 72.0678 14.9568 72.2639C15.048 72.4422 15.1027 72.6739 15.1027 72.9234ZM18.696 69.394C18.0758 69.394 17.6016 69.5901 17.255 70.0001C16.9085 70.4101 16.7261 70.9448 16.7261 71.64C16.7261 72.353 16.8902 72.9056 17.2368 73.2978C17.5834 73.6899 18.0576 73.886 18.696 73.886C19.0973 73.886 19.5533 73.8147 20.064 73.6721V74.2782C19.8269 74.3673 19.5898 74.4208 19.3709 74.4564C19.152 74.4921 18.8966 74.5099 18.6048 74.5099C17.7658 74.5099 17.1274 74.2603 16.6714 73.7612C16.2154 73.2621 15.9965 72.5491 15.9965 71.64C15.9965 71.0696 16.1059 70.5705 16.3248 70.1249C16.5437 69.6971 16.8538 69.3584 17.2733 69.1266C17.6928 68.8949 18.167 68.7701 18.7325 68.7701C19.3344 68.7701 19.8634 68.8771 20.3011 69.091L20.0093 69.6792C19.535 69.4832 19.0973 69.394 18.696 69.394ZM24.8794 74.4208L24.1862 72.6917H21.9245L21.2496 74.4208H20.52L22.7453 68.8236H23.3837L25.609 74.4208H24.8794ZM23.9674 72.0678L23.329 70.3744L23.0554 69.5366C22.9824 69.8397 22.8912 70.1249 22.8182 70.3744L22.1798 72.0678H23.9674ZM30.9168 74.4208H30.0778L27.0317 69.7862H26.9952L27.0134 70.0892C27.0499 70.5527 27.0682 70.9448 27.0682 71.3013V74.4208H26.4115V68.8414H27.2506L27.433 69.1088L29.3117 71.9431L30.3149 73.4582H30.3514C30.3514 73.4047 30.3331 73.173 30.3149 72.7987C30.2966 72.4243 30.2966 72.157 30.2966 71.9787V68.8414H30.9715V74.4208H30.9168ZM37.0637 74.4208L35.185 69.5366H35.1485C35.185 69.9466 35.2032 70.4457 35.2032 71.034V74.4208H34.5466V68.8414H35.6045L37.3555 73.4047H37.392L39.1795 68.8414H40.2374V74.4208H39.5261V70.9983C39.5261 70.624 39.5443 70.1249 39.5808 69.5545H39.5443L37.6474 74.4386H37.0637V74.4208ZM44.9798 74.4208H41.7878V68.8414H44.9798V69.4653H42.4992V71.1944H44.8157V71.8004H42.4992V73.7969H44.9616V74.4208H44.9798Z" fill="white"/>
</g>
<defs>
<clipPath id="clip0">
<rect width="57" height="80" fill="white"/>
</clipPath>
</defs>
</svg>
