<svg width="56" height="80" viewBox="0 0 56 80" fill="none" xmlns="http://www.w3.org/2000/svg">
<path d="M54.0738 26.2612H1.92619V78.0858H54.0738V26.2612Z" fill="white"/>
<path opacity="0.25" d="M23.8286 31.4437H22.1592V33.1027H23.8286V31.4437Z" fill="black"/>
<path opacity="0.25" d="M32.1734 31.4437H30.5041V33.1027H32.1734V31.4437Z" fill="black"/>
<path opacity="0.25" d="M35.5101 31.4437H33.8408V33.1027H35.5101V31.4437Z" fill="black"/>
<path opacity="0.25" d="M22.1592 33.1027H20.4899V34.7617H22.1592V33.1027Z" fill="black"/>
<path opacity="0.25" d="M23.8286 33.1027H22.1592V34.7617H23.8286V33.1027Z" fill="black"/>
<path opacity="0.25" d="M27.1653 33.1027H25.4959V34.7617H27.1653V33.1027Z" fill="black"/>
<path opacity="0.25" d="M28.8347 33.1027H27.1653V34.7617H28.8347V33.1027Z" fill="black"/>
<path opacity="0.25" d="M30.504 33.1027H28.8347V34.7617H30.504V33.1027Z" fill="black"/>
<path opacity="0.25" d="M32.1734 33.1027H30.5041V34.7617H32.1734V33.1027Z" fill="black"/>
<path opacity="0.25" d="M23.8286 34.7596H22.1592V36.4187H23.8286V34.7596Z" fill="black"/>
<path opacity="0.25" d="M25.4979 34.7596H23.8286V36.4187H25.4979V34.7596Z" fill="black"/>
<path opacity="0.25" d="M27.1653 34.7596H25.4959V36.4187H27.1653V34.7596Z" fill="black"/>
<path opacity="0.25" d="M22.1592 36.4187H20.4899V38.0777H22.1592V36.4187Z" fill="black"/>
<path opacity="0.25" d="M23.8286 36.4187H22.1592V38.0777H23.8286V36.4187Z" fill="black"/>
<path opacity="0.25" d="M27.1653 36.4187H25.4959V38.0777H27.1653V36.4187Z" fill="black"/>
<path opacity="0.25" d="M30.504 36.4187H28.8347V38.0777H30.504V36.4187Z" fill="black"/>
<path opacity="0.25" d="M33.8408 36.4187H32.1714V38.0777H33.8408V36.4187Z" fill="black"/>
<path opacity="0.25" d="M35.5101 36.4187H33.8408V38.0777H35.5101V36.4187Z" fill="black"/>
<path opacity="0.25" d="M25.4979 38.0778H23.8286V39.7368H25.4979V38.0778Z" fill="black"/>
<path opacity="0.25" d="M28.8347 38.0778H27.1653V39.7368H28.8347V38.0778Z" fill="black"/>
<path opacity="0.25" d="M33.8408 38.0778H32.1714V39.7368H33.8408V38.0778Z" fill="black"/>
<path opacity="0.25" d="M35.5101 38.0778H33.8408V39.7368H35.5101V38.0778Z" fill="black"/>
<path opacity="0.25" d="M22.1592 39.7347H20.4899V41.3938H22.1592V39.7347Z" fill="black"/>
<path opacity="0.25" d="M25.4979 39.7347H23.8286V41.3938H25.4979V39.7347Z" fill="black"/>
<path opacity="0.25" d="M30.504 39.7347H28.8347V41.3938H30.504V39.7347Z" fill="black"/>
<path opacity="0.25" d="M32.1734 39.7347H30.5041V41.3938H32.1734V39.7347Z" fill="black"/>
<path opacity="0.25" d="M33.8408 39.7347H32.1714V41.3938H33.8408V39.7347Z" fill="black"/>
<path opacity="0.25" d="M22.1592 41.3938H20.4899V43.0528H22.1592V41.3938Z" fill="black"/>
<path opacity="0.25" d="M25.4979 41.3938H23.8286V43.0528H25.4979V41.3938Z" fill="black"/>
<path opacity="0.25" d="M28.8347 41.3938H27.1653V43.0528H28.8347V41.3938Z" fill="black"/>
<path opacity="0.25" d="M32.1734 41.3938H30.5041V43.0528H32.1734V41.3938Z" fill="black"/>
<path opacity="0.25" d="M35.5101 41.3938H33.8408V43.0528H35.5101V41.3938Z" fill="black"/>
<path opacity="0.25" d="M28.8347 43.0529H27.1653V44.7119H28.8347V43.0529Z" fill="black"/>
<path opacity="0.25" d="M35.5101 43.0529H33.8408V44.7119H35.5101V43.0529Z" fill="black"/>
<path opacity="0.25" d="M8.81032 44.71H7.14095V46.369H8.81032V44.71Z" fill="black"/>
<path opacity="0.25" d="M10.4797 44.71H8.81032V46.369H10.4797V44.71Z" fill="black"/>
<path opacity="0.25" d="M12.147 44.71H10.4777V46.369H12.147V44.71Z" fill="black"/>
<path opacity="0.25" d="M13.8164 44.71H12.147V46.369H13.8164V44.71Z" fill="black"/>
<path opacity="0.25" d="M15.4858 44.71H13.8164V46.369H15.4858V44.71Z" fill="black"/>
<path opacity="0.25" d="M18.8225 44.71H17.1531V46.369H18.8225V44.71Z" fill="black"/>
<path opacity="0.25" d="M20.4919 44.71H18.8225V46.369H20.4919V44.71Z" fill="black"/>
<path opacity="0.25" d="M22.1592 44.71H20.4899V46.369H22.1592V44.71Z" fill="black"/>
<path opacity="0.25" d="M23.8286 44.71H22.1592V46.369H23.8286V44.71Z" fill="black"/>
<path opacity="0.25" d="M25.4979 44.71H23.8286V46.369H25.4979V44.71Z" fill="black"/>
<path opacity="0.25" d="M28.8347 44.71H27.1653V46.369H28.8347V44.71Z" fill="black"/>
<path opacity="0.25" d="M30.504 44.71H28.8347V46.369H30.504V44.71Z" fill="black"/>
<path opacity="0.25" d="M33.8408 44.71H32.1714V46.369H33.8408V44.71Z" fill="black"/>
<path opacity="0.25" d="M37.1795 44.71H35.5101V46.369H37.1795V44.71Z" fill="black"/>
<path opacity="0.25" d="M40.5162 44.71H38.8469V46.369H40.5162V44.71Z" fill="black"/>
<path opacity="0.25" d="M43.853 44.71H42.1836V46.369H43.853V44.71Z" fill="black"/>
<path opacity="0.25" d="M47.1917 44.71H45.5223V46.369H47.1917V44.71Z" fill="black"/>
<path opacity="0.25" d="M13.8164 46.3689H12.147V48.0279H13.8164V46.3689Z" fill="black"/>
<path opacity="0.25" d="M23.8286 46.3689H22.1592V48.0279H23.8286V46.3689Z" fill="black"/>
<path opacity="0.25" d="M33.8408 46.3689H32.1714V48.0279H33.8408V46.3689Z" fill="black"/>
<path opacity="0.25" d="M35.5101 46.3689H33.8408V48.0279H35.5101V46.3689Z" fill="black"/>
<path opacity="0.25" d="M37.1795 46.3689H35.5101V48.0279H37.1795V46.3689Z" fill="black"/>
<path opacity="0.25" d="M40.5162 46.3689H38.8469V48.0279H40.5162V46.3689Z" fill="black"/>
<path opacity="0.25" d="M42.1856 46.3689H40.5162V48.0279H42.1856V46.3689Z" fill="black"/>
<path opacity="0.25" d="M48.859 46.3689H47.1897V48.0279H48.859V46.3689Z" fill="black"/>
<path opacity="0.25" d="M12.147 48.028H10.4777V49.687H12.147V48.028Z" fill="black"/>
<path opacity="0.25" d="M17.1531 48.028H15.4838V49.687H17.1531V48.028Z" fill="black"/>
<path opacity="0.25" d="M18.8225 48.028H17.1531V49.687H18.8225V48.028Z" fill="black"/>
<path opacity="0.25" d="M20.4919 48.028H18.8225V49.687H20.4919V48.028Z" fill="black"/>
<path opacity="0.25" d="M23.8286 48.028H22.1592V49.687H23.8286V48.028Z" fill="black"/>
<path opacity="0.25" d="M27.1653 48.028H25.4959V49.687H27.1653V48.028Z" fill="black"/>
<path opacity="0.25" d="M28.8347 48.028H27.1653V49.687H28.8347V48.028Z" fill="black"/>
<path opacity="0.25" d="M30.504 48.028H28.8347V49.687H30.504V48.028Z" fill="black"/>
<path opacity="0.25" d="M32.1734 48.028H30.5041V49.687H32.1734V48.028Z" fill="black"/>
<path opacity="0.25" d="M33.8408 48.028H32.1714V49.687H33.8408V48.028Z" fill="black"/>
<path opacity="0.25" d="M37.1795 48.028H35.5101V49.687H37.1795V48.028Z" fill="black"/>
<path opacity="0.25" d="M38.8469 48.028H37.1775V49.687H38.8469V48.028Z" fill="black"/>
<path opacity="0.25" d="M42.1856 48.028H40.5162V49.687H42.1856V48.028Z" fill="black"/>
<path opacity="0.25" d="M45.5223 48.028H43.853V49.687H45.5223V48.028Z" fill="black"/>
<path opacity="0.25" d="M8.81032 49.6849H7.14095V51.3439H8.81032V49.6849Z" fill="black"/>
<path opacity="0.25" d="M12.147 49.6849H10.4777V51.3439H12.147V49.6849Z" fill="black"/>
<path opacity="0.25" d="M13.8164 49.6849H12.147V51.3439H13.8164V49.6849Z" fill="black"/>
<path opacity="0.25" d="M15.4858 49.6849H13.8164V51.3439H15.4858V49.6849Z" fill="black"/>
<path opacity="0.25" d="M17.1531 49.6849H15.4838V51.3439H17.1531V49.6849Z" fill="black"/>
<path opacity="0.25" d="M20.4919 49.6849H18.8225V51.3439H20.4919V49.6849Z" fill="black"/>
<path opacity="0.25" d="M22.1592 49.6849H20.4899V51.3439H22.1592V49.6849Z" fill="black"/>
<path opacity="0.25" d="M23.8286 49.6849H22.1592V51.3439H23.8286V49.6849Z" fill="black"/>
<path opacity="0.25" d="M25.4979 49.6849H23.8286V51.3439H25.4979V49.6849Z" fill="black"/>
<path opacity="0.25" d="M27.1653 49.6849H25.4959V51.3439H27.1653V49.6849Z" fill="black"/>
<path opacity="0.25" d="M32.1734 49.6849H30.5041V51.3439H32.1734V49.6849Z" fill="black"/>
<path opacity="0.25" d="M35.5101 49.6849H33.8408V51.3439H35.5101V49.6849Z" fill="black"/>
<path opacity="0.25" d="M37.1795 49.6849H35.5101V51.3439H37.1795V49.6849Z" fill="black"/>
<path opacity="0.25" d="M8.81032 51.344H7.14095V53.003H8.81032V51.344Z" fill="black"/>
<path opacity="0.25" d="M13.8164 51.344H12.147V53.003H13.8164V51.344Z" fill="black"/>
<path opacity="0.25" d="M18.8225 51.344H17.1531V53.003H18.8225V51.344Z" fill="black"/>
<path opacity="0.25" d="M23.8286 51.344H22.1592V53.003H23.8286V51.344Z" fill="black"/>
<path opacity="0.25" d="M27.1653 51.344H25.4959V53.003H27.1653V51.344Z" fill="black"/>
<path opacity="0.25" d="M30.504 51.344H28.8347V53.003H30.504V51.344Z" fill="black"/>
<path opacity="0.25" d="M33.8408 51.344H32.1714V53.003H33.8408V51.344Z" fill="black"/>
<path opacity="0.25" d="M38.8469 51.344H37.1775V53.003H38.8469V51.344Z" fill="black"/>
<path opacity="0.25" d="M40.5162 51.344H38.8469V53.003H40.5162V51.344Z" fill="black"/>
<path opacity="0.25" d="M42.1856 51.344H40.5162V53.003H42.1856V51.344Z" fill="black"/>
<path opacity="0.25" d="M43.853 51.344H42.1836V53.003H43.853V51.344Z" fill="black"/>
<path opacity="0.25" d="M47.1917 51.344H45.5223V53.003H47.1917V51.344Z" fill="black"/>
<path opacity="0.25" d="M48.859 51.344H47.1897V53.003H48.859V51.344Z" fill="black"/>
<path opacity="0.25" d="M8.81032 53.0029H7.14095V54.662H8.81032V53.0029Z" fill="black"/>
<path opacity="0.25" d="M10.4797 53.0029H8.81032V54.662H10.4797V53.0029Z" fill="black"/>
<path opacity="0.25" d="M13.8164 53.0029H12.147V54.662H13.8164V53.0029Z" fill="black"/>
<path opacity="0.25" d="M20.4919 53.0029H18.8225V54.662H20.4919V53.0029Z" fill="black"/>
<path opacity="0.25" d="M25.4979 53.0029H23.8286V54.662H25.4979V53.0029Z" fill="black"/>
<path opacity="0.25" d="M28.8347 53.0029H27.1653V54.662H28.8347V53.0029Z" fill="black"/>
<path opacity="0.25" d="M32.1734 53.0029H30.5041V54.662H32.1734V53.0029Z" fill="black"/>
<path opacity="0.25" d="M35.5101 53.0029H33.8408V54.662H35.5101V53.0029Z" fill="black"/>
<path opacity="0.25" d="M37.1795 53.0029H35.5101V54.662H37.1795V53.0029Z" fill="black"/>
<path opacity="0.25" d="M38.8469 53.0029H37.1775V54.662H38.8469V53.0029Z" fill="black"/>
<path opacity="0.25" d="M40.5162 53.0029H38.8469V54.662H40.5162V53.0029Z" fill="black"/>
<path opacity="0.25" d="M42.1856 53.0029H40.5162V54.662H42.1856V53.0029Z" fill="black"/>
<path opacity="0.25" d="M8.81032 54.662H7.14095V56.321H8.81032V54.662Z" fill="black"/>
<path opacity="0.25" d="M12.147 54.662H10.4777V56.321H12.147V54.662Z" fill="black"/>
<path opacity="0.25" d="M13.8164 54.662H12.147V56.321H13.8164V54.662Z" fill="black"/>
<path opacity="0.25" d="M15.4858 54.662H13.8164V56.321H15.4858V54.662Z" fill="black"/>
<path opacity="0.25" d="M18.8225 54.662H17.1531V56.321H18.8225V54.662Z" fill="black"/>
<path opacity="0.25" d="M20.4919 54.662H18.8225V56.321H20.4919V54.662Z" fill="black"/>
<path opacity="0.25" d="M30.504 54.662H28.8347V56.321H30.504V54.662Z" fill="black"/>
<path opacity="0.25" d="M37.1795 54.662H35.5101V56.321H37.1795V54.662Z" fill="black"/>
<path opacity="0.25" d="M38.8469 54.662H37.1775V56.321H38.8469V54.662Z" fill="black"/>
<path opacity="0.25" d="M42.1856 54.662H40.5162V56.321H42.1856V54.662Z" fill="black"/>
<path opacity="0.25" d="M45.5223 54.662H43.853V56.321H45.5223V54.662Z" fill="black"/>
<path opacity="0.25" d="M47.1917 54.662H45.5223V56.321H47.1917V54.662Z" fill="black"/>
<path opacity="0.25" d="M48.859 54.662H47.1897V56.321H48.859V54.662Z" fill="black"/>
<path opacity="0.25" d="M8.81032 56.3191H7.14095V57.9781H8.81032V56.3191Z" fill="black"/>
<path opacity="0.25" d="M13.8164 56.3191H12.147V57.9781H13.8164V56.3191Z" fill="black"/>
<path opacity="0.25" d="M17.1531 56.3191H15.4838V57.9781H17.1531V56.3191Z" fill="black"/>
<path opacity="0.25" d="M23.8286 56.3191H22.1592V57.9781H23.8286V56.3191Z" fill="black"/>
<path opacity="0.25" d="M25.4979 56.3191H23.8286V57.9781H25.4979V56.3191Z" fill="black"/>
<path opacity="0.25" d="M28.8347 56.3191H27.1653V57.9781H28.8347V56.3191Z" fill="black"/>
<path opacity="0.25" d="M30.504 56.3191H28.8347V57.9781H30.504V56.3191Z" fill="black"/>
<path opacity="0.25" d="M32.1734 56.3191H30.5041V57.9781H32.1734V56.3191Z" fill="black"/>
<path opacity="0.25" d="M37.1795 56.3191H35.5101V57.9781H37.1795V56.3191Z" fill="black"/>
<path opacity="0.25" d="M47.1917 56.3191H45.5223V57.9781H47.1917V56.3191Z" fill="black"/>
<path opacity="0.25" d="M48.859 56.3191H47.1897V57.9781H48.859V56.3191Z" fill="black"/>
<path opacity="0.25" d="M8.81032 57.978H7.14095V59.637H8.81032V57.978Z" fill="black"/>
<path opacity="0.25" d="M18.8225 57.978H17.1531V59.637H18.8225V57.978Z" fill="black"/>
<path opacity="0.25" d="M25.4979 57.978H23.8286V59.637H25.4979V57.978Z" fill="black"/>
<path opacity="0.25" d="M28.8347 57.978H27.1653V59.637H28.8347V57.978Z" fill="black"/>
<path opacity="0.25" d="M33.8408 57.978H32.1714V59.637H33.8408V57.978Z" fill="black"/>
<path opacity="0.25" d="M35.5101 57.978H33.8408V59.637H35.5101V57.978Z" fill="black"/>
<path opacity="0.25" d="M37.1795 57.978H35.5101V59.637H37.1795V57.978Z" fill="black"/>
<path opacity="0.25" d="M38.8469 57.978H37.1775V59.637H38.8469V57.978Z" fill="black"/>
<path opacity="0.25" d="M40.5162 57.978H38.8469V59.637H40.5162V57.978Z" fill="black"/>
<path opacity="0.25" d="M42.1856 57.978H40.5162V59.637H42.1856V57.978Z" fill="black"/>
<path opacity="0.25" d="M43.853 57.978H42.1836V59.637H43.853V57.978Z" fill="black"/>
<path opacity="0.25" d="M48.859 57.978H47.1897V59.637H48.859V57.978Z" fill="black"/>
<path opacity="0.25" d="M22.1592 59.6371H20.4899V61.2961H22.1592V59.6371Z" fill="black"/>
<path opacity="0.25" d="M25.4979 59.6371H23.8286V61.2961H25.4979V59.6371Z" fill="black"/>
<path opacity="0.25" d="M32.1734 59.6371H30.5041V61.2961H32.1734V59.6371Z" fill="black"/>
<path opacity="0.25" d="M35.5101 59.6371H33.8408V61.2961H35.5101V59.6371Z" fill="black"/>
<path opacity="0.25" d="M42.1856 59.6371H40.5162V61.2961H42.1856V59.6371Z" fill="black"/>
<path opacity="0.25" d="M48.859 59.6371H47.1897V61.2961H48.859V59.6371Z" fill="black"/>
<path opacity="0.25" d="M22.1592 61.2941H20.4899V62.9531H22.1592V61.2941Z" fill="black"/>
<path opacity="0.25" d="M23.8286 61.2941H22.1592V62.9531H23.8286V61.2941Z" fill="black"/>
<path opacity="0.25" d="M25.4979 61.2941H23.8286V62.9531H25.4979V61.2941Z" fill="black"/>
<path opacity="0.25" d="M27.1653 61.2941H25.4959V62.9531H27.1653V61.2941Z" fill="black"/>
<path opacity="0.25" d="M28.8347 61.2941H27.1653V62.9531H28.8347V61.2941Z" fill="black"/>
<path opacity="0.25" d="M32.1734 61.2941H30.5041V62.9531H32.1734V61.2941Z" fill="black"/>
<path opacity="0.25" d="M35.5101 61.2941H33.8408V62.9531H35.5101V61.2941Z" fill="black"/>
<path opacity="0.25" d="M38.8469 61.2941H37.1775V62.9531H38.8469V61.2941Z" fill="black"/>
<path opacity="0.25" d="M42.1856 61.2941H40.5162V62.9531H42.1856V61.2941Z" fill="black"/>
<path opacity="0.25" d="M45.5223 61.2941H43.853V62.9531H45.5223V61.2941Z" fill="black"/>
<path opacity="0.25" d="M47.1917 61.2941H45.5223V62.9531H47.1917V61.2941Z" fill="black"/>
<path opacity="0.25" d="M48.859 61.2941H47.1897V62.9531H48.859V61.2941Z" fill="black"/>
<path opacity="0.25" d="M23.8286 62.9531H22.1592V64.6121H23.8286V62.9531Z" fill="black"/>
<path opacity="0.25" d="M25.4979 62.9531H23.8286V64.6121H25.4979V62.9531Z" fill="black"/>
<path opacity="0.25" d="M27.1653 62.9531H25.4959V64.6121H27.1653V62.9531Z" fill="black"/>
<path opacity="0.25" d="M32.1734 62.9531H30.5041V64.6121H32.1734V62.9531Z" fill="black"/>
<path opacity="0.25" d="M35.5101 62.9531H33.8408V64.6121H35.5101V62.9531Z" fill="black"/>
<path opacity="0.25" d="M42.1856 62.9531H40.5162V64.6121H42.1856V62.9531Z" fill="black"/>
<path opacity="0.25" d="M43.853 62.9531H42.1836V64.6121H43.853V62.9531Z" fill="black"/>
<path opacity="0.25" d="M22.1592 64.6122H20.4899V66.2712H22.1592V64.6122Z" fill="black"/>
<path opacity="0.25" d="M23.8286 64.6122H22.1592V66.2712H23.8286V64.6122Z" fill="black"/>
<path opacity="0.25" d="M27.1653 64.6122H25.4959V66.2712H27.1653V64.6122Z" fill="black"/>
<path opacity="0.25" d="M28.8347 64.6122H27.1653V66.2712H28.8347V64.6122Z" fill="black"/>
<path opacity="0.25" d="M30.504 64.6122H28.8347V66.2712H30.504V64.6122Z" fill="black"/>
<path opacity="0.25" d="M35.5101 64.6122H33.8408V66.2712H35.5101V64.6122Z" fill="black"/>
<path opacity="0.25" d="M37.1795 64.6122H35.5101V66.2712H37.1795V64.6122Z" fill="black"/>
<path opacity="0.25" d="M38.8469 64.6122H37.1775V66.2712H38.8469V64.6122Z" fill="black"/>
<path opacity="0.25" d="M40.5162 64.6122H38.8469V66.2712H40.5162V64.6122Z" fill="black"/>
<path opacity="0.25" d="M42.1856 64.6122H40.5162V66.2712H42.1856V64.6122Z" fill="black"/>
<path opacity="0.25" d="M43.853 64.6122H42.1836V66.2712H43.853V64.6122Z" fill="black"/>
<path opacity="0.25" d="M22.1592 66.2693H20.4899V67.9283H22.1592V66.2693Z" fill="black"/>
<path opacity="0.25" d="M23.8286 66.2693H22.1592V67.9283H23.8286V66.2693Z" fill="black"/>
<path opacity="0.25" d="M25.4979 66.2693H23.8286V67.9283H25.4979V66.2693Z" fill="black"/>
<path opacity="0.25" d="M28.8347 66.2693H27.1653V67.9283H28.8347V66.2693Z" fill="black"/>
<path opacity="0.25" d="M33.8408 66.2693H32.1714V67.9283H33.8408V66.2693Z" fill="black"/>
<path opacity="0.25" d="M35.5101 66.2693H33.8408V67.9283H35.5101V66.2693Z" fill="black"/>
<path opacity="0.25" d="M38.8469 66.2693H37.1775V67.9283H38.8469V66.2693Z" fill="black"/>
<path opacity="0.25" d="M42.1856 66.2693H40.5162V67.9283H42.1856V66.2693Z" fill="black"/>
<path opacity="0.25" d="M47.1917 66.2693H45.5223V67.9283H47.1917V66.2693Z" fill="black"/>
<path opacity="0.25" d="M48.859 66.2693H47.1897V67.9283H48.859V66.2693Z" fill="black"/>
<path opacity="0.25" d="M22.1592 67.9282H20.4899V69.5872H22.1592V67.9282Z" fill="black"/>
<path opacity="0.25" d="M23.8286 67.9282H22.1592V69.5872H23.8286V67.9282Z" fill="black"/>
<path opacity="0.25" d="M28.8347 67.9282H27.1653V69.5872H28.8347V67.9282Z" fill="black"/>
<path opacity="0.25" d="M30.504 67.9282H28.8347V69.5872H30.504V67.9282Z" fill="black"/>
<path opacity="0.25" d="M32.1734 67.9282H30.5041V69.5872H32.1734V67.9282Z" fill="black"/>
<path opacity="0.25" d="M42.1856 67.9282H40.5162V69.5872H42.1856V67.9282Z" fill="black"/>
<path opacity="0.25" d="M45.5223 67.9282H43.853V69.5872H45.5223V67.9282Z" fill="black"/>
<path opacity="0.25" d="M48.859 67.9282H47.1897V69.5872H48.859V67.9282Z" fill="black"/>
<path opacity="0.25" d="M22.1592 69.5873H20.4899V71.2463H22.1592V69.5873Z" fill="black"/>
<path opacity="0.25" d="M23.8286 69.5873H22.1592V71.2463H23.8286V69.5873Z" fill="black"/>
<path opacity="0.25" d="M25.4979 69.5873H23.8286V71.2463H25.4979V69.5873Z" fill="black"/>
<path opacity="0.25" d="M28.8347 69.5873H27.1653V71.2463H28.8347V69.5873Z" fill="black"/>
<path opacity="0.25" d="M30.504 69.5873H28.8347V71.2463H30.504V69.5873Z" fill="black"/>
<path opacity="0.25" d="M35.5101 69.5873H33.8408V71.2463H35.5101V69.5873Z" fill="black"/>
<path opacity="0.25" d="M37.1795 69.5873H35.5101V71.2463H37.1795V69.5873Z" fill="black"/>
<path opacity="0.25" d="M38.8469 69.5873H37.1775V71.2463H38.8469V69.5873Z" fill="black"/>
<path opacity="0.25" d="M40.5162 69.5873H38.8469V71.2463H40.5162V69.5873Z" fill="black"/>
<path opacity="0.25" d="M42.1856 69.5873H40.5162V71.2463H42.1856V69.5873Z" fill="black"/>
<path opacity="0.25" d="M43.853 69.5873H42.1836V71.2463H43.853V69.5873Z" fill="black"/>
<path opacity="0.25" d="M47.1917 69.5873H45.5223V71.2463H47.1917V69.5873Z" fill="black"/>
<path opacity="0.25" d="M22.1592 71.2443H20.4899V72.9033H22.1592V71.2443Z" fill="black"/>
<path opacity="0.25" d="M30.504 71.2443H28.8347V72.9033H30.504V71.2443Z" fill="black"/>
<path opacity="0.25" d="M33.8408 71.2443H32.1714V72.9033H33.8408V71.2443Z" fill="black"/>
<path opacity="0.25" d="M45.5223 71.2443H43.853V72.9033H45.5223V71.2443Z" fill="black"/>
<path opacity="0.25" d="M47.1917 71.2443H45.5223V72.9033H47.1917V71.2443Z" fill="black"/>
<path opacity="0.25" d="M48.859 71.2443H47.1897V72.9033H48.859V71.2443Z" fill="black"/>
<path opacity="0.25" d="M7.49409 31.4418C7.29946 31.4418 7.13895 31.6013 7.13895 31.7947V33.1008V34.7598V36.4188V38.0779V39.7369V41.3959V42.702C7.13895 42.8954 7.29746 43.0549 7.49409 43.0549H18.4674C18.662 43.0549 18.8225 42.8974 18.8225 42.702V41.3959V39.7369V38.0779V36.4188V34.7598V33.1008V31.7947C18.8225 31.6013 18.664 31.4418 18.4674 31.4418H7.49409ZM17.1531 34.7598V36.4188V38.0779V39.7369V41.1925C17.1531 41.3062 17.0608 41.3939 16.9505 41.3939H9.01297C8.8986 41.3939 8.81032 41.3022 8.81032 41.1925V39.7369V38.0779V36.4188V34.7598V33.3042C8.81032 33.1905 8.90261 33.1028 9.01297 33.1028H16.9485C17.0628 33.1028 17.1511 33.1945 17.1511 33.3042V34.7598H17.1531Z" fill="black"/>
<path opacity="0.25" d="M15.4838 38.0777V36.4187V35.1126C15.4838 34.9192 15.3253 34.7596 15.1286 34.7596H10.8328C10.6382 34.7596 10.4777 34.9172 10.4777 35.1126V36.4187V38.0777V39.3838C10.4777 39.5772 10.6362 39.7367 10.8328 39.7367H15.1286C15.3233 39.7367 15.4838 39.5792 15.4838 39.3838V38.0777Z" fill="black"/>
<path opacity="0.25" d="M37.5326 31.4418C37.338 31.4418 37.1775 31.6013 37.1775 31.7947V33.1008V34.7598V36.4188V38.0779V39.7369V41.3959V42.702C37.1775 42.8954 37.336 43.0549 37.5326 43.0549H48.5059C48.7006 43.0549 48.8611 42.8974 48.8611 42.702V41.3959V39.7369V38.0779V36.4188V34.7598V33.1008V31.7947C48.8611 31.6013 48.7026 31.4418 48.5059 31.4418H37.5326ZM47.1897 34.7598V36.4188V38.0779V39.7369V41.1925C47.1897 41.3062 47.0974 41.3939 46.987 41.3939H39.0515C38.9372 41.3939 38.8489 41.3022 38.8489 41.1925V39.7369V38.0779V36.4188V34.7598V33.3042C38.8489 33.1905 38.9412 33.1028 39.0515 33.1028H46.987C47.1014 33.1028 47.1897 33.1945 47.1897 33.3042V34.7598Z" fill="black"/>
<path opacity="0.25" d="M45.5223 38.0777V36.4187V35.1126C45.5223 34.9192 45.3638 34.7596 45.1672 34.7596H40.8694C40.6747 34.7596 40.5142 34.9172 40.5142 35.1126V36.4187V38.0777V39.3838C40.5142 39.5772 40.6727 39.7367 40.8694 39.7367H45.1672C45.3618 39.7367 45.5223 39.5792 45.5223 39.3838V38.0777Z" fill="black"/>
<path opacity="0.25" d="M7.49409 61.2921C7.29946 61.2921 7.13895 61.4516 7.13895 61.6451V62.9511V64.6102V66.2692V67.9282V69.5872V71.2463V72.5523C7.13895 72.7458 7.29746 72.9053 7.49409 72.9053H18.4674C18.662 72.9053 18.8225 72.7478 18.8225 72.5523V71.2463V69.5872V67.9282V66.2692V64.6102V62.9511V61.6451C18.8225 61.4516 18.664 61.2921 18.4674 61.2921H7.49409ZM17.1531 64.6122V66.2712V67.9302V69.5892V71.0449C17.1531 71.1585 17.0608 71.2463 16.9505 71.2463H9.01297C8.8986 71.2463 8.81032 71.1545 8.81032 71.0449V69.5892V67.9302V66.2712V64.6122V63.1565C8.81032 63.0429 8.90261 62.9551 9.01297 62.9551H16.9485C17.0628 62.9551 17.1511 63.0469 17.1511 63.1565V64.6122H17.1531Z" fill="black"/>
<path opacity="0.25" d="M15.4838 67.9282V66.2691V64.9631C15.4838 64.7696 15.3253 64.6101 15.1286 64.6101H10.8328C10.6382 64.6101 10.4777 64.7676 10.4777 64.9631V66.2691V67.9282V69.2342C10.4777 69.4277 10.6362 69.5872 10.8328 69.5872H15.1286C15.3233 69.5872 15.4838 69.4296 15.4838 69.2342V67.9282Z" fill="black"/>
<path d="M53.2512 24.347H2.74884C1.22393 24.347 0 25.5833 0 27.0788V77.2682C0 78.7837 1.244 80 2.74884 80H53.2311C54.756 80 55.9799 78.7637 56 77.2682V27.0788C56 25.5633 54.756 24.347 53.2512 24.347ZM2.50806 0H53.4117C54.7761 0 55.8997 1.09671 55.8997 2.47258V13.5793C55.8997 14.9352 54.7961 16.0518 53.4117 16.0518H45.8072L42.0351 21.7946C41.7943 22.0339 41.3931 22.0339 41.1523 21.7946L37.3801 16.0518H2.50806C1.14368 16.0518 0.0200645 14.9551 0.0200645 13.5793V2.47258C0.0200645 1.09671 1.12361 0 2.50806 0ZM53.8732 76.4307C53.8732 77.2483 53.211 77.9063 52.3884 77.9063H3.59154C2.7689 77.9063 2.10677 77.2483 2.10677 76.4307V27.9163C2.10677 27.0987 2.7689 26.4407 3.59154 26.4407H52.3884C53.211 26.4407 53.8732 27.0987 53.8732 27.9163V76.4307Z" fill="black"/>
<path d="M13.6017 9.79861C13.6017 10.341 13.4051 10.7697 13.0098 11.0808C12.6145 11.3918 12.0668 11.5494 11.3625 11.5494C10.6181 11.5494 10.0443 11.4517 9.63898 11.2562V10.5065C9.90583 10.6201 10.1968 10.7099 10.5118 10.7757C10.8268 10.8415 11.1237 10.8734 11.3966 10.8734C11.8661 10.8734 12.2193 10.7837 12.456 10.6042C12.6928 10.4247 12.8112 10.1795 12.8112 9.86641C12.8112 9.65903 12.769 9.48754 12.6828 9.35394C12.5965 9.22035 12.454 9.09472 12.2514 8.97907C12.0487 8.86342 11.7437 8.72982 11.3364 8.58226C10.7566 8.37289 10.3412 8.12364 10.0924 7.83849C9.84363 7.55335 9.71923 7.18445 9.71923 6.73181C9.71923 6.24527 9.90383 5.85843 10.271 5.57329C10.6382 5.28615 11.1217 5.14258 11.7237 5.14258C12.3497 5.14258 12.9255 5.25823 13.4512 5.49153L13.2064 6.16551C12.6687 5.94417 12.1691 5.83251 11.7056 5.83251C11.3344 5.83251 11.0435 5.91227 10.8328 6.07179C10.6221 6.23131 10.5178 6.45464 10.5178 6.74178C10.5178 6.94716 10.5579 7.11666 10.6402 7.25026C10.7225 7.38585 10.8529 7.50748 11.0355 7.61915C11.216 7.73081 11.503 7.85644 11.8902 7.99801C12.3557 8.1695 12.7028 8.335 12.9316 8.49452C13.1603 8.65604 13.3288 8.83949 13.4372 9.04886C13.5475 9.26023 13.6017 9.50948 13.6017 9.79861ZM17.5524 5.8345C16.8782 5.8345 16.3465 6.05983 15.9613 6.50848C15.5761 6.95713 15.3814 7.57129 15.3814 8.34896C15.3814 9.15255 15.568 9.77269 15.9432 10.2094C16.3184 10.6461 16.8502 10.8634 17.5424 10.8634C17.9878 10.8634 18.4894 10.7817 19.0472 10.6162V11.2981C18.7804 11.3938 18.5255 11.4616 18.2787 11.4955C18.032 11.5314 17.749 11.5494 17.43 11.5494C16.5071 11.5494 15.7948 11.2702 15.2972 10.7119C14.7976 10.1535 14.5488 9.36192 14.5488 8.33899C14.5488 7.69692 14.6671 7.1346 14.9059 6.65205C15.1447 6.1695 15.4918 5.79662 15.9473 5.5354C16.4027 5.27418 16.9404 5.14258 17.5584 5.14258C18.2226 5.14258 18.7984 5.26421 19.292 5.50948L18.975 6.17349C18.4754 5.94816 18.0019 5.8345 17.5524 5.8345ZM24.3503 11.4656L23.5958 9.5354H21.1078L20.3614 11.4656H19.5629L22.0127 5.20838H22.725L25.1689 11.4656H24.3503ZM23.3591 8.83949L22.6548 6.95115L22.3538 6.01795C22.2676 6.35893 22.1773 6.67 22.083 6.95115L21.3707 8.83949H23.3591ZM31.0016 11.4656H30.0787L26.7199 6.29113H26.6858L26.7078 6.6361C26.742 7.15255 26.76 7.6032 26.76 7.98206V11.4656H26.0317V5.2343H26.9446L27.1372 5.53739L29.1958 8.69991L30.2894 10.3928H30.3235C30.3174 10.325 30.3054 10.0818 30.2894 9.66102C30.2713 9.24228 30.2633 8.93919 30.2633 8.75175V5.2343H31.0016V11.4656ZM37.7533 11.4656L35.6867 6.002H35.6526C35.6947 6.45664 35.7168 7.01696 35.7168 7.68495V11.4656H34.9885V5.2343H36.1542L38.0884 10.341H38.1225L40.0909 5.2343H41.2486V11.4656H40.4681V7.63311C40.4681 7.20639 40.4881 6.66601 40.5283 6.00998H40.4942L38.4014 11.4656H37.7533ZM46.4593 11.4656H42.9561V5.2343H46.4593V5.92423H43.7446V7.8684H46.3008V8.55036H43.7446V10.7757H46.4593V11.4656Z" fill="white"/>
</svg>
