<svg width="61" height="80" viewBox="0 0 61 80" fill="none" xmlns="http://www.w3.org/2000/svg">
<g clip-path="url(#clip0)">
<path d="M59.5162 43.8092L55.7342 40.4111V49.8562L36.7701 59.2648L32.0834 56.5975C31.0881 56.0311 29.8938 56.0311 28.8985 56.5975L24.2118 59.2648L5.2658 49.8562V40.4111L1.48383 43.8092C0.542866 44.7044 0 45.9466 0 47.2437V77.6982C0 78.9587 1.01335 80.0001 2.28004 80.0001H58.72C59.9686 80.0001 61 78.977 61 77.6982V47.2437C61 45.9466 60.4571 44.7044 59.5162 43.8092Z" fill="black"/>
<path d="M53.2551 0.365356H30.509H7.74486C6.3877 0.365356 5.26578 1.73553 5.26578 3.41628V49.8561L24.2299 59.2647L28.9166 56.5974C29.9119 56.031 31.1062 56.031 32.1014 56.5974L36.7882 59.2647L55.7342 49.8561V3.41628C55.7342 1.73553 54.6123 0.365356 53.2551 0.365356Z" fill="white"/>
<path d="M54.6666 1.40674H6.33344V50.2033H54.6666V1.40674Z" fill="white"/>
<path opacity="0.25" d="M26.6185 6.28455H25.0804V7.83741H26.6185V6.28455Z" fill="black"/>
<path opacity="0.25" d="M34.3634 6.28455H32.8253V7.83741H34.3634V6.28455Z" fill="black"/>
<path opacity="0.25" d="M37.4577 6.28455H35.9196V7.83741H37.4577V6.28455Z" fill="black"/>
<path opacity="0.25" d="M25.0804 7.85571H23.5423V9.40858H25.0804V7.85571Z" fill="black"/>
<path opacity="0.25" d="M26.6185 7.85571H25.0804V9.40858H26.6185V7.85571Z" fill="black"/>
<path opacity="0.25" d="M29.7128 7.85571H28.1747V9.40858H29.7128V7.85571Z" fill="black"/>
<path opacity="0.25" d="M31.2691 7.85571H29.731V9.40858H31.2691V7.85571Z" fill="black"/>
<path opacity="0.25" d="M32.8072 7.85571H31.269V9.40858H32.8072V7.85571Z" fill="black"/>
<path opacity="0.25" d="M34.3634 7.85571H32.8253V9.40858H34.3634V7.85571Z" fill="black"/>
<path opacity="0.25" d="M26.6185 9.40857H25.0804V10.9614H26.6185V9.40857Z" fill="black"/>
<path opacity="0.25" d="M28.1747 9.40857H26.6366V10.9614H28.1747V9.40857Z" fill="black"/>
<path opacity="0.25" d="M29.7128 9.40857H28.1747V10.9614H29.7128V9.40857Z" fill="black"/>
<path opacity="0.25" d="M25.0804 10.9797H23.5423V12.5326H25.0804V10.9797Z" fill="black"/>
<path opacity="0.25" d="M26.6185 10.9797H25.0804V12.5326H26.6185V10.9797Z" fill="black"/>
<path opacity="0.25" d="M29.7128 10.9797H28.1747V12.5326H29.7128V10.9797Z" fill="black"/>
<path opacity="0.25" d="M32.8072 10.9797H31.269V12.5326H32.8072V10.9797Z" fill="black"/>
<path opacity="0.25" d="M35.9015 10.9797H34.3634V12.5326H35.9015V10.9797Z" fill="black"/>
<path opacity="0.25" d="M37.4577 10.9797H35.9196V12.5326H37.4577V10.9797Z" fill="black"/>
<path opacity="0.25" d="M28.1747 12.5326H26.6366V14.0855H28.1747V12.5326Z" fill="black"/>
<path opacity="0.25" d="M31.2691 12.5326H29.731V14.0855H31.2691V12.5326Z" fill="black"/>
<path opacity="0.25" d="M35.9015 12.5326H34.3634V14.0855H35.9015V12.5326Z" fill="black"/>
<path opacity="0.25" d="M37.4577 12.5326H35.9196V14.0855H37.4577V12.5326Z" fill="black"/>
<path opacity="0.25" d="M25.0804 14.0854H23.5423V15.6383H25.0804V14.0854Z" fill="black"/>
<path opacity="0.25" d="M28.1747 14.0854H26.6366V15.6383H28.1747V14.0854Z" fill="black"/>
<path opacity="0.25" d="M32.8072 14.0854H31.269V15.6383H32.8072V14.0854Z" fill="black"/>
<path opacity="0.25" d="M34.3634 14.0854H32.8253V15.6383H34.3634V14.0854Z" fill="black"/>
<path opacity="0.25" d="M35.9015 14.0854H34.3634V15.6383H35.9015V14.0854Z" fill="black"/>
<path opacity="0.25" d="M25.0804 15.6566H23.5423V17.2095H25.0804V15.6566Z" fill="black"/>
<path opacity="0.25" d="M28.1747 15.6566H26.6366V17.2095H28.1747V15.6566Z" fill="black"/>
<path opacity="0.25" d="M31.2691 15.6566H29.731V17.2095H31.2691V15.6566Z" fill="black"/>
<path opacity="0.25" d="M34.3634 15.6566H32.8253V17.2095H34.3634V15.6566Z" fill="black"/>
<path opacity="0.25" d="M37.4577 15.6566H35.9196V17.2095H37.4577V15.6566Z" fill="black"/>
<path opacity="0.25" d="M31.2691 17.2095H29.731V18.7623H31.2691V17.2095Z" fill="black"/>
<path opacity="0.25" d="M37.4577 17.2095H35.9196V18.7623H37.4577V17.2095Z" fill="black"/>
<path opacity="0.25" d="M12.703 18.7805H11.1649V20.3334H12.703V18.7805Z" fill="black"/>
<path opacity="0.25" d="M14.2593 18.7805H12.7212V20.3334H14.2593V18.7805Z" fill="black"/>
<path opacity="0.25" d="M15.7974 18.7805H14.2593V20.3334H15.7974V18.7805Z" fill="black"/>
<path opacity="0.25" d="M17.3536 18.7805H15.8155V20.3334H17.3536V18.7805Z" fill="black"/>
<path opacity="0.25" d="M18.8917 18.7805H17.3536V20.3334H18.8917V18.7805Z" fill="black"/>
<path opacity="0.25" d="M21.9861 18.7805H20.4479V20.3334H21.9861V18.7805Z" fill="black"/>
<path opacity="0.25" d="M23.5242 18.7805H21.9861V20.3334H23.5242V18.7805Z" fill="black"/>
<path opacity="0.25" d="M25.0804 18.7805H23.5423V20.3334H25.0804V18.7805Z" fill="black"/>
<path opacity="0.25" d="M26.6185 18.7805H25.0804V20.3334H26.6185V18.7805Z" fill="black"/>
<path opacity="0.25" d="M28.1747 18.7805H26.6366V20.3334H28.1747V18.7805Z" fill="black"/>
<path opacity="0.25" d="M31.2691 18.7805H29.731V20.3334H31.2691V18.7805Z" fill="black"/>
<path opacity="0.25" d="M32.8072 18.7805H31.269V20.3334H32.8072V18.7805Z" fill="black"/>
<path opacity="0.25" d="M35.9015 18.7805H34.3634V20.3334H35.9015V18.7805Z" fill="black"/>
<path opacity="0.25" d="M38.9959 18.7805H37.4577V20.3334H38.9959V18.7805Z" fill="black"/>
<path opacity="0.25" d="M42.0902 18.7805H40.5521V20.3334H42.0902V18.7805Z" fill="black"/>
<path opacity="0.25" d="M45.1845 18.7805H43.6464V20.3334H45.1845V18.7805Z" fill="black"/>
<path opacity="0.25" d="M48.2788 18.7805H46.7407V20.3334H48.2788V18.7805Z" fill="black"/>
<path opacity="0.25" d="M17.3536 20.3334H15.8155V21.8862H17.3536V20.3334Z" fill="black"/>
<path opacity="0.25" d="M26.6185 20.3334H25.0804V21.8862H26.6185V20.3334Z" fill="black"/>
<path opacity="0.25" d="M35.9015 20.3334H34.3634V21.8862H35.9015V20.3334Z" fill="black"/>
<path opacity="0.25" d="M37.4577 20.3334H35.9196V21.8862H37.4577V20.3334Z" fill="black"/>
<path opacity="0.25" d="M38.9959 20.3334H37.4577V21.8862H38.9959V20.3334Z" fill="black"/>
<path opacity="0.25" d="M42.0902 20.3334H40.5521V21.8862H42.0902V20.3334Z" fill="black"/>
<path opacity="0.25" d="M43.6464 20.3334H42.1083V21.8862H43.6464V20.3334Z" fill="black"/>
<path opacity="0.25" d="M49.817 20.3334H48.2788V21.8862H49.817V20.3334Z" fill="black"/>
<path opacity="0.25" d="M15.7974 21.9045H14.2593V23.4574H15.7974V21.9045Z" fill="black"/>
<path opacity="0.25" d="M20.4298 21.9045H18.8917V23.4574H20.4298V21.9045Z" fill="black"/>
<path opacity="0.25" d="M21.9861 21.9045H20.4479V23.4574H21.9861V21.9045Z" fill="black"/>
<path opacity="0.25" d="M23.5242 21.9045H21.9861V23.4574H23.5242V21.9045Z" fill="black"/>
<path opacity="0.25" d="M26.6185 21.9045H25.0804V23.4574H26.6185V21.9045Z" fill="black"/>
<path opacity="0.25" d="M29.7128 21.9045H28.1747V23.4574H29.7128V21.9045Z" fill="black"/>
<path opacity="0.25" d="M31.2691 21.9045H29.731V23.4574H31.2691V21.9045Z" fill="black"/>
<path opacity="0.25" d="M32.8072 21.9045H31.269V23.4574H32.8072V21.9045Z" fill="black"/>
<path opacity="0.25" d="M34.3634 21.9045H32.8253V23.4574H34.3634V21.9045Z" fill="black"/>
<path opacity="0.25" d="M35.9015 21.9045H34.3634V23.4574H35.9015V21.9045Z" fill="black"/>
<path opacity="0.25" d="M38.9959 21.9045H37.4577V23.4574H38.9959V21.9045Z" fill="black"/>
<path opacity="0.25" d="M40.5521 21.9045H39.0139V23.4574H40.5521V21.9045Z" fill="black"/>
<path opacity="0.25" d="M43.6464 21.9045H42.1083V23.4574H43.6464V21.9045Z" fill="black"/>
<path opacity="0.25" d="M46.7226 21.9045H45.1845V23.4574H46.7226V21.9045Z" fill="black"/>
<path opacity="0.25" d="M12.703 23.4574H11.1649V25.0103H12.703V23.4574Z" fill="black"/>
<path opacity="0.25" d="M15.7974 23.4574H14.2593V25.0103H15.7974V23.4574Z" fill="black"/>
<path opacity="0.25" d="M17.3536 23.4574H15.8155V25.0103H17.3536V23.4574Z" fill="black"/>
<path opacity="0.25" d="M18.8917 23.4574H17.3536V25.0103H18.8917V23.4574Z" fill="black"/>
<path opacity="0.25" d="M20.4298 23.4574H18.8917V25.0103H20.4298V23.4574Z" fill="black"/>
<path opacity="0.25" d="M23.5242 23.4574H21.9861V25.0103H23.5242V23.4574Z" fill="black"/>
<path opacity="0.25" d="M25.0804 23.4574H23.5423V25.0103H25.0804V23.4574Z" fill="black"/>
<path opacity="0.25" d="M26.6185 23.4574H25.0804V25.0103H26.6185V23.4574Z" fill="black"/>
<path opacity="0.25" d="M28.1747 23.4574H26.6366V25.0103H28.1747V23.4574Z" fill="black"/>
<path opacity="0.25" d="M29.7128 23.4574H28.1747V25.0103H29.7128V23.4574Z" fill="black"/>
<path opacity="0.25" d="M34.3634 23.4574H32.8253V25.0103H34.3634V23.4574Z" fill="black"/>
<path opacity="0.25" d="M37.4577 23.4574H35.9196V25.0103H37.4577V23.4574Z" fill="black"/>
<path opacity="0.25" d="M38.9959 23.4574H37.4577V25.0103H38.9959V23.4574Z" fill="black"/>
<path opacity="0.25" d="M12.703 25.0286H11.1649V26.5814H12.703V25.0286Z" fill="black"/>
<path opacity="0.25" d="M17.3536 25.0286H15.8155V26.5814H17.3536V25.0286Z" fill="black"/>
<path opacity="0.25" d="M21.9861 25.0286H20.4479V26.5814H21.9861V25.0286Z" fill="black"/>
<path opacity="0.25" d="M26.6185 25.0286H25.0804V26.5814H26.6185V25.0286Z" fill="black"/>
<path opacity="0.25" d="M29.7128 25.0286H28.1747V26.5814H29.7128V25.0286Z" fill="black"/>
<path opacity="0.25" d="M32.8072 25.0286H31.269V26.5814H32.8072V25.0286Z" fill="black"/>
<path opacity="0.25" d="M35.9015 25.0286H34.3634V26.5814H35.9015V25.0286Z" fill="black"/>
<path opacity="0.25" d="M40.5521 25.0286H39.0139V26.5814H40.5521V25.0286Z" fill="black"/>
<path opacity="0.25" d="M42.0902 25.0286H40.5521V26.5814H42.0902V25.0286Z" fill="black"/>
<path opacity="0.25" d="M43.6464 25.0286H42.1083V26.5814H43.6464V25.0286Z" fill="black"/>
<path opacity="0.25" d="M45.1845 25.0286H43.6464V26.5814H45.1845V25.0286Z" fill="black"/>
<path opacity="0.25" d="M48.2788 25.0286H46.7407V26.5814H48.2788V25.0286Z" fill="black"/>
<path opacity="0.25" d="M49.817 25.0286H48.2788V26.5814H49.817V25.0286Z" fill="black"/>
<path opacity="0.25" d="M12.703 26.5814H11.1649V28.1343H12.703V26.5814Z" fill="black"/>
<path opacity="0.25" d="M14.2593 26.5814H12.7212V28.1343H14.2593V26.5814Z" fill="black"/>
<path opacity="0.25" d="M17.3536 26.5814H15.8155V28.1343H17.3536V26.5814Z" fill="black"/>
<path opacity="0.25" d="M23.5242 26.5814H21.9861V28.1343H23.5242V26.5814Z" fill="black"/>
<path opacity="0.25" d="M28.1747 26.5814H26.6366V28.1343H28.1747V26.5814Z" fill="black"/>
<path opacity="0.25" d="M31.2691 26.5814H29.731V28.1343H31.2691V26.5814Z" fill="black"/>
<path opacity="0.25" d="M34.3634 26.5814H32.8253V28.1343H34.3634V26.5814Z" fill="black"/>
<path opacity="0.25" d="M37.4577 26.5814H35.9196V28.1343H37.4577V26.5814Z" fill="black"/>
<path opacity="0.25" d="M38.9959 26.5814H37.4577V28.1343H38.9959V26.5814Z" fill="black"/>
<path opacity="0.25" d="M40.5521 26.5814H39.0139V28.1343H40.5521V26.5814Z" fill="black"/>
<path opacity="0.25" d="M42.0902 26.5814H40.5521V28.1343H42.0902V26.5814Z" fill="black"/>
<path opacity="0.25" d="M43.6464 26.5814H42.1083V28.1343H43.6464V26.5814Z" fill="black"/>
<path opacity="0.25" d="M12.703 28.1526H11.1649V29.7055H12.703V28.1526Z" fill="black"/>
<path opacity="0.25" d="M15.7974 28.1526H14.2593V29.7055H15.7974V28.1526Z" fill="black"/>
<path opacity="0.25" d="M17.3536 28.1526H15.8155V29.7055H17.3536V28.1526Z" fill="black"/>
<path opacity="0.25" d="M18.8917 28.1526H17.3536V29.7055H18.8917V28.1526Z" fill="black"/>
<path opacity="0.25" d="M21.9861 28.1526H20.4479V29.7055H21.9861V28.1526Z" fill="black"/>
<path opacity="0.25" d="M23.5242 28.1526H21.9861V29.7055H23.5242V28.1526Z" fill="black"/>
<path opacity="0.25" d="M32.8072 28.1526H31.269V29.7055H32.8072V28.1526Z" fill="black"/>
<path opacity="0.25" d="M38.9959 28.1526H37.4577V29.7055H38.9959V28.1526Z" fill="black"/>
<path opacity="0.25" d="M40.5521 28.1526H39.0139V29.7055H40.5521V28.1526Z" fill="black"/>
<path opacity="0.25" d="M43.6464 28.1526H42.1083V29.7055H43.6464V28.1526Z" fill="black"/>
<path opacity="0.25" d="M46.7226 28.1526H45.1845V29.7055H46.7226V28.1526Z" fill="black"/>
<path opacity="0.25" d="M48.2788 28.1526H46.7407V29.7055H48.2788V28.1526Z" fill="black"/>
<path opacity="0.25" d="M49.817 28.1526H48.2788V29.7055H49.817V28.1526Z" fill="black"/>
<path opacity="0.25" d="M12.703 29.7054H11.1649V31.2583H12.703V29.7054Z" fill="black"/>
<path opacity="0.25" d="M17.3536 29.7054H15.8155V31.2583H17.3536V29.7054Z" fill="black"/>
<path opacity="0.25" d="M20.4298 29.7054H18.8917V31.2583H20.4298V29.7054Z" fill="black"/>
<path opacity="0.25" d="M26.6185 29.7054H25.0804V31.2583H26.6185V29.7054Z" fill="black"/>
<path opacity="0.25" d="M28.1747 29.7054H26.6366V31.2583H28.1747V29.7054Z" fill="black"/>
<path opacity="0.25" d="M31.2691 29.7054H29.731V31.2583H31.2691V29.7054Z" fill="black"/>
<path opacity="0.25" d="M32.8072 29.7054H31.269V31.2583H32.8072V29.7054Z" fill="black"/>
<path opacity="0.25" d="M34.3634 29.7054H32.8253V31.2583H34.3634V29.7054Z" fill="black"/>
<path opacity="0.25" d="M38.9959 29.7054H37.4577V31.2583H38.9959V29.7054Z" fill="black"/>
<path opacity="0.25" d="M48.2788 29.7054H46.7407V31.2583H48.2788V29.7054Z" fill="black"/>
<path opacity="0.25" d="M49.817 29.7054H48.2788V31.2583H49.817V29.7054Z" fill="black"/>
<path opacity="0.25" d="M12.703 31.2766H11.1649V32.8295H12.703V31.2766Z" fill="black"/>
<path opacity="0.25" d="M21.9861 31.2766H20.4479V32.8295H21.9861V31.2766Z" fill="black"/>
<path opacity="0.25" d="M28.1747 31.2766H26.6366V32.8295H28.1747V31.2766Z" fill="black"/>
<path opacity="0.25" d="M31.2691 31.2766H29.731V32.8295H31.2691V31.2766Z" fill="black"/>
<path opacity="0.25" d="M35.9015 31.2766H34.3634V32.8295H35.9015V31.2766Z" fill="black"/>
<path opacity="0.25" d="M37.4577 31.2766H35.9196V32.8295H37.4577V31.2766Z" fill="black"/>
<path opacity="0.25" d="M38.9959 31.2766H37.4577V32.8295H38.9959V31.2766Z" fill="black"/>
<path opacity="0.25" d="M40.5521 31.2766H39.0139V32.8295H40.5521V31.2766Z" fill="black"/>
<path opacity="0.25" d="M42.0902 31.2766H40.5521V32.8295H42.0902V31.2766Z" fill="black"/>
<path opacity="0.25" d="M43.6464 31.2766H42.1083V32.8295H43.6464V31.2766Z" fill="black"/>
<path opacity="0.25" d="M45.1845 31.2766H43.6464V32.8295H45.1845V31.2766Z" fill="black"/>
<path opacity="0.25" d="M49.817 31.2766H48.2788V32.8295H49.817V31.2766Z" fill="black"/>
<path opacity="0.25" d="M25.0804 32.8295H23.5423V34.3823H25.0804V32.8295Z" fill="black"/>
<path opacity="0.25" d="M28.1747 32.8295H26.6366V34.3823H28.1747V32.8295Z" fill="black"/>
<path opacity="0.25" d="M34.3634 32.8295H32.8253V34.3823H34.3634V32.8295Z" fill="black"/>
<path opacity="0.25" d="M37.4577 32.8295H35.9196V34.3823H37.4577V32.8295Z" fill="black"/>
<path opacity="0.25" d="M43.6464 32.8295H42.1083V34.3823H43.6464V32.8295Z" fill="black"/>
<path opacity="0.25" d="M49.817 32.8295H48.2788V34.3823H49.817V32.8295Z" fill="black"/>
<path opacity="0.25" d="M25.0804 34.4005H23.5423V35.9534H25.0804V34.4005Z" fill="black"/>
<path opacity="0.25" d="M26.6185 34.4005H25.0804V35.9534H26.6185V34.4005Z" fill="black"/>
<path opacity="0.25" d="M28.1747 34.4005H26.6366V35.9534H28.1747V34.4005Z" fill="black"/>
<path opacity="0.25" d="M29.7128 34.4005H28.1747V35.9534H29.7128V34.4005Z" fill="black"/>
<path opacity="0.25" d="M31.2691 34.4005H29.731V35.9534H31.2691V34.4005Z" fill="black"/>
<path opacity="0.25" d="M34.3634 34.4005H32.8253V35.9534H34.3634V34.4005Z" fill="black"/>
<path opacity="0.25" d="M37.4577 34.4005H35.9196V35.9534H37.4577V34.4005Z" fill="black"/>
<path opacity="0.25" d="M40.5521 34.4005H39.0139V35.9534H40.5521V34.4005Z" fill="black"/>
<path opacity="0.25" d="M43.6464 34.4005H42.1083V35.9534H43.6464V34.4005Z" fill="black"/>
<path opacity="0.25" d="M46.7226 34.4005H45.1845V35.9534H46.7226V34.4005Z" fill="black"/>
<path opacity="0.25" d="M48.2788 34.4005H46.7407V35.9534H48.2788V34.4005Z" fill="black"/>
<path opacity="0.25" d="M49.817 34.4005H48.2788V35.9534H49.817V34.4005Z" fill="black"/>
<path opacity="0.25" d="M26.6185 35.9534H25.0804V37.5062H26.6185V35.9534Z" fill="black"/>
<path opacity="0.25" d="M28.1747 35.9534H26.6366V37.5062H28.1747V35.9534Z" fill="black"/>
<path opacity="0.25" d="M29.7128 35.9534H28.1747V37.5062H29.7128V35.9534Z" fill="black"/>
<path opacity="0.25" d="M34.3634 35.9534H32.8253V37.5062H34.3634V35.9534Z" fill="black"/>
<path opacity="0.25" d="M37.4577 35.9534H35.9196V37.5062H37.4577V35.9534Z" fill="black"/>
<path opacity="0.25" d="M43.6464 35.9534H42.1083V37.5062H43.6464V35.9534Z" fill="black"/>
<path opacity="0.25" d="M45.1845 35.9534H43.6464V37.5062H45.1845V35.9534Z" fill="black"/>
<path opacity="0.25" d="M25.0804 37.5245H23.5423V39.0774H25.0804V37.5245Z" fill="black"/>
<path opacity="0.25" d="M26.6185 37.5245H25.0804V39.0774H26.6185V37.5245Z" fill="black"/>
<path opacity="0.25" d="M29.7128 37.5245H28.1747V39.0774H29.7128V37.5245Z" fill="black"/>
<path opacity="0.25" d="M31.2691 37.5245H29.731V39.0774H31.2691V37.5245Z" fill="black"/>
<path opacity="0.25" d="M32.8072 37.5245H31.269V39.0774H32.8072V37.5245Z" fill="black"/>
<path opacity="0.25" d="M37.4577 37.5245H35.9196V39.0774H37.4577V37.5245Z" fill="black"/>
<path opacity="0.25" d="M38.9959 37.5245H37.4577V39.0774H38.9959V37.5245Z" fill="black"/>
<path opacity="0.25" d="M40.5521 37.5245H39.0139V39.0774H40.5521V37.5245Z" fill="black"/>
<path opacity="0.25" d="M42.0902 37.5245H40.5521V39.0774H42.0902V37.5245Z" fill="black"/>
<path opacity="0.25" d="M43.6464 37.5245H42.1083V39.0774H43.6464V37.5245Z" fill="black"/>
<path opacity="0.25" d="M45.1845 37.5245H43.6464V39.0774H45.1845V37.5245Z" fill="black"/>
<path opacity="0.25" d="M25.0804 39.0774H23.5423V40.6302H25.0804V39.0774Z" fill="black"/>
<path opacity="0.25" d="M26.6185 39.0774H25.0804V40.6302H26.6185V39.0774Z" fill="black"/>
<path opacity="0.25" d="M28.1747 39.0774H26.6366V40.6302H28.1747V39.0774Z" fill="black"/>
<path opacity="0.25" d="M31.2691 39.0774H29.731V40.6302H31.2691V39.0774Z" fill="black"/>
<path opacity="0.25" d="M35.9015 39.0774H34.3634V40.6302H35.9015V39.0774Z" fill="black"/>
<path opacity="0.25" d="M37.4577 39.0774H35.9196V40.6302H37.4577V39.0774Z" fill="black"/>
<path opacity="0.25" d="M40.5521 39.0774H39.0139V40.6302H40.5521V39.0774Z" fill="black"/>
<path opacity="0.25" d="M43.6464 39.0774H42.1083V40.6302H43.6464V39.0774Z" fill="black"/>
<path opacity="0.25" d="M48.2788 39.0774H46.7407V40.6302H48.2788V39.0774Z" fill="black"/>
<path opacity="0.25" d="M49.817 39.0774H48.2788V40.6302H49.817V39.0774Z" fill="black"/>
<path opacity="0.25" d="M25.0804 40.6302H23.5423V42.1831H25.0804V40.6302Z" fill="black"/>
<path opacity="0.25" d="M26.6185 40.6302H25.0804V42.1831H26.6185V40.6302Z" fill="black"/>
<path opacity="0.25" d="M31.2691 40.6302H29.731V42.1831H31.2691V40.6302Z" fill="black"/>
<path opacity="0.25" d="M32.8072 40.6302H31.269V42.1831H32.8072V40.6302Z" fill="black"/>
<path opacity="0.25" d="M34.3634 40.6302H32.8253V42.1831H34.3634V40.6302Z" fill="black"/>
<path opacity="0.25" d="M43.6464 40.6302H42.1083V42.1831H43.6464V40.6302Z" fill="black"/>
<path opacity="0.25" d="M46.7226 40.6302H45.1845V42.1831H46.7226V40.6302Z" fill="black"/>
<path opacity="0.25" d="M49.817 40.6302H48.2788V42.1831H49.817V40.6302Z" fill="black"/>
<path opacity="0.25" d="M25.0804 42.2014H23.5423V43.7543H25.0804V42.2014Z" fill="black"/>
<path opacity="0.25" d="M26.6185 42.2014H25.0804V43.7543H26.6185V42.2014Z" fill="black"/>
<path opacity="0.25" d="M28.1747 42.2014H26.6366V43.7543H28.1747V42.2014Z" fill="black"/>
<path opacity="0.25" d="M31.2691 42.2014H29.731V43.7543H31.2691V42.2014Z" fill="black"/>
<path opacity="0.25" d="M32.8072 42.2014H31.269V43.7543H32.8072V42.2014Z" fill="black"/>
<path opacity="0.25" d="M37.4577 42.2014H35.9196V43.7543H37.4577V42.2014Z" fill="black"/>
<path opacity="0.25" d="M38.9959 42.2014H37.4577V43.7543H38.9959V42.2014Z" fill="black"/>
<path opacity="0.25" d="M40.5521 42.2014H39.0139V43.7543H40.5521V42.2014Z" fill="black"/>
<path opacity="0.25" d="M42.0902 42.2014H40.5521V43.7543H42.0902V42.2014Z" fill="black"/>
<path opacity="0.25" d="M43.6464 42.2014H42.1083V43.7543H43.6464V42.2014Z" fill="black"/>
<path opacity="0.25" d="M45.1845 42.2014H43.6464V43.7543H45.1845V42.2014Z" fill="black"/>
<path opacity="0.25" d="M48.2788 42.2014H46.7407V43.7543H48.2788V42.2014Z" fill="black"/>
<path opacity="0.25" d="M25.0804 43.7543H23.5423V45.3071H25.0804V43.7543Z" fill="black"/>
<path opacity="0.25" d="M32.8072 43.7543H31.269V45.3071H32.8072V43.7543Z" fill="black"/>
<path opacity="0.25" d="M35.9015 43.7543H34.3634V45.3071H35.9015V43.7543Z" fill="black"/>
<path opacity="0.25" d="M46.7226 43.7543H45.1845V45.3071H46.7226V43.7543Z" fill="black"/>
<path opacity="0.25" d="M48.2788 43.7543H46.7407V45.3071H48.2788V43.7543Z" fill="black"/>
<path opacity="0.25" d="M49.817 43.7543H48.2788V45.3071H49.817V43.7543Z" fill="black"/>
<path opacity="0.25" d="M11.4906 6.28455C11.3097 6.28455 11.1649 6.4307 11.1649 6.61339V7.85568V9.40855V10.9614V12.5143V14.0671V15.62V16.844C11.1649 17.0267 11.3097 17.1729 11.4906 17.1729H21.6603C21.8413 17.1729 21.986 17.0267 21.986 16.844V15.62V14.0671V12.5143V10.9614V9.40855V7.85568V6.63166C21.986 6.44897 21.8413 6.30281 21.6603 6.30281C21.6603 6.28455 11.4906 6.28455 11.4906 6.28455ZM20.4479 9.40855V10.9614V12.5143V14.0671V15.4373C20.4479 15.5469 20.3574 15.62 20.267 15.62H12.9021C12.7935 15.62 12.7211 15.5287 12.7211 15.4373V14.0671V12.5143V10.9614V9.40855V8.03837C12.7211 7.92876 12.8116 7.85568 12.9021 7.85568H20.267C20.3755 7.85568 20.4479 7.94703 20.4479 8.03837V9.40855Z" fill="black"/>
<path opacity="0.25" d="M18.8917 12.5326V10.9797V9.75572C18.8917 9.57303 18.747 9.42688 18.566 9.42688H14.585C14.404 9.42688 14.2593 9.57303 14.2593 9.75572V10.9797V12.5326V13.7566C14.2593 13.9393 14.404 14.0855 14.585 14.0855H18.566C18.747 14.0855 18.8917 13.9393 18.8917 13.7566V12.5326Z" fill="black"/>
<path opacity="0.25" d="M39.3397 6.28455C39.1587 6.28455 39.0139 6.4307 39.0139 6.61339V7.85568V9.40855V10.9614V12.5143V14.0671V15.62V16.844C39.0139 17.0267 39.1587 17.1729 39.3397 17.1729H49.5094C49.6903 17.1729 49.8351 17.0267 49.8351 16.844V15.62V14.0671V12.5143V10.9614V9.40855V7.85568V6.63166C49.8351 6.44897 49.6903 6.30281 49.5094 6.30281C49.5094 6.28455 39.3397 6.28455 39.3397 6.28455ZM48.2789 9.40855V10.9614V12.5143V14.0671V15.4373C48.2789 15.5469 48.1884 15.62 48.0979 15.62H40.733C40.6244 15.62 40.5521 15.5287 40.5521 15.4373V14.0671V12.5143V10.9614V9.40855V8.03837C40.5521 7.92876 40.6425 7.85568 40.733 7.85568H48.0979C48.2065 7.85568 48.2789 7.94703 48.2789 8.03837V9.40855Z" fill="black"/>
<path opacity="0.25" d="M46.7407 12.5326V10.9797V9.75572C46.7407 9.57303 46.596 9.42688 46.415 9.42688H42.434C42.253 9.42688 42.1083 9.57303 42.1083 9.75572V10.9797V12.5326V13.7566C42.1083 13.9393 42.253 14.0855 42.434 14.0855H46.415C46.596 14.0855 46.7407 13.9393 46.7407 13.7566V12.5326Z" fill="black"/>
<path opacity="0.25" d="M11.4906 34.4005C11.3097 34.4005 11.1649 34.5467 11.1649 34.7294V35.9534V37.5062V39.0591V40.612V42.1648V43.7177V44.9417C11.1649 45.1244 11.3097 45.2706 11.4906 45.2706H21.6603C21.8413 45.2706 21.986 45.1244 21.986 44.9417V43.7177V42.2014V40.6485V39.0956V37.5428V35.9899V34.7659C21.986 34.5832 21.8413 34.4371 21.6603 34.4371C21.6603 34.4005 11.4906 34.4005 11.4906 34.4005ZM20.4479 37.5245V39.0774V40.6302V42.1831V43.5533C20.4479 43.6629 20.3574 43.736 20.267 43.736H12.9021C12.7935 43.736 12.7211 43.6446 12.7211 43.5533V42.2014V40.6485V39.0956V37.5428V36.1726C12.7211 36.063 12.8116 35.9899 12.9021 35.9899H20.267C20.3755 35.9899 20.4479 36.0813 20.4479 36.1726V37.5245Z" fill="black"/>
<path opacity="0.25" d="M18.8917 40.6303V39.0774V37.8534C18.8917 37.6707 18.747 37.5245 18.566 37.5245H14.585C14.404 37.5245 14.2593 37.6707 14.2593 37.8534V39.0774V40.6303V41.8543C14.2593 42.037 14.404 42.1831 14.585 42.1831H18.566C18.747 42.1831 18.8917 42.037 18.8917 41.8543V40.6303Z" fill="black"/>
<path d="M17.245 73.8251C17.245 74.3184 17.0641 74.7203 16.7203 74.9943C16.3764 75.2684 15.8698 75.4328 15.2364 75.4328C14.5669 75.4328 14.0421 75.3414 13.6802 75.1588V74.4645C13.9154 74.5742 14.1869 74.6472 14.4764 74.702C14.7659 74.7568 15.0193 74.7934 15.2726 74.7934C15.6888 74.7934 16.0145 74.7203 16.2317 74.5559C16.4488 74.3915 16.5574 74.1722 16.5574 73.8799C16.5574 73.6972 16.5212 73.5328 16.4488 73.4049C16.3764 73.277 16.2498 73.1674 16.0688 73.0578C15.8879 72.9482 15.6164 72.8386 15.2364 72.6924C14.7117 72.4915 14.3316 72.2723 14.1145 72.0165C13.8974 71.7607 13.7707 71.4136 13.7707 71.0117C13.7707 70.5732 13.9335 70.2079 14.2593 69.9521C14.585 69.6963 15.0193 69.5502 15.5621 69.5502C16.1231 69.5502 16.6479 69.6598 17.1184 69.879L16.9012 70.5002C16.4126 70.2992 15.9602 70.1896 15.544 70.1896C15.2002 70.1896 14.9469 70.2627 14.7478 70.4088C14.5669 70.555 14.4583 70.7559 14.4583 71.03C14.4583 71.2126 14.4945 71.3771 14.5669 71.505C14.6393 71.6328 14.7659 71.7425 14.9288 71.8338C15.0917 71.9251 15.345 72.053 15.7069 72.1809C16.1231 72.3453 16.4488 72.4915 16.6479 72.6376C16.8469 72.7838 17.0098 72.9482 17.1003 73.1492C17.1907 73.3319 17.245 73.5694 17.245 73.8251ZM20.8098 70.2079C20.1946 70.2079 19.7241 70.4088 19.3803 70.829C19.0365 71.2492 18.8555 71.7973 18.8555 72.5098C18.8555 73.2405 19.0184 73.8069 19.3622 74.2088C19.706 74.6107 20.1765 74.8116 20.8098 74.8116C21.2079 74.8116 21.6603 74.7386 22.167 74.5924V75.2136C21.9318 75.3049 21.6965 75.3597 21.4794 75.3963C21.2622 75.4328 21.0089 75.4511 20.7194 75.4511C19.887 75.4511 19.2536 75.1953 18.8012 74.6838C18.3489 74.1722 18.1317 73.4415 18.1317 72.5098C18.1317 71.9251 18.2403 71.4136 18.4574 70.9569C18.6746 70.5184 18.9822 70.1713 19.3984 69.9338C19.8146 69.6963 20.2851 69.5684 20.846 69.5684C21.4432 69.5684 21.968 69.6781 22.4022 69.8973L22.1127 70.5002C21.6422 70.2992 21.2079 70.2079 20.8098 70.2079ZM26.9442 75.3597L26.2566 73.5876H24.0127L23.3432 75.3597H22.6194L24.827 69.6232H25.4604L27.668 75.3597H26.9442ZM26.0394 72.9482L25.4061 71.2126L25.1347 70.354C25.0623 70.6646 24.9718 70.9569 24.8994 71.2126L24.2661 72.9482H26.0394ZM32.9338 75.3597H32.1014L29.0795 70.6098H29.0433L29.0614 70.9203C29.0976 71.3953 29.1157 71.7973 29.1157 72.1626V75.3597H28.4642V69.6415H29.2966L29.4776 69.9156L31.3414 72.8203L32.3367 74.3732H32.3729C32.3729 74.3184 32.3548 74.0809 32.3367 73.6972C32.3186 73.3136 32.3186 73.0396 32.3186 72.8569V69.6415H32.9881V75.3597H32.9338ZM39.032 75.3597L37.1682 70.354H37.132C37.1682 70.7742 37.1863 71.2857 37.1863 71.8886V75.3597H36.5348V69.6415H37.5844L39.3216 74.3184H39.3577L41.1311 69.6415H42.1806V75.3597H41.4749V71.8521C41.4749 71.4684 41.493 70.9569 41.5292 70.3723H41.493L39.6111 75.378H39.032V75.3597ZM46.8855 75.3597H43.7188V69.6415H46.8855V70.2809H44.4426V72.053H46.7407V72.6742H44.4426V74.7203H46.8855V75.3597Z" fill="white"/>
<path d="M5.26578 40.4111V3.41631C5.26578 1.73556 6.3877 0.36538 7.74487 0.36538H30.509H53.2732C54.6304 0.36538 55.7523 1.73556 55.7523 3.41631V40.4111L56.1142 40.7399V3.41631C56.0961 1.5346 54.8294 0 53.2551 0H30.509H7.74487C6.17056 0 4.90387 1.5346 4.90387 3.41631V40.7399L5.26578 40.4111Z" fill="#E6E6E6"/>
<path opacity="0.35" d="M5.2658 48.9244V49.8561L5.22961 49.8379L0 47.2437H5.2658V48.9244ZM55.7342 48.9244V49.8561L55.7704 49.8379L61 47.2437H55.7342V48.9244Z" fill="white"/>
<path opacity="0.15" d="M55.7342 47.2437V40.4111L59.5162 43.8092C60.4571 44.7043 61 45.9466 61 47.2437H55.7342ZM5.2477 47.2437V40.4111L1.48383 43.8092C0.542866 44.7043 0 45.9466 0 47.2437H5.2477ZM55.7342 48.9245L36.8606 58.2599L32.2824 55.6292C31.1786 54.9898 29.8214 54.9898 28.6995 55.6292L24.1213 58.2599L5.2658 48.9245V49.8562L23.2346 58.7897L14.5669 64.7454L28.8985 56.5975C29.8938 56.0311 31.0881 56.0311 32.0834 56.5975L46.4331 64.7454L37.7654 58.7897L55.7342 49.8562V48.9245Z" fill="white"/>
</g>
<defs>
<clipPath id="clip0">
<rect width="61" height="80" fill="white"/>
</clipPath>
</defs>
</svg>
