<svg width="65" height="80" viewBox="0 0 65 80" fill="none" xmlns="http://www.w3.org/2000/svg">
<path d="M3.19061 80H61.8094C63.5794 80 65 78.5689 65 76.8378V3.16215C65 1.40796 63.5561 0 61.8094 0H3.2139C1.44393 0 0.0232891 1.43104 0 3.16215V76.8378C0 78.592 1.44393 80 3.19061 80ZM2.46865 4.13156C2.46865 3.18523 3.23719 2.42354 4.19205 2.42354H60.8312C61.7861 2.42354 62.5546 3.18523 62.5546 4.13156V60.2885C62.5546 61.2349 61.7861 61.9965 60.8312 61.9965H4.19205C3.23719 61.9965 2.46865 61.2349 2.46865 60.2885V4.13156Z" fill="black"/>
<path d="M15.7877 73.6618C15.7877 74.2896 15.5595 74.7859 15.1007 75.146C14.6419 75.506 14.0061 75.6884 13.1886 75.6884C12.3246 75.6884 11.6585 75.5753 11.1881 75.3491V74.4812C11.4978 74.6128 11.8355 74.7166 12.2012 74.7928C12.5668 74.869 12.9115 74.9059 13.2282 74.9059C13.7732 74.9059 14.1831 74.802 14.4579 74.5943C14.7327 74.3866 14.8701 74.1027 14.8701 73.7403C14.8701 73.5003 14.8212 73.3018 14.7211 73.1471C14.6209 72.9925 14.4556 72.8471 14.2203 72.7132C13.9851 72.5793 13.6311 72.4247 13.1584 72.2539C12.4853 72.0115 12.0032 71.723 11.7144 71.3929C11.4257 71.0629 11.2813 70.6359 11.2813 70.1119C11.2813 69.5487 11.4955 69.101 11.9217 68.7709C12.3479 68.4385 12.9092 68.2723 13.6078 68.2723C14.3345 68.2723 15.0029 68.4062 15.613 68.6763L15.3289 69.4564C14.7048 69.2002 14.1249 69.071 13.5869 69.071C13.156 69.071 12.8183 69.1633 12.5738 69.3479C12.3293 69.5326 12.2082 69.7911 12.2082 70.1235C12.2082 70.3612 12.2547 70.5574 12.3502 70.712C12.4457 70.869 12.5971 71.0098 12.809 71.139C13.021 71.2683 13.3517 71.4137 13.8011 71.5776C14.3415 71.7761 14.7444 71.9677 15.0099 72.1523C15.2753 72.3393 15.471 72.5516 15.5967 72.794C15.7248 73.0386 15.7877 73.3272 15.7877 73.6618ZM20.3733 69.0733C19.5908 69.0733 18.9737 69.3341 18.5265 69.8534C18.0794 70.3727 17.8535 71.0836 17.8535 71.9838C17.8535 72.914 18.07 73.6318 18.5056 74.1373C18.9411 74.6428 19.5582 74.8944 20.3617 74.8944C20.8787 74.8944 21.4609 74.7997 22.1084 74.6082V75.3975C21.7986 75.5083 21.5029 75.5868 21.2164 75.626C20.93 75.6676 20.6016 75.6884 20.2313 75.6884C19.16 75.6884 18.3332 75.3652 17.7556 74.719C17.1757 74.0727 16.887 73.1563 16.887 71.9723C16.887 71.2291 17.0244 70.5782 17.3015 70.0196C17.5786 69.461 17.9815 69.0294 18.5102 68.727C19.0389 68.4247 19.663 68.2723 20.3803 68.2723C21.1512 68.2723 21.8196 68.4131 22.3925 68.697L22.0245 69.4656C21.4446 69.2048 20.895 69.0733 20.3733 69.0733ZM28.2637 75.5914L27.388 73.3572H24.5002L23.6338 75.5914H22.7069L25.5505 68.3485H26.3773L29.2139 75.5914H28.2637ZM27.1132 72.5516L26.2958 70.3658L25.9464 69.2856C25.8463 69.6803 25.7415 70.0404 25.632 70.3658L24.8053 72.5516H27.1132ZM35.9841 75.5914H34.9128L31.0142 69.6018H30.9746L31.0002 70.0011C31.0398 70.5989 31.0607 71.1206 31.0607 71.5591V75.5891H30.2153V68.3762H31.275L31.4986 68.727L33.888 72.3877L35.1573 74.3473H35.1969C35.1899 74.2689 35.1759 73.9873 35.1573 73.5003C35.1363 73.0155 35.127 72.6647 35.127 72.4477V68.3762H35.9841V75.5914ZM43.8209 75.5914L41.4221 69.2671H41.3825C41.4314 69.7934 41.457 70.442 41.457 71.2152V75.5914H40.6116V68.3785H41.9647L44.2098 74.2896H44.2494L46.534 68.3785H47.8778V75.5914H46.9719V71.1552C46.9719 70.6613 46.9952 70.0358 47.0417 69.2764H47.0021L44.5731 75.5914H43.8209ZM53.926 75.5914H49.8597V68.3785H53.926V69.1771H50.775V71.4276H53.742V72.2169H50.775V74.7928H53.926V75.5914Z" fill="white"/>
</svg>
