<svg width="56" height="80" viewBox="0 0 56 80" fill="none" xmlns="http://www.w3.org/2000/svg">
<path d="M53.5337 16.0695H40.9436C53.62 11.6593 52.154 8.58249 52.154 8.58249C48.6012 0.719412 46.5833 0.377539 46.5833 0.377539C40.6677 -2.4771 30.6991 11.7619 30.6991 11.7619V11.779C29.9058 11.3175 28.9917 11.044 27.9914 11.044C26.9911 11.044 26.077 11.3175 25.2836 11.779V11.7619C25.2836 11.7619 15.3151 -2.4771 9.39945 0.377539C9.39945 0.377539 7.36434 0.719412 3.82877 8.58249C3.82877 8.58249 2.3628 11.6593 15.0391 16.0695H2.44903C1.08654 16.0695 0 17.1635 0 18.4968V28.3086C0 29.4709 0.965814 30.4282 2.13859 30.4282H3.93225V77.6579C3.93225 78.94 4.98429 79.9998 6.29504 79.9998H49.705C50.9985 79.9998 52.0678 78.9571 52.0678 77.6579V30.4111H53.8614C55.0342 30.4111 56 29.4538 56 28.2915V18.4797C55.9828 17.1635 54.879 16.0695 53.5337 16.0695ZM50.2396 76.9229C50.2396 77.6238 49.6705 78.1878 48.9633 78.1878H7.0194C6.31229 78.1878 5.74315 77.6238 5.74315 76.9229V35.3512C5.74315 34.6503 6.31229 34.0862 7.0194 34.0862H48.9633C49.6705 34.0862 50.2396 34.6503 50.2396 35.3512V76.9229Z" fill="black"/>
<path opacity="0.35" d="M52.0505 30.4113V32.2745H3.93224V30.4113H52.0505ZM19.3508 16.0698H22.7139C20.4373 14.651 7.5368 6.73662 5.9846 8.1383C4.46689 9.52289 16.6948 14.9245 19.3508 16.0698ZM33.2689 16.0698C35.5454 14.651 48.4459 6.73662 49.9981 8.1383C51.5158 9.52289 39.2879 14.9245 36.6492 16.0698H33.2689ZM22.6794 16.0698C22.8001 13.2835 25.1112 11.0442 27.9569 11.0442C30.8026 11.0442 33.1309 13.2835 33.2344 16.0698H22.6794Z" fill="white"/>
<path d="M15.572 24.6405C15.572 25.1055 15.403 25.473 15.0633 25.7397C14.7235 26.008 14.2527 26.1414 13.6473 26.1414C13.0075 26.1414 12.5142 26.0576 12.1658 25.8901V25.2474C12.3952 25.3448 12.6453 25.4217 12.916 25.4781C13.1868 25.5345 13.4421 25.5619 13.6766 25.5619C14.0802 25.5619 14.3837 25.485 14.5872 25.3311C14.7908 25.1773 14.8925 24.967 14.8925 24.6987C14.8925 24.5209 14.8563 24.3739 14.7821 24.2593C14.708 24.1448 14.5855 24.0371 14.4113 23.938C14.2389 23.8388 13.975 23.7243 13.6249 23.5978C13.1265 23.4183 12.7694 23.2047 12.5556 22.9602C12.3417 22.7158 12.2348 22.3996 12.2348 22.0115C12.2348 21.5944 12.3935 21.2628 12.7091 21.0184C13.0247 20.774 13.4403 20.6492 13.9577 20.6492C14.4958 20.6492 14.9908 20.7483 15.4427 20.9483L15.2323 21.5261C14.7701 21.3363 14.3406 21.2406 13.9422 21.2406C13.6232 21.2406 13.3731 21.309 13.192 21.4457C13.0109 21.5825 12.9212 21.7739 12.9212 22.0201C12.9212 22.1961 12.9557 22.3414 13.0264 22.456C13.0971 22.5705 13.2092 22.6765 13.3662 22.7722C13.5231 22.8679 13.768 22.9756 14.1009 23.097C14.501 23.244 14.7994 23.3859 14.996 23.5226C15.1926 23.6611 15.3375 23.8183 15.4306 23.9978C15.5255 24.179 15.572 24.3927 15.572 24.6405ZM18.9679 21.2423C18.3884 21.2423 17.9314 21.4355 17.6002 21.8201C17.2691 22.2047 17.1018 22.7312 17.1018 23.3978C17.1018 24.0867 17.2622 24.6183 17.5847 24.9927C17.9072 25.367 18.3643 25.5533 18.9593 25.5533C19.3422 25.5533 19.7733 25.4833 20.2528 25.3414V25.926C20.0234 26.008 19.8044 26.0661 19.5922 26.0952C19.3801 26.126 19.1369 26.1414 18.8627 26.1414C18.0694 26.1414 17.4571 25.902 17.0294 25.4234C16.5999 24.9448 16.3861 24.2662 16.3861 23.3893C16.3861 22.8389 16.4878 22.3568 16.6931 21.9432C16.8983 21.5295 17.1967 21.2098 17.5882 20.9859C17.9797 20.762 18.4419 20.6492 18.9731 20.6492C19.5439 20.6492 20.0389 20.7534 20.4632 20.9637L20.1907 21.5329C19.7613 21.3398 19.3542 21.2423 18.9679 21.2423ZM24.8111 26.0696L24.1626 24.4149H22.024L21.3824 26.0696H20.696L22.8018 20.7056H23.4141L25.5147 26.0696H24.8111ZM23.9591 23.82L23.3537 22.2013L23.095 21.4013C23.0209 21.6936 22.9433 21.9603 22.8622 22.2013L22.2499 23.82H23.9591ZM30.5284 26.0696H29.735L26.8479 21.6338H26.8186L26.8376 21.9295C26.8669 22.3722 26.8824 22.7585 26.8824 23.0833V26.0679H26.2564V20.7261H27.0411L27.2066 20.9859L28.9762 23.697L29.9161 25.1482H29.9454C29.9402 25.0901 29.9299 24.8816 29.9161 24.5209C29.9006 24.1619 29.8937 23.9021 29.8937 23.7414V20.7261H30.5284V26.0696ZM36.3319 26.0696L34.5555 21.3859H34.5261C34.5624 21.7756 34.5813 22.256 34.5813 22.8286V26.0696H33.9553V20.7278H34.9573L36.6199 25.1055H36.6492L38.3411 20.7278H39.3362V26.0696H38.6653V22.7859C38.6653 22.4201 38.6826 21.9568 38.7171 21.3945H38.6878L36.8889 26.0713H36.3319V26.0696ZM43.8152 26.0696H40.8039V20.7278H43.8152V21.3192H41.4817V22.9859H43.679V23.5705H41.4817V25.4781H43.8152V26.0696Z" fill="white"/>
</svg>
