<svg width="60" height="80" viewBox="0 0 60 80" fill="none" xmlns="http://www.w3.org/2000/svg">
<path d="M57.9147 2.12329H2.06378V59.5853H57.9147V2.12329Z" fill="white"/>
<path opacity="0.25" d="M25.5199 7.86951H23.7334V9.70749H25.5199V7.86951Z" fill="black"/>
<path opacity="0.25" d="M34.4565 7.86951H32.67V9.70749H34.4565V7.86951Z" fill="black"/>
<path opacity="0.25" d="M38.0315 7.86951H36.2451V9.70749H38.0315V7.86951Z" fill="black"/>
<path opacity="0.25" d="M23.7334 9.70752H21.947V11.5455H23.7334V9.70752Z" fill="black"/>
<path opacity="0.25" d="M25.5199 9.70752H23.7334V11.5455H25.5199V9.70752Z" fill="black"/>
<path opacity="0.25" d="M29.095 9.70752H27.3085V11.5455H29.095V9.70752Z" fill="black"/>
<path opacity="0.25" d="M30.8814 9.70752H29.0949V11.5455H30.8814V9.70752Z" fill="black"/>
<path opacity="0.25" d="M32.67 9.70752H30.8835V11.5455H32.67V9.70752Z" fill="black"/>
<path opacity="0.25" d="M34.4565 9.70752H32.67V11.5455H34.4565V9.70752Z" fill="black"/>
<path opacity="0.25" d="M25.5199 11.5477H23.7334V13.3857H25.5199V11.5477Z" fill="black"/>
<path opacity="0.25" d="M27.3085 11.5477H25.522V13.3857H27.3085V11.5477Z" fill="black"/>
<path opacity="0.25" d="M29.095 11.5477H27.3085V13.3857H29.095V11.5477Z" fill="black"/>
<path opacity="0.25" d="M23.7334 13.3856H21.947V15.2236H23.7334V13.3856Z" fill="black"/>
<path opacity="0.25" d="M25.5199 13.3856H23.7334V15.2236H25.5199V13.3856Z" fill="black"/>
<path opacity="0.25" d="M29.095 13.3856H27.3085V15.2236H29.095V13.3856Z" fill="black"/>
<path opacity="0.25" d="M32.67 13.3856H30.8835V15.2236H32.67V13.3856Z" fill="black"/>
<path opacity="0.25" d="M36.2429 13.3856H34.4565V15.2236H36.2429V13.3856Z" fill="black"/>
<path opacity="0.25" d="M38.0315 13.3856H36.2451V15.2236H38.0315V13.3856Z" fill="black"/>
<path opacity="0.25" d="M27.3085 15.2236H25.522V17.0616H27.3085V15.2236Z" fill="black"/>
<path opacity="0.25" d="M30.8814 15.2236H29.0949V17.0616H30.8814V15.2236Z" fill="black"/>
<path opacity="0.25" d="M36.2429 15.2236H34.4565V17.0616H36.2429V15.2236Z" fill="black"/>
<path opacity="0.25" d="M38.0315 15.2236H36.2451V17.0616H38.0315V15.2236Z" fill="black"/>
<path opacity="0.25" d="M23.7334 17.0638H21.947V18.9018H23.7334V17.0638Z" fill="black"/>
<path opacity="0.25" d="M27.3085 17.0638H25.522V18.9018H27.3085V17.0638Z" fill="black"/>
<path opacity="0.25" d="M32.67 17.0638H30.8835V18.9018H32.67V17.0638Z" fill="black"/>
<path opacity="0.25" d="M34.4565 17.0638H32.67V18.9018H34.4565V17.0638Z" fill="black"/>
<path opacity="0.25" d="M36.2429 17.0638H34.4565V18.9018H36.2429V17.0638Z" fill="black"/>
<path opacity="0.25" d="M23.7334 18.9019H21.947V20.7398H23.7334V18.9019Z" fill="black"/>
<path opacity="0.25" d="M27.3085 18.9019H25.522V20.7398H27.3085V18.9019Z" fill="black"/>
<path opacity="0.25" d="M30.8814 18.9019H29.0949V20.7398H30.8814V18.9019Z" fill="black"/>
<path opacity="0.25" d="M34.4565 18.9019H32.67V20.7398H34.4565V18.9019Z" fill="black"/>
<path opacity="0.25" d="M38.0315 18.9019H36.2451V20.7398H38.0315V18.9019Z" fill="black"/>
<path opacity="0.25" d="M30.8814 20.7421H29.0949V22.5801H30.8814V20.7421Z" fill="black"/>
<path opacity="0.25" d="M38.0315 20.7421H36.2451V22.5801H38.0315V20.7421Z" fill="black"/>
<path opacity="0.25" d="M9.43532 22.5801H7.64886V24.4181H9.43532V22.5801Z" fill="black"/>
<path opacity="0.25" d="M11.2218 22.5801H9.4353V24.4181H11.2218V22.5801Z" fill="black"/>
<path opacity="0.25" d="M13.0104 22.5801H11.2239V24.4181H13.0104V22.5801Z" fill="black"/>
<path opacity="0.25" d="M14.7969 22.5801H13.0104V24.4181H14.7969V22.5801Z" fill="black"/>
<path opacity="0.25" d="M16.5833 22.5801H14.7968V24.4181H16.5833V22.5801Z" fill="black"/>
<path opacity="0.25" d="M20.1584 22.5801H18.3719V24.4181H20.1584V22.5801Z" fill="black"/>
<path opacity="0.25" d="M21.947 22.5801H20.1605V24.4181H21.947V22.5801Z" fill="black"/>
<path opacity="0.25" d="M23.7334 22.5801H21.947V24.4181H23.7334V22.5801Z" fill="black"/>
<path opacity="0.25" d="M25.5199 22.5801H23.7334V24.4181H25.5199V22.5801Z" fill="black"/>
<path opacity="0.25" d="M27.3085 22.5801H25.522V24.4181H27.3085V22.5801Z" fill="black"/>
<path opacity="0.25" d="M30.8814 22.5801H29.0949V24.4181H30.8814V22.5801Z" fill="black"/>
<path opacity="0.25" d="M32.67 22.5801H30.8835V24.4181H32.67V22.5801Z" fill="black"/>
<path opacity="0.25" d="M36.2429 22.5801H34.4565V24.4181H36.2429V22.5801Z" fill="black"/>
<path opacity="0.25" d="M39.818 22.5801H38.0315V24.4181H39.818V22.5801Z" fill="black"/>
<path opacity="0.25" d="M43.3931 22.5801H41.6066V24.4181H43.3931V22.5801Z" fill="black"/>
<path opacity="0.25" d="M46.9681 22.5801H45.1816V24.4181H46.9681V22.5801Z" fill="black"/>
<path opacity="0.25" d="M50.541 22.5801H48.7546V24.4181H50.541V22.5801Z" fill="black"/>
<path opacity="0.25" d="M14.7969 24.418H13.0104V26.256H14.7969V24.418Z" fill="black"/>
<path opacity="0.25" d="M25.5199 24.418H23.7334V26.256H25.5199V24.418Z" fill="black"/>
<path opacity="0.25" d="M36.2429 24.418H34.4565V26.256H36.2429V24.418Z" fill="black"/>
<path opacity="0.25" d="M38.0315 24.418H36.2451V26.256H38.0315V24.418Z" fill="black"/>
<path opacity="0.25" d="M39.818 24.418H38.0315V26.256H39.818V24.418Z" fill="black"/>
<path opacity="0.25" d="M43.3931 24.418H41.6066V26.256H43.3931V24.418Z" fill="black"/>
<path opacity="0.25" d="M45.1795 24.418H43.3931V26.256H45.1795V24.418Z" fill="black"/>
<path opacity="0.25" d="M52.3296 24.418H50.5432V26.256H52.3296V24.418Z" fill="black"/>
<path opacity="0.25" d="M13.0104 26.2583H11.2239V28.0963H13.0104V26.2583Z" fill="black"/>
<path opacity="0.25" d="M18.3719 26.2583H16.5854V28.0963H18.3719V26.2583Z" fill="black"/>
<path opacity="0.25" d="M20.1584 26.2583H18.3719V28.0963H20.1584V26.2583Z" fill="black"/>
<path opacity="0.25" d="M21.947 26.2583H20.1605V28.0963H21.947V26.2583Z" fill="black"/>
<path opacity="0.25" d="M25.5199 26.2583H23.7334V28.0963H25.5199V26.2583Z" fill="black"/>
<path opacity="0.25" d="M29.095 26.2583H27.3085V28.0963H29.095V26.2583Z" fill="black"/>
<path opacity="0.25" d="M30.8814 26.2583H29.0949V28.0963H30.8814V26.2583Z" fill="black"/>
<path opacity="0.25" d="M32.67 26.2583H30.8835V28.0963H32.67V26.2583Z" fill="black"/>
<path opacity="0.25" d="M34.4565 26.2583H32.67V28.0963H34.4565V26.2583Z" fill="black"/>
<path opacity="0.25" d="M36.2429 26.2583H34.4565V28.0963H36.2429V26.2583Z" fill="black"/>
<path opacity="0.25" d="M39.818 26.2583H38.0315V28.0963H39.818V26.2583Z" fill="black"/>
<path opacity="0.25" d="M41.6045 26.2583H39.818V28.0963H41.6045V26.2583Z" fill="black"/>
<path opacity="0.25" d="M45.1795 26.2583H43.3931V28.0963H45.1795V26.2583Z" fill="black"/>
<path opacity="0.25" d="M48.7546 26.2583H46.9681V28.0963H48.7546V26.2583Z" fill="black"/>
<path opacity="0.25" d="M9.43532 28.0962H7.64886V29.9342H9.43532V28.0962Z" fill="black"/>
<path opacity="0.25" d="M13.0104 28.0962H11.2239V29.9342H13.0104V28.0962Z" fill="black"/>
<path opacity="0.25" d="M14.7969 28.0962H13.0104V29.9342H14.7969V28.0962Z" fill="black"/>
<path opacity="0.25" d="M16.5833 28.0962H14.7968V29.9342H16.5833V28.0962Z" fill="black"/>
<path opacity="0.25" d="M18.3719 28.0962H16.5854V29.9342H18.3719V28.0962Z" fill="black"/>
<path opacity="0.25" d="M21.947 28.0962H20.1605V29.9342H21.947V28.0962Z" fill="black"/>
<path opacity="0.25" d="M23.7334 28.0962H21.947V29.9342H23.7334V28.0962Z" fill="black"/>
<path opacity="0.25" d="M25.5199 28.0962H23.7334V29.9342H25.5199V28.0962Z" fill="black"/>
<path opacity="0.25" d="M27.3085 28.0962H25.522V29.9342H27.3085V28.0962Z" fill="black"/>
<path opacity="0.25" d="M29.095 28.0962H27.3085V29.9342H29.095V28.0962Z" fill="black"/>
<path opacity="0.25" d="M34.4565 28.0962H32.67V29.9342H34.4565V28.0962Z" fill="black"/>
<path opacity="0.25" d="M38.0315 28.0962H36.2451V29.9342H38.0315V28.0962Z" fill="black"/>
<path opacity="0.25" d="M39.818 28.0962H38.0315V29.9342H39.818V28.0962Z" fill="black"/>
<path opacity="0.25" d="M9.43532 29.9342H7.64886V31.7722H9.43532V29.9342Z" fill="black"/>
<path opacity="0.25" d="M14.7969 29.9342H13.0104V31.7722H14.7969V29.9342Z" fill="black"/>
<path opacity="0.25" d="M20.1584 29.9342H18.3719V31.7722H20.1584V29.9342Z" fill="black"/>
<path opacity="0.25" d="M25.5199 29.9342H23.7334V31.7722H25.5199V29.9342Z" fill="black"/>
<path opacity="0.25" d="M29.095 29.9342H27.3085V31.7722H29.095V29.9342Z" fill="black"/>
<path opacity="0.25" d="M32.67 29.9342H30.8835V31.7722H32.67V29.9342Z" fill="black"/>
<path opacity="0.25" d="M36.2429 29.9342H34.4565V31.7722H36.2429V29.9342Z" fill="black"/>
<path opacity="0.25" d="M41.6045 29.9342H39.818V31.7722H41.6045V29.9342Z" fill="black"/>
<path opacity="0.25" d="M43.3931 29.9342H41.6066V31.7722H43.3931V29.9342Z" fill="black"/>
<path opacity="0.25" d="M45.1795 29.9342H43.3931V31.7722H45.1795V29.9342Z" fill="black"/>
<path opacity="0.25" d="M46.9681 29.9342H45.1816V31.7722H46.9681V29.9342Z" fill="black"/>
<path opacity="0.25" d="M50.541 29.9342H48.7546V31.7722H50.541V29.9342Z" fill="black"/>
<path opacity="0.25" d="M52.3296 29.9342H50.5432V31.7722H52.3296V29.9342Z" fill="black"/>
<path opacity="0.25" d="M9.43532 31.7744H7.64886V33.6124H9.43532V31.7744Z" fill="black"/>
<path opacity="0.25" d="M11.2218 31.7744H9.4353V33.6124H11.2218V31.7744Z" fill="black"/>
<path opacity="0.25" d="M14.7969 31.7744H13.0104V33.6124H14.7969V31.7744Z" fill="black"/>
<path opacity="0.25" d="M21.947 31.7744H20.1605V33.6124H21.947V31.7744Z" fill="black"/>
<path opacity="0.25" d="M27.3085 31.7744H25.522V33.6124H27.3085V31.7744Z" fill="black"/>
<path opacity="0.25" d="M30.8814 31.7744H29.0949V33.6124H30.8814V31.7744Z" fill="black"/>
<path opacity="0.25" d="M34.4565 31.7744H32.67V33.6124H34.4565V31.7744Z" fill="black"/>
<path opacity="0.25" d="M38.0315 31.7744H36.2451V33.6124H38.0315V31.7744Z" fill="black"/>
<path opacity="0.25" d="M39.818 31.7744H38.0315V33.6124H39.818V31.7744Z" fill="black"/>
<path opacity="0.25" d="M41.6045 31.7744H39.818V33.6124H41.6045V31.7744Z" fill="black"/>
<path opacity="0.25" d="M43.3931 31.7744H41.6066V33.6124H43.3931V31.7744Z" fill="black"/>
<path opacity="0.25" d="M45.1795 31.7744H43.3931V33.6124H45.1795V31.7744Z" fill="black"/>
<path opacity="0.25" d="M9.43532 33.6124H7.64886V35.4504H9.43532V33.6124Z" fill="black"/>
<path opacity="0.25" d="M13.0104 33.6124H11.2239V35.4504H13.0104V33.6124Z" fill="black"/>
<path opacity="0.25" d="M14.7969 33.6124H13.0104V35.4504H14.7969V33.6124Z" fill="black"/>
<path opacity="0.25" d="M16.5833 33.6124H14.7968V35.4504H16.5833V33.6124Z" fill="black"/>
<path opacity="0.25" d="M20.1584 33.6124H18.3719V35.4504H20.1584V33.6124Z" fill="black"/>
<path opacity="0.25" d="M21.947 33.6124H20.1605V35.4504H21.947V33.6124Z" fill="black"/>
<path opacity="0.25" d="M32.67 33.6124H30.8835V35.4504H32.67V33.6124Z" fill="black"/>
<path opacity="0.25" d="M39.818 33.6124H38.0315V35.4504H39.818V33.6124Z" fill="black"/>
<path opacity="0.25" d="M41.6045 33.6124H39.818V35.4504H41.6045V33.6124Z" fill="black"/>
<path opacity="0.25" d="M45.1795 33.6124H43.3931V35.4504H45.1795V33.6124Z" fill="black"/>
<path opacity="0.25" d="M48.7546 33.6124H46.9681V35.4504H48.7546V33.6124Z" fill="black"/>
<path opacity="0.25" d="M50.541 33.6124H48.7546V35.4504H50.541V33.6124Z" fill="black"/>
<path opacity="0.25" d="M52.3296 33.6124H50.5432V35.4504H52.3296V33.6124Z" fill="black"/>
<path opacity="0.25" d="M9.43532 35.4503H7.64886V37.2883H9.43532V35.4503Z" fill="black"/>
<path opacity="0.25" d="M14.7969 35.4503H13.0104V37.2883H14.7969V35.4503Z" fill="black"/>
<path opacity="0.25" d="M18.3719 35.4503H16.5854V37.2883H18.3719V35.4503Z" fill="black"/>
<path opacity="0.25" d="M25.5199 35.4503H23.7334V37.2883H25.5199V35.4503Z" fill="black"/>
<path opacity="0.25" d="M27.3085 35.4503H25.522V37.2883H27.3085V35.4503Z" fill="black"/>
<path opacity="0.25" d="M30.8814 35.4503H29.0949V37.2883H30.8814V35.4503Z" fill="black"/>
<path opacity="0.25" d="M32.67 35.4503H30.8835V37.2883H32.67V35.4503Z" fill="black"/>
<path opacity="0.25" d="M34.4565 35.4503H32.67V37.2883H34.4565V35.4503Z" fill="black"/>
<path opacity="0.25" d="M39.818 35.4503H38.0315V37.2883H39.818V35.4503Z" fill="black"/>
<path opacity="0.25" d="M50.541 35.4503H48.7546V37.2883H50.541V35.4503Z" fill="black"/>
<path opacity="0.25" d="M52.3296 35.4503H50.5432V37.2883H52.3296V35.4503Z" fill="black"/>
<path opacity="0.25" d="M9.43532 37.2906H7.64886V39.1286H9.43532V37.2906Z" fill="black"/>
<path opacity="0.25" d="M20.1584 37.2906H18.3719V39.1286H20.1584V37.2906Z" fill="black"/>
<path opacity="0.25" d="M27.3085 37.2906H25.522V39.1286H27.3085V37.2906Z" fill="black"/>
<path opacity="0.25" d="M30.8814 37.2906H29.0949V39.1286H30.8814V37.2906Z" fill="black"/>
<path opacity="0.25" d="M36.2429 37.2906H34.4565V39.1286H36.2429V37.2906Z" fill="black"/>
<path opacity="0.25" d="M38.0315 37.2906H36.2451V39.1286H38.0315V37.2906Z" fill="black"/>
<path opacity="0.25" d="M39.818 37.2906H38.0315V39.1286H39.818V37.2906Z" fill="black"/>
<path opacity="0.25" d="M41.6045 37.2906H39.818V39.1286H41.6045V37.2906Z" fill="black"/>
<path opacity="0.25" d="M43.3931 37.2906H41.6066V39.1286H43.3931V37.2906Z" fill="black"/>
<path opacity="0.25" d="M45.1795 37.2906H43.3931V39.1286H45.1795V37.2906Z" fill="black"/>
<path opacity="0.25" d="M46.9681 37.2906H45.1816V39.1286H46.9681V37.2906Z" fill="black"/>
<path opacity="0.25" d="M52.3296 37.2906H50.5432V39.1286H52.3296V37.2906Z" fill="black"/>
<path opacity="0.25" d="M23.7334 39.1285H21.947V40.9665H23.7334V39.1285Z" fill="black"/>
<path opacity="0.25" d="M27.3085 39.1285H25.522V40.9665H27.3085V39.1285Z" fill="black"/>
<path opacity="0.25" d="M34.4565 39.1285H32.67V40.9665H34.4565V39.1285Z" fill="black"/>
<path opacity="0.25" d="M38.0315 39.1285H36.2451V40.9665H38.0315V39.1285Z" fill="black"/>
<path opacity="0.25" d="M45.1795 39.1285H43.3931V40.9665H45.1795V39.1285Z" fill="black"/>
<path opacity="0.25" d="M52.3296 39.1285H50.5432V40.9665H52.3296V39.1285Z" fill="black"/>
<path opacity="0.25" d="M23.7334 40.9666H21.947V42.8045H23.7334V40.9666Z" fill="black"/>
<path opacity="0.25" d="M25.5199 40.9666H23.7334V42.8045H25.5199V40.9666Z" fill="black"/>
<path opacity="0.25" d="M27.3085 40.9666H25.522V42.8045H27.3085V40.9666Z" fill="black"/>
<path opacity="0.25" d="M29.095 40.9666H27.3085V42.8045H29.095V40.9666Z" fill="black"/>
<path opacity="0.25" d="M30.8814 40.9666H29.0949V42.8045H30.8814V40.9666Z" fill="black"/>
<path opacity="0.25" d="M34.4565 40.9666H32.67V42.8045H34.4565V40.9666Z" fill="black"/>
<path opacity="0.25" d="M38.0315 40.9666H36.2451V42.8045H38.0315V40.9666Z" fill="black"/>
<path opacity="0.25" d="M41.6045 40.9666H39.818V42.8045H41.6045V40.9666Z" fill="black"/>
<path opacity="0.25" d="M45.1795 40.9666H43.3931V42.8045H45.1795V40.9666Z" fill="black"/>
<path opacity="0.25" d="M48.7546 40.9666H46.9681V42.8045H48.7546V40.9666Z" fill="black"/>
<path opacity="0.25" d="M50.541 40.9666H48.7546V42.8045H50.541V40.9666Z" fill="black"/>
<path opacity="0.25" d="M52.3296 40.9666H50.5432V42.8045H52.3296V40.9666Z" fill="black"/>
<path opacity="0.25" d="M25.5199 42.8068H23.7334V44.6448H25.5199V42.8068Z" fill="black"/>
<path opacity="0.25" d="M27.3085 42.8068H25.522V44.6448H27.3085V42.8068Z" fill="black"/>
<path opacity="0.25" d="M29.095 42.8068H27.3085V44.6448H29.095V42.8068Z" fill="black"/>
<path opacity="0.25" d="M34.4565 42.8068H32.67V44.6448H34.4565V42.8068Z" fill="black"/>
<path opacity="0.25" d="M38.0315 42.8068H36.2451V44.6448H38.0315V42.8068Z" fill="black"/>
<path opacity="0.25" d="M45.1795 42.8068H43.3931V44.6448H45.1795V42.8068Z" fill="black"/>
<path opacity="0.25" d="M46.9681 42.8068H45.1816V44.6448H46.9681V42.8068Z" fill="black"/>
<path opacity="0.25" d="M23.7334 44.6448H21.947V46.4828H23.7334V44.6448Z" fill="black"/>
<path opacity="0.25" d="M25.5199 44.6448H23.7334V46.4828H25.5199V44.6448Z" fill="black"/>
<path opacity="0.25" d="M29.095 44.6448H27.3085V46.4828H29.095V44.6448Z" fill="black"/>
<path opacity="0.25" d="M30.8814 44.6448H29.0949V46.4828H30.8814V44.6448Z" fill="black"/>
<path opacity="0.25" d="M32.67 44.6448H30.8835V46.4828H32.67V44.6448Z" fill="black"/>
<path opacity="0.25" d="M38.0315 44.6448H36.2451V46.4828H38.0315V44.6448Z" fill="black"/>
<path opacity="0.25" d="M39.818 44.6448H38.0315V46.4828H39.818V44.6448Z" fill="black"/>
<path opacity="0.25" d="M41.6045 44.6448H39.818V46.4828H41.6045V44.6448Z" fill="black"/>
<path opacity="0.25" d="M43.3931 44.6448H41.6066V46.4828H43.3931V44.6448Z" fill="black"/>
<path opacity="0.25" d="M45.1795 44.6448H43.3931V46.4828H45.1795V44.6448Z" fill="black"/>
<path opacity="0.25" d="M46.9681 44.6448H45.1816V46.4828H46.9681V44.6448Z" fill="black"/>
<path opacity="0.25" d="M23.7334 46.4849H21.947V48.3229H23.7334V46.4849Z" fill="black"/>
<path opacity="0.25" d="M25.5199 46.4849H23.7334V48.3229H25.5199V46.4849Z" fill="black"/>
<path opacity="0.25" d="M27.3085 46.4849H25.522V48.3229H27.3085V46.4849Z" fill="black"/>
<path opacity="0.25" d="M30.8814 46.4849H29.0949V48.3229H30.8814V46.4849Z" fill="black"/>
<path opacity="0.25" d="M36.2429 46.4849H34.4565V48.3229H36.2429V46.4849Z" fill="black"/>
<path opacity="0.25" d="M38.0315 46.4849H36.2451V48.3229H38.0315V46.4849Z" fill="black"/>
<path opacity="0.25" d="M41.6045 46.4849H39.818V48.3229H41.6045V46.4849Z" fill="black"/>
<path opacity="0.25" d="M45.1795 46.4849H43.3931V48.3229H45.1795V46.4849Z" fill="black"/>
<path opacity="0.25" d="M50.541 46.4849H48.7546V48.3229H50.541V46.4849Z" fill="black"/>
<path opacity="0.25" d="M52.3296 46.4849H50.5432V48.3229H52.3296V46.4849Z" fill="black"/>
<path opacity="0.25" d="M23.7334 48.323H21.947V50.161H23.7334V48.323Z" fill="black"/>
<path opacity="0.25" d="M25.5199 48.323H23.7334V50.161H25.5199V48.323Z" fill="black"/>
<path opacity="0.25" d="M30.8814 48.323H29.0949V50.161H30.8814V48.323Z" fill="black"/>
<path opacity="0.25" d="M32.67 48.323H30.8835V50.161H32.67V48.323Z" fill="black"/>
<path opacity="0.25" d="M34.4565 48.323H32.67V50.161H34.4565V48.323Z" fill="black"/>
<path opacity="0.25" d="M45.1795 48.323H43.3931V50.161H45.1795V48.323Z" fill="black"/>
<path opacity="0.25" d="M48.7546 48.323H46.9681V50.161H48.7546V48.323Z" fill="black"/>
<path opacity="0.25" d="M52.3296 48.323H50.5432V50.161H52.3296V48.323Z" fill="black"/>
<path opacity="0.25" d="M23.7334 50.1609H21.947V51.9989H23.7334V50.1609Z" fill="black"/>
<path opacity="0.25" d="M25.5199 50.1609H23.7334V51.9989H25.5199V50.1609Z" fill="black"/>
<path opacity="0.25" d="M27.3085 50.1609H25.522V51.9989H27.3085V50.1609Z" fill="black"/>
<path opacity="0.25" d="M30.8814 50.1609H29.0949V51.9989H30.8814V50.1609Z" fill="black"/>
<path opacity="0.25" d="M32.67 50.1609H30.8835V51.9989H32.67V50.1609Z" fill="black"/>
<path opacity="0.25" d="M38.0315 50.1609H36.2451V51.9989H38.0315V50.1609Z" fill="black"/>
<path opacity="0.25" d="M39.818 50.1609H38.0315V51.9989H39.818V50.1609Z" fill="black"/>
<path opacity="0.25" d="M41.6045 50.1609H39.818V51.9989H41.6045V50.1609Z" fill="black"/>
<path opacity="0.25" d="M43.3931 50.1609H41.6066V51.9989H43.3931V50.1609Z" fill="black"/>
<path opacity="0.25" d="M45.1795 50.1609H43.3931V51.9989H45.1795V50.1609Z" fill="black"/>
<path opacity="0.25" d="M46.9681 50.1609H45.1816V51.9989H46.9681V50.1609Z" fill="black"/>
<path opacity="0.25" d="M50.541 50.1609H48.7546V51.9989H50.541V50.1609Z" fill="black"/>
<path opacity="0.25" d="M23.7334 52.0011H21.947V53.8391H23.7334V52.0011Z" fill="black"/>
<path opacity="0.25" d="M32.67 52.0011H30.8835V53.8391H32.67V52.0011Z" fill="black"/>
<path opacity="0.25" d="M36.2429 52.0011H34.4565V53.8391H36.2429V52.0011Z" fill="black"/>
<path opacity="0.25" d="M48.7546 52.0011H46.9681V53.8391H48.7546V52.0011Z" fill="black"/>
<path opacity="0.25" d="M50.541 52.0011H48.7546V53.8391H50.541V52.0011Z" fill="black"/>
<path opacity="0.25" d="M52.3296 52.0011H50.5432V53.8391H52.3296V52.0011Z" fill="black"/>
<path opacity="0.25" d="M8.02724 7.86731C7.81871 7.86731 7.64673 8.04425 7.64673 8.25879V9.70751V11.5455V13.3835V15.2215V17.0595V18.8974V20.3462C7.64673 20.5607 7.81656 20.7376 8.02724 20.7376H19.78C19.9885 20.7376 20.1605 20.5629 20.1605 20.3462V18.8974V17.0595V15.2215V13.3835V11.5455V9.70751V8.25879C20.1605 8.04425 19.9907 7.86731 19.78 7.86731H8.02724ZM18.3719 11.5477V13.3857V15.2237V17.0617V18.6763C18.3719 18.8023 18.273 18.8997 18.1548 18.8997H9.65461C9.53207 18.8997 9.43749 18.7979 9.43749 18.6763V17.0617V15.2237V13.3857V11.5477V9.93311C9.43749 9.80704 9.53637 9.70972 9.65461 9.70972H18.1548C18.2773 9.70972 18.3719 9.81146 18.3719 9.93311V11.5477Z" fill="black"/>
<path opacity="0.25" d="M16.5854 15.2236V13.3856V11.9369C16.5854 11.7224 16.4156 11.5454 16.2049 11.5454H11.6023C11.3938 11.5454 11.2218 11.7201 11.2218 11.9369V13.3856V15.2236V16.6723C11.2218 16.8869 11.3916 17.0638 11.6023 17.0638H16.2049C16.4135 17.0638 16.5854 16.8891 16.5854 16.6723V15.2236Z" fill="black"/>
<path opacity="0.25" d="M40.1985 7.86731C39.99 7.86731 39.818 8.04425 39.818 8.25879V9.70751V11.5455V13.3835V15.2215V17.0595V18.8974V20.3462C39.818 20.5607 39.9878 20.7376 40.1985 20.7376H51.9513C52.1598 20.7376 52.3318 20.5629 52.3318 20.3462V18.8974V17.0595V15.2215V13.3835V11.5455V9.70751V8.25879C52.3318 8.04425 52.162 7.86731 51.9513 7.86731H40.1985ZM50.5432 11.5477V13.3857V15.2237V17.0617V18.6763C50.5432 18.8023 50.4443 18.8997 50.3261 18.8997H41.8259C41.7033 18.8997 41.6087 18.7979 41.6087 18.6763V17.0617V15.2237V13.3857V11.5477V9.93311C41.6087 9.80704 41.7076 9.70972 41.8259 9.70972H50.3261C50.4486 9.70972 50.5432 9.81146 50.5432 9.93311V11.5477Z" fill="black"/>
<path opacity="0.25" d="M48.7546 15.2236V13.3856V11.9369C48.7546 11.7224 48.5847 11.5454 48.3741 11.5454H43.7714C43.5629 11.5454 43.3909 11.7201 43.3909 11.9369V13.3856V15.2236V16.6723C43.3909 16.8869 43.5607 17.0638 43.7714 17.0638H48.3741C48.5826 17.0638 48.7546 16.8891 48.7546 16.6723V15.2236Z" fill="black"/>
<path opacity="0.25" d="M8.02724 40.9666C7.81871 40.9666 7.64673 41.1435 7.64673 41.358V42.8067V44.6447V46.4827V48.3207V50.1587V51.9967V53.4454C7.64673 53.6599 7.81656 53.8369 8.02724 53.8369H19.78C19.9885 53.8369 20.1605 53.6622 20.1605 53.4454V51.9967V50.1587V48.3207V46.4827V44.6447V42.8067V41.358C20.1605 41.1435 19.9907 40.9666 19.78 40.9666H8.02724ZM18.3719 44.6447V46.4827V48.3207V50.1587V51.7733C18.3719 51.8994 18.273 51.9967 18.1548 51.9967H9.65461C9.53207 51.9967 9.43749 51.8949 9.43749 51.7733V50.1587V48.3207V46.4827V44.6447V43.0301C9.43749 42.9041 9.53637 42.8067 9.65461 42.8067H18.1548C18.2773 42.8067 18.3719 42.9085 18.3719 43.0301V44.6447Z" fill="black"/>
<path opacity="0.25" d="M16.5854 48.323V46.485V45.0363C16.5854 44.8217 16.4156 44.6448 16.2049 44.6448H11.6023C11.3938 44.6448 11.2218 44.8195 11.2218 45.0363V46.485V48.323V49.7717C11.2218 49.9862 11.3916 50.1632 11.6023 50.1632H16.2049C16.4135 50.1632 16.5854 49.9884 16.5854 49.7717V48.323Z" fill="black"/>
<path d="M52.2608 64.0973H7.71766C3.46113 64.0973 0 67.6583 0 72.0597C0 76.439 3.46113 80 7.71766 80H52.2393C56.4959 80 59.957 76.439 59.957 72.0597C59.9785 67.6583 56.5174 64.0973 52.2608 64.0973ZM57.0333 0H2.94518C1.31136 0 0 1.34918 0 3.03014V58.7006C0 60.3594 1.31136 61.7307 2.94518 61.7307H57.0548C58.6671 61.7307 60 60.3815 60 58.7006V3.03014C59.9785 1.34918 58.6671 0 57.0333 0ZM57.7212 57.7495C57.7212 58.6563 57.0118 59.3862 56.1304 59.3862H3.84808C2.96668 59.3862 2.25726 58.6563 2.25726 57.7495V3.95908C2.25726 3.05225 2.96668 2.32237 3.84808 2.32237H56.1304C57.0118 2.32237 57.7212 3.05225 57.7212 3.95908V57.7495Z" fill="black"/>
<path d="M7.71766 65.7341C4.32102 65.7341 1.59082 68.5431 1.59082 72.0377C1.59082 75.5323 4.32102 78.3413 7.71766 78.3413C11.1143 78.3413 13.8445 75.5323 13.8445 72.0377C13.8445 68.5652 11.1143 65.7341 7.71766 65.7341Z" fill="black"/>
<path d="M7.71766 65.7341C4.32102 65.7341 1.59082 68.5431 1.59082 72.0377C1.59082 75.5323 4.32102 78.3413 7.71766 78.3413C11.1143 78.3413 13.8445 75.5323 13.8445 72.0377C13.8445 68.5652 11.1143 65.7341 7.71766 65.7341Z" fill="white"/>
<path d="M5.71838 71.2413L5.91186 71.6837C5.91186 71.7058 5.93335 71.7279 5.97635 71.7279L6.4493 71.7943C6.51379 71.7943 6.53529 71.8827 6.49229 71.927L6.14833 72.2587C6.12683 72.2808 6.12683 72.303 6.12683 72.3251L6.21282 72.7896C6.23432 72.8559 6.16983 72.9001 6.10533 72.878L5.69688 72.6568C5.67538 72.6347 5.65388 72.6347 5.63239 72.6568L5.22393 72.878C5.18093 72.9001 5.11644 72.8559 5.11644 72.7896L5.20243 72.3251C5.20243 72.303 5.20243 72.2808 5.18093 72.2587L4.83697 71.927C4.79398 71.8827 4.81547 71.8164 4.87997 71.7943L5.35292 71.7279C5.37441 71.7279 5.39591 71.7058 5.41741 71.6837L5.61089 71.2413C5.63239 71.1971 5.69688 71.1971 5.71838 71.2413ZM7.80365 71.2413L7.99713 71.6837C7.99713 71.7058 8.01863 71.7279 8.06162 71.7279L8.53457 71.7943C8.59906 71.7943 8.62056 71.8827 8.57757 71.927L8.2336 72.2587C8.21211 72.2808 8.21211 72.303 8.21211 72.3251L8.2981 72.7896C8.31959 72.8559 8.2551 72.9001 8.19061 72.878L7.78215 72.6568C7.76065 72.6347 7.73916 72.6347 7.71766 72.6568L7.3092 72.878C7.26621 72.9001 7.20172 72.8559 7.20172 72.7896L7.28771 72.3251C7.28771 72.303 7.28771 72.2808 7.26621 72.2587L6.92225 71.927C6.87925 71.8827 6.90075 71.8164 6.96524 71.7943L7.43819 71.7279C7.45969 71.7279 7.48119 71.7058 7.50268 71.6837L7.69616 71.2413C7.71766 71.1971 7.78215 71.1971 7.80365 71.2413ZM9.88892 71.2413L10.0824 71.6837C10.0824 71.7058 10.1039 71.7279 10.1469 71.7279L10.6198 71.7943C10.6843 71.7943 10.7058 71.8827 10.6628 71.927L10.3189 72.2587C10.2974 72.2808 10.2974 72.303 10.2974 72.3251L10.3834 72.7896C10.4049 72.8559 10.3404 72.9001 10.2759 72.878L9.86743 72.6568C9.84593 72.6347 9.82443 72.6347 9.80293 72.6568L9.39448 72.878C9.35148 72.9001 9.28699 72.8559 9.28699 72.7896L9.37298 72.3251C9.37298 72.303 9.37298 72.2808 9.35148 72.2587L9.00752 71.927C8.96452 71.8827 8.98602 71.8164 9.05051 71.7943L9.52346 71.7279C9.54496 71.7279 9.56646 71.7058 9.58796 71.6837L9.78144 71.2413C9.78144 71.1971 9.86743 71.1971 9.88892 71.2413ZM10.9423 76.063C10.5768 76.063 9.99641 75.9966 9.37298 75.6649C8.85704 75.9082 8.2766 76.0409 7.71766 76.0409C5.56789 76.0409 3.80508 74.2493 3.80508 72.0154C3.80508 69.7815 5.5464 67.99 7.71766 67.99C9.88892 67.99 11.6302 69.7815 11.6302 72.0154C11.6302 72.878 11.3508 73.7185 10.8563 74.4263C10.9423 74.6474 11.1358 75.0898 11.4798 75.4879C11.5657 75.5764 11.5872 75.7091 11.5442 75.8197C11.5012 75.9303 11.4153 76.0187 11.2863 76.0409C11.2863 76.0409 11.1573 76.063 10.9423 76.063ZM7.71766 68.6978C5.91186 68.6978 4.45001 70.2018 4.45001 72.0597C4.45001 73.9176 5.91186 75.4216 7.71766 75.4216C8.2551 75.4216 8.77105 75.2889 9.24399 75.0456C9.35148 75.0013 9.45897 75.0013 9.56646 75.0456C9.95342 75.2667 10.3189 75.3773 10.5983 75.4216C10.2974 74.935 10.1899 74.5147 10.1899 74.4926C10.1684 74.382 10.1899 74.2714 10.2544 74.183C10.7273 73.5858 10.9853 72.8338 10.9853 72.0597C10.9853 70.2018 9.52346 68.6978 7.71766 68.6978Z" fill="black"/>
<path d="M21.1601 73.827C21.1601 74.3401 20.9796 74.7449 20.6184 75.0412C20.2572 75.3376 19.7563 75.4836 19.1136 75.4836C18.4342 75.4836 17.9097 75.3907 17.5378 75.2049V74.4949C17.7807 74.6033 18.0473 74.6874 18.3353 74.7493C18.6234 74.8112 18.8943 74.8422 19.1437 74.8422C19.5715 74.8422 19.8939 74.7581 20.1111 74.5878C20.3282 74.4175 20.4357 74.1853 20.4357 73.8911C20.4357 73.6943 20.397 73.5328 20.3174 73.4067C20.24 73.2807 20.1068 73.1612 19.924 73.0529C19.7413 72.9445 19.4618 72.8184 19.0878 72.6769C18.5568 72.4778 18.1784 72.2433 17.9505 71.9735C17.7227 71.7037 17.6087 71.3542 17.6087 70.9273C17.6087 70.4673 17.7764 70.1024 18.1118 69.8303C18.4471 69.5583 18.89 69.4233 19.4382 69.4233C20.01 69.4233 20.5367 69.5339 21.0183 69.7529L20.7947 70.3899C20.3045 70.1798 19.8466 70.0758 19.4231 70.0758C19.0835 70.0758 18.8169 70.151 18.6256 70.3014C18.4342 70.4518 18.3375 70.6619 18.3375 70.934C18.3375 71.1264 18.374 71.2879 18.4493 71.4161C18.5245 71.5444 18.6449 71.6594 18.8104 71.7656C18.976 71.8718 19.2361 71.989 19.593 72.1239C20.0186 72.2854 20.3368 72.4424 20.5453 72.5928C20.7538 72.7454 20.9086 72.9201 21.0075 73.117C21.1107 73.3183 21.1601 73.5549 21.1601 73.827ZM24.7696 70.078C24.1526 70.078 23.6689 70.2904 23.3164 70.715C22.9638 71.1397 22.7875 71.7192 22.7875 72.4557C22.7875 73.2165 22.9595 73.8026 23.3013 74.2162C23.6431 74.6298 24.1311 74.8355 24.7631 74.8355C25.1716 74.8355 25.6295 74.7581 26.139 74.6011V75.2469C25.8961 75.3376 25.6618 75.4018 25.4382 75.4349C25.2146 75.4681 24.9545 75.4858 24.6621 75.4858C23.8194 75.4858 23.168 75.2226 22.7123 74.694C22.2565 74.1654 22.0286 73.4178 22.0286 72.4513C22.0286 71.843 22.1383 71.3122 22.3554 70.8544C22.5725 70.3965 22.8907 70.0448 23.3078 69.7971C23.7248 69.5494 24.215 69.4256 24.7782 69.4256C25.3844 69.4256 25.9111 69.5406 26.3604 69.7728L26.0702 70.4009C25.6123 70.1864 25.1802 70.078 24.7696 70.078ZM30.9803 75.404L30.2902 73.577H28.0179L27.3364 75.404H26.6076L28.8456 69.4853H29.4969L31.7305 75.404H30.9803ZM30.0752 72.9202L29.4324 71.1352L29.1573 70.2528C29.0799 70.5757 28.996 70.8698 28.91 71.1352L28.2587 72.9202H30.0752ZM37.0577 75.404H36.215L33.1472 70.5093H33.115L33.1343 70.8367C33.1666 71.3255 33.1816 71.7501 33.1816 72.1106V75.404H32.5152V69.5096H33.3493L33.5256 69.7949L35.4066 72.7852L36.4063 74.3866H36.4385C36.4342 74.3224 36.4235 74.0924 36.4063 73.6943C36.3912 73.2984 36.3826 73.0108 36.3826 72.8339V69.5074H37.0555V75.404H37.0577ZM43.2232 75.404L41.3357 70.2351H41.3035C41.3422 70.6641 41.3615 71.195 41.3615 71.8275V75.404H40.6951V69.5096H41.7614L43.5285 74.3379H43.5607L45.3601 69.5096H46.4178V75.404H45.704V71.7789C45.704 71.3763 45.7234 70.8632 45.7599 70.2439H45.7277L43.8165 75.404H43.2232ZM51.1773 75.404H47.9763V69.5096H51.1773V70.1621H48.6965V72.0001H51.0312V72.6459H48.6965V74.7493H51.1773V75.404Z" fill="white"/>
</svg>
