<svg width="30" height="30" viewBox="0 0 30 30" fill="none" xmlns="http://www.w3.org/2000/svg">
<path d="M11.201 16.8671L10.2676 16.8652V16.8671H11.201Z" fill="#FAFAFA"/>
<path d="M19.6017 16.8671H20.5352L19.6017 16.8652V16.8671Z" fill="#FAFAFA"/>
<path d="M30 14.0663C30 12.0072 28.3255 10.3327 26.2663 10.3327C25.4431 10.3327 24.6609 10.6015 24.0224 11.0887C21.939 9.64193 19.2097 8.77945 16.3068 8.56103L17.8731 4.88711L22.43 5.9512C22.5756 7.36066 23.7554 8.46582 25.2022 8.46582C26.7461 8.46582 28.0025 7.20945 28.0025 5.66558C28.0025 4.1217 26.7461 2.86533 25.2022 2.86533C24.224 2.86533 23.3634 3.37124 22.8631 4.13477L17.537 2.88959C17.0853 2.78692 16.6428 3.01654 16.4636 3.43284L14.2981 8.51063C11.1637 8.6189 8.17673 9.50192 5.92159 11.0402C5.3074 10.5847 4.54574 10.3327 3.73367 10.3327C1.67455 10.3327 0 12.0072 0 14.0663C0 15.431 0.744866 16.665 1.88737 17.2978C1.87243 17.4621 1.86683 17.6301 1.86683 17.8C1.86683 22.9468 7.72869 27.1342 14.9347 27.1342C22.1388 27.1342 28.0025 22.9468 28.0025 17.8C28.0025 17.6544 27.9969 17.5106 27.9876 17.3669C29.2047 16.7471 30 15.4832 30 14.0663Z" fill="#FF9800"/>
<path d="M25.2022 6.59925C25.7178 6.59925 26.1357 6.18135 26.1357 5.66584C26.1357 5.15033 25.7178 4.73242 25.2022 4.73242C24.6867 4.73242 24.2688 5.15033 24.2688 5.66584C24.2688 6.18135 24.6867 6.59925 25.2022 6.59925Z" fill="#FAFAFA"/>
<path d="M10.2676 18.7337C11.2986 18.7337 12.1344 17.8979 12.1344 16.8668C12.1344 15.8358 11.2986 15 10.2676 15C9.23657 15 8.40076 15.8358 8.40076 16.8668C8.40076 17.8979 9.23657 18.7337 10.2676 18.7337Z" fill="#FAFAFA"/>
<path d="M19.2453 23.0595C17.9571 23.991 16.445 24.4577 14.9347 24.4577C13.4245 24.4577 11.9123 23.991 10.6242 23.0595C10.2061 22.7571 10.1127 22.1727 10.4151 21.7564C10.7176 21.3401 11.3019 21.2468 11.7182 21.5473C13.6429 22.9381 16.2266 22.9419 18.1513 21.5473C18.5676 21.2468 19.1501 21.3364 19.4543 21.7564C19.7568 22.1746 19.6616 22.7571 19.2453 23.0595Z" fill="#FAFAFA"/>
<path d="M19.6018 18.7337C20.6328 18.7337 21.4686 17.8979 21.4686 16.8668C21.4686 15.8358 20.6328 15 19.6018 15C18.5707 15 17.7349 15.8358 17.7349 16.8668C17.7349 17.8979 18.5707 18.7337 19.6018 18.7337Z" fill="#FAFAFA"/>
</svg>
