<svg width="28" height="25" viewBox="0 0 28 25" fill="none" xmlns="http://www.w3.org/2000/svg">
<g clip-path="url(#clip0)">
<path d="M4.52205 5.79334C4.52205 5.49951 4.41616 5.25955 4.1943 5.07835C3.98252 4.89716 3.60434 4.73066 3.05977 4.56905C2.11686 4.3046 1.40589 3.99608 0.92183 3.6288C0.437768 3.26151 0.195736 2.77179 0.195736 2.14496C0.195736 1.51812 0.473064 0.999021 1.02772 0.602351C1.58237 0.205681 2.2883 0 3.14549 0C4.01277 0 4.72374 0.220372 5.27335 0.675808C5.82296 1.12635 6.08517 1.67483 6.07004 2.34084L6.05995 2.37023H4.52205C4.52205 2.01273 4.40103 1.7287 4.15396 1.50343C3.91193 1.28306 3.56905 1.17042 3.12532 1.17042C2.69673 1.17042 2.37402 1.26347 2.13703 1.44466C1.91012 1.62586 1.79415 1.86582 1.79415 2.14985C1.79415 2.4094 1.91517 2.62488 2.16728 2.79138C2.4194 2.95788 2.84295 3.13418 3.45307 3.32027C4.3254 3.56024 4.99098 3.86876 5.43471 4.25073C5.87843 4.63271 6.10533 5.14691 6.10533 5.77865C6.10533 6.43487 5.83809 6.95397 5.30361 7.33595C4.76912 7.71303 4.0632 7.90402 3.18583 7.90402C2.3236 7.90402 1.56725 7.68854 0.931915 7.25759C0.29154 6.82664 -0.0210834 6.21939 -0.000914129 5.44564L0.00917051 5.41626H1.55716C1.55716 5.87169 1.70339 6.2096 1.9908 6.42018C2.27821 6.63075 2.67656 6.74339 3.19592 6.74339C3.62956 6.74339 3.95731 6.65524 4.18925 6.48384C4.41112 6.31244 4.52205 6.08227 4.52205 5.79334Z" fill="#3C3C3C"/>
<path d="M13.2915 5.18118L13.3016 5.21056C13.3167 6.03818 13.0545 6.6944 12.5251 7.17922C11.9906 7.66404 11.2494 7.9089 10.3014 7.9089C9.34844 7.9089 8.57192 7.61507 7.98197 7.01762C7.39202 6.42016 7.08948 5.65621 7.08948 4.72085V3.19783C7.08948 2.26737 7.37689 1.49852 7.95676 0.901063C8.53662 0.30361 9.28793 0.00488281 10.2157 0.00488281C11.1939 0.00488281 11.9604 0.249741 12.51 0.73456C13.0596 1.21938 13.3319 1.88539 13.3167 2.7277L13.3067 2.75709H11.7587C11.7587 2.24778 11.6377 1.86091 11.3855 1.59156C11.1334 1.32222 10.7452 1.1851 10.2157 1.1851C9.74174 1.1851 9.36356 1.37119 9.08624 1.74337C8.80891 2.11556 8.66772 2.59058 8.66772 3.17824V4.71105C8.66772 5.29871 8.81899 5.77863 9.11145 6.15571C9.4039 6.5279 9.7972 6.71399 10.3014 6.71399C10.7956 6.71399 11.1637 6.58667 11.4007 6.32712C11.6377 6.06757 11.7587 5.68559 11.7587 5.17139H13.2915V5.18118Z" fill="#3C3C3C"/>
<path d="M18.6767 6.14609H15.8984L15.3589 7.80133H13.7554L16.4833 0.112793H18.112L20.8248 7.80133H19.2213L18.6767 6.14609ZM16.2917 4.9316H18.2885L17.3103 1.91005H17.28L16.2917 4.9316Z" fill="#3C3C3C"/>
<path d="M27.9596 7.80133H26.3764L23.1795 2.54668L23.1493 2.55158V7.80133H21.5609V0.112793H23.1493L26.3461 5.36255L26.3764 5.35765V0.112793H27.9596V7.80133Z" fill="#3C3C3C"/>
<path d="M2.55141 10.6758L7.25086 22.3114H7.31136L12.0108 10.6758H14.5622V25H12.5655V19.334L12.7672 13.5112L12.7167 13.5014L7.93661 25H6.61048L1.85053 13.5308L1.80011 13.5406L1.99172 19.334V25H0V10.6758H2.55141Z" fill="#3C3C3C"/>
<path d="M26.9663 18.3594H20.2147V23.4721H28V24.9951H18.2179V10.6758H27.8891V12.1988H20.2147V16.8315H26.9663V18.3594Z" fill="#3C3C3C"/>
</g>
<defs>
<clipPath id="clip0">
<rect width="28" height="25" fill="white"/>
</clipPath>
</defs>
</svg>
