<svg width="35" height="35" viewBox="0 0 35 35" fill="none" xmlns="http://www.w3.org/2000/svg">
<path d="M19.6191 22.7429C19.5677 22.692 19.4983 22.6635 19.426 22.6635C19.3537 22.6635 19.2843 22.692 19.2329 22.7429L15.2612 26.7146C13.4223 28.5535 10.3188 28.7483 8.28856 26.7146C6.25487 24.6809 6.44969 21.5808 8.28856 19.7419L12.2602 15.7703C12.3662 15.6643 12.3662 15.49 12.2602 15.384L10.8999 14.0237C10.8485 13.9728 10.7791 13.9442 10.7068 13.9442C10.6344 13.9442 10.565 13.9728 10.5137 14.0237L6.54198 17.9954C3.65038 20.887 3.65038 25.5662 6.54198 28.4543C9.43358 31.3425 14.1128 31.3459 17.001 28.4543L20.9726 24.4827C21.0786 24.3767 21.0786 24.2024 20.9726 24.0964L19.6191 22.7429ZM28.458 6.54175C25.5664 3.65015 20.8872 3.65015 17.999 6.54175L14.0239 10.5134C13.973 10.5648 13.9445 10.6342 13.9445 10.7065C13.9445 10.7789 13.973 10.8483 14.0239 10.8997L15.3808 12.2566C15.4868 12.3625 15.6611 12.3625 15.7671 12.2566L19.7388 8.28491C21.5776 6.44604 24.6811 6.25122 26.7114 8.28491C28.7451 10.3186 28.5503 13.4187 26.7114 15.2576L22.7397 19.2292C22.6888 19.2806 22.6603 19.35 22.6603 19.4224C22.6603 19.4947 22.6888 19.5641 22.7397 19.6155L24.1001 20.9758C24.206 21.0818 24.3804 21.0818 24.4863 20.9758L28.458 17.0041C31.3462 14.1125 31.3462 9.43335 28.458 6.54175ZM20.853 12.7249C20.8016 12.674 20.7322 12.6454 20.6599 12.6454C20.5876 12.6454 20.5182 12.674 20.4668 12.7249L12.7251 20.4631C12.6742 20.5145 12.6456 20.5839 12.6456 20.6562C12.6456 20.7286 12.6742 20.798 12.7251 20.8494L14.0786 22.2029C14.1846 22.3088 14.3589 22.3088 14.4648 22.2029L22.2031 14.4646C22.3091 14.3586 22.3091 14.1843 22.2031 14.0784L20.853 12.7249Z" fill="#3C3C3C"/>
</svg>
