<svg width="35" height="35" viewBox="0 0 35 35" fill="none" xmlns="http://www.w3.org/2000/svg">
<path d="M14.1677 17.4998C15.8463 17.4998 17.0844 16.2617 17.0844 14.5832C17.0844 12.9046 15.8463 11.6665 14.1677 11.6665C12.4892 11.6665 11.251 12.9046 11.251 14.5832C11.251 16.2617 12.4877 17.4998 14.1677 17.4998Z" fill="#3C3C3C"/>
<path d="M29.1667 5.8335H5.83333C4.22479 5.8335 2.91666 7.05995 2.91666 8.56787V26.4325C2.91666 27.9404 4.22479 29.1668 5.83333 29.1668H29.1667C30.7752 29.1668 32.0833 27.9404 32.0833 26.4325V8.56787C32.0833 7.05995 30.7752 5.8335 29.1667 5.8335ZM29.1667 26.2502L5.83333 26.2341V8.75016L29.1667 8.7662V26.2502Z" fill="#3C3C3C"/>
<path d="M20.4167 13.125H26.25V16.0417H20.4167V13.125ZM21.875 18.9583H26.25V21.875H21.875V18.9583ZM19.5854 22.6567C19.5854 20.6529 17.1413 18.5938 14.1677 18.5938C11.1942 18.5938 8.75 20.6529 8.75 22.6567V23.3333H19.5854V22.6567Z" fill="#3C3C3C"/>
</svg>
