<svg width="30" height="30" viewBox="0 0 30 30" fill="none" xmlns="http://www.w3.org/2000/svg">
<g clip-path="url(#clip0)">
<path d="M16.8715 13.1156V19.9856C16.8715 21.7181 16.8527 22.7306 17.0327 23.2256C17.2127 23.7113 17.6665 24.2213 18.1821 24.5212C18.8271 24.915 19.6071 25.11 20.4396 25.11C21.9602 25.11 22.8696 24.915 24.3771 23.9306V28.44C23.0871 29.0419 21.964 29.3981 20.9308 29.6325C19.8996 29.8856 18.7727 30 17.5671 30C16.1927 30 15.3752 29.8313 14.3365 29.4881C13.2696 29.1394 12.3771 28.6444 11.6308 27.9994C10.8715 27.3619 10.3746 26.6812 10.084 25.9575C9.78771 25.2394 9.64896 24.1875 9.64896 22.8094V12.2963H5.62334V8.04562C6.80834 7.6575 8.12084 7.11188 8.96834 6.3975C9.78771 5.67562 10.4815 4.8225 10.9746 3.81375C11.4902 2.82375 11.8408 1.54313 12.0358 0H16.8715V7.50187H24.3771V13.1156H16.8715Z" fill="#37474F"/>
</g>
<defs>
<clipPath id="clip0">
<rect width="30" height="30" fill="white"/>
</clipPath>
</defs>
</svg>
