<svg width="30" height="30" viewBox="0 0 30 30" fill="none" xmlns="http://www.w3.org/2000/svg">
<path d="M9.37375 13.75C10.4093 13.75 11.2487 12.9105 11.2487 11.875C11.2487 10.8395 10.4093 10 9.37375 10C8.33822 10 7.49875 10.8395 7.49875 11.875C7.49875 12.9105 8.33822 13.75 9.37375 13.75Z" fill="#3C3C3C"/>
<path d="M13.1237 17.5L11.2487 15L7.49875 20H22.4987L16.8737 12.5L13.1237 17.5Z" fill="#3C3C3C"/>
<path d="M24.9988 5H4.99875C3.62 5 2.49875 6.12125 2.49875 7.5V22.5C2.49875 23.8787 3.62 25 4.99875 25H24.9988C26.3775 25 27.4988 23.8787 27.4988 22.5V7.5C27.4988 6.12125 26.3775 5 24.9988 5ZM4.99875 22.5V7.5H24.9988L25.0012 22.5H4.99875Z" fill="#3C3C3C"/>
</svg>
