<svg width="30" height="30" viewBox="0 0 30 30" fill="none" xmlns="http://www.w3.org/2000/svg">
<path d="M13.5938 15C13.5938 15.373 13.7419 15.7306 14.0056 15.9944C14.2694 16.2581 14.627 16.4062 15 16.4062C15.373 16.4062 15.7306 16.2581 15.9944 15.9944C16.2581 15.7306 16.4063 15.373 16.4063 15C16.4063 14.627 16.2581 14.2694 15.9944 14.0056C15.7306 13.7419 15.373 13.5938 15 13.5938C14.627 13.5938 14.2694 13.7419 14.0056 14.0056C13.7419 14.2694 13.5938 14.627 13.5938 15ZM19.4531 15C19.4531 15.373 19.6013 15.7306 19.865 15.9944C20.1287 16.2581 20.4864 16.4062 20.8594 16.4062C21.2323 16.4062 21.59 16.2581 21.8537 15.9944C22.1175 15.7306 22.2656 15.373 22.2656 15C22.2656 14.627 22.1175 14.2694 21.8537 14.0056C21.59 13.7419 21.2323 13.5938 20.8594 13.5938C20.4864 13.5938 20.1287 13.7419 19.865 14.0056C19.6013 14.2694 19.4531 14.627 19.4531 15ZM7.73438 15C7.73438 15.373 7.88254 15.7306 8.14626 15.9944C8.40998 16.2581 8.76767 16.4062 9.14063 16.4062C9.51359 16.4062 9.87128 16.2581 10.135 15.9944C10.3987 15.7306 10.5469 15.373 10.5469 15C10.5469 14.627 10.3987 14.2694 10.135 14.0056C9.87128 13.7419 9.51359 13.5938 9.14063 13.5938C8.76767 13.5938 8.40998 13.7419 8.14626 14.0056C7.88254 14.2694 7.73438 14.627 7.73438 15ZM27.1055 9.91406C26.4434 8.34082 25.4941 6.92871 24.2842 5.71582C23.0827 4.50995 21.6564 3.55143 20.0859 2.89453C18.4746 2.21777 16.7637 1.875 15 1.875H14.9414C13.166 1.88379 11.4463 2.23535 9.82911 2.92676C8.27215 3.59039 6.85918 4.55062 5.66895 5.75391C4.47071 6.96387 3.53028 8.37012 2.87989 9.9375C2.20606 11.5605 1.86622 13.2861 1.87501 15.0615C1.88495 17.0961 2.36629 19.1007 3.28126 20.918V25.3711C3.28126 25.7285 3.42324 26.0713 3.67598 26.324C3.92871 26.5768 4.27149 26.7188 4.62891 26.7188H9.08497C10.9022 27.6337 12.9068 28.1151 14.9414 28.125H15.0029C16.7578 28.125 18.46 27.7852 20.0625 27.1201C21.625 26.471 23.046 25.5237 24.2461 24.3311C25.4561 23.1328 26.4082 21.7324 27.0732 20.1709C27.7647 18.5537 28.1162 16.834 28.125 15.0586C28.1338 13.2744 27.7881 11.543 27.1055 9.91406ZM22.6787 22.7461C20.625 24.7793 17.9004 25.8984 15 25.8984H14.9502C13.1836 25.8896 11.4287 25.4502 9.87891 24.624L9.63282 24.4922H5.50782V20.3672L5.37598 20.1211C4.54981 18.5713 4.11036 16.8164 4.10157 15.0498C4.08985 12.1289 5.20606 9.38672 7.25391 7.32129C9.29883 5.25586 12.0322 4.11328 14.9531 4.10156H15.0029C16.4678 4.10156 17.8887 4.38574 19.2275 4.94824C20.5342 5.49609 21.7061 6.28418 22.7139 7.29199C23.7188 8.29688 24.5098 9.47168 25.0576 10.7783C25.626 12.1318 25.9102 13.5674 25.9043 15.0498C25.8867 17.9678 24.7412 20.7012 22.6787 22.7461Z" fill="#3C3C3C"/>
</svg>
