<svg width="30" height="30" viewBox="0 0 30 30" fill="none" xmlns="http://www.w3.org/2000/svg">
<path fill-rule="evenodd" clip-rule="evenodd" d="M5.625 5.625C4.58947 5.625 3.75 6.46447 3.75 7.5V24.375C3.75 25.4105 4.58947 26.25 5.625 26.25H24.375C25.4105 26.25 26.25 25.4105 26.25 24.375V7.5C26.25 6.46447 25.4105 5.625 24.375 5.625H5.625ZM1.875 7.5C1.875 5.42893 3.55393 3.75 5.625 3.75H24.375C26.4461 3.75 28.125 5.42893 28.125 7.5V24.375C28.125 26.4461 26.4461 28.125 24.375 28.125H5.625C3.55393 28.125 1.875 26.4461 1.875 24.375V7.5Z" fill="#3C3C3C"/>
<path d="M17.3438 15C18.1204 15 18.75 14.3704 18.75 13.5938C18.75 12.8171 18.1204 12.1875 17.3438 12.1875C16.5671 12.1875 15.9375 12.8171 15.9375 13.5938C15.9375 14.3704 16.5671 15 17.3438 15Z" fill="#3C3C3C"/>
<path d="M22.0312 15C22.8079 15 23.4375 14.3704 23.4375 13.5938C23.4375 12.8171 22.8079 12.1875 22.0312 12.1875C21.2546 12.1875 20.625 12.8171 20.625 13.5938C20.625 14.3704 21.2546 15 22.0312 15Z" fill="#3C3C3C"/>
<path d="M17.3438 19.6875C18.1204 19.6875 18.75 19.0579 18.75 18.2812C18.75 17.5046 18.1204 16.875 17.3438 16.875C16.5671 16.875 15.9375 17.5046 15.9375 18.2812C15.9375 19.0579 16.5671 19.6875 17.3438 19.6875Z" fill="#3C3C3C"/>
<path d="M22.0312 19.6875C22.8079 19.6875 23.4375 19.0579 23.4375 18.2812C23.4375 17.5046 22.8079 16.875 22.0312 16.875C21.2546 16.875 20.625 17.5046 20.625 18.2812C20.625 19.0579 21.2546 19.6875 22.0312 19.6875Z" fill="#3C3C3C"/>
<path d="M7.96875 19.6875C8.7454 19.6875 9.375 19.0579 9.375 18.2812C9.375 17.5046 8.7454 16.875 7.96875 16.875C7.1921 16.875 6.5625 17.5046 6.5625 18.2812C6.5625 19.0579 7.1921 19.6875 7.96875 19.6875Z" fill="#3C3C3C"/>
<path d="M12.6562 19.6875C13.4329 19.6875 14.0625 19.0579 14.0625 18.2812C14.0625 17.5046 13.4329 16.875 12.6562 16.875C11.8796 16.875 11.25 17.5046 11.25 18.2812C11.25 19.0579 11.8796 19.6875 12.6562 19.6875Z" fill="#3C3C3C"/>
<path d="M7.96875 24.375C8.7454 24.375 9.375 23.7454 9.375 22.9688C9.375 22.1921 8.7454 21.5625 7.96875 21.5625C7.1921 21.5625 6.5625 22.1921 6.5625 22.9688C6.5625 23.7454 7.1921 24.375 7.96875 24.375Z" fill="#3C3C3C"/>
<path d="M12.6562 24.375C13.4329 24.375 14.0625 23.7454 14.0625 22.9688C14.0625 22.1921 13.4329 21.5625 12.6562 21.5625C11.8796 21.5625 11.25 22.1921 11.25 22.9688C11.25 23.7454 11.8796 24.375 12.6562 24.375Z" fill="#3C3C3C"/>
<path d="M17.3438 24.375C18.1204 24.375 18.75 23.7454 18.75 22.9688C18.75 22.1921 18.1204 21.5625 17.3438 21.5625C16.5671 21.5625 15.9375 22.1921 15.9375 22.9688C15.9375 23.7454 16.5671 24.375 17.3438 24.375Z" fill="#3C3C3C"/>
<path fill-rule="evenodd" clip-rule="evenodd" d="M7.5 1.875C8.01777 1.875 8.4375 2.29473 8.4375 2.8125V4.6875C8.4375 5.20527 8.01777 5.625 7.5 5.625C6.98223 5.625 6.5625 5.20527 6.5625 4.6875V2.8125C6.5625 2.29473 6.98223 1.875 7.5 1.875Z" fill="#3C3C3C"/>
<path fill-rule="evenodd" clip-rule="evenodd" d="M22.5 1.875C23.0178 1.875 23.4375 2.29473 23.4375 2.8125V4.6875C23.4375 5.20527 23.0178 5.625 22.5 5.625C21.9822 5.625 21.5625 5.20527 21.5625 4.6875V2.8125C21.5625 2.29473 21.9822 1.875 22.5 1.875Z" fill="#3C3C3C"/>
<path fill-rule="evenodd" clip-rule="evenodd" d="M2.8125 8.4375H27.1875V10.3125H2.8125V8.4375Z" fill="#3C3C3C"/>
</svg>
