<svg width="30" height="30" viewBox="0 0 30 30" fill="none" xmlns="http://www.w3.org/2000/svg">
<path d="M19.929 15L26.4372 7.83938C28.179 5.925 28.0384 2.95875 26.1222 1.21687C24.2059 -0.52125 21.2415 -0.380625 19.5015 1.53187L11.7184 10.095V4.6875C11.7184 2.09812 9.62029 0 7.03091 0C4.44154 0 2.34341 2.09812 2.34341 4.6875V25.3125C2.34341 27.9019 4.44154 30 7.03091 30C9.62029 30 11.7184 27.9019 11.7184 25.3125V19.9069L19.4997 28.4662C20.4259 29.4844 21.6953 30 22.9703 30C24.0953 30 25.224 29.5969 26.1222 28.7812C28.0365 27.0394 28.179 24.075 26.4372 22.1606L19.929 15Z" fill="#4CAF50"/>
</svg>
